<?xml version="1.0" encoding="utf-8" standalone="no"?>
<!DOCTYPE svg PUBLIC "-//W3C//DTD SVG 1.1//EN"
  "http://www.w3.org/Graphics/SVG/1.1/DTD/svg11.dtd">
<svg xmlns:xlink="http://www.w3.org/1999/xlink" width="756pt" height="417.6pt" viewBox="0 0 756 417.6" xmlns="http://www.w3.org/2000/svg" version="1.1">
 <metadata>
  <rdf:RDF xmlns:dc="http://purl.org/dc/elements/1.1/" xmlns:cc="http://creativecommons.org/ns#" xmlns:rdf="http://www.w3.org/1999/02/22-rdf-syntax-ns#">
   <cc:Work>
    <dc:type rdf:resource="http://purl.org/dc/dcmitype/StillImage"/>
    <dc:date>2026-05-07T14:56:08.489946</dc:date>
    <dc:format>image/svg+xml</dc:format>
    <dc:creator>
     <cc:Agent>
      <dc:title>Matplotlib v3.10.8, https://matplotlib.org/</dc:title>
     </cc:Agent>
    </dc:creator>
   </cc:Work>
  </rdf:RDF>
 </metadata>
 <defs>
  <style type="text/css">*{stroke-linejoin: round; stroke-linecap: butt}</style>
 </defs>
 <g id="figure_1">
  <g id="patch_1">
   <path d="M 0 417.6 
L 756 417.6 
L 756 0 
L 0 0 
z
" style="fill: #ffffff"/>
  </g>
  <g id="axes_1">
   <g id="patch_2">
    <path d="M 47.661139 285.631935 
L 746.28 285.631935 
L 746.28 24.52 
L 47.661139 24.52 
z
" style="fill: #ffffff"/>
   </g>
   <g id="patch_3">
    <path d="M 79.416541 285.631935 
L 111.573911 285.631935 
L 111.573911 197.738648 
L 79.416541 197.738648 
z
" clip-path="url(#p838fdc6ec9)" style="fill: #22577a; stroke: #000000; stroke-width: 0.2; stroke-linejoin: miter"/>
   </g>
   <g id="patch_4">
    <path d="M 119.613254 285.631935 
L 151.770624 285.631935 
L 151.770624 197.738648 
L 119.613254 197.738648 
z
" clip-path="url(#p838fdc6ec9)" style="fill: #22577a; stroke: #000000; stroke-width: 0.2; stroke-linejoin: miter"/>
   </g>
   <g id="patch_5">
    <path d="M 159.809966 285.631935 
L 191.967336 285.631935 
L 191.967336 197.738648 
L 159.809966 197.738648 
z
" clip-path="url(#p838fdc6ec9)" style="fill: #22577a; stroke: #000000; stroke-width: 0.2; stroke-linejoin: miter"/>
   </g>
   <g id="patch_6">
    <path d="M 200.006679 285.631935 
L 232.164048 285.631935 
L 232.164048 197.738648 
L 200.006679 197.738648 
z
" clip-path="url(#p838fdc6ec9)" style="fill: #22577a; stroke: #000000; stroke-width: 0.2; stroke-linejoin: miter"/>
   </g>
   <g id="patch_7">
    <path d="M 240.203391 285.631935 
L 272.360761 285.631935 
L 272.360761 197.738648 
L 240.203391 197.738648 
z
" clip-path="url(#p838fdc6ec9)" style="fill: #22577a; stroke: #000000; stroke-width: 0.2; stroke-linejoin: miter"/>
   </g>
   <g id="patch_8">
    <path d="M 280.400103 285.631935 
L 312.557473 285.631935 
L 312.557473 197.738648 
L 280.400103 197.738648 
z
" clip-path="url(#p838fdc6ec9)" style="fill: #22577a; stroke: #000000; stroke-width: 0.2; stroke-linejoin: miter"/>
   </g>
   <g id="patch_9">
    <path d="M 320.596816 285.631935 
L 352.754186 285.631935 
L 352.754186 197.738648 
L 320.596816 197.738648 
z
" clip-path="url(#p838fdc6ec9)" style="fill: #22577a; stroke: #000000; stroke-width: 0.2; stroke-linejoin: miter"/>
   </g>
   <g id="patch_10">
    <path d="M 360.793528 285.631935 
L 392.950898 285.631935 
L 392.950898 197.738648 
L 360.793528 197.738648 
z
" clip-path="url(#p838fdc6ec9)" style="fill: #22577a; stroke: #000000; stroke-width: 0.2; stroke-linejoin: miter"/>
   </g>
   <g id="patch_11">
    <path d="M 400.990241 285.631935 
L 433.14761 285.631935 
L 433.14761 197.738648 
L 400.990241 197.738648 
z
" clip-path="url(#p838fdc6ec9)" style="fill: #22577a; stroke: #000000; stroke-width: 0.2; stroke-linejoin: miter"/>
   </g>
   <g id="patch_12">
    <path d="M 441.186953 285.631935 
L 473.344323 285.631935 
L 473.344323 197.738648 
L 441.186953 197.738648 
z
" clip-path="url(#p838fdc6ec9)" style="fill: #22577a; stroke: #000000; stroke-width: 0.2; stroke-linejoin: miter"/>
   </g>
   <g id="patch_13">
    <path d="M 481.383665 285.631935 
L 513.541035 285.631935 
L 513.541035 219.762731 
L 481.383665 219.762731 
z
" clip-path="url(#p838fdc6ec9)" style="fill: #22577a; stroke: #000000; stroke-width: 0.2; stroke-linejoin: miter"/>
   </g>
   <g id="patch_14">
    <path d="M 521.580378 285.631935 
L 553.737748 285.631935 
L 553.737748 233.550263 
L 521.580378 233.550263 
z
" clip-path="url(#p838fdc6ec9)" style="fill: #22577a; stroke: #000000; stroke-width: 0.2; stroke-linejoin: miter"/>
   </g>
   <g id="patch_15">
    <path d="M 561.77709 285.631935 
L 593.93446 285.631935 
L 593.93446 241.235162 
L 561.77709 241.235162 
z
" clip-path="url(#p838fdc6ec9)" style="fill: #22577a; stroke: #000000; stroke-width: 0.2; stroke-linejoin: miter"/>
   </g>
   <g id="patch_16">
    <path d="M 601.973803 285.631935 
L 634.131172 285.631935 
L 634.131172 224.106634 
L 601.973803 224.106634 
z
" clip-path="url(#p838fdc6ec9)" style="fill: #22577a; stroke: #000000; stroke-width: 0.2; stroke-linejoin: miter"/>
   </g>
   <g id="patch_17">
    <path d="M 642.170515 285.631935 
L 674.327885 285.631935 
L 674.327885 265.725413 
L 642.170515 265.725413 
z
" clip-path="url(#p838fdc6ec9)" style="fill: #22577a; stroke: #000000; stroke-width: 0.2; stroke-linejoin: miter"/>
   </g>
   <g id="patch_18">
    <path d="M 682.367227 285.631935 
L 714.524597 285.631935 
L 714.524597 275.949162 
L 682.367227 275.949162 
z
" clip-path="url(#p838fdc6ec9)" style="fill: #22577a; stroke: #000000; stroke-width: 0.2; stroke-linejoin: miter"/>
   </g>
   <g id="patch_19">
    <path d="M 79.416541 197.738648 
L 111.573911 197.738648 
L 111.573911 147.513912 
L 79.416541 147.513912 
z
" clip-path="url(#p838fdc6ec9)" style="fill: #38a3a5; stroke: #000000; stroke-width: 0.2; stroke-linejoin: miter"/>
   </g>
   <g id="patch_20">
    <path d="M 119.613254 197.738648 
L 151.770624 197.738648 
L 151.770624 147.513912 
L 119.613254 147.513912 
z
" clip-path="url(#p838fdc6ec9)" style="fill: #38a3a5; stroke: #000000; stroke-width: 0.2; stroke-linejoin: miter"/>
   </g>
   <g id="patch_21">
    <path d="M 159.809966 197.738648 
L 191.967336 197.738648 
L 191.967336 147.513912 
L 159.809966 147.513912 
z
" clip-path="url(#p838fdc6ec9)" style="fill: #38a3a5; stroke: #000000; stroke-width: 0.2; stroke-linejoin: miter"/>
   </g>
   <g id="patch_22">
    <path d="M 200.006679 197.738648 
L 232.164048 197.738648 
L 232.164048 147.513912 
L 200.006679 147.513912 
z
" clip-path="url(#p838fdc6ec9)" style="fill: #38a3a5; stroke: #000000; stroke-width: 0.2; stroke-linejoin: miter"/>
   </g>
   <g id="patch_23">
    <path d="M 240.203391 197.738648 
L 272.360761 197.738648 
L 272.360761 147.513912 
L 240.203391 147.513912 
z
" clip-path="url(#p838fdc6ec9)" style="fill: #38a3a5; stroke: #000000; stroke-width: 0.2; stroke-linejoin: miter"/>
   </g>
   <g id="patch_24">
    <path d="M 280.400103 197.738648 
L 312.557473 197.738648 
L 312.557473 147.513912 
L 280.400103 147.513912 
z
" clip-path="url(#p838fdc6ec9)" style="fill: #38a3a5; stroke: #000000; stroke-width: 0.2; stroke-linejoin: miter"/>
   </g>
   <g id="patch_25">
    <path d="M 320.596816 197.738648 
L 352.754186 197.738648 
L 352.754186 147.513912 
L 320.596816 147.513912 
z
" clip-path="url(#p838fdc6ec9)" style="fill: #38a3a5; stroke: #000000; stroke-width: 0.2; stroke-linejoin: miter"/>
   </g>
   <g id="patch_26">
    <path d="M 360.793528 197.738648 
L 392.950898 197.738648 
L 392.950898 147.513912 
L 360.793528 147.513912 
z
" clip-path="url(#p838fdc6ec9)" style="fill: #38a3a5; stroke: #000000; stroke-width: 0.2; stroke-linejoin: miter"/>
   </g>
   <g id="patch_27">
    <path d="M 400.990241 197.738648 
L 433.14761 197.738648 
L 433.14761 147.513912 
L 400.990241 147.513912 
z
" clip-path="url(#p838fdc6ec9)" style="fill: #38a3a5; stroke: #000000; stroke-width: 0.2; stroke-linejoin: miter"/>
   </g>
   <g id="patch_28">
    <path d="M 441.186953 197.738648 
L 473.344323 197.738648 
L 473.344323 147.513912 
L 441.186953 147.513912 
z
" clip-path="url(#p838fdc6ec9)" style="fill: #38a3a5; stroke: #000000; stroke-width: 0.2; stroke-linejoin: miter"/>
   </g>
   <g id="patch_29">
    <path d="M 481.383665 219.762731 
L 513.541035 219.762731 
L 513.541035 188.65338 
L 481.383665 188.65338 
z
" clip-path="url(#p838fdc6ec9)" style="fill: #38a3a5; stroke: #000000; stroke-width: 0.2; stroke-linejoin: miter"/>
   </g>
   <g id="patch_30">
    <path d="M 521.580378 233.550263 
L 553.737748 233.550263 
L 553.737748 220.994079 
L 521.580378 220.994079 
z
" clip-path="url(#p838fdc6ec9)" style="fill: #38a3a5; stroke: #000000; stroke-width: 0.2; stroke-linejoin: miter"/>
   </g>
   <g id="patch_31">
    <path d="M 561.77709 241.235162 
L 593.93446 241.235162 
L 593.93446 233.592268 
L 561.77709 233.592268 
z
" clip-path="url(#p838fdc6ec9)" style="fill: #38a3a5; stroke: #000000; stroke-width: 0.2; stroke-linejoin: miter"/>
   </g>
   <g id="patch_32">
    <path d="M 601.973803 224.106634 
L 634.131172 224.106634 
L 634.131172 218.796415 
L 601.973803 218.796415 
z
" clip-path="url(#p838fdc6ec9)" style="fill: #38a3a5; stroke: #000000; stroke-width: 0.2; stroke-linejoin: miter"/>
   </g>
   <g id="patch_33">
    <path d="M 642.170515 265.725413 
L 674.327885 265.725413 
L 674.327885 265.725413 
L 642.170515 265.725413 
z
" clip-path="url(#p838fdc6ec9)" style="fill: #38a3a5; stroke: #000000; stroke-width: 0.2; stroke-linejoin: miter"/>
   </g>
   <g id="patch_34">
    <path d="M 682.367227 275.949162 
L 714.524597 275.949162 
L 714.524597 275.949162 
L 682.367227 275.949162 
z
" clip-path="url(#p838fdc6ec9)" style="fill: #38a3a5; stroke: #000000; stroke-width: 0.2; stroke-linejoin: miter"/>
   </g>
   <g id="patch_35">
    <path d="M 79.416541 147.513912 
L 111.573911 147.513912 
L 111.573911 109.845361 
L 79.416541 109.845361 
z
" clip-path="url(#p838fdc6ec9)" style="fill: #57cc99; stroke: #000000; stroke-width: 0.2; stroke-linejoin: miter"/>
   </g>
   <g id="patch_36">
    <path d="M 119.613254 147.513912 
L 151.770624 147.513912 
L 151.770624 109.845361 
L 119.613254 109.845361 
z
" clip-path="url(#p838fdc6ec9)" style="fill: #57cc99; stroke: #000000; stroke-width: 0.2; stroke-linejoin: miter"/>
   </g>
   <g id="patch_37">
    <path d="M 159.809966 147.513912 
L 191.967336 147.513912 
L 191.967336 109.845361 
L 159.809966 109.845361 
z
" clip-path="url(#p838fdc6ec9)" style="fill: #57cc99; stroke: #000000; stroke-width: 0.2; stroke-linejoin: miter"/>
   </g>
   <g id="patch_38">
    <path d="M 200.006679 147.513912 
L 232.164048 147.513912 
L 232.164048 109.845361 
L 200.006679 109.845361 
z
" clip-path="url(#p838fdc6ec9)" style="fill: #57cc99; stroke: #000000; stroke-width: 0.2; stroke-linejoin: miter"/>
   </g>
   <g id="patch_39">
    <path d="M 240.203391 147.513912 
L 272.360761 147.513912 
L 272.360761 109.845361 
L 240.203391 109.845361 
z
" clip-path="url(#p838fdc6ec9)" style="fill: #57cc99; stroke: #000000; stroke-width: 0.2; stroke-linejoin: miter"/>
   </g>
   <g id="patch_40">
    <path d="M 280.400103 147.513912 
L 312.557473 147.513912 
L 312.557473 109.845361 
L 280.400103 109.845361 
z
" clip-path="url(#p838fdc6ec9)" style="fill: #57cc99; stroke: #000000; stroke-width: 0.2; stroke-linejoin: miter"/>
   </g>
   <g id="patch_41">
    <path d="M 320.596816 147.513912 
L 352.754186 147.513912 
L 352.754186 109.845361 
L 320.596816 109.845361 
z
" clip-path="url(#p838fdc6ec9)" style="fill: #57cc99; stroke: #000000; stroke-width: 0.2; stroke-linejoin: miter"/>
   </g>
   <g id="patch_42">
    <path d="M 360.793528 147.513912 
L 392.950898 147.513912 
L 392.950898 109.845361 
L 360.793528 109.845361 
z
" clip-path="url(#p838fdc6ec9)" style="fill: #57cc99; stroke: #000000; stroke-width: 0.2; stroke-linejoin: miter"/>
   </g>
   <g id="patch_43">
    <path d="M 400.990241 147.513912 
L 433.14761 147.513912 
L 433.14761 109.845361 
L 400.990241 109.845361 
z
" clip-path="url(#p838fdc6ec9)" style="fill: #57cc99; stroke: #000000; stroke-width: 0.2; stroke-linejoin: miter"/>
   </g>
   <g id="patch_44">
    <path d="M 441.186953 147.513912 
L 473.344323 147.513912 
L 473.344323 112.436329 
L 441.186953 112.436329 
z
" clip-path="url(#p838fdc6ec9)" style="fill: #57cc99; stroke: #000000; stroke-width: 0.2; stroke-linejoin: miter"/>
   </g>
   <g id="patch_45">
    <path d="M 481.383665 188.65338 
L 513.541035 188.65338 
L 513.541035 150.984829 
L 481.383665 150.984829 
z
" clip-path="url(#p838fdc6ec9)" style="fill: #57cc99; stroke: #000000; stroke-width: 0.2; stroke-linejoin: miter"/>
   </g>
   <g id="patch_46">
    <path d="M 521.580378 220.994079 
L 553.737748 220.994079 
L 553.737748 183.325527 
L 521.580378 183.325527 
z
" clip-path="url(#p838fdc6ec9)" style="fill: #57cc99; stroke: #000000; stroke-width: 0.2; stroke-linejoin: miter"/>
   </g>
   <g id="patch_47">
    <path d="M 561.77709 233.592268 
L 593.93446 233.592268 
L 593.93446 195.923716 
L 561.77709 195.923716 
z
" clip-path="url(#p838fdc6ec9)" style="fill: #57cc99; stroke: #000000; stroke-width: 0.2; stroke-linejoin: miter"/>
   </g>
   <g id="patch_48">
    <path d="M 601.973803 218.796415 
L 634.131172 218.796415 
L 634.131172 200.420126 
L 601.973803 200.420126 
z
" clip-path="url(#p838fdc6ec9)" style="fill: #57cc99; stroke: #000000; stroke-width: 0.2; stroke-linejoin: miter"/>
   </g>
   <g id="patch_49">
    <path d="M 642.170515 265.725413 
L 674.327885 265.725413 
L 674.327885 252.54142 
L 642.170515 252.54142 
z
" clip-path="url(#p838fdc6ec9)" style="fill: #57cc99; stroke: #000000; stroke-width: 0.2; stroke-linejoin: miter"/>
   </g>
   <g id="patch_50">
    <path d="M 682.367227 275.949162 
L 714.524597 275.949162 
L 714.524597 275.514569 
L 682.367227 275.514569 
z
" clip-path="url(#p838fdc6ec9)" style="fill: #57cc99; stroke: #000000; stroke-width: 0.2; stroke-linejoin: miter"/>
   </g>
   <g id="patch_51">
    <path d="M 79.416541 109.845361 
L 111.573911 109.845361 
L 111.573911 73.79381 
L 79.416541 73.79381 
z
" clip-path="url(#p838fdc6ec9)" style="fill: #80ed99; stroke: #000000; stroke-width: 0.2; stroke-linejoin: miter"/>
   </g>
   <g id="patch_52">
    <path d="M 119.613254 109.845361 
L 151.770624 109.845361 
L 151.770624 74.65179 
L 119.613254 74.65179 
z
" clip-path="url(#p838fdc6ec9)" style="fill: #80ed99; stroke: #000000; stroke-width: 0.2; stroke-linejoin: miter"/>
   </g>
   <g id="patch_53">
    <path d="M 159.809966 109.845361 
L 191.967336 109.845361 
L 191.967336 75.307364 
L 159.809966 75.307364 
z
" clip-path="url(#p838fdc6ec9)" style="fill: #80ed99; stroke: #000000; stroke-width: 0.2; stroke-linejoin: miter"/>
   </g>
   <g id="patch_54">
    <path d="M 200.006679 109.845361 
L 232.164048 109.845361 
L 232.164048 76.659524 
L 200.006679 76.659524 
z
" clip-path="url(#p838fdc6ec9)" style="fill: #80ed99; stroke: #000000; stroke-width: 0.2; stroke-linejoin: miter"/>
   </g>
   <g id="patch_55">
    <path d="M 240.203391 109.845361 
L 272.360761 109.845361 
L 272.360761 75.307364 
L 240.203391 75.307364 
z
" clip-path="url(#p838fdc6ec9)" style="fill: #80ed99; stroke: #000000; stroke-width: 0.2; stroke-linejoin: miter"/>
   </g>
   <g id="patch_56">
    <path d="M 280.400103 109.845361 
L 312.557473 109.845361 
L 312.557473 75.307364 
L 280.400103 75.307364 
z
" clip-path="url(#p838fdc6ec9)" style="fill: #80ed99; stroke: #000000; stroke-width: 0.2; stroke-linejoin: miter"/>
   </g>
   <g id="patch_57">
    <path d="M 320.596816 109.845361 
L 352.754186 109.845361 
L 352.754186 75.232278 
L 320.596816 75.232278 
z
" clip-path="url(#p838fdc6ec9)" style="fill: #80ed99; stroke: #000000; stroke-width: 0.2; stroke-linejoin: miter"/>
   </g>
   <g id="patch_58">
    <path d="M 360.793528 109.845361 
L 392.950898 109.845361 
L 392.950898 74.185563 
L 360.793528 74.185563 
z
" clip-path="url(#p838fdc6ec9)" style="fill: #80ed99; stroke: #000000; stroke-width: 0.2; stroke-linejoin: miter"/>
   </g>
   <g id="patch_59">
    <path d="M 400.990241 109.845361 
L 433.14761 109.845361 
L 433.14761 76.659524 
L 400.990241 76.659524 
z
" clip-path="url(#p838fdc6ec9)" style="fill: #80ed99; stroke: #000000; stroke-width: 0.2; stroke-linejoin: miter"/>
   </g>
   <g id="patch_60">
    <path d="M 441.186953 112.436329 
L 473.344323 112.436329 
L 473.344323 89.510518 
L 441.186953 89.510518 
z
" clip-path="url(#p838fdc6ec9)" style="fill: #80ed99; stroke: #000000; stroke-width: 0.2; stroke-linejoin: miter"/>
   </g>
   <g id="patch_61">
    <path d="M 481.383665 150.984829 
L 513.541035 150.984829 
L 513.541035 113.316277 
L 481.383665 113.316277 
z
" clip-path="url(#p838fdc6ec9)" style="fill: #80ed99; stroke: #000000; stroke-width: 0.2; stroke-linejoin: miter"/>
   </g>
   <g id="patch_62">
    <path d="M 521.580378 183.325527 
L 553.737748 183.325527 
L 553.737748 145.656976 
L 521.580378 145.656976 
z
" clip-path="url(#p838fdc6ec9)" style="fill: #80ed99; stroke: #000000; stroke-width: 0.2; stroke-linejoin: miter"/>
   </g>
   <g id="patch_63">
    <path d="M 561.77709 195.923716 
L 593.93446 195.923716 
L 593.93446 158.255165 
L 561.77709 158.255165 
z
" clip-path="url(#p838fdc6ec9)" style="fill: #80ed99; stroke: #000000; stroke-width: 0.2; stroke-linejoin: miter"/>
   </g>
   <g id="patch_64">
    <path d="M 601.973803 200.420126 
L 634.131172 200.420126 
L 634.131172 175.93188 
L 601.973803 175.93188 
z
" clip-path="url(#p838fdc6ec9)" style="fill: #80ed99; stroke: #000000; stroke-width: 0.2; stroke-linejoin: miter"/>
   </g>
   <g id="patch_65">
    <path d="M 642.170515 252.54142 
L 674.327885 252.54142 
L 674.327885 239.775799 
L 642.170515 239.775799 
z
" clip-path="url(#p838fdc6ec9)" style="fill: #80ed99; stroke: #000000; stroke-width: 0.2; stroke-linejoin: miter"/>
   </g>
   <g id="patch_66">
    <path d="M 682.367227 275.514569 
L 714.524597 275.514569 
L 714.524597 271.915339 
L 682.367227 271.915339 
z
" clip-path="url(#p838fdc6ec9)" style="fill: #80ed99; stroke: #000000; stroke-width: 0.2; stroke-linejoin: miter"/>
   </g>
   <g id="patch_67">
    <path d="M 79.416541 73.79381 
L 111.573911 73.79381 
L 111.573911 49.510086 
L 79.416541 49.510086 
z
" clip-path="url(#p838fdc6ec9)" style="fill: #c7f9cc; stroke: #000000; stroke-width: 0.2; stroke-linejoin: miter"/>
   </g>
   <g id="patch_68">
    <path d="M 119.613254 74.65179 
L 151.770624 74.65179 
L 151.770624 50.368261 
L 119.613254 50.368261 
z
" clip-path="url(#p838fdc6ec9)" style="fill: #c7f9cc; stroke: #000000; stroke-width: 0.2; stroke-linejoin: miter"/>
   </g>
   <g id="patch_69">
    <path d="M 159.809966 75.307364 
L 191.967336 75.307364 
L 191.967336 51.023835 
L 159.809966 51.023835 
z
" clip-path="url(#p838fdc6ec9)" style="fill: #c7f9cc; stroke: #000000; stroke-width: 0.2; stroke-linejoin: miter"/>
   </g>
   <g id="patch_70">
    <path d="M 200.006679 76.659524 
L 232.164048 76.659524 
L 232.164048 52.790236 
L 200.006679 52.790236 
z
" clip-path="url(#p838fdc6ec9)" style="fill: #c7f9cc; stroke: #000000; stroke-width: 0.2; stroke-linejoin: miter"/>
   </g>
   <g id="patch_71">
    <path d="M 240.203391 75.307364 
L 272.360761 75.307364 
L 272.360761 53.667929 
L 240.203391 53.667929 
z
" clip-path="url(#p838fdc6ec9)" style="fill: #c7f9cc; stroke: #000000; stroke-width: 0.2; stroke-linejoin: miter"/>
   </g>
   <g id="patch_72">
    <path d="M 280.400103 75.307364 
L 312.557473 75.307364 
L 312.557473 53.667929 
L 280.400103 53.667929 
z
" clip-path="url(#p838fdc6ec9)" style="fill: #c7f9cc; stroke: #000000; stroke-width: 0.2; stroke-linejoin: miter"/>
   </g>
   <g id="patch_73">
    <path d="M 320.596816 75.232278 
L 352.754186 75.232278 
L 352.754186 54.391738 
L 320.596816 54.391738 
z
" clip-path="url(#p838fdc6ec9)" style="fill: #c7f9cc; stroke: #000000; stroke-width: 0.2; stroke-linejoin: miter"/>
   </g>
   <g id="patch_74">
    <path d="M 360.793528 74.185563 
L 392.950898 74.185563 
L 392.950898 57.281614 
L 360.793528 57.281614 
z
" clip-path="url(#p838fdc6ec9)" style="fill: #c7f9cc; stroke: #000000; stroke-width: 0.2; stroke-linejoin: miter"/>
   </g>
   <g id="patch_75">
    <path d="M 400.990241 76.659524 
L 433.14761 76.659524 
L 433.14761 55.818984 
L 400.990241 55.818984 
z
" clip-path="url(#p838fdc6ec9)" style="fill: #c7f9cc; stroke: #000000; stroke-width: 0.2; stroke-linejoin: miter"/>
   </g>
   <g id="patch_76">
    <path d="M 441.186953 89.510518 
L 473.344323 89.510518 
L 473.344323 64.674357 
L 441.186953 64.674357 
z
" clip-path="url(#p838fdc6ec9)" style="fill: #c7f9cc; stroke: #000000; stroke-width: 0.2; stroke-linejoin: miter"/>
   </g>
   <g id="patch_77">
    <path d="M 481.383665 113.316277 
L 513.541035 113.316277 
L 513.541035 89.032748 
L 481.383665 89.032748 
z
" clip-path="url(#p838fdc6ec9)" style="fill: #c7f9cc; stroke: #000000; stroke-width: 0.2; stroke-linejoin: miter"/>
   </g>
   <g id="patch_78">
    <path d="M 521.580378 145.656976 
L 553.737748 145.656976 
L 553.737748 124.017541 
L 521.580378 124.017541 
z
" clip-path="url(#p838fdc6ec9)" style="fill: #c7f9cc; stroke: #000000; stroke-width: 0.2; stroke-linejoin: miter"/>
   </g>
   <g id="patch_79">
    <path d="M 561.77709 158.255165 
L 593.93446 158.255165 
L 593.93446 133.794684 
L 561.77709 133.794684 
z
" clip-path="url(#p838fdc6ec9)" style="fill: #c7f9cc; stroke: #000000; stroke-width: 0.2; stroke-linejoin: miter"/>
   </g>
   <g id="patch_80">
    <path d="M 601.973803 175.93188 
L 634.131172 175.93188 
L 634.131172 167.914642 
L 601.973803 167.914642 
z
" clip-path="url(#p838fdc6ec9)" style="fill: #c7f9cc; stroke: #000000; stroke-width: 0.2; stroke-linejoin: miter"/>
   </g>
   <g id="patch_81">
    <path d="M 642.170515 239.775799 
L 674.327885 239.775799 
L 674.327885 234.156545 
L 642.170515 234.156545 
z
" clip-path="url(#p838fdc6ec9)" style="fill: #c7f9cc; stroke: #000000; stroke-width: 0.2; stroke-linejoin: miter"/>
   </g>
   <g id="patch_82">
    <path d="M 682.367227 271.915339 
L 714.524597 271.915339 
L 714.524597 270.254156 
L 682.367227 270.254156 
z
" clip-path="url(#p838fdc6ec9)" style="fill: #c7f9cc; stroke: #000000; stroke-width: 0.2; stroke-linejoin: miter"/>
   </g>
   <g id="patch_83">
    <path d="M 79.416541 49.510086 
L 111.573911 49.510086 
L 111.573911 36.953902 
L 79.416541 36.953902 
z
" clip-path="url(#p838fdc6ec9)" style="fill: #f4a261; stroke: #000000; stroke-width: 0.2; stroke-linejoin: miter"/>
   </g>
   <g id="patch_84">
    <path d="M 119.613254 50.368261 
L 151.770624 50.368261 
L 151.770624 37.812077 
L 119.613254 37.812077 
z
" clip-path="url(#p838fdc6ec9)" style="fill: #f4a261; stroke: #000000; stroke-width: 0.2; stroke-linejoin: miter"/>
   </g>
   <g id="patch_85">
    <path d="M 159.809966 51.023835 
L 191.967336 51.023835 
L 191.967336 39.472146 
L 159.809966 39.472146 
z
" clip-path="url(#p838fdc6ec9)" style="fill: #f4a261; stroke: #000000; stroke-width: 0.2; stroke-linejoin: miter"/>
   </g>
   <g id="patch_86">
    <path d="M 200.006679 52.790236 
L 232.164048 52.790236 
L 232.164048 40.234052 
L 200.006679 40.234052 
z
" clip-path="url(#p838fdc6ec9)" style="fill: #f4a261; stroke: #000000; stroke-width: 0.2; stroke-linejoin: miter"/>
   </g>
   <g id="patch_87">
    <path d="M 240.203391 53.667929 
L 272.360761 53.667929 
L 272.360761 42.11624 
L 240.203391 42.11624 
z
" clip-path="url(#p838fdc6ec9)" style="fill: #f4a261; stroke: #000000; stroke-width: 0.2; stroke-linejoin: miter"/>
   </g>
   <g id="patch_88">
    <path d="M 280.400103 53.667929 
L 312.557473 53.667929 
L 312.557473 42.11624 
L 280.400103 42.11624 
z
" clip-path="url(#p838fdc6ec9)" style="fill: #f4a261; stroke: #000000; stroke-width: 0.2; stroke-linejoin: miter"/>
   </g>
   <g id="patch_89">
    <path d="M 320.596816 54.391738 
L 352.754186 54.391738 
L 352.754186 43.844543 
L 320.596816 43.844543 
z
" clip-path="url(#p838fdc6ec9)" style="fill: #f4a261; stroke: #000000; stroke-width: 0.2; stroke-linejoin: miter"/>
   </g>
   <g id="patch_90">
    <path d="M 360.793528 57.281614 
L 392.950898 57.281614 
L 392.950898 44.725431 
L 360.793528 44.725431 
z
" clip-path="url(#p838fdc6ec9)" style="fill: #f4a261; stroke: #000000; stroke-width: 0.2; stroke-linejoin: miter"/>
   </g>
   <g id="patch_91">
    <path d="M 400.990241 55.818984 
L 433.14761 55.818984 
L 433.14761 45.271789 
L 400.990241 45.271789 
z
" clip-path="url(#p838fdc6ec9)" style="fill: #f4a261; stroke: #000000; stroke-width: 0.2; stroke-linejoin: miter"/>
   </g>
   <g id="patch_92">
    <path d="M 441.186953 64.674357 
L 473.344323 64.674357 
L 473.344323 53.122668 
L 441.186953 53.122668 
z
" clip-path="url(#p838fdc6ec9)" style="fill: #f4a261; stroke: #000000; stroke-width: 0.2; stroke-linejoin: miter"/>
   </g>
   <g id="patch_93">
    <path d="M 481.383665 89.032748 
L 513.541035 89.032748 
L 513.541035 76.476564 
L 481.383665 76.476564 
z
" clip-path="url(#p838fdc6ec9)" style="fill: #f4a261; stroke: #000000; stroke-width: 0.2; stroke-linejoin: miter"/>
   </g>
   <g id="patch_94">
    <path d="M 521.580378 124.017541 
L 553.737748 124.017541 
L 553.737748 111.461357 
L 521.580378 111.461357 
z
" clip-path="url(#p838fdc6ec9)" style="fill: #f4a261; stroke: #000000; stroke-width: 0.2; stroke-linejoin: miter"/>
   </g>
   <g id="patch_95">
    <path d="M 561.77709 133.794684 
L 593.93446 133.794684 
L 593.93446 121.2385 
L 561.77709 121.2385 
z
" clip-path="url(#p838fdc6ec9)" style="fill: #f4a261; stroke: #000000; stroke-width: 0.2; stroke-linejoin: miter"/>
   </g>
   <g id="patch_96">
    <path d="M 601.973803 167.914642 
L 634.131172 167.914642 
L 634.131172 159.125314 
L 601.973803 159.125314 
z
" clip-path="url(#p838fdc6ec9)" style="fill: #f4a261; stroke: #000000; stroke-width: 0.2; stroke-linejoin: miter"/>
   </g>
   <g id="patch_97">
    <path d="M 642.170515 234.156545 
L 674.327885 234.156545 
L 674.327885 230.860547 
L 642.170515 230.860547 
z
" clip-path="url(#p838fdc6ec9)" style="fill: #f4a261; stroke: #000000; stroke-width: 0.2; stroke-linejoin: miter"/>
   </g>
   <g id="patch_98">
    <path d="M 682.367227 270.254156 
L 714.524597 270.254156 
L 714.524597 269.792716 
L 682.367227 269.792716 
z
" clip-path="url(#p838fdc6ec9)" style="fill: #f4a261; stroke: #000000; stroke-width: 0.2; stroke-linejoin: miter"/>
   </g>
   <g id="matplotlib.axis_1">
    <g id="xtick_1">
     <g id="line2d_1">
      <defs>
       <path id="mdaf3981c06" d="M 0 0 
L 0 3.5 
" style="stroke: #000000; stroke-width: 0.8"/>
      </defs>
      <g>
       <use xlink:href="#mdaf3981c06" x="95.495226" y="285.631935" style="stroke: #000000; stroke-width: 0.8"/>
      </g>
     </g>
     <g id="text_1">
      <!-- gpt4omini_rescued/gemma -->
      <g transform="translate(23.139036 397.407239) rotate(-55) scale(0.09 -0.09)">
       <defs>
        <path id="DejaVuSans-67" d="M 2906 1791 
Q 2906 2416 2648 2759 
Q 2391 3103 1925 3103 
Q 1463 3103 1205 2759 
Q 947 2416 947 1791 
Q 947 1169 1205 825 
Q 1463 481 1925 481 
Q 2391 481 2648 825 
Q 2906 1169 2906 1791 
z
M 3481 434 
Q 3481 -459 3084 -895 
Q 2688 -1331 1869 -1331 
Q 1566 -1331 1297 -1286 
Q 1028 -1241 775 -1147 
L 775 -588 
Q 1028 -725 1275 -790 
Q 1522 -856 1778 -856 
Q 2344 -856 2625 -561 
Q 2906 -266 2906 331 
L 2906 616 
Q 2728 306 2450 153 
Q 2172 0 1784 0 
Q 1141 0 747 490 
Q 353 981 353 1791 
Q 353 2603 747 3093 
Q 1141 3584 1784 3584 
Q 2172 3584 2450 3431 
Q 2728 3278 2906 2969 
L 2906 3500 
L 3481 3500 
L 3481 434 
z
" transform="scale(0.015625)"/>
        <path id="DejaVuSans-70" d="M 1159 525 
L 1159 -1331 
L 581 -1331 
L 581 3500 
L 1159 3500 
L 1159 2969 
Q 1341 3281 1617 3432 
Q 1894 3584 2278 3584 
Q 2916 3584 3314 3078 
Q 3713 2572 3713 1747 
Q 3713 922 3314 415 
Q 2916 -91 2278 -91 
Q 1894 -91 1617 61 
Q 1341 213 1159 525 
z
M 3116 1747 
Q 3116 2381 2855 2742 
Q 2594 3103 2138 3103 
Q 1681 3103 1420 2742 
Q 1159 2381 1159 1747 
Q 1159 1113 1420 752 
Q 1681 391 2138 391 
Q 2594 391 2855 752 
Q 3116 1113 3116 1747 
z
" transform="scale(0.015625)"/>
        <path id="DejaVuSans-74" d="M 1172 4494 
L 1172 3500 
L 2356 3500 
L 2356 3053 
L 1172 3053 
L 1172 1153 
Q 1172 725 1289 603 
Q 1406 481 1766 481 
L 2356 481 
L 2356 0 
L 1766 0 
Q 1100 0 847 248 
Q 594 497 594 1153 
L 594 3053 
L 172 3053 
L 172 3500 
L 594 3500 
L 594 4494 
L 1172 4494 
z
" transform="scale(0.015625)"/>
        <path id="DejaVuSans-34" d="M 2419 4116 
L 825 1625 
L 2419 1625 
L 2419 4116 
z
M 2253 4666 
L 3047 4666 
L 3047 1625 
L 3713 1625 
L 3713 1100 
L 3047 1100 
L 3047 0 
L 2419 0 
L 2419 1100 
L 313 1100 
L 313 1709 
L 2253 4666 
z
" transform="scale(0.015625)"/>
        <path id="DejaVuSans-6f" d="M 1959 3097 
Q 1497 3097 1228 2736 
Q 959 2375 959 1747 
Q 959 1119 1226 758 
Q 1494 397 1959 397 
Q 2419 397 2687 759 
Q 2956 1122 2956 1747 
Q 2956 2369 2687 2733 
Q 2419 3097 1959 3097 
z
M 1959 3584 
Q 2709 3584 3137 3096 
Q 3566 2609 3566 1747 
Q 3566 888 3137 398 
Q 2709 -91 1959 -91 
Q 1206 -91 779 398 
Q 353 888 353 1747 
Q 353 2609 779 3096 
Q 1206 3584 1959 3584 
z
" transform="scale(0.015625)"/>
        <path id="DejaVuSans-6d" d="M 3328 2828 
Q 3544 3216 3844 3400 
Q 4144 3584 4550 3584 
Q 5097 3584 5394 3201 
Q 5691 2819 5691 2113 
L 5691 0 
L 5113 0 
L 5113 2094 
Q 5113 2597 4934 2840 
Q 4756 3084 4391 3084 
Q 3944 3084 3684 2787 
Q 3425 2491 3425 1978 
L 3425 0 
L 2847 0 
L 2847 2094 
Q 2847 2600 2669 2842 
Q 2491 3084 2119 3084 
Q 1678 3084 1418 2786 
Q 1159 2488 1159 1978 
L 1159 0 
L 581 0 
L 581 3500 
L 1159 3500 
L 1159 2956 
Q 1356 3278 1631 3431 
Q 1906 3584 2284 3584 
Q 2666 3584 2933 3390 
Q 3200 3197 3328 2828 
z
" transform="scale(0.015625)"/>
        <path id="DejaVuSans-69" d="M 603 3500 
L 1178 3500 
L 1178 0 
L 603 0 
L 603 3500 
z
M 603 4863 
L 1178 4863 
L 1178 4134 
L 603 4134 
L 603 4863 
z
" transform="scale(0.015625)"/>
        <path id="DejaVuSans-6e" d="M 3513 2113 
L 3513 0 
L 2938 0 
L 2938 2094 
Q 2938 2591 2744 2837 
Q 2550 3084 2163 3084 
Q 1697 3084 1428 2787 
Q 1159 2491 1159 1978 
L 1159 0 
L 581 0 
L 581 3500 
L 1159 3500 
L 1159 2956 
Q 1366 3272 1645 3428 
Q 1925 3584 2291 3584 
Q 2894 3584 3203 3211 
Q 3513 2838 3513 2113 
z
" transform="scale(0.015625)"/>
        <path id="DejaVuSans-5f" d="M 3263 -1063 
L 3263 -1509 
L -63 -1509 
L -63 -1063 
L 3263 -1063 
z
" transform="scale(0.015625)"/>
        <path id="DejaVuSans-72" d="M 2631 2963 
Q 2534 3019 2420 3045 
Q 2306 3072 2169 3072 
Q 1681 3072 1420 2755 
Q 1159 2438 1159 1844 
L 1159 0 
L 581 0 
L 581 3500 
L 1159 3500 
L 1159 2956 
Q 1341 3275 1631 3429 
Q 1922 3584 2338 3584 
Q 2397 3584 2469 3576 
Q 2541 3569 2628 3553 
L 2631 2963 
z
" transform="scale(0.015625)"/>
        <path id="DejaVuSans-65" d="M 3597 1894 
L 3597 1613 
L 953 1613 
Q 991 1019 1311 708 
Q 1631 397 2203 397 
Q 2534 397 2845 478 
Q 3156 559 3463 722 
L 3463 178 
Q 3153 47 2828 -22 
Q 2503 -91 2169 -91 
Q 1331 -91 842 396 
Q 353 884 353 1716 
Q 353 2575 817 3079 
Q 1281 3584 2069 3584 
Q 2775 3584 3186 3129 
Q 3597 2675 3597 1894 
z
M 3022 2063 
Q 3016 2534 2758 2815 
Q 2500 3097 2075 3097 
Q 1594 3097 1305 2825 
Q 1016 2553 972 2059 
L 3022 2063 
z
" transform="scale(0.015625)"/>
        <path id="DejaVuSans-73" d="M 2834 3397 
L 2834 2853 
Q 2591 2978 2328 3040 
Q 2066 3103 1784 3103 
Q 1356 3103 1142 2972 
Q 928 2841 928 2578 
Q 928 2378 1081 2264 
Q 1234 2150 1697 2047 
L 1894 2003 
Q 2506 1872 2764 1633 
Q 3022 1394 3022 966 
Q 3022 478 2636 193 
Q 2250 -91 1575 -91 
Q 1294 -91 989 -36 
Q 684 19 347 128 
L 347 722 
Q 666 556 975 473 
Q 1284 391 1588 391 
Q 1994 391 2212 530 
Q 2431 669 2431 922 
Q 2431 1156 2273 1281 
Q 2116 1406 1581 1522 
L 1381 1569 
Q 847 1681 609 1914 
Q 372 2147 372 2553 
Q 372 3047 722 3315 
Q 1072 3584 1716 3584 
Q 2034 3584 2315 3537 
Q 2597 3491 2834 3397 
z
" transform="scale(0.015625)"/>
        <path id="DejaVuSans-63" d="M 3122 3366 
L 3122 2828 
Q 2878 2963 2633 3030 
Q 2388 3097 2138 3097 
Q 1578 3097 1268 2742 
Q 959 2388 959 1747 
Q 959 1106 1268 751 
Q 1578 397 2138 397 
Q 2388 397 2633 464 
Q 2878 531 3122 666 
L 3122 134 
Q 2881 22 2623 -34 
Q 2366 -91 2075 -91 
Q 1284 -91 818 406 
Q 353 903 353 1747 
Q 353 2603 823 3093 
Q 1294 3584 2113 3584 
Q 2378 3584 2631 3529 
Q 2884 3475 3122 3366 
z
" transform="scale(0.015625)"/>
        <path id="DejaVuSans-75" d="M 544 1381 
L 544 3500 
L 1119 3500 
L 1119 1403 
Q 1119 906 1312 657 
Q 1506 409 1894 409 
Q 2359 409 2629 706 
Q 2900 1003 2900 1516 
L 2900 3500 
L 3475 3500 
L 3475 0 
L 2900 0 
L 2900 538 
Q 2691 219 2414 64 
Q 2138 -91 1772 -91 
Q 1169 -91 856 284 
Q 544 659 544 1381 
z
M 1991 3584 
L 1991 3584 
z
" transform="scale(0.015625)"/>
        <path id="DejaVuSans-64" d="M 2906 2969 
L 2906 4863 
L 3481 4863 
L 3481 0 
L 2906 0 
L 2906 525 
Q 2725 213 2448 61 
Q 2172 -91 1784 -91 
Q 1150 -91 751 415 
Q 353 922 353 1747 
Q 353 2572 751 3078 
Q 1150 3584 1784 3584 
Q 2172 3584 2448 3432 
Q 2725 3281 2906 2969 
z
M 947 1747 
Q 947 1113 1208 752 
Q 1469 391 1925 391 
Q 2381 391 2643 752 
Q 2906 1113 2906 1747 
Q 2906 2381 2643 2742 
Q 2381 3103 1925 3103 
Q 1469 3103 1208 2742 
Q 947 2381 947 1747 
z
" transform="scale(0.015625)"/>
        <path id="DejaVuSans-2f" d="M 1625 4666 
L 2156 4666 
L 531 -594 
L 0 -594 
L 1625 4666 
z
" transform="scale(0.015625)"/>
        <path id="DejaVuSans-61" d="M 2194 1759 
Q 1497 1759 1228 1600 
Q 959 1441 959 1056 
Q 959 750 1161 570 
Q 1363 391 1709 391 
Q 2188 391 2477 730 
Q 2766 1069 2766 1631 
L 2766 1759 
L 2194 1759 
z
M 3341 1997 
L 3341 0 
L 2766 0 
L 2766 531 
Q 2569 213 2275 61 
Q 1981 -91 1556 -91 
Q 1019 -91 701 211 
Q 384 513 384 1019 
Q 384 1609 779 1909 
Q 1175 2209 1959 2209 
L 2766 2209 
L 2766 2266 
Q 2766 2663 2505 2880 
Q 2244 3097 1772 3097 
Q 1472 3097 1187 3025 
Q 903 2953 641 2809 
L 641 3341 
Q 956 3463 1253 3523 
Q 1550 3584 1831 3584 
Q 2591 3584 2966 3190 
Q 3341 2797 3341 1997 
z
" transform="scale(0.015625)"/>
       </defs>
       <use xlink:href="#DejaVuSans-67"/>
       <use xlink:href="#DejaVuSans-70" transform="translate(63.476562 0)"/>
       <use xlink:href="#DejaVuSans-74" transform="translate(126.953125 0)"/>
       <use xlink:href="#DejaVuSans-34" transform="translate(166.162109 0)"/>
       <use xlink:href="#DejaVuSans-6f" transform="translate(229.785156 0)"/>
       <use xlink:href="#DejaVuSans-6d" transform="translate(290.966797 0)"/>
       <use xlink:href="#DejaVuSans-69" transform="translate(388.378906 0)"/>
       <use xlink:href="#DejaVuSans-6e" transform="translate(416.162109 0)"/>
       <use xlink:href="#DejaVuSans-69" transform="translate(479.541016 0)"/>
       <use xlink:href="#DejaVuSans-5f" transform="translate(507.324219 0)"/>
       <use xlink:href="#DejaVuSans-72" transform="translate(557.324219 0)"/>
       <use xlink:href="#DejaVuSans-65" transform="translate(596.1875 0)"/>
       <use xlink:href="#DejaVuSans-73" transform="translate(657.710938 0)"/>
       <use xlink:href="#DejaVuSans-63" transform="translate(709.810547 0)"/>
       <use xlink:href="#DejaVuSans-75" transform="translate(764.791016 0)"/>
       <use xlink:href="#DejaVuSans-65" transform="translate(828.169922 0)"/>
       <use xlink:href="#DejaVuSans-64" transform="translate(889.693359 0)"/>
       <use xlink:href="#DejaVuSans-2f" transform="translate(953.169922 0)"/>
       <use xlink:href="#DejaVuSans-67" transform="translate(986.861328 0)"/>
       <use xlink:href="#DejaVuSans-65" transform="translate(1050.337891 0)"/>
       <use xlink:href="#DejaVuSans-6d" transform="translate(1111.861328 0)"/>
       <use xlink:href="#DejaVuSans-6d" transform="translate(1209.273438 0)"/>
       <use xlink:href="#DejaVuSans-61" transform="translate(1306.685547 0)"/>
      </g>
     </g>
    </g>
    <g id="xtick_2">
     <g id="line2d_2">
      <g>
       <use xlink:href="#mdaf3981c06" x="135.691939" y="285.631935" style="stroke: #000000; stroke-width: 0.8"/>
      </g>
     </g>
     <g id="text_2">
      <!-- gpt4o/gemma -->
      <g transform="translate(97.724962 348.587185) rotate(-55) scale(0.09 -0.09)">
       <use xlink:href="#DejaVuSans-67"/>
       <use xlink:href="#DejaVuSans-70" transform="translate(63.476562 0)"/>
       <use xlink:href="#DejaVuSans-74" transform="translate(126.953125 0)"/>
       <use xlink:href="#DejaVuSans-34" transform="translate(166.162109 0)"/>
       <use xlink:href="#DejaVuSans-6f" transform="translate(229.785156 0)"/>
       <use xlink:href="#DejaVuSans-2f" transform="translate(290.966797 0)"/>
       <use xlink:href="#DejaVuSans-67" transform="translate(324.658203 0)"/>
       <use xlink:href="#DejaVuSans-65" transform="translate(388.134766 0)"/>
       <use xlink:href="#DejaVuSans-6d" transform="translate(449.658203 0)"/>
       <use xlink:href="#DejaVuSans-6d" transform="translate(547.070312 0)"/>
       <use xlink:href="#DejaVuSans-61" transform="translate(644.482422 0)"/>
      </g>
     </g>
    </g>
    <g id="xtick_3">
     <g id="line2d_3">
      <g>
       <use xlink:href="#mdaf3981c06" x="175.888651" y="285.631935" style="stroke: #000000; stroke-width: 0.8"/>
      </g>
     </g>
     <g id="text_3">
      <!-- claude/gemma -->
      <g transform="translate(135.781786 351.643262) rotate(-55) scale(0.09 -0.09)">
       <defs>
        <path id="DejaVuSans-6c" d="M 603 4863 
L 1178 4863 
L 1178 0 
L 603 0 
L 603 4863 
z
" transform="scale(0.015625)"/>
       </defs>
       <use xlink:href="#DejaVuSans-63"/>
       <use xlink:href="#DejaVuSans-6c" transform="translate(54.980469 0)"/>
       <use xlink:href="#DejaVuSans-61" transform="translate(82.763672 0)"/>
       <use xlink:href="#DejaVuSans-75" transform="translate(144.042969 0)"/>
       <use xlink:href="#DejaVuSans-64" transform="translate(207.421875 0)"/>
       <use xlink:href="#DejaVuSans-65" transform="translate(270.898438 0)"/>
       <use xlink:href="#DejaVuSans-2f" transform="translate(332.421875 0)"/>
       <use xlink:href="#DejaVuSans-67" transform="translate(366.113281 0)"/>
       <use xlink:href="#DejaVuSans-65" transform="translate(429.589844 0)"/>
       <use xlink:href="#DejaVuSans-6d" transform="translate(491.113281 0)"/>
       <use xlink:href="#DejaVuSans-6d" transform="translate(588.525391 0)"/>
       <use xlink:href="#DejaVuSans-61" transform="translate(685.9375 0)"/>
      </g>
     </g>
    </g>
    <g id="xtick_4">
     <g id="line2d_4">
      <g>
       <use xlink:href="#mdaf3981c06" x="216.085364" y="285.631935" style="stroke: #000000; stroke-width: 0.8"/>
      </g>
     </g>
     <g id="text_4">
      <!-- gpt4o/gpt4omini -->
      <g transform="translate(171.602738 357.892496) rotate(-55) scale(0.09 -0.09)">
       <use xlink:href="#DejaVuSans-67"/>
       <use xlink:href="#DejaVuSans-70" transform="translate(63.476562 0)"/>
       <use xlink:href="#DejaVuSans-74" transform="translate(126.953125 0)"/>
       <use xlink:href="#DejaVuSans-34" transform="translate(166.162109 0)"/>
       <use xlink:href="#DejaVuSans-6f" transform="translate(229.785156 0)"/>
       <use xlink:href="#DejaVuSans-2f" transform="translate(290.966797 0)"/>
       <use xlink:href="#DejaVuSans-67" transform="translate(324.658203 0)"/>
       <use xlink:href="#DejaVuSans-70" transform="translate(388.134766 0)"/>
       <use xlink:href="#DejaVuSans-74" transform="translate(451.611328 0)"/>
       <use xlink:href="#DejaVuSans-34" transform="translate(490.820312 0)"/>
       <use xlink:href="#DejaVuSans-6f" transform="translate(554.443359 0)"/>
       <use xlink:href="#DejaVuSans-6d" transform="translate(615.625 0)"/>
       <use xlink:href="#DejaVuSans-69" transform="translate(713.037109 0)"/>
       <use xlink:href="#DejaVuSans-6e" transform="translate(740.820312 0)"/>
       <use xlink:href="#DejaVuSans-69" transform="translate(804.199219 0)"/>
      </g>
     </g>
    </g>
    <g id="xtick_5">
     <g id="line2d_5">
      <g>
       <use xlink:href="#mdaf3981c06" x="256.282076" y="285.631935" style="stroke: #000000; stroke-width: 0.8"/>
      </g>
     </g>
     <g id="text_5">
      <!-- gpt4o/gpt4o -->
      <g transform="translate(222.967521 341.942838) rotate(-55) scale(0.09 -0.09)">
       <use xlink:href="#DejaVuSans-67"/>
       <use xlink:href="#DejaVuSans-70" transform="translate(63.476562 0)"/>
       <use xlink:href="#DejaVuSans-74" transform="translate(126.953125 0)"/>
       <use xlink:href="#DejaVuSans-34" transform="translate(166.162109 0)"/>
       <use xlink:href="#DejaVuSans-6f" transform="translate(229.785156 0)"/>
       <use xlink:href="#DejaVuSans-2f" transform="translate(290.966797 0)"/>
       <use xlink:href="#DejaVuSans-67" transform="translate(324.658203 0)"/>
       <use xlink:href="#DejaVuSans-70" transform="translate(388.134766 0)"/>
       <use xlink:href="#DejaVuSans-74" transform="translate(451.611328 0)"/>
       <use xlink:href="#DejaVuSans-34" transform="translate(490.820312 0)"/>
       <use xlink:href="#DejaVuSans-6f" transform="translate(554.443359 0)"/>
      </g>
     </g>
    </g>
    <g id="xtick_6">
     <g id="line2d_6">
      <g>
       <use xlink:href="#mdaf3981c06" x="296.478788" y="285.631935" style="stroke: #000000; stroke-width: 0.8"/>
      </g>
     </g>
     <g id="text_6">
      <!-- claude/gpt4o -->
      <g transform="translate(261.024345 344.998915) rotate(-55) scale(0.09 -0.09)">
       <use xlink:href="#DejaVuSans-63"/>
       <use xlink:href="#DejaVuSans-6c" transform="translate(54.980469 0)"/>
       <use xlink:href="#DejaVuSans-61" transform="translate(82.763672 0)"/>
       <use xlink:href="#DejaVuSans-75" transform="translate(144.042969 0)"/>
       <use xlink:href="#DejaVuSans-64" transform="translate(207.421875 0)"/>
       <use xlink:href="#DejaVuSans-65" transform="translate(270.898438 0)"/>
       <use xlink:href="#DejaVuSans-2f" transform="translate(332.421875 0)"/>
       <use xlink:href="#DejaVuSans-67" transform="translate(366.113281 0)"/>
       <use xlink:href="#DejaVuSans-70" transform="translate(429.589844 0)"/>
       <use xlink:href="#DejaVuSans-74" transform="translate(493.066406 0)"/>
       <use xlink:href="#DejaVuSans-34" transform="translate(532.275391 0)"/>
       <use xlink:href="#DejaVuSans-6f" transform="translate(595.898438 0)"/>
      </g>
     </g>
    </g>
    <g id="xtick_7">
     <g id="line2d_7">
      <g>
       <use xlink:href="#mdaf3981c06" x="336.675501" y="285.631935" style="stroke: #000000; stroke-width: 0.8"/>
      </g>
     </g>
     <g id="text_7">
      <!-- claude/claude -->
      <g transform="translate(299.081169 348.054992) rotate(-55) scale(0.09 -0.09)">
       <use xlink:href="#DejaVuSans-63"/>
       <use xlink:href="#DejaVuSans-6c" transform="translate(54.980469 0)"/>
       <use xlink:href="#DejaVuSans-61" transform="translate(82.763672 0)"/>
       <use xlink:href="#DejaVuSans-75" transform="translate(144.042969 0)"/>
       <use xlink:href="#DejaVuSans-64" transform="translate(207.421875 0)"/>
       <use xlink:href="#DejaVuSans-65" transform="translate(270.898438 0)"/>
       <use xlink:href="#DejaVuSans-2f" transform="translate(332.421875 0)"/>
       <use xlink:href="#DejaVuSans-63" transform="translate(366.113281 0)"/>
       <use xlink:href="#DejaVuSans-6c" transform="translate(421.09375 0)"/>
       <use xlink:href="#DejaVuSans-61" transform="translate(448.876953 0)"/>
       <use xlink:href="#DejaVuSans-75" transform="translate(510.15625 0)"/>
       <use xlink:href="#DejaVuSans-64" transform="translate(573.535156 0)"/>
       <use xlink:href="#DejaVuSans-65" transform="translate(637.011719 0)"/>
      </g>
     </g>
    </g>
    <g id="xtick_8">
     <g id="line2d_8">
      <g>
       <use xlink:href="#mdaf3981c06" x="376.872213" y="285.631935" style="stroke: #000000; stroke-width: 0.8"/>
      </g>
     </g>
     <g id="text_8">
      <!-- gpt4omini_rescued/gpt4omini -->
      <g transform="translate(298.000374 406.71255) rotate(-55) scale(0.09 -0.09)">
       <use xlink:href="#DejaVuSans-67"/>
       <use xlink:href="#DejaVuSans-70" transform="translate(63.476562 0)"/>
       <use xlink:href="#DejaVuSans-74" transform="translate(126.953125 0)"/>
       <use xlink:href="#DejaVuSans-34" transform="translate(166.162109 0)"/>
       <use xlink:href="#DejaVuSans-6f" transform="translate(229.785156 0)"/>
       <use xlink:href="#DejaVuSans-6d" transform="translate(290.966797 0)"/>
       <use xlink:href="#DejaVuSans-69" transform="translate(388.378906 0)"/>
       <use xlink:href="#DejaVuSans-6e" transform="translate(416.162109 0)"/>
       <use xlink:href="#DejaVuSans-69" transform="translate(479.541016 0)"/>
       <use xlink:href="#DejaVuSans-5f" transform="translate(507.324219 0)"/>
       <use xlink:href="#DejaVuSans-72" transform="translate(557.324219 0)"/>
       <use xlink:href="#DejaVuSans-65" transform="translate(596.1875 0)"/>
       <use xlink:href="#DejaVuSans-73" transform="translate(657.710938 0)"/>
       <use xlink:href="#DejaVuSans-63" transform="translate(709.810547 0)"/>
       <use xlink:href="#DejaVuSans-75" transform="translate(764.791016 0)"/>
       <use xlink:href="#DejaVuSans-65" transform="translate(828.169922 0)"/>
       <use xlink:href="#DejaVuSans-64" transform="translate(889.693359 0)"/>
       <use xlink:href="#DejaVuSans-2f" transform="translate(953.169922 0)"/>
       <use xlink:href="#DejaVuSans-67" transform="translate(986.861328 0)"/>
       <use xlink:href="#DejaVuSans-70" transform="translate(1050.337891 0)"/>
       <use xlink:href="#DejaVuSans-74" transform="translate(1113.814453 0)"/>
       <use xlink:href="#DejaVuSans-34" transform="translate(1153.023438 0)"/>
       <use xlink:href="#DejaVuSans-6f" transform="translate(1216.646484 0)"/>
       <use xlink:href="#DejaVuSans-6d" transform="translate(1277.828125 0)"/>
       <use xlink:href="#DejaVuSans-69" transform="translate(1375.240234 0)"/>
       <use xlink:href="#DejaVuSans-6e" transform="translate(1403.023438 0)"/>
       <use xlink:href="#DejaVuSans-69" transform="translate(1466.402344 0)"/>
      </g>
     </g>
    </g>
    <g id="xtick_9">
     <g id="line2d_9">
      <g>
       <use xlink:href="#mdaf3981c06" x="417.068925" y="285.631935" style="stroke: #000000; stroke-width: 0.8"/>
      </g>
     </g>
     <g id="text_9">
      <!-- gpt4o/claude -->
      <g transform="translate(381.614482 344.998915) rotate(-55) scale(0.09 -0.09)">
       <use xlink:href="#DejaVuSans-67"/>
       <use xlink:href="#DejaVuSans-70" transform="translate(63.476562 0)"/>
       <use xlink:href="#DejaVuSans-74" transform="translate(126.953125 0)"/>
       <use xlink:href="#DejaVuSans-34" transform="translate(166.162109 0)"/>
       <use xlink:href="#DejaVuSans-6f" transform="translate(229.785156 0)"/>
       <use xlink:href="#DejaVuSans-2f" transform="translate(290.966797 0)"/>
       <use xlink:href="#DejaVuSans-63" transform="translate(324.658203 0)"/>
       <use xlink:href="#DejaVuSans-6c" transform="translate(379.638672 0)"/>
       <use xlink:href="#DejaVuSans-61" transform="translate(407.421875 0)"/>
       <use xlink:href="#DejaVuSans-75" transform="translate(468.701172 0)"/>
       <use xlink:href="#DejaVuSans-64" transform="translate(532.080078 0)"/>
       <use xlink:href="#DejaVuSans-65" transform="translate(595.556641 0)"/>
      </g>
     </g>
    </g>
    <g id="xtick_10">
     <g id="line2d_10">
      <g>
       <use xlink:href="#mdaf3981c06" x="457.265638" y="285.631935" style="stroke: #000000; stroke-width: 0.8"/>
      </g>
     </g>
     <g id="text_10">
      <!-- claude/gpt4omini -->
      <g transform="translate(410.643124 360.948573) rotate(-55) scale(0.09 -0.09)">
       <use xlink:href="#DejaVuSans-63"/>
       <use xlink:href="#DejaVuSans-6c" transform="translate(54.980469 0)"/>
       <use xlink:href="#DejaVuSans-61" transform="translate(82.763672 0)"/>
       <use xlink:href="#DejaVuSans-75" transform="translate(144.042969 0)"/>
       <use xlink:href="#DejaVuSans-64" transform="translate(207.421875 0)"/>
       <use xlink:href="#DejaVuSans-65" transform="translate(270.898438 0)"/>
       <use xlink:href="#DejaVuSans-2f" transform="translate(332.421875 0)"/>
       <use xlink:href="#DejaVuSans-67" transform="translate(366.113281 0)"/>
       <use xlink:href="#DejaVuSans-70" transform="translate(429.589844 0)"/>
       <use xlink:href="#DejaVuSans-74" transform="translate(493.066406 0)"/>
       <use xlink:href="#DejaVuSans-34" transform="translate(532.275391 0)"/>
       <use xlink:href="#DejaVuSans-6f" transform="translate(595.898438 0)"/>
       <use xlink:href="#DejaVuSans-6d" transform="translate(657.080078 0)"/>
       <use xlink:href="#DejaVuSans-69" transform="translate(754.492188 0)"/>
       <use xlink:href="#DejaVuSans-6e" transform="translate(782.275391 0)"/>
       <use xlink:href="#DejaVuSans-69" transform="translate(845.654297 0)"/>
      </g>
     </g>
    </g>
    <g id="xtick_11">
     <g id="line2d_11">
      <g>
       <use xlink:href="#mdaf3981c06" x="497.46235" y="285.631935" style="stroke: #000000; stroke-width: 0.8"/>
      </g>
     </g>
     <g id="text_11">
      <!-- gemma_rescued/gemma -->
      <g transform="translate(431.621809 388.101928) rotate(-55) scale(0.09 -0.09)">
       <use xlink:href="#DejaVuSans-67"/>
       <use xlink:href="#DejaVuSans-65" transform="translate(63.476562 0)"/>
       <use xlink:href="#DejaVuSans-6d" transform="translate(125 0)"/>
       <use xlink:href="#DejaVuSans-6d" transform="translate(222.412109 0)"/>
       <use xlink:href="#DejaVuSans-61" transform="translate(319.824219 0)"/>
       <use xlink:href="#DejaVuSans-5f" transform="translate(381.103516 0)"/>
       <use xlink:href="#DejaVuSans-72" transform="translate(431.103516 0)"/>
       <use xlink:href="#DejaVuSans-65" transform="translate(469.966797 0)"/>
       <use xlink:href="#DejaVuSans-73" transform="translate(531.490234 0)"/>
       <use xlink:href="#DejaVuSans-63" transform="translate(583.589844 0)"/>
       <use xlink:href="#DejaVuSans-75" transform="translate(638.570312 0)"/>
       <use xlink:href="#DejaVuSans-65" transform="translate(701.949219 0)"/>
       <use xlink:href="#DejaVuSans-64" transform="translate(763.472656 0)"/>
       <use xlink:href="#DejaVuSans-2f" transform="translate(826.949219 0)"/>
       <use xlink:href="#DejaVuSans-67" transform="translate(860.640625 0)"/>
       <use xlink:href="#DejaVuSans-65" transform="translate(924.117188 0)"/>
       <use xlink:href="#DejaVuSans-6d" transform="translate(985.640625 0)"/>
       <use xlink:href="#DejaVuSans-6d" transform="translate(1083.052734 0)"/>
       <use xlink:href="#DejaVuSans-61" transform="translate(1180.464844 0)"/>
      </g>
     </g>
    </g>
    <g id="xtick_12">
     <g id="line2d_12">
      <g>
       <use xlink:href="#mdaf3981c06" x="537.659063" y="285.631935" style="stroke: #000000; stroke-width: 0.8"/>
      </g>
     </g>
     <g id="text_12">
      <!-- gpt4omini_rescued/gpt4o -->
      <g transform="translate(469.955294 390.762892) rotate(-55) scale(0.09 -0.09)">
       <use xlink:href="#DejaVuSans-67"/>
       <use xlink:href="#DejaVuSans-70" transform="translate(63.476562 0)"/>
       <use xlink:href="#DejaVuSans-74" transform="translate(126.953125 0)"/>
       <use xlink:href="#DejaVuSans-34" transform="translate(166.162109 0)"/>
       <use xlink:href="#DejaVuSans-6f" transform="translate(229.785156 0)"/>
       <use xlink:href="#DejaVuSans-6d" transform="translate(290.966797 0)"/>
       <use xlink:href="#DejaVuSans-69" transform="translate(388.378906 0)"/>
       <use xlink:href="#DejaVuSans-6e" transform="translate(416.162109 0)"/>
       <use xlink:href="#DejaVuSans-69" transform="translate(479.541016 0)"/>
       <use xlink:href="#DejaVuSans-5f" transform="translate(507.324219 0)"/>
       <use xlink:href="#DejaVuSans-72" transform="translate(557.324219 0)"/>
       <use xlink:href="#DejaVuSans-65" transform="translate(596.1875 0)"/>
       <use xlink:href="#DejaVuSans-73" transform="translate(657.710938 0)"/>
       <use xlink:href="#DejaVuSans-63" transform="translate(709.810547 0)"/>
       <use xlink:href="#DejaVuSans-75" transform="translate(764.791016 0)"/>
       <use xlink:href="#DejaVuSans-65" transform="translate(828.169922 0)"/>
       <use xlink:href="#DejaVuSans-64" transform="translate(889.693359 0)"/>
       <use xlink:href="#DejaVuSans-2f" transform="translate(953.169922 0)"/>
       <use xlink:href="#DejaVuSans-67" transform="translate(986.861328 0)"/>
       <use xlink:href="#DejaVuSans-70" transform="translate(1050.337891 0)"/>
       <use xlink:href="#DejaVuSans-74" transform="translate(1113.814453 0)"/>
       <use xlink:href="#DejaVuSans-34" transform="translate(1153.023438 0)"/>
       <use xlink:href="#DejaVuSans-6f" transform="translate(1216.646484 0)"/>
      </g>
     </g>
    </g>
    <g id="xtick_13">
     <g id="line2d_13">
      <g>
       <use xlink:href="#mdaf3981c06" x="577.855775" y="285.631935" style="stroke: #000000; stroke-width: 0.8"/>
      </g>
     </g>
     <g id="text_13">
      <!-- gpt4omini_rescued/claude -->
      <g transform="translate(508.012118 393.818969) rotate(-55) scale(0.09 -0.09)">
       <use xlink:href="#DejaVuSans-67"/>
       <use xlink:href="#DejaVuSans-70" transform="translate(63.476562 0)"/>
       <use xlink:href="#DejaVuSans-74" transform="translate(126.953125 0)"/>
       <use xlink:href="#DejaVuSans-34" transform="translate(166.162109 0)"/>
       <use xlink:href="#DejaVuSans-6f" transform="translate(229.785156 0)"/>
       <use xlink:href="#DejaVuSans-6d" transform="translate(290.966797 0)"/>
       <use xlink:href="#DejaVuSans-69" transform="translate(388.378906 0)"/>
       <use xlink:href="#DejaVuSans-6e" transform="translate(416.162109 0)"/>
       <use xlink:href="#DejaVuSans-69" transform="translate(479.541016 0)"/>
       <use xlink:href="#DejaVuSans-5f" transform="translate(507.324219 0)"/>
       <use xlink:href="#DejaVuSans-72" transform="translate(557.324219 0)"/>
       <use xlink:href="#DejaVuSans-65" transform="translate(596.1875 0)"/>
       <use xlink:href="#DejaVuSans-73" transform="translate(657.710938 0)"/>
       <use xlink:href="#DejaVuSans-63" transform="translate(709.810547 0)"/>
       <use xlink:href="#DejaVuSans-75" transform="translate(764.791016 0)"/>
       <use xlink:href="#DejaVuSans-65" transform="translate(828.169922 0)"/>
       <use xlink:href="#DejaVuSans-64" transform="translate(889.693359 0)"/>
       <use xlink:href="#DejaVuSans-2f" transform="translate(953.169922 0)"/>
       <use xlink:href="#DejaVuSans-63" transform="translate(986.861328 0)"/>
       <use xlink:href="#DejaVuSans-6c" transform="translate(1041.841797 0)"/>
       <use xlink:href="#DejaVuSans-61" transform="translate(1069.625 0)"/>
       <use xlink:href="#DejaVuSans-75" transform="translate(1130.904297 0)"/>
       <use xlink:href="#DejaVuSans-64" transform="translate(1194.283203 0)"/>
       <use xlink:href="#DejaVuSans-65" transform="translate(1257.759766 0)"/>
      </g>
     </g>
    </g>
    <g id="xtick_14">
     <g id="line2d_14">
      <g>
       <use xlink:href="#mdaf3981c06" x="618.052487" y="285.631935" style="stroke: #000000; stroke-width: 0.8"/>
      </g>
     </g>
     <g id="text_14">
      <!-- gemma_rescued/gpt4o -->
      <g transform="translate(556.864368 381.457581) rotate(-55) scale(0.09 -0.09)">
       <use xlink:href="#DejaVuSans-67"/>
       <use xlink:href="#DejaVuSans-65" transform="translate(63.476562 0)"/>
       <use xlink:href="#DejaVuSans-6d" transform="translate(125 0)"/>
       <use xlink:href="#DejaVuSans-6d" transform="translate(222.412109 0)"/>
       <use xlink:href="#DejaVuSans-61" transform="translate(319.824219 0)"/>
       <use xlink:href="#DejaVuSans-5f" transform="translate(381.103516 0)"/>
       <use xlink:href="#DejaVuSans-72" transform="translate(431.103516 0)"/>
       <use xlink:href="#DejaVuSans-65" transform="translate(469.966797 0)"/>
       <use xlink:href="#DejaVuSans-73" transform="translate(531.490234 0)"/>
       <use xlink:href="#DejaVuSans-63" transform="translate(583.589844 0)"/>
       <use xlink:href="#DejaVuSans-75" transform="translate(638.570312 0)"/>
       <use xlink:href="#DejaVuSans-65" transform="translate(701.949219 0)"/>
       <use xlink:href="#DejaVuSans-64" transform="translate(763.472656 0)"/>
       <use xlink:href="#DejaVuSans-2f" transform="translate(826.949219 0)"/>
       <use xlink:href="#DejaVuSans-67" transform="translate(860.640625 0)"/>
       <use xlink:href="#DejaVuSans-70" transform="translate(924.117188 0)"/>
       <use xlink:href="#DejaVuSans-74" transform="translate(987.59375 0)"/>
       <use xlink:href="#DejaVuSans-34" transform="translate(1026.802734 0)"/>
       <use xlink:href="#DejaVuSans-6f" transform="translate(1090.425781 0)"/>
      </g>
     </g>
    </g>
    <g id="xtick_15">
     <g id="line2d_15">
      <g>
       <use xlink:href="#mdaf3981c06" x="658.2492" y="285.631935" style="stroke: #000000; stroke-width: 0.8"/>
      </g>
     </g>
     <g id="text_15">
      <!-- gemma_rescued/claude -->
      <g transform="translate(594.921192 384.513658) rotate(-55) scale(0.09 -0.09)">
       <use xlink:href="#DejaVuSans-67"/>
       <use xlink:href="#DejaVuSans-65" transform="translate(63.476562 0)"/>
       <use xlink:href="#DejaVuSans-6d" transform="translate(125 0)"/>
       <use xlink:href="#DejaVuSans-6d" transform="translate(222.412109 0)"/>
       <use xlink:href="#DejaVuSans-61" transform="translate(319.824219 0)"/>
       <use xlink:href="#DejaVuSans-5f" transform="translate(381.103516 0)"/>
       <use xlink:href="#DejaVuSans-72" transform="translate(431.103516 0)"/>
       <use xlink:href="#DejaVuSans-65" transform="translate(469.966797 0)"/>
       <use xlink:href="#DejaVuSans-73" transform="translate(531.490234 0)"/>
       <use xlink:href="#DejaVuSans-63" transform="translate(583.589844 0)"/>
       <use xlink:href="#DejaVuSans-75" transform="translate(638.570312 0)"/>
       <use xlink:href="#DejaVuSans-65" transform="translate(701.949219 0)"/>
       <use xlink:href="#DejaVuSans-64" transform="translate(763.472656 0)"/>
       <use xlink:href="#DejaVuSans-2f" transform="translate(826.949219 0)"/>
       <use xlink:href="#DejaVuSans-63" transform="translate(860.640625 0)"/>
       <use xlink:href="#DejaVuSans-6c" transform="translate(915.621094 0)"/>
       <use xlink:href="#DejaVuSans-61" transform="translate(943.404297 0)"/>
       <use xlink:href="#DejaVuSans-75" transform="translate(1004.683594 0)"/>
       <use xlink:href="#DejaVuSans-64" transform="translate(1068.0625 0)"/>
       <use xlink:href="#DejaVuSans-65" transform="translate(1131.539062 0)"/>
      </g>
     </g>
    </g>
    <g id="xtick_16">
     <g id="line2d_16">
      <g>
       <use xlink:href="#mdaf3981c06" x="698.445912" y="285.631935" style="stroke: #000000; stroke-width: 0.8"/>
      </g>
     </g>
     <g id="text_16">
      <!-- gemma_rescued/gpt4omini -->
      <g transform="translate(626.089722 397.407239) rotate(-55) scale(0.09 -0.09)">
       <use xlink:href="#DejaVuSans-67"/>
       <use xlink:href="#DejaVuSans-65" transform="translate(63.476562 0)"/>
       <use xlink:href="#DejaVuSans-6d" transform="translate(125 0)"/>
       <use xlink:href="#DejaVuSans-6d" transform="translate(222.412109 0)"/>
       <use xlink:href="#DejaVuSans-61" transform="translate(319.824219 0)"/>
       <use xlink:href="#DejaVuSans-5f" transform="translate(381.103516 0)"/>
       <use xlink:href="#DejaVuSans-72" transform="translate(431.103516 0)"/>
       <use xlink:href="#DejaVuSans-65" transform="translate(469.966797 0)"/>
       <use xlink:href="#DejaVuSans-73" transform="translate(531.490234 0)"/>
       <use xlink:href="#DejaVuSans-63" transform="translate(583.589844 0)"/>
       <use xlink:href="#DejaVuSans-75" transform="translate(638.570312 0)"/>
       <use xlink:href="#DejaVuSans-65" transform="translate(701.949219 0)"/>
       <use xlink:href="#DejaVuSans-64" transform="translate(763.472656 0)"/>
       <use xlink:href="#DejaVuSans-2f" transform="translate(826.949219 0)"/>
       <use xlink:href="#DejaVuSans-67" transform="translate(860.640625 0)"/>
       <use xlink:href="#DejaVuSans-70" transform="translate(924.117188 0)"/>
       <use xlink:href="#DejaVuSans-74" transform="translate(987.59375 0)"/>
       <use xlink:href="#DejaVuSans-34" transform="translate(1026.802734 0)"/>
       <use xlink:href="#DejaVuSans-6f" transform="translate(1090.425781 0)"/>
       <use xlink:href="#DejaVuSans-6d" transform="translate(1151.607422 0)"/>
       <use xlink:href="#DejaVuSans-69" transform="translate(1249.019531 0)"/>
       <use xlink:href="#DejaVuSans-6e" transform="translate(1276.802734 0)"/>
       <use xlink:href="#DejaVuSans-69" transform="translate(1340.181641 0)"/>
      </g>
     </g>
    </g>
   </g>
   <g id="matplotlib.axis_2">
    <g id="ytick_1">
     <g id="line2d_17">
      <path d="M 47.661139 285.631935 
L 746.28 285.631935 
" clip-path="url(#p838fdc6ec9)" style="fill: none; stroke: #b0b0b0; stroke-opacity: 0.2; stroke-width: 0.8; stroke-linecap: square"/>
     </g>
     <g id="line2d_18">
      <defs>
       <path id="m56d9c5c63e" d="M 0 0 
L -3.5 0 
" style="stroke: #000000; stroke-width: 0.8"/>
      </defs>
      <g>
       <use xlink:href="#m56d9c5c63e" x="47.661139" y="285.631935" style="stroke: #000000; stroke-width: 0.8"/>
      </g>
     </g>
     <g id="text_17">
      <!-- 0 -->
      <g transform="translate(34.934889 289.051232) scale(0.09 -0.09)">
       <defs>
        <path id="DejaVuSans-30" d="M 2034 4250 
Q 1547 4250 1301 3770 
Q 1056 3291 1056 2328 
Q 1056 1369 1301 889 
Q 1547 409 2034 409 
Q 2525 409 2770 889 
Q 3016 1369 3016 2328 
Q 3016 3291 2770 3770 
Q 2525 4250 2034 4250 
z
M 2034 4750 
Q 2819 4750 3233 4129 
Q 3647 3509 3647 2328 
Q 3647 1150 3233 529 
Q 2819 -91 2034 -91 
Q 1250 -91 836 529 
Q 422 1150 422 2328 
Q 422 3509 836 4129 
Q 1250 4750 2034 4750 
z
" transform="scale(0.015625)"/>
       </defs>
       <use xlink:href="#DejaVuSans-30"/>
      </g>
     </g>
    </g>
    <g id="ytick_2">
     <g id="line2d_19">
      <path d="M 47.661139 235.407199 
L 746.28 235.407199 
" clip-path="url(#p838fdc6ec9)" style="fill: none; stroke: #b0b0b0; stroke-opacity: 0.2; stroke-width: 0.8; stroke-linecap: square"/>
     </g>
     <g id="line2d_20">
      <g>
       <use xlink:href="#m56d9c5c63e" x="47.661139" y="235.407199" style="stroke: #000000; stroke-width: 0.8"/>
      </g>
     </g>
     <g id="text_18">
      <!-- 20 -->
      <g transform="translate(29.208639 238.826496) scale(0.09 -0.09)">
       <defs>
        <path id="DejaVuSans-32" d="M 1228 531 
L 3431 531 
L 3431 0 
L 469 0 
L 469 531 
Q 828 903 1448 1529 
Q 2069 2156 2228 2338 
Q 2531 2678 2651 2914 
Q 2772 3150 2772 3378 
Q 2772 3750 2511 3984 
Q 2250 4219 1831 4219 
Q 1534 4219 1204 4116 
Q 875 4013 500 3803 
L 500 4441 
Q 881 4594 1212 4672 
Q 1544 4750 1819 4750 
Q 2544 4750 2975 4387 
Q 3406 4025 3406 3419 
Q 3406 3131 3298 2873 
Q 3191 2616 2906 2266 
Q 2828 2175 2409 1742 
Q 1991 1309 1228 531 
z
" transform="scale(0.015625)"/>
       </defs>
       <use xlink:href="#DejaVuSans-32"/>
       <use xlink:href="#DejaVuSans-30" transform="translate(63.623047 0)"/>
      </g>
     </g>
    </g>
    <g id="ytick_3">
     <g id="line2d_21">
      <path d="M 47.661139 185.182464 
L 746.28 185.182464 
" clip-path="url(#p838fdc6ec9)" style="fill: none; stroke: #b0b0b0; stroke-opacity: 0.2; stroke-width: 0.8; stroke-linecap: square"/>
     </g>
     <g id="line2d_22">
      <g>
       <use xlink:href="#m56d9c5c63e" x="47.661139" y="185.182464" style="stroke: #000000; stroke-width: 0.8"/>
      </g>
     </g>
     <g id="text_19">
      <!-- 40 -->
      <g transform="translate(29.208639 188.601761) scale(0.09 -0.09)">
       <use xlink:href="#DejaVuSans-34"/>
       <use xlink:href="#DejaVuSans-30" transform="translate(63.623047 0)"/>
      </g>
     </g>
    </g>
    <g id="ytick_4">
     <g id="line2d_23">
      <path d="M 47.661139 134.957729 
L 746.28 134.957729 
" clip-path="url(#p838fdc6ec9)" style="fill: none; stroke: #b0b0b0; stroke-opacity: 0.2; stroke-width: 0.8; stroke-linecap: square"/>
     </g>
     <g id="line2d_24">
      <g>
       <use xlink:href="#m56d9c5c63e" x="47.661139" y="134.957729" style="stroke: #000000; stroke-width: 0.8"/>
      </g>
     </g>
     <g id="text_20">
      <!-- 60 -->
      <g transform="translate(29.208639 138.377025) scale(0.09 -0.09)">
       <defs>
        <path id="DejaVuSans-36" d="M 2113 2584 
Q 1688 2584 1439 2293 
Q 1191 2003 1191 1497 
Q 1191 994 1439 701 
Q 1688 409 2113 409 
Q 2538 409 2786 701 
Q 3034 994 3034 1497 
Q 3034 2003 2786 2293 
Q 2538 2584 2113 2584 
z
M 3366 4563 
L 3366 3988 
Q 3128 4100 2886 4159 
Q 2644 4219 2406 4219 
Q 1781 4219 1451 3797 
Q 1122 3375 1075 2522 
Q 1259 2794 1537 2939 
Q 1816 3084 2150 3084 
Q 2853 3084 3261 2657 
Q 3669 2231 3669 1497 
Q 3669 778 3244 343 
Q 2819 -91 2113 -91 
Q 1303 -91 875 529 
Q 447 1150 447 2328 
Q 447 3434 972 4092 
Q 1497 4750 2381 4750 
Q 2619 4750 2861 4703 
Q 3103 4656 3366 4563 
z
" transform="scale(0.015625)"/>
       </defs>
       <use xlink:href="#DejaVuSans-36"/>
       <use xlink:href="#DejaVuSans-30" transform="translate(63.623047 0)"/>
      </g>
     </g>
    </g>
    <g id="ytick_5">
     <g id="line2d_25">
      <path d="M 47.661139 84.732993 
L 746.28 84.732993 
" clip-path="url(#p838fdc6ec9)" style="fill: none; stroke: #b0b0b0; stroke-opacity: 0.2; stroke-width: 0.8; stroke-linecap: square"/>
     </g>
     <g id="line2d_26">
      <g>
       <use xlink:href="#m56d9c5c63e" x="47.661139" y="84.732993" style="stroke: #000000; stroke-width: 0.8"/>
      </g>
     </g>
     <g id="text_21">
      <!-- 80 -->
      <g transform="translate(29.208639 88.15229) scale(0.09 -0.09)">
       <defs>
        <path id="DejaVuSans-38" d="M 2034 2216 
Q 1584 2216 1326 1975 
Q 1069 1734 1069 1313 
Q 1069 891 1326 650 
Q 1584 409 2034 409 
Q 2484 409 2743 651 
Q 3003 894 3003 1313 
Q 3003 1734 2745 1975 
Q 2488 2216 2034 2216 
z
M 1403 2484 
Q 997 2584 770 2862 
Q 544 3141 544 3541 
Q 544 4100 942 4425 
Q 1341 4750 2034 4750 
Q 2731 4750 3128 4425 
Q 3525 4100 3525 3541 
Q 3525 3141 3298 2862 
Q 3072 2584 2669 2484 
Q 3125 2378 3379 2068 
Q 3634 1759 3634 1313 
Q 3634 634 3220 271 
Q 2806 -91 2034 -91 
Q 1263 -91 848 271 
Q 434 634 434 1313 
Q 434 1759 690 2068 
Q 947 2378 1403 2484 
z
M 1172 3481 
Q 1172 3119 1398 2916 
Q 1625 2713 2034 2713 
Q 2441 2713 2670 2916 
Q 2900 3119 2900 3481 
Q 2900 3844 2670 4047 
Q 2441 4250 2034 4250 
Q 1625 4250 1398 4047 
Q 1172 3844 1172 3481 
z
" transform="scale(0.015625)"/>
       </defs>
       <use xlink:href="#DejaVuSans-38"/>
       <use xlink:href="#DejaVuSans-30" transform="translate(63.623047 0)"/>
      </g>
     </g>
    </g>
    <g id="ytick_6">
     <g id="line2d_27">
      <path d="M 47.661139 34.508258 
L 746.28 34.508258 
" clip-path="url(#p838fdc6ec9)" style="fill: none; stroke: #b0b0b0; stroke-opacity: 0.2; stroke-width: 0.8; stroke-linecap: square"/>
     </g>
     <g id="line2d_28">
      <g>
       <use xlink:href="#m56d9c5c63e" x="47.661139" y="34.508258" style="stroke: #000000; stroke-width: 0.8"/>
      </g>
     </g>
     <g id="text_22">
      <!-- 100 -->
      <g transform="translate(23.482389 37.927555) scale(0.09 -0.09)">
       <defs>
        <path id="DejaVuSans-31" d="M 794 531 
L 1825 531 
L 1825 4091 
L 703 3866 
L 703 4441 
L 1819 4666 
L 2450 4666 
L 2450 531 
L 3481 531 
L 3481 0 
L 794 0 
L 794 531 
z
" transform="scale(0.015625)"/>
       </defs>
       <use xlink:href="#DejaVuSans-31"/>
       <use xlink:href="#DejaVuSans-30" transform="translate(63.623047 0)"/>
       <use xlink:href="#DejaVuSans-30" transform="translate(127.246094 0)"/>
      </g>
     </g>
    </g>
    <g id="text_23">
     <!-- Weighted score points after penalties -->
     <g transform="translate(17.61067 239.268155) rotate(-90) scale(0.09 -0.09)">
      <defs>
       <path id="DejaVuSans-57" d="M 213 4666 
L 850 4666 
L 1831 722 
L 2809 4666 
L 3519 4666 
L 4500 722 
L 5478 4666 
L 6119 4666 
L 4947 0 
L 4153 0 
L 3169 4050 
L 2175 0 
L 1381 0 
L 213 4666 
z
" transform="scale(0.015625)"/>
       <path id="DejaVuSans-68" d="M 3513 2113 
L 3513 0 
L 2938 0 
L 2938 2094 
Q 2938 2591 2744 2837 
Q 2550 3084 2163 3084 
Q 1697 3084 1428 2787 
Q 1159 2491 1159 1978 
L 1159 0 
L 581 0 
L 581 4863 
L 1159 4863 
L 1159 2956 
Q 1366 3272 1645 3428 
Q 1925 3584 2291 3584 
Q 2894 3584 3203 3211 
Q 3513 2838 3513 2113 
z
" transform="scale(0.015625)"/>
       <path id="DejaVuSans-20" transform="scale(0.015625)"/>
       <path id="DejaVuSans-66" d="M 2375 4863 
L 2375 4384 
L 1825 4384 
Q 1516 4384 1395 4259 
Q 1275 4134 1275 3809 
L 1275 3500 
L 2222 3500 
L 2222 3053 
L 1275 3053 
L 1275 0 
L 697 0 
L 697 3053 
L 147 3053 
L 147 3500 
L 697 3500 
L 697 3744 
Q 697 4328 969 4595 
Q 1241 4863 1831 4863 
L 2375 4863 
z
" transform="scale(0.015625)"/>
      </defs>
      <use xlink:href="#DejaVuSans-57"/>
      <use xlink:href="#DejaVuSans-65" transform="translate(93.001953 0)"/>
      <use xlink:href="#DejaVuSans-69" transform="translate(154.525391 0)"/>
      <use xlink:href="#DejaVuSans-67" transform="translate(182.308594 0)"/>
      <use xlink:href="#DejaVuSans-68" transform="translate(245.785156 0)"/>
      <use xlink:href="#DejaVuSans-74" transform="translate(309.164062 0)"/>
      <use xlink:href="#DejaVuSans-65" transform="translate(348.373047 0)"/>
      <use xlink:href="#DejaVuSans-64" transform="translate(409.896484 0)"/>
      <use xlink:href="#DejaVuSans-20" transform="translate(473.373047 0)"/>
      <use xlink:href="#DejaVuSans-73" transform="translate(505.160156 0)"/>
      <use xlink:href="#DejaVuSans-63" transform="translate(557.259766 0)"/>
      <use xlink:href="#DejaVuSans-6f" transform="translate(612.240234 0)"/>
      <use xlink:href="#DejaVuSans-72" transform="translate(673.421875 0)"/>
      <use xlink:href="#DejaVuSans-65" transform="translate(712.285156 0)"/>
      <use xlink:href="#DejaVuSans-20" transform="translate(773.808594 0)"/>
      <use xlink:href="#DejaVuSans-70" transform="translate(805.595703 0)"/>
      <use xlink:href="#DejaVuSans-6f" transform="translate(869.072266 0)"/>
      <use xlink:href="#DejaVuSans-69" transform="translate(930.253906 0)"/>
      <use xlink:href="#DejaVuSans-6e" transform="translate(958.037109 0)"/>
      <use xlink:href="#DejaVuSans-74" transform="translate(1021.416016 0)"/>
      <use xlink:href="#DejaVuSans-73" transform="translate(1060.625 0)"/>
      <use xlink:href="#DejaVuSans-20" transform="translate(1112.724609 0)"/>
      <use xlink:href="#DejaVuSans-61" transform="translate(1144.511719 0)"/>
      <use xlink:href="#DejaVuSans-66" transform="translate(1205.791016 0)"/>
      <use xlink:href="#DejaVuSans-74" transform="translate(1239.246094 0)"/>
      <use xlink:href="#DejaVuSans-65" transform="translate(1278.455078 0)"/>
      <use xlink:href="#DejaVuSans-72" transform="translate(1339.978516 0)"/>
      <use xlink:href="#DejaVuSans-20" transform="translate(1381.091797 0)"/>
      <use xlink:href="#DejaVuSans-70" transform="translate(1412.878906 0)"/>
      <use xlink:href="#DejaVuSans-65" transform="translate(1476.355469 0)"/>
      <use xlink:href="#DejaVuSans-6e" transform="translate(1537.878906 0)"/>
      <use xlink:href="#DejaVuSans-61" transform="translate(1601.257812 0)"/>
      <use xlink:href="#DejaVuSans-6c" transform="translate(1662.537109 0)"/>
      <use xlink:href="#DejaVuSans-74" transform="translate(1690.320312 0)"/>
      <use xlink:href="#DejaVuSans-69" transform="translate(1729.529297 0)"/>
      <use xlink:href="#DejaVuSans-65" transform="translate(1757.3125 0)"/>
      <use xlink:href="#DejaVuSans-73" transform="translate(1818.835938 0)"/>
     </g>
    </g>
   </g>
   <g id="patch_99">
    <path d="M 47.661139 285.631935 
L 47.661139 24.52 
" style="fill: none; stroke: #000000; stroke-width: 0.8; stroke-linejoin: miter; stroke-linecap: square"/>
   </g>
   <g id="patch_100">
    <path d="M 746.28 285.631935 
L 746.28 24.52 
" style="fill: none; stroke: #000000; stroke-width: 0.8; stroke-linejoin: miter; stroke-linecap: square"/>
   </g>
   <g id="patch_101">
    <path d="M 47.661139 285.631935 
L 746.28 285.631935 
" style="fill: none; stroke: #000000; stroke-width: 0.8; stroke-linejoin: miter; stroke-linecap: square"/>
   </g>
   <g id="patch_102">
    <path d="M 47.661139 24.52 
L 746.28 24.52 
" style="fill: none; stroke: #000000; stroke-width: 0.8; stroke-linejoin: miter; stroke-linecap: square"/>
   </g>
   <g id="text_24">
    <!-- Design Utility Component Contributions -->
    <g transform="translate(287.614241 18.52) scale(0.11 -0.11)">
     <defs>
      <path id="DejaVuSans-44" d="M 1259 4147 
L 1259 519 
L 2022 519 
Q 2988 519 3436 956 
Q 3884 1394 3884 2338 
Q 3884 3275 3436 3711 
Q 2988 4147 2022 4147 
L 1259 4147 
z
M 628 4666 
L 1925 4666 
Q 3281 4666 3915 4102 
Q 4550 3538 4550 2338 
Q 4550 1131 3912 565 
Q 3275 0 1925 0 
L 628 0 
L 628 4666 
z
" transform="scale(0.015625)"/>
      <path id="DejaVuSans-55" d="M 556 4666 
L 1191 4666 
L 1191 1831 
Q 1191 1081 1462 751 
Q 1734 422 2344 422 
Q 2950 422 3222 751 
Q 3494 1081 3494 1831 
L 3494 4666 
L 4128 4666 
L 4128 1753 
Q 4128 841 3676 375 
Q 3225 -91 2344 -91 
Q 1459 -91 1007 375 
Q 556 841 556 1753 
L 556 4666 
z
" transform="scale(0.015625)"/>
      <path id="DejaVuSans-79" d="M 2059 -325 
Q 1816 -950 1584 -1140 
Q 1353 -1331 966 -1331 
L 506 -1331 
L 506 -850 
L 844 -850 
Q 1081 -850 1212 -737 
Q 1344 -625 1503 -206 
L 1606 56 
L 191 3500 
L 800 3500 
L 1894 763 
L 2988 3500 
L 3597 3500 
L 2059 -325 
z
" transform="scale(0.015625)"/>
      <path id="DejaVuSans-43" d="M 4122 4306 
L 4122 3641 
Q 3803 3938 3442 4084 
Q 3081 4231 2675 4231 
Q 1875 4231 1450 3742 
Q 1025 3253 1025 2328 
Q 1025 1406 1450 917 
Q 1875 428 2675 428 
Q 3081 428 3442 575 
Q 3803 722 4122 1019 
L 4122 359 
Q 3791 134 3420 21 
Q 3050 -91 2638 -91 
Q 1578 -91 968 557 
Q 359 1206 359 2328 
Q 359 3453 968 4101 
Q 1578 4750 2638 4750 
Q 3056 4750 3426 4639 
Q 3797 4528 4122 4306 
z
" transform="scale(0.015625)"/>
      <path id="DejaVuSans-62" d="M 3116 1747 
Q 3116 2381 2855 2742 
Q 2594 3103 2138 3103 
Q 1681 3103 1420 2742 
Q 1159 2381 1159 1747 
Q 1159 1113 1420 752 
Q 1681 391 2138 391 
Q 2594 391 2855 752 
Q 3116 1113 3116 1747 
z
M 1159 2969 
Q 1341 3281 1617 3432 
Q 1894 3584 2278 3584 
Q 2916 3584 3314 3078 
Q 3713 2572 3713 1747 
Q 3713 922 3314 415 
Q 2916 -91 2278 -91 
Q 1894 -91 1617 61 
Q 1341 213 1159 525 
L 1159 0 
L 581 0 
L 581 4863 
L 1159 4863 
L 1159 2969 
z
" transform="scale(0.015625)"/>
     </defs>
     <use xlink:href="#DejaVuSans-44"/>
     <use xlink:href="#DejaVuSans-65" transform="translate(77.001953 0)"/>
     <use xlink:href="#DejaVuSans-73" transform="translate(138.525391 0)"/>
     <use xlink:href="#DejaVuSans-69" transform="translate(190.625 0)"/>
     <use xlink:href="#DejaVuSans-67" transform="translate(218.408203 0)"/>
     <use xlink:href="#DejaVuSans-6e" transform="translate(281.884766 0)"/>
     <use xlink:href="#DejaVuSans-20" transform="translate(345.263672 0)"/>
     <use xlink:href="#DejaVuSans-55" transform="translate(377.050781 0)"/>
     <use xlink:href="#DejaVuSans-74" transform="translate(450.244141 0)"/>
     <use xlink:href="#DejaVuSans-69" transform="translate(489.453125 0)"/>
     <use xlink:href="#DejaVuSans-6c" transform="translate(517.236328 0)"/>
     <use xlink:href="#DejaVuSans-69" transform="translate(545.019531 0)"/>
     <use xlink:href="#DejaVuSans-74" transform="translate(572.802734 0)"/>
     <use xlink:href="#DejaVuSans-79" transform="translate(612.011719 0)"/>
     <use xlink:href="#DejaVuSans-20" transform="translate(671.191406 0)"/>
     <use xlink:href="#DejaVuSans-43" transform="translate(702.978516 0)"/>
     <use xlink:href="#DejaVuSans-6f" transform="translate(772.802734 0)"/>
     <use xlink:href="#DejaVuSans-6d" transform="translate(833.984375 0)"/>
     <use xlink:href="#DejaVuSans-70" transform="translate(931.396484 0)"/>
     <use xlink:href="#DejaVuSans-6f" transform="translate(994.873047 0)"/>
     <use xlink:href="#DejaVuSans-6e" transform="translate(1056.054688 0)"/>
     <use xlink:href="#DejaVuSans-65" transform="translate(1119.433594 0)"/>
     <use xlink:href="#DejaVuSans-6e" transform="translate(1180.957031 0)"/>
     <use xlink:href="#DejaVuSans-74" transform="translate(1244.335938 0)"/>
     <use xlink:href="#DejaVuSans-20" transform="translate(1283.544922 0)"/>
     <use xlink:href="#DejaVuSans-43" transform="translate(1315.332031 0)"/>
     <use xlink:href="#DejaVuSans-6f" transform="translate(1385.15625 0)"/>
     <use xlink:href="#DejaVuSans-6e" transform="translate(1446.337891 0)"/>
     <use xlink:href="#DejaVuSans-74" transform="translate(1509.716797 0)"/>
     <use xlink:href="#DejaVuSans-72" transform="translate(1548.925781 0)"/>
     <use xlink:href="#DejaVuSans-69" transform="translate(1590.039062 0)"/>
     <use xlink:href="#DejaVuSans-62" transform="translate(1617.822266 0)"/>
     <use xlink:href="#DejaVuSans-75" transform="translate(1681.298828 0)"/>
     <use xlink:href="#DejaVuSans-74" transform="translate(1744.677734 0)"/>
     <use xlink:href="#DejaVuSans-69" transform="translate(1783.886719 0)"/>
     <use xlink:href="#DejaVuSans-6f" transform="translate(1811.669922 0)"/>
     <use xlink:href="#DejaVuSans-6e" transform="translate(1872.851562 0)"/>
     <use xlink:href="#DejaVuSans-73" transform="translate(1936.230469 0)"/>
    </g>
   </g>
   <g id="legend_1">
    <g id="patch_103">
     <path d="M 500.32875 54.405 
L 740.68 54.405 
Q 742.28 54.405 742.28 52.805 
L 742.28 30.12 
Q 742.28 28.52 740.68 28.52 
L 500.32875 28.52 
Q 498.72875 28.52 498.72875 30.12 
L 498.72875 52.805 
Q 498.72875 54.405 500.32875 54.405 
z
" style="fill: #ffffff; opacity: 0.8; stroke: #cccccc; stroke-linejoin: miter"/>
    </g>
    <g id="patch_104">
     <path d="M 501.92875 37.79875 
L 517.92875 37.79875 
L 517.92875 32.19875 
L 501.92875 32.19875 
z
" style="fill: #22577a; stroke: #000000; stroke-width: 0.2; stroke-linejoin: miter"/>
    </g>
    <g id="text_25">
     <!-- productivity -->
     <g transform="translate(524.32875 37.79875) scale(0.08 -0.08)">
      <defs>
       <path id="DejaVuSans-76" d="M 191 3500 
L 800 3500 
L 1894 563 
L 2988 3500 
L 3597 3500 
L 2284 0 
L 1503 0 
L 191 3500 
z
" transform="scale(0.015625)"/>
      </defs>
      <use xlink:href="#DejaVuSans-70"/>
      <use xlink:href="#DejaVuSans-72" transform="translate(63.476562 0)"/>
      <use xlink:href="#DejaVuSans-6f" transform="translate(102.339844 0)"/>
      <use xlink:href="#DejaVuSans-64" transform="translate(163.521484 0)"/>
      <use xlink:href="#DejaVuSans-75" transform="translate(226.998047 0)"/>
      <use xlink:href="#DejaVuSans-63" transform="translate(290.376953 0)"/>
      <use xlink:href="#DejaVuSans-74" transform="translate(345.357422 0)"/>
      <use xlink:href="#DejaVuSans-69" transform="translate(384.566406 0)"/>
      <use xlink:href="#DejaVuSans-76" transform="translate(412.349609 0)"/>
      <use xlink:href="#DejaVuSans-69" transform="translate(471.529297 0)"/>
      <use xlink:href="#DejaVuSans-74" transform="translate(499.3125 0)"/>
      <use xlink:href="#DejaVuSans-79" transform="translate(538.521484 0)"/>
     </g>
    </g>
    <g id="patch_105">
     <path d="M 501.92875 49.54125 
L 517.92875 49.54125 
L 517.92875 43.94125 
L 501.92875 43.94125 
z
" style="fill: #38a3a5; stroke: #000000; stroke-width: 0.2; stroke-linejoin: miter"/>
    </g>
    <g id="text_26">
     <!-- intensification -->
     <g transform="translate(524.32875 49.54125) scale(0.08 -0.08)">
      <use xlink:href="#DejaVuSans-69"/>
      <use xlink:href="#DejaVuSans-6e" transform="translate(27.783203 0)"/>
      <use xlink:href="#DejaVuSans-74" transform="translate(91.162109 0)"/>
      <use xlink:href="#DejaVuSans-65" transform="translate(130.371094 0)"/>
      <use xlink:href="#DejaVuSans-6e" transform="translate(191.894531 0)"/>
      <use xlink:href="#DejaVuSans-73" transform="translate(255.273438 0)"/>
      <use xlink:href="#DejaVuSans-69" transform="translate(307.373047 0)"/>
      <use xlink:href="#DejaVuSans-66" transform="translate(335.15625 0)"/>
      <use xlink:href="#DejaVuSans-69" transform="translate(370.361328 0)"/>
      <use xlink:href="#DejaVuSans-63" transform="translate(398.144531 0)"/>
      <use xlink:href="#DejaVuSans-61" transform="translate(453.125 0)"/>
      <use xlink:href="#DejaVuSans-74" transform="translate(514.404297 0)"/>
      <use xlink:href="#DejaVuSans-69" transform="translate(553.613281 0)"/>
      <use xlink:href="#DejaVuSans-6f" transform="translate(581.396484 0)"/>
      <use xlink:href="#DejaVuSans-6e" transform="translate(642.578125 0)"/>
     </g>
    </g>
    <g id="patch_106">
     <path d="M 596.80375 37.79875 
L 612.80375 37.79875 
L 612.80375 32.19875 
L 596.80375 32.19875 
z
" style="fill: #57cc99; stroke: #000000; stroke-width: 0.2; stroke-linejoin: miter"/>
    </g>
    <g id="text_27">
     <!-- volume -->
     <g transform="translate(619.20375 37.79875) scale(0.08 -0.08)">
      <use xlink:href="#DejaVuSans-76"/>
      <use xlink:href="#DejaVuSans-6f" transform="translate(59.179688 0)"/>
      <use xlink:href="#DejaVuSans-6c" transform="translate(120.361328 0)"/>
      <use xlink:href="#DejaVuSans-75" transform="translate(148.144531 0)"/>
      <use xlink:href="#DejaVuSans-6d" transform="translate(211.523438 0)"/>
      <use xlink:href="#DejaVuSans-65" transform="translate(308.935547 0)"/>
     </g>
    </g>
    <g id="patch_107">
     <path d="M 596.80375 49.54125 
L 612.80375 49.54125 
L 612.80375 43.94125 
L 596.80375 43.94125 
z
" style="fill: #80ed99; stroke: #000000; stroke-width: 0.2; stroke-linejoin: miter"/>
    </g>
    <g id="text_28">
     <!-- operability -->
     <g transform="translate(619.20375 49.54125) scale(0.08 -0.08)">
      <use xlink:href="#DejaVuSans-6f"/>
      <use xlink:href="#DejaVuSans-70" transform="translate(61.181641 0)"/>
      <use xlink:href="#DejaVuSans-65" transform="translate(124.658203 0)"/>
      <use xlink:href="#DejaVuSans-72" transform="translate(186.181641 0)"/>
      <use xlink:href="#DejaVuSans-61" transform="translate(227.294922 0)"/>
      <use xlink:href="#DejaVuSans-62" transform="translate(288.574219 0)"/>
      <use xlink:href="#DejaVuSans-69" transform="translate(352.050781 0)"/>
      <use xlink:href="#DejaVuSans-6c" transform="translate(379.833984 0)"/>
      <use xlink:href="#DejaVuSans-69" transform="translate(407.617188 0)"/>
      <use xlink:href="#DejaVuSans-74" transform="translate(435.400391 0)"/>
      <use xlink:href="#DejaVuSans-79" transform="translate(474.609375 0)"/>
     </g>
    </g>
    <g id="patch_108">
     <path d="M 677.90875 37.79875 
L 693.90875 37.79875 
L 693.90875 32.19875 
L 677.90875 32.19875 
z
" style="fill: #c7f9cc; stroke: #000000; stroke-width: 0.2; stroke-linejoin: miter"/>
    </g>
    <g id="text_29">
     <!-- geometry -->
     <g transform="translate(700.30875 37.79875) scale(0.08 -0.08)">
      <use xlink:href="#DejaVuSans-67"/>
      <use xlink:href="#DejaVuSans-65" transform="translate(63.476562 0)"/>
      <use xlink:href="#DejaVuSans-6f" transform="translate(125 0)"/>
      <use xlink:href="#DejaVuSans-6d" transform="translate(186.181641 0)"/>
      <use xlink:href="#DejaVuSans-65" transform="translate(283.59375 0)"/>
      <use xlink:href="#DejaVuSans-74" transform="translate(345.117188 0)"/>
      <use xlink:href="#DejaVuSans-72" transform="translate(384.326172 0)"/>
      <use xlink:href="#DejaVuSans-79" transform="translate(425.439453 0)"/>
     </g>
    </g>
    <g id="patch_109">
     <path d="M 677.90875 49.54125 
L 693.90875 49.54125 
L 693.90875 43.94125 
L 677.90875 43.94125 
z
" style="fill: #f4a261; stroke: #000000; stroke-width: 0.2; stroke-linejoin: miter"/>
    </g>
    <g id="text_30">
     <!-- safety -->
     <g transform="translate(700.30875 49.54125) scale(0.08 -0.08)">
      <use xlink:href="#DejaVuSans-73"/>
      <use xlink:href="#DejaVuSans-61" transform="translate(52.099609 0)"/>
      <use xlink:href="#DejaVuSans-66" transform="translate(113.378906 0)"/>
      <use xlink:href="#DejaVuSans-65" transform="translate(148.583984 0)"/>
      <use xlink:href="#DejaVuSans-74" transform="translate(210.107422 0)"/>
      <use xlink:href="#DejaVuSans-79" transform="translate(249.316406 0)"/>
     </g>
    </g>
   </g>
  </g>
 </g>
 <defs>
  <clipPath id="p838fdc6ec9">
   <rect x="47.661139" y="24.52" width="698.618861" height="261.111935"/>
  </clipPath>
 </defs>
</svg>
