<svg xmlns="http://www.w3.org/2000/svg" width="768" height="403" viewBox="0 0 768 403">
<rect width="768" height="403" fill="#ffffff"/>
<text x="384.0" y="48" text-anchor="middle" font-family="Inter,Arial,sans-serif" font-size="13" font-weight="700" fill="#1e293b">N-diphenylmethyl hydrogenolysis</text>
<circle cx="74.0" cy="-2.5" r="24" fill="white" stroke="#1d4ed8" stroke-width="2.5"/><polygon points="65.0,-17.5 65.0,12.5 90.0,-2.5" fill="#1d4ed8"/><text x="74.0" y="43.5" text-anchor="middle" font-family="Inter,Arial,sans-serif" font-size="10" font-weight="700" fill="#1e293b">Pump A — Liquid feed …</text><text x="74.0" y="58.5" text-anchor="middle" font-family="Inter,Arial,sans-serif" font-size="9" font-weight="normal" fill="#475569">DMAOL (0.126 M, 1.0 equiv)</text><text x="74.0" y="73.5" text-anchor="middle" font-family="Inter,Arial,sans-serif" font-size="9" font-weight="normal" fill="#475569">methanol (solvent)</text><text x="74.0" y="88.5" text-anchor="middle" font-family="Inter,Arial,sans-serif" font-size="9" font-weight="normal" fill="#475569">in methanol</text>
<circle cx="74.0" cy="142.5" r="24" fill="white" stroke="#dc2626" stroke-width="2.5"/><polygon points="65.0,127.5 65.0,157.5 90.0,142.5" fill="#dc2626"/><text x="74.0" y="188.5" text-anchor="middle" font-family="Inter,Arial,sans-serif" font-size="10" font-weight="700" fill="#1e293b">MFC B — Gas feed via …</text><text x="74.0" y="203.5" text-anchor="middle" font-family="Inter,Arial,sans-serif" font-size="9" font-weight="normal" fill="#475569">H2 (gas)</text><text x="74.0" y="218.5" text-anchor="middle" font-family="Inter,Arial,sans-serif" font-size="9" font-weight="normal" fill="#475569">0.05614 mL/min</text>
<line x1="184.0" y1="128.0" x2="232.0" y2="128.0" stroke="#7c3aed" stroke-width="3" stroke-linecap="round"/><line x1="208.0" y1="106.0" x2="208.0" y2="128.0" stroke="#7c3aed" stroke-width="3" stroke-linecap="round"/><circle cx="208.0" cy="128.0" r="5" fill="#7c3aed"/><polygon points="184.0,123.0 184.0,133.0 195.0,128.0" fill="#7c3aed"/><polygon points="208.0,106.0 203.0,114.0 213.0,114.0" fill="#7c3aed"/><text x="208.0" y="174.0" text-anchor="middle" font-family="Inter,Arial,sans-serif" font-size="10" font-weight="700" fill="#1e293b">T-mixer | Hydrogen-se…</text><text x="208.0" y="189.0" text-anchor="middle" font-family="Inter,Arial,sans-serif" font-size="9" font-weight="normal" fill="#475569">T-mixer</text>
<rect x="299.0" y="103.0" width="66" height="50" rx="8" fill="#fffbeb" stroke="#d97706" stroke-width="2.5"/><path d="M 306.0,124.0 L 306.9,125.9 L 307.7,127.7 L 308.6,129.3 L 309.5,130.7 L 310.3,131.8 L 311.2,132.6 L 312.1,133.0 L 312.9,133.0 L 313.8,132.6 L 314.7,131.8 L 315.5,130.7 L 316.4,129.3 L 317.3,127.7 L 318.1,125.9 L 319.0,124.0 L 319.9,122.1 L 320.7,120.3 L 321.6,118.7 L 322.5,117.3 L 323.3,116.2 L 324.2,115.4 L 325.1,115.0 L 325.9,115.0 L 326.8,115.4 L 327.7,116.2 L 328.5,117.3 L 329.4,118.7 L 330.3,120.3 L 331.1,122.1 L 332.0,124.0 L 332.9,125.9 L 333.7,127.7 L 334.6,129.3 L 335.5,130.7 L 336.3,131.8 L 337.2,132.6 L 338.1,133.0 L 338.9,133.0 L 339.8,132.6 L 340.7,131.8 L 341.5,130.7 L 342.4,129.3 L 343.3,127.7 L 344.1,125.9 L 345.0,124.0 L 345.9,122.1 L 346.7,120.3 L 347.6,118.7 L 348.5,117.3 L 349.3,116.2 L 350.2,115.4 L 351.1,115.0 L 351.9,115.0 L 352.8,115.4 L 353.7,116.2 L 354.5,117.3 L 355.4,118.7 L 356.3,120.3 L 357.1,122.1 L 358.0,124.0" fill="none" stroke="#d97706" stroke-width="2.2" stroke-linecap="round"/><text x="332.0" y="174.0" text-anchor="middle" font-family="Inter,Arial,sans-serif" font-size="10" font-weight="700" fill="#1e293b">stainless steel Packe…</text><text x="332.0" y="189.0" text-anchor="middle" font-family="Inter,Arial,sans-serif" font-size="9" font-weight="normal" fill="#475569">stainless steel 4.35mm</text><text x="332.0" y="204.0" text-anchor="middle" font-family="Inter,Arial,sans-serif" font-size="9" font-weight="normal" fill="#475569">V=3.0mL</text><text x="332.0" y="219.0" text-anchor="middle" font-family="Inter,Arial,sans-serif" font-size="9" font-weight="normal" fill="#475569">T=60.0°C</text>
<polygon points="456.0,104.0 480.0,128.0 456.0,152.0 432.0,128.0" fill="white" stroke="#dc2626" stroke-width="2.5"/><text x="456.0" y="132.0" text-anchor="middle" font-family="Inter,Arial,sans-serif" font-size="8" font-weight="700" fill="#dc2626">P</text><text x="456.0" y="174.0" text-anchor="middle" font-family="Inter,Arial,sans-serif" font-size="10" font-weight="700" fill="#1e293b">BPR | Hydrogen-servic…</text><text x="456.0" y="189.0" text-anchor="middle" font-family="Inter,Arial,sans-serif" font-size="9" font-weight="normal" fill="#475569">21.0 bar</text>
<text x="580.0" y="174.0" text-anchor="middle" font-family="Inter,Arial,sans-serif" font-size="10" font-weight="700" fill="#1e293b">Phase Separator | Ven…</text>
<path d="M 697.5 104.0 L 710.5 104.0 L 726.0 117.44 Q 730.0 122.44 730.0 127.44 Q 730.0 152.0 722.0 152.0 L 686.0 152.0 Q 678.0 152.0 678.0 127.44 Q 678.0 122.44 682.0 117.44 L 697.5 104.0 Z" fill="#f0fdf4" stroke="#16a34a" stroke-width="2"/><line x1="693.5" y1="104.0" x2="714.5" y2="104.0" stroke="#16a34a" stroke-width="3" stroke-linecap="round"/><text x="704.0" y="174.0" text-anchor="middle" font-family="Inter,Arial,sans-serif" font-size="10" font-weight="700" fill="#1e293b">Product Collection | …</text><text x="704.0" y="189.0" text-anchor="middle" font-family="Inter,Arial,sans-serif" font-size="9" font-weight="normal" fill="#475569">Product</text>
<line x1="122.0" y1="-2.5" x2="122.0" y2="142.5" stroke="#475569" stroke-width="1.8"/>
<line x1="110.0" y1="-2.5" x2="122.0" y2="-2.5" stroke="#475569" stroke-width="1.5"/>
<line x1="110.0" y1="142.5" x2="122.0" y2="142.5" stroke="#475569" stroke-width="1.5"/>
<line x1="122.0" y1="70.0" x2="122.0" y2="128.0" stroke="#475569" stroke-width="1.5"/>
<line x1="122.0" y1="128.0" x2="166.0" y2="128.0" stroke="#475569" stroke-width="1.8"/><polygon points="165.0,124.0 172.0,128.0 165.0,132.0" fill="#475569"/>
<line x1="244.0" y1="128.0" x2="290.0" y2="128.0" stroke="#475569" stroke-width="1.8"/><polygon points="289.0,124.0 296.0,128.0 289.0,132.0" fill="#475569"/>
<line x1="368.0" y1="128.0" x2="414.0" y2="128.0" stroke="#475569" stroke-width="1.8"/><polygon points="413.0,124.0 420.0,128.0 413.0,132.0" fill="#475569"/>
<line x1="492.0" y1="128.0" x2="538.0" y2="128.0" stroke="#475569" stroke-width="1.8"/><polygon points="537.0,124.0 544.0,128.0 537.0,132.0" fill="#475569"/>
<line x1="616.0" y1="128.0" x2="662.0" y2="128.0" stroke="#475569" stroke-width="1.8"/><polygon points="661.0,124.0 668.0,128.0 661.0,132.0" fill="#475569"/>
<text x="384.0" y="389" text-anchor="middle" font-family="Inter,Arial,sans-serif" font-size="10" font-weight="normal" fill="#94a3b8">τ = 21.896212 min · Q = 0.137 mL/min · V = 3.0 mL</text>
</svg>