<?xml version="1.0" encoding="UTF-8" standalone="no"?>
<!DOCTYPE svg PUBLIC "-//W3C//DTD SVG 1.1//EN"
 "http://www.w3.org/Graphics/SVG/1.1/DTD/svg11.dtd">
<!-- Generated by graphviz version 14.1.2 (20260126.1125)
 -->
<!-- Pages: 1 -->
<svg width="2396pt" height="997pt"
 viewBox="0.00 0.00 2396.00 997.00" xmlns="http://www.w3.org/2000/svg" xmlns:xlink="http://www.w3.org/1999/xlink">
<g id="graph0" class="graph" transform="scale(2.5 2.5) rotate(0) translate(14.4 384.27)">
<polygon fill="white" stroke="none" points="-14.4,14.4 -14.4,-384.27 943.9,-384.27 943.9,14.4 -14.4,14.4"/>
<text xml:space="preserve" text-anchor="start" x="272.75" y="-354.52" font-family="Arial" font-weight="bold" font-size="13.00" fill="#111827">Synthetic hydroformylation of terminal alkene under syngas</text>
<!-- pump_a -->
<g id="node1" class="node">
<title>pump_a</title>
<image xlink:href="_pump_trimmed.png" width="108.982px" height="108px" preserveAspectRatio="xMinYMin meet" x="9.88409" y="-344.875"/>
<text xml:space="preserve" text-anchor="start" x="45.62" y="-225.38" font-family="Arial" font-weight="bold" font-size="10.00" fill="#111827">Pump A</text>
<text xml:space="preserve" text-anchor="start" x="1" y="-212.28" font-family="Arial" font-size="8.00" fill="#1e40af">terminal alkene, &#160;HRh, &#160;PPh3 ligand</text>
<text xml:space="preserve" text-anchor="start" x="51.25" y="-200.53" font-family="Arial" font-size="8.00" fill="#374151">toluene</text>
<text xml:space="preserve" text-anchor="start" x="38.5" y="-188.82" font-family="Arial" font-weight="bold" font-size="9.00" fill="#2563eb">0.42 mL/min</text>
</g>
<!-- mixer_1 -->
<g id="node3" class="node">
<title>mixer_1</title>
<image xlink:href="mixer2.png" width="110px" height="110px" preserveAspectRatio="xMinYMin meet" x="175.75" y="-251.875"/>
</g>
<!-- pump_a&#45;&gt;mixer_1 -->
<g id="edge1" class="edge">
<title>pump_a:e&#45;&gt;mixer_1:nw</title>
<path fill="none" stroke="#27408b" stroke-width="2" d="M132.75,-290.88C132.75,-290.88 157.96,-267.98 169.77,-257.25"/>
<polygon fill="#27408b" stroke="#27408b" stroke-width="2" points="170.73,-258.98 173.51,-253.86 168.14,-256.13 170.73,-258.98"/>
</g>
<!-- pump_g -->
<g id="node2" class="node">
<title>pump_g</title>
<image xlink:href="mfc.png" width="106px" height="106px" preserveAspectRatio="xMinYMin meet" x="11.375" y="-156.75"/>
<text xml:space="preserve" text-anchor="start" x="48.25" y="-38.25" font-family="Arial" font-weight="bold" font-size="10.00" fill="#111827">MFC G</text>
<text xml:space="preserve" text-anchor="start" x="52" y="-25.15" font-family="Arial" font-size="8.00" fill="#dc2626">CO/H2</text>
<text xml:space="preserve" text-anchor="start" x="44.5" y="-13.4" font-family="Arial" font-size="8.00" fill="#374151">11.38 sccm</text>
<text xml:space="preserve" text-anchor="start" x="31" y="-2.6" font-family="Arial" font-size="7.00" fill="#6b7280">1.354 mL/min reactor</text>
</g>
<!-- pump_g&#45;&gt;mixer_1 -->
<g id="edge2" class="edge">
<title>pump_g:e&#45;&gt;mixer_1:sw</title>
<path fill="none" stroke="#27408b" stroke-width="2" d="M124.38,-103.75C124.38,-103.75 155.74,-126.59 169.95,-136.94"/>
<polygon fill="#27408b" stroke="#27408b" stroke-width="2" points="168.78,-138.46 174.36,-140.15 171.04,-135.35 168.78,-138.46"/>
</g>
<!-- deoxy_1 -->
<g id="node4" class="node">
<title>deoxy_1</title>
<image xlink:href="degasser.png" width="104px" height="104px" preserveAspectRatio="xMinYMin meet" x="331.75" y="-257.125"/>
<text xml:space="preserve" text-anchor="start" x="363.88" y="-138.57" font-family="Arial" font-size="9.00" fill="#111827">Degasser</text>
</g>
<!-- mixer_1&#45;&gt;deoxy_1 -->
<g id="edge3" class="edge">
<title>mixer_1:e&#45;&gt;deoxy_1:w</title>
<path fill="none" stroke="#27408b" stroke-width="2" d="M285.75,-196.88C285.75,-196.88 307.96,-196.88 320.46,-196.88"/>
<polygon fill="#27408b" stroke="#27408b" stroke-width="2" points="320.22,-198.8 325.72,-196.88 320.22,-194.95 320.22,-198.8"/>
</g>
<!-- reactor_1 -->
<g id="node5" class="node">
<title>reactor_1</title>
<image xlink:href="coil_reactor.png" width="104px" height="104px" preserveAspectRatio="xMinYMin meet" x="500.625" y="-265.125"/>
<text xml:space="preserve" text-anchor="start" x="484.75" y="-146.57" font-family="Arial" font-size="9.00" fill="#111827">80.0°C &#160;· &#160;τ=16.7 min &#160;· &#160;V=7.1 mL</text>
</g>
<!-- deoxy_1&#45;&gt;reactor_1 -->
<g id="edge4" class="edge">
<title>deoxy_1:e&#45;&gt;reactor_1:w</title>
<path fill="none" stroke="#27408b" stroke-width="2" d="M438.75,-205.12C438.75,-205.12 460.96,-205 473.46,-204.92"/>
<polygon fill="#27408b" stroke="#27408b" stroke-width="2" points="473.23,-206.85 478.72,-204.89 473.21,-203 473.23,-206.85"/>
</g>
<!-- bpr_1 -->
<g id="node6" class="node">
<title>bpr_1</title>
<image xlink:href="bpr.png" width="104px" height="104px" preserveAspectRatio="xMinYMin meet" x="669.5" y="-281.375"/>
<text xml:space="preserve" text-anchor="start" x="712.12" y="-162.82" font-family="Arial" font-size="9.00" fill="#111827">BPR</text>
<text xml:space="preserve" text-anchor="start" x="706.12" y="-146.32" font-family="Arial" font-size="9.00" fill="#111827"> &#160;10 bar</text>
</g>
<!-- reactor_1&#45;&gt;bpr_1 -->
<g id="edge5" class="edge">
<title>reactor_1:e&#45;&gt;bpr_1:w</title>
<path fill="none" stroke="#27408b" stroke-width="2" d="M623.5,-213.12C623.5,-213.12 645.71,-213 658.21,-212.92"/>
<polygon fill="#27408b" stroke="#27408b" stroke-width="2" points="657.98,-214.85 663.47,-212.89 657.96,-211 657.98,-214.85"/>
</g>
<!-- collector_1 -->
<g id="node7" class="node">
<title>collector_1</title>
<image xlink:href="vial.png" width="104px" height="104px" preserveAspectRatio="xMinYMin meet" x="822.5" y="-289.125"/>
<text xml:space="preserve" text-anchor="start" x="837" y="-170.57" font-family="Arial" font-size="9.00" fill="#111827">Product Collection</text>
</g>
<!-- bpr_1&#45;&gt;collector_1 -->
<g id="edge6" class="edge">
<title>bpr_1:e&#45;&gt;collector_1:w</title>
<path fill="none" stroke="#27408b" stroke-width="2" d="M776.5,-229.38C776.5,-229.38 798.71,-229.12 811.21,-228.97"/>
<polygon fill="#27408b" stroke="#27408b" stroke-width="2" points="811,-230.9 816.47,-228.91 810.95,-227.05 811,-230.9"/>
</g>
</g>
</svg>
