<svg xmlns="http://www.w3.org/2000/svg" width="1016" height="578" viewBox="0 0 1016 578">
<rect width="1016" height="578" fill="#ffffff"/>
<text x="508.0" y="48" text-anchor="middle" font-family="Inter,Arial,sans-serif" font-size="13" font-weight="700" fill="#1e293b">One-pot photoredox Giese addition (C–C bond formation) followed by aer</text>
<circle cx="74.0" cy="150.0" r="24" fill="white" stroke="#1d4ed8" stroke-width="2.5"/><polygon points="65.0,135.0 65.0,165.0 90.0,150.0" fill="#1d4ed8"/><text x="74.0" y="196.0" text-anchor="middle" font-family="Inter,Arial,sans-serif" font-size="10" font-weight="700" fill="#1e293b">Pump A — Substrate an…</text><text x="74.0" y="211.0" text-anchor="middle" font-family="Inter,Arial,sans-serif" font-size="9" font-weight="normal" fill="#475569">PMPSCH2TMS (1a, 1.0 equiv…</text><text x="74.0" y="226.0" text-anchor="middle" font-family="Inter,Arial,sans-serif" font-size="9" font-weight="normal" fill="#475569">Ir(dF(CF3)ppy)2(dtbpy)PF6…</text><text x="74.0" y="241.0" text-anchor="middle" font-family="Inter,Arial,sans-serif" font-size="9" font-weight="normal" fill="#475569">in EtOH / pH 9 aqueous bu…</text>
<circle cx="74.0" cy="295.0" r="24" fill="white" stroke="#1d4ed8" stroke-width="2.5"/><polygon points="65.0,280.0 65.0,310.0 90.0,295.0" fill="#1d4ed8"/><text x="74.0" y="341.0" text-anchor="middle" font-family="Inter,Arial,sans-serif" font-size="10" font-weight="700" fill="#1e293b">Pump B — Michael acce…</text><text x="74.0" y="356.0" text-anchor="middle" font-family="Inter,Arial,sans-serif" font-size="9" font-weight="normal" fill="#475569">Acrylonitrile (2a, 2.0 eq…</text><text x="74.0" y="371.0" text-anchor="middle" font-family="Inter,Arial,sans-serif" font-size="9" font-weight="normal" fill="#475569">in EtOH / pH 9 aqueous bu…</text><text x="74.0" y="386.0" text-anchor="middle" font-family="Inter,Arial,sans-serif" font-size="9" font-weight="normal" fill="#475569">0.10322 mL/min</text>
<line x1="184.0" y1="288.0" x2="232.0" y2="288.0" stroke="#7c3aed" stroke-width="3" stroke-linecap="round"/><line x1="208.0" y1="266.0" x2="208.0" y2="288.0" stroke="#7c3aed" stroke-width="3" stroke-linecap="round"/><circle cx="208.0" cy="288.0" r="5" fill="#7c3aed"/><polygon points="184.0,283.0 184.0,293.0 195.0,288.0" fill="#7c3aed"/><polygon points="208.0,266.0 203.0,274.0 213.0,274.0" fill="#7c3aed"/><text x="208.0" y="334.0" text-anchor="middle" font-family="Inter,Arial,sans-serif" font-size="10" font-weight="700" fill="#1e293b">Mixer — Stage 1</text><text x="208.0" y="349.0" text-anchor="middle" font-family="Inter,Arial,sans-serif" font-size="9" font-weight="normal" fill="#475569">T-mixer</text>
<rect x="311.0" y="270.0" width="42" height="36" rx="6" fill="#ecfdf5" stroke="#059669" stroke-width="2"/><ellipse cx="332.0" cy="270.0" rx="21.0" ry="5" fill="#ecfdf5" stroke="#059669" stroke-width="2"/><line x1="320.0" y1="296.0" x2="320.0" y2="282.0" stroke="#059669" stroke-width="1.5"/><polygon points="316.0,284.0 324.0,284.0 320.0,278.0" fill="#059669"/><line x1="332.0" y1="296.0" x2="332.0" y2="282.0" stroke="#059669" stroke-width="1.5"/><polygon points="328.0,284.0 336.0,284.0 332.0,278.0" fill="#059669"/><line x1="344.0" y1="296.0" x2="344.0" y2="282.0" stroke="#059669" stroke-width="1.5"/><polygon points="340.0,284.0 348.0,284.0 344.0,278.0" fill="#059669"/><text x="332.0" y="334.0" text-anchor="middle" font-family="Inter,Arial,sans-serif" font-size="10" font-weight="700" fill="#1e293b">Degas — Stage 1</text><text x="332.0" y="349.0" text-anchor="middle" font-family="Inter,Arial,sans-serif" font-size="9" font-weight="normal" fill="#475569">N2 sparging</text>
<rect x="423.0" y="263.0" width="66" height="50" rx="8" fill="#fffbeb" stroke="#d97706" stroke-width="2.5"/><path d="M 430.0,284.0 L 430.9,285.9 L 431.7,287.7 L 432.6,289.3 L 433.5,290.7 L 434.3,291.8 L 435.2,292.6 L 436.1,293.0 L 436.9,293.0 L 437.8,292.6 L 438.7,291.8 L 439.5,290.7 L 440.4,289.3 L 441.3,287.7 L 442.1,285.9 L 443.0,284.0 L 443.9,282.1 L 444.7,280.3 L 445.6,278.7 L 446.5,277.3 L 447.3,276.2 L 448.2,275.4 L 449.1,275.0 L 449.9,275.0 L 450.8,275.4 L 451.7,276.2 L 452.5,277.3 L 453.4,278.7 L 454.3,280.3 L 455.1,282.1 L 456.0,284.0 L 456.9,285.9 L 457.7,287.7 L 458.6,289.3 L 459.5,290.7 L 460.3,291.8 L 461.2,292.6 L 462.1,293.0 L 462.9,293.0 L 463.8,292.6 L 464.7,291.8 L 465.5,290.7 L 466.4,289.3 L 467.3,287.7 L 468.1,285.9 L 469.0,284.0 L 469.9,282.1 L 470.7,280.3 L 471.6,278.7 L 472.5,277.3 L 473.3,276.2 L 474.2,275.4 L 475.1,275.0 L 475.9,275.0 L 476.8,275.4 L 477.7,276.2 L 478.5,277.3 L 479.4,278.7 L 480.3,280.3 L 481.1,282.1 L 482.0,284.0" fill="none" stroke="#d97706" stroke-width="2.2" stroke-linecap="round"/><text x="456.0" y="334.0" text-anchor="middle" font-family="Inter,Arial,sans-serif" font-size="10" font-weight="700" fill="#1e293b">PhotoCoil — Photoredo…</text><text x="456.0" y="349.0" text-anchor="middle" font-family="Inter,Arial,sans-serif" font-size="9" font-weight="normal" fill="#475569">FEP 1.5mm</text><text x="456.0" y="364.0" text-anchor="middle" font-family="Inter,Arial,sans-serif" font-size="9" font-weight="normal" fill="#475569">V=0.6852mL</text><text x="456.0" y="379.0" text-anchor="middle" font-family="Inter,Arial,sans-serif" font-size="9" font-weight="normal" fill="#475569">T=25.0°C</text>
<line x1="471.0" y1="223.0" x2="477.0" y2="223.0" stroke="#ca8a04" stroke-width="2" stroke-linecap="round"/><line x1="466.6" y1="233.6" x2="470.8" y2="237.8" stroke="#ca8a04" stroke-width="2" stroke-linecap="round"/><line x1="456.0" y1="238.0" x2="456.0" y2="244.0" stroke="#ca8a04" stroke-width="2" stroke-linecap="round"/><line x1="445.4" y1="233.6" x2="441.2" y2="237.8" stroke="#ca8a04" stroke-width="2" stroke-linecap="round"/><line x1="441.0" y1="223.0" x2="435.0" y2="223.0" stroke="#ca8a04" stroke-width="2" stroke-linecap="round"/><line x1="445.4" y1="212.4" x2="441.2" y2="208.2" stroke="#ca8a04" stroke-width="2" stroke-linecap="round"/><line x1="456.0" y1="208.0" x2="456.0" y2="202.0" stroke="#ca8a04" stroke-width="2" stroke-linecap="round"/><line x1="466.6" y1="212.4" x2="470.8" y2="208.2" stroke="#ca8a04" stroke-width="2" stroke-linecap="round"/><circle cx="456.0" cy="223.0" r="13" fill="#fef9c3" stroke="#ca8a04" stroke-width="2"/><text x="456.0" y="228.0" text-anchor="middle" font-family="Inter,Arial,sans-serif" font-size="8" font-weight="700" fill="#ca8a04">hν</text>
<text x="456.0" y="251.0" text-anchor="middle" font-family="Inter,Arial,sans-serif" font-size="8" font-weight="normal" fill="#475569">450.0nm</text>
<line x1="456.0" y1="243.0" x2="456.0" y2="258.0" stroke="#ca8a04" stroke-width="1.5" stroke-dasharray="4,3"/>
<line x1="556.0" y1="288.0" x2="604.0" y2="288.0" stroke="#7c3aed" stroke-width="3" stroke-linecap="round"/><line x1="580.0" y1="266.0" x2="580.0" y2="288.0" stroke="#7c3aed" stroke-width="3" stroke-linecap="round"/><circle cx="580.0" cy="288.0" r="5" fill="#7c3aed"/><polygon points="556.0,283.0 556.0,293.0 567.0,288.0" fill="#7c3aed"/><polygon points="580.0,266.0 575.0,274.0 585.0,274.0" fill="#7c3aed"/><text x="580.0" y="334.0" text-anchor="middle" font-family="Inter,Arial,sans-serif" font-size="10" font-weight="700" fill="#1e293b">Mixer — Stage 2</text><text x="580.0" y="349.0" text-anchor="middle" font-family="Inter,Arial,sans-serif" font-size="9" font-weight="normal" fill="#475569">T-mixer</text>
<rect x="671.0" y="263.0" width="66" height="50" rx="8" fill="#fffbeb" stroke="#d97706" stroke-width="2.5"/><path d="M 678.0,284.0 L 678.9,285.9 L 679.7,287.7 L 680.6,289.3 L 681.5,290.7 L 682.3,291.8 L 683.2,292.6 L 684.1,293.0 L 684.9,293.0 L 685.8,292.6 L 686.7,291.8 L 687.5,290.7 L 688.4,289.3 L 689.3,287.7 L 690.1,285.9 L 691.0,284.0 L 691.9,282.1 L 692.7,280.3 L 693.6,278.7 L 694.5,277.3 L 695.3,276.2 L 696.2,275.4 L 697.1,275.0 L 697.9,275.0 L 698.8,275.4 L 699.7,276.2 L 700.5,277.3 L 701.4,278.7 L 702.3,280.3 L 703.1,282.1 L 704.0,284.0 L 704.9,285.9 L 705.7,287.7 L 706.6,289.3 L 707.5,290.7 L 708.3,291.8 L 709.2,292.6 L 710.1,293.0 L 710.9,293.0 L 711.8,292.6 L 712.7,291.8 L 713.5,290.7 L 714.4,289.3 L 715.3,287.7 L 716.1,285.9 L 717.0,284.0 L 717.9,282.1 L 718.7,280.3 L 719.6,278.7 L 720.5,277.3 L 721.3,276.2 L 722.2,275.4 L 723.1,275.0 L 723.9,275.0 L 724.8,275.4 L 725.7,276.2 L 726.5,277.3 L 727.4,278.7 L 728.3,280.3 L 729.1,282.1 L 730.0,284.0" fill="none" stroke="#d97706" stroke-width="2.2" stroke-linecap="round"/><text x="704.0" y="334.0" text-anchor="middle" font-family="Inter,Arial,sans-serif" font-size="10" font-weight="700" fill="#1e293b">PhotoCoil — Aerobic p…</text><text x="704.0" y="349.0" text-anchor="middle" font-family="Inter,Arial,sans-serif" font-size="9" font-weight="normal" fill="#475569">FEP 1.5mm</text><text x="704.0" y="364.0" text-anchor="middle" font-family="Inter,Arial,sans-serif" font-size="9" font-weight="normal" fill="#475569">V=3.0455mL</text><text x="704.0" y="379.0" text-anchor="middle" font-family="Inter,Arial,sans-serif" font-size="9" font-weight="normal" fill="#475569">T=25.0°C</text>
<line x1="719.0" y1="223.0" x2="725.0" y2="223.0" stroke="#ca8a04" stroke-width="2" stroke-linecap="round"/><line x1="714.6" y1="233.6" x2="718.8" y2="237.8" stroke="#ca8a04" stroke-width="2" stroke-linecap="round"/><line x1="704.0" y1="238.0" x2="704.0" y2="244.0" stroke="#ca8a04" stroke-width="2" stroke-linecap="round"/><line x1="693.4" y1="233.6" x2="689.2" y2="237.8" stroke="#ca8a04" stroke-width="2" stroke-linecap="round"/><line x1="689.0" y1="223.0" x2="683.0" y2="223.0" stroke="#ca8a04" stroke-width="2" stroke-linecap="round"/><line x1="693.4" y1="212.4" x2="689.2" y2="208.2" stroke="#ca8a04" stroke-width="2" stroke-linecap="round"/><line x1="704.0" y1="208.0" x2="704.0" y2="202.0" stroke="#ca8a04" stroke-width="2" stroke-linecap="round"/><line x1="714.6" y1="212.4" x2="718.8" y2="208.2" stroke="#ca8a04" stroke-width="2" stroke-linecap="round"/><circle cx="704.0" cy="223.0" r="13" fill="#fef9c3" stroke="#ca8a04" stroke-width="2"/><text x="704.0" y="228.0" text-anchor="middle" font-family="Inter,Arial,sans-serif" font-size="8" font-weight="700" fill="#ca8a04">hν</text>
<text x="704.0" y="251.0" text-anchor="middle" font-family="Inter,Arial,sans-serif" font-size="8" font-weight="normal" fill="#475569">450.0nm</text>
<line x1="704.0" y1="243.0" x2="704.0" y2="258.0" stroke="#ca8a04" stroke-width="1.5" stroke-dasharray="4,3"/>
<polygon points="828.0,264.0 852.0,288.0 828.0,312.0 804.0,288.0" fill="white" stroke="#dc2626" stroke-width="2.5"/><text x="828.0" y="292.0" text-anchor="middle" font-family="Inter,Arial,sans-serif" font-size="8" font-weight="700" fill="#dc2626">P</text><text x="828.0" y="334.0" text-anchor="middle" font-family="Inter,Arial,sans-serif" font-size="10" font-weight="700" fill="#1e293b">BPR</text><text x="828.0" y="349.0" text-anchor="middle" font-family="Inter,Arial,sans-serif" font-size="9" font-weight="normal" fill="#475569">5.0 bar</text>
<path d="M 945.5 264.0 L 958.5 264.0 L 974.0 277.44 Q 978.0 282.44 978.0 287.44 Q 978.0 312.0 970.0 312.0 L 934.0 312.0 Q 926.0 312.0 926.0 287.44 Q 926.0 282.44 930.0 277.44 L 945.5 264.0 Z" fill="#f0fdf4" stroke="#16a34a" stroke-width="2"/><line x1="941.5" y1="264.0" x2="962.5" y2="264.0" stroke="#16a34a" stroke-width="3" stroke-linecap="round"/><text x="952.0" y="334.0" text-anchor="middle" font-family="Inter,Arial,sans-serif" font-size="10" font-weight="700" fill="#1e293b">Product Collection</text><text x="952.0" y="349.0" text-anchor="middle" font-family="Inter,Arial,sans-serif" font-size="9" font-weight="normal" fill="#475569">Product</text>
<circle cx="580.0" cy="140.0" r="24" fill="white" stroke="#dc2626" stroke-width="2.5"/><polygon points="571.0,125.0 571.0,155.0 596.0,140.0" fill="#dc2626"/><text x="580.0" y="186.0" text-anchor="middle" font-family="Inter,Arial,sans-serif" font-size="10" font-weight="700" fill="#1e293b">MFC C — Air introduce…</text><text x="580.0" y="201.0" text-anchor="middle" font-family="Inter,Arial,sans-serif" font-size="9" font-weight="normal" fill="#475569">Air (O2 source, ~21% O2)</text><text x="580.0" y="216.0" text-anchor="middle" font-family="Inter,Arial,sans-serif" font-size="9" font-weight="normal" fill="#475569">in EtOH / pH 9 aqueous bu…</text>
<line x1="580.0" y1="226.0" x2="580.0" y2="253.0" stroke="#475569" stroke-width="1.5" stroke-dasharray="4,3"/><polygon points="576.0,252.0 580.0,258.0 584.0,252.0" fill="#475569"/>
<line x1="122.0" y1="185.5" x2="122.0" y2="330.5" stroke="#475569" stroke-width="1.8"/>
<line x1="110.0" y1="185.5" x2="122.0" y2="185.5" stroke="#475569" stroke-width="1.5"/>
<line x1="110.0" y1="330.5" x2="122.0" y2="330.5" stroke="#475569" stroke-width="1.5"/>
<line x1="122.0" y1="258.0" x2="122.0" y2="323.5" stroke="#475569" stroke-width="1.5"/>
<line x1="122.0" y1="323.5" x2="166.0" y2="323.5" stroke="#475569" stroke-width="1.8"/><polygon points="165.0,319.5 172.0,323.5 165.0,327.5" fill="#475569"/>
<line x1="244.0" y1="323.5" x2="290.0" y2="323.5" stroke="#475569" stroke-width="1.8"/><polygon points="289.0,319.5 296.0,323.5 289.0,327.5" fill="#475569"/>
<line x1="368.0" y1="323.5" x2="414.0" y2="323.5" stroke="#475569" stroke-width="1.8"/><polygon points="413.0,319.5 420.0,323.5 413.0,327.5" fill="#475569"/>
<line x1="492.0" y1="323.5" x2="538.0" y2="323.5" stroke="#475569" stroke-width="1.8"/><polygon points="537.0,319.5 544.0,323.5 537.0,327.5" fill="#475569"/>
<line x1="616.0" y1="323.5" x2="662.0" y2="323.5" stroke="#475569" stroke-width="1.8"/><polygon points="661.0,319.5 668.0,323.5 661.0,327.5" fill="#475569"/>
<line x1="740.0" y1="323.5" x2="786.0" y2="323.5" stroke="#475569" stroke-width="1.8"/><polygon points="785.0,319.5 792.0,323.5 785.0,327.5" fill="#475569"/>
<line x1="864.0" y1="323.5" x2="910.0" y2="323.5" stroke="#475569" stroke-width="1.8"/><polygon points="909.0,319.5 916.0,323.5 909.0,327.5" fill="#475569"/>
<text x="508.0" y="564" text-anchor="middle" font-family="Inter,Arial,sans-serif" font-size="10" font-weight="normal" fill="#94a3b8">τ = 8.3 min · Q = 0.2064 mL/min · V = 3.7307 mL</text>
</svg>