<?xml version="1.0" encoding="UTF-8" standalone="no"?>
<!DOCTYPE svg PUBLIC "-//W3C//DTD SVG 1.1//EN"
 "http://www.w3.org/Graphics/SVG/1.1/DTD/svg11.dtd">
<!-- Generated by graphviz version 14.1.2 (20260126.1125)
 -->
<!-- Pages: 1 -->
<svg width="2498pt" height="1132pt"
 viewBox="0.00 0.00 2498.00 1132.00" xmlns="http://www.w3.org/2000/svg" xmlns:xlink="http://www.w3.org/1999/xlink">
<g id="graph0" class="graph" transform="scale(2.5 2.5) rotate(0) translate(14.4 438.4)">
<polygon fill="white" stroke="none" points="-14.4,14.4 -14.4,-438.4 984.65,-438.4 984.65,14.4 -14.4,14.4"/>
<text xml:space="preserve" text-anchor="start" x="328.38" y="-408.65" font-family="Arial" font-weight="bold" font-size="13.00" fill="#111827">Synthetic cold ozonolysis of electron&#45;rich alkene</text>
<!-- pump_a -->
<g id="node1" class="node">
<title>pump_a</title>
<image xlink:href="_pump_trimmed.png" width="108.982px" height="108px" preserveAspectRatio="xMinYMin meet" x="26.7591" y="-399"/>
<text xml:space="preserve" text-anchor="start" x="62.5" y="-279.5" font-family="Arial" font-weight="bold" font-size="10.00" fill="#111827">Pump A</text>
<text xml:space="preserve" text-anchor="start" x="1" y="-266.4" font-family="Arial" font-size="8.00" fill="#1e40af">alkene substrate, &#160;MeOH/DCM 1:1 solvent …</text>
<text xml:space="preserve" text-anchor="start" x="52.38" y="-254.65" font-family="Arial" font-size="8.00" fill="#374151">MeOH/DCM 1:1</text>
<text xml:space="preserve" text-anchor="start" x="55.38" y="-242.95" font-family="Arial" font-weight="bold" font-size="9.00" fill="#2563eb">1.33 mL/min</text>
</g>
<!-- mixer_1 -->
<g id="node3" class="node">
<title>mixer_1</title>
<image xlink:href="mixer2.png" width="110px" height="110px" preserveAspectRatio="xMinYMin meet" x="209.5" y="-306"/>
</g>
<!-- pump_a&#45;&gt;mixer_1 -->
<g id="edge1" class="edge">
<title>pump_a:e&#45;&gt;mixer_1:nw</title>
<path fill="none" stroke="#27408b" stroke-width="2" d="M166.5,-345C166.5,-345 191.71,-322.11 203.52,-311.38"/>
<polygon fill="#27408b" stroke="#27408b" stroke-width="2" points="204.48,-313.11 207.26,-307.98 201.89,-310.26 204.48,-313.11"/>
</g>
<!-- pump_g -->
<g id="node2" class="node">
<title>pump_g</title>
<image xlink:href="mfc.png" width="106px" height="106px" preserveAspectRatio="xMinYMin meet" x="28.25" y="-210.875"/>
<text xml:space="preserve" text-anchor="start" x="65.12" y="-92.38" font-family="Arial" font-weight="bold" font-size="10.00" fill="#111827">MFC G</text>
<text xml:space="preserve" text-anchor="start" x="52.38" y="-79.28" font-family="Arial" font-size="8.00" fill="#dc2626">ozone in oxygen</text>
<text xml:space="preserve" text-anchor="start" x="63.25" y="-67.53" font-family="Arial" font-size="8.00" fill="#374151">8.96 sccm</text>
<text xml:space="preserve" text-anchor="start" x="47.88" y="-56.73" font-family="Arial" font-size="7.00" fill="#6b7280">0.967 mL/min reactor</text>
</g>
<!-- pump_g&#45;&gt;mixer_1 -->
<g id="edge2" class="edge">
<title>pump_g:e&#45;&gt;mixer_1:sw</title>
<path fill="none" stroke="#27408b" stroke-width="2" d="M141.25,-157.88C141.25,-157.88 185.26,-182.12 203.14,-191.97"/>
<polygon fill="#27408b" stroke="#27408b" stroke-width="2" points="202.15,-193.62 207.9,-194.59 204.01,-190.25 202.15,-193.62"/>
</g>
<!-- reactor_1 -->
<g id="node4" class="node">
<title>reactor_1</title>
<image xlink:href="coil_reactor.png" width="104px" height="104px" preserveAspectRatio="xMinYMin meet" x="382.875" y="-311.25"/>
<text xml:space="preserve" text-anchor="start" x="365.5" y="-192.7" font-family="Arial" font-size="9.00" fill="#111827">&#45;40.0°C &#160;· &#160;τ=8.4 min &#160;· &#160;V=17.7 mL</text>
</g>
<!-- mixer_1&#45;&gt;reactor_1 -->
<g id="edge3" class="edge">
<title>mixer_1:e&#45;&gt;reactor_1:w</title>
<path fill="none" stroke="#27408b" stroke-width="2" d="M319.5,-251C319.5,-251 341.71,-251 354.21,-251"/>
<polygon fill="#27408b" stroke="#27408b" stroke-width="2" points="353.97,-252.93 359.47,-251 353.97,-249.08 353.97,-252.93"/>
</g>
<!-- bpr_1 -->
<g id="node5" class="node">
<title>bpr_1</title>
<image xlink:href="bpr.png" width="104px" height="104px" preserveAspectRatio="xMinYMin meet" x="555.25" y="-327.5"/>
<text xml:space="preserve" text-anchor="start" x="597.88" y="-208.95" font-family="Arial" font-size="9.00" fill="#111827">BPR</text>
<text xml:space="preserve" text-anchor="start" x="591.88" y="-192.45" font-family="Arial" font-size="9.00" fill="#111827"> &#160;66 bar</text>
</g>
<!-- reactor_1&#45;&gt;bpr_1 -->
<g id="edge4" class="edge">
<title>reactor_1:e&#45;&gt;bpr_1:w</title>
<path fill="none" stroke="#27408b" stroke-width="2" d="M507.25,-259.25C507.25,-259.25 530.08,-259.12 542.92,-259.05"/>
<polygon fill="#27408b" stroke="#27408b" stroke-width="2" points="542.93,-260.97 548.42,-259.02 542.91,-257.12 542.93,-260.97"/>
</g>
<!-- quench_mixer -->
<g id="node7" class="node">
<title>quench_mixer</title>
<image xlink:href="mixer2.png" width="110px" height="110px" preserveAspectRatio="xMinYMin meet" x="707.25" y="-245"/>
</g>
<!-- bpr_1&#45;&gt;quench_mixer -->
<g id="edge5" class="edge">
<title>bpr_1:e&#45;&gt;quench_mixer:nw</title>
<path fill="none" stroke="#27408b" stroke-width="2" d="M663.25,-275.5C663.25,-275.5 688,-258.31 700.38,-249.72"/>
<polygon fill="#27408b" stroke="#27408b" stroke-width="2" points="701.34,-251.39 704.76,-246.67 699.15,-248.23 701.34,-251.39"/>
</g>
<!-- pump_q -->
<g id="node6" class="node">
<title>pump_q</title>
<image xlink:href="_pump_trimmed.png" width="106px" height="105.045px" preserveAspectRatio="xMinYMin meet" x="552.25" y="-158.523"/>
<text xml:space="preserve" text-anchor="start" x="586.12" y="-40.5" font-family="Arial" font-weight="bold" font-size="10.00" fill="#111827">Pump Q</text>
<text xml:space="preserve" text-anchor="start" x="578.25" y="-27.4" font-family="Arial" font-size="8.00" fill="#1e40af">dimethyl sulfide</text>
<text xml:space="preserve" text-anchor="start" x="576.38" y="-15.65" font-family="Arial" font-size="8.00" fill="#374151">MeOH/DCM 1:1</text>
<text xml:space="preserve" text-anchor="start" x="579.38" y="-3.95" font-family="Arial" font-weight="bold" font-size="9.00" fill="#2563eb">0.16 mL/min</text>
</g>
<!-- pump_q&#45;&gt;quench_mixer -->
<g id="edge6" class="edge">
<title>pump_q:e&#45;&gt;quench_mixer:sw</title>
<path fill="none" stroke="#27408b" stroke-width="2" d="M664.25,-106C664.25,-106 689.03,-122.34 701.42,-130.51"/>
<polygon fill="#27408b" stroke="#27408b" stroke-width="2" points="700.12,-131.96 705.78,-133.39 702.24,-128.75 700.12,-131.96"/>
</g>
<!-- collector_1 -->
<g id="node8" class="node">
<title>collector_1</title>
<image xlink:href="vial.png" width="104px" height="104px" preserveAspectRatio="xMinYMin meet" x="863.25" y="-250.25"/>
<text xml:space="preserve" text-anchor="start" x="877.75" y="-131.7" font-family="Arial" font-size="9.00" fill="#111827">Product Collection</text>
</g>
<!-- quench_mixer&#45;&gt;collector_1 -->
<g id="edge7" class="edge">
<title>quench_mixer:e&#45;&gt;collector_1:w</title>
<path fill="none" stroke="#27408b" stroke-width="2" d="M817.25,-190C817.25,-190 839.46,-190 851.96,-190"/>
<polygon fill="#27408b" stroke="#27408b" stroke-width="2" points="851.72,-191.93 857.22,-190 851.72,-188.08 851.72,-191.93"/>
</g>
</g>
</svg>
