<?xml version="1.0" encoding="UTF-8" standalone="no"?>
<!DOCTYPE svg PUBLIC "-//W3C//DTD SVG 1.1//EN"
 "http://www.w3.org/Graphics/SVG/1.1/DTD/svg11.dtd">
<!-- Generated by graphviz version 14.1.2 (20260126.1125)
 -->
<!-- Pages: 1 -->
<svg width="1953pt" height="997pt"
 viewBox="0.00 0.00 1953.00 997.00" xmlns="http://www.w3.org/2000/svg" xmlns:xlink="http://www.w3.org/1999/xlink">
<g id="graph0" class="graph" transform="scale(2.5 2.5) rotate(0) translate(14.4 384.27)">
<polygon fill="white" stroke="none" points="-14.4,14.4 -14.4,-384.27 766.9,-384.27 766.9,14.4 -14.4,14.4"/>
<text xml:space="preserve" text-anchor="start" x="184.25" y="-354.52" font-family="Arial" font-weight="bold" font-size="13.00" fill="#111827">Synthetic continuous hydrogenation of nitroarene to aniline</text>
<!-- pump_a -->
<g id="node1" class="node">
<title>pump_a</title>
<image xlink:href="_pump_trimmed.png" width="106px" height="105.045px" preserveAspectRatio="xMinYMin meet" x="2" y="-343.398"/>
<text xml:space="preserve" text-anchor="start" x="36.25" y="-225.38" font-family="Arial" font-weight="bold" font-size="10.00" fill="#111827">Pump A</text>
<text xml:space="preserve" text-anchor="start" x="20.12" y="-212.28" font-family="Arial" font-size="8.00" fill="#1e40af">nitroarene, &#160;ethanol</text>
<text xml:space="preserve" text-anchor="start" x="41.88" y="-200.53" font-family="Arial" font-size="8.00" fill="#374151">ethanol</text>
<text xml:space="preserve" text-anchor="start" x="29.12" y="-188.82" font-family="Arial" font-weight="bold" font-size="9.00" fill="#2563eb">0.77 mL/min</text>
</g>
<!-- mixer_1 -->
<g id="node3" class="node">
<title>mixer_1</title>
<image xlink:href="mixer2.png" width="110px" height="110px" preserveAspectRatio="xMinYMin meet" x="157" y="-251.875"/>
</g>
<!-- pump_a&#45;&gt;mixer_1 -->
<g id="edge1" class="edge">
<title>pump_a:e&#45;&gt;mixer_1:nw</title>
<path fill="none" stroke="#27408b" stroke-width="2" d="M114,-290.88C114,-290.88 139.21,-267.98 151.02,-257.25"/>
<polygon fill="#27408b" stroke="#27408b" stroke-width="2" points="151.98,-258.98 154.76,-253.86 149.39,-256.13 151.98,-258.98"/>
</g>
<!-- pump_b -->
<g id="node2" class="node">
<title>pump_b</title>
<image xlink:href="mfc.png" width="106px" height="106px" preserveAspectRatio="xMinYMin meet" x="2" y="-156.75"/>
<text xml:space="preserve" text-anchor="start" x="38.88" y="-38.25" font-family="Arial" font-weight="bold" font-size="10.00" fill="#111827">MFC B</text>
<text xml:space="preserve" text-anchor="start" x="30.62" y="-25.15" font-family="Arial" font-size="8.00" fill="#dc2626">hydrogen gas</text>
<text xml:space="preserve" text-anchor="start" x="34.75" y="-13.4" font-family="Arial" font-size="8.00" fill="#374151">20.66 sccm</text>
<text xml:space="preserve" text-anchor="start" x="21.62" y="-2.6" font-family="Arial" font-size="7.00" fill="#6b7280">2.852 mL/min reactor</text>
</g>
<!-- pump_b&#45;&gt;mixer_1 -->
<g id="edge2" class="edge">
<title>pump_b:e&#45;&gt;mixer_1:sw</title>
<path fill="none" stroke="#27408b" stroke-width="2" d="M114,-103.75C114,-103.75 139.82,-126.13 151.93,-136.62"/>
<polygon fill="#27408b" stroke="#27408b" stroke-width="2" points="150.35,-137.8 155.76,-139.94 152.87,-134.89 150.35,-137.8"/>
</g>
<!-- reactor_1 -->
<g id="node4" class="node">
<title>reactor_1</title>
<image xlink:href="coil_reactor.png" width="104px" height="104px" preserveAspectRatio="xMinYMin meet" x="326.25" y="-257.125"/>
<text xml:space="preserve" text-anchor="start" x="313" y="-138.57" font-family="Arial" font-size="9.00" fill="#111827">25.0°C &#160;· &#160;τ=4.6 min &#160;· &#160;V=7.1 mL</text>
</g>
<!-- mixer_1&#45;&gt;reactor_1 -->
<g id="edge3" class="edge">
<title>mixer_1:e&#45;&gt;reactor_1:w</title>
<path fill="none" stroke="#27408b" stroke-width="2" d="M267,-196.88C267,-196.88 289.21,-196.88 301.71,-196.88"/>
<polygon fill="#27408b" stroke="#27408b" stroke-width="2" points="301.47,-198.8 306.97,-196.88 301.47,-194.95 301.47,-198.8"/>
</g>
<!-- bpr_1 -->
<g id="node5" class="node">
<title>bpr_1</title>
<image xlink:href="bpr.png" width="104px" height="104px" preserveAspectRatio="xMinYMin meet" x="492.5" y="-273.375"/>
<text xml:space="preserve" text-anchor="start" x="535.12" y="-154.82" font-family="Arial" font-size="9.00" fill="#111827">BPR</text>
<text xml:space="preserve" text-anchor="start" x="526.5" y="-138.32" font-family="Arial" font-size="9.00" fill="#111827"> &#160;196 bar</text>
</g>
<!-- reactor_1&#45;&gt;bpr_1 -->
<g id="edge4" class="edge">
<title>reactor_1:e&#45;&gt;bpr_1:w</title>
<path fill="none" stroke="#27408b" stroke-width="2" d="M446.5,-205.12C446.5,-205.12 468.71,-205 481.21,-204.92"/>
<polygon fill="#27408b" stroke="#27408b" stroke-width="2" points="480.98,-206.85 486.47,-204.89 480.96,-203 480.98,-206.85"/>
</g>
<!-- collector_1 -->
<g id="node6" class="node">
<title>collector_1</title>
<image xlink:href="vial.png" width="104px" height="104px" preserveAspectRatio="xMinYMin meet" x="645.5" y="-281.125"/>
<text xml:space="preserve" text-anchor="start" x="660" y="-162.57" font-family="Arial" font-size="9.00" fill="#111827">Product Collection</text>
</g>
<!-- bpr_1&#45;&gt;collector_1 -->
<g id="edge5" class="edge">
<title>bpr_1:e&#45;&gt;collector_1:w</title>
<path fill="none" stroke="#27408b" stroke-width="2" d="M599.5,-221.38C599.5,-221.38 621.71,-221.12 634.21,-220.97"/>
<polygon fill="#27408b" stroke="#27408b" stroke-width="2" points="634,-222.9 639.47,-220.91 633.95,-219.05 634,-222.9"/>
</g>
</g>
</svg>
