<svg xmlns="http://www.w3.org/2000/svg" width="644" height="488" viewBox="0 0 644 488">
<rect width="644" height="488" fill="#ffffff"/>
<text x="322.0" y="48" text-anchor="middle" font-family="Inter,Arial,sans-serif" font-size="13" font-weight="700" fill="#1e293b">REQUIREMENTS TOPOLOGY - NOT EXECUTABLE</text>
<circle cx="74.0" cy="-60.0" r="24" fill="white" stroke="#1d4ed8" stroke-width="2.5"/><polygon points="65.0,-75.0 65.0,-45.0 90.0,-60.0" fill="#1d4ed8"/><text x="74.0" y="-14.0" text-anchor="middle" font-family="Inter,Arial,sans-serif" font-size="10" font-weight="700" fill="#1e293b">Stage 1 liquid feed 1…</text><text x="74.0" y="1.0" text-anchor="middle" font-family="Inter,Arial,sans-serif" font-size="9" font-weight="normal" fill="#475569">N-diphenylmethylazetidin-…</text><text x="74.0" y="16.0" text-anchor="middle" font-family="Inter,Arial,sans-serif" font-size="9" font-weight="normal" fill="#475569">methanol (solvent)</text>
<circle cx="74.0" cy="70.0" r="24" fill="white" stroke="#dc2626" stroke-width="2.5"/><polygon points="65.0,55.0 65.0,85.0 90.0,70.0" fill="#dc2626"/><text x="74.0" y="116.0" text-anchor="middle" font-family="Inter,Arial,sans-serif" font-size="10" font-weight="700" fill="#1e293b">Stage 1 gas feed</text><text x="74.0" y="131.0" text-anchor="middle" font-family="Inter,Arial,sans-serif" font-size="9" font-weight="normal" fill="#475569">hydrogen (3.54 equiv rela…</text>
<circle cx="74.0" cy="185.0" r="24" fill="white" stroke="#1d4ed8" stroke-width="2.5"/><polygon points="65.0,170.0 65.0,200.0 90.0,185.0" fill="#1d4ed8"/><text x="74.0" y="231.0" text-anchor="middle" font-family="Inter,Arial,sans-serif" font-size="10" font-weight="700" fill="#1e293b">Stage 1 liquid feed 3…</text><text x="74.0" y="246.0" text-anchor="middle" font-family="Inter,Arial,sans-serif" font-size="9" font-weight="normal" fill="#475569">palladium hydroxide on al…</text>
<line x1="184.0" y1="113.0" x2="232.0" y2="113.0" stroke="#7c3aed" stroke-width="3" stroke-linecap="round"/><line x1="208.0" y1="91.0" x2="208.0" y2="113.0" stroke="#7c3aed" stroke-width="3" stroke-linecap="round"/><circle cx="208.0" cy="113.0" r="5" fill="#7c3aed"/><polygon points="184.0,108.0 184.0,118.0 195.0,113.0" fill="#7c3aed"/><polygon points="208.0,91.0 203.0,99.0 213.0,99.0" fill="#7c3aed"/><text x="208.0" y="159.0" text-anchor="middle" font-family="Inter,Arial,sans-serif" font-size="10" font-weight="700" fill="#1e293b">Stage 1 mixer</text>
<rect x="299.0" y="88.0" width="66" height="50" rx="8" fill="#fffbeb" stroke="#d97706" stroke-width="2.5"/><path d="M 306.0,109.0 L 306.9,110.9 L 307.7,112.7 L 308.6,114.3 L 309.5,115.7 L 310.3,116.8 L 311.2,117.6 L 312.1,118.0 L 312.9,118.0 L 313.8,117.6 L 314.7,116.8 L 315.5,115.7 L 316.4,114.3 L 317.3,112.7 L 318.1,110.9 L 319.0,109.0 L 319.9,107.1 L 320.7,105.3 L 321.6,103.7 L 322.5,102.3 L 323.3,101.2 L 324.2,100.4 L 325.1,100.0 L 325.9,100.0 L 326.8,100.4 L 327.7,101.2 L 328.5,102.3 L 329.4,103.7 L 330.3,105.3 L 331.1,107.1 L 332.0,109.0 L 332.9,110.9 L 333.7,112.7 L 334.6,114.3 L 335.5,115.7 L 336.3,116.8 L 337.2,117.6 L 338.1,118.0 L 338.9,118.0 L 339.8,117.6 L 340.7,116.8 L 341.5,115.7 L 342.4,114.3 L 343.3,112.7 L 344.1,110.9 L 345.0,109.0 L 345.9,107.1 L 346.7,105.3 L 347.6,103.7 L 348.5,102.3 L 349.3,101.2 L 350.2,100.4 L 351.1,100.0 L 351.9,100.0 L 352.8,100.4 L 353.7,101.2 L 354.5,102.3 L 355.4,103.7 L 356.3,105.3 L 357.1,107.1 L 358.0,109.0" fill="none" stroke="#d97706" stroke-width="2.2" stroke-linecap="round"/><text x="332.0" y="159.0" text-anchor="middle" font-family="Inter,Arial,sans-serif" font-size="10" font-weight="700" fill="#1e293b">Stage 1: N-diphenylme…</text>
<polygon points="456.0,89.0 480.0,113.0 456.0,137.0 432.0,113.0" fill="white" stroke="#dc2626" stroke-width="2.5"/><text x="456.0" y="117.0" text-anchor="middle" font-family="Inter,Arial,sans-serif" font-size="8" font-weight="700" fill="#dc2626">P</text><text x="456.0" y="159.0" text-anchor="middle" font-family="Inter,Arial,sans-serif" font-size="10" font-weight="700" fill="#1e293b">Pressure control</text>
<path d="M 573.5 89.0 L 586.5 89.0 L 602.0 102.44 Q 606.0 107.44 606.0 112.44 Q 606.0 137.0 598.0 137.0 L 562.0 137.0 Q 554.0 137.0 554.0 112.44 Q 554.0 107.44 558.0 102.44 L 573.5 89.0 Z" fill="#f0fdf4" stroke="#16a34a" stroke-width="2"/><line x1="569.5" y1="89.0" x2="590.5" y2="89.0" stroke="#16a34a" stroke-width="3" stroke-linecap="round"/><text x="580.0" y="159.0" text-anchor="middle" font-family="Inter,Arial,sans-serif" font-size="10" font-weight="700" fill="#1e293b">Collection</text><text x="580.0" y="174.0" text-anchor="middle" font-family="Inter,Arial,sans-serif" font-size="9" font-weight="normal" fill="#475569">Product</text>
<line x1="122.0" y1="-60.0" x2="122.0" y2="185.0" stroke="#475569" stroke-width="1.8"/>
<line x1="110.0" y1="-60.0" x2="122.0" y2="-60.0" stroke="#475569" stroke-width="1.5"/>
<line x1="110.0" y1="70.0" x2="122.0" y2="70.0" stroke="#475569" stroke-width="1.5"/>
<line x1="110.0" y1="185.0" x2="122.0" y2="185.0" stroke="#475569" stroke-width="1.5"/>
<line x1="122.0" y1="62.5" x2="122.0" y2="113.0" stroke="#475569" stroke-width="1.5"/>
<line x1="122.0" y1="113.0" x2="166.0" y2="113.0" stroke="#475569" stroke-width="1.8"/><polygon points="165.0,109.0 172.0,113.0 165.0,117.0" fill="#475569"/>
<line x1="244.0" y1="113.0" x2="290.0" y2="113.0" stroke="#475569" stroke-width="1.8"/><polygon points="289.0,109.0 296.0,113.0 289.0,117.0" fill="#475569"/>
<line x1="368.0" y1="113.0" x2="414.0" y2="113.0" stroke="#475569" stroke-width="1.8"/><polygon points="413.0,109.0 420.0,113.0 413.0,117.0" fill="#475569"/>
<line x1="492.0" y1="113.0" x2="538.0" y2="113.0" stroke="#475569" stroke-width="1.8"/><polygon points="537.0,109.0 544.0,113.0 537.0,117.0" fill="#475569"/>
</svg>