<?xml version="1.0" encoding="UTF-8" standalone="no"?>
<!DOCTYPE svg PUBLIC "-//W3C//DTD SVG 1.1//EN"
 "http://www.w3.org/Graphics/SVG/1.1/DTD/svg11.dtd">
<!-- Generated by graphviz version 14.1.2 (20260126.1125)
 -->
<!-- Pages: 1 -->
<svg width="2156pt" height="942pt"
 viewBox="0.00 0.00 2156.00 942.00" xmlns="http://www.w3.org/2000/svg" xmlns:xlink="http://www.w3.org/1999/xlink">
<g id="graph0" class="graph" transform="scale(2.5 2.5) rotate(0) translate(14.4 362.27)">
<polygon fill="white" stroke="none" points="-14.4,14.4 -14.4,-362.27 847.9,-362.27 847.9,14.4 -14.4,14.4"/>
<text xml:space="preserve" text-anchor="start" x="231.12" y="-332.52" font-family="Arial" font-weight="bold" font-size="13.00" fill="#111827">KHU inventory&#45;backed gas&#45;liquid photochemical topology</text>
<!-- pump_a -->
<g id="node1" class="node">
<title>pump_a</title>
<image xlink:href="_pump_trimmed.png" width="108.982px" height="108px" preserveAspectRatio="xMinYMin meet" x="25.6341" y="-322.875"/>
<text xml:space="preserve" text-anchor="start" x="6.62" y="-203.38" font-family="Arial" font-weight="bold" font-size="10.00" fill="#111827">Vapourtec SF&#45;10 E&#45;series peri…</text>
<text xml:space="preserve" text-anchor="start" x="48.25" y="-190.28" font-family="Arial" font-size="8.00" fill="#1e40af">Substrate solution</text>
<text xml:space="preserve" text-anchor="start" x="54.25" y="-178.57" font-family="Arial" font-weight="bold" font-size="9.00" fill="#2563eb">0.05 mL/min</text>
</g>
<!-- mixer_1 -->
<g id="node3" class="node">
<title>mixer_1</title>
<image xlink:href="mixer2.png" width="110px" height="110px" preserveAspectRatio="xMinYMin meet" x="207.25" y="-241"/>
<text xml:space="preserve" text-anchor="start" x="226.62" y="-122.45" font-family="Arial" font-size="9.00" fill="#111827">KHU PFA T&#45;mixer</text>
</g>
<!-- pump_a&#45;&gt;mixer_1 -->
<g id="edge1" class="edge">
<title>pump_a:e&#45;&gt;mixer_1:nw</title>
<path fill="none" stroke="#27408b" stroke-width="2" d="M159.62,-268.88C159.62,-268.88 187.54,-249.45 200.63,-240.35"/>
<polygon fill="#27408b" stroke="#27408b" stroke-width="2" points="201.35,-242.19 204.77,-237.47 199.15,-239.03 201.35,-242.19"/>
</g>
<!-- mfc_o2 -->
<g id="node2" class="node">
<title>mfc_o2</title>
<image xlink:href="mfc.png" width="108px" height="108px" preserveAspectRatio="xMinYMin meet" x="26.125" y="-147.5"/>
<text xml:space="preserve" text-anchor="start" x="1" y="-28" font-family="Arial" font-weight="bold" font-size="10.00" fill="#111827">KHU oxygen mass&#45;flow controll…</text>
<text xml:space="preserve" text-anchor="start" x="74.88" y="-14.9" font-family="Arial" font-size="8.00" fill="#dc2626">O2</text>
<text xml:space="preserve" text-anchor="start" x="62.12" y="-3.15" font-family="Arial" font-size="8.00" fill="#374151">1.20 sccm</text>
</g>
<!-- mfc_o2&#45;&gt;mixer_1 -->
<g id="edge2" class="edge">
<title>mfc_o2:e&#45;&gt;mixer_1:sw</title>
<path fill="none" stroke="#27408b" stroke-width="2" d="M164.25,-93.5C164.25,-93.5 190.5,-109.98 202.46,-119.7"/>
<polygon fill="#27408b" stroke="#27408b" stroke-width="2" points="200.98,-120.93 206.17,-123.57 203.76,-118.27 200.98,-120.93"/>
</g>
<!-- reactor_1 -->
<g id="node4" class="node">
<title>reactor_1</title>
<image xlink:href="photoreactor.png" width="113.77px" height="104px" preserveAspectRatio="xMinYMin meet" x="386.99" y="-262.5"/>
<text xml:space="preserve" text-anchor="start" x="402.62" y="-143.95" font-family="Arial" font-size="9.00" fill="#111827">KHU PFA coil 10 mL</text>
<text xml:space="preserve" text-anchor="start" x="363.25" y="-127.45" font-family="Arial" font-size="9.00" fill="#111827">Light: Vapourtec UV&#45;150 450 nm mod…</text>
<text xml:space="preserve" text-anchor="start" x="379" y="-110.95" font-family="Arial" font-size="9.00" fill="#111827">40°C &#160;· &#160;λ=450 nm &#160;· &#160;V=10.0 mL</text>
</g>
<!-- mixer_1&#45;&gt;reactor_1 -->
<g id="edge3" class="edge">
<title>mixer_1:e&#45;&gt;reactor_1:w</title>
<path fill="none" stroke="#27408b" stroke-width="2" d="M317.25,-186C317.25,-186 339.46,-185.87 351.96,-185.8"/>
<polygon fill="#27408b" stroke="#27408b" stroke-width="2" points="351.73,-187.72 357.22,-185.77 351.71,-183.87 351.73,-187.72"/>
</g>
<!-- bpr_1 -->
<g id="node5" class="node">
<title>bpr_1</title>
<image xlink:href="bpr.png" width="104px" height="104px" preserveAspectRatio="xMinYMin meet" x="573.5" y="-278.25"/>
<text xml:space="preserve" text-anchor="start" x="593.62" y="-159.7" font-family="Arial" font-size="9.00" fill="#111827">KHU 6 bar BPR</text>
<text xml:space="preserve" text-anchor="start" x="615" y="-143.2" font-family="Arial" font-size="9.00" fill="#111827">6 bar</text>
</g>
<!-- reactor_1&#45;&gt;bpr_1 -->
<g id="edge4" class="edge">
<title>reactor_1:e&#45;&gt;bpr_1:w</title>
<path fill="none" stroke="#27408b" stroke-width="2" d="M527.5,-210.5C527.5,-210.5 549.71,-210.11 562.21,-209.89"/>
<polygon fill="#27408b" stroke="#27408b" stroke-width="2" points="562.01,-211.82 567.47,-209.8 561.94,-207.97 562.01,-211.82"/>
</g>
<!-- collector_1 -->
<g id="node6" class="node">
<title>collector_1</title>
<image xlink:href="vial.png" width="104px" height="104px" preserveAspectRatio="xMinYMin meet" x="726.5" y="-286"/>
<text xml:space="preserve" text-anchor="start" x="742.12" y="-167.45" font-family="Arial" font-size="9.00" fill="#111827">Product collection</text>
</g>
<!-- bpr_1&#45;&gt;collector_1 -->
<g id="edge5" class="edge">
<title>bpr_1:e&#45;&gt;collector_1:w</title>
<path fill="none" stroke="#27408b" stroke-width="2" d="M680.5,-226.25C680.5,-226.25 702.71,-225.99 715.21,-225.85"/>
<polygon fill="#27408b" stroke="#27408b" stroke-width="2" points="715,-227.77 720.47,-225.79 714.95,-223.92 715,-227.77"/>
</g>
</g>
</svg>
