<?xml version="1.0" encoding="utf-8" standalone="no"?>
<!DOCTYPE svg PUBLIC "-//W3C//DTD SVG 1.1//EN"
  "http://www.w3.org/Graphics/SVG/1.1/DTD/svg11.dtd">
<svg xmlns:xlink="http://www.w3.org/1999/xlink" width="921.6pt" height="374.4pt" viewBox="0 0 921.6 374.4" xmlns="http://www.w3.org/2000/svg" version="1.1">
 <metadata>
  <rdf:RDF xmlns:dc="http://purl.org/dc/elements/1.1/" xmlns:cc="http://creativecommons.org/ns#" xmlns:rdf="http://www.w3.org/1999/02/22-rdf-syntax-ns#">
   <cc:Work>
    <dc:type rdf:resource="http://purl.org/dc/dcmitype/StillImage"/>
    <dc:date>2026-05-08T18:23:07.475835</dc:date>
    <dc:format>image/svg+xml</dc:format>
    <dc:creator>
     <cc:Agent>
      <dc:title>Matplotlib v3.10.8, https://matplotlib.org/</dc:title>
     </cc:Agent>
    </dc:creator>
   </cc:Work>
  </rdf:RDF>
 </metadata>
 <defs>
  <style type="text/css">*{stroke-linejoin: round; stroke-linecap: butt}</style>
 </defs>
 <g id="figure_1">
  <g id="patch_1">
   <path d="M 0 374.4 
L 921.6 374.4 
L 921.6 0 
L 0 0 
z
" style="fill: #ffffff"/>
  </g>
  <g id="axes_1">
   <g id="patch_2">
    <path d="M 42.765865 329.03553 
L 657.785016 329.03553 
L 657.785016 21.358521 
L 42.765865 21.358521 
z
" style="fill: #ffffff"/>
   </g>
   <g id="patch_3">
    <path d="M 70.721281 329.03553 
L 97.774909 329.03553 
L 97.774909 326.426592 
L 70.721281 326.426592 
z
" clip-path="url(#p7b4d1fc243)" style="fill: #1f77b4"/>
   </g>
   <g id="patch_4">
    <path d="M 221.019216 329.03553 
L 248.072845 329.03553 
L 248.072845 313.381903 
L 221.019216 313.381903 
z
" clip-path="url(#p7b4d1fc243)" style="fill: #1f77b4"/>
   </g>
   <g id="patch_5">
    <path d="M 371.317152 329.03553 
L 398.37078 329.03553 
L 398.37078 297.728275 
L 371.317152 297.728275 
z
" clip-path="url(#p7b4d1fc243)" style="fill: #1f77b4"/>
   </g>
   <g id="patch_6">
    <path d="M 521.615087 329.03553 
L 548.668715 329.03553 
L 548.668715 276.856772 
L 521.615087 276.856772 
z
" clip-path="url(#p7b4d1fc243)" style="fill: #1f77b4"/>
   </g>
   <g id="patch_7">
    <path d="M 97.774909 329.03553 
L 124.828538 329.03553 
L 124.828538 321.208716 
L 97.774909 321.208716 
z
" clip-path="url(#p7b4d1fc243)" style="fill: #ff7f0e"/>
   </g>
   <g id="patch_8">
    <path d="M 248.072845 329.03553 
L 275.126473 329.03553 
L 275.126473 282.074648 
L 248.072845 282.074648 
z
" clip-path="url(#p7b4d1fc243)" style="fill: #ff7f0e"/>
   </g>
   <g id="patch_9">
    <path d="M 398.37078 329.03553 
L 425.424408 329.03553 
L 425.424408 243.462367 
L 398.37078 243.462367 
z
" clip-path="url(#p7b4d1fc243)" style="fill: #ff7f0e"/>
   </g>
   <g id="patch_10">
    <path d="M 548.668715 329.03553 
L 575.722344 329.03553 
L 575.722344 175.629982 
L 548.668715 175.629982 
z
" clip-path="url(#p7b4d1fc243)" style="fill: #ff7f0e"/>
   </g>
   <g id="patch_11">
    <path d="M 124.828538 329.03553 
L 151.882166 329.03553 
L 151.882166 318.599778 
L 124.828538 318.599778 
z
" clip-path="url(#p7b4d1fc243)" style="fill: #2ca02c"/>
   </g>
   <g id="patch_12">
    <path d="M 275.126473 329.03553 
L 302.180101 329.03553 
L 302.180101 266.42102 
L 275.126473 266.42102 
z
" clip-path="url(#p7b4d1fc243)" style="fill: #2ca02c"/>
   </g>
   <g id="patch_13">
    <path d="M 425.424408 329.03553 
L 452.478037 329.03553 
L 452.478037 212.155112 
L 425.424408 212.155112 
z
" clip-path="url(#p7b4d1fc243)" style="fill: #2ca02c"/>
   </g>
   <g id="patch_14">
    <path d="M 575.722344 329.03553 
L 602.775972 329.03553 
L 602.775972 113.015472 
L 575.722344 113.015472 
z
" clip-path="url(#p7b4d1fc243)" style="fill: #2ca02c"/>
   </g>
   <g id="patch_15">
    <path d="M 151.882166 329.03553 
L 178.935794 329.03553 
L 178.935794 323.295867 
L 151.882166 323.295867 
z
" clip-path="url(#p7b4d1fc243)" style="fill: #d62728"/>
   </g>
   <g id="patch_16">
    <path d="M 302.180101 329.03553 
L 329.23373 329.03553 
L 329.23373 297.206488 
L 302.180101 297.206488 
z
" clip-path="url(#p7b4d1fc243)" style="fill: #d62728"/>
   </g>
   <g id="patch_17">
    <path d="M 452.478037 329.03553 
L 479.531665 329.03553 
L 479.531665 271.117109 
L 452.478037 271.117109 
z
" clip-path="url(#p7b4d1fc243)" style="fill: #d62728"/>
   </g>
   <g id="patch_18">
    <path d="M 602.775972 329.03553 
L 629.8296 329.03553 
L 629.8296 225.199802 
L 602.775972 225.199802 
z
" clip-path="url(#p7b4d1fc243)" style="fill: #d62728"/>
   </g>
   <g id="matplotlib.axis_1">
    <g id="xtick_1">
     <g id="line2d_1">
      <defs>
       <path id="m26cd69b796" d="M 0 0 
L 0 3.5 
" style="stroke: #000000; stroke-width: 0.8"/>
      </defs>
      <g>
       <use xlink:href="#m26cd69b796" x="124.828538" y="329.03553" style="stroke: #000000; stroke-width: 0.8"/>
      </g>
     </g>
     <g id="text_1">
      <!-- 1 -->
      <g transform="translate(121.647288 343.633967) scale(0.1 -0.1)">
       <defs>
        <path id="DejaVuSans-31" d="M 794 531 
L 1825 531 
L 1825 4091 
L 703 3866 
L 703 4441 
L 1819 4666 
L 2450 4666 
L 2450 531 
L 3481 531 
L 3481 0 
L 794 0 
L 794 531 
z
" transform="scale(0.015625)"/>
       </defs>
       <use xlink:href="#DejaVuSans-31"/>
      </g>
     </g>
    </g>
    <g id="xtick_2">
     <g id="line2d_2">
      <g>
       <use xlink:href="#m26cd69b796" x="275.126473" y="329.03553" style="stroke: #000000; stroke-width: 0.8"/>
      </g>
     </g>
     <g id="text_2">
      <!-- 6 -->
      <g transform="translate(271.945223 343.633967) scale(0.1 -0.1)">
       <defs>
        <path id="DejaVuSans-36" d="M 2113 2584 
Q 1688 2584 1439 2293 
Q 1191 2003 1191 1497 
Q 1191 994 1439 701 
Q 1688 409 2113 409 
Q 2538 409 2786 701 
Q 3034 994 3034 1497 
Q 3034 2003 2786 2293 
Q 2538 2584 2113 2584 
z
M 3366 4563 
L 3366 3988 
Q 3128 4100 2886 4159 
Q 2644 4219 2406 4219 
Q 1781 4219 1451 3797 
Q 1122 3375 1075 2522 
Q 1259 2794 1537 2939 
Q 1816 3084 2150 3084 
Q 2853 3084 3261 2657 
Q 3669 2231 3669 1497 
Q 3669 778 3244 343 
Q 2819 -91 2113 -91 
Q 1303 -91 875 529 
Q 447 1150 447 2328 
Q 447 3434 972 4092 
Q 1497 4750 2381 4750 
Q 2619 4750 2861 4703 
Q 3103 4656 3366 4563 
z
" transform="scale(0.015625)"/>
       </defs>
       <use xlink:href="#DejaVuSans-36"/>
      </g>
     </g>
    </g>
    <g id="xtick_3">
     <g id="line2d_3">
      <g>
       <use xlink:href="#m26cd69b796" x="425.424408" y="329.03553" style="stroke: #000000; stroke-width: 0.8"/>
      </g>
     </g>
     <g id="text_3">
      <!-- 12 -->
      <g transform="translate(419.061908 343.633967) scale(0.1 -0.1)">
       <defs>
        <path id="DejaVuSans-32" d="M 1228 531 
L 3431 531 
L 3431 0 
L 469 0 
L 469 531 
Q 828 903 1448 1529 
Q 2069 2156 2228 2338 
Q 2531 2678 2651 2914 
Q 2772 3150 2772 3378 
Q 2772 3750 2511 3984 
Q 2250 4219 1831 4219 
Q 1534 4219 1204 4116 
Q 875 4013 500 3803 
L 500 4441 
Q 881 4594 1212 4672 
Q 1544 4750 1819 4750 
Q 2544 4750 2975 4387 
Q 3406 4025 3406 3419 
Q 3406 3131 3298 2873 
Q 3191 2616 2906 2266 
Q 2828 2175 2409 1742 
Q 1991 1309 1228 531 
z
" transform="scale(0.015625)"/>
       </defs>
       <use xlink:href="#DejaVuSans-31"/>
       <use xlink:href="#DejaVuSans-32" transform="translate(63.623047 0)"/>
      </g>
     </g>
    </g>
    <g id="xtick_4">
     <g id="line2d_4">
      <g>
       <use xlink:href="#m26cd69b796" x="575.722344" y="329.03553" style="stroke: #000000; stroke-width: 0.8"/>
      </g>
     </g>
     <g id="text_4">
      <!-- 24 -->
      <g transform="translate(569.359844 343.633967) scale(0.1 -0.1)">
       <defs>
        <path id="DejaVuSans-34" d="M 2419 4116 
L 825 1625 
L 2419 1625 
L 2419 4116 
z
M 2253 4666 
L 3047 4666 
L 3047 1625 
L 3713 1625 
L 3713 1100 
L 3047 1100 
L 3047 0 
L 2419 0 
L 2419 1100 
L 313 1100 
L 313 1709 
L 2253 4666 
z
" transform="scale(0.015625)"/>
       </defs>
       <use xlink:href="#DejaVuSans-32"/>
       <use xlink:href="#DejaVuSans-34" transform="translate(63.623047 0)"/>
      </g>
     </g>
    </g>
    <g id="text_5">
     <!-- Budget -->
     <g transform="translate(332.291066 357.312092) scale(0.1 -0.1)">
      <defs>
       <path id="DejaVuSans-42" d="M 1259 2228 
L 1259 519 
L 2272 519 
Q 2781 519 3026 730 
Q 3272 941 3272 1375 
Q 3272 1813 3026 2020 
Q 2781 2228 2272 2228 
L 1259 2228 
z
M 1259 4147 
L 1259 2741 
L 2194 2741 
Q 2656 2741 2882 2914 
Q 3109 3088 3109 3444 
Q 3109 3797 2882 3972 
Q 2656 4147 2194 4147 
L 1259 4147 
z
M 628 4666 
L 2241 4666 
Q 2963 4666 3353 4366 
Q 3744 4066 3744 3513 
Q 3744 3084 3544 2831 
Q 3344 2578 2956 2516 
Q 3422 2416 3680 2098 
Q 3938 1781 3938 1306 
Q 3938 681 3513 340 
Q 3088 0 2303 0 
L 628 0 
L 628 4666 
z
" transform="scale(0.015625)"/>
       <path id="DejaVuSans-75" d="M 544 1381 
L 544 3500 
L 1119 3500 
L 1119 1403 
Q 1119 906 1312 657 
Q 1506 409 1894 409 
Q 2359 409 2629 706 
Q 2900 1003 2900 1516 
L 2900 3500 
L 3475 3500 
L 3475 0 
L 2900 0 
L 2900 538 
Q 2691 219 2414 64 
Q 2138 -91 1772 -91 
Q 1169 -91 856 284 
Q 544 659 544 1381 
z
M 1991 3584 
L 1991 3584 
z
" transform="scale(0.015625)"/>
       <path id="DejaVuSans-64" d="M 2906 2969 
L 2906 4863 
L 3481 4863 
L 3481 0 
L 2906 0 
L 2906 525 
Q 2725 213 2448 61 
Q 2172 -91 1784 -91 
Q 1150 -91 751 415 
Q 353 922 353 1747 
Q 353 2572 751 3078 
Q 1150 3584 1784 3584 
Q 2172 3584 2448 3432 
Q 2725 3281 2906 2969 
z
M 947 1747 
Q 947 1113 1208 752 
Q 1469 391 1925 391 
Q 2381 391 2643 752 
Q 2906 1113 2906 1747 
Q 2906 2381 2643 2742 
Q 2381 3103 1925 3103 
Q 1469 3103 1208 2742 
Q 947 2381 947 1747 
z
" transform="scale(0.015625)"/>
       <path id="DejaVuSans-67" d="M 2906 1791 
Q 2906 2416 2648 2759 
Q 2391 3103 1925 3103 
Q 1463 3103 1205 2759 
Q 947 2416 947 1791 
Q 947 1169 1205 825 
Q 1463 481 1925 481 
Q 2391 481 2648 825 
Q 2906 1169 2906 1791 
z
M 3481 434 
Q 3481 -459 3084 -895 
Q 2688 -1331 1869 -1331 
Q 1566 -1331 1297 -1286 
Q 1028 -1241 775 -1147 
L 775 -588 
Q 1028 -725 1275 -790 
Q 1522 -856 1778 -856 
Q 2344 -856 2625 -561 
Q 2906 -266 2906 331 
L 2906 616 
Q 2728 306 2450 153 
Q 2172 0 1784 0 
Q 1141 0 747 490 
Q 353 981 353 1791 
Q 353 2603 747 3093 
Q 1141 3584 1784 3584 
Q 2172 3584 2450 3431 
Q 2728 3278 2906 2969 
L 2906 3500 
L 3481 3500 
L 3481 434 
z
" transform="scale(0.015625)"/>
       <path id="DejaVuSans-65" d="M 3597 1894 
L 3597 1613 
L 953 1613 
Q 991 1019 1311 708 
Q 1631 397 2203 397 
Q 2534 397 2845 478 
Q 3156 559 3463 722 
L 3463 178 
Q 3153 47 2828 -22 
Q 2503 -91 2169 -91 
Q 1331 -91 842 396 
Q 353 884 353 1716 
Q 353 2575 817 3079 
Q 1281 3584 2069 3584 
Q 2775 3584 3186 3129 
Q 3597 2675 3597 1894 
z
M 3022 2063 
Q 3016 2534 2758 2815 
Q 2500 3097 2075 3097 
Q 1594 3097 1305 2825 
Q 1016 2553 972 2059 
L 3022 2063 
z
" transform="scale(0.015625)"/>
       <path id="DejaVuSans-74" d="M 1172 4494 
L 1172 3500 
L 2356 3500 
L 2356 3053 
L 1172 3053 
L 1172 1153 
Q 1172 725 1289 603 
Q 1406 481 1766 481 
L 2356 481 
L 2356 0 
L 1766 0 
Q 1100 0 847 248 
Q 594 497 594 1153 
L 594 3053 
L 172 3053 
L 172 3500 
L 594 3500 
L 594 4494 
L 1172 4494 
z
" transform="scale(0.015625)"/>
      </defs>
      <use xlink:href="#DejaVuSans-42"/>
      <use xlink:href="#DejaVuSans-75" transform="translate(68.603516 0)"/>
      <use xlink:href="#DejaVuSans-64" transform="translate(131.982422 0)"/>
      <use xlink:href="#DejaVuSans-67" transform="translate(195.458984 0)"/>
      <use xlink:href="#DejaVuSans-65" transform="translate(258.935547 0)"/>
      <use xlink:href="#DejaVuSans-74" transform="translate(320.458984 0)"/>
     </g>
    </g>
   </g>
   <g id="matplotlib.axis_2">
    <g id="ytick_1">
     <g id="line2d_5">
      <defs>
       <path id="m3bc079fa1f" d="M 0 0 
L -3.5 0 
" style="stroke: #000000; stroke-width: 0.8"/>
      </defs>
      <g>
       <use xlink:href="#m3bc079fa1f" x="42.765865" y="329.03553" style="stroke: #000000; stroke-width: 0.8"/>
      </g>
     </g>
     <g id="text_6">
      <!-- 0 -->
      <g transform="translate(29.403365 332.834749) scale(0.1 -0.1)">
       <defs>
        <path id="DejaVuSans-30" d="M 2034 4250 
Q 1547 4250 1301 3770 
Q 1056 3291 1056 2328 
Q 1056 1369 1301 889 
Q 1547 409 2034 409 
Q 2525 409 2770 889 
Q 3016 1369 3016 2328 
Q 3016 3291 2770 3770 
Q 2525 4250 2034 4250 
z
M 2034 4750 
Q 2819 4750 3233 4129 
Q 3647 3509 3647 2328 
Q 3647 1150 3233 529 
Q 2819 -91 2034 -91 
Q 1250 -91 836 529 
Q 422 1150 422 2328 
Q 422 3509 836 4129 
Q 1250 4750 2034 4750 
z
" transform="scale(0.015625)"/>
       </defs>
       <use xlink:href="#DejaVuSans-30"/>
      </g>
     </g>
    </g>
    <g id="ytick_2">
     <g id="line2d_6">
      <g>
       <use xlink:href="#m3bc079fa1f" x="42.765865" y="276.856772" style="stroke: #000000; stroke-width: 0.8"/>
      </g>
     </g>
     <g id="text_7">
      <!-- 20 -->
      <g transform="translate(23.040865 280.655991) scale(0.1 -0.1)">
       <use xlink:href="#DejaVuSans-32"/>
       <use xlink:href="#DejaVuSans-30" transform="translate(63.623047 0)"/>
      </g>
     </g>
    </g>
    <g id="ytick_3">
     <g id="line2d_7">
      <g>
       <use xlink:href="#m3bc079fa1f" x="42.765865" y="224.678014" style="stroke: #000000; stroke-width: 0.8"/>
      </g>
     </g>
     <g id="text_8">
      <!-- 40 -->
      <g transform="translate(23.040865 228.477233) scale(0.1 -0.1)">
       <use xlink:href="#DejaVuSans-34"/>
       <use xlink:href="#DejaVuSans-30" transform="translate(63.623047 0)"/>
      </g>
     </g>
    </g>
    <g id="ytick_4">
     <g id="line2d_8">
      <g>
       <use xlink:href="#m3bc079fa1f" x="42.765865" y="172.499256" style="stroke: #000000; stroke-width: 0.8"/>
      </g>
     </g>
     <g id="text_9">
      <!-- 60 -->
      <g transform="translate(23.040865 176.298475) scale(0.1 -0.1)">
       <use xlink:href="#DejaVuSans-36"/>
       <use xlink:href="#DejaVuSans-30" transform="translate(63.623047 0)"/>
      </g>
     </g>
    </g>
    <g id="ytick_5">
     <g id="line2d_9">
      <g>
       <use xlink:href="#m3bc079fa1f" x="42.765865" y="120.320498" style="stroke: #000000; stroke-width: 0.8"/>
      </g>
     </g>
     <g id="text_10">
      <!-- 80 -->
      <g transform="translate(23.040865 124.119717) scale(0.1 -0.1)">
       <defs>
        <path id="DejaVuSans-38" d="M 2034 2216 
Q 1584 2216 1326 1975 
Q 1069 1734 1069 1313 
Q 1069 891 1326 650 
Q 1584 409 2034 409 
Q 2484 409 2743 651 
Q 3003 894 3003 1313 
Q 3003 1734 2745 1975 
Q 2488 2216 2034 2216 
z
M 1403 2484 
Q 997 2584 770 2862 
Q 544 3141 544 3541 
Q 544 4100 942 4425 
Q 1341 4750 2034 4750 
Q 2731 4750 3128 4425 
Q 3525 4100 3525 3541 
Q 3525 3141 3298 2862 
Q 3072 2584 2669 2484 
Q 3125 2378 3379 2068 
Q 3634 1759 3634 1313 
Q 3634 634 3220 271 
Q 2806 -91 2034 -91 
Q 1263 -91 848 271 
Q 434 634 434 1313 
Q 434 1759 690 2068 
Q 947 2378 1403 2484 
z
M 1172 3481 
Q 1172 3119 1398 2916 
Q 1625 2713 2034 2713 
Q 2441 2713 2670 2916 
Q 2900 3119 2900 3481 
Q 2900 3844 2670 4047 
Q 2441 4250 2034 4250 
Q 1625 4250 1398 4047 
Q 1172 3844 1172 3481 
z
" transform="scale(0.015625)"/>
       </defs>
       <use xlink:href="#DejaVuSans-38"/>
       <use xlink:href="#DejaVuSans-30" transform="translate(63.623047 0)"/>
      </g>
     </g>
    </g>
    <g id="ytick_6">
     <g id="line2d_10">
      <g>
       <use xlink:href="#m3bc079fa1f" x="42.765865" y="68.14174" style="stroke: #000000; stroke-width: 0.8"/>
      </g>
     </g>
     <g id="text_11">
      <!-- 100 -->
      <g transform="translate(16.678365 71.940959) scale(0.1 -0.1)">
       <use xlink:href="#DejaVuSans-31"/>
       <use xlink:href="#DejaVuSans-30" transform="translate(63.623047 0)"/>
       <use xlink:href="#DejaVuSans-30" transform="translate(127.246094 0)"/>
      </g>
     </g>
    </g>
    <g id="text_12">
     <!-- Mean count -->
     <g transform="translate(10.598678 204.515776) rotate(-90) scale(0.1 -0.1)">
      <defs>
       <path id="DejaVuSans-4d" d="M 628 4666 
L 1569 4666 
L 2759 1491 
L 3956 4666 
L 4897 4666 
L 4897 0 
L 4281 0 
L 4281 4097 
L 3078 897 
L 2444 897 
L 1241 4097 
L 1241 0 
L 628 0 
L 628 4666 
z
" transform="scale(0.015625)"/>
       <path id="DejaVuSans-61" d="M 2194 1759 
Q 1497 1759 1228 1600 
Q 959 1441 959 1056 
Q 959 750 1161 570 
Q 1363 391 1709 391 
Q 2188 391 2477 730 
Q 2766 1069 2766 1631 
L 2766 1759 
L 2194 1759 
z
M 3341 1997 
L 3341 0 
L 2766 0 
L 2766 531 
Q 2569 213 2275 61 
Q 1981 -91 1556 -91 
Q 1019 -91 701 211 
Q 384 513 384 1019 
Q 384 1609 779 1909 
Q 1175 2209 1959 2209 
L 2766 2209 
L 2766 2266 
Q 2766 2663 2505 2880 
Q 2244 3097 1772 3097 
Q 1472 3097 1187 3025 
Q 903 2953 641 2809 
L 641 3341 
Q 956 3463 1253 3523 
Q 1550 3584 1831 3584 
Q 2591 3584 2966 3190 
Q 3341 2797 3341 1997 
z
" transform="scale(0.015625)"/>
       <path id="DejaVuSans-6e" d="M 3513 2113 
L 3513 0 
L 2938 0 
L 2938 2094 
Q 2938 2591 2744 2837 
Q 2550 3084 2163 3084 
Q 1697 3084 1428 2787 
Q 1159 2491 1159 1978 
L 1159 0 
L 581 0 
L 581 3500 
L 1159 3500 
L 1159 2956 
Q 1366 3272 1645 3428 
Q 1925 3584 2291 3584 
Q 2894 3584 3203 3211 
Q 3513 2838 3513 2113 
z
" transform="scale(0.015625)"/>
       <path id="DejaVuSans-20" transform="scale(0.015625)"/>
       <path id="DejaVuSans-63" d="M 3122 3366 
L 3122 2828 
Q 2878 2963 2633 3030 
Q 2388 3097 2138 3097 
Q 1578 3097 1268 2742 
Q 959 2388 959 1747 
Q 959 1106 1268 751 
Q 1578 397 2138 397 
Q 2388 397 2633 464 
Q 2878 531 3122 666 
L 3122 134 
Q 2881 22 2623 -34 
Q 2366 -91 2075 -91 
Q 1284 -91 818 406 
Q 353 903 353 1747 
Q 353 2603 823 3093 
Q 1294 3584 2113 3584 
Q 2378 3584 2631 3529 
Q 2884 3475 3122 3366 
z
" transform="scale(0.015625)"/>
       <path id="DejaVuSans-6f" d="M 1959 3097 
Q 1497 3097 1228 2736 
Q 959 2375 959 1747 
Q 959 1119 1226 758 
Q 1494 397 1959 397 
Q 2419 397 2687 759 
Q 2956 1122 2956 1747 
Q 2956 2369 2687 2733 
Q 2419 3097 1959 3097 
z
M 1959 3584 
Q 2709 3584 3137 3096 
Q 3566 2609 3566 1747 
Q 3566 888 3137 398 
Q 2709 -91 1959 -91 
Q 1206 -91 779 398 
Q 353 888 353 1747 
Q 353 2609 779 3096 
Q 1206 3584 1959 3584 
z
" transform="scale(0.015625)"/>
      </defs>
      <use xlink:href="#DejaVuSans-4d"/>
      <use xlink:href="#DejaVuSans-65" transform="translate(86.279297 0)"/>
      <use xlink:href="#DejaVuSans-61" transform="translate(147.802734 0)"/>
      <use xlink:href="#DejaVuSans-6e" transform="translate(209.082031 0)"/>
      <use xlink:href="#DejaVuSans-20" transform="translate(272.460938 0)"/>
      <use xlink:href="#DejaVuSans-63" transform="translate(304.248047 0)"/>
      <use xlink:href="#DejaVuSans-6f" transform="translate(359.228516 0)"/>
      <use xlink:href="#DejaVuSans-75" transform="translate(420.410156 0)"/>
      <use xlink:href="#DejaVuSans-6e" transform="translate(483.789062 0)"/>
      <use xlink:href="#DejaVuSans-74" transform="translate(547.167969 0)"/>
     </g>
    </g>
   </g>
   <g id="LineCollection_1">
    <path d="M 84.248095 326.426592 
L 84.248095 326.426592 
" clip-path="url(#p7b4d1fc243)" style="fill: none; stroke: #000000; stroke-width: 1.5"/>
    <path d="M 234.54603 313.381903 
L 234.54603 313.381903 
" clip-path="url(#p7b4d1fc243)" style="fill: none; stroke: #000000; stroke-width: 1.5"/>
    <path d="M 384.843966 297.728275 
L 384.843966 297.728275 
" clip-path="url(#p7b4d1fc243)" style="fill: none; stroke: #000000; stroke-width: 1.5"/>
    <path d="M 535.141901 300.191822 
L 535.141901 253.521722 
" clip-path="url(#p7b4d1fc243)" style="fill: none; stroke: #000000; stroke-width: 1.5"/>
   </g>
   <g id="line2d_11">
    <defs>
     <path id="m27855721a2" d="M 3 0 
L -3 -0 
" style="stroke: #000000"/>
    </defs>
    <g clip-path="url(#p7b4d1fc243)">
     <use xlink:href="#m27855721a2" x="84.248095" y="326.426592" style="fill: #1f77b4; stroke: #000000"/>
     <use xlink:href="#m27855721a2" x="234.54603" y="313.381903" style="fill: #1f77b4; stroke: #000000"/>
     <use xlink:href="#m27855721a2" x="384.843966" y="297.728275" style="fill: #1f77b4; stroke: #000000"/>
     <use xlink:href="#m27855721a2" x="535.141901" y="300.191822" style="fill: #1f77b4; stroke: #000000"/>
    </g>
   </g>
   <g id="line2d_12">
    <g clip-path="url(#p7b4d1fc243)">
     <use xlink:href="#m27855721a2" x="84.248095" y="326.426592" style="fill: #1f77b4; stroke: #000000"/>
     <use xlink:href="#m27855721a2" x="234.54603" y="313.381903" style="fill: #1f77b4; stroke: #000000"/>
     <use xlink:href="#m27855721a2" x="384.843966" y="297.728275" style="fill: #1f77b4; stroke: #000000"/>
     <use xlink:href="#m27855721a2" x="535.141901" y="253.521722" style="fill: #1f77b4; stroke: #000000"/>
    </g>
   </g>
   <g id="LineCollection_2">
    <path d="M 111.301724 321.208716 
L 111.301724 321.208716 
" clip-path="url(#p7b4d1fc243)" style="fill: none; stroke: #000000; stroke-width: 1.5"/>
    <path d="M 261.599659 282.074648 
L 261.599659 282.074648 
" clip-path="url(#p7b4d1fc243)" style="fill: none; stroke: #000000; stroke-width: 1.5"/>
    <path d="M 411.897594 262.130407 
L 411.897594 224.794327 
" clip-path="url(#p7b4d1fc243)" style="fill: none; stroke: #000000; stroke-width: 1.5"/>
    <path d="M 562.195529 252.635646 
L 562.195529 98.624317 
" clip-path="url(#p7b4d1fc243)" style="fill: none; stroke: #000000; stroke-width: 1.5"/>
   </g>
   <g id="line2d_13">
    <g clip-path="url(#p7b4d1fc243)">
     <use xlink:href="#m27855721a2" x="111.301724" y="321.208716" style="fill: #1f77b4; stroke: #000000"/>
     <use xlink:href="#m27855721a2" x="261.599659" y="282.074648" style="fill: #1f77b4; stroke: #000000"/>
     <use xlink:href="#m27855721a2" x="411.897594" y="262.130407" style="fill: #1f77b4; stroke: #000000"/>
     <use xlink:href="#m27855721a2" x="562.195529" y="252.635646" style="fill: #1f77b4; stroke: #000000"/>
    </g>
   </g>
   <g id="line2d_14">
    <g clip-path="url(#p7b4d1fc243)">
     <use xlink:href="#m27855721a2" x="111.301724" y="321.208716" style="fill: #1f77b4; stroke: #000000"/>
     <use xlink:href="#m27855721a2" x="261.599659" y="282.074648" style="fill: #1f77b4; stroke: #000000"/>
     <use xlink:href="#m27855721a2" x="411.897594" y="224.794327" style="fill: #1f77b4; stroke: #000000"/>
     <use xlink:href="#m27855721a2" x="562.195529" y="98.624317" style="fill: #1f77b4; stroke: #000000"/>
    </g>
   </g>
   <g id="LineCollection_3">
    <path d="M 138.355352 318.599778 
L 138.355352 318.599778 
" clip-path="url(#p7b4d1fc243)" style="fill: none; stroke: #000000; stroke-width: 1.5"/>
    <path d="M 288.653287 266.42102 
L 288.653287 266.42102 
" clip-path="url(#p7b4d1fc243)" style="fill: none; stroke: #000000; stroke-width: 1.5"/>
    <path d="M 438.951222 230.823152 
L 438.951222 193.487072 
" clip-path="url(#p7b4d1fc243)" style="fill: none; stroke: #000000; stroke-width: 1.5"/>
    <path d="M 589.249158 190.021137 
L 589.249158 36.009807 
" clip-path="url(#p7b4d1fc243)" style="fill: none; stroke: #000000; stroke-width: 1.5"/>
   </g>
   <g id="line2d_15">
    <g clip-path="url(#p7b4d1fc243)">
     <use xlink:href="#m27855721a2" x="138.355352" y="318.599778" style="fill: #1f77b4; stroke: #000000"/>
     <use xlink:href="#m27855721a2" x="288.653287" y="266.42102" style="fill: #1f77b4; stroke: #000000"/>
     <use xlink:href="#m27855721a2" x="438.951222" y="230.823152" style="fill: #1f77b4; stroke: #000000"/>
     <use xlink:href="#m27855721a2" x="589.249158" y="190.021137" style="fill: #1f77b4; stroke: #000000"/>
    </g>
   </g>
   <g id="line2d_16">
    <g clip-path="url(#p7b4d1fc243)">
     <use xlink:href="#m27855721a2" x="138.355352" y="318.599778" style="fill: #1f77b4; stroke: #000000"/>
     <use xlink:href="#m27855721a2" x="288.653287" y="266.42102" style="fill: #1f77b4; stroke: #000000"/>
     <use xlink:href="#m27855721a2" x="438.951222" y="193.487072" style="fill: #1f77b4; stroke: #000000"/>
     <use xlink:href="#m27855721a2" x="589.249158" y="36.009807" style="fill: #1f77b4; stroke: #000000"/>
    </g>
   </g>
   <g id="LineCollection_4">
    <path d="M 165.40898 324.462619 
L 165.40898 322.129114 
" clip-path="url(#p7b4d1fc243)" style="fill: none; stroke: #000000; stroke-width: 1.5"/>
    <path d="M 315.706916 300.608126 
L 315.706916 293.804849 
" clip-path="url(#p7b4d1fc243)" style="fill: none; stroke: #000000; stroke-width: 1.5"/>
    <path d="M 466.004851 280.595851 
L 466.004851 261.638367 
" clip-path="url(#p7b4d1fc243)" style="fill: none; stroke: #000000; stroke-width: 1.5"/>
    <path d="M 616.302786 276.437376 
L 616.302786 173.962227 
" clip-path="url(#p7b4d1fc243)" style="fill: none; stroke: #000000; stroke-width: 1.5"/>
   </g>
   <g id="line2d_17">
    <g clip-path="url(#p7b4d1fc243)">
     <use xlink:href="#m27855721a2" x="165.40898" y="324.462619" style="fill: #1f77b4; stroke: #000000"/>
     <use xlink:href="#m27855721a2" x="315.706916" y="300.608126" style="fill: #1f77b4; stroke: #000000"/>
     <use xlink:href="#m27855721a2" x="466.004851" y="280.595851" style="fill: #1f77b4; stroke: #000000"/>
     <use xlink:href="#m27855721a2" x="616.302786" y="276.437376" style="fill: #1f77b4; stroke: #000000"/>
    </g>
   </g>
   <g id="line2d_18">
    <g clip-path="url(#p7b4d1fc243)">
     <use xlink:href="#m27855721a2" x="165.40898" y="322.129114" style="fill: #1f77b4; stroke: #000000"/>
     <use xlink:href="#m27855721a2" x="315.706916" y="293.804849" style="fill: #1f77b4; stroke: #000000"/>
     <use xlink:href="#m27855721a2" x="466.004851" y="261.638367" style="fill: #1f77b4; stroke: #000000"/>
     <use xlink:href="#m27855721a2" x="616.302786" y="173.962227" style="fill: #1f77b4; stroke: #000000"/>
    </g>
   </g>
   <g id="patch_19">
    <path d="M 42.765865 329.03553 
L 42.765865 21.358521 
" style="fill: none; stroke: #000000; stroke-width: 0.8; stroke-linejoin: miter; stroke-linecap: square"/>
   </g>
   <g id="patch_20">
    <path d="M 657.785016 329.03553 
L 657.785016 21.358521 
" style="fill: none; stroke: #000000; stroke-width: 0.8; stroke-linejoin: miter; stroke-linecap: square"/>
   </g>
   <g id="patch_21">
    <path d="M 42.765865 329.03553 
L 657.785016 329.03553 
" style="fill: none; stroke: #000000; stroke-width: 0.8; stroke-linejoin: miter; stroke-linecap: square"/>
   </g>
   <g id="patch_22">
    <path d="M 42.765865 21.358521 
L 657.785016 21.358521 
" style="fill: none; stroke: #000000; stroke-width: 0.8; stroke-linejoin: miter; stroke-linecap: square"/>
   </g>
   <g id="text_13">
    <!-- Revision Activity by Budget -->
    <g transform="translate(268.098878 15.358521) scale(0.12 -0.12)">
     <defs>
      <path id="DejaVuSans-52" d="M 2841 2188 
Q 3044 2119 3236 1894 
Q 3428 1669 3622 1275 
L 4263 0 
L 3584 0 
L 2988 1197 
Q 2756 1666 2539 1819 
Q 2322 1972 1947 1972 
L 1259 1972 
L 1259 0 
L 628 0 
L 628 4666 
L 2053 4666 
Q 2853 4666 3247 4331 
Q 3641 3997 3641 3322 
Q 3641 2881 3436 2590 
Q 3231 2300 2841 2188 
z
M 1259 4147 
L 1259 2491 
L 2053 2491 
Q 2509 2491 2742 2702 
Q 2975 2913 2975 3322 
Q 2975 3731 2742 3939 
Q 2509 4147 2053 4147 
L 1259 4147 
z
" transform="scale(0.015625)"/>
      <path id="DejaVuSans-76" d="M 191 3500 
L 800 3500 
L 1894 563 
L 2988 3500 
L 3597 3500 
L 2284 0 
L 1503 0 
L 191 3500 
z
" transform="scale(0.015625)"/>
      <path id="DejaVuSans-69" d="M 603 3500 
L 1178 3500 
L 1178 0 
L 603 0 
L 603 3500 
z
M 603 4863 
L 1178 4863 
L 1178 4134 
L 603 4134 
L 603 4863 
z
" transform="scale(0.015625)"/>
      <path id="DejaVuSans-73" d="M 2834 3397 
L 2834 2853 
Q 2591 2978 2328 3040 
Q 2066 3103 1784 3103 
Q 1356 3103 1142 2972 
Q 928 2841 928 2578 
Q 928 2378 1081 2264 
Q 1234 2150 1697 2047 
L 1894 2003 
Q 2506 1872 2764 1633 
Q 3022 1394 3022 966 
Q 3022 478 2636 193 
Q 2250 -91 1575 -91 
Q 1294 -91 989 -36 
Q 684 19 347 128 
L 347 722 
Q 666 556 975 473 
Q 1284 391 1588 391 
Q 1994 391 2212 530 
Q 2431 669 2431 922 
Q 2431 1156 2273 1281 
Q 2116 1406 1581 1522 
L 1381 1569 
Q 847 1681 609 1914 
Q 372 2147 372 2553 
Q 372 3047 722 3315 
Q 1072 3584 1716 3584 
Q 2034 3584 2315 3537 
Q 2597 3491 2834 3397 
z
" transform="scale(0.015625)"/>
      <path id="DejaVuSans-41" d="M 2188 4044 
L 1331 1722 
L 3047 1722 
L 2188 4044 
z
M 1831 4666 
L 2547 4666 
L 4325 0 
L 3669 0 
L 3244 1197 
L 1141 1197 
L 716 0 
L 50 0 
L 1831 4666 
z
" transform="scale(0.015625)"/>
      <path id="DejaVuSans-79" d="M 2059 -325 
Q 1816 -950 1584 -1140 
Q 1353 -1331 966 -1331 
L 506 -1331 
L 506 -850 
L 844 -850 
Q 1081 -850 1212 -737 
Q 1344 -625 1503 -206 
L 1606 56 
L 191 3500 
L 800 3500 
L 1894 763 
L 2988 3500 
L 3597 3500 
L 2059 -325 
z
" transform="scale(0.015625)"/>
      <path id="DejaVuSans-62" d="M 3116 1747 
Q 3116 2381 2855 2742 
Q 2594 3103 2138 3103 
Q 1681 3103 1420 2742 
Q 1159 2381 1159 1747 
Q 1159 1113 1420 752 
Q 1681 391 2138 391 
Q 2594 391 2855 752 
Q 3116 1113 3116 1747 
z
M 1159 2969 
Q 1341 3281 1617 3432 
Q 1894 3584 2278 3584 
Q 2916 3584 3314 3078 
Q 3713 2572 3713 1747 
Q 3713 922 3314 415 
Q 2916 -91 2278 -91 
Q 1894 -91 1617 61 
Q 1341 213 1159 525 
L 1159 0 
L 581 0 
L 581 4863 
L 1159 4863 
L 1159 2969 
z
" transform="scale(0.015625)"/>
     </defs>
     <use xlink:href="#DejaVuSans-52"/>
     <use xlink:href="#DejaVuSans-65" transform="translate(64.982422 0)"/>
     <use xlink:href="#DejaVuSans-76" transform="translate(126.505859 0)"/>
     <use xlink:href="#DejaVuSans-69" transform="translate(185.685547 0)"/>
     <use xlink:href="#DejaVuSans-73" transform="translate(213.46875 0)"/>
     <use xlink:href="#DejaVuSans-69" transform="translate(265.568359 0)"/>
     <use xlink:href="#DejaVuSans-6f" transform="translate(293.351562 0)"/>
     <use xlink:href="#DejaVuSans-6e" transform="translate(354.533203 0)"/>
     <use xlink:href="#DejaVuSans-20" transform="translate(417.912109 0)"/>
     <use xlink:href="#DejaVuSans-41" transform="translate(449.699219 0)"/>
     <use xlink:href="#DejaVuSans-63" transform="translate(516.357422 0)"/>
     <use xlink:href="#DejaVuSans-74" transform="translate(571.337891 0)"/>
     <use xlink:href="#DejaVuSans-69" transform="translate(610.546875 0)"/>
     <use xlink:href="#DejaVuSans-76" transform="translate(638.330078 0)"/>
     <use xlink:href="#DejaVuSans-69" transform="translate(697.509766 0)"/>
     <use xlink:href="#DejaVuSans-74" transform="translate(725.292969 0)"/>
     <use xlink:href="#DejaVuSans-79" transform="translate(764.501953 0)"/>
     <use xlink:href="#DejaVuSans-20" transform="translate(823.681641 0)"/>
     <use xlink:href="#DejaVuSans-62" transform="translate(855.46875 0)"/>
     <use xlink:href="#DejaVuSans-79" transform="translate(918.945312 0)"/>
     <use xlink:href="#DejaVuSans-20" transform="translate(978.125 0)"/>
     <use xlink:href="#DejaVuSans-42" transform="translate(1009.912109 0)"/>
     <use xlink:href="#DejaVuSans-75" transform="translate(1078.515625 0)"/>
     <use xlink:href="#DejaVuSans-64" transform="translate(1141.894531 0)"/>
     <use xlink:href="#DejaVuSans-67" transform="translate(1205.371094 0)"/>
     <use xlink:href="#DejaVuSans-65" transform="translate(1268.847656 0)"/>
     <use xlink:href="#DejaVuSans-74" transform="translate(1330.371094 0)"/>
    </g>
   </g>
   <g id="legend_1">
    <g id="patch_23">
     <path d="M 49.765865 88.071021 
L 182.945553 88.071021 
Q 184.945553 88.071021 184.945553 86.071021 
L 184.945553 28.358521 
Q 184.945553 26.358521 182.945553 26.358521 
L 49.765865 26.358521 
Q 47.765865 26.358521 47.765865 28.358521 
L 47.765865 86.071021 
Q 47.765865 88.071021 49.765865 88.071021 
z
" style="fill: #ffffff; opacity: 0.8; stroke: #cccccc; stroke-linejoin: miter"/>
    </g>
    <g id="patch_24">
     <path d="M 51.765865 37.956959 
L 71.765865 37.956959 
L 71.765865 30.956959 
L 51.765865 30.956959 
z
" style="fill: #1f77b4"/>
    </g>
    <g id="text_14">
     <!-- changed candidates -->
     <g transform="translate(79.765865 37.956959) scale(0.1 -0.1)">
      <defs>
       <path id="DejaVuSans-68" d="M 3513 2113 
L 3513 0 
L 2938 0 
L 2938 2094 
Q 2938 2591 2744 2837 
Q 2550 3084 2163 3084 
Q 1697 3084 1428 2787 
Q 1159 2491 1159 1978 
L 1159 0 
L 581 0 
L 581 4863 
L 1159 4863 
L 1159 2956 
Q 1366 3272 1645 3428 
Q 1925 3584 2291 3584 
Q 2894 3584 3203 3211 
Q 3513 2838 3513 2113 
z
" transform="scale(0.015625)"/>
      </defs>
      <use xlink:href="#DejaVuSans-63"/>
      <use xlink:href="#DejaVuSans-68" transform="translate(54.980469 0)"/>
      <use xlink:href="#DejaVuSans-61" transform="translate(118.359375 0)"/>
      <use xlink:href="#DejaVuSans-6e" transform="translate(179.638672 0)"/>
      <use xlink:href="#DejaVuSans-67" transform="translate(243.017578 0)"/>
      <use xlink:href="#DejaVuSans-65" transform="translate(306.494141 0)"/>
      <use xlink:href="#DejaVuSans-64" transform="translate(368.017578 0)"/>
      <use xlink:href="#DejaVuSans-20" transform="translate(431.494141 0)"/>
      <use xlink:href="#DejaVuSans-63" transform="translate(463.28125 0)"/>
      <use xlink:href="#DejaVuSans-61" transform="translate(518.261719 0)"/>
      <use xlink:href="#DejaVuSans-6e" transform="translate(579.541016 0)"/>
      <use xlink:href="#DejaVuSans-64" transform="translate(642.919922 0)"/>
      <use xlink:href="#DejaVuSans-69" transform="translate(706.396484 0)"/>
      <use xlink:href="#DejaVuSans-64" transform="translate(734.179688 0)"/>
      <use xlink:href="#DejaVuSans-61" transform="translate(797.65625 0)"/>
      <use xlink:href="#DejaVuSans-74" transform="translate(858.935547 0)"/>
      <use xlink:href="#DejaVuSans-65" transform="translate(898.144531 0)"/>
      <use xlink:href="#DejaVuSans-73" transform="translate(959.667969 0)"/>
     </g>
    </g>
    <g id="patch_25">
     <path d="M 51.765865 52.635084 
L 71.765865 52.635084 
L 71.765865 45.635084 
L 51.765865 45.635084 
z
" style="fill: #ff7f0e"/>
    </g>
    <g id="text_15">
     <!-- descendants -->
     <g transform="translate(79.765865 52.635084) scale(0.1 -0.1)">
      <use xlink:href="#DejaVuSans-64"/>
      <use xlink:href="#DejaVuSans-65" transform="translate(63.476562 0)"/>
      <use xlink:href="#DejaVuSans-73" transform="translate(125 0)"/>
      <use xlink:href="#DejaVuSans-63" transform="translate(177.099609 0)"/>
      <use xlink:href="#DejaVuSans-65" transform="translate(232.080078 0)"/>
      <use xlink:href="#DejaVuSans-6e" transform="translate(293.603516 0)"/>
      <use xlink:href="#DejaVuSans-64" transform="translate(356.982422 0)"/>
      <use xlink:href="#DejaVuSans-61" transform="translate(420.458984 0)"/>
      <use xlink:href="#DejaVuSans-6e" transform="translate(481.738281 0)"/>
      <use xlink:href="#DejaVuSans-74" transform="translate(545.117188 0)"/>
      <use xlink:href="#DejaVuSans-73" transform="translate(584.326172 0)"/>
     </g>
    </g>
    <g id="patch_26">
     <path d="M 51.765865 67.313209 
L 71.765865 67.313209 
L 71.765865 60.313209 
L 51.765865 60.313209 
z
" style="fill: #2ca02c"/>
    </g>
    <g id="text_16">
     <!-- revised pool -->
     <g transform="translate(79.765865 67.313209) scale(0.1 -0.1)">
      <defs>
       <path id="DejaVuSans-72" d="M 2631 2963 
Q 2534 3019 2420 3045 
Q 2306 3072 2169 3072 
Q 1681 3072 1420 2755 
Q 1159 2438 1159 1844 
L 1159 0 
L 581 0 
L 581 3500 
L 1159 3500 
L 1159 2956 
Q 1341 3275 1631 3429 
Q 1922 3584 2338 3584 
Q 2397 3584 2469 3576 
Q 2541 3569 2628 3553 
L 2631 2963 
z
" transform="scale(0.015625)"/>
       <path id="DejaVuSans-70" d="M 1159 525 
L 1159 -1331 
L 581 -1331 
L 581 3500 
L 1159 3500 
L 1159 2969 
Q 1341 3281 1617 3432 
Q 1894 3584 2278 3584 
Q 2916 3584 3314 3078 
Q 3713 2572 3713 1747 
Q 3713 922 3314 415 
Q 2916 -91 2278 -91 
Q 1894 -91 1617 61 
Q 1341 213 1159 525 
z
M 3116 1747 
Q 3116 2381 2855 2742 
Q 2594 3103 2138 3103 
Q 1681 3103 1420 2742 
Q 1159 2381 1159 1747 
Q 1159 1113 1420 752 
Q 1681 391 2138 391 
Q 2594 391 2855 752 
Q 3116 1113 3116 1747 
z
" transform="scale(0.015625)"/>
       <path id="DejaVuSans-6c" d="M 603 4863 
L 1178 4863 
L 1178 0 
L 603 0 
L 603 4863 
z
" transform="scale(0.015625)"/>
      </defs>
      <use xlink:href="#DejaVuSans-72"/>
      <use xlink:href="#DejaVuSans-65" transform="translate(38.863281 0)"/>
      <use xlink:href="#DejaVuSans-76" transform="translate(100.386719 0)"/>
      <use xlink:href="#DejaVuSans-69" transform="translate(159.566406 0)"/>
      <use xlink:href="#DejaVuSans-73" transform="translate(187.349609 0)"/>
      <use xlink:href="#DejaVuSans-65" transform="translate(239.449219 0)"/>
      <use xlink:href="#DejaVuSans-64" transform="translate(300.972656 0)"/>
      <use xlink:href="#DejaVuSans-20" transform="translate(364.449219 0)"/>
      <use xlink:href="#DejaVuSans-70" transform="translate(396.236328 0)"/>
      <use xlink:href="#DejaVuSans-6f" transform="translate(459.712891 0)"/>
      <use xlink:href="#DejaVuSans-6f" transform="translate(520.894531 0)"/>
      <use xlink:href="#DejaVuSans-6c" transform="translate(582.076172 0)"/>
     </g>
    </g>
    <g id="patch_27">
     <path d="M 51.765865 81.991334 
L 71.765865 81.991334 
L 71.765865 74.991334 
L 51.765865 74.991334 
z
" style="fill: #d62728"/>
    </g>
    <g id="text_17">
     <!-- disqualified -->
     <g transform="translate(79.765865 81.991334) scale(0.1 -0.1)">
      <defs>
       <path id="DejaVuSans-71" d="M 947 1747 
Q 947 1113 1208 752 
Q 1469 391 1925 391 
Q 2381 391 2643 752 
Q 2906 1113 2906 1747 
Q 2906 2381 2643 2742 
Q 2381 3103 1925 3103 
Q 1469 3103 1208 2742 
Q 947 2381 947 1747 
z
M 2906 525 
Q 2725 213 2448 61 
Q 2172 -91 1784 -91 
Q 1150 -91 751 415 
Q 353 922 353 1747 
Q 353 2572 751 3078 
Q 1150 3584 1784 3584 
Q 2172 3584 2448 3432 
Q 2725 3281 2906 2969 
L 2906 3500 
L 3481 3500 
L 3481 -1331 
L 2906 -1331 
L 2906 525 
z
" transform="scale(0.015625)"/>
       <path id="DejaVuSans-66" d="M 2375 4863 
L 2375 4384 
L 1825 4384 
Q 1516 4384 1395 4259 
Q 1275 4134 1275 3809 
L 1275 3500 
L 2222 3500 
L 2222 3053 
L 1275 3053 
L 1275 0 
L 697 0 
L 697 3053 
L 147 3053 
L 147 3500 
L 697 3500 
L 697 3744 
Q 697 4328 969 4595 
Q 1241 4863 1831 4863 
L 2375 4863 
z
" transform="scale(0.015625)"/>
      </defs>
      <use xlink:href="#DejaVuSans-64"/>
      <use xlink:href="#DejaVuSans-69" transform="translate(63.476562 0)"/>
      <use xlink:href="#DejaVuSans-73" transform="translate(91.259766 0)"/>
      <use xlink:href="#DejaVuSans-71" transform="translate(143.359375 0)"/>
      <use xlink:href="#DejaVuSans-75" transform="translate(206.835938 0)"/>
      <use xlink:href="#DejaVuSans-61" transform="translate(270.214844 0)"/>
      <use xlink:href="#DejaVuSans-6c" transform="translate(331.494141 0)"/>
      <use xlink:href="#DejaVuSans-69" transform="translate(359.277344 0)"/>
      <use xlink:href="#DejaVuSans-66" transform="translate(387.060547 0)"/>
      <use xlink:href="#DejaVuSans-69" transform="translate(422.265625 0)"/>
      <use xlink:href="#DejaVuSans-65" transform="translate(450.048828 0)"/>
      <use xlink:href="#DejaVuSans-64" transform="translate(511.572266 0)"/>
     </g>
    </g>
   </g>
  </g>
  <g id="axes_2">
   <g id="text_18">
    <g id="patch_28">
     <path d="M 749.867576 71.723934 
L 835.733201 71.723934 
Q 839.783201 71.723934 839.783201 67.673934 
L 839.783201 48.88559 
Q 839.783201 44.83559 835.733201 44.83559 
L 749.867576 44.83559 
Q 745.817576 44.83559 745.817576 48.88559 
L 745.817576 67.673934 
Q 745.817576 71.723934 749.867576 71.723934 
z
" style="fill: #eaf3f8; stroke: #555555; stroke-width: 0.8; stroke-linejoin: miter"/>
    </g>
    <!-- Budget = N -->
    <g transform="translate(766.616716 55.724184) scale(0.09 -0.09)">
     <defs>
      <path id="DejaVuSans-3d" d="M 678 2906 
L 4684 2906 
L 4684 2381 
L 678 2381 
L 678 2906 
z
M 678 1631 
L 4684 1631 
L 4684 1100 
L 678 1100 
L 678 1631 
z
" transform="scale(0.015625)"/>
      <path id="DejaVuSans-4e" d="M 628 4666 
L 1478 4666 
L 3547 763 
L 3547 4666 
L 4159 4666 
L 4159 0 
L 3309 0 
L 1241 3903 
L 1241 0 
L 628 0 
L 628 4666 
z
" transform="scale(0.015625)"/>
     </defs>
     <use xlink:href="#DejaVuSans-42"/>
     <use xlink:href="#DejaVuSans-75" transform="translate(68.603516 0)"/>
     <use xlink:href="#DejaVuSans-64" transform="translate(131.982422 0)"/>
     <use xlink:href="#DejaVuSans-67" transform="translate(195.458984 0)"/>
     <use xlink:href="#DejaVuSans-65" transform="translate(258.935547 0)"/>
     <use xlink:href="#DejaVuSans-74" transform="translate(320.458984 0)"/>
     <use xlink:href="#DejaVuSans-20" transform="translate(359.667969 0)"/>
     <use xlink:href="#DejaVuSans-3d" transform="translate(391.455078 0)"/>
     <use xlink:href="#DejaVuSans-20" transform="translate(475.244141 0)"/>
     <use xlink:href="#DejaVuSans-4e" transform="translate(507.03125 0)"/>
    </g>
    <!-- original candidates -->
    <g transform="translate(749.867576 65.802215) scale(0.09 -0.09)">
     <use xlink:href="#DejaVuSans-6f"/>
     <use xlink:href="#DejaVuSans-72" transform="translate(61.181641 0)"/>
     <use xlink:href="#DejaVuSans-69" transform="translate(102.294922 0)"/>
     <use xlink:href="#DejaVuSans-67" transform="translate(130.078125 0)"/>
     <use xlink:href="#DejaVuSans-69" transform="translate(193.554688 0)"/>
     <use xlink:href="#DejaVuSans-6e" transform="translate(221.337891 0)"/>
     <use xlink:href="#DejaVuSans-61" transform="translate(284.716797 0)"/>
     <use xlink:href="#DejaVuSans-6c" transform="translate(345.996094 0)"/>
     <use xlink:href="#DejaVuSans-20" transform="translate(373.779297 0)"/>
     <use xlink:href="#DejaVuSans-63" transform="translate(405.566406 0)"/>
     <use xlink:href="#DejaVuSans-61" transform="translate(460.546875 0)"/>
     <use xlink:href="#DejaVuSans-6e" transform="translate(521.826172 0)"/>
     <use xlink:href="#DejaVuSans-64" transform="translate(585.205078 0)"/>
     <use xlink:href="#DejaVuSans-69" transform="translate(648.681641 0)"/>
     <use xlink:href="#DejaVuSans-64" transform="translate(676.464844 0)"/>
     <use xlink:href="#DejaVuSans-61" transform="translate(739.941406 0)"/>
     <use xlink:href="#DejaVuSans-74" transform="translate(801.220703 0)"/>
     <use xlink:href="#DejaVuSans-65" transform="translate(840.429688 0)"/>
     <use xlink:href="#DejaVuSans-73" transform="translate(901.953125 0)"/>
    </g>
   </g>
   <g id="text_19">
    <g id="patch_29">
     <path d="M 758.120154 136.336106 
L 827.480623 136.336106 
Q 831.530623 136.336106 831.530623 132.286106 
L 831.530623 113.497762 
Q 831.530623 109.447762 827.480623 109.447762 
L 758.120154 109.447762 
Q 754.070154 109.447762 754.070154 113.497762 
L 754.070154 132.286106 
Q 754.070154 136.336106 758.120154 136.336106 
z
" style="fill: #fff1df; stroke: #555555; stroke-width: 0.8; stroke-linejoin: miter"/>
    </g>
    <!-- Changed -->
    <g transform="translate(772.714216 120.336356) scale(0.09 -0.09)">
     <defs>
      <path id="DejaVuSans-43" d="M 4122 4306 
L 4122 3641 
Q 3803 3938 3442 4084 
Q 3081 4231 2675 4231 
Q 1875 4231 1450 3742 
Q 1025 3253 1025 2328 
Q 1025 1406 1450 917 
Q 1875 428 2675 428 
Q 3081 428 3442 575 
Q 3803 722 4122 1019 
L 4122 359 
Q 3791 134 3420 21 
Q 3050 -91 2638 -91 
Q 1578 -91 968 557 
Q 359 1206 359 2328 
Q 359 3453 968 4101 
Q 1578 4750 2638 4750 
Q 3056 4750 3426 4639 
Q 3797 4528 4122 4306 
z
" transform="scale(0.015625)"/>
     </defs>
     <use xlink:href="#DejaVuSans-43"/>
     <use xlink:href="#DejaVuSans-68" transform="translate(69.824219 0)"/>
     <use xlink:href="#DejaVuSans-61" transform="translate(133.203125 0)"/>
     <use xlink:href="#DejaVuSans-6e" transform="translate(194.482422 0)"/>
     <use xlink:href="#DejaVuSans-67" transform="translate(257.861328 0)"/>
     <use xlink:href="#DejaVuSans-65" transform="translate(321.337891 0)"/>
     <use xlink:href="#DejaVuSans-64" transform="translate(382.861328 0)"/>
    </g>
    <!-- candidates ≈ N -->
    <g transform="translate(758.120154 130.414387) scale(0.09 -0.09)">
     <defs>
      <path id="DejaVuSans-2248" d="M 4684 1947 
L 4684 1388 
Q 4356 1144 4076 1036 
Q 3797 928 3494 928 
Q 3150 928 2694 1113 
Q 2663 1125 2641 1134 
Q 2622 1141 2575 1159 
Q 2091 1350 1797 1350 
Q 1522 1350 1253 1231 
Q 984 1113 678 850 
L 678 1409 
Q 1006 1653 1286 1761 
Q 1566 1869 1869 1869 
Q 2213 1869 2672 1684 
Q 2706 1669 2722 1663 
Q 2741 1656 2788 1638 
Q 3272 1447 3566 1447 
Q 3834 1447 4098 1564 
Q 4363 1681 4684 1947 
z
M 4684 3163 
L 4684 2606 
Q 4356 2359 4076 2251 
Q 3797 2144 3494 2144 
Q 3150 2144 2694 2328 
Q 2663 2341 2641 2350 
Q 2622 2356 2575 2375 
Q 2091 2566 1797 2566 
Q 1522 2566 1253 2447 
Q 984 2328 678 2069 
L 678 2625 
Q 1006 2869 1286 2976 
Q 1566 3084 1869 3084 
Q 2213 3084 2672 2900 
Q 2703 2888 2719 2881 
Q 2741 2872 2788 2853 
Q 3272 2663 3566 2663 
Q 3834 2663 4098 2780 
Q 4363 2897 4684 3163 
z
" transform="scale(0.015625)"/>
     </defs>
     <use xlink:href="#DejaVuSans-63"/>
     <use xlink:href="#DejaVuSans-61" transform="translate(54.980469 0)"/>
     <use xlink:href="#DejaVuSans-6e" transform="translate(116.259766 0)"/>
     <use xlink:href="#DejaVuSans-64" transform="translate(179.638672 0)"/>
     <use xlink:href="#DejaVuSans-69" transform="translate(243.115234 0)"/>
     <use xlink:href="#DejaVuSans-64" transform="translate(270.898438 0)"/>
     <use xlink:href="#DejaVuSans-61" transform="translate(334.375 0)"/>
     <use xlink:href="#DejaVuSans-74" transform="translate(395.654297 0)"/>
     <use xlink:href="#DejaVuSans-65" transform="translate(434.863281 0)"/>
     <use xlink:href="#DejaVuSans-73" transform="translate(496.386719 0)"/>
     <use xlink:href="#DejaVuSans-20" transform="translate(548.486328 0)"/>
     <use xlink:href="#DejaVuSans-2248" transform="translate(580.273438 0)"/>
     <use xlink:href="#DejaVuSans-20" transform="translate(664.0625 0)"/>
     <use xlink:href="#DejaVuSans-4e" transform="translate(695.849609 0)"/>
    </g>
   </g>
   <g id="text_20">
    <g id="patch_30">
     <path d="M 746.329451 205.987293 
L 839.271326 205.987293 
Q 843.321326 205.987293 843.321326 201.937293 
L 843.321326 173.070918 
Q 843.321326 169.020918 839.271326 169.020918 
L 746.329451 169.020918 
Q 742.279451 169.020918 742.279451 173.070918 
L 742.279451 201.937293 
Q 742.279451 205.987293 746.329451 205.987293 
z
" style="fill: #f6e7f0; stroke: #555555; stroke-width: 0.8; stroke-linejoin: miter"/>
    </g>
    <!-- Up to 3 -->
    <g transform="translate(776.409138 179.909512) scale(0.09 -0.09)">
     <defs>
      <path id="DejaVuSans-55" d="M 556 4666 
L 1191 4666 
L 1191 1831 
Q 1191 1081 1462 751 
Q 1734 422 2344 422 
Q 2950 422 3222 751 
Q 3494 1081 3494 1831 
L 3494 4666 
L 4128 4666 
L 4128 1753 
Q 4128 841 3676 375 
Q 3225 -91 2344 -91 
Q 1459 -91 1007 375 
Q 556 841 556 1753 
L 556 4666 
z
" transform="scale(0.015625)"/>
      <path id="DejaVuSans-33" d="M 2597 2516 
Q 3050 2419 3304 2112 
Q 3559 1806 3559 1356 
Q 3559 666 3084 287 
Q 2609 -91 1734 -91 
Q 1441 -91 1130 -33 
Q 819 25 488 141 
L 488 750 
Q 750 597 1062 519 
Q 1375 441 1716 441 
Q 2309 441 2620 675 
Q 2931 909 2931 1356 
Q 2931 1769 2642 2001 
Q 2353 2234 1838 2234 
L 1294 2234 
L 1294 2753 
L 1863 2753 
Q 2328 2753 2575 2939 
Q 2822 3125 2822 3475 
Q 2822 3834 2567 4026 
Q 2313 4219 1838 4219 
Q 1578 4219 1281 4162 
Q 984 4106 628 3988 
L 628 4550 
Q 988 4650 1302 4700 
Q 1616 4750 1894 4750 
Q 2613 4750 3031 4423 
Q 3450 4097 3450 3541 
Q 3450 3153 3228 2886 
Q 3006 2619 2597 2516 
z
" transform="scale(0.015625)"/>
     </defs>
     <use xlink:href="#DejaVuSans-55"/>
     <use xlink:href="#DejaVuSans-70" transform="translate(73.193359 0)"/>
     <use xlink:href="#DejaVuSans-20" transform="translate(136.669922 0)"/>
     <use xlink:href="#DejaVuSans-74" transform="translate(168.457031 0)"/>
     <use xlink:href="#DejaVuSans-6f" transform="translate(207.666016 0)"/>
     <use xlink:href="#DejaVuSans-20" transform="translate(268.847656 0)"/>
     <use xlink:href="#DejaVuSans-33" transform="translate(300.634766 0)"/>
    </g>
    <!-- revised descendants -->
    <g transform="translate(746.329451 189.987543) scale(0.09 -0.09)">
     <use xlink:href="#DejaVuSans-72"/>
     <use xlink:href="#DejaVuSans-65" transform="translate(38.863281 0)"/>
     <use xlink:href="#DejaVuSans-76" transform="translate(100.386719 0)"/>
     <use xlink:href="#DejaVuSans-69" transform="translate(159.566406 0)"/>
     <use xlink:href="#DejaVuSans-73" transform="translate(187.349609 0)"/>
     <use xlink:href="#DejaVuSans-65" transform="translate(239.449219 0)"/>
     <use xlink:href="#DejaVuSans-64" transform="translate(300.972656 0)"/>
     <use xlink:href="#DejaVuSans-20" transform="translate(364.449219 0)"/>
     <use xlink:href="#DejaVuSans-64" transform="translate(396.236328 0)"/>
     <use xlink:href="#DejaVuSans-65" transform="translate(459.712891 0)"/>
     <use xlink:href="#DejaVuSans-73" transform="translate(521.236328 0)"/>
     <use xlink:href="#DejaVuSans-63" transform="translate(573.335938 0)"/>
     <use xlink:href="#DejaVuSans-65" transform="translate(628.316406 0)"/>
     <use xlink:href="#DejaVuSans-6e" transform="translate(689.839844 0)"/>
     <use xlink:href="#DejaVuSans-64" transform="translate(753.21875 0)"/>
     <use xlink:href="#DejaVuSans-61" transform="translate(816.695312 0)"/>
     <use xlink:href="#DejaVuSans-6e" transform="translate(877.974609 0)"/>
     <use xlink:href="#DejaVuSans-74" transform="translate(941.353516 0)"/>
     <use xlink:href="#DejaVuSans-73" transform="translate(980.5625 0)"/>
    </g>
    <!-- each -->
    <g transform="translate(781.947654 200.065575) scale(0.09 -0.09)">
     <use xlink:href="#DejaVuSans-65"/>
     <use xlink:href="#DejaVuSans-61" transform="translate(61.523438 0)"/>
     <use xlink:href="#DejaVuSans-63" transform="translate(122.802734 0)"/>
     <use xlink:href="#DejaVuSans-68" transform="translate(177.783203 0)"/>
    </g>
   </g>
   <g id="text_21">
    <g id="patch_31">
     <path d="M 733.164138 265.56045 
L 852.436638 265.56045 
Q 856.486638 265.56045 856.486638 261.51045 
L 856.486638 242.722106 
Q 856.486638 238.672106 852.436638 238.672106 
L 733.164138 238.672106 
Q 729.114138 238.672106 729.114138 242.722106 
L 729.114138 261.51045 
Q 729.114138 265.56045 733.164138 265.56045 
z
" style="fill: #e8f5e9; stroke: #555555; stroke-width: 0.8; stroke-linejoin: miter"/>
    </g>
    <!-- Revised pool -->
    <g transform="translate(764.179685 249.5607) scale(0.09 -0.09)">
     <use xlink:href="#DejaVuSans-52"/>
     <use xlink:href="#DejaVuSans-65" transform="translate(64.982422 0)"/>
     <use xlink:href="#DejaVuSans-76" transform="translate(126.505859 0)"/>
     <use xlink:href="#DejaVuSans-69" transform="translate(185.685547 0)"/>
     <use xlink:href="#DejaVuSans-73" transform="translate(213.46875 0)"/>
     <use xlink:href="#DejaVuSans-65" transform="translate(265.568359 0)"/>
     <use xlink:href="#DejaVuSans-64" transform="translate(327.091797 0)"/>
     <use xlink:href="#DejaVuSans-20" transform="translate(390.568359 0)"/>
     <use xlink:href="#DejaVuSans-70" transform="translate(422.355469 0)"/>
     <use xlink:href="#DejaVuSans-6f" transform="translate(485.832031 0)"/>
     <use xlink:href="#DejaVuSans-6f" transform="translate(547.013672 0)"/>
     <use xlink:href="#DejaVuSans-6c" transform="translate(608.195312 0)"/>
    </g>
    <!-- ≈ originals + descendants -->
    <g transform="translate(733.164138 259.638731) scale(0.09 -0.09)">
     <defs>
      <path id="DejaVuSans-2b" d="M 2944 4013 
L 2944 2272 
L 4684 2272 
L 4684 1741 
L 2944 1741 
L 2944 0 
L 2419 0 
L 2419 1741 
L 678 1741 
L 678 2272 
L 2419 2272 
L 2419 4013 
L 2944 4013 
z
" transform="scale(0.015625)"/>
     </defs>
     <use xlink:href="#DejaVuSans-2248"/>
     <use xlink:href="#DejaVuSans-20" transform="translate(83.789062 0)"/>
     <use xlink:href="#DejaVuSans-6f" transform="translate(115.576172 0)"/>
     <use xlink:href="#DejaVuSans-72" transform="translate(176.757812 0)"/>
     <use xlink:href="#DejaVuSans-69" transform="translate(217.871094 0)"/>
     <use xlink:href="#DejaVuSans-67" transform="translate(245.654297 0)"/>
     <use xlink:href="#DejaVuSans-69" transform="translate(309.130859 0)"/>
     <use xlink:href="#DejaVuSans-6e" transform="translate(336.914062 0)"/>
     <use xlink:href="#DejaVuSans-61" transform="translate(400.292969 0)"/>
     <use xlink:href="#DejaVuSans-6c" transform="translate(461.572266 0)"/>
     <use xlink:href="#DejaVuSans-73" transform="translate(489.355469 0)"/>
     <use xlink:href="#DejaVuSans-20" transform="translate(541.455078 0)"/>
     <use xlink:href="#DejaVuSans-2b" transform="translate(573.242188 0)"/>
     <use xlink:href="#DejaVuSans-20" transform="translate(657.03125 0)"/>
     <use xlink:href="#DejaVuSans-64" transform="translate(688.818359 0)"/>
     <use xlink:href="#DejaVuSans-65" transform="translate(752.294922 0)"/>
     <use xlink:href="#DejaVuSans-73" transform="translate(813.818359 0)"/>
     <use xlink:href="#DejaVuSans-63" transform="translate(865.917969 0)"/>
     <use xlink:href="#DejaVuSans-65" transform="translate(920.898438 0)"/>
     <use xlink:href="#DejaVuSans-6e" transform="translate(982.421875 0)"/>
     <use xlink:href="#DejaVuSans-64" transform="translate(1045.800781 0)"/>
     <use xlink:href="#DejaVuSans-61" transform="translate(1109.277344 0)"/>
     <use xlink:href="#DejaVuSans-6e" transform="translate(1170.556641 0)"/>
     <use xlink:href="#DejaVuSans-74" transform="translate(1233.935547 0)"/>
     <use xlink:href="#DejaVuSans-73" transform="translate(1273.144531 0)"/>
    </g>
   </g>
   <g id="text_22">
    <g id="patch_32">
     <path d="M 761.985232 324.019081 
L 823.615544 324.019081 
Q 827.665544 324.019081 827.665544 319.969081 
L 827.665544 301.180738 
Q 827.665544 297.130738 823.615544 297.130738 
L 761.985232 297.130738 
Q 757.935232 297.130738 757.935232 301.180738 
L 757.935232 319.969081 
Q 757.935232 324.019081 761.985232 324.019081 
z
" style="fill: #fdecea; stroke: #555555; stroke-width: 0.8; stroke-linejoin: miter"/>
    </g>
    <!-- Scoring gates -->
    <g transform="translate(761.985232 308.019331) scale(0.09 -0.09)">
     <defs>
      <path id="DejaVuSans-53" d="M 3425 4513 
L 3425 3897 
Q 3066 4069 2747 4153 
Q 2428 4238 2131 4238 
Q 1616 4238 1336 4038 
Q 1056 3838 1056 3469 
Q 1056 3159 1242 3001 
Q 1428 2844 1947 2747 
L 2328 2669 
Q 3034 2534 3370 2195 
Q 3706 1856 3706 1288 
Q 3706 609 3251 259 
Q 2797 -91 1919 -91 
Q 1588 -91 1214 -16 
Q 841 59 441 206 
L 441 856 
Q 825 641 1194 531 
Q 1563 422 1919 422 
Q 2459 422 2753 634 
Q 3047 847 3047 1241 
Q 3047 1584 2836 1778 
Q 2625 1972 2144 2069 
L 1759 2144 
Q 1053 2284 737 2584 
Q 422 2884 422 3419 
Q 422 4038 858 4394 
Q 1294 4750 2059 4750 
Q 2388 4750 2728 4690 
Q 3069 4631 3425 4513 
z
" transform="scale(0.015625)"/>
     </defs>
     <use xlink:href="#DejaVuSans-53"/>
     <use xlink:href="#DejaVuSans-63" transform="translate(63.476562 0)"/>
     <use xlink:href="#DejaVuSans-6f" transform="translate(118.457031 0)"/>
     <use xlink:href="#DejaVuSans-72" transform="translate(179.638672 0)"/>
     <use xlink:href="#DejaVuSans-69" transform="translate(220.751953 0)"/>
     <use xlink:href="#DejaVuSans-6e" transform="translate(248.535156 0)"/>
     <use xlink:href="#DejaVuSans-67" transform="translate(311.914062 0)"/>
     <use xlink:href="#DejaVuSans-20" transform="translate(375.390625 0)"/>
     <use xlink:href="#DejaVuSans-67" transform="translate(407.177734 0)"/>
     <use xlink:href="#DejaVuSans-61" transform="translate(470.654297 0)"/>
     <use xlink:href="#DejaVuSans-74" transform="translate(531.933594 0)"/>
     <use xlink:href="#DejaVuSans-65" transform="translate(571.142578 0)"/>
     <use xlink:href="#DejaVuSans-73" transform="translate(632.666016 0)"/>
    </g>
    <!-- remove ~half -->
    <g transform="translate(762.068904 318.097363) scale(0.09 -0.09)">
     <defs>
      <path id="DejaVuSans-6d" d="M 3328 2828 
Q 3544 3216 3844 3400 
Q 4144 3584 4550 3584 
Q 5097 3584 5394 3201 
Q 5691 2819 5691 2113 
L 5691 0 
L 5113 0 
L 5113 2094 
Q 5113 2597 4934 2840 
Q 4756 3084 4391 3084 
Q 3944 3084 3684 2787 
Q 3425 2491 3425 1978 
L 3425 0 
L 2847 0 
L 2847 2094 
Q 2847 2600 2669 2842 
Q 2491 3084 2119 3084 
Q 1678 3084 1418 2786 
Q 1159 2488 1159 1978 
L 1159 0 
L 581 0 
L 581 3500 
L 1159 3500 
L 1159 2956 
Q 1356 3278 1631 3431 
Q 1906 3584 2284 3584 
Q 2666 3584 2933 3390 
Q 3200 3197 3328 2828 
z
" transform="scale(0.015625)"/>
      <path id="DejaVuSans-7e" d="M 4684 2553 
L 4684 1997 
Q 4356 1750 4076 1644 
Q 3797 1538 3494 1538 
Q 3150 1538 2694 1722 
Q 2659 1734 2644 1741 
Q 2622 1750 2575 1766 
Q 2091 1959 1797 1959 
Q 1522 1959 1253 1839 
Q 984 1719 678 1459 
L 678 2016 
Q 1006 2263 1286 2370 
Q 1566 2478 1869 2478 
Q 2213 2478 2672 2291 
Q 2703 2278 2719 2272 
Q 2744 2263 2788 2247 
Q 3272 2053 3566 2053 
Q 3834 2053 4098 2172 
Q 4363 2291 4684 2553 
z
" transform="scale(0.015625)"/>
     </defs>
     <use xlink:href="#DejaVuSans-72"/>
     <use xlink:href="#DejaVuSans-65" transform="translate(38.863281 0)"/>
     <use xlink:href="#DejaVuSans-6d" transform="translate(100.386719 0)"/>
     <use xlink:href="#DejaVuSans-6f" transform="translate(197.798828 0)"/>
     <use xlink:href="#DejaVuSans-76" transform="translate(258.980469 0)"/>
     <use xlink:href="#DejaVuSans-65" transform="translate(318.160156 0)"/>
     <use xlink:href="#DejaVuSans-20" transform="translate(379.683594 0)"/>
     <use xlink:href="#DejaVuSans-7e" transform="translate(411.470703 0)"/>
     <use xlink:href="#DejaVuSans-68" transform="translate(495.259766 0)"/>
     <use xlink:href="#DejaVuSans-61" transform="translate(558.638672 0)"/>
     <use xlink:href="#DejaVuSans-6c" transform="translate(619.917969 0)"/>
     <use xlink:href="#DejaVuSans-66" transform="translate(647.701172 0)"/>
    </g>
   </g>
   <g id="patch_33">
    <path d="M 792.800388 81.81788 
Q 792.800388 90.586961 792.800388 98.014401 
" style="fill: none; stroke: #444444; stroke-width: 1.2; stroke-linecap: round"/>
    <path d="M 794.800388 94.014401 
L 792.800388 98.014401 
L 790.800388 94.014401 
" style="fill: none; stroke: #444444; stroke-width: 1.2; stroke-linecap: round"/>
   </g>
   <g id="patch_34">
    <path d="M 792.800388 146.430052 
Q 792.800388 155.199133 792.800388 162.626573 
" style="fill: none; stroke: #444444; stroke-width: 1.2; stroke-linecap: round"/>
    <path d="M 794.800388 158.626573 
L 792.800388 162.626573 
L 790.800388 158.626573 
" style="fill: none; stroke: #444444; stroke-width: 1.2; stroke-linecap: round"/>
   </g>
   <g id="patch_35">
    <path d="M 792.800388 211.042223 
Q 792.800388 219.811305 792.800388 227.238745 
" style="fill: none; stroke: #444444; stroke-width: 1.2; stroke-linecap: round"/>
    <path d="M 794.800388 223.238745 
L 792.800388 227.238745 
L 790.800388 223.238745 
" style="fill: none; stroke: #444444; stroke-width: 1.2; stroke-linecap: round"/>
   </g>
   <g id="patch_36">
    <path d="M 792.800388 275.655522 
Q 792.800388 281.345158 792.800388 285.693152 
" style="fill: none; stroke: #444444; stroke-width: 1.2; stroke-linecap: round"/>
    <path d="M 794.800388 281.693152 
L 792.800388 285.693152 
L 790.800388 281.693152 
" style="fill: none; stroke: #444444; stroke-width: 1.2; stroke-linecap: round"/>
   </g>
   <g id="text_23">
    <!-- The bars are activity counts, -->
    <g style="fill: #444444" transform="translate(732.137615 360.108362) scale(0.085 -0.085)">
     <defs>
      <path id="DejaVuSans-54" d="M -19 4666 
L 3928 4666 
L 3928 4134 
L 2272 4134 
L 2272 0 
L 1638 0 
L 1638 4134 
L -19 4134 
L -19 4666 
z
" transform="scale(0.015625)"/>
      <path id="DejaVuSans-2c" d="M 750 794 
L 1409 794 
L 1409 256 
L 897 -744 
L 494 -744 
L 750 256 
L 750 794 
z
" transform="scale(0.015625)"/>
     </defs>
     <use xlink:href="#DejaVuSans-54"/>
     <use xlink:href="#DejaVuSans-68" transform="translate(61.083984 0)"/>
     <use xlink:href="#DejaVuSans-65" transform="translate(124.462891 0)"/>
     <use xlink:href="#DejaVuSans-20" transform="translate(185.986328 0)"/>
     <use xlink:href="#DejaVuSans-62" transform="translate(217.773438 0)"/>
     <use xlink:href="#DejaVuSans-61" transform="translate(281.25 0)"/>
     <use xlink:href="#DejaVuSans-72" transform="translate(342.529297 0)"/>
     <use xlink:href="#DejaVuSans-73" transform="translate(383.642578 0)"/>
     <use xlink:href="#DejaVuSans-20" transform="translate(435.742188 0)"/>
     <use xlink:href="#DejaVuSans-61" transform="translate(467.529297 0)"/>
     <use xlink:href="#DejaVuSans-72" transform="translate(528.808594 0)"/>
     <use xlink:href="#DejaVuSans-65" transform="translate(567.671875 0)"/>
     <use xlink:href="#DejaVuSans-20" transform="translate(629.195312 0)"/>
     <use xlink:href="#DejaVuSans-61" transform="translate(660.982422 0)"/>
     <use xlink:href="#DejaVuSans-63" transform="translate(722.261719 0)"/>
     <use xlink:href="#DejaVuSans-74" transform="translate(777.242188 0)"/>
     <use xlink:href="#DejaVuSans-69" transform="translate(816.451172 0)"/>
     <use xlink:href="#DejaVuSans-76" transform="translate(844.234375 0)"/>
     <use xlink:href="#DejaVuSans-69" transform="translate(903.414062 0)"/>
     <use xlink:href="#DejaVuSans-74" transform="translate(931.197266 0)"/>
     <use xlink:href="#DejaVuSans-79" transform="translate(970.40625 0)"/>
     <use xlink:href="#DejaVuSans-20" transform="translate(1029.585938 0)"/>
     <use xlink:href="#DejaVuSans-63" transform="translate(1061.373047 0)"/>
     <use xlink:href="#DejaVuSans-6f" transform="translate(1116.353516 0)"/>
     <use xlink:href="#DejaVuSans-75" transform="translate(1177.535156 0)"/>
     <use xlink:href="#DejaVuSans-6e" transform="translate(1240.914062 0)"/>
     <use xlink:href="#DejaVuSans-74" transform="translate(1304.292969 0)"/>
     <use xlink:href="#DejaVuSans-73" transform="translate(1343.501953 0)"/>
     <use xlink:href="#DejaVuSans-2c" transform="translate(1395.601562 0)"/>
    </g>
    <!-- not independent design classes. -->
    <g style="fill: #444444" transform="translate(724.092498 369.626503) scale(0.085 -0.085)">
     <defs>
      <path id="DejaVuSans-2e" d="M 684 794 
L 1344 794 
L 1344 0 
L 684 0 
L 684 794 
z
" transform="scale(0.015625)"/>
     </defs>
     <use xlink:href="#DejaVuSans-6e"/>
     <use xlink:href="#DejaVuSans-6f" transform="translate(63.378906 0)"/>
     <use xlink:href="#DejaVuSans-74" transform="translate(124.560547 0)"/>
     <use xlink:href="#DejaVuSans-20" transform="translate(163.769531 0)"/>
     <use xlink:href="#DejaVuSans-69" transform="translate(195.556641 0)"/>
     <use xlink:href="#DejaVuSans-6e" transform="translate(223.339844 0)"/>
     <use xlink:href="#DejaVuSans-64" transform="translate(286.71875 0)"/>
     <use xlink:href="#DejaVuSans-65" transform="translate(350.195312 0)"/>
     <use xlink:href="#DejaVuSans-70" transform="translate(411.71875 0)"/>
     <use xlink:href="#DejaVuSans-65" transform="translate(475.195312 0)"/>
     <use xlink:href="#DejaVuSans-6e" transform="translate(536.71875 0)"/>
     <use xlink:href="#DejaVuSans-64" transform="translate(600.097656 0)"/>
     <use xlink:href="#DejaVuSans-65" transform="translate(663.574219 0)"/>
     <use xlink:href="#DejaVuSans-6e" transform="translate(725.097656 0)"/>
     <use xlink:href="#DejaVuSans-74" transform="translate(788.476562 0)"/>
     <use xlink:href="#DejaVuSans-20" transform="translate(827.685547 0)"/>
     <use xlink:href="#DejaVuSans-64" transform="translate(859.472656 0)"/>
     <use xlink:href="#DejaVuSans-65" transform="translate(922.949219 0)"/>
     <use xlink:href="#DejaVuSans-73" transform="translate(984.472656 0)"/>
     <use xlink:href="#DejaVuSans-69" transform="translate(1036.572266 0)"/>
     <use xlink:href="#DejaVuSans-67" transform="translate(1064.355469 0)"/>
     <use xlink:href="#DejaVuSans-6e" transform="translate(1127.832031 0)"/>
     <use xlink:href="#DejaVuSans-20" transform="translate(1191.210938 0)"/>
     <use xlink:href="#DejaVuSans-63" transform="translate(1222.998047 0)"/>
     <use xlink:href="#DejaVuSans-6c" transform="translate(1277.978516 0)"/>
     <use xlink:href="#DejaVuSans-61" transform="translate(1305.761719 0)"/>
     <use xlink:href="#DejaVuSans-73" transform="translate(1367.041016 0)"/>
     <use xlink:href="#DejaVuSans-73" transform="translate(1419.140625 0)"/>
     <use xlink:href="#DejaVuSans-65" transform="translate(1471.240234 0)"/>
     <use xlink:href="#DejaVuSans-73" transform="translate(1532.763672 0)"/>
     <use xlink:href="#DejaVuSans-2e" transform="translate(1584.863281 0)"/>
    </g>
   </g>
   <g id="text_24">
    <!-- Why Counts Scale -->
    <g transform="translate(743.128513 11.358521) scale(0.11 -0.11)">
     <defs>
      <path id="DejaVuSans-57" d="M 213 4666 
L 850 4666 
L 1831 722 
L 2809 4666 
L 3519 4666 
L 4500 722 
L 5478 4666 
L 6119 4666 
L 4947 0 
L 4153 0 
L 3169 4050 
L 2175 0 
L 1381 0 
L 213 4666 
z
" transform="scale(0.015625)"/>
     </defs>
     <use xlink:href="#DejaVuSans-57"/>
     <use xlink:href="#DejaVuSans-68" transform="translate(98.876953 0)"/>
     <use xlink:href="#DejaVuSans-79" transform="translate(162.255859 0)"/>
     <use xlink:href="#DejaVuSans-20" transform="translate(221.435547 0)"/>
     <use xlink:href="#DejaVuSans-43" transform="translate(253.222656 0)"/>
     <use xlink:href="#DejaVuSans-6f" transform="translate(323.046875 0)"/>
     <use xlink:href="#DejaVuSans-75" transform="translate(384.228516 0)"/>
     <use xlink:href="#DejaVuSans-6e" transform="translate(447.607422 0)"/>
     <use xlink:href="#DejaVuSans-74" transform="translate(510.986328 0)"/>
     <use xlink:href="#DejaVuSans-73" transform="translate(550.195312 0)"/>
     <use xlink:href="#DejaVuSans-20" transform="translate(602.294922 0)"/>
     <use xlink:href="#DejaVuSans-53" transform="translate(634.082031 0)"/>
     <use xlink:href="#DejaVuSans-63" transform="translate(697.558594 0)"/>
     <use xlink:href="#DejaVuSans-61" transform="translate(752.539062 0)"/>
     <use xlink:href="#DejaVuSans-6c" transform="translate(813.818359 0)"/>
     <use xlink:href="#DejaVuSans-65" transform="translate(841.601562 0)"/>
    </g>
   </g>
  </g>
 </g>
 <defs>
  <clipPath id="p7b4d1fc243">
   <rect x="42.765865" y="21.358521" width="615.019151" height="307.677009"/>
  </clipPath>
 </defs>
</svg>
