<?xml version="1.0" encoding="UTF-8" standalone="no"?>
<!DOCTYPE svg PUBLIC "-//W3C//DTD SVG 1.1//EN"
 "http://www.w3.org/Graphics/SVG/1.1/DTD/svg11.dtd">
<!-- Generated by graphviz version 14.1.2 (20260126.1125)
 -->
<!-- Pages: 1 -->
<svg width="5294pt" height="1232pt"
 viewBox="0.00 0.00 5294.00 1232.00" xmlns="http://www.w3.org/2000/svg" xmlns:xlink="http://www.w3.org/1999/xlink">
<g id="graph0" class="graph" transform="scale(2.5 2.5) rotate(0) translate(14.4 478.4)">
<polygon fill="white" stroke="none" points="-14.4,14.4 -14.4,-478.4 2103.15,-478.4 2103.15,14.4 -14.4,14.4"/>
<text xml:space="preserve" text-anchor="start" x="880.12" y="-448.65" font-family="Arial" font-weight="bold" font-size="13.00" fill="#111827">multi&#45;stage: coil + packed bed + photochemical coil</text>
<!-- pump_a -->
<g id="node1" class="node">
<title>pump_a</title>
<image xlink:href="_pump_trimmed.png" width="106px" height="105.045px" preserveAspectRatio="xMinYMin meet" x="2" y="-345.523"/>
<text xml:space="preserve" text-anchor="start" x="36.25" y="-227.5" font-family="Arial" font-weight="bold" font-size="10.00" fill="#111827">Pump A</text>
<text xml:space="preserve" text-anchor="start" x="13" y="-214.4" font-family="Arial" font-size="8.00" fill="#1e40af">Amine substrate S in …</text>
<text xml:space="preserve" text-anchor="start" x="33.62" y="-202.65" font-family="Arial" font-size="8.00" fill="#374151">MeCN (dry)</text>
<text xml:space="preserve" text-anchor="start" x="29.12" y="-190.95" font-family="Arial" font-weight="bold" font-size="9.00" fill="#2563eb">0.05 mL/min</text>
</g>
<!-- _pre_st1_mixer -->
<g id="node17" class="node">
<title>_pre_st1_mixer</title>
<image xlink:href="mixer2.png" width="110px" height="110px" preserveAspectRatio="xMinYMin meet" x="159" y="-254"/>
</g>
<!-- pump_a&#45;&gt;_pre_st1_mixer -->
<g id="edge1" class="edge">
<title>pump_a:e&#45;&gt;_pre_st1_mixer:nw</title>
<path fill="none" stroke="#27408b" stroke-width="2" d="M114,-293C114,-293 139.82,-270.11 151.93,-259.38"/>
<polygon fill="#27408b" stroke="#27408b" stroke-width="2" points="152.95,-261.04 155.79,-255.96 150.39,-258.16 152.95,-261.04"/>
</g>
<!-- pump_b -->
<g id="node2" class="node">
<title>pump_b</title>
<image xlink:href="_pump_trimmed.png" width="106px" height="105.045px" preserveAspectRatio="xMinYMin meet" x="2" y="-158.523"/>
<text xml:space="preserve" text-anchor="start" x="35.88" y="-40.5" font-family="Arial" font-weight="bold" font-size="10.00" fill="#111827">Pump B</text>
<text xml:space="preserve" text-anchor="start" x="12.62" y="-27.4" font-family="Arial" font-size="8.00" fill="#1e40af">Acid chloride RCOCl i…</text>
<text xml:space="preserve" text-anchor="start" x="33.62" y="-15.65" font-family="Arial" font-size="8.00" fill="#374151">MeCN (dry)</text>
<text xml:space="preserve" text-anchor="start" x="29.12" y="-3.95" font-family="Arial" font-weight="bold" font-size="9.00" fill="#2563eb">0.05 mL/min</text>
</g>
<!-- pump_b&#45;&gt;_pre_st1_mixer -->
<g id="edge2" class="edge">
<title>pump_b:e&#45;&gt;_pre_st1_mixer:sw</title>
<path fill="none" stroke="#27408b" stroke-width="2" d="M114,-106C114,-106 140.99,-128.31 153.65,-138.76"/>
<polygon fill="#27408b" stroke="#27408b" stroke-width="2" points="152.25,-140.1 157.72,-142.12 154.7,-137.14 152.25,-140.1"/>
</g>
<!-- pump_c -->
<g id="node3" class="node">
<title>pump_c</title>
<image xlink:href="_pump_trimmed.png" width="106px" height="105.045px" preserveAspectRatio="xMinYMin meet" x="159" y="-437.523"/>
<text xml:space="preserve" text-anchor="start" x="192.88" y="-319.5" font-family="Arial" font-weight="bold" font-size="10.00" fill="#111827">Pump C</text>
<text xml:space="preserve" text-anchor="start" x="172.25" y="-306.4" font-family="Arial" font-size="8.00" fill="#1e40af">Triethylamine in dry …</text>
<text xml:space="preserve" text-anchor="start" x="190.62" y="-294.65" font-family="Arial" font-size="8.00" fill="#374151">MeCN (dry)</text>
<text xml:space="preserve" text-anchor="start" x="186.12" y="-282.95" font-family="Arial" font-weight="bold" font-size="9.00" fill="#2563eb">0.05 mL/min</text>
</g>
<!-- st1_mixer -->
<g id="node4" class="node">
<title>st1_mixer</title>
<image xlink:href="mixer3.png" width="110px" height="110px" preserveAspectRatio="xMinYMin meet" x="314" y="-320"/>
</g>
<!-- pump_c&#45;&gt;st1_mixer -->
<g id="edge4" class="edge">
<title>pump_c:e&#45;&gt;st1_mixer:nw</title>
<path fill="none" stroke="#27408b" stroke-width="2" d="M271,-385C271,-385 298.31,-343.69 309.4,-326.91"/>
<polygon fill="#27408b" stroke="#27408b" stroke-width="2" points="310.9,-328.12 312.33,-322.47 307.69,-326 310.9,-328.12"/>
</g>
<!-- st1_reactor -->
<g id="node5" class="node">
<title>st1_reactor</title>
<image xlink:href="coil_reactor.png" width="104px" height="104px" preserveAspectRatio="xMinYMin meet" x="480.625" y="-325.25"/>
<text xml:space="preserve" text-anchor="start" x="470" y="-206.7" font-family="Arial" font-size="9.00" fill="#111827">0.0°C &#160;· &#160;τ=4.2 min &#160;· &#160;V=0.6 mL</text>
</g>
<!-- st1_mixer&#45;&gt;st1_reactor -->
<g id="edge5" class="edge">
<title>st1_mixer:e&#45;&gt;st1_reactor:w</title>
<path fill="none" stroke="#27408b" stroke-width="2" d="M424,-265C424,-265 446.21,-265 458.71,-265"/>
<polygon fill="#27408b" stroke="#27408b" stroke-width="2" points="458.47,-266.93 463.97,-265 458.47,-263.08 458.47,-266.93"/>
</g>
<!-- st1_post -->
<g id="node6" class="node">
<title>st1_post</title>
<polygon fill="#f8fafc" stroke="none" points="679.12,-258.75 679.12,-287.25 717.38,-287.25 717.38,-258.75 679.12,-258.75"/>
<text xml:space="preserve" text-anchor="start" x="688.12" y="-269.7" font-family="Arial" font-size="9.00" fill="#1e293b">Filter</text>
<polygon fill="none" stroke="#94a3b8" points="679.12,-258.75 679.12,-287.25 717.38,-287.25 717.38,-258.75 679.12,-258.75"/>
</g>
<!-- st1_reactor&#45;&gt;st1_post -->
<g id="edge6" class="edge">
<title>st1_reactor:e&#45;&gt;st1_post:w</title>
<path fill="none" stroke="#27408b" stroke-width="2" d="M598.25,-273.25C598.25,-273.25 648.48,-273.09 668.89,-273.03"/>
<polygon fill="#27408b" stroke="#27408b" stroke-width="2" points="668.83,-274.95 674.32,-273.01 668.82,-271.1 668.83,-274.95"/>
</g>
<!-- st2_mixer -->
<g id="node8" class="node">
<title>st2_mixer</title>
<image xlink:href="mixer2.png" width="110px" height="110px" preserveAspectRatio="xMinYMin meet" x="798.25" y="-274"/>
</g>
<!-- st1_post&#45;&gt;st2_mixer -->
<g id="edge7" class="edge">
<title>st1_post:e&#45;&gt;st2_mixer:nw</title>
<path fill="none" stroke="#27408b" stroke-width="2" d="M719.38,-273C719.38,-273 769.46,-273.6 789.81,-273.85"/>
<polygon fill="#27408b" stroke="#27408b" stroke-width="2" points="789.7,-275.77 795.22,-273.91 789.75,-271.92 789.7,-275.77"/>
</g>
<!-- pump_d -->
<g id="node7" class="node">
<title>pump_d</title>
<image xlink:href="mfc.png" width="106px" height="106px" preserveAspectRatio="xMinYMin meet" x="643.25" y="-217.875"/>
<text xml:space="preserve" text-anchor="start" x="680.12" y="-99.38" font-family="Arial" font-weight="bold" font-size="10.00" fill="#111827">MFC D</text>
<text xml:space="preserve" text-anchor="start" x="667.38" y="-86.28" font-family="Arial" font-size="8.00" fill="#dc2626">H2 gas via MFC</text>
<text xml:space="preserve" text-anchor="start" x="676" y="-74.53" font-family="Arial" font-size="8.00" fill="#374151">22.46 sccm</text>
<text xml:space="preserve" text-anchor="start" x="662.88" y="-63.73" font-family="Arial" font-size="7.00" fill="#6b7280">3.100 mL/min reactor</text>
</g>
<!-- pump_d&#45;&gt;st2_mixer -->
<g id="edge8" class="edge">
<title>pump_d:e&#45;&gt;st2_mixer:sw</title>
<path fill="none" stroke="#27408b" stroke-width="2" d="M755.25,-164.88C755.25,-164.88 798.25,-164 798.25,-164 798.25,-164 798.25,-164 798.27,-164"/>
<polygon fill="#27408b" stroke="#27408b" stroke-width="2" points="790.69,-165.55 796.28,-163.9 790.88,-161.7 790.69,-165.55"/>
</g>
<!-- st2_deoxy -->
<g id="node9" class="node">
<title>st2_deoxy</title>
<image xlink:href="degasser.png" width="104px" height="104px" preserveAspectRatio="xMinYMin meet" x="954.25" y="-287.5"/>
<text xml:space="preserve" text-anchor="start" x="986.38" y="-168.95" font-family="Arial" font-size="9.00" fill="#111827">Degasser</text>
<text xml:space="preserve" text-anchor="start" x="981.12" y="-152.45" font-family="Arial" font-size="9.00" fill="#111827">N2 sparging</text>
</g>
<!-- st2_mixer&#45;&gt;st2_deoxy -->
<g id="edge9" class="edge">
<title>st2_mixer:e&#45;&gt;st2_deoxy:w</title>
<path fill="none" stroke="#27408b" stroke-width="2" d="M908.25,-219C908.25,-219 930.46,-219 942.96,-219"/>
<polygon fill="#27408b" stroke="#27408b" stroke-width="2" points="942.72,-220.93 948.22,-219 942.72,-217.08 942.72,-220.93"/>
</g>
<!-- st2_reactor -->
<g id="node10" class="node">
<title>st2_reactor</title>
<image xlink:href="coil_reactor.png" width="104px" height="104px" preserveAspectRatio="xMinYMin meet" x="1120.5" y="-295.25"/>
<text xml:space="preserve" text-anchor="start" x="1107.25" y="-176.7" font-family="Arial" font-size="9.00" fill="#111827">25.0°C &#160;· &#160;τ=8.4 min &#160;· &#160;V=2.9 mL</text>
</g>
<!-- st2_deoxy&#45;&gt;st2_reactor -->
<g id="edge10" class="edge">
<title>st2_deoxy:e&#45;&gt;st2_reactor:w</title>
<path fill="none" stroke="#27408b" stroke-width="2" d="M1061.25,-235.5C1061.25,-235.5 1083.46,-235.24 1095.96,-235.1"/>
<polygon fill="#27408b" stroke="#27408b" stroke-width="2" points="1095.75,-237.02 1101.22,-235.04 1095.7,-233.17 1095.75,-237.02"/>
</g>
<!-- st2_post -->
<g id="node11" class="node">
<title>st2_post</title>
<polygon fill="#f8fafc" stroke="none" points="1321.62,-228.75 1321.62,-257.25 1359.88,-257.25 1359.88,-228.75 1321.62,-228.75"/>
<text xml:space="preserve" text-anchor="start" x="1330.62" y="-239.7" font-family="Arial" font-size="9.00" fill="#1e293b">Filter</text>
<polygon fill="none" stroke="#94a3b8" points="1321.62,-228.75 1321.62,-257.25 1359.88,-257.25 1359.88,-228.75 1321.62,-228.75"/>
</g>
<!-- st2_reactor&#45;&gt;st2_post -->
<g id="edge11" class="edge">
<title>st2_reactor:e&#45;&gt;st2_post:w</title>
<path fill="none" stroke="#27408b" stroke-width="2" d="M1240.75,-243.25C1240.75,-243.25 1290.98,-243.09 1311.39,-243.03"/>
<polygon fill="#27408b" stroke="#27408b" stroke-width="2" points="1311.33,-244.95 1316.82,-243.01 1311.32,-241.1 1311.33,-244.95"/>
</g>
<!-- st3_mixer -->
<g id="node13" class="node">
<title>st3_mixer</title>
<image xlink:href="mixer2.png" width="110px" height="110px" preserveAspectRatio="xMinYMin meet" x="1440.75" y="-244"/>
</g>
<!-- st2_post&#45;&gt;st3_mixer -->
<g id="edge12" class="edge">
<title>st2_post:e&#45;&gt;st3_mixer:nw</title>
<path fill="none" stroke="#27408b" stroke-width="2" d="M1361.88,-243C1361.88,-243 1411.96,-243.6 1432.31,-243.85"/>
<polygon fill="#27408b" stroke="#27408b" stroke-width="2" points="1432.2,-245.77 1437.72,-243.91 1432.25,-241.92 1432.2,-245.77"/>
</g>
<!-- pump_e -->
<g id="node12" class="node">
<title>pump_e</title>
<image xlink:href="mfc.png" width="106px" height="106px" preserveAspectRatio="xMinYMin meet" x="1285.75" y="-187.875"/>
<text xml:space="preserve" text-anchor="start" x="1323" y="-69.38" font-family="Arial" font-weight="bold" font-size="10.00" fill="#111827">MFC E</text>
<text xml:space="preserve" text-anchor="start" x="1294.12" y="-56.27" font-family="Arial" font-size="8.00" fill="#dc2626">Compressed air via MFC</text>
<text xml:space="preserve" text-anchor="start" x="1318.5" y="-44.52" font-family="Arial" font-size="8.00" fill="#374151">22.46 sccm</text>
<text xml:space="preserve" text-anchor="start" x="1305.38" y="-33.73" font-family="Arial" font-size="7.00" fill="#6b7280">3.100 mL/min reactor</text>
</g>
<!-- pump_e&#45;&gt;st3_mixer -->
<g id="edge13" class="edge">
<title>pump_e:e&#45;&gt;st3_mixer:sw</title>
<path fill="none" stroke="#27408b" stroke-width="2" d="M1397.75,-134.88C1397.75,-134.88 1440.75,-134 1440.75,-134 1440.75,-134 1440.75,-134 1440.77,-134"/>
<polygon fill="#27408b" stroke="#27408b" stroke-width="2" points="1433.19,-135.55 1438.78,-133.9 1433.38,-131.7 1433.19,-135.55"/>
</g>
<!-- st3_reactor -->
<g id="node14" class="node">
<title>st3_reactor</title>
<image xlink:href="photoreactor.png" width="113.77px" height="104px" preserveAspectRatio="xMinYMin meet" x="1631.37" y="-249.25"/>
<text xml:space="preserve" text-anchor="start" x="1596.75" y="-130.7" font-family="Arial" font-size="9.00" fill="#111827">25.0°C &#160;· &#160;λ=455 nm &#160;· &#160;τ=4.2 min &#160;· &#160;V=1.5 mL</text>
</g>
<!-- st3_mixer&#45;&gt;st3_reactor -->
<g id="edge14" class="edge">
<title>st3_mixer:e&#45;&gt;st3_reactor:w</title>
<path fill="none" stroke="#27408b" stroke-width="2" d="M1550.75,-189C1550.75,-189 1572.96,-189 1585.46,-189"/>
<polygon fill="#27408b" stroke="#27408b" stroke-width="2" points="1585.22,-190.93 1590.72,-189 1585.22,-187.08 1585.22,-190.93"/>
</g>
<!-- bpr_final -->
<g id="node15" class="node">
<title>bpr_final</title>
<image xlink:href="bpr.png" width="104px" height="104px" preserveAspectRatio="xMinYMin meet" x="1828.75" y="-265.5"/>
<text xml:space="preserve" text-anchor="start" x="1871.38" y="-146.95" font-family="Arial" font-size="9.00" fill="#111827">BPR</text>
<text xml:space="preserve" text-anchor="start" x="1868" y="-130.45" font-family="Arial" font-size="9.00" fill="#111827"> &#160;7 bar</text>
</g>
<!-- st3_reactor&#45;&gt;bpr_final -->
<g id="edge15" class="edge">
<title>st3_reactor:e&#45;&gt;bpr_final:w</title>
<path fill="none" stroke="#27408b" stroke-width="2" d="M1782.75,-197.25C1782.75,-197.25 1804.96,-197.12 1817.46,-197.05"/>
<polygon fill="#27408b" stroke="#27408b" stroke-width="2" points="1817.23,-198.97 1822.72,-197.02 1817.21,-195.12 1817.23,-198.97"/>
</g>
<!-- collector_1 -->
<g id="node16" class="node">
<title>collector_1</title>
<image xlink:href="vial.png" width="104px" height="104px" preserveAspectRatio="xMinYMin meet" x="1981.75" y="-273.25"/>
<text xml:space="preserve" text-anchor="start" x="1996.25" y="-154.7" font-family="Arial" font-size="9.00" fill="#111827">Product Collection</text>
</g>
<!-- bpr_final&#45;&gt;collector_1 -->
<g id="edge16" class="edge">
<title>bpr_final:e&#45;&gt;collector_1:w</title>
<path fill="none" stroke="#27408b" stroke-width="2" d="M1935.75,-213.5C1935.75,-213.5 1957.96,-213.24 1970.46,-213.1"/>
<polygon fill="#27408b" stroke="#27408b" stroke-width="2" points="1970.25,-215.02 1975.72,-213.04 1970.2,-211.17 1970.25,-215.02"/>
</g>
<!-- _pre_st1_mixer&#45;&gt;st1_mixer -->
<g id="edge3" class="edge">
<title>_pre_st1_mixer:e&#45;&gt;st1_mixer:w</title>
<path fill="none" stroke="#27408b" stroke-width="2" d="M270,-199C270,-199 297.94,-240.91 309.29,-257.94"/>
<polygon fill="#27408b" stroke="#27408b" stroke-width="2" points="307.67,-258.97 312.32,-262.48 310.87,-256.84 307.67,-258.97"/>
</g>
</g>
</svg>
