<?xml version="1.0" encoding="utf-8" standalone="no"?>
<!DOCTYPE svg PUBLIC "-//W3C//DTD SVG 1.1//EN"
  "http://www.w3.org/Graphics/SVG/1.1/DTD/svg11.dtd">
<svg xmlns:xlink="http://www.w3.org/1999/xlink" width="532.8pt" height="446.4pt" viewBox="0 0 532.8 446.4" xmlns="http://www.w3.org/2000/svg" version="1.1">
 <metadata>
  <rdf:RDF xmlns:dc="http://purl.org/dc/elements/1.1/" xmlns:cc="http://creativecommons.org/ns#" xmlns:rdf="http://www.w3.org/1999/02/22-rdf-syntax-ns#">
   <cc:Work>
    <dc:type rdf:resource="http://purl.org/dc/dcmitype/StillImage"/>
    <dc:date>2026-05-07T11:49:59.914640</dc:date>
    <dc:format>image/svg+xml</dc:format>
    <dc:creator>
     <cc:Agent>
      <dc:title>Matplotlib v3.10.8, https://matplotlib.org/</dc:title>
     </cc:Agent>
    </dc:creator>
   </cc:Work>
  </rdf:RDF>
 </metadata>
 <defs>
  <style type="text/css">*{stroke-linejoin: round; stroke-linecap: butt}</style>
 </defs>
 <g id="figure_1">
  <g id="patch_1">
   <path d="M 0 446.4 
L 532.8 446.4 
L 532.8 0 
L 0 0 
z
" style="fill: #ffffff"/>
  </g>
  <g id="axes_1">
   <g id="patch_2">
    <path d="M 39.58149 413.04351 
L 529.79976 413.04351 
L 529.79976 31.55574 
L 39.58149 31.55574 
z
" style="fill: #ffffff"/>
   </g>
   <g id="PathCollection_1">
    <defs>
     <path id="mc55cfe701c" d="M 0 4.743416 
C 1.257969 4.743416 2.464584 4.24362 3.354102 3.354102 
C 4.24362 2.464584 4.743416 1.257969 4.743416 0 
C 4.743416 -1.257969 4.24362 -2.464584 3.354102 -3.354102 
C 2.464584 -4.24362 1.257969 -4.743416 0 -4.743416 
C -1.257969 -4.743416 -2.464584 -4.24362 -3.354102 -3.354102 
C -4.24362 -2.464584 -4.743416 -1.257969 -4.743416 0 
C -4.743416 1.257969 -4.24362 2.464584 -3.354102 3.354102 
C -2.464584 4.24362 -1.257969 4.743416 0 4.743416 
z
" style="stroke: #000000; stroke-width: 0.6"/>
    </defs>
    <g clip-path="url(#p8b911e3009)">
     <use xlink:href="#mc55cfe701c" x="199.053588" y="136.816752" style="fill: #355070; stroke: #000000; stroke-width: 0.6"/>
    </g>
   </g>
   <g id="PathCollection_2">
    <defs>
     <path id="m1e468de794" d="M -4.743416 4.743416 
L 4.743416 4.743416 
L 4.743416 -4.743416 
L -4.743416 -4.743416 
z
" style="stroke: #000000; stroke-width: 0.6"/>
    </defs>
    <g clip-path="url(#p8b911e3009)">
     <use xlink:href="#m1e468de794" x="204.023396" y="140.436342" style="fill: #355070; stroke: #000000; stroke-width: 0.6"/>
    </g>
   </g>
   <g id="PathCollection_3">
    <defs>
     <path id="mf4c10c9e65" d="M 0 -4.743416 
L -4.743416 4.743416 
L 4.743416 4.743416 
z
" style="stroke: #000000; stroke-width: 0.6"/>
    </defs>
    <g clip-path="url(#p8b911e3009)">
     <use xlink:href="#mf4c10c9e65" x="204.087233" y="86.285661" style="fill: #355070; stroke: #000000; stroke-width: 0.6"/>
    </g>
   </g>
   <g id="PathCollection_4">
    <defs>
     <path id="m9517d4a509" d="M -0 6.708204 
L 6.708204 0 
L 0 -6.708204 
L -6.708204 -0 
z
" style="stroke: #000000; stroke-width: 0.6"/>
    </defs>
    <g clip-path="url(#p8b911e3009)">
     <use xlink:href="#m9517d4a509" x="177.101992" y="159.270584" style="fill: #355070; stroke: #000000; stroke-width: 0.6"/>
    </g>
   </g>
   <g id="PathCollection_5">
    <defs>
     <path id="m722173fc45" d="M 0 4.743416 
C 1.257969 4.743416 2.464584 4.24362 3.354102 3.354102 
C 4.24362 2.464584 4.743416 1.257969 4.743416 0 
C 4.743416 -1.257969 4.24362 -2.464584 3.354102 -3.354102 
C 2.464584 -4.24362 1.257969 -4.743416 0 -4.743416 
C -1.257969 -4.743416 -2.464584 -4.24362 -3.354102 -3.354102 
C -4.24362 -2.464584 -4.743416 -1.257969 -4.743416 0 
C -4.743416 1.257969 -4.24362 2.464584 -3.354102 3.354102 
C -2.464584 4.24362 -1.257969 4.743416 0 4.743416 
z
" style="stroke: #000000; stroke-width: 0.6"/>
    </defs>
    <g clip-path="url(#p8b911e3009)">
     <use xlink:href="#m722173fc45" x="210.551965" y="125.347738" style="fill: #b56576; stroke: #000000; stroke-width: 0.6"/>
    </g>
   </g>
   <g id="PathCollection_6">
    <defs>
     <path id="m5317c32ad7" d="M -4.743416 4.743416 
L 4.743416 4.743416 
L 4.743416 -4.743416 
L -4.743416 -4.743416 
z
" style="stroke: #000000; stroke-width: 0.6"/>
    </defs>
    <g clip-path="url(#p8b911e3009)">
     <use xlink:href="#m5317c32ad7" x="204.023396" y="140.436342" style="fill: #b56576; stroke: #000000; stroke-width: 0.6"/>
    </g>
   </g>
   <g id="PathCollection_7">
    <defs>
     <path id="m7bcee01bc7" d="M 0 -4.743416 
L -4.743416 4.743416 
L 4.743416 4.743416 
z
" style="stroke: #000000; stroke-width: 0.6"/>
    </defs>
    <g clip-path="url(#p8b911e3009)">
     <use xlink:href="#m7bcee01bc7" x="181.255474" y="144.285173" style="fill: #b56576; stroke: #000000; stroke-width: 0.6"/>
    </g>
   </g>
   <g id="PathCollection_8">
    <defs>
     <path id="mcac02fee6b" d="M -0 6.708204 
L 6.708204 0 
L 0 -6.708204 
L -6.708204 -0 
z
" style="stroke: #000000; stroke-width: 0.6"/>
    </defs>
    <g clip-path="url(#p8b911e3009)">
     <use xlink:href="#mcac02fee6b" x="170.256219" y="165.837779" style="fill: #b56576; stroke: #000000; stroke-width: 0.6"/>
    </g>
   </g>
   <g id="PathCollection_9">
    <defs>
     <path id="mb7e24b178c" d="M 0 4.743416 
C 1.257969 4.743416 2.464584 4.24362 3.354102 3.354102 
C 4.24362 2.464584 4.743416 1.257969 4.743416 0 
C 4.743416 -1.257969 4.24362 -2.464584 3.354102 -3.354102 
C 2.464584 -4.24362 1.257969 -4.743416 0 -4.743416 
C -1.257969 -4.743416 -2.464584 -4.24362 -3.354102 -3.354102 
C -4.24362 -2.464584 -4.743416 -1.257969 -4.743416 0 
C -4.743416 1.257969 -4.24362 2.464584 -3.354102 3.354102 
C -2.464584 4.24362 -1.257969 4.743416 0 4.743416 
z
" style="stroke: #000000; stroke-width: 0.6"/>
    </defs>
    <g clip-path="url(#p8b911e3009)">
     <use xlink:href="#mb7e24b178c" x="178.189885" y="267.62062" style="fill: #9d4edd; stroke: #000000; stroke-width: 0.6"/>
    </g>
   </g>
   <g id="PathCollection_10">
    <defs>
     <path id="m357566e258" d="M -4.743416 4.743416 
L 4.743416 4.743416 
L 4.743416 -4.743416 
L -4.743416 -4.743416 
z
" style="stroke: #000000; stroke-width: 0.6"/>
    </defs>
    <g clip-path="url(#p8b911e3009)">
     <use xlink:href="#m357566e258" x="191.454107" y="225.620792" style="fill: #9d4edd; stroke: #000000; stroke-width: 0.6"/>
    </g>
   </g>
   <g id="PathCollection_11">
    <defs>
     <path id="m8e6cc72ba7" d="M 0 -4.743416 
L -4.743416 4.743416 
L 4.743416 4.743416 
z
" style="stroke: #000000; stroke-width: 0.6"/>
    </defs>
    <g clip-path="url(#p8b911e3009)">
     <use xlink:href="#m8e6cc72ba7" x="192.839458" y="126.304926" style="fill: #9d4edd; stroke: #000000; stroke-width: 0.6"/>
    </g>
   </g>
   <g id="PathCollection_12">
    <defs>
     <path id="m8038e335e5" d="M -0 6.708204 
L 6.708204 0 
L 0 -6.708204 
L -6.708204 -0 
z
" style="stroke: #000000; stroke-width: 0.6"/>
    </defs>
    <g clip-path="url(#p8b911e3009)">
     <use xlink:href="#m8038e335e5" x="114.501227" y="171.921978" style="fill: #9d4edd; stroke: #000000; stroke-width: 0.6"/>
    </g>
   </g>
   <g id="PathCollection_13">
    <defs>
     <path id="mb448ae5fbf" d="M 0 4.743416 
C 1.257969 4.743416 2.464584 4.24362 3.354102 3.354102 
C 4.24362 2.464584 4.743416 1.257969 4.743416 0 
C 4.743416 -1.257969 4.24362 -2.464584 3.354102 -3.354102 
C 2.464584 -4.24362 1.257969 -4.743416 0 -4.743416 
C -1.257969 -4.743416 -2.464584 -4.24362 -3.354102 -3.354102 
C -4.24362 -2.464584 -4.743416 -1.257969 -4.743416 0 
C -4.743416 1.257969 -4.24362 2.464584 -3.354102 3.354102 
C -2.464584 4.24362 -1.257969 4.743416 0 4.743416 
z
" style="stroke: #000000; stroke-width: 0.6"/>
    </defs>
    <g clip-path="url(#p8b911e3009)">
     <use xlink:href="#mb448ae5fbf" x="211.470116" y="172.557539" style="fill: #f4a261; stroke: #000000; stroke-width: 0.6"/>
    </g>
   </g>
   <g id="PathCollection_14">
    <defs>
     <path id="mab6b049321" d="M -4.743416 4.743416 
L 4.743416 4.743416 
L 4.743416 -4.743416 
L -4.743416 -4.743416 
z
" style="stroke: #000000; stroke-width: 0.6"/>
    </defs>
    <g clip-path="url(#p8b911e3009)">
     <use xlink:href="#mab6b049321" x="242.249529" y="77.215012" style="fill: #f4a261; stroke: #000000; stroke-width: 0.6"/>
    </g>
   </g>
   <g id="PathCollection_15">
    <defs>
     <path id="m8c09554aae" d="M 0 -4.743416 
L -4.743416 4.743416 
L 4.743416 4.743416 
z
" style="stroke: #000000; stroke-width: 0.6"/>
    </defs>
    <g clip-path="url(#p8b911e3009)">
     <use xlink:href="#m8c09554aae" x="332.129666" y="49.721824" style="fill: #f4a261; stroke: #000000; stroke-width: 0.6"/>
    </g>
   </g>
   <g id="PathCollection_16">
    <defs>
     <path id="m4eff6d7c8e" d="M -0 6.708204 
L 6.708204 0 
L 0 -6.708204 
L -6.708204 -0 
z
" style="stroke: #000000; stroke-width: 0.6"/>
    </defs>
    <g clip-path="url(#p8b911e3009)">
     <use xlink:href="#m4eff6d7c8e" x="142.324634" y="234.966344" style="fill: #f4a261; stroke: #000000; stroke-width: 0.6"/>
    </g>
   </g>
   <g id="matplotlib.axis_1">
    <g id="xtick_1">
     <g id="line2d_1">
      <defs>
       <path id="m6266514c20" d="M 0 0 
L 0 3.5 
" style="stroke: #000000; stroke-width: 0.8"/>
      </defs>
      <g>
       <use xlink:href="#m6266514c20" x="39.58149" y="413.04351" style="stroke: #000000; stroke-width: 0.8"/>
      </g>
     </g>
     <g id="text_1">
      <!-- 0.0 -->
      <g transform="translate(31.629928 427.641948) scale(0.1 -0.1)">
       <defs>
        <path id="DejaVuSans-30" d="M 2034 4250 
Q 1547 4250 1301 3770 
Q 1056 3291 1056 2328 
Q 1056 1369 1301 889 
Q 1547 409 2034 409 
Q 2525 409 2770 889 
Q 3016 1369 3016 2328 
Q 3016 3291 2770 3770 
Q 2525 4250 2034 4250 
z
M 2034 4750 
Q 2819 4750 3233 4129 
Q 3647 3509 3647 2328 
Q 3647 1150 3233 529 
Q 2819 -91 2034 -91 
Q 1250 -91 836 529 
Q 422 1150 422 2328 
Q 422 3509 836 4129 
Q 1250 4750 2034 4750 
z
" transform="scale(0.015625)"/>
        <path id="DejaVuSans-2e" d="M 684 794 
L 1344 794 
L 1344 0 
L 684 0 
L 684 794 
z
" transform="scale(0.015625)"/>
       </defs>
       <use xlink:href="#DejaVuSans-30"/>
       <use xlink:href="#DejaVuSans-2e" transform="translate(63.623047 0)"/>
       <use xlink:href="#DejaVuSans-30" transform="translate(95.410156 0)"/>
      </g>
     </g>
    </g>
    <g id="xtick_2">
     <g id="line2d_2">
      <g>
       <use xlink:href="#m6266514c20" x="114.050656" y="413.04351" style="stroke: #000000; stroke-width: 0.8"/>
      </g>
     </g>
     <g id="text_2">
      <!-- 0.5 -->
      <g transform="translate(106.099093 427.641948) scale(0.1 -0.1)">
       <defs>
        <path id="DejaVuSans-35" d="M 691 4666 
L 3169 4666 
L 3169 4134 
L 1269 4134 
L 1269 2991 
Q 1406 3038 1543 3061 
Q 1681 3084 1819 3084 
Q 2600 3084 3056 2656 
Q 3513 2228 3513 1497 
Q 3513 744 3044 326 
Q 2575 -91 1722 -91 
Q 1428 -91 1123 -41 
Q 819 9 494 109 
L 494 744 
Q 775 591 1075 516 
Q 1375 441 1709 441 
Q 2250 441 2565 725 
Q 2881 1009 2881 1497 
Q 2881 1984 2565 2268 
Q 2250 2553 1709 2553 
Q 1456 2553 1204 2497 
Q 953 2441 691 2322 
L 691 4666 
z
" transform="scale(0.015625)"/>
       </defs>
       <use xlink:href="#DejaVuSans-30"/>
       <use xlink:href="#DejaVuSans-2e" transform="translate(63.623047 0)"/>
       <use xlink:href="#DejaVuSans-35" transform="translate(95.410156 0)"/>
      </g>
     </g>
    </g>
    <g id="xtick_3">
     <g id="line2d_3">
      <g>
       <use xlink:href="#m6266514c20" x="188.519822" y="413.04351" style="stroke: #000000; stroke-width: 0.8"/>
      </g>
     </g>
     <g id="text_3">
      <!-- 1.0 -->
      <g transform="translate(180.568259 427.641948) scale(0.1 -0.1)">
       <defs>
        <path id="DejaVuSans-31" d="M 794 531 
L 1825 531 
L 1825 4091 
L 703 3866 
L 703 4441 
L 1819 4666 
L 2450 4666 
L 2450 531 
L 3481 531 
L 3481 0 
L 794 0 
L 794 531 
z
" transform="scale(0.015625)"/>
       </defs>
       <use xlink:href="#DejaVuSans-31"/>
       <use xlink:href="#DejaVuSans-2e" transform="translate(63.623047 0)"/>
       <use xlink:href="#DejaVuSans-30" transform="translate(95.410156 0)"/>
      </g>
     </g>
    </g>
    <g id="xtick_4">
     <g id="line2d_4">
      <g>
       <use xlink:href="#m6266514c20" x="262.988988" y="413.04351" style="stroke: #000000; stroke-width: 0.8"/>
      </g>
     </g>
     <g id="text_4">
      <!-- 1.5 -->
      <g transform="translate(255.037425 427.641948) scale(0.1 -0.1)">
       <use xlink:href="#DejaVuSans-31"/>
       <use xlink:href="#DejaVuSans-2e" transform="translate(63.623047 0)"/>
       <use xlink:href="#DejaVuSans-35" transform="translate(95.410156 0)"/>
      </g>
     </g>
    </g>
    <g id="xtick_5">
     <g id="line2d_5">
      <g>
       <use xlink:href="#m6266514c20" x="337.458154" y="413.04351" style="stroke: #000000; stroke-width: 0.8"/>
      </g>
     </g>
     <g id="text_5">
      <!-- 2.0 -->
      <g transform="translate(329.506591 427.641948) scale(0.1 -0.1)">
       <defs>
        <path id="DejaVuSans-32" d="M 1228 531 
L 3431 531 
L 3431 0 
L 469 0 
L 469 531 
Q 828 903 1448 1529 
Q 2069 2156 2228 2338 
Q 2531 2678 2651 2914 
Q 2772 3150 2772 3378 
Q 2772 3750 2511 3984 
Q 2250 4219 1831 4219 
Q 1534 4219 1204 4116 
Q 875 4013 500 3803 
L 500 4441 
Q 881 4594 1212 4672 
Q 1544 4750 1819 4750 
Q 2544 4750 2975 4387 
Q 3406 4025 3406 3419 
Q 3406 3131 3298 2873 
Q 3191 2616 2906 2266 
Q 2828 2175 2409 1742 
Q 1991 1309 1228 531 
z
" transform="scale(0.015625)"/>
       </defs>
       <use xlink:href="#DejaVuSans-32"/>
       <use xlink:href="#DejaVuSans-2e" transform="translate(63.623047 0)"/>
       <use xlink:href="#DejaVuSans-30" transform="translate(95.410156 0)"/>
      </g>
     </g>
    </g>
    <g id="xtick_6">
     <g id="line2d_6">
      <g>
       <use xlink:href="#m6266514c20" x="411.927319" y="413.04351" style="stroke: #000000; stroke-width: 0.8"/>
      </g>
     </g>
     <g id="text_6">
      <!-- 2.5 -->
      <g transform="translate(403.975757 427.641948) scale(0.1 -0.1)">
       <use xlink:href="#DejaVuSans-32"/>
       <use xlink:href="#DejaVuSans-2e" transform="translate(63.623047 0)"/>
       <use xlink:href="#DejaVuSans-35" transform="translate(95.410156 0)"/>
      </g>
     </g>
    </g>
    <g id="xtick_7">
     <g id="line2d_7">
      <g>
       <use xlink:href="#m6266514c20" x="486.396485" y="413.04351" style="stroke: #000000; stroke-width: 0.8"/>
      </g>
     </g>
     <g id="text_7">
      <!-- 3.0 -->
      <g transform="translate(478.444923 427.641948) scale(0.1 -0.1)">
       <defs>
        <path id="DejaVuSans-33" d="M 2597 2516 
Q 3050 2419 3304 2112 
Q 3559 1806 3559 1356 
Q 3559 666 3084 287 
Q 2609 -91 1734 -91 
Q 1441 -91 1130 -33 
Q 819 25 488 141 
L 488 750 
Q 750 597 1062 519 
Q 1375 441 1716 441 
Q 2309 441 2620 675 
Q 2931 909 2931 1356 
Q 2931 1769 2642 2001 
Q 2353 2234 1838 2234 
L 1294 2234 
L 1294 2753 
L 1863 2753 
Q 2328 2753 2575 2939 
Q 2822 3125 2822 3475 
Q 2822 3834 2567 4026 
Q 2313 4219 1838 4219 
Q 1578 4219 1281 4162 
Q 984 4106 628 3988 
L 628 4550 
Q 988 4650 1302 4700 
Q 1616 4750 1894 4750 
Q 2613 4750 3031 4423 
Q 3450 4097 3450 3541 
Q 3450 3153 3228 2886 
Q 3006 2619 2597 2516 
z
" transform="scale(0.015625)"/>
       </defs>
       <use xlink:href="#DejaVuSans-33"/>
       <use xlink:href="#DejaVuSans-2e" transform="translate(63.623047 0)"/>
       <use xlink:href="#DejaVuSans-30" transform="translate(95.410156 0)"/>
      </g>
     </g>
    </g>
    <g id="text_8">
     <!-- Distance to high-productivity manuscript -->
     <g transform="translate(182.246094 441.320073) scale(0.1 -0.1)">
      <defs>
       <path id="DejaVuSans-44" d="M 1259 4147 
L 1259 519 
L 2022 519 
Q 2988 519 3436 956 
Q 3884 1394 3884 2338 
Q 3884 3275 3436 3711 
Q 2988 4147 2022 4147 
L 1259 4147 
z
M 628 4666 
L 1925 4666 
Q 3281 4666 3915 4102 
Q 4550 3538 4550 2338 
Q 4550 1131 3912 565 
Q 3275 0 1925 0 
L 628 0 
L 628 4666 
z
" transform="scale(0.015625)"/>
       <path id="DejaVuSans-69" d="M 603 3500 
L 1178 3500 
L 1178 0 
L 603 0 
L 603 3500 
z
M 603 4863 
L 1178 4863 
L 1178 4134 
L 603 4134 
L 603 4863 
z
" transform="scale(0.015625)"/>
       <path id="DejaVuSans-73" d="M 2834 3397 
L 2834 2853 
Q 2591 2978 2328 3040 
Q 2066 3103 1784 3103 
Q 1356 3103 1142 2972 
Q 928 2841 928 2578 
Q 928 2378 1081 2264 
Q 1234 2150 1697 2047 
L 1894 2003 
Q 2506 1872 2764 1633 
Q 3022 1394 3022 966 
Q 3022 478 2636 193 
Q 2250 -91 1575 -91 
Q 1294 -91 989 -36 
Q 684 19 347 128 
L 347 722 
Q 666 556 975 473 
Q 1284 391 1588 391 
Q 1994 391 2212 530 
Q 2431 669 2431 922 
Q 2431 1156 2273 1281 
Q 2116 1406 1581 1522 
L 1381 1569 
Q 847 1681 609 1914 
Q 372 2147 372 2553 
Q 372 3047 722 3315 
Q 1072 3584 1716 3584 
Q 2034 3584 2315 3537 
Q 2597 3491 2834 3397 
z
" transform="scale(0.015625)"/>
       <path id="DejaVuSans-74" d="M 1172 4494 
L 1172 3500 
L 2356 3500 
L 2356 3053 
L 1172 3053 
L 1172 1153 
Q 1172 725 1289 603 
Q 1406 481 1766 481 
L 2356 481 
L 2356 0 
L 1766 0 
Q 1100 0 847 248 
Q 594 497 594 1153 
L 594 3053 
L 172 3053 
L 172 3500 
L 594 3500 
L 594 4494 
L 1172 4494 
z
" transform="scale(0.015625)"/>
       <path id="DejaVuSans-61" d="M 2194 1759 
Q 1497 1759 1228 1600 
Q 959 1441 959 1056 
Q 959 750 1161 570 
Q 1363 391 1709 391 
Q 2188 391 2477 730 
Q 2766 1069 2766 1631 
L 2766 1759 
L 2194 1759 
z
M 3341 1997 
L 3341 0 
L 2766 0 
L 2766 531 
Q 2569 213 2275 61 
Q 1981 -91 1556 -91 
Q 1019 -91 701 211 
Q 384 513 384 1019 
Q 384 1609 779 1909 
Q 1175 2209 1959 2209 
L 2766 2209 
L 2766 2266 
Q 2766 2663 2505 2880 
Q 2244 3097 1772 3097 
Q 1472 3097 1187 3025 
Q 903 2953 641 2809 
L 641 3341 
Q 956 3463 1253 3523 
Q 1550 3584 1831 3584 
Q 2591 3584 2966 3190 
Q 3341 2797 3341 1997 
z
" transform="scale(0.015625)"/>
       <path id="DejaVuSans-6e" d="M 3513 2113 
L 3513 0 
L 2938 0 
L 2938 2094 
Q 2938 2591 2744 2837 
Q 2550 3084 2163 3084 
Q 1697 3084 1428 2787 
Q 1159 2491 1159 1978 
L 1159 0 
L 581 0 
L 581 3500 
L 1159 3500 
L 1159 2956 
Q 1366 3272 1645 3428 
Q 1925 3584 2291 3584 
Q 2894 3584 3203 3211 
Q 3513 2838 3513 2113 
z
" transform="scale(0.015625)"/>
       <path id="DejaVuSans-63" d="M 3122 3366 
L 3122 2828 
Q 2878 2963 2633 3030 
Q 2388 3097 2138 3097 
Q 1578 3097 1268 2742 
Q 959 2388 959 1747 
Q 959 1106 1268 751 
Q 1578 397 2138 397 
Q 2388 397 2633 464 
Q 2878 531 3122 666 
L 3122 134 
Q 2881 22 2623 -34 
Q 2366 -91 2075 -91 
Q 1284 -91 818 406 
Q 353 903 353 1747 
Q 353 2603 823 3093 
Q 1294 3584 2113 3584 
Q 2378 3584 2631 3529 
Q 2884 3475 3122 3366 
z
" transform="scale(0.015625)"/>
       <path id="DejaVuSans-65" d="M 3597 1894 
L 3597 1613 
L 953 1613 
Q 991 1019 1311 708 
Q 1631 397 2203 397 
Q 2534 397 2845 478 
Q 3156 559 3463 722 
L 3463 178 
Q 3153 47 2828 -22 
Q 2503 -91 2169 -91 
Q 1331 -91 842 396 
Q 353 884 353 1716 
Q 353 2575 817 3079 
Q 1281 3584 2069 3584 
Q 2775 3584 3186 3129 
Q 3597 2675 3597 1894 
z
M 3022 2063 
Q 3016 2534 2758 2815 
Q 2500 3097 2075 3097 
Q 1594 3097 1305 2825 
Q 1016 2553 972 2059 
L 3022 2063 
z
" transform="scale(0.015625)"/>
       <path id="DejaVuSans-20" transform="scale(0.015625)"/>
       <path id="DejaVuSans-6f" d="M 1959 3097 
Q 1497 3097 1228 2736 
Q 959 2375 959 1747 
Q 959 1119 1226 758 
Q 1494 397 1959 397 
Q 2419 397 2687 759 
Q 2956 1122 2956 1747 
Q 2956 2369 2687 2733 
Q 2419 3097 1959 3097 
z
M 1959 3584 
Q 2709 3584 3137 3096 
Q 3566 2609 3566 1747 
Q 3566 888 3137 398 
Q 2709 -91 1959 -91 
Q 1206 -91 779 398 
Q 353 888 353 1747 
Q 353 2609 779 3096 
Q 1206 3584 1959 3584 
z
" transform="scale(0.015625)"/>
       <path id="DejaVuSans-68" d="M 3513 2113 
L 3513 0 
L 2938 0 
L 2938 2094 
Q 2938 2591 2744 2837 
Q 2550 3084 2163 3084 
Q 1697 3084 1428 2787 
Q 1159 2491 1159 1978 
L 1159 0 
L 581 0 
L 581 4863 
L 1159 4863 
L 1159 2956 
Q 1366 3272 1645 3428 
Q 1925 3584 2291 3584 
Q 2894 3584 3203 3211 
Q 3513 2838 3513 2113 
z
" transform="scale(0.015625)"/>
       <path id="DejaVuSans-67" d="M 2906 1791 
Q 2906 2416 2648 2759 
Q 2391 3103 1925 3103 
Q 1463 3103 1205 2759 
Q 947 2416 947 1791 
Q 947 1169 1205 825 
Q 1463 481 1925 481 
Q 2391 481 2648 825 
Q 2906 1169 2906 1791 
z
M 3481 434 
Q 3481 -459 3084 -895 
Q 2688 -1331 1869 -1331 
Q 1566 -1331 1297 -1286 
Q 1028 -1241 775 -1147 
L 775 -588 
Q 1028 -725 1275 -790 
Q 1522 -856 1778 -856 
Q 2344 -856 2625 -561 
Q 2906 -266 2906 331 
L 2906 616 
Q 2728 306 2450 153 
Q 2172 0 1784 0 
Q 1141 0 747 490 
Q 353 981 353 1791 
Q 353 2603 747 3093 
Q 1141 3584 1784 3584 
Q 2172 3584 2450 3431 
Q 2728 3278 2906 2969 
L 2906 3500 
L 3481 3500 
L 3481 434 
z
" transform="scale(0.015625)"/>
       <path id="DejaVuSans-2d" d="M 313 2009 
L 1997 2009 
L 1997 1497 
L 313 1497 
L 313 2009 
z
" transform="scale(0.015625)"/>
       <path id="DejaVuSans-70" d="M 1159 525 
L 1159 -1331 
L 581 -1331 
L 581 3500 
L 1159 3500 
L 1159 2969 
Q 1341 3281 1617 3432 
Q 1894 3584 2278 3584 
Q 2916 3584 3314 3078 
Q 3713 2572 3713 1747 
Q 3713 922 3314 415 
Q 2916 -91 2278 -91 
Q 1894 -91 1617 61 
Q 1341 213 1159 525 
z
M 3116 1747 
Q 3116 2381 2855 2742 
Q 2594 3103 2138 3103 
Q 1681 3103 1420 2742 
Q 1159 2381 1159 1747 
Q 1159 1113 1420 752 
Q 1681 391 2138 391 
Q 2594 391 2855 752 
Q 3116 1113 3116 1747 
z
" transform="scale(0.015625)"/>
       <path id="DejaVuSans-72" d="M 2631 2963 
Q 2534 3019 2420 3045 
Q 2306 3072 2169 3072 
Q 1681 3072 1420 2755 
Q 1159 2438 1159 1844 
L 1159 0 
L 581 0 
L 581 3500 
L 1159 3500 
L 1159 2956 
Q 1341 3275 1631 3429 
Q 1922 3584 2338 3584 
Q 2397 3584 2469 3576 
Q 2541 3569 2628 3553 
L 2631 2963 
z
" transform="scale(0.015625)"/>
       <path id="DejaVuSans-64" d="M 2906 2969 
L 2906 4863 
L 3481 4863 
L 3481 0 
L 2906 0 
L 2906 525 
Q 2725 213 2448 61 
Q 2172 -91 1784 -91 
Q 1150 -91 751 415 
Q 353 922 353 1747 
Q 353 2572 751 3078 
Q 1150 3584 1784 3584 
Q 2172 3584 2448 3432 
Q 2725 3281 2906 2969 
z
M 947 1747 
Q 947 1113 1208 752 
Q 1469 391 1925 391 
Q 2381 391 2643 752 
Q 2906 1113 2906 1747 
Q 2906 2381 2643 2742 
Q 2381 3103 1925 3103 
Q 1469 3103 1208 2742 
Q 947 2381 947 1747 
z
" transform="scale(0.015625)"/>
       <path id="DejaVuSans-75" d="M 544 1381 
L 544 3500 
L 1119 3500 
L 1119 1403 
Q 1119 906 1312 657 
Q 1506 409 1894 409 
Q 2359 409 2629 706 
Q 2900 1003 2900 1516 
L 2900 3500 
L 3475 3500 
L 3475 0 
L 2900 0 
L 2900 538 
Q 2691 219 2414 64 
Q 2138 -91 1772 -91 
Q 1169 -91 856 284 
Q 544 659 544 1381 
z
M 1991 3584 
L 1991 3584 
z
" transform="scale(0.015625)"/>
       <path id="DejaVuSans-76" d="M 191 3500 
L 800 3500 
L 1894 563 
L 2988 3500 
L 3597 3500 
L 2284 0 
L 1503 0 
L 191 3500 
z
" transform="scale(0.015625)"/>
       <path id="DejaVuSans-79" d="M 2059 -325 
Q 1816 -950 1584 -1140 
Q 1353 -1331 966 -1331 
L 506 -1331 
L 506 -850 
L 844 -850 
Q 1081 -850 1212 -737 
Q 1344 -625 1503 -206 
L 1606 56 
L 191 3500 
L 800 3500 
L 1894 763 
L 2988 3500 
L 3597 3500 
L 2059 -325 
z
" transform="scale(0.015625)"/>
       <path id="DejaVuSans-6d" d="M 3328 2828 
Q 3544 3216 3844 3400 
Q 4144 3584 4550 3584 
Q 5097 3584 5394 3201 
Q 5691 2819 5691 2113 
L 5691 0 
L 5113 0 
L 5113 2094 
Q 5113 2597 4934 2840 
Q 4756 3084 4391 3084 
Q 3944 3084 3684 2787 
Q 3425 2491 3425 1978 
L 3425 0 
L 2847 0 
L 2847 2094 
Q 2847 2600 2669 2842 
Q 2491 3084 2119 3084 
Q 1678 3084 1418 2786 
Q 1159 2488 1159 1978 
L 1159 0 
L 581 0 
L 581 3500 
L 1159 3500 
L 1159 2956 
Q 1356 3278 1631 3431 
Q 1906 3584 2284 3584 
Q 2666 3584 2933 3390 
Q 3200 3197 3328 2828 
z
" transform="scale(0.015625)"/>
      </defs>
      <use xlink:href="#DejaVuSans-44"/>
      <use xlink:href="#DejaVuSans-69" transform="translate(77.001953 0)"/>
      <use xlink:href="#DejaVuSans-73" transform="translate(104.785156 0)"/>
      <use xlink:href="#DejaVuSans-74" transform="translate(156.884766 0)"/>
      <use xlink:href="#DejaVuSans-61" transform="translate(196.09375 0)"/>
      <use xlink:href="#DejaVuSans-6e" transform="translate(257.373047 0)"/>
      <use xlink:href="#DejaVuSans-63" transform="translate(320.751953 0)"/>
      <use xlink:href="#DejaVuSans-65" transform="translate(375.732422 0)"/>
      <use xlink:href="#DejaVuSans-20" transform="translate(437.255859 0)"/>
      <use xlink:href="#DejaVuSans-74" transform="translate(469.042969 0)"/>
      <use xlink:href="#DejaVuSans-6f" transform="translate(508.251953 0)"/>
      <use xlink:href="#DejaVuSans-20" transform="translate(569.433594 0)"/>
      <use xlink:href="#DejaVuSans-68" transform="translate(601.220703 0)"/>
      <use xlink:href="#DejaVuSans-69" transform="translate(664.599609 0)"/>
      <use xlink:href="#DejaVuSans-67" transform="translate(692.382812 0)"/>
      <use xlink:href="#DejaVuSans-68" transform="translate(755.859375 0)"/>
      <use xlink:href="#DejaVuSans-2d" transform="translate(819.238281 0)"/>
      <use xlink:href="#DejaVuSans-70" transform="translate(855.322266 0)"/>
      <use xlink:href="#DejaVuSans-72" transform="translate(918.798828 0)"/>
      <use xlink:href="#DejaVuSans-6f" transform="translate(957.662109 0)"/>
      <use xlink:href="#DejaVuSans-64" transform="translate(1018.84375 0)"/>
      <use xlink:href="#DejaVuSans-75" transform="translate(1082.320312 0)"/>
      <use xlink:href="#DejaVuSans-63" transform="translate(1145.699219 0)"/>
      <use xlink:href="#DejaVuSans-74" transform="translate(1200.679688 0)"/>
      <use xlink:href="#DejaVuSans-69" transform="translate(1239.888672 0)"/>
      <use xlink:href="#DejaVuSans-76" transform="translate(1267.671875 0)"/>
      <use xlink:href="#DejaVuSans-69" transform="translate(1326.851562 0)"/>
      <use xlink:href="#DejaVuSans-74" transform="translate(1354.634766 0)"/>
      <use xlink:href="#DejaVuSans-79" transform="translate(1393.84375 0)"/>
      <use xlink:href="#DejaVuSans-20" transform="translate(1453.023438 0)"/>
      <use xlink:href="#DejaVuSans-6d" transform="translate(1484.810547 0)"/>
      <use xlink:href="#DejaVuSans-61" transform="translate(1582.222656 0)"/>
      <use xlink:href="#DejaVuSans-6e" transform="translate(1643.501953 0)"/>
      <use xlink:href="#DejaVuSans-75" transform="translate(1706.880859 0)"/>
      <use xlink:href="#DejaVuSans-73" transform="translate(1770.259766 0)"/>
      <use xlink:href="#DejaVuSans-63" transform="translate(1822.359375 0)"/>
      <use xlink:href="#DejaVuSans-72" transform="translate(1877.339844 0)"/>
      <use xlink:href="#DejaVuSans-69" transform="translate(1918.453125 0)"/>
      <use xlink:href="#DejaVuSans-70" transform="translate(1946.236328 0)"/>
      <use xlink:href="#DejaVuSans-74" transform="translate(2009.712891 0)"/>
     </g>
    </g>
   </g>
   <g id="matplotlib.axis_2">
    <g id="ytick_1">
     <g id="line2d_8">
      <defs>
       <path id="mca26aa9ba9" d="M 0 0 
L -3.5 0 
" style="stroke: #000000; stroke-width: 0.8"/>
      </defs>
      <g>
       <use xlink:href="#mca26aa9ba9" x="39.58149" y="413.04351" style="stroke: #000000; stroke-width: 0.8"/>
      </g>
     </g>
     <g id="text_9">
      <!-- 0.0 -->
      <g transform="translate(16.678365 416.842729) scale(0.1 -0.1)">
       <use xlink:href="#DejaVuSans-30"/>
       <use xlink:href="#DejaVuSans-2e" transform="translate(63.623047 0)"/>
       <use xlink:href="#DejaVuSans-30" transform="translate(95.410156 0)"/>
      </g>
     </g>
    </g>
    <g id="ytick_2">
     <g id="line2d_9">
      <g>
       <use xlink:href="#mca26aa9ba9" x="39.58149" y="355.091618" style="stroke: #000000; stroke-width: 0.8"/>
      </g>
     </g>
     <g id="text_10">
      <!-- 0.5 -->
      <g transform="translate(16.678365 358.890837) scale(0.1 -0.1)">
       <use xlink:href="#DejaVuSans-30"/>
       <use xlink:href="#DejaVuSans-2e" transform="translate(63.623047 0)"/>
       <use xlink:href="#DejaVuSans-35" transform="translate(95.410156 0)"/>
      </g>
     </g>
    </g>
    <g id="ytick_3">
     <g id="line2d_10">
      <g>
       <use xlink:href="#mca26aa9ba9" x="39.58149" y="297.139727" style="stroke: #000000; stroke-width: 0.8"/>
      </g>
     </g>
     <g id="text_11">
      <!-- 1.0 -->
      <g transform="translate(16.678365 300.938946) scale(0.1 -0.1)">
       <use xlink:href="#DejaVuSans-31"/>
       <use xlink:href="#DejaVuSans-2e" transform="translate(63.623047 0)"/>
       <use xlink:href="#DejaVuSans-30" transform="translate(95.410156 0)"/>
      </g>
     </g>
    </g>
    <g id="ytick_4">
     <g id="line2d_11">
      <g>
       <use xlink:href="#mca26aa9ba9" x="39.58149" y="239.187835" style="stroke: #000000; stroke-width: 0.8"/>
      </g>
     </g>
     <g id="text_12">
      <!-- 1.5 -->
      <g transform="translate(16.678365 242.987054) scale(0.1 -0.1)">
       <use xlink:href="#DejaVuSans-31"/>
       <use xlink:href="#DejaVuSans-2e" transform="translate(63.623047 0)"/>
       <use xlink:href="#DejaVuSans-35" transform="translate(95.410156 0)"/>
      </g>
     </g>
    </g>
    <g id="ytick_5">
     <g id="line2d_12">
      <g>
       <use xlink:href="#mca26aa9ba9" x="39.58149" y="181.235944" style="stroke: #000000; stroke-width: 0.8"/>
      </g>
     </g>
     <g id="text_13">
      <!-- 2.0 -->
      <g transform="translate(16.678365 185.035162) scale(0.1 -0.1)">
       <use xlink:href="#DejaVuSans-32"/>
       <use xlink:href="#DejaVuSans-2e" transform="translate(63.623047 0)"/>
       <use xlink:href="#DejaVuSans-30" transform="translate(95.410156 0)"/>
      </g>
     </g>
    </g>
    <g id="ytick_6">
     <g id="line2d_13">
      <g>
       <use xlink:href="#mca26aa9ba9" x="39.58149" y="123.284052" style="stroke: #000000; stroke-width: 0.8"/>
      </g>
     </g>
     <g id="text_14">
      <!-- 2.5 -->
      <g transform="translate(16.678365 127.083271) scale(0.1 -0.1)">
       <use xlink:href="#DejaVuSans-32"/>
       <use xlink:href="#DejaVuSans-2e" transform="translate(63.623047 0)"/>
       <use xlink:href="#DejaVuSans-35" transform="translate(95.410156 0)"/>
      </g>
     </g>
    </g>
    <g id="ytick_7">
     <g id="line2d_14">
      <g>
       <use xlink:href="#mca26aa9ba9" x="39.58149" y="65.332161" style="stroke: #000000; stroke-width: 0.8"/>
      </g>
     </g>
     <g id="text_15">
      <!-- 3.0 -->
      <g transform="translate(16.678365 69.131379) scale(0.1 -0.1)">
       <use xlink:href="#DejaVuSans-33"/>
       <use xlink:href="#DejaVuSans-2e" transform="translate(63.623047 0)"/>
       <use xlink:href="#DejaVuSans-30" transform="translate(95.410156 0)"/>
      </g>
     </g>
    </g>
    <g id="text_16">
     <!-- Distance to low-productivity manuscript -->
     <g transform="translate(10.598678 322.380875) rotate(-90) scale(0.1 -0.1)">
      <defs>
       <path id="DejaVuSans-6c" d="M 603 4863 
L 1178 4863 
L 1178 0 
L 603 0 
L 603 4863 
z
" transform="scale(0.015625)"/>
       <path id="DejaVuSans-77" d="M 269 3500 
L 844 3500 
L 1563 769 
L 2278 3500 
L 2956 3500 
L 3675 769 
L 4391 3500 
L 4966 3500 
L 4050 0 
L 3372 0 
L 2619 2869 
L 1863 0 
L 1184 0 
L 269 3500 
z
" transform="scale(0.015625)"/>
      </defs>
      <use xlink:href="#DejaVuSans-44"/>
      <use xlink:href="#DejaVuSans-69" transform="translate(77.001953 0)"/>
      <use xlink:href="#DejaVuSans-73" transform="translate(104.785156 0)"/>
      <use xlink:href="#DejaVuSans-74" transform="translate(156.884766 0)"/>
      <use xlink:href="#DejaVuSans-61" transform="translate(196.09375 0)"/>
      <use xlink:href="#DejaVuSans-6e" transform="translate(257.373047 0)"/>
      <use xlink:href="#DejaVuSans-63" transform="translate(320.751953 0)"/>
      <use xlink:href="#DejaVuSans-65" transform="translate(375.732422 0)"/>
      <use xlink:href="#DejaVuSans-20" transform="translate(437.255859 0)"/>
      <use xlink:href="#DejaVuSans-74" transform="translate(469.042969 0)"/>
      <use xlink:href="#DejaVuSans-6f" transform="translate(508.251953 0)"/>
      <use xlink:href="#DejaVuSans-20" transform="translate(569.433594 0)"/>
      <use xlink:href="#DejaVuSans-6c" transform="translate(601.220703 0)"/>
      <use xlink:href="#DejaVuSans-6f" transform="translate(629.003906 0)"/>
      <use xlink:href="#DejaVuSans-77" transform="translate(690.185547 0)"/>
      <use xlink:href="#DejaVuSans-2d" transform="translate(771.972656 0)"/>
      <use xlink:href="#DejaVuSans-70" transform="translate(808.056641 0)"/>
      <use xlink:href="#DejaVuSans-72" transform="translate(871.533203 0)"/>
      <use xlink:href="#DejaVuSans-6f" transform="translate(910.396484 0)"/>
      <use xlink:href="#DejaVuSans-64" transform="translate(971.578125 0)"/>
      <use xlink:href="#DejaVuSans-75" transform="translate(1035.054688 0)"/>
      <use xlink:href="#DejaVuSans-63" transform="translate(1098.433594 0)"/>
      <use xlink:href="#DejaVuSans-74" transform="translate(1153.414062 0)"/>
      <use xlink:href="#DejaVuSans-69" transform="translate(1192.623047 0)"/>
      <use xlink:href="#DejaVuSans-76" transform="translate(1220.40625 0)"/>
      <use xlink:href="#DejaVuSans-69" transform="translate(1279.585938 0)"/>
      <use xlink:href="#DejaVuSans-74" transform="translate(1307.369141 0)"/>
      <use xlink:href="#DejaVuSans-79" transform="translate(1346.578125 0)"/>
      <use xlink:href="#DejaVuSans-20" transform="translate(1405.757812 0)"/>
      <use xlink:href="#DejaVuSans-6d" transform="translate(1437.544922 0)"/>
      <use xlink:href="#DejaVuSans-61" transform="translate(1534.957031 0)"/>
      <use xlink:href="#DejaVuSans-6e" transform="translate(1596.236328 0)"/>
      <use xlink:href="#DejaVuSans-75" transform="translate(1659.615234 0)"/>
      <use xlink:href="#DejaVuSans-73" transform="translate(1722.994141 0)"/>
      <use xlink:href="#DejaVuSans-63" transform="translate(1775.09375 0)"/>
      <use xlink:href="#DejaVuSans-72" transform="translate(1830.074219 0)"/>
      <use xlink:href="#DejaVuSans-69" transform="translate(1871.1875 0)"/>
      <use xlink:href="#DejaVuSans-70" transform="translate(1898.970703 0)"/>
      <use xlink:href="#DejaVuSans-74" transform="translate(1962.447266 0)"/>
     </g>
    </g>
   </g>
   <g id="line2d_15">
    <path d="M 39.58149 413.04351 
L 529.79976 31.55574 
" clip-path="url(#p8b911e3009)" style="fill: none; stroke-dasharray: 5.55,2.4; stroke-dashoffset: 0; stroke: #808080; stroke-width: 1.5"/>
   </g>
   <g id="patch_3">
    <path d="M 39.58149 413.04351 
L 39.58149 31.55574 
" style="fill: none; stroke: #000000; stroke-width: 0.8; stroke-linejoin: miter; stroke-linecap: square"/>
   </g>
   <g id="patch_4">
    <path d="M 529.79976 413.04351 
L 529.79976 31.55574 
" style="fill: none; stroke: #000000; stroke-width: 0.8; stroke-linejoin: miter; stroke-linecap: square"/>
   </g>
   <g id="patch_5">
    <path d="M 39.58149 413.04351 
L 529.79976 413.04351 
" style="fill: none; stroke: #000000; stroke-width: 0.8; stroke-linejoin: miter; stroke-linecap: square"/>
   </g>
   <g id="patch_6">
    <path d="M 39.58149 31.55574 
L 529.79976 31.55574 
" style="fill: none; stroke: #000000; stroke-width: 0.8; stroke-linejoin: miter; stroke-linecap: square"/>
   </g>
   <g id="text_17">
    <!-- claude/claude -->
    <g transform="translate(203.053588 132.816752) scale(0.07 -0.07)">
     <defs>
      <path id="DejaVuSans-2f" d="M 1625 4666 
L 2156 4666 
L 531 -594 
L 0 -594 
L 1625 4666 
z
" transform="scale(0.015625)"/>
     </defs>
     <use xlink:href="#DejaVuSans-63"/>
     <use xlink:href="#DejaVuSans-6c" transform="translate(54.980469 0)"/>
     <use xlink:href="#DejaVuSans-61" transform="translate(82.763672 0)"/>
     <use xlink:href="#DejaVuSans-75" transform="translate(144.042969 0)"/>
     <use xlink:href="#DejaVuSans-64" transform="translate(207.421875 0)"/>
     <use xlink:href="#DejaVuSans-65" transform="translate(270.898438 0)"/>
     <use xlink:href="#DejaVuSans-2f" transform="translate(332.421875 0)"/>
     <use xlink:href="#DejaVuSans-63" transform="translate(366.113281 0)"/>
     <use xlink:href="#DejaVuSans-6c" transform="translate(421.09375 0)"/>
     <use xlink:href="#DejaVuSans-61" transform="translate(448.876953 0)"/>
     <use xlink:href="#DejaVuSans-75" transform="translate(510.15625 0)"/>
     <use xlink:href="#DejaVuSans-64" transform="translate(573.535156 0)"/>
     <use xlink:href="#DejaVuSans-65" transform="translate(637.011719 0)"/>
    </g>
   </g>
   <g id="text_18">
    <!-- claude/gpt4o -->
    <g transform="translate(208.023396 136.436342) scale(0.07 -0.07)">
     <defs>
      <path id="DejaVuSans-34" d="M 2419 4116 
L 825 1625 
L 2419 1625 
L 2419 4116 
z
M 2253 4666 
L 3047 4666 
L 3047 1625 
L 3713 1625 
L 3713 1100 
L 3047 1100 
L 3047 0 
L 2419 0 
L 2419 1100 
L 313 1100 
L 313 1709 
L 2253 4666 
z
" transform="scale(0.015625)"/>
     </defs>
     <use xlink:href="#DejaVuSans-63"/>
     <use xlink:href="#DejaVuSans-6c" transform="translate(54.980469 0)"/>
     <use xlink:href="#DejaVuSans-61" transform="translate(82.763672 0)"/>
     <use xlink:href="#DejaVuSans-75" transform="translate(144.042969 0)"/>
     <use xlink:href="#DejaVuSans-64" transform="translate(207.421875 0)"/>
     <use xlink:href="#DejaVuSans-65" transform="translate(270.898438 0)"/>
     <use xlink:href="#DejaVuSans-2f" transform="translate(332.421875 0)"/>
     <use xlink:href="#DejaVuSans-67" transform="translate(366.113281 0)"/>
     <use xlink:href="#DejaVuSans-70" transform="translate(429.589844 0)"/>
     <use xlink:href="#DejaVuSans-74" transform="translate(493.066406 0)"/>
     <use xlink:href="#DejaVuSans-34" transform="translate(532.275391 0)"/>
     <use xlink:href="#DejaVuSans-6f" transform="translate(595.898438 0)"/>
    </g>
   </g>
   <g id="text_19">
    <!-- claude/gpt4omini -->
    <g transform="translate(208.087233 82.285661) scale(0.07 -0.07)">
     <use xlink:href="#DejaVuSans-63"/>
     <use xlink:href="#DejaVuSans-6c" transform="translate(54.980469 0)"/>
     <use xlink:href="#DejaVuSans-61" transform="translate(82.763672 0)"/>
     <use xlink:href="#DejaVuSans-75" transform="translate(144.042969 0)"/>
     <use xlink:href="#DejaVuSans-64" transform="translate(207.421875 0)"/>
     <use xlink:href="#DejaVuSans-65" transform="translate(270.898438 0)"/>
     <use xlink:href="#DejaVuSans-2f" transform="translate(332.421875 0)"/>
     <use xlink:href="#DejaVuSans-67" transform="translate(366.113281 0)"/>
     <use xlink:href="#DejaVuSans-70" transform="translate(429.589844 0)"/>
     <use xlink:href="#DejaVuSans-74" transform="translate(493.066406 0)"/>
     <use xlink:href="#DejaVuSans-34" transform="translate(532.275391 0)"/>
     <use xlink:href="#DejaVuSans-6f" transform="translate(595.898438 0)"/>
     <use xlink:href="#DejaVuSans-6d" transform="translate(657.080078 0)"/>
     <use xlink:href="#DejaVuSans-69" transform="translate(754.492188 0)"/>
     <use xlink:href="#DejaVuSans-6e" transform="translate(782.275391 0)"/>
     <use xlink:href="#DejaVuSans-69" transform="translate(845.654297 0)"/>
    </g>
   </g>
   <g id="text_20">
    <!-- claude/gemma -->
    <g transform="translate(181.101992 155.270584) scale(0.07 -0.07)">
     <use xlink:href="#DejaVuSans-63"/>
     <use xlink:href="#DejaVuSans-6c" transform="translate(54.980469 0)"/>
     <use xlink:href="#DejaVuSans-61" transform="translate(82.763672 0)"/>
     <use xlink:href="#DejaVuSans-75" transform="translate(144.042969 0)"/>
     <use xlink:href="#DejaVuSans-64" transform="translate(207.421875 0)"/>
     <use xlink:href="#DejaVuSans-65" transform="translate(270.898438 0)"/>
     <use xlink:href="#DejaVuSans-2f" transform="translate(332.421875 0)"/>
     <use xlink:href="#DejaVuSans-67" transform="translate(366.113281 0)"/>
     <use xlink:href="#DejaVuSans-65" transform="translate(429.589844 0)"/>
     <use xlink:href="#DejaVuSans-6d" transform="translate(491.113281 0)"/>
     <use xlink:href="#DejaVuSans-6d" transform="translate(588.525391 0)"/>
     <use xlink:href="#DejaVuSans-61" transform="translate(685.9375 0)"/>
    </g>
   </g>
   <g id="text_21">
    <!-- gpt4o/claude -->
    <g transform="translate(214.551965 121.347738) scale(0.07 -0.07)">
     <use xlink:href="#DejaVuSans-67"/>
     <use xlink:href="#DejaVuSans-70" transform="translate(63.476562 0)"/>
     <use xlink:href="#DejaVuSans-74" transform="translate(126.953125 0)"/>
     <use xlink:href="#DejaVuSans-34" transform="translate(166.162109 0)"/>
     <use xlink:href="#DejaVuSans-6f" transform="translate(229.785156 0)"/>
     <use xlink:href="#DejaVuSans-2f" transform="translate(290.966797 0)"/>
     <use xlink:href="#DejaVuSans-63" transform="translate(324.658203 0)"/>
     <use xlink:href="#DejaVuSans-6c" transform="translate(379.638672 0)"/>
     <use xlink:href="#DejaVuSans-61" transform="translate(407.421875 0)"/>
     <use xlink:href="#DejaVuSans-75" transform="translate(468.701172 0)"/>
     <use xlink:href="#DejaVuSans-64" transform="translate(532.080078 0)"/>
     <use xlink:href="#DejaVuSans-65" transform="translate(595.556641 0)"/>
    </g>
   </g>
   <g id="text_22">
    <!-- gpt4o/gpt4o -->
    <g transform="translate(208.023396 136.436342) scale(0.07 -0.07)">
     <use xlink:href="#DejaVuSans-67"/>
     <use xlink:href="#DejaVuSans-70" transform="translate(63.476562 0)"/>
     <use xlink:href="#DejaVuSans-74" transform="translate(126.953125 0)"/>
     <use xlink:href="#DejaVuSans-34" transform="translate(166.162109 0)"/>
     <use xlink:href="#DejaVuSans-6f" transform="translate(229.785156 0)"/>
     <use xlink:href="#DejaVuSans-2f" transform="translate(290.966797 0)"/>
     <use xlink:href="#DejaVuSans-67" transform="translate(324.658203 0)"/>
     <use xlink:href="#DejaVuSans-70" transform="translate(388.134766 0)"/>
     <use xlink:href="#DejaVuSans-74" transform="translate(451.611328 0)"/>
     <use xlink:href="#DejaVuSans-34" transform="translate(490.820312 0)"/>
     <use xlink:href="#DejaVuSans-6f" transform="translate(554.443359 0)"/>
    </g>
   </g>
   <g id="text_23">
    <!-- gpt4o/gpt4omini -->
    <g transform="translate(185.255474 140.285173) scale(0.07 -0.07)">
     <use xlink:href="#DejaVuSans-67"/>
     <use xlink:href="#DejaVuSans-70" transform="translate(63.476562 0)"/>
     <use xlink:href="#DejaVuSans-74" transform="translate(126.953125 0)"/>
     <use xlink:href="#DejaVuSans-34" transform="translate(166.162109 0)"/>
     <use xlink:href="#DejaVuSans-6f" transform="translate(229.785156 0)"/>
     <use xlink:href="#DejaVuSans-2f" transform="translate(290.966797 0)"/>
     <use xlink:href="#DejaVuSans-67" transform="translate(324.658203 0)"/>
     <use xlink:href="#DejaVuSans-70" transform="translate(388.134766 0)"/>
     <use xlink:href="#DejaVuSans-74" transform="translate(451.611328 0)"/>
     <use xlink:href="#DejaVuSans-34" transform="translate(490.820312 0)"/>
     <use xlink:href="#DejaVuSans-6f" transform="translate(554.443359 0)"/>
     <use xlink:href="#DejaVuSans-6d" transform="translate(615.625 0)"/>
     <use xlink:href="#DejaVuSans-69" transform="translate(713.037109 0)"/>
     <use xlink:href="#DejaVuSans-6e" transform="translate(740.820312 0)"/>
     <use xlink:href="#DejaVuSans-69" transform="translate(804.199219 0)"/>
    </g>
   </g>
   <g id="text_24">
    <!-- gpt4o/gemma -->
    <g transform="translate(174.256219 161.837779) scale(0.07 -0.07)">
     <use xlink:href="#DejaVuSans-67"/>
     <use xlink:href="#DejaVuSans-70" transform="translate(63.476562 0)"/>
     <use xlink:href="#DejaVuSans-74" transform="translate(126.953125 0)"/>
     <use xlink:href="#DejaVuSans-34" transform="translate(166.162109 0)"/>
     <use xlink:href="#DejaVuSans-6f" transform="translate(229.785156 0)"/>
     <use xlink:href="#DejaVuSans-2f" transform="translate(290.966797 0)"/>
     <use xlink:href="#DejaVuSans-67" transform="translate(324.658203 0)"/>
     <use xlink:href="#DejaVuSans-65" transform="translate(388.134766 0)"/>
     <use xlink:href="#DejaVuSans-6d" transform="translate(449.658203 0)"/>
     <use xlink:href="#DejaVuSans-6d" transform="translate(547.070312 0)"/>
     <use xlink:href="#DejaVuSans-61" transform="translate(644.482422 0)"/>
    </g>
   </g>
   <g id="text_25">
    <!-- gpt4omini_rescued/claude -->
    <g transform="translate(182.189885 263.62062) scale(0.07 -0.07)">
     <defs>
      <path id="DejaVuSans-5f" d="M 3263 -1063 
L 3263 -1509 
L -63 -1509 
L -63 -1063 
L 3263 -1063 
z
" transform="scale(0.015625)"/>
     </defs>
     <use xlink:href="#DejaVuSans-67"/>
     <use xlink:href="#DejaVuSans-70" transform="translate(63.476562 0)"/>
     <use xlink:href="#DejaVuSans-74" transform="translate(126.953125 0)"/>
     <use xlink:href="#DejaVuSans-34" transform="translate(166.162109 0)"/>
     <use xlink:href="#DejaVuSans-6f" transform="translate(229.785156 0)"/>
     <use xlink:href="#DejaVuSans-6d" transform="translate(290.966797 0)"/>
     <use xlink:href="#DejaVuSans-69" transform="translate(388.378906 0)"/>
     <use xlink:href="#DejaVuSans-6e" transform="translate(416.162109 0)"/>
     <use xlink:href="#DejaVuSans-69" transform="translate(479.541016 0)"/>
     <use xlink:href="#DejaVuSans-5f" transform="translate(507.324219 0)"/>
     <use xlink:href="#DejaVuSans-72" transform="translate(557.324219 0)"/>
     <use xlink:href="#DejaVuSans-65" transform="translate(596.1875 0)"/>
     <use xlink:href="#DejaVuSans-73" transform="translate(657.710938 0)"/>
     <use xlink:href="#DejaVuSans-63" transform="translate(709.810547 0)"/>
     <use xlink:href="#DejaVuSans-75" transform="translate(764.791016 0)"/>
     <use xlink:href="#DejaVuSans-65" transform="translate(828.169922 0)"/>
     <use xlink:href="#DejaVuSans-64" transform="translate(889.693359 0)"/>
     <use xlink:href="#DejaVuSans-2f" transform="translate(953.169922 0)"/>
     <use xlink:href="#DejaVuSans-63" transform="translate(986.861328 0)"/>
     <use xlink:href="#DejaVuSans-6c" transform="translate(1041.841797 0)"/>
     <use xlink:href="#DejaVuSans-61" transform="translate(1069.625 0)"/>
     <use xlink:href="#DejaVuSans-75" transform="translate(1130.904297 0)"/>
     <use xlink:href="#DejaVuSans-64" transform="translate(1194.283203 0)"/>
     <use xlink:href="#DejaVuSans-65" transform="translate(1257.759766 0)"/>
    </g>
   </g>
   <g id="text_26">
    <!-- gpt4omini_rescued/gpt4o -->
    <g transform="translate(195.454107 221.620792) scale(0.07 -0.07)">
     <use xlink:href="#DejaVuSans-67"/>
     <use xlink:href="#DejaVuSans-70" transform="translate(63.476562 0)"/>
     <use xlink:href="#DejaVuSans-74" transform="translate(126.953125 0)"/>
     <use xlink:href="#DejaVuSans-34" transform="translate(166.162109 0)"/>
     <use xlink:href="#DejaVuSans-6f" transform="translate(229.785156 0)"/>
     <use xlink:href="#DejaVuSans-6d" transform="translate(290.966797 0)"/>
     <use xlink:href="#DejaVuSans-69" transform="translate(388.378906 0)"/>
     <use xlink:href="#DejaVuSans-6e" transform="translate(416.162109 0)"/>
     <use xlink:href="#DejaVuSans-69" transform="translate(479.541016 0)"/>
     <use xlink:href="#DejaVuSans-5f" transform="translate(507.324219 0)"/>
     <use xlink:href="#DejaVuSans-72" transform="translate(557.324219 0)"/>
     <use xlink:href="#DejaVuSans-65" transform="translate(596.1875 0)"/>
     <use xlink:href="#DejaVuSans-73" transform="translate(657.710938 0)"/>
     <use xlink:href="#DejaVuSans-63" transform="translate(709.810547 0)"/>
     <use xlink:href="#DejaVuSans-75" transform="translate(764.791016 0)"/>
     <use xlink:href="#DejaVuSans-65" transform="translate(828.169922 0)"/>
     <use xlink:href="#DejaVuSans-64" transform="translate(889.693359 0)"/>
     <use xlink:href="#DejaVuSans-2f" transform="translate(953.169922 0)"/>
     <use xlink:href="#DejaVuSans-67" transform="translate(986.861328 0)"/>
     <use xlink:href="#DejaVuSans-70" transform="translate(1050.337891 0)"/>
     <use xlink:href="#DejaVuSans-74" transform="translate(1113.814453 0)"/>
     <use xlink:href="#DejaVuSans-34" transform="translate(1153.023438 0)"/>
     <use xlink:href="#DejaVuSans-6f" transform="translate(1216.646484 0)"/>
    </g>
   </g>
   <g id="text_27">
    <!-- gpt4omini_rescued/gpt4omini -->
    <g transform="translate(196.839458 122.304926) scale(0.07 -0.07)">
     <use xlink:href="#DejaVuSans-67"/>
     <use xlink:href="#DejaVuSans-70" transform="translate(63.476562 0)"/>
     <use xlink:href="#DejaVuSans-74" transform="translate(126.953125 0)"/>
     <use xlink:href="#DejaVuSans-34" transform="translate(166.162109 0)"/>
     <use xlink:href="#DejaVuSans-6f" transform="translate(229.785156 0)"/>
     <use xlink:href="#DejaVuSans-6d" transform="translate(290.966797 0)"/>
     <use xlink:href="#DejaVuSans-69" transform="translate(388.378906 0)"/>
     <use xlink:href="#DejaVuSans-6e" transform="translate(416.162109 0)"/>
     <use xlink:href="#DejaVuSans-69" transform="translate(479.541016 0)"/>
     <use xlink:href="#DejaVuSans-5f" transform="translate(507.324219 0)"/>
     <use xlink:href="#DejaVuSans-72" transform="translate(557.324219 0)"/>
     <use xlink:href="#DejaVuSans-65" transform="translate(596.1875 0)"/>
     <use xlink:href="#DejaVuSans-73" transform="translate(657.710938 0)"/>
     <use xlink:href="#DejaVuSans-63" transform="translate(709.810547 0)"/>
     <use xlink:href="#DejaVuSans-75" transform="translate(764.791016 0)"/>
     <use xlink:href="#DejaVuSans-65" transform="translate(828.169922 0)"/>
     <use xlink:href="#DejaVuSans-64" transform="translate(889.693359 0)"/>
     <use xlink:href="#DejaVuSans-2f" transform="translate(953.169922 0)"/>
     <use xlink:href="#DejaVuSans-67" transform="translate(986.861328 0)"/>
     <use xlink:href="#DejaVuSans-70" transform="translate(1050.337891 0)"/>
     <use xlink:href="#DejaVuSans-74" transform="translate(1113.814453 0)"/>
     <use xlink:href="#DejaVuSans-34" transform="translate(1153.023438 0)"/>
     <use xlink:href="#DejaVuSans-6f" transform="translate(1216.646484 0)"/>
     <use xlink:href="#DejaVuSans-6d" transform="translate(1277.828125 0)"/>
     <use xlink:href="#DejaVuSans-69" transform="translate(1375.240234 0)"/>
     <use xlink:href="#DejaVuSans-6e" transform="translate(1403.023438 0)"/>
     <use xlink:href="#DejaVuSans-69" transform="translate(1466.402344 0)"/>
    </g>
   </g>
   <g id="text_28">
    <!-- gpt4omini_rescued/gemma -->
    <g transform="translate(118.501227 167.921978) scale(0.07 -0.07)">
     <use xlink:href="#DejaVuSans-67"/>
     <use xlink:href="#DejaVuSans-70" transform="translate(63.476562 0)"/>
     <use xlink:href="#DejaVuSans-74" transform="translate(126.953125 0)"/>
     <use xlink:href="#DejaVuSans-34" transform="translate(166.162109 0)"/>
     <use xlink:href="#DejaVuSans-6f" transform="translate(229.785156 0)"/>
     <use xlink:href="#DejaVuSans-6d" transform="translate(290.966797 0)"/>
     <use xlink:href="#DejaVuSans-69" transform="translate(388.378906 0)"/>
     <use xlink:href="#DejaVuSans-6e" transform="translate(416.162109 0)"/>
     <use xlink:href="#DejaVuSans-69" transform="translate(479.541016 0)"/>
     <use xlink:href="#DejaVuSans-5f" transform="translate(507.324219 0)"/>
     <use xlink:href="#DejaVuSans-72" transform="translate(557.324219 0)"/>
     <use xlink:href="#DejaVuSans-65" transform="translate(596.1875 0)"/>
     <use xlink:href="#DejaVuSans-73" transform="translate(657.710938 0)"/>
     <use xlink:href="#DejaVuSans-63" transform="translate(709.810547 0)"/>
     <use xlink:href="#DejaVuSans-75" transform="translate(764.791016 0)"/>
     <use xlink:href="#DejaVuSans-65" transform="translate(828.169922 0)"/>
     <use xlink:href="#DejaVuSans-64" transform="translate(889.693359 0)"/>
     <use xlink:href="#DejaVuSans-2f" transform="translate(953.169922 0)"/>
     <use xlink:href="#DejaVuSans-67" transform="translate(986.861328 0)"/>
     <use xlink:href="#DejaVuSans-65" transform="translate(1050.337891 0)"/>
     <use xlink:href="#DejaVuSans-6d" transform="translate(1111.861328 0)"/>
     <use xlink:href="#DejaVuSans-6d" transform="translate(1209.273438 0)"/>
     <use xlink:href="#DejaVuSans-61" transform="translate(1306.685547 0)"/>
    </g>
   </g>
   <g id="text_29">
    <!-- gemma_rescued/claude -->
    <g transform="translate(215.470116 168.557539) scale(0.07 -0.07)">
     <use xlink:href="#DejaVuSans-67"/>
     <use xlink:href="#DejaVuSans-65" transform="translate(63.476562 0)"/>
     <use xlink:href="#DejaVuSans-6d" transform="translate(125 0)"/>
     <use xlink:href="#DejaVuSans-6d" transform="translate(222.412109 0)"/>
     <use xlink:href="#DejaVuSans-61" transform="translate(319.824219 0)"/>
     <use xlink:href="#DejaVuSans-5f" transform="translate(381.103516 0)"/>
     <use xlink:href="#DejaVuSans-72" transform="translate(431.103516 0)"/>
     <use xlink:href="#DejaVuSans-65" transform="translate(469.966797 0)"/>
     <use xlink:href="#DejaVuSans-73" transform="translate(531.490234 0)"/>
     <use xlink:href="#DejaVuSans-63" transform="translate(583.589844 0)"/>
     <use xlink:href="#DejaVuSans-75" transform="translate(638.570312 0)"/>
     <use xlink:href="#DejaVuSans-65" transform="translate(701.949219 0)"/>
     <use xlink:href="#DejaVuSans-64" transform="translate(763.472656 0)"/>
     <use xlink:href="#DejaVuSans-2f" transform="translate(826.949219 0)"/>
     <use xlink:href="#DejaVuSans-63" transform="translate(860.640625 0)"/>
     <use xlink:href="#DejaVuSans-6c" transform="translate(915.621094 0)"/>
     <use xlink:href="#DejaVuSans-61" transform="translate(943.404297 0)"/>
     <use xlink:href="#DejaVuSans-75" transform="translate(1004.683594 0)"/>
     <use xlink:href="#DejaVuSans-64" transform="translate(1068.0625 0)"/>
     <use xlink:href="#DejaVuSans-65" transform="translate(1131.539062 0)"/>
    </g>
   </g>
   <g id="text_30">
    <!-- gemma_rescued/gpt4o -->
    <g transform="translate(246.249529 73.215012) scale(0.07 -0.07)">
     <use xlink:href="#DejaVuSans-67"/>
     <use xlink:href="#DejaVuSans-65" transform="translate(63.476562 0)"/>
     <use xlink:href="#DejaVuSans-6d" transform="translate(125 0)"/>
     <use xlink:href="#DejaVuSans-6d" transform="translate(222.412109 0)"/>
     <use xlink:href="#DejaVuSans-61" transform="translate(319.824219 0)"/>
     <use xlink:href="#DejaVuSans-5f" transform="translate(381.103516 0)"/>
     <use xlink:href="#DejaVuSans-72" transform="translate(431.103516 0)"/>
     <use xlink:href="#DejaVuSans-65" transform="translate(469.966797 0)"/>
     <use xlink:href="#DejaVuSans-73" transform="translate(531.490234 0)"/>
     <use xlink:href="#DejaVuSans-63" transform="translate(583.589844 0)"/>
     <use xlink:href="#DejaVuSans-75" transform="translate(638.570312 0)"/>
     <use xlink:href="#DejaVuSans-65" transform="translate(701.949219 0)"/>
     <use xlink:href="#DejaVuSans-64" transform="translate(763.472656 0)"/>
     <use xlink:href="#DejaVuSans-2f" transform="translate(826.949219 0)"/>
     <use xlink:href="#DejaVuSans-67" transform="translate(860.640625 0)"/>
     <use xlink:href="#DejaVuSans-70" transform="translate(924.117188 0)"/>
     <use xlink:href="#DejaVuSans-74" transform="translate(987.59375 0)"/>
     <use xlink:href="#DejaVuSans-34" transform="translate(1026.802734 0)"/>
     <use xlink:href="#DejaVuSans-6f" transform="translate(1090.425781 0)"/>
    </g>
   </g>
   <g id="text_31">
    <!-- gemma_rescued/gpt4omini -->
    <g transform="translate(336.129666 45.721824) scale(0.07 -0.07)">
     <use xlink:href="#DejaVuSans-67"/>
     <use xlink:href="#DejaVuSans-65" transform="translate(63.476562 0)"/>
     <use xlink:href="#DejaVuSans-6d" transform="translate(125 0)"/>
     <use xlink:href="#DejaVuSans-6d" transform="translate(222.412109 0)"/>
     <use xlink:href="#DejaVuSans-61" transform="translate(319.824219 0)"/>
     <use xlink:href="#DejaVuSans-5f" transform="translate(381.103516 0)"/>
     <use xlink:href="#DejaVuSans-72" transform="translate(431.103516 0)"/>
     <use xlink:href="#DejaVuSans-65" transform="translate(469.966797 0)"/>
     <use xlink:href="#DejaVuSans-73" transform="translate(531.490234 0)"/>
     <use xlink:href="#DejaVuSans-63" transform="translate(583.589844 0)"/>
     <use xlink:href="#DejaVuSans-75" transform="translate(638.570312 0)"/>
     <use xlink:href="#DejaVuSans-65" transform="translate(701.949219 0)"/>
     <use xlink:href="#DejaVuSans-64" transform="translate(763.472656 0)"/>
     <use xlink:href="#DejaVuSans-2f" transform="translate(826.949219 0)"/>
     <use xlink:href="#DejaVuSans-67" transform="translate(860.640625 0)"/>
     <use xlink:href="#DejaVuSans-70" transform="translate(924.117188 0)"/>
     <use xlink:href="#DejaVuSans-74" transform="translate(987.59375 0)"/>
     <use xlink:href="#DejaVuSans-34" transform="translate(1026.802734 0)"/>
     <use xlink:href="#DejaVuSans-6f" transform="translate(1090.425781 0)"/>
     <use xlink:href="#DejaVuSans-6d" transform="translate(1151.607422 0)"/>
     <use xlink:href="#DejaVuSans-69" transform="translate(1249.019531 0)"/>
     <use xlink:href="#DejaVuSans-6e" transform="translate(1276.802734 0)"/>
     <use xlink:href="#DejaVuSans-69" transform="translate(1340.181641 0)"/>
    </g>
   </g>
   <g id="text_32">
    <!-- gemma_rescued/gemma -->
    <g transform="translate(146.324634 230.966344) scale(0.07 -0.07)">
     <use xlink:href="#DejaVuSans-67"/>
     <use xlink:href="#DejaVuSans-65" transform="translate(63.476562 0)"/>
     <use xlink:href="#DejaVuSans-6d" transform="translate(125 0)"/>
     <use xlink:href="#DejaVuSans-6d" transform="translate(222.412109 0)"/>
     <use xlink:href="#DejaVuSans-61" transform="translate(319.824219 0)"/>
     <use xlink:href="#DejaVuSans-5f" transform="translate(381.103516 0)"/>
     <use xlink:href="#DejaVuSans-72" transform="translate(431.103516 0)"/>
     <use xlink:href="#DejaVuSans-65" transform="translate(469.966797 0)"/>
     <use xlink:href="#DejaVuSans-73" transform="translate(531.490234 0)"/>
     <use xlink:href="#DejaVuSans-63" transform="translate(583.589844 0)"/>
     <use xlink:href="#DejaVuSans-75" transform="translate(638.570312 0)"/>
     <use xlink:href="#DejaVuSans-65" transform="translate(701.949219 0)"/>
     <use xlink:href="#DejaVuSans-64" transform="translate(763.472656 0)"/>
     <use xlink:href="#DejaVuSans-2f" transform="translate(826.949219 0)"/>
     <use xlink:href="#DejaVuSans-67" transform="translate(860.640625 0)"/>
     <use xlink:href="#DejaVuSans-65" transform="translate(924.117188 0)"/>
     <use xlink:href="#DejaVuSans-6d" transform="translate(985.640625 0)"/>
     <use xlink:href="#DejaVuSans-6d" transform="translate(1083.052734 0)"/>
     <use xlink:href="#DejaVuSans-61" transform="translate(1180.464844 0)"/>
    </g>
   </g>
   <g id="text_33">
    <!-- Reference Preference Map -->
    <g transform="translate(205.845 12.118365) scale(0.12 -0.12)">
     <defs>
      <path id="DejaVuSans-52" d="M 2841 2188 
Q 3044 2119 3236 1894 
Q 3428 1669 3622 1275 
L 4263 0 
L 3584 0 
L 2988 1197 
Q 2756 1666 2539 1819 
Q 2322 1972 1947 1972 
L 1259 1972 
L 1259 0 
L 628 0 
L 628 4666 
L 2053 4666 
Q 2853 4666 3247 4331 
Q 3641 3997 3641 3322 
Q 3641 2881 3436 2590 
Q 3231 2300 2841 2188 
z
M 1259 4147 
L 1259 2491 
L 2053 2491 
Q 2509 2491 2742 2702 
Q 2975 2913 2975 3322 
Q 2975 3731 2742 3939 
Q 2509 4147 2053 4147 
L 1259 4147 
z
" transform="scale(0.015625)"/>
      <path id="DejaVuSans-66" d="M 2375 4863 
L 2375 4384 
L 1825 4384 
Q 1516 4384 1395 4259 
Q 1275 4134 1275 3809 
L 1275 3500 
L 2222 3500 
L 2222 3053 
L 1275 3053 
L 1275 0 
L 697 0 
L 697 3053 
L 147 3053 
L 147 3500 
L 697 3500 
L 697 3744 
Q 697 4328 969 4595 
Q 1241 4863 1831 4863 
L 2375 4863 
z
" transform="scale(0.015625)"/>
      <path id="DejaVuSans-50" d="M 1259 4147 
L 1259 2394 
L 2053 2394 
Q 2494 2394 2734 2622 
Q 2975 2850 2975 3272 
Q 2975 3691 2734 3919 
Q 2494 4147 2053 4147 
L 1259 4147 
z
M 628 4666 
L 2053 4666 
Q 2838 4666 3239 4311 
Q 3641 3956 3641 3272 
Q 3641 2581 3239 2228 
Q 2838 1875 2053 1875 
L 1259 1875 
L 1259 0 
L 628 0 
L 628 4666 
z
" transform="scale(0.015625)"/>
      <path id="DejaVuSans-4d" d="M 628 4666 
L 1569 4666 
L 2759 1491 
L 3956 4666 
L 4897 4666 
L 4897 0 
L 4281 0 
L 4281 4097 
L 3078 897 
L 2444 897 
L 1241 4097 
L 1241 0 
L 628 0 
L 628 4666 
z
" transform="scale(0.015625)"/>
     </defs>
     <use xlink:href="#DejaVuSans-52"/>
     <use xlink:href="#DejaVuSans-65" transform="translate(64.982422 0)"/>
     <use xlink:href="#DejaVuSans-66" transform="translate(126.505859 0)"/>
     <use xlink:href="#DejaVuSans-65" transform="translate(161.710938 0)"/>
     <use xlink:href="#DejaVuSans-72" transform="translate(223.234375 0)"/>
     <use xlink:href="#DejaVuSans-65" transform="translate(262.097656 0)"/>
     <use xlink:href="#DejaVuSans-6e" transform="translate(323.621094 0)"/>
     <use xlink:href="#DejaVuSans-63" transform="translate(387 0)"/>
     <use xlink:href="#DejaVuSans-65" transform="translate(441.980469 0)"/>
     <use xlink:href="#DejaVuSans-20" transform="translate(503.503906 0)"/>
     <use xlink:href="#DejaVuSans-50" transform="translate(535.291016 0)"/>
     <use xlink:href="#DejaVuSans-72" transform="translate(593.84375 0)"/>
     <use xlink:href="#DejaVuSans-65" transform="translate(632.707031 0)"/>
     <use xlink:href="#DejaVuSans-66" transform="translate(694.230469 0)"/>
     <use xlink:href="#DejaVuSans-65" transform="translate(729.435547 0)"/>
     <use xlink:href="#DejaVuSans-72" transform="translate(790.958984 0)"/>
     <use xlink:href="#DejaVuSans-65" transform="translate(829.822266 0)"/>
     <use xlink:href="#DejaVuSans-6e" transform="translate(891.345703 0)"/>
     <use xlink:href="#DejaVuSans-63" transform="translate(954.724609 0)"/>
     <use xlink:href="#DejaVuSans-65" transform="translate(1009.705078 0)"/>
     <use xlink:href="#DejaVuSans-20" transform="translate(1071.228516 0)"/>
     <use xlink:href="#DejaVuSans-4d" transform="translate(1103.015625 0)"/>
     <use xlink:href="#DejaVuSans-61" transform="translate(1189.294922 0)"/>
     <use xlink:href="#DejaVuSans-70" transform="translate(1250.574219 0)"/>
    </g>
    <!-- points below diagonal are closer to low-productivity case -->
    <g transform="translate(113.678438 25.55574) scale(0.12 -0.12)">
     <defs>
      <path id="DejaVuSans-62" d="M 3116 1747 
Q 3116 2381 2855 2742 
Q 2594 3103 2138 3103 
Q 1681 3103 1420 2742 
Q 1159 2381 1159 1747 
Q 1159 1113 1420 752 
Q 1681 391 2138 391 
Q 2594 391 2855 752 
Q 3116 1113 3116 1747 
z
M 1159 2969 
Q 1341 3281 1617 3432 
Q 1894 3584 2278 3584 
Q 2916 3584 3314 3078 
Q 3713 2572 3713 1747 
Q 3713 922 3314 415 
Q 2916 -91 2278 -91 
Q 1894 -91 1617 61 
Q 1341 213 1159 525 
L 1159 0 
L 581 0 
L 581 4863 
L 1159 4863 
L 1159 2969 
z
" transform="scale(0.015625)"/>
     </defs>
     <use xlink:href="#DejaVuSans-70"/>
     <use xlink:href="#DejaVuSans-6f" transform="translate(63.476562 0)"/>
     <use xlink:href="#DejaVuSans-69" transform="translate(124.658203 0)"/>
     <use xlink:href="#DejaVuSans-6e" transform="translate(152.441406 0)"/>
     <use xlink:href="#DejaVuSans-74" transform="translate(215.820312 0)"/>
     <use xlink:href="#DejaVuSans-73" transform="translate(255.029297 0)"/>
     <use xlink:href="#DejaVuSans-20" transform="translate(307.128906 0)"/>
     <use xlink:href="#DejaVuSans-62" transform="translate(338.916016 0)"/>
     <use xlink:href="#DejaVuSans-65" transform="translate(402.392578 0)"/>
     <use xlink:href="#DejaVuSans-6c" transform="translate(463.916016 0)"/>
     <use xlink:href="#DejaVuSans-6f" transform="translate(491.699219 0)"/>
     <use xlink:href="#DejaVuSans-77" transform="translate(552.880859 0)"/>
     <use xlink:href="#DejaVuSans-20" transform="translate(634.667969 0)"/>
     <use xlink:href="#DejaVuSans-64" transform="translate(666.455078 0)"/>
     <use xlink:href="#DejaVuSans-69" transform="translate(729.931641 0)"/>
     <use xlink:href="#DejaVuSans-61" transform="translate(757.714844 0)"/>
     <use xlink:href="#DejaVuSans-67" transform="translate(818.994141 0)"/>
     <use xlink:href="#DejaVuSans-6f" transform="translate(882.470703 0)"/>
     <use xlink:href="#DejaVuSans-6e" transform="translate(943.652344 0)"/>
     <use xlink:href="#DejaVuSans-61" transform="translate(1007.03125 0)"/>
     <use xlink:href="#DejaVuSans-6c" transform="translate(1068.310547 0)"/>
     <use xlink:href="#DejaVuSans-20" transform="translate(1096.09375 0)"/>
     <use xlink:href="#DejaVuSans-61" transform="translate(1127.880859 0)"/>
     <use xlink:href="#DejaVuSans-72" transform="translate(1189.160156 0)"/>
     <use xlink:href="#DejaVuSans-65" transform="translate(1228.023438 0)"/>
     <use xlink:href="#DejaVuSans-20" transform="translate(1289.546875 0)"/>
     <use xlink:href="#DejaVuSans-63" transform="translate(1321.333984 0)"/>
     <use xlink:href="#DejaVuSans-6c" transform="translate(1376.314453 0)"/>
     <use xlink:href="#DejaVuSans-6f" transform="translate(1404.097656 0)"/>
     <use xlink:href="#DejaVuSans-73" transform="translate(1465.279297 0)"/>
     <use xlink:href="#DejaVuSans-65" transform="translate(1517.378906 0)"/>
     <use xlink:href="#DejaVuSans-72" transform="translate(1578.902344 0)"/>
     <use xlink:href="#DejaVuSans-20" transform="translate(1620.015625 0)"/>
     <use xlink:href="#DejaVuSans-74" transform="translate(1651.802734 0)"/>
     <use xlink:href="#DejaVuSans-6f" transform="translate(1691.011719 0)"/>
     <use xlink:href="#DejaVuSans-20" transform="translate(1752.193359 0)"/>
     <use xlink:href="#DejaVuSans-6c" transform="translate(1783.980469 0)"/>
     <use xlink:href="#DejaVuSans-6f" transform="translate(1811.763672 0)"/>
     <use xlink:href="#DejaVuSans-77" transform="translate(1872.945312 0)"/>
     <use xlink:href="#DejaVuSans-2d" transform="translate(1954.732422 0)"/>
     <use xlink:href="#DejaVuSans-70" transform="translate(1990.816406 0)"/>
     <use xlink:href="#DejaVuSans-72" transform="translate(2054.292969 0)"/>
     <use xlink:href="#DejaVuSans-6f" transform="translate(2093.15625 0)"/>
     <use xlink:href="#DejaVuSans-64" transform="translate(2154.337891 0)"/>
     <use xlink:href="#DejaVuSans-75" transform="translate(2217.814453 0)"/>
     <use xlink:href="#DejaVuSans-63" transform="translate(2281.193359 0)"/>
     <use xlink:href="#DejaVuSans-74" transform="translate(2336.173828 0)"/>
     <use xlink:href="#DejaVuSans-69" transform="translate(2375.382812 0)"/>
     <use xlink:href="#DejaVuSans-76" transform="translate(2403.166016 0)"/>
     <use xlink:href="#DejaVuSans-69" transform="translate(2462.345703 0)"/>
     <use xlink:href="#DejaVuSans-74" transform="translate(2490.128906 0)"/>
     <use xlink:href="#DejaVuSans-79" transform="translate(2529.337891 0)"/>
     <use xlink:href="#DejaVuSans-20" transform="translate(2588.517578 0)"/>
     <use xlink:href="#DejaVuSans-63" transform="translate(2620.304688 0)"/>
     <use xlink:href="#DejaVuSans-61" transform="translate(2675.285156 0)"/>
     <use xlink:href="#DejaVuSans-73" transform="translate(2736.564453 0)"/>
     <use xlink:href="#DejaVuSans-65" transform="translate(2788.664062 0)"/>
    </g>
   </g>
  </g>
 </g>
 <defs>
  <clipPath id="p8b911e3009">
   <rect x="39.58149" y="31.55574" width="490.21827" height="381.48777"/>
  </clipPath>
 </defs>
</svg>
