<?xml version="1.0" encoding="utf-8" standalone="no"?>
<!DOCTYPE svg PUBLIC "-//W3C//DTD SVG 1.1//EN"
  "http://www.w3.org/Graphics/SVG/1.1/DTD/svg11.dtd">
<svg xmlns:xlink="http://www.w3.org/1999/xlink" width="576pt" height="446.4pt" viewBox="0 0 576 446.4" xmlns="http://www.w3.org/2000/svg" version="1.1">
 <metadata>
  <rdf:RDF xmlns:dc="http://purl.org/dc/elements/1.1/" xmlns:cc="http://creativecommons.org/ns#" xmlns:rdf="http://www.w3.org/1999/02/22-rdf-syntax-ns#">
   <cc:Work>
    <dc:type rdf:resource="http://purl.org/dc/dcmitype/StillImage"/>
    <dc:date>2026-05-07T11:50:00.309065</dc:date>
    <dc:format>image/svg+xml</dc:format>
    <dc:creator>
     <cc:Agent>
      <dc:title>Matplotlib v3.10.8, https://matplotlib.org/</dc:title>
     </cc:Agent>
    </dc:creator>
   </cc:Work>
  </rdf:RDF>
 </metadata>
 <defs>
  <style type="text/css">*{stroke-linejoin: round; stroke-linecap: butt}</style>
 </defs>
 <g id="figure_1">
  <g id="patch_1">
   <path d="M 0 446.4 
L 576 446.4 
L 576 0 
L 0 0 
z
" style="fill: #ffffff"/>
  </g>
  <g id="axes_1">
   <g id="patch_2">
    <path d="M 42.765865 413.04351 
L 530.004022 413.04351 
L 530.004022 18.118365 
L 42.765865 18.118365 
z
" style="fill: #ffffff"/>
   </g>
   <g id="PathCollection_1">
    <defs>
     <path id="m4a5a63fd68" d="M 0 -8.660254 
L -1.944348 -2.676166 
L -8.236391 -2.676166 
L -3.146021 1.022204 
L -5.09037 7.006293 
L -0 3.307923 
L 5.09037 7.006293 
L 3.146021 1.022204 
L 8.236391 -2.676166 
L 1.944348 -2.676166 
z
" style="stroke: #000000"/>
    </defs>
    <g clip-path="url(#p16a3841fae)">
     <use xlink:href="#m4a5a63fd68" x="147.449516" y="345.21869" style="fill: #d00000; stroke: #000000"/>
    </g>
   </g>
   <g id="PathCollection_2">
    <defs>
     <path id="md6affa156a" d="M 0 -8.660254 
L -1.944348 -2.676166 
L -8.236391 -2.676166 
L -3.146021 1.022204 
L -5.09037 7.006293 
L -0 3.307923 
L 5.09037 7.006293 
L 3.146021 1.022204 
L 8.236391 -2.676166 
L 1.944348 -2.676166 
z
" style="stroke: #000000"/>
    </defs>
    <g clip-path="url(#p16a3841fae)">
     <use xlink:href="#md6affa156a" x="64.913054" y="395.092367" style="fill: #003566; stroke: #000000"/>
    </g>
   </g>
   <g id="PathCollection_3">
    <defs>
     <path id="m520d8361c9" d="M 0 4.472136 
C 1.186024 4.472136 2.323632 4.000923 3.162278 3.162278 
C 4.000923 2.323632 4.472136 1.186024 4.472136 0 
C 4.472136 -1.186024 4.000923 -2.323632 3.162278 -3.162278 
C 2.323632 -4.000923 1.186024 -4.472136 0 -4.472136 
C -1.186024 -4.472136 -2.323632 -4.000923 -3.162278 -3.162278 
C -4.000923 -2.323632 -4.472136 -1.186024 -4.472136 0 
C -4.472136 1.186024 -4.000923 2.323632 -3.162278 3.162278 
C -2.323632 4.000923 -1.186024 4.472136 0 4.472136 
z
" style="stroke: #000000; stroke-opacity: 0.82; stroke-width: 0.6"/>
    </defs>
    <g clip-path="url(#p16a3841fae)">
     <use xlink:href="#m520d8361c9" x="214.468423" y="376.608814" style="fill: #355070; fill-opacity: 0.82; stroke: #000000; stroke-opacity: 0.82; stroke-width: 0.6"/>
    </g>
   </g>
   <g id="PathCollection_4">
    <defs>
     <path id="m2df70383c5" d="M -4.472136 4.472136 
L 4.472136 4.472136 
L 4.472136 -4.472136 
L -4.472136 -4.472136 
z
" style="stroke: #000000; stroke-opacity: 0.82; stroke-width: 0.6"/>
    </defs>
    <g clip-path="url(#p16a3841fae)">
     <use xlink:href="#m2df70383c5" x="216.115365" y="380.192471" style="fill: #355070; fill-opacity: 0.82; stroke: #000000; stroke-opacity: 0.82; stroke-width: 0.6"/>
    </g>
   </g>
   <g id="PathCollection_5">
    <defs>
     <path id="m22775e2a8f" d="M 0 -4.472136 
L -4.472136 4.472136 
L 4.472136 4.472136 
z
" style="stroke: #000000; stroke-opacity: 0.82; stroke-width: 0.6"/>
    </defs>
    <g clip-path="url(#p16a3841fae)">
     <use xlink:href="#m22775e2a8f" x="507.856833" y="334.056615" style="fill: #355070; fill-opacity: 0.82; stroke: #000000; stroke-opacity: 0.82; stroke-width: 0.6"/>
    </g>
   </g>
   <g id="PathCollection_6">
    <defs>
     <path id="m2ccb070b4c" d="M -0 6.324555 
L 6.324555 0 
L 0 -6.324555 
L -6.324555 -0 
z
" style="stroke: #000000; stroke-opacity: 0.82; stroke-width: 0.6"/>
    </defs>
    <g clip-path="url(#p16a3841fae)">
     <use xlink:href="#m2ccb070b4c" x="216.115365" y="380.192471" style="fill: #355070; fill-opacity: 0.82; stroke: #000000; stroke-opacity: 0.82; stroke-width: 0.6"/>
    </g>
   </g>
   <g id="PathCollection_7">
    <defs>
     <path id="m8c75a8497a" d="M 0 4.472136 
C 1.186024 4.472136 2.323632 4.000923 3.162278 3.162278 
C 4.000923 2.323632 4.472136 1.186024 4.472136 0 
C 4.472136 -1.186024 4.000923 -2.323632 3.162278 -3.162278 
C 2.323632 -4.000923 1.186024 -4.472136 0 -4.472136 
C -1.186024 -4.472136 -2.323632 -4.000923 -3.162278 -3.162278 
C -4.000923 -2.323632 -4.472136 -1.186024 -4.472136 0 
C -4.472136 1.186024 -4.000923 2.323632 -3.162278 3.162278 
C -2.323632 4.000923 -1.186024 4.472136 0 4.472136 
z
" style="stroke: #000000; stroke-opacity: 0.82; stroke-width: 0.6"/>
    </defs>
    <g clip-path="url(#p16a3841fae)">
     <use xlink:href="#m8c75a8497a" x="245.773748" y="376.608814" style="fill: #b56576; fill-opacity: 0.82; stroke: #000000; stroke-opacity: 0.82; stroke-width: 0.6"/>
    </g>
   </g>
   <g id="PathCollection_8">
    <defs>
     <path id="mdb7b2dc73f" d="M -4.472136 4.472136 
L 4.472136 4.472136 
L 4.472136 -4.472136 
L -4.472136 -4.472136 
z
" style="stroke: #000000; stroke-opacity: 0.82; stroke-width: 0.6"/>
    </defs>
    <g clip-path="url(#p16a3841fae)">
     <use xlink:href="#mdb7b2dc73f" x="216.115365" y="380.192471" style="fill: #b56576; fill-opacity: 0.82; stroke: #000000; stroke-opacity: 0.82; stroke-width: 0.6"/>
    </g>
   </g>
   <g id="PathCollection_9">
    <defs>
     <path id="m6675fe3d7b" d="M 0 -4.472136 
L -4.472136 4.472136 
L 4.472136 4.472136 
z
" style="stroke: #000000; stroke-opacity: 0.82; stroke-width: 0.6"/>
    </defs>
    <g clip-path="url(#p16a3841fae)">
     <use xlink:href="#m6675fe3d7b" x="245.773748" y="376.608814" style="fill: #b56576; fill-opacity: 0.82; stroke: #000000; stroke-opacity: 0.82; stroke-width: 0.6"/>
    </g>
   </g>
   <g id="PathCollection_10">
    <defs>
     <path id="m544b2fcb02" d="M -0 6.324555 
L 6.324555 0 
L 0 -6.324555 
L -6.324555 -0 
z
" style="stroke: #000000; stroke-opacity: 0.82; stroke-width: 0.6"/>
    </defs>
    <g clip-path="url(#p16a3841fae)">
     <use xlink:href="#m544b2fcb02" x="201.735949" y="380.192471" style="fill: #b56576; fill-opacity: 0.82; stroke: #000000; stroke-opacity: 0.82; stroke-width: 0.6"/>
    </g>
   </g>
   <g id="PathCollection_11">
    <defs>
     <path id="md25e7ae01e" d="M 0 4.472136 
C 1.186024 4.472136 2.323632 4.000923 3.162278 3.162278 
C 4.000923 2.323632 4.472136 1.186024 4.472136 0 
C 4.472136 -1.186024 4.000923 -2.323632 3.162278 -3.162278 
C 2.323632 -4.000923 1.186024 -4.472136 0 -4.472136 
C -1.186024 -4.472136 -2.323632 -4.000923 -3.162278 -3.162278 
C -4.000923 -2.323632 -4.472136 -1.186024 -4.472136 0 
C -4.472136 1.186024 -4.000923 2.323632 -3.162278 3.162278 
C -2.323632 4.000923 -1.186024 4.472136 0 4.472136 
z
" style="stroke: #000000; stroke-opacity: 0.82; stroke-width: 0.6"/>
    </defs>
    <g clip-path="url(#p16a3841fae)">
     <use xlink:href="#md25e7ae01e" x="83.250102" y="381.723301" style="fill: #9d4edd; fill-opacity: 0.82; stroke: #000000; stroke-opacity: 0.82; stroke-width: 0.6"/>
    </g>
   </g>
   <g id="PathCollection_12">
    <defs>
     <path id="mdea3082316" d="M -4.472136 4.472136 
L 4.472136 4.472136 
L 4.472136 -4.472136 
L -4.472136 -4.472136 
z
" style="stroke: #000000; stroke-opacity: 0.82; stroke-width: 0.6"/>
    </defs>
    <g clip-path="url(#p16a3841fae)">
     <use xlink:href="#mdea3082316" x="89.578298" y="380.192471" style="fill: #9d4edd; fill-opacity: 0.82; stroke: #000000; stroke-opacity: 0.82; stroke-width: 0.6"/>
    </g>
   </g>
   <g id="PathCollection_13">
    <defs>
     <path id="m658925bb17" d="M 0 -4.472136 
L -4.472136 4.472136 
L 4.472136 4.472136 
z
" style="stroke: #000000; stroke-opacity: 0.82; stroke-width: 0.6"/>
    </defs>
    <g clip-path="url(#p16a3841fae)">
     <use xlink:href="#m658925bb17" x="191.509692" y="358.950179" style="fill: #9d4edd; fill-opacity: 0.82; stroke: #000000; stroke-opacity: 0.82; stroke-width: 0.6"/>
    </g>
   </g>
   <g id="PathCollection_14">
    <defs>
     <path id="m367f5935da" d="M -0 6.324555 
L 6.324555 0 
L 0 -6.324555 
L -6.324555 -0 
z
" style="stroke: #000000; stroke-opacity: 0.82; stroke-width: 0.6"/>
    </defs>
    <g clip-path="url(#p16a3841fae)">
     <use xlink:href="#m367f5935da" x="182.916951" y="365.32503" style="fill: #9d4edd; fill-opacity: 0.82; stroke: #000000; stroke-opacity: 0.82; stroke-width: 0.6"/>
    </g>
   </g>
   <g id="PathCollection_15">
    <defs>
     <path id="m20b1a58787" d="M 0 4.472136 
C 1.186024 4.472136 2.323632 4.000923 3.162278 3.162278 
C 4.000923 2.323632 4.472136 1.186024 4.472136 0 
C 4.472136 -1.186024 4.000923 -2.323632 3.162278 -3.162278 
C 2.323632 -4.000923 1.186024 -4.472136 0 -4.472136 
C -1.186024 -4.472136 -2.323632 -4.000923 -3.162278 -3.162278 
C -4.000923 -2.323632 -4.472136 -1.186024 -4.472136 0 
C -4.472136 1.186024 -4.000923 2.323632 -3.162278 3.162278 
C -2.323632 4.000923 -1.186024 4.472136 0 4.472136 
z
" style="stroke: #000000; stroke-opacity: 0.82; stroke-width: 0.6"/>
    </defs>
    <g clip-path="url(#p16a3841fae)">
     <use xlink:href="#m20b1a58787" x="94.304306" y="355.142037" style="fill: #f4a261; fill-opacity: 0.82; stroke: #000000; stroke-opacity: 0.82; stroke-width: 0.6"/>
    </g>
   </g>
   <g id="PathCollection_16">
    <defs>
     <path id="mbe62685ebd" d="M -4.472136 4.472136 
L 4.472136 4.472136 
L 4.472136 -4.472136 
L -4.472136 -4.472136 
z
" style="stroke: #000000; stroke-opacity: 0.82; stroke-width: 0.6"/>
    </defs>
    <g clip-path="url(#p16a3841fae)">
     <use xlink:href="#mbe62685ebd" x="206.350072" y="296.034698" style="fill: #f4a261; fill-opacity: 0.82; stroke: #000000; stroke-opacity: 0.82; stroke-width: 0.6"/>
    </g>
   </g>
   <g id="PathCollection_17">
    <defs>
     <path id="m0f203001fb" d="M 0 -4.472136 
L -4.472136 4.472136 
L 4.472136 4.472136 
z
" style="stroke: #000000; stroke-opacity: 0.82; stroke-width: 0.6"/>
    </defs>
    <g clip-path="url(#p16a3841fae)">
     <use xlink:href="#m0f203001fb" x="105.157117" y="36.069508" style="fill: #f4a261; fill-opacity: 0.82; stroke: #000000; stroke-opacity: 0.82; stroke-width: 0.6"/>
    </g>
   </g>
   <g id="PathCollection_18">
    <defs>
     <path id="mb7e5cf13e4" d="M -0 6.324555 
L 6.324555 0 
L 0 -6.324555 
L -6.324555 -0 
z
" style="stroke: #000000; stroke-opacity: 0.82; stroke-width: 0.6"/>
    </defs>
    <g clip-path="url(#p16a3841fae)">
     <use xlink:href="#mb7e5cf13e4" x="105.157117" y="380.192471" style="fill: #f4a261; fill-opacity: 0.82; stroke: #000000; stroke-opacity: 0.82; stroke-width: 0.6"/>
    </g>
   </g>
   <g id="matplotlib.axis_1">
    <g id="xtick_1">
     <g id="line2d_1">
      <defs>
       <path id="m180651ffda" d="M 0 0 
L 0 3.5 
" style="stroke: #000000; stroke-width: 0.8"/>
      </defs>
      <g>
       <use xlink:href="#m180651ffda" x="57.941794" y="413.04351" style="stroke: #000000; stroke-width: 0.8"/>
      </g>
     </g>
     <g id="text_1">
      <!-- 0 -->
      <g transform="translate(54.760544 427.641948) scale(0.1 -0.1)">
       <defs>
        <path id="DejaVuSans-30" d="M 2034 4250 
Q 1547 4250 1301 3770 
Q 1056 3291 1056 2328 
Q 1056 1369 1301 889 
Q 1547 409 2034 409 
Q 2525 409 2770 889 
Q 3016 1369 3016 2328 
Q 3016 3291 2770 3770 
Q 2525 4250 2034 4250 
z
M 2034 4750 
Q 2819 4750 3233 4129 
Q 3647 3509 3647 2328 
Q 3647 1150 3233 529 
Q 2819 -91 2034 -91 
Q 1250 -91 836 529 
Q 422 1150 422 2328 
Q 422 3509 836 4129 
Q 1250 4750 2034 4750 
z
" transform="scale(0.015625)"/>
       </defs>
       <use xlink:href="#DejaVuSans-30"/>
      </g>
     </g>
    </g>
    <g id="xtick_2">
     <g id="line2d_2">
      <g>
       <use xlink:href="#m180651ffda" x="118.246811" y="413.04351" style="stroke: #000000; stroke-width: 0.8"/>
      </g>
     </g>
     <g id="text_2">
      <!-- 200 -->
      <g transform="translate(108.703061 427.641948) scale(0.1 -0.1)">
       <defs>
        <path id="DejaVuSans-32" d="M 1228 531 
L 3431 531 
L 3431 0 
L 469 0 
L 469 531 
Q 828 903 1448 1529 
Q 2069 2156 2228 2338 
Q 2531 2678 2651 2914 
Q 2772 3150 2772 3378 
Q 2772 3750 2511 3984 
Q 2250 4219 1831 4219 
Q 1534 4219 1204 4116 
Q 875 4013 500 3803 
L 500 4441 
Q 881 4594 1212 4672 
Q 1544 4750 1819 4750 
Q 2544 4750 2975 4387 
Q 3406 4025 3406 3419 
Q 3406 3131 3298 2873 
Q 3191 2616 2906 2266 
Q 2828 2175 2409 1742 
Q 1991 1309 1228 531 
z
" transform="scale(0.015625)"/>
       </defs>
       <use xlink:href="#DejaVuSans-32"/>
       <use xlink:href="#DejaVuSans-30" transform="translate(63.623047 0)"/>
       <use xlink:href="#DejaVuSans-30" transform="translate(127.246094 0)"/>
      </g>
     </g>
    </g>
    <g id="xtick_3">
     <g id="line2d_3">
      <g>
       <use xlink:href="#m180651ffda" x="178.551828" y="413.04351" style="stroke: #000000; stroke-width: 0.8"/>
      </g>
     </g>
     <g id="text_3">
      <!-- 400 -->
      <g transform="translate(169.008078 427.641948) scale(0.1 -0.1)">
       <defs>
        <path id="DejaVuSans-34" d="M 2419 4116 
L 825 1625 
L 2419 1625 
L 2419 4116 
z
M 2253 4666 
L 3047 4666 
L 3047 1625 
L 3713 1625 
L 3713 1100 
L 3047 1100 
L 3047 0 
L 2419 0 
L 2419 1100 
L 313 1100 
L 313 1709 
L 2253 4666 
z
" transform="scale(0.015625)"/>
       </defs>
       <use xlink:href="#DejaVuSans-34"/>
       <use xlink:href="#DejaVuSans-30" transform="translate(63.623047 0)"/>
       <use xlink:href="#DejaVuSans-30" transform="translate(127.246094 0)"/>
      </g>
     </g>
    </g>
    <g id="xtick_4">
     <g id="line2d_4">
      <g>
       <use xlink:href="#m180651ffda" x="238.856846" y="413.04351" style="stroke: #000000; stroke-width: 0.8"/>
      </g>
     </g>
     <g id="text_4">
      <!-- 600 -->
      <g transform="translate(229.313096 427.641948) scale(0.1 -0.1)">
       <defs>
        <path id="DejaVuSans-36" d="M 2113 2584 
Q 1688 2584 1439 2293 
Q 1191 2003 1191 1497 
Q 1191 994 1439 701 
Q 1688 409 2113 409 
Q 2538 409 2786 701 
Q 3034 994 3034 1497 
Q 3034 2003 2786 2293 
Q 2538 2584 2113 2584 
z
M 3366 4563 
L 3366 3988 
Q 3128 4100 2886 4159 
Q 2644 4219 2406 4219 
Q 1781 4219 1451 3797 
Q 1122 3375 1075 2522 
Q 1259 2794 1537 2939 
Q 1816 3084 2150 3084 
Q 2853 3084 3261 2657 
Q 3669 2231 3669 1497 
Q 3669 778 3244 343 
Q 2819 -91 2113 -91 
Q 1303 -91 875 529 
Q 447 1150 447 2328 
Q 447 3434 972 4092 
Q 1497 4750 2381 4750 
Q 2619 4750 2861 4703 
Q 3103 4656 3366 4563 
z
" transform="scale(0.015625)"/>
       </defs>
       <use xlink:href="#DejaVuSans-36"/>
       <use xlink:href="#DejaVuSans-30" transform="translate(63.623047 0)"/>
       <use xlink:href="#DejaVuSans-30" transform="translate(127.246094 0)"/>
      </g>
     </g>
    </g>
    <g id="xtick_5">
     <g id="line2d_5">
      <g>
       <use xlink:href="#m180651ffda" x="299.161863" y="413.04351" style="stroke: #000000; stroke-width: 0.8"/>
      </g>
     </g>
     <g id="text_5">
      <!-- 800 -->
      <g transform="translate(289.618113 427.641948) scale(0.1 -0.1)">
       <defs>
        <path id="DejaVuSans-38" d="M 2034 2216 
Q 1584 2216 1326 1975 
Q 1069 1734 1069 1313 
Q 1069 891 1326 650 
Q 1584 409 2034 409 
Q 2484 409 2743 651 
Q 3003 894 3003 1313 
Q 3003 1734 2745 1975 
Q 2488 2216 2034 2216 
z
M 1403 2484 
Q 997 2584 770 2862 
Q 544 3141 544 3541 
Q 544 4100 942 4425 
Q 1341 4750 2034 4750 
Q 2731 4750 3128 4425 
Q 3525 4100 3525 3541 
Q 3525 3141 3298 2862 
Q 3072 2584 2669 2484 
Q 3125 2378 3379 2068 
Q 3634 1759 3634 1313 
Q 3634 634 3220 271 
Q 2806 -91 2034 -91 
Q 1263 -91 848 271 
Q 434 634 434 1313 
Q 434 1759 690 2068 
Q 947 2378 1403 2484 
z
M 1172 3481 
Q 1172 3119 1398 2916 
Q 1625 2713 2034 2713 
Q 2441 2713 2670 2916 
Q 2900 3119 2900 3481 
Q 2900 3844 2670 4047 
Q 2441 4250 2034 4250 
Q 1625 4250 1398 4047 
Q 1172 3844 1172 3481 
z
" transform="scale(0.015625)"/>
       </defs>
       <use xlink:href="#DejaVuSans-38"/>
       <use xlink:href="#DejaVuSans-30" transform="translate(63.623047 0)"/>
       <use xlink:href="#DejaVuSans-30" transform="translate(127.246094 0)"/>
      </g>
     </g>
    </g>
    <g id="xtick_6">
     <g id="line2d_6">
      <g>
       <use xlink:href="#m180651ffda" x="359.46688" y="413.04351" style="stroke: #000000; stroke-width: 0.8"/>
      </g>
     </g>
     <g id="text_6">
      <!-- 1000 -->
      <g transform="translate(346.74188 427.641948) scale(0.1 -0.1)">
       <defs>
        <path id="DejaVuSans-31" d="M 794 531 
L 1825 531 
L 1825 4091 
L 703 3866 
L 703 4441 
L 1819 4666 
L 2450 4666 
L 2450 531 
L 3481 531 
L 3481 0 
L 794 0 
L 794 531 
z
" transform="scale(0.015625)"/>
       </defs>
       <use xlink:href="#DejaVuSans-31"/>
       <use xlink:href="#DejaVuSans-30" transform="translate(63.623047 0)"/>
       <use xlink:href="#DejaVuSans-30" transform="translate(127.246094 0)"/>
       <use xlink:href="#DejaVuSans-30" transform="translate(190.869141 0)"/>
      </g>
     </g>
    </g>
    <g id="xtick_7">
     <g id="line2d_7">
      <g>
       <use xlink:href="#m180651ffda" x="419.771897" y="413.04351" style="stroke: #000000; stroke-width: 0.8"/>
      </g>
     </g>
     <g id="text_7">
      <!-- 1200 -->
      <g transform="translate(407.046897 427.641948) scale(0.1 -0.1)">
       <use xlink:href="#DejaVuSans-31"/>
       <use xlink:href="#DejaVuSans-32" transform="translate(63.623047 0)"/>
       <use xlink:href="#DejaVuSans-30" transform="translate(127.246094 0)"/>
       <use xlink:href="#DejaVuSans-30" transform="translate(190.869141 0)"/>
      </g>
     </g>
    </g>
    <g id="xtick_8">
     <g id="line2d_8">
      <g>
       <use xlink:href="#m180651ffda" x="480.076915" y="413.04351" style="stroke: #000000; stroke-width: 0.8"/>
      </g>
     </g>
     <g id="text_8">
      <!-- 1400 -->
      <g transform="translate(467.351915 427.641948) scale(0.1 -0.1)">
       <use xlink:href="#DejaVuSans-31"/>
       <use xlink:href="#DejaVuSans-34" transform="translate(63.623047 0)"/>
       <use xlink:href="#DejaVuSans-30" transform="translate(127.246094 0)"/>
       <use xlink:href="#DejaVuSans-30" transform="translate(190.869141 0)"/>
      </g>
     </g>
    </g>
    <g id="text_9">
     <!-- Productivity (g/day; model estimated from Q) -->
     <g transform="translate(172.844319 441.320073) scale(0.1 -0.1)">
      <defs>
       <path id="DejaVuSans-50" d="M 1259 4147 
L 1259 2394 
L 2053 2394 
Q 2494 2394 2734 2622 
Q 2975 2850 2975 3272 
Q 2975 3691 2734 3919 
Q 2494 4147 2053 4147 
L 1259 4147 
z
M 628 4666 
L 2053 4666 
Q 2838 4666 3239 4311 
Q 3641 3956 3641 3272 
Q 3641 2581 3239 2228 
Q 2838 1875 2053 1875 
L 1259 1875 
L 1259 0 
L 628 0 
L 628 4666 
z
" transform="scale(0.015625)"/>
       <path id="DejaVuSans-72" d="M 2631 2963 
Q 2534 3019 2420 3045 
Q 2306 3072 2169 3072 
Q 1681 3072 1420 2755 
Q 1159 2438 1159 1844 
L 1159 0 
L 581 0 
L 581 3500 
L 1159 3500 
L 1159 2956 
Q 1341 3275 1631 3429 
Q 1922 3584 2338 3584 
Q 2397 3584 2469 3576 
Q 2541 3569 2628 3553 
L 2631 2963 
z
" transform="scale(0.015625)"/>
       <path id="DejaVuSans-6f" d="M 1959 3097 
Q 1497 3097 1228 2736 
Q 959 2375 959 1747 
Q 959 1119 1226 758 
Q 1494 397 1959 397 
Q 2419 397 2687 759 
Q 2956 1122 2956 1747 
Q 2956 2369 2687 2733 
Q 2419 3097 1959 3097 
z
M 1959 3584 
Q 2709 3584 3137 3096 
Q 3566 2609 3566 1747 
Q 3566 888 3137 398 
Q 2709 -91 1959 -91 
Q 1206 -91 779 398 
Q 353 888 353 1747 
Q 353 2609 779 3096 
Q 1206 3584 1959 3584 
z
" transform="scale(0.015625)"/>
       <path id="DejaVuSans-64" d="M 2906 2969 
L 2906 4863 
L 3481 4863 
L 3481 0 
L 2906 0 
L 2906 525 
Q 2725 213 2448 61 
Q 2172 -91 1784 -91 
Q 1150 -91 751 415 
Q 353 922 353 1747 
Q 353 2572 751 3078 
Q 1150 3584 1784 3584 
Q 2172 3584 2448 3432 
Q 2725 3281 2906 2969 
z
M 947 1747 
Q 947 1113 1208 752 
Q 1469 391 1925 391 
Q 2381 391 2643 752 
Q 2906 1113 2906 1747 
Q 2906 2381 2643 2742 
Q 2381 3103 1925 3103 
Q 1469 3103 1208 2742 
Q 947 2381 947 1747 
z
" transform="scale(0.015625)"/>
       <path id="DejaVuSans-75" d="M 544 1381 
L 544 3500 
L 1119 3500 
L 1119 1403 
Q 1119 906 1312 657 
Q 1506 409 1894 409 
Q 2359 409 2629 706 
Q 2900 1003 2900 1516 
L 2900 3500 
L 3475 3500 
L 3475 0 
L 2900 0 
L 2900 538 
Q 2691 219 2414 64 
Q 2138 -91 1772 -91 
Q 1169 -91 856 284 
Q 544 659 544 1381 
z
M 1991 3584 
L 1991 3584 
z
" transform="scale(0.015625)"/>
       <path id="DejaVuSans-63" d="M 3122 3366 
L 3122 2828 
Q 2878 2963 2633 3030 
Q 2388 3097 2138 3097 
Q 1578 3097 1268 2742 
Q 959 2388 959 1747 
Q 959 1106 1268 751 
Q 1578 397 2138 397 
Q 2388 397 2633 464 
Q 2878 531 3122 666 
L 3122 134 
Q 2881 22 2623 -34 
Q 2366 -91 2075 -91 
Q 1284 -91 818 406 
Q 353 903 353 1747 
Q 353 2603 823 3093 
Q 1294 3584 2113 3584 
Q 2378 3584 2631 3529 
Q 2884 3475 3122 3366 
z
" transform="scale(0.015625)"/>
       <path id="DejaVuSans-74" d="M 1172 4494 
L 1172 3500 
L 2356 3500 
L 2356 3053 
L 1172 3053 
L 1172 1153 
Q 1172 725 1289 603 
Q 1406 481 1766 481 
L 2356 481 
L 2356 0 
L 1766 0 
Q 1100 0 847 248 
Q 594 497 594 1153 
L 594 3053 
L 172 3053 
L 172 3500 
L 594 3500 
L 594 4494 
L 1172 4494 
z
" transform="scale(0.015625)"/>
       <path id="DejaVuSans-69" d="M 603 3500 
L 1178 3500 
L 1178 0 
L 603 0 
L 603 3500 
z
M 603 4863 
L 1178 4863 
L 1178 4134 
L 603 4134 
L 603 4863 
z
" transform="scale(0.015625)"/>
       <path id="DejaVuSans-76" d="M 191 3500 
L 800 3500 
L 1894 563 
L 2988 3500 
L 3597 3500 
L 2284 0 
L 1503 0 
L 191 3500 
z
" transform="scale(0.015625)"/>
       <path id="DejaVuSans-79" d="M 2059 -325 
Q 1816 -950 1584 -1140 
Q 1353 -1331 966 -1331 
L 506 -1331 
L 506 -850 
L 844 -850 
Q 1081 -850 1212 -737 
Q 1344 -625 1503 -206 
L 1606 56 
L 191 3500 
L 800 3500 
L 1894 763 
L 2988 3500 
L 3597 3500 
L 2059 -325 
z
" transform="scale(0.015625)"/>
       <path id="DejaVuSans-20" transform="scale(0.015625)"/>
       <path id="DejaVuSans-28" d="M 1984 4856 
Q 1566 4138 1362 3434 
Q 1159 2731 1159 2009 
Q 1159 1288 1364 580 
Q 1569 -128 1984 -844 
L 1484 -844 
Q 1016 -109 783 600 
Q 550 1309 550 2009 
Q 550 2706 781 3412 
Q 1013 4119 1484 4856 
L 1984 4856 
z
" transform="scale(0.015625)"/>
       <path id="DejaVuSans-67" d="M 2906 1791 
Q 2906 2416 2648 2759 
Q 2391 3103 1925 3103 
Q 1463 3103 1205 2759 
Q 947 2416 947 1791 
Q 947 1169 1205 825 
Q 1463 481 1925 481 
Q 2391 481 2648 825 
Q 2906 1169 2906 1791 
z
M 3481 434 
Q 3481 -459 3084 -895 
Q 2688 -1331 1869 -1331 
Q 1566 -1331 1297 -1286 
Q 1028 -1241 775 -1147 
L 775 -588 
Q 1028 -725 1275 -790 
Q 1522 -856 1778 -856 
Q 2344 -856 2625 -561 
Q 2906 -266 2906 331 
L 2906 616 
Q 2728 306 2450 153 
Q 2172 0 1784 0 
Q 1141 0 747 490 
Q 353 981 353 1791 
Q 353 2603 747 3093 
Q 1141 3584 1784 3584 
Q 2172 3584 2450 3431 
Q 2728 3278 2906 2969 
L 2906 3500 
L 3481 3500 
L 3481 434 
z
" transform="scale(0.015625)"/>
       <path id="DejaVuSans-2f" d="M 1625 4666 
L 2156 4666 
L 531 -594 
L 0 -594 
L 1625 4666 
z
" transform="scale(0.015625)"/>
       <path id="DejaVuSans-61" d="M 2194 1759 
Q 1497 1759 1228 1600 
Q 959 1441 959 1056 
Q 959 750 1161 570 
Q 1363 391 1709 391 
Q 2188 391 2477 730 
Q 2766 1069 2766 1631 
L 2766 1759 
L 2194 1759 
z
M 3341 1997 
L 3341 0 
L 2766 0 
L 2766 531 
Q 2569 213 2275 61 
Q 1981 -91 1556 -91 
Q 1019 -91 701 211 
Q 384 513 384 1019 
Q 384 1609 779 1909 
Q 1175 2209 1959 2209 
L 2766 2209 
L 2766 2266 
Q 2766 2663 2505 2880 
Q 2244 3097 1772 3097 
Q 1472 3097 1187 3025 
Q 903 2953 641 2809 
L 641 3341 
Q 956 3463 1253 3523 
Q 1550 3584 1831 3584 
Q 2591 3584 2966 3190 
Q 3341 2797 3341 1997 
z
" transform="scale(0.015625)"/>
       <path id="DejaVuSans-3b" d="M 750 3309 
L 1409 3309 
L 1409 2516 
L 750 2516 
L 750 3309 
z
M 750 794 
L 1409 794 
L 1409 256 
L 897 -744 
L 494 -744 
L 750 256 
L 750 794 
z
" transform="scale(0.015625)"/>
       <path id="DejaVuSans-6d" d="M 3328 2828 
Q 3544 3216 3844 3400 
Q 4144 3584 4550 3584 
Q 5097 3584 5394 3201 
Q 5691 2819 5691 2113 
L 5691 0 
L 5113 0 
L 5113 2094 
Q 5113 2597 4934 2840 
Q 4756 3084 4391 3084 
Q 3944 3084 3684 2787 
Q 3425 2491 3425 1978 
L 3425 0 
L 2847 0 
L 2847 2094 
Q 2847 2600 2669 2842 
Q 2491 3084 2119 3084 
Q 1678 3084 1418 2786 
Q 1159 2488 1159 1978 
L 1159 0 
L 581 0 
L 581 3500 
L 1159 3500 
L 1159 2956 
Q 1356 3278 1631 3431 
Q 1906 3584 2284 3584 
Q 2666 3584 2933 3390 
Q 3200 3197 3328 2828 
z
" transform="scale(0.015625)"/>
       <path id="DejaVuSans-65" d="M 3597 1894 
L 3597 1613 
L 953 1613 
Q 991 1019 1311 708 
Q 1631 397 2203 397 
Q 2534 397 2845 478 
Q 3156 559 3463 722 
L 3463 178 
Q 3153 47 2828 -22 
Q 2503 -91 2169 -91 
Q 1331 -91 842 396 
Q 353 884 353 1716 
Q 353 2575 817 3079 
Q 1281 3584 2069 3584 
Q 2775 3584 3186 3129 
Q 3597 2675 3597 1894 
z
M 3022 2063 
Q 3016 2534 2758 2815 
Q 2500 3097 2075 3097 
Q 1594 3097 1305 2825 
Q 1016 2553 972 2059 
L 3022 2063 
z
" transform="scale(0.015625)"/>
       <path id="DejaVuSans-6c" d="M 603 4863 
L 1178 4863 
L 1178 0 
L 603 0 
L 603 4863 
z
" transform="scale(0.015625)"/>
       <path id="DejaVuSans-73" d="M 2834 3397 
L 2834 2853 
Q 2591 2978 2328 3040 
Q 2066 3103 1784 3103 
Q 1356 3103 1142 2972 
Q 928 2841 928 2578 
Q 928 2378 1081 2264 
Q 1234 2150 1697 2047 
L 1894 2003 
Q 2506 1872 2764 1633 
Q 3022 1394 3022 966 
Q 3022 478 2636 193 
Q 2250 -91 1575 -91 
Q 1294 -91 989 -36 
Q 684 19 347 128 
L 347 722 
Q 666 556 975 473 
Q 1284 391 1588 391 
Q 1994 391 2212 530 
Q 2431 669 2431 922 
Q 2431 1156 2273 1281 
Q 2116 1406 1581 1522 
L 1381 1569 
Q 847 1681 609 1914 
Q 372 2147 372 2553 
Q 372 3047 722 3315 
Q 1072 3584 1716 3584 
Q 2034 3584 2315 3537 
Q 2597 3491 2834 3397 
z
" transform="scale(0.015625)"/>
       <path id="DejaVuSans-66" d="M 2375 4863 
L 2375 4384 
L 1825 4384 
Q 1516 4384 1395 4259 
Q 1275 4134 1275 3809 
L 1275 3500 
L 2222 3500 
L 2222 3053 
L 1275 3053 
L 1275 0 
L 697 0 
L 697 3053 
L 147 3053 
L 147 3500 
L 697 3500 
L 697 3744 
Q 697 4328 969 4595 
Q 1241 4863 1831 4863 
L 2375 4863 
z
" transform="scale(0.015625)"/>
       <path id="DejaVuSans-51" d="M 2522 4238 
Q 1834 4238 1429 3725 
Q 1025 3213 1025 2328 
Q 1025 1447 1429 934 
Q 1834 422 2522 422 
Q 3209 422 3611 934 
Q 4013 1447 4013 2328 
Q 4013 3213 3611 3725 
Q 3209 4238 2522 4238 
z
M 3406 84 
L 4238 -825 
L 3475 -825 
L 2784 -78 
Q 2681 -84 2626 -87 
Q 2572 -91 2522 -91 
Q 1538 -91 948 567 
Q 359 1225 359 2328 
Q 359 3434 948 4092 
Q 1538 4750 2522 4750 
Q 3503 4750 4090 4092 
Q 4678 3434 4678 2328 
Q 4678 1516 4351 937 
Q 4025 359 3406 84 
z
" transform="scale(0.015625)"/>
       <path id="DejaVuSans-29" d="M 513 4856 
L 1013 4856 
Q 1481 4119 1714 3412 
Q 1947 2706 1947 2009 
Q 1947 1309 1714 600 
Q 1481 -109 1013 -844 
L 513 -844 
Q 928 -128 1133 580 
Q 1338 1288 1338 2009 
Q 1338 2731 1133 3434 
Q 928 4138 513 4856 
z
" transform="scale(0.015625)"/>
      </defs>
      <use xlink:href="#DejaVuSans-50"/>
      <use xlink:href="#DejaVuSans-72" transform="translate(58.552734 0)"/>
      <use xlink:href="#DejaVuSans-6f" transform="translate(97.416016 0)"/>
      <use xlink:href="#DejaVuSans-64" transform="translate(158.597656 0)"/>
      <use xlink:href="#DejaVuSans-75" transform="translate(222.074219 0)"/>
      <use xlink:href="#DejaVuSans-63" transform="translate(285.453125 0)"/>
      <use xlink:href="#DejaVuSans-74" transform="translate(340.433594 0)"/>
      <use xlink:href="#DejaVuSans-69" transform="translate(379.642578 0)"/>
      <use xlink:href="#DejaVuSans-76" transform="translate(407.425781 0)"/>
      <use xlink:href="#DejaVuSans-69" transform="translate(466.605469 0)"/>
      <use xlink:href="#DejaVuSans-74" transform="translate(494.388672 0)"/>
      <use xlink:href="#DejaVuSans-79" transform="translate(533.597656 0)"/>
      <use xlink:href="#DejaVuSans-20" transform="translate(592.777344 0)"/>
      <use xlink:href="#DejaVuSans-28" transform="translate(624.564453 0)"/>
      <use xlink:href="#DejaVuSans-67" transform="translate(663.578125 0)"/>
      <use xlink:href="#DejaVuSans-2f" transform="translate(727.054688 0)"/>
      <use xlink:href="#DejaVuSans-64" transform="translate(760.746094 0)"/>
      <use xlink:href="#DejaVuSans-61" transform="translate(824.222656 0)"/>
      <use xlink:href="#DejaVuSans-79" transform="translate(885.501953 0)"/>
      <use xlink:href="#DejaVuSans-3b" transform="translate(944.681641 0)"/>
      <use xlink:href="#DejaVuSans-20" transform="translate(978.373047 0)"/>
      <use xlink:href="#DejaVuSans-6d" transform="translate(1010.160156 0)"/>
      <use xlink:href="#DejaVuSans-6f" transform="translate(1107.572266 0)"/>
      <use xlink:href="#DejaVuSans-64" transform="translate(1168.753906 0)"/>
      <use xlink:href="#DejaVuSans-65" transform="translate(1232.230469 0)"/>
      <use xlink:href="#DejaVuSans-6c" transform="translate(1293.753906 0)"/>
      <use xlink:href="#DejaVuSans-20" transform="translate(1321.537109 0)"/>
      <use xlink:href="#DejaVuSans-65" transform="translate(1353.324219 0)"/>
      <use xlink:href="#DejaVuSans-73" transform="translate(1414.847656 0)"/>
      <use xlink:href="#DejaVuSans-74" transform="translate(1466.947266 0)"/>
      <use xlink:href="#DejaVuSans-69" transform="translate(1506.15625 0)"/>
      <use xlink:href="#DejaVuSans-6d" transform="translate(1533.939453 0)"/>
      <use xlink:href="#DejaVuSans-61" transform="translate(1631.351562 0)"/>
      <use xlink:href="#DejaVuSans-74" transform="translate(1692.630859 0)"/>
      <use xlink:href="#DejaVuSans-65" transform="translate(1731.839844 0)"/>
      <use xlink:href="#DejaVuSans-64" transform="translate(1793.363281 0)"/>
      <use xlink:href="#DejaVuSans-20" transform="translate(1856.839844 0)"/>
      <use xlink:href="#DejaVuSans-66" transform="translate(1888.626953 0)"/>
      <use xlink:href="#DejaVuSans-72" transform="translate(1923.832031 0)"/>
      <use xlink:href="#DejaVuSans-6f" transform="translate(1962.695312 0)"/>
      <use xlink:href="#DejaVuSans-6d" transform="translate(2023.876953 0)"/>
      <use xlink:href="#DejaVuSans-20" transform="translate(2121.289062 0)"/>
      <use xlink:href="#DejaVuSans-51" transform="translate(2153.076172 0)"/>
      <use xlink:href="#DejaVuSans-29" transform="translate(2231.787109 0)"/>
     </g>
    </g>
   </g>
   <g id="matplotlib.axis_2">
    <g id="ytick_1">
     <g id="line2d_9">
      <defs>
       <path id="mbdbf1fcff5" d="M 0 0 
L -3.5 0 
" style="stroke: #000000; stroke-width: 0.8"/>
      </defs>
      <g>
       <use xlink:href="#mbdbf1fcff5" x="42.765865" y="399.311615" style="stroke: #000000; stroke-width: 0.8"/>
      </g>
     </g>
     <g id="text_10">
      <!-- 0 -->
      <g transform="translate(29.403365 403.110834) scale(0.1 -0.1)">
       <use xlink:href="#DejaVuSans-30"/>
      </g>
     </g>
    </g>
    <g id="ytick_2">
     <g id="line2d_10">
      <g>
       <use xlink:href="#mbdbf1fcff5" x="42.765865" y="345.21869" style="stroke: #000000; stroke-width: 0.8"/>
      </g>
     </g>
     <g id="text_11">
      <!-- 20 -->
      <g transform="translate(23.040865 349.017909) scale(0.1 -0.1)">
       <use xlink:href="#DejaVuSans-32"/>
       <use xlink:href="#DejaVuSans-30" transform="translate(63.623047 0)"/>
      </g>
     </g>
    </g>
    <g id="ytick_3">
     <g id="line2d_11">
      <g>
       <use xlink:href="#mbdbf1fcff5" x="42.765865" y="291.125765" style="stroke: #000000; stroke-width: 0.8"/>
      </g>
     </g>
     <g id="text_12">
      <!-- 40 -->
      <g transform="translate(23.040865 294.924983) scale(0.1 -0.1)">
       <use xlink:href="#DejaVuSans-34"/>
       <use xlink:href="#DejaVuSans-30" transform="translate(63.623047 0)"/>
      </g>
     </g>
    </g>
    <g id="ytick_4">
     <g id="line2d_12">
      <g>
       <use xlink:href="#mbdbf1fcff5" x="42.765865" y="237.032839" style="stroke: #000000; stroke-width: 0.8"/>
      </g>
     </g>
     <g id="text_13">
      <!-- 60 -->
      <g transform="translate(23.040865 240.832058) scale(0.1 -0.1)">
       <use xlink:href="#DejaVuSans-36"/>
       <use xlink:href="#DejaVuSans-30" transform="translate(63.623047 0)"/>
      </g>
     </g>
    </g>
    <g id="ytick_5">
     <g id="line2d_13">
      <g>
       <use xlink:href="#mbdbf1fcff5" x="42.765865" y="182.939914" style="stroke: #000000; stroke-width: 0.8"/>
      </g>
     </g>
     <g id="text_14">
      <!-- 80 -->
      <g transform="translate(23.040865 186.739133) scale(0.1 -0.1)">
       <use xlink:href="#DejaVuSans-38"/>
       <use xlink:href="#DejaVuSans-30" transform="translate(63.623047 0)"/>
      </g>
     </g>
    </g>
    <g id="ytick_6">
     <g id="line2d_14">
      <g>
       <use xlink:href="#mbdbf1fcff5" x="42.765865" y="128.846989" style="stroke: #000000; stroke-width: 0.8"/>
      </g>
     </g>
     <g id="text_15">
      <!-- 100 -->
      <g transform="translate(16.678365 132.646208) scale(0.1 -0.1)">
       <use xlink:href="#DejaVuSans-31"/>
       <use xlink:href="#DejaVuSans-30" transform="translate(63.623047 0)"/>
       <use xlink:href="#DejaVuSans-30" transform="translate(127.246094 0)"/>
      </g>
     </g>
    </g>
    <g id="ytick_7">
     <g id="line2d_15">
      <g>
       <use xlink:href="#mbdbf1fcff5" x="42.765865" y="74.754063" style="stroke: #000000; stroke-width: 0.8"/>
      </g>
     </g>
     <g id="text_16">
      <!-- 120 -->
      <g transform="translate(16.678365 78.553282) scale(0.1 -0.1)">
       <use xlink:href="#DejaVuSans-31"/>
       <use xlink:href="#DejaVuSans-32" transform="translate(63.623047 0)"/>
       <use xlink:href="#DejaVuSans-30" transform="translate(127.246094 0)"/>
      </g>
     </g>
    </g>
    <g id="ytick_8">
     <g id="line2d_16">
      <g>
       <use xlink:href="#mbdbf1fcff5" x="42.765865" y="20.661138" style="stroke: #000000; stroke-width: 0.8"/>
      </g>
     </g>
     <g id="text_17">
      <!-- 140 -->
      <g transform="translate(16.678365 24.460357) scale(0.1 -0.1)">
       <use xlink:href="#DejaVuSans-31"/>
       <use xlink:href="#DejaVuSans-34" transform="translate(63.623047 0)"/>
       <use xlink:href="#DejaVuSans-30" transform="translate(127.246094 0)"/>
      </g>
     </g>
    </g>
    <g id="text_18">
     <!-- Reactor volume (mL) -->
     <g transform="translate(10.598677 268.054375) rotate(-90) scale(0.1 -0.1)">
      <defs>
       <path id="DejaVuSans-52" d="M 2841 2188 
Q 3044 2119 3236 1894 
Q 3428 1669 3622 1275 
L 4263 0 
L 3584 0 
L 2988 1197 
Q 2756 1666 2539 1819 
Q 2322 1972 1947 1972 
L 1259 1972 
L 1259 0 
L 628 0 
L 628 4666 
L 2053 4666 
Q 2853 4666 3247 4331 
Q 3641 3997 3641 3322 
Q 3641 2881 3436 2590 
Q 3231 2300 2841 2188 
z
M 1259 4147 
L 1259 2491 
L 2053 2491 
Q 2509 2491 2742 2702 
Q 2975 2913 2975 3322 
Q 2975 3731 2742 3939 
Q 2509 4147 2053 4147 
L 1259 4147 
z
" transform="scale(0.015625)"/>
       <path id="DejaVuSans-4c" d="M 628 4666 
L 1259 4666 
L 1259 531 
L 3531 531 
L 3531 0 
L 628 0 
L 628 4666 
z
" transform="scale(0.015625)"/>
      </defs>
      <use xlink:href="#DejaVuSans-52"/>
      <use xlink:href="#DejaVuSans-65" transform="translate(64.982422 0)"/>
      <use xlink:href="#DejaVuSans-61" transform="translate(126.505859 0)"/>
      <use xlink:href="#DejaVuSans-63" transform="translate(187.785156 0)"/>
      <use xlink:href="#DejaVuSans-74" transform="translate(242.765625 0)"/>
      <use xlink:href="#DejaVuSans-6f" transform="translate(281.974609 0)"/>
      <use xlink:href="#DejaVuSans-72" transform="translate(343.15625 0)"/>
      <use xlink:href="#DejaVuSans-20" transform="translate(384.269531 0)"/>
      <use xlink:href="#DejaVuSans-76" transform="translate(416.056641 0)"/>
      <use xlink:href="#DejaVuSans-6f" transform="translate(475.236328 0)"/>
      <use xlink:href="#DejaVuSans-6c" transform="translate(536.417969 0)"/>
      <use xlink:href="#DejaVuSans-75" transform="translate(564.201172 0)"/>
      <use xlink:href="#DejaVuSans-6d" transform="translate(627.580078 0)"/>
      <use xlink:href="#DejaVuSans-65" transform="translate(724.992188 0)"/>
      <use xlink:href="#DejaVuSans-20" transform="translate(786.515625 0)"/>
      <use xlink:href="#DejaVuSans-28" transform="translate(818.302734 0)"/>
      <use xlink:href="#DejaVuSans-6d" transform="translate(857.316406 0)"/>
      <use xlink:href="#DejaVuSans-4c" transform="translate(954.728516 0)"/>
      <use xlink:href="#DejaVuSans-29" transform="translate(1010.441406 0)"/>
     </g>
    </g>
   </g>
   <g id="patch_3">
    <path d="M 42.765865 413.04351 
L 42.765865 18.118365 
" style="fill: none; stroke: #000000; stroke-width: 0.8; stroke-linejoin: miter; stroke-linecap: square"/>
   </g>
   <g id="patch_4">
    <path d="M 530.004022 413.04351 
L 530.004022 18.118365 
" style="fill: none; stroke: #000000; stroke-width: 0.8; stroke-linejoin: miter; stroke-linecap: square"/>
   </g>
   <g id="patch_5">
    <path d="M 42.765865 413.04351 
L 530.004022 413.04351 
" style="fill: none; stroke: #000000; stroke-width: 0.8; stroke-linejoin: miter; stroke-linecap: square"/>
   </g>
   <g id="patch_6">
    <path d="M 42.765865 18.118365 
L 530.004022 18.118365 
" style="fill: none; stroke: #000000; stroke-width: 0.8; stroke-linejoin: miter; stroke-linecap: square"/>
   </g>
   <g id="text_19">
    <!-- claude/claude -->
    <g transform="translate(218.468423 372.608814) scale(0.07 -0.07)">
     <use xlink:href="#DejaVuSans-63"/>
     <use xlink:href="#DejaVuSans-6c" transform="translate(54.980469 0)"/>
     <use xlink:href="#DejaVuSans-61" transform="translate(82.763672 0)"/>
     <use xlink:href="#DejaVuSans-75" transform="translate(144.042969 0)"/>
     <use xlink:href="#DejaVuSans-64" transform="translate(207.421875 0)"/>
     <use xlink:href="#DejaVuSans-65" transform="translate(270.898438 0)"/>
     <use xlink:href="#DejaVuSans-2f" transform="translate(332.421875 0)"/>
     <use xlink:href="#DejaVuSans-63" transform="translate(366.113281 0)"/>
     <use xlink:href="#DejaVuSans-6c" transform="translate(421.09375 0)"/>
     <use xlink:href="#DejaVuSans-61" transform="translate(448.876953 0)"/>
     <use xlink:href="#DejaVuSans-75" transform="translate(510.15625 0)"/>
     <use xlink:href="#DejaVuSans-64" transform="translate(573.535156 0)"/>
     <use xlink:href="#DejaVuSans-65" transform="translate(637.011719 0)"/>
    </g>
   </g>
   <g id="text_20">
    <!-- claude/gpt4o -->
    <g transform="translate(220.115365 376.192471) scale(0.07 -0.07)">
     <defs>
      <path id="DejaVuSans-70" d="M 1159 525 
L 1159 -1331 
L 581 -1331 
L 581 3500 
L 1159 3500 
L 1159 2969 
Q 1341 3281 1617 3432 
Q 1894 3584 2278 3584 
Q 2916 3584 3314 3078 
Q 3713 2572 3713 1747 
Q 3713 922 3314 415 
Q 2916 -91 2278 -91 
Q 1894 -91 1617 61 
Q 1341 213 1159 525 
z
M 3116 1747 
Q 3116 2381 2855 2742 
Q 2594 3103 2138 3103 
Q 1681 3103 1420 2742 
Q 1159 2381 1159 1747 
Q 1159 1113 1420 752 
Q 1681 391 2138 391 
Q 2594 391 2855 752 
Q 3116 1113 3116 1747 
z
" transform="scale(0.015625)"/>
     </defs>
     <use xlink:href="#DejaVuSans-63"/>
     <use xlink:href="#DejaVuSans-6c" transform="translate(54.980469 0)"/>
     <use xlink:href="#DejaVuSans-61" transform="translate(82.763672 0)"/>
     <use xlink:href="#DejaVuSans-75" transform="translate(144.042969 0)"/>
     <use xlink:href="#DejaVuSans-64" transform="translate(207.421875 0)"/>
     <use xlink:href="#DejaVuSans-65" transform="translate(270.898438 0)"/>
     <use xlink:href="#DejaVuSans-2f" transform="translate(332.421875 0)"/>
     <use xlink:href="#DejaVuSans-67" transform="translate(366.113281 0)"/>
     <use xlink:href="#DejaVuSans-70" transform="translate(429.589844 0)"/>
     <use xlink:href="#DejaVuSans-74" transform="translate(493.066406 0)"/>
     <use xlink:href="#DejaVuSans-34" transform="translate(532.275391 0)"/>
     <use xlink:href="#DejaVuSans-6f" transform="translate(595.898438 0)"/>
    </g>
   </g>
   <g id="text_21">
    <!-- claude/gpt4omini -->
    <g transform="translate(511.856833 330.056615) scale(0.07 -0.07)">
     <defs>
      <path id="DejaVuSans-6e" d="M 3513 2113 
L 3513 0 
L 2938 0 
L 2938 2094 
Q 2938 2591 2744 2837 
Q 2550 3084 2163 3084 
Q 1697 3084 1428 2787 
Q 1159 2491 1159 1978 
L 1159 0 
L 581 0 
L 581 3500 
L 1159 3500 
L 1159 2956 
Q 1366 3272 1645 3428 
Q 1925 3584 2291 3584 
Q 2894 3584 3203 3211 
Q 3513 2838 3513 2113 
z
" transform="scale(0.015625)"/>
     </defs>
     <use xlink:href="#DejaVuSans-63"/>
     <use xlink:href="#DejaVuSans-6c" transform="translate(54.980469 0)"/>
     <use xlink:href="#DejaVuSans-61" transform="translate(82.763672 0)"/>
     <use xlink:href="#DejaVuSans-75" transform="translate(144.042969 0)"/>
     <use xlink:href="#DejaVuSans-64" transform="translate(207.421875 0)"/>
     <use xlink:href="#DejaVuSans-65" transform="translate(270.898438 0)"/>
     <use xlink:href="#DejaVuSans-2f" transform="translate(332.421875 0)"/>
     <use xlink:href="#DejaVuSans-67" transform="translate(366.113281 0)"/>
     <use xlink:href="#DejaVuSans-70" transform="translate(429.589844 0)"/>
     <use xlink:href="#DejaVuSans-74" transform="translate(493.066406 0)"/>
     <use xlink:href="#DejaVuSans-34" transform="translate(532.275391 0)"/>
     <use xlink:href="#DejaVuSans-6f" transform="translate(595.898438 0)"/>
     <use xlink:href="#DejaVuSans-6d" transform="translate(657.080078 0)"/>
     <use xlink:href="#DejaVuSans-69" transform="translate(754.492188 0)"/>
     <use xlink:href="#DejaVuSans-6e" transform="translate(782.275391 0)"/>
     <use xlink:href="#DejaVuSans-69" transform="translate(845.654297 0)"/>
    </g>
   </g>
   <g id="text_22">
    <!-- claude/gemma -->
    <g transform="translate(220.115365 376.192471) scale(0.07 -0.07)">
     <use xlink:href="#DejaVuSans-63"/>
     <use xlink:href="#DejaVuSans-6c" transform="translate(54.980469 0)"/>
     <use xlink:href="#DejaVuSans-61" transform="translate(82.763672 0)"/>
     <use xlink:href="#DejaVuSans-75" transform="translate(144.042969 0)"/>
     <use xlink:href="#DejaVuSans-64" transform="translate(207.421875 0)"/>
     <use xlink:href="#DejaVuSans-65" transform="translate(270.898438 0)"/>
     <use xlink:href="#DejaVuSans-2f" transform="translate(332.421875 0)"/>
     <use xlink:href="#DejaVuSans-67" transform="translate(366.113281 0)"/>
     <use xlink:href="#DejaVuSans-65" transform="translate(429.589844 0)"/>
     <use xlink:href="#DejaVuSans-6d" transform="translate(491.113281 0)"/>
     <use xlink:href="#DejaVuSans-6d" transform="translate(588.525391 0)"/>
     <use xlink:href="#DejaVuSans-61" transform="translate(685.9375 0)"/>
    </g>
   </g>
   <g id="text_23">
    <!-- gpt4o/claude -->
    <g transform="translate(249.773748 372.608814) scale(0.07 -0.07)">
     <use xlink:href="#DejaVuSans-67"/>
     <use xlink:href="#DejaVuSans-70" transform="translate(63.476562 0)"/>
     <use xlink:href="#DejaVuSans-74" transform="translate(126.953125 0)"/>
     <use xlink:href="#DejaVuSans-34" transform="translate(166.162109 0)"/>
     <use xlink:href="#DejaVuSans-6f" transform="translate(229.785156 0)"/>
     <use xlink:href="#DejaVuSans-2f" transform="translate(290.966797 0)"/>
     <use xlink:href="#DejaVuSans-63" transform="translate(324.658203 0)"/>
     <use xlink:href="#DejaVuSans-6c" transform="translate(379.638672 0)"/>
     <use xlink:href="#DejaVuSans-61" transform="translate(407.421875 0)"/>
     <use xlink:href="#DejaVuSans-75" transform="translate(468.701172 0)"/>
     <use xlink:href="#DejaVuSans-64" transform="translate(532.080078 0)"/>
     <use xlink:href="#DejaVuSans-65" transform="translate(595.556641 0)"/>
    </g>
   </g>
   <g id="text_24">
    <!-- gpt4o/gpt4o -->
    <g transform="translate(220.115365 376.192471) scale(0.07 -0.07)">
     <use xlink:href="#DejaVuSans-67"/>
     <use xlink:href="#DejaVuSans-70" transform="translate(63.476562 0)"/>
     <use xlink:href="#DejaVuSans-74" transform="translate(126.953125 0)"/>
     <use xlink:href="#DejaVuSans-34" transform="translate(166.162109 0)"/>
     <use xlink:href="#DejaVuSans-6f" transform="translate(229.785156 0)"/>
     <use xlink:href="#DejaVuSans-2f" transform="translate(290.966797 0)"/>
     <use xlink:href="#DejaVuSans-67" transform="translate(324.658203 0)"/>
     <use xlink:href="#DejaVuSans-70" transform="translate(388.134766 0)"/>
     <use xlink:href="#DejaVuSans-74" transform="translate(451.611328 0)"/>
     <use xlink:href="#DejaVuSans-34" transform="translate(490.820312 0)"/>
     <use xlink:href="#DejaVuSans-6f" transform="translate(554.443359 0)"/>
    </g>
   </g>
   <g id="text_25">
    <!-- gpt4o/gpt4omini -->
    <g transform="translate(249.773748 372.608814) scale(0.07 -0.07)">
     <use xlink:href="#DejaVuSans-67"/>
     <use xlink:href="#DejaVuSans-70" transform="translate(63.476562 0)"/>
     <use xlink:href="#DejaVuSans-74" transform="translate(126.953125 0)"/>
     <use xlink:href="#DejaVuSans-34" transform="translate(166.162109 0)"/>
     <use xlink:href="#DejaVuSans-6f" transform="translate(229.785156 0)"/>
     <use xlink:href="#DejaVuSans-2f" transform="translate(290.966797 0)"/>
     <use xlink:href="#DejaVuSans-67" transform="translate(324.658203 0)"/>
     <use xlink:href="#DejaVuSans-70" transform="translate(388.134766 0)"/>
     <use xlink:href="#DejaVuSans-74" transform="translate(451.611328 0)"/>
     <use xlink:href="#DejaVuSans-34" transform="translate(490.820312 0)"/>
     <use xlink:href="#DejaVuSans-6f" transform="translate(554.443359 0)"/>
     <use xlink:href="#DejaVuSans-6d" transform="translate(615.625 0)"/>
     <use xlink:href="#DejaVuSans-69" transform="translate(713.037109 0)"/>
     <use xlink:href="#DejaVuSans-6e" transform="translate(740.820312 0)"/>
     <use xlink:href="#DejaVuSans-69" transform="translate(804.199219 0)"/>
    </g>
   </g>
   <g id="text_26">
    <!-- gpt4o/gemma -->
    <g transform="translate(205.735949 376.192471) scale(0.07 -0.07)">
     <use xlink:href="#DejaVuSans-67"/>
     <use xlink:href="#DejaVuSans-70" transform="translate(63.476562 0)"/>
     <use xlink:href="#DejaVuSans-74" transform="translate(126.953125 0)"/>
     <use xlink:href="#DejaVuSans-34" transform="translate(166.162109 0)"/>
     <use xlink:href="#DejaVuSans-6f" transform="translate(229.785156 0)"/>
     <use xlink:href="#DejaVuSans-2f" transform="translate(290.966797 0)"/>
     <use xlink:href="#DejaVuSans-67" transform="translate(324.658203 0)"/>
     <use xlink:href="#DejaVuSans-65" transform="translate(388.134766 0)"/>
     <use xlink:href="#DejaVuSans-6d" transform="translate(449.658203 0)"/>
     <use xlink:href="#DejaVuSans-6d" transform="translate(547.070312 0)"/>
     <use xlink:href="#DejaVuSans-61" transform="translate(644.482422 0)"/>
    </g>
   </g>
   <g id="text_27">
    <!-- gpt4omini_rescued/claude -->
    <g transform="translate(87.250102 377.723301) scale(0.07 -0.07)">
     <defs>
      <path id="DejaVuSans-5f" d="M 3263 -1063 
L 3263 -1509 
L -63 -1509 
L -63 -1063 
L 3263 -1063 
z
" transform="scale(0.015625)"/>
     </defs>
     <use xlink:href="#DejaVuSans-67"/>
     <use xlink:href="#DejaVuSans-70" transform="translate(63.476562 0)"/>
     <use xlink:href="#DejaVuSans-74" transform="translate(126.953125 0)"/>
     <use xlink:href="#DejaVuSans-34" transform="translate(166.162109 0)"/>
     <use xlink:href="#DejaVuSans-6f" transform="translate(229.785156 0)"/>
     <use xlink:href="#DejaVuSans-6d" transform="translate(290.966797 0)"/>
     <use xlink:href="#DejaVuSans-69" transform="translate(388.378906 0)"/>
     <use xlink:href="#DejaVuSans-6e" transform="translate(416.162109 0)"/>
     <use xlink:href="#DejaVuSans-69" transform="translate(479.541016 0)"/>
     <use xlink:href="#DejaVuSans-5f" transform="translate(507.324219 0)"/>
     <use xlink:href="#DejaVuSans-72" transform="translate(557.324219 0)"/>
     <use xlink:href="#DejaVuSans-65" transform="translate(596.1875 0)"/>
     <use xlink:href="#DejaVuSans-73" transform="translate(657.710938 0)"/>
     <use xlink:href="#DejaVuSans-63" transform="translate(709.810547 0)"/>
     <use xlink:href="#DejaVuSans-75" transform="translate(764.791016 0)"/>
     <use xlink:href="#DejaVuSans-65" transform="translate(828.169922 0)"/>
     <use xlink:href="#DejaVuSans-64" transform="translate(889.693359 0)"/>
     <use xlink:href="#DejaVuSans-2f" transform="translate(953.169922 0)"/>
     <use xlink:href="#DejaVuSans-63" transform="translate(986.861328 0)"/>
     <use xlink:href="#DejaVuSans-6c" transform="translate(1041.841797 0)"/>
     <use xlink:href="#DejaVuSans-61" transform="translate(1069.625 0)"/>
     <use xlink:href="#DejaVuSans-75" transform="translate(1130.904297 0)"/>
     <use xlink:href="#DejaVuSans-64" transform="translate(1194.283203 0)"/>
     <use xlink:href="#DejaVuSans-65" transform="translate(1257.759766 0)"/>
    </g>
   </g>
   <g id="text_28">
    <!-- gpt4omini_rescued/gpt4o -->
    <g transform="translate(93.578298 376.192471) scale(0.07 -0.07)">
     <use xlink:href="#DejaVuSans-67"/>
     <use xlink:href="#DejaVuSans-70" transform="translate(63.476562 0)"/>
     <use xlink:href="#DejaVuSans-74" transform="translate(126.953125 0)"/>
     <use xlink:href="#DejaVuSans-34" transform="translate(166.162109 0)"/>
     <use xlink:href="#DejaVuSans-6f" transform="translate(229.785156 0)"/>
     <use xlink:href="#DejaVuSans-6d" transform="translate(290.966797 0)"/>
     <use xlink:href="#DejaVuSans-69" transform="translate(388.378906 0)"/>
     <use xlink:href="#DejaVuSans-6e" transform="translate(416.162109 0)"/>
     <use xlink:href="#DejaVuSans-69" transform="translate(479.541016 0)"/>
     <use xlink:href="#DejaVuSans-5f" transform="translate(507.324219 0)"/>
     <use xlink:href="#DejaVuSans-72" transform="translate(557.324219 0)"/>
     <use xlink:href="#DejaVuSans-65" transform="translate(596.1875 0)"/>
     <use xlink:href="#DejaVuSans-73" transform="translate(657.710938 0)"/>
     <use xlink:href="#DejaVuSans-63" transform="translate(709.810547 0)"/>
     <use xlink:href="#DejaVuSans-75" transform="translate(764.791016 0)"/>
     <use xlink:href="#DejaVuSans-65" transform="translate(828.169922 0)"/>
     <use xlink:href="#DejaVuSans-64" transform="translate(889.693359 0)"/>
     <use xlink:href="#DejaVuSans-2f" transform="translate(953.169922 0)"/>
     <use xlink:href="#DejaVuSans-67" transform="translate(986.861328 0)"/>
     <use xlink:href="#DejaVuSans-70" transform="translate(1050.337891 0)"/>
     <use xlink:href="#DejaVuSans-74" transform="translate(1113.814453 0)"/>
     <use xlink:href="#DejaVuSans-34" transform="translate(1153.023438 0)"/>
     <use xlink:href="#DejaVuSans-6f" transform="translate(1216.646484 0)"/>
    </g>
   </g>
   <g id="text_29">
    <!-- gpt4omini_rescued/gpt4omini -->
    <g transform="translate(195.509692 354.950179) scale(0.07 -0.07)">
     <use xlink:href="#DejaVuSans-67"/>
     <use xlink:href="#DejaVuSans-70" transform="translate(63.476562 0)"/>
     <use xlink:href="#DejaVuSans-74" transform="translate(126.953125 0)"/>
     <use xlink:href="#DejaVuSans-34" transform="translate(166.162109 0)"/>
     <use xlink:href="#DejaVuSans-6f" transform="translate(229.785156 0)"/>
     <use xlink:href="#DejaVuSans-6d" transform="translate(290.966797 0)"/>
     <use xlink:href="#DejaVuSans-69" transform="translate(388.378906 0)"/>
     <use xlink:href="#DejaVuSans-6e" transform="translate(416.162109 0)"/>
     <use xlink:href="#DejaVuSans-69" transform="translate(479.541016 0)"/>
     <use xlink:href="#DejaVuSans-5f" transform="translate(507.324219 0)"/>
     <use xlink:href="#DejaVuSans-72" transform="translate(557.324219 0)"/>
     <use xlink:href="#DejaVuSans-65" transform="translate(596.1875 0)"/>
     <use xlink:href="#DejaVuSans-73" transform="translate(657.710938 0)"/>
     <use xlink:href="#DejaVuSans-63" transform="translate(709.810547 0)"/>
     <use xlink:href="#DejaVuSans-75" transform="translate(764.791016 0)"/>
     <use xlink:href="#DejaVuSans-65" transform="translate(828.169922 0)"/>
     <use xlink:href="#DejaVuSans-64" transform="translate(889.693359 0)"/>
     <use xlink:href="#DejaVuSans-2f" transform="translate(953.169922 0)"/>
     <use xlink:href="#DejaVuSans-67" transform="translate(986.861328 0)"/>
     <use xlink:href="#DejaVuSans-70" transform="translate(1050.337891 0)"/>
     <use xlink:href="#DejaVuSans-74" transform="translate(1113.814453 0)"/>
     <use xlink:href="#DejaVuSans-34" transform="translate(1153.023438 0)"/>
     <use xlink:href="#DejaVuSans-6f" transform="translate(1216.646484 0)"/>
     <use xlink:href="#DejaVuSans-6d" transform="translate(1277.828125 0)"/>
     <use xlink:href="#DejaVuSans-69" transform="translate(1375.240234 0)"/>
     <use xlink:href="#DejaVuSans-6e" transform="translate(1403.023438 0)"/>
     <use xlink:href="#DejaVuSans-69" transform="translate(1466.402344 0)"/>
    </g>
   </g>
   <g id="text_30">
    <!-- gpt4omini_rescued/gemma -->
    <g transform="translate(186.916951 361.32503) scale(0.07 -0.07)">
     <use xlink:href="#DejaVuSans-67"/>
     <use xlink:href="#DejaVuSans-70" transform="translate(63.476562 0)"/>
     <use xlink:href="#DejaVuSans-74" transform="translate(126.953125 0)"/>
     <use xlink:href="#DejaVuSans-34" transform="translate(166.162109 0)"/>
     <use xlink:href="#DejaVuSans-6f" transform="translate(229.785156 0)"/>
     <use xlink:href="#DejaVuSans-6d" transform="translate(290.966797 0)"/>
     <use xlink:href="#DejaVuSans-69" transform="translate(388.378906 0)"/>
     <use xlink:href="#DejaVuSans-6e" transform="translate(416.162109 0)"/>
     <use xlink:href="#DejaVuSans-69" transform="translate(479.541016 0)"/>
     <use xlink:href="#DejaVuSans-5f" transform="translate(507.324219 0)"/>
     <use xlink:href="#DejaVuSans-72" transform="translate(557.324219 0)"/>
     <use xlink:href="#DejaVuSans-65" transform="translate(596.1875 0)"/>
     <use xlink:href="#DejaVuSans-73" transform="translate(657.710938 0)"/>
     <use xlink:href="#DejaVuSans-63" transform="translate(709.810547 0)"/>
     <use xlink:href="#DejaVuSans-75" transform="translate(764.791016 0)"/>
     <use xlink:href="#DejaVuSans-65" transform="translate(828.169922 0)"/>
     <use xlink:href="#DejaVuSans-64" transform="translate(889.693359 0)"/>
     <use xlink:href="#DejaVuSans-2f" transform="translate(953.169922 0)"/>
     <use xlink:href="#DejaVuSans-67" transform="translate(986.861328 0)"/>
     <use xlink:href="#DejaVuSans-65" transform="translate(1050.337891 0)"/>
     <use xlink:href="#DejaVuSans-6d" transform="translate(1111.861328 0)"/>
     <use xlink:href="#DejaVuSans-6d" transform="translate(1209.273438 0)"/>
     <use xlink:href="#DejaVuSans-61" transform="translate(1306.685547 0)"/>
    </g>
   </g>
   <g id="text_31">
    <!-- gemma_rescued/claude -->
    <g transform="translate(98.304306 351.142037) scale(0.07 -0.07)">
     <use xlink:href="#DejaVuSans-67"/>
     <use xlink:href="#DejaVuSans-65" transform="translate(63.476562 0)"/>
     <use xlink:href="#DejaVuSans-6d" transform="translate(125 0)"/>
     <use xlink:href="#DejaVuSans-6d" transform="translate(222.412109 0)"/>
     <use xlink:href="#DejaVuSans-61" transform="translate(319.824219 0)"/>
     <use xlink:href="#DejaVuSans-5f" transform="translate(381.103516 0)"/>
     <use xlink:href="#DejaVuSans-72" transform="translate(431.103516 0)"/>
     <use xlink:href="#DejaVuSans-65" transform="translate(469.966797 0)"/>
     <use xlink:href="#DejaVuSans-73" transform="translate(531.490234 0)"/>
     <use xlink:href="#DejaVuSans-63" transform="translate(583.589844 0)"/>
     <use xlink:href="#DejaVuSans-75" transform="translate(638.570312 0)"/>
     <use xlink:href="#DejaVuSans-65" transform="translate(701.949219 0)"/>
     <use xlink:href="#DejaVuSans-64" transform="translate(763.472656 0)"/>
     <use xlink:href="#DejaVuSans-2f" transform="translate(826.949219 0)"/>
     <use xlink:href="#DejaVuSans-63" transform="translate(860.640625 0)"/>
     <use xlink:href="#DejaVuSans-6c" transform="translate(915.621094 0)"/>
     <use xlink:href="#DejaVuSans-61" transform="translate(943.404297 0)"/>
     <use xlink:href="#DejaVuSans-75" transform="translate(1004.683594 0)"/>
     <use xlink:href="#DejaVuSans-64" transform="translate(1068.0625 0)"/>
     <use xlink:href="#DejaVuSans-65" transform="translate(1131.539062 0)"/>
    </g>
   </g>
   <g id="text_32">
    <!-- gemma_rescued/gpt4o -->
    <g transform="translate(210.350072 292.034698) scale(0.07 -0.07)">
     <use xlink:href="#DejaVuSans-67"/>
     <use xlink:href="#DejaVuSans-65" transform="translate(63.476562 0)"/>
     <use xlink:href="#DejaVuSans-6d" transform="translate(125 0)"/>
     <use xlink:href="#DejaVuSans-6d" transform="translate(222.412109 0)"/>
     <use xlink:href="#DejaVuSans-61" transform="translate(319.824219 0)"/>
     <use xlink:href="#DejaVuSans-5f" transform="translate(381.103516 0)"/>
     <use xlink:href="#DejaVuSans-72" transform="translate(431.103516 0)"/>
     <use xlink:href="#DejaVuSans-65" transform="translate(469.966797 0)"/>
     <use xlink:href="#DejaVuSans-73" transform="translate(531.490234 0)"/>
     <use xlink:href="#DejaVuSans-63" transform="translate(583.589844 0)"/>
     <use xlink:href="#DejaVuSans-75" transform="translate(638.570312 0)"/>
     <use xlink:href="#DejaVuSans-65" transform="translate(701.949219 0)"/>
     <use xlink:href="#DejaVuSans-64" transform="translate(763.472656 0)"/>
     <use xlink:href="#DejaVuSans-2f" transform="translate(826.949219 0)"/>
     <use xlink:href="#DejaVuSans-67" transform="translate(860.640625 0)"/>
     <use xlink:href="#DejaVuSans-70" transform="translate(924.117188 0)"/>
     <use xlink:href="#DejaVuSans-74" transform="translate(987.59375 0)"/>
     <use xlink:href="#DejaVuSans-34" transform="translate(1026.802734 0)"/>
     <use xlink:href="#DejaVuSans-6f" transform="translate(1090.425781 0)"/>
    </g>
   </g>
   <g id="text_33">
    <!-- gemma_rescued/gpt4omini -->
    <g transform="translate(109.157117 32.069508) scale(0.07 -0.07)">
     <use xlink:href="#DejaVuSans-67"/>
     <use xlink:href="#DejaVuSans-65" transform="translate(63.476562 0)"/>
     <use xlink:href="#DejaVuSans-6d" transform="translate(125 0)"/>
     <use xlink:href="#DejaVuSans-6d" transform="translate(222.412109 0)"/>
     <use xlink:href="#DejaVuSans-61" transform="translate(319.824219 0)"/>
     <use xlink:href="#DejaVuSans-5f" transform="translate(381.103516 0)"/>
     <use xlink:href="#DejaVuSans-72" transform="translate(431.103516 0)"/>
     <use xlink:href="#DejaVuSans-65" transform="translate(469.966797 0)"/>
     <use xlink:href="#DejaVuSans-73" transform="translate(531.490234 0)"/>
     <use xlink:href="#DejaVuSans-63" transform="translate(583.589844 0)"/>
     <use xlink:href="#DejaVuSans-75" transform="translate(638.570312 0)"/>
     <use xlink:href="#DejaVuSans-65" transform="translate(701.949219 0)"/>
     <use xlink:href="#DejaVuSans-64" transform="translate(763.472656 0)"/>
     <use xlink:href="#DejaVuSans-2f" transform="translate(826.949219 0)"/>
     <use xlink:href="#DejaVuSans-67" transform="translate(860.640625 0)"/>
     <use xlink:href="#DejaVuSans-70" transform="translate(924.117188 0)"/>
     <use xlink:href="#DejaVuSans-74" transform="translate(987.59375 0)"/>
     <use xlink:href="#DejaVuSans-34" transform="translate(1026.802734 0)"/>
     <use xlink:href="#DejaVuSans-6f" transform="translate(1090.425781 0)"/>
     <use xlink:href="#DejaVuSans-6d" transform="translate(1151.607422 0)"/>
     <use xlink:href="#DejaVuSans-69" transform="translate(1249.019531 0)"/>
     <use xlink:href="#DejaVuSans-6e" transform="translate(1276.802734 0)"/>
     <use xlink:href="#DejaVuSans-69" transform="translate(1340.181641 0)"/>
    </g>
   </g>
   <g id="text_34">
    <!-- gemma_rescued/gemma -->
    <g transform="translate(109.157117 376.192471) scale(0.07 -0.07)">
     <use xlink:href="#DejaVuSans-67"/>
     <use xlink:href="#DejaVuSans-65" transform="translate(63.476562 0)"/>
     <use xlink:href="#DejaVuSans-6d" transform="translate(125 0)"/>
     <use xlink:href="#DejaVuSans-6d" transform="translate(222.412109 0)"/>
     <use xlink:href="#DejaVuSans-61" transform="translate(319.824219 0)"/>
     <use xlink:href="#DejaVuSans-5f" transform="translate(381.103516 0)"/>
     <use xlink:href="#DejaVuSans-72" transform="translate(431.103516 0)"/>
     <use xlink:href="#DejaVuSans-65" transform="translate(469.966797 0)"/>
     <use xlink:href="#DejaVuSans-73" transform="translate(531.490234 0)"/>
     <use xlink:href="#DejaVuSans-63" transform="translate(583.589844 0)"/>
     <use xlink:href="#DejaVuSans-75" transform="translate(638.570312 0)"/>
     <use xlink:href="#DejaVuSans-65" transform="translate(701.949219 0)"/>
     <use xlink:href="#DejaVuSans-64" transform="translate(763.472656 0)"/>
     <use xlink:href="#DejaVuSans-2f" transform="translate(826.949219 0)"/>
     <use xlink:href="#DejaVuSans-67" transform="translate(860.640625 0)"/>
     <use xlink:href="#DejaVuSans-65" transform="translate(924.117188 0)"/>
     <use xlink:href="#DejaVuSans-6d" transform="translate(985.640625 0)"/>
     <use xlink:href="#DejaVuSans-6d" transform="translate(1083.052734 0)"/>
     <use xlink:href="#DejaVuSans-61" transform="translate(1180.464844 0)"/>
    </g>
   </g>
   <g id="text_35">
    <!-- Productivity vs Reactor Volume -->
    <g transform="translate(193.047444 12.118365) scale(0.12 -0.12)">
     <defs>
      <path id="DejaVuSans-56" d="M 1831 0 
L 50 4666 
L 709 4666 
L 2188 738 
L 3669 4666 
L 4325 4666 
L 2547 0 
L 1831 0 
z
" transform="scale(0.015625)"/>
     </defs>
     <use xlink:href="#DejaVuSans-50"/>
     <use xlink:href="#DejaVuSans-72" transform="translate(58.552734 0)"/>
     <use xlink:href="#DejaVuSans-6f" transform="translate(97.416016 0)"/>
     <use xlink:href="#DejaVuSans-64" transform="translate(158.597656 0)"/>
     <use xlink:href="#DejaVuSans-75" transform="translate(222.074219 0)"/>
     <use xlink:href="#DejaVuSans-63" transform="translate(285.453125 0)"/>
     <use xlink:href="#DejaVuSans-74" transform="translate(340.433594 0)"/>
     <use xlink:href="#DejaVuSans-69" transform="translate(379.642578 0)"/>
     <use xlink:href="#DejaVuSans-76" transform="translate(407.425781 0)"/>
     <use xlink:href="#DejaVuSans-69" transform="translate(466.605469 0)"/>
     <use xlink:href="#DejaVuSans-74" transform="translate(494.388672 0)"/>
     <use xlink:href="#DejaVuSans-79" transform="translate(533.597656 0)"/>
     <use xlink:href="#DejaVuSans-20" transform="translate(592.777344 0)"/>
     <use xlink:href="#DejaVuSans-76" transform="translate(624.564453 0)"/>
     <use xlink:href="#DejaVuSans-73" transform="translate(683.744141 0)"/>
     <use xlink:href="#DejaVuSans-20" transform="translate(735.84375 0)"/>
     <use xlink:href="#DejaVuSans-52" transform="translate(767.630859 0)"/>
     <use xlink:href="#DejaVuSans-65" transform="translate(832.613281 0)"/>
     <use xlink:href="#DejaVuSans-61" transform="translate(894.136719 0)"/>
     <use xlink:href="#DejaVuSans-63" transform="translate(955.416016 0)"/>
     <use xlink:href="#DejaVuSans-74" transform="translate(1010.396484 0)"/>
     <use xlink:href="#DejaVuSans-6f" transform="translate(1049.605469 0)"/>
     <use xlink:href="#DejaVuSans-72" transform="translate(1110.787109 0)"/>
     <use xlink:href="#DejaVuSans-20" transform="translate(1151.900391 0)"/>
     <use xlink:href="#DejaVuSans-56" transform="translate(1183.6875 0)"/>
     <use xlink:href="#DejaVuSans-6f" transform="translate(1244.345703 0)"/>
     <use xlink:href="#DejaVuSans-6c" transform="translate(1305.527344 0)"/>
     <use xlink:href="#DejaVuSans-75" transform="translate(1333.310547 0)"/>
     <use xlink:href="#DejaVuSans-6d" transform="translate(1396.689453 0)"/>
     <use xlink:href="#DejaVuSans-65" transform="translate(1494.101562 0)"/>
    </g>
   </g>
   <g id="legend_1">
    <g id="patch_7">
     <path d="M 451.047772 55.474615 
L 523.004022 55.474615 
Q 525.004022 55.474615 525.004022 53.474615 
L 525.004022 25.118365 
Q 525.004022 23.118365 523.004022 23.118365 
L 451.047772 23.118365 
Q 449.047772 23.118365 449.047772 25.118365 
L 449.047772 53.474615 
Q 449.047772 55.474615 451.047772 55.474615 
z
" style="fill: #ffffff; opacity: 0.8; stroke: #cccccc; stroke-linejoin: miter"/>
    </g>
    <g id="PathCollection_19">
     <g>
      <use xlink:href="#m4a5a63fd68" x="463.047772" y="32.091803" style="fill: #d00000; stroke: #000000"/>
     </g>
    </g>
    <g id="text_36">
     <!-- MS high -->
     <g transform="translate(481.047772 34.716803) scale(0.1 -0.1)">
      <defs>
       <path id="DejaVuSans-4d" d="M 628 4666 
L 1569 4666 
L 2759 1491 
L 3956 4666 
L 4897 4666 
L 4897 0 
L 4281 0 
L 4281 4097 
L 3078 897 
L 2444 897 
L 1241 4097 
L 1241 0 
L 628 0 
L 628 4666 
z
" transform="scale(0.015625)"/>
       <path id="DejaVuSans-53" d="M 3425 4513 
L 3425 3897 
Q 3066 4069 2747 4153 
Q 2428 4238 2131 4238 
Q 1616 4238 1336 4038 
Q 1056 3838 1056 3469 
Q 1056 3159 1242 3001 
Q 1428 2844 1947 2747 
L 2328 2669 
Q 3034 2534 3370 2195 
Q 3706 1856 3706 1288 
Q 3706 609 3251 259 
Q 2797 -91 1919 -91 
Q 1588 -91 1214 -16 
Q 841 59 441 206 
L 441 856 
Q 825 641 1194 531 
Q 1563 422 1919 422 
Q 2459 422 2753 634 
Q 3047 847 3047 1241 
Q 3047 1584 2836 1778 
Q 2625 1972 2144 2069 
L 1759 2144 
Q 1053 2284 737 2584 
Q 422 2884 422 3419 
Q 422 4038 858 4394 
Q 1294 4750 2059 4750 
Q 2388 4750 2728 4690 
Q 3069 4631 3425 4513 
z
" transform="scale(0.015625)"/>
       <path id="DejaVuSans-68" d="M 3513 2113 
L 3513 0 
L 2938 0 
L 2938 2094 
Q 2938 2591 2744 2837 
Q 2550 3084 2163 3084 
Q 1697 3084 1428 2787 
Q 1159 2491 1159 1978 
L 1159 0 
L 581 0 
L 581 4863 
L 1159 4863 
L 1159 2956 
Q 1366 3272 1645 3428 
Q 1925 3584 2291 3584 
Q 2894 3584 3203 3211 
Q 3513 2838 3513 2113 
z
" transform="scale(0.015625)"/>
      </defs>
      <use xlink:href="#DejaVuSans-4d"/>
      <use xlink:href="#DejaVuSans-53" transform="translate(86.279297 0)"/>
      <use xlink:href="#DejaVuSans-20" transform="translate(149.755859 0)"/>
      <use xlink:href="#DejaVuSans-68" transform="translate(181.542969 0)"/>
      <use xlink:href="#DejaVuSans-69" transform="translate(244.921875 0)"/>
      <use xlink:href="#DejaVuSans-67" transform="translate(272.705078 0)"/>
      <use xlink:href="#DejaVuSans-68" transform="translate(336.181641 0)"/>
     </g>
    </g>
    <g id="PathCollection_20">
     <g>
      <use xlink:href="#md6affa156a" x="463.047772" y="46.769928" style="fill: #003566; stroke: #000000"/>
     </g>
    </g>
    <g id="text_37">
     <!-- MS low -->
     <g transform="translate(481.047772 49.394928) scale(0.1 -0.1)">
      <defs>
       <path id="DejaVuSans-77" d="M 269 3500 
L 844 3500 
L 1563 769 
L 2278 3500 
L 2956 3500 
L 3675 769 
L 4391 3500 
L 4966 3500 
L 4050 0 
L 3372 0 
L 2619 2869 
L 1863 0 
L 1184 0 
L 269 3500 
z
" transform="scale(0.015625)"/>
      </defs>
      <use xlink:href="#DejaVuSans-4d"/>
      <use xlink:href="#DejaVuSans-53" transform="translate(86.279297 0)"/>
      <use xlink:href="#DejaVuSans-20" transform="translate(149.755859 0)"/>
      <use xlink:href="#DejaVuSans-6c" transform="translate(181.542969 0)"/>
      <use xlink:href="#DejaVuSans-6f" transform="translate(209.326172 0)"/>
      <use xlink:href="#DejaVuSans-77" transform="translate(270.507812 0)"/>
     </g>
    </g>
   </g>
  </g>
 </g>
 <defs>
  <clipPath id="p16a3841fae">
   <rect x="42.765865" y="18.118365" width="487.238157" height="394.925145"/>
  </clipPath>
 </defs>
</svg>
