<svg xmlns="http://www.w3.org/2000/svg" width="768" height="423" viewBox="0 0 768 423">
<rect width="768" height="423" fill="#ffffff"/>
<text x="384.0" y="48" text-anchor="middle" font-family="Inter,Arial,sans-serif" font-size="13" font-weight="700" fill="#1e293b">two_stage_no_degasser repeat 10</text>
<circle cx="74.0" cy="220.0" r="24" fill="white" stroke="#1d4ed8" stroke-width="2.5"/><polygon points="65.0,205.0 65.0,235.0 90.0,220.0" fill="#1d4ed8"/><text x="74.0" y="266.0" text-anchor="middle" font-family="Inter,Arial,sans-serif" font-size="10" font-weight="700" fill="#1e293b">Feed A pump</text><text x="74.0" y="281.0" text-anchor="middle" font-family="Inter,Arial,sans-serif" font-size="9" font-weight="normal" fill="#475569">Feed A</text><text x="74.0" y="296.0" text-anchor="middle" font-family="Inter,Arial,sans-serif" font-size="9" font-weight="normal" fill="#475569">0.1 mL/min</text>
<rect x="175.0" y="260.0" width="66" height="44" rx="8" fill="#fffbeb" stroke="#d97706" stroke-width="2.5"/><path d="M 182.0,278.0 L 182.9,279.9 L 183.7,281.7 L 184.6,283.3 L 185.5,284.7 L 186.3,285.8 L 187.2,286.6 L 188.1,287.0 L 188.9,287.0 L 189.8,286.6 L 190.7,285.8 L 191.5,284.7 L 192.4,283.3 L 193.3,281.7 L 194.1,279.9 L 195.0,278.0 L 195.9,276.1 L 196.7,274.3 L 197.6,272.7 L 198.5,271.3 L 199.3,270.2 L 200.2,269.4 L 201.1,269.0 L 201.9,269.0 L 202.8,269.4 L 203.7,270.2 L 204.5,271.3 L 205.4,272.7 L 206.3,274.3 L 207.1,276.1 L 208.0,278.0 L 208.9,279.9 L 209.7,281.7 L 210.6,283.3 L 211.5,284.7 L 212.3,285.8 L 213.2,286.6 L 214.1,287.0 L 214.9,287.0 L 215.8,286.6 L 216.7,285.8 L 217.5,284.7 L 218.4,283.3 L 219.3,281.7 L 220.1,279.9 L 221.0,278.0 L 221.9,276.1 L 222.7,274.3 L 223.6,272.7 L 224.5,271.3 L 225.3,270.2 L 226.2,269.4 L 227.1,269.0 L 227.9,269.0 L 228.8,269.4 L 229.7,270.2 L 230.5,271.3 L 231.4,272.7 L 232.3,274.3 L 233.1,276.1 L 234.0,278.0" fill="none" stroke="#d97706" stroke-width="2.2" stroke-linecap="round"/><line x1="188.0" y1="251.0" x2="188.0" y2="259.0" stroke="#ca8a04" stroke-width="2" stroke-linecap="round"/><line x1="208.0" y1="251.0" x2="208.0" y2="259.0" stroke="#ca8a04" stroke-width="2" stroke-linecap="round"/><line x1="228.0" y1="251.0" x2="228.0" y2="259.0" stroke="#ca8a04" stroke-width="2" stroke-linecap="round"/><text x="208.0" y="324.0" text-anchor="middle" font-family="Inter,Arial,sans-serif" font-size="10" font-weight="700" fill="#1e293b">Stage 1: 20 mL reactor</text><text x="208.0" y="339.0" text-anchor="middle" font-family="Inter,Arial,sans-serif" font-size="9" font-weight="normal" fill="#475569">V=20.0mL</text><text x="208.0" y="354.0" text-anchor="middle" font-family="Inter,Arial,sans-serif" font-size="9" font-weight="normal" fill="#475569">T=25°C</text><text x="208.0" y="369.0" text-anchor="middle" font-family="Inter,Arial,sans-serif" font-size="9" font-weight="normal" fill="#475569">λ=450nm</text>
<line x1="308.0" y1="278.0" x2="356.0" y2="278.0" stroke="#7c3aed" stroke-width="3" stroke-linecap="round"/><line x1="332.0" y1="256.0" x2="332.0" y2="278.0" stroke="#7c3aed" stroke-width="3" stroke-linecap="round"/><circle cx="332.0" cy="278.0" r="5" fill="#7c3aed"/><polygon points="308.0,273.0 308.0,283.0 319.0,278.0" fill="#7c3aed"/><polygon points="332.0,256.0 327.0,264.0 337.0,264.0" fill="#7c3aed"/><text x="332.0" y="324.0" text-anchor="middle" font-family="Inter,Arial,sans-serif" font-size="10" font-weight="700" fill="#1e293b">Stage 2 mixer</text><text x="332.0" y="339.0" text-anchor="middle" font-family="Inter,Arial,sans-serif" font-size="9" font-weight="normal" fill="#475569">T-mixer</text>
<rect x="423.0" y="253.0" width="66" height="50" rx="8" fill="#fffbeb" stroke="#d97706" stroke-width="2.5"/><path d="M 430.0,274.0 L 430.9,275.9 L 431.7,277.7 L 432.6,279.3 L 433.5,280.7 L 434.3,281.8 L 435.2,282.6 L 436.1,283.0 L 436.9,283.0 L 437.8,282.6 L 438.7,281.8 L 439.5,280.7 L 440.4,279.3 L 441.3,277.7 L 442.1,275.9 L 443.0,274.0 L 443.9,272.1 L 444.7,270.3 L 445.6,268.7 L 446.5,267.3 L 447.3,266.2 L 448.2,265.4 L 449.1,265.0 L 449.9,265.0 L 450.8,265.4 L 451.7,266.2 L 452.5,267.3 L 453.4,268.7 L 454.3,270.3 L 455.1,272.1 L 456.0,274.0 L 456.9,275.9 L 457.7,277.7 L 458.6,279.3 L 459.5,280.7 L 460.3,281.8 L 461.2,282.6 L 462.1,283.0 L 462.9,283.0 L 463.8,282.6 L 464.7,281.8 L 465.5,280.7 L 466.4,279.3 L 467.3,277.7 L 468.1,275.9 L 469.0,274.0 L 469.9,272.1 L 470.7,270.3 L 471.6,268.7 L 472.5,267.3 L 473.3,266.2 L 474.2,265.4 L 475.1,265.0 L 475.9,265.0 L 476.8,265.4 L 477.7,266.2 L 478.5,267.3 L 479.4,268.7 L 480.3,270.3 L 481.1,272.1 L 482.0,274.0" fill="none" stroke="#d97706" stroke-width="2.2" stroke-linecap="round"/><text x="456.0" y="324.0" text-anchor="middle" font-family="Inter,Arial,sans-serif" font-size="10" font-weight="700" fill="#1e293b">Stage 2: 10 mL reactor</text><text x="456.0" y="339.0" text-anchor="middle" font-family="Inter,Arial,sans-serif" font-size="9" font-weight="normal" fill="#475569">V=10.0mL</text><text x="456.0" y="354.0" text-anchor="middle" font-family="Inter,Arial,sans-serif" font-size="9" font-weight="normal" fill="#475569">T=40°C</text>
<polygon points="580.0,254.0 604.0,278.0 580.0,302.0 556.0,278.0" fill="white" stroke="#dc2626" stroke-width="2.5"/><text x="580.0" y="282.0" text-anchor="middle" font-family="Inter,Arial,sans-serif" font-size="8" font-weight="700" fill="#dc2626">P</text><text x="580.0" y="324.0" text-anchor="middle" font-family="Inter,Arial,sans-serif" font-size="10" font-weight="700" fill="#1e293b">5 bar BPR</text><text x="580.0" y="339.0" text-anchor="middle" font-family="Inter,Arial,sans-serif" font-size="9" font-weight="normal" fill="#475569">5.0 bar</text>
<path d="M 697.5 254.0 L 710.5 254.0 L 726.0 267.44 Q 730.0 272.44 730.0 277.44 Q 730.0 302.0 722.0 302.0 L 686.0 302.0 Q 678.0 302.0 678.0 277.44 Q 678.0 272.44 682.0 267.44 L 697.5 254.0 Z" fill="#f0fdf4" stroke="#16a34a" stroke-width="2"/><line x1="693.5" y1="254.0" x2="714.5" y2="254.0" stroke="#16a34a" stroke-width="3" stroke-linecap="round"/><text x="704.0" y="324.0" text-anchor="middle" font-family="Inter,Arial,sans-serif" font-size="10" font-weight="700" fill="#1e293b">Product collection</text><text x="704.0" y="339.0" text-anchor="middle" font-family="Inter,Arial,sans-serif" font-size="9" font-weight="normal" fill="#475569">Product</text>
<circle cx="332.0" cy="130.0" r="24" fill="white" stroke="#1d4ed8" stroke-width="2.5"/><polygon points="323.0,115.0 323.0,145.0 348.0,130.0" fill="#1d4ed8"/><text x="332.0" y="176.0" text-anchor="middle" font-family="Inter,Arial,sans-serif" font-size="10" font-weight="700" fill="#1e293b">Stage 2 reagent pump</text><text x="332.0" y="191.0" text-anchor="middle" font-family="Inter,Arial,sans-serif" font-size="9" font-weight="normal" fill="#475569">Feed B</text><text x="332.0" y="206.0" text-anchor="middle" font-family="Inter,Arial,sans-serif" font-size="9" font-weight="normal" fill="#475569">0.02 mL/min</text>
<line x1="332.0" y1="216.0" x2="332.0" y2="243.0" stroke="#475569" stroke-width="1.5" stroke-dasharray="4,3"/><polygon points="328.0,242.0 332.0,248.0 336.0,242.0" fill="#475569"/>
<line x1="110.0" y1="220.0" x2="122.0" y2="220.0" stroke="#475569" stroke-width="1.5"/>
<line x1="122.0" y1="220.0" x2="122.0" y2="278.0" stroke="#475569" stroke-width="1.5"/>
<line x1="122.0" y1="278.0" x2="166.0" y2="278.0" stroke="#475569" stroke-width="1.8"/><polygon points="165.0,274.0 172.0,278.0 165.0,282.0" fill="#475569"/>
<line x1="244.0" y1="278.0" x2="290.0" y2="278.0" stroke="#475569" stroke-width="1.8"/><polygon points="289.0,274.0 296.0,278.0 289.0,282.0" fill="#475569"/>
<line x1="368.0" y1="278.0" x2="414.0" y2="278.0" stroke="#475569" stroke-width="1.8"/><polygon points="413.0,274.0 420.0,278.0 413.0,282.0" fill="#475569"/>
<line x1="492.0" y1="278.0" x2="538.0" y2="278.0" stroke="#475569" stroke-width="1.8"/><polygon points="537.0,274.0 544.0,278.0 537.0,282.0" fill="#475569"/>
<line x1="616.0" y1="278.0" x2="662.0" y2="278.0" stroke="#475569" stroke-width="1.8"/><polygon points="661.0,274.0 668.0,278.0 661.0,282.0" fill="#475569"/>
<text x="384.0" y="409" text-anchor="middle" font-family="Inter,Arial,sans-serif" font-size="10" font-weight="normal" fill="#94a3b8">τ = 107.5 min · Q = 0.12 mL/min · V = 30.0 mL</text>
</svg>