<?xml version="1.0" encoding="UTF-8" standalone="no"?>
<!DOCTYPE svg PUBLIC "-//W3C//DTD SVG 1.1//EN"
 "http://www.w3.org/Graphics/SVG/1.1/DTD/svg11.dtd">
<!-- Generated by graphviz version 14.1.2 (20260126.1125)
 -->
<!-- Pages: 1 -->
<svg width="1935pt" height="872pt"
 viewBox="0.00 0.00 1935.00 872.00" xmlns="http://www.w3.org/2000/svg" xmlns:xlink="http://www.w3.org/1999/xlink">
<g id="graph0" class="graph" transform="scale(2.5 2.5) rotate(0) translate(14.4 334.4)">
<polygon fill="white" stroke="none" points="-14.4,14.4 -14.4,-334.4 759.4,-334.4 759.4,14.4 -14.4,14.4"/>
<text xml:space="preserve" text-anchor="start" x="307.62" y="-304.65" font-family="Arial" font-weight="bold" font-size="13.00" fill="#111827">GUI topology smoke</text>
<!-- pump_a -->
<g id="node1" class="node">
<title>pump_a</title>
<image xlink:href="_pump_trimmed.png" width="106px" height="105.045px" preserveAspectRatio="xMinYMin meet" x="2" y="-293.523"/>
<text xml:space="preserve" text-anchor="start" x="36.25" y="-175.5" font-family="Arial" font-weight="bold" font-size="10.00" fill="#111827">Pump A</text>
<text xml:space="preserve" text-anchor="start" x="38.5" y="-162.4" font-family="Arial" font-size="8.00" fill="#1e40af">substrate</text>
<text xml:space="preserve" text-anchor="start" x="43.38" y="-150.65" font-family="Arial" font-size="8.00" fill="#374151">MeCN</text>
<text xml:space="preserve" text-anchor="start" x="29.12" y="-138.95" font-family="Arial" font-weight="bold" font-size="9.00" fill="#2563eb">1.00 mL/min</text>
</g>
<!-- mixer_1 -->
<g id="node3" class="node">
<title>mixer_1</title>
<image xlink:href="mixer2.png" width="110px" height="110px" preserveAspectRatio="xMinYMin meet" x="157" y="-203"/>
</g>
<!-- pump_a&#45;&gt;mixer_1 -->
<g id="edge1" class="edge">
<title>pump_a:e&#45;&gt;mixer_1:nw</title>
<path fill="none" stroke="#27408b" stroke-width="2" d="M114,-241C114,-241 138.69,-219.15 150.66,-208.56"/>
<polygon fill="#27408b" stroke="#27408b" stroke-width="2" points="151.89,-210.04 154.73,-204.95 149.34,-207.16 151.89,-210.04"/>
</g>
<!-- pump_g -->
<g id="node2" class="node">
<title>pump_g</title>
<path fill="#fff5f5" stroke="none" d="M35.12,-1C35.12,-1 77.88,-1 77.88,-1 83.88,-1 89.88,-7 89.88,-13 89.88,-13 89.88,-97 89.88,-97 89.88,-103 83.88,-109 77.88,-109 77.88,-109 35.12,-109 35.12,-109 29.12,-109 23.12,-103 23.12,-97 23.12,-97 23.12,-13 23.12,-13 23.12,-7 29.12,-1 35.12,-1"/>
<text xml:space="preserve" text-anchor="start" x="46.75" y="-92.45" font-family="Arial" font-weight="bold" font-size="9.00" fill="#7f1d1d">MFC</text>
<text xml:space="preserve" text-anchor="start" x="40.38" y="-65" font-family="Arial" font-weight="bold" font-size="10.00" fill="#111827">MFC G</text>
<text xml:space="preserve" text-anchor="start" x="51.62" y="-37.9" font-family="Arial" font-size="8.00" fill="#dc2626">Air</text>
<text xml:space="preserve" text-anchor="start" x="32.12" y="-12.15" font-family="Arial" font-size="8.00" fill="#374151">12.00 mL/min</text>
<path fill="none" stroke="#dc2626" stroke-width="2" d="M35.12,-1C35.12,-1 77.88,-1 77.88,-1 83.88,-1 89.88,-7 89.88,-13 89.88,-13 89.88,-97 89.88,-97 89.88,-103 83.88,-109 77.88,-109 77.88,-109 35.12,-109 35.12,-109 29.12,-109 23.12,-103 23.12,-97 23.12,-97 23.12,-13 23.12,-13 23.12,-7 29.12,-1 35.12,-1"/>
</g>
<!-- pump_g&#45;&gt;mixer_1 -->
<g id="edge2" class="edge">
<title>pump_g:e&#45;&gt;mixer_1:sw</title>
<path fill="none" stroke="#27408b" stroke-width="2" d="M92.88,-55C92.88,-55 133.86,-78.93 150.83,-88.83"/>
<polygon fill="#27408b" stroke="#27408b" stroke-width="2" points="149.72,-90.42 155.44,-91.53 151.66,-87.09 149.72,-90.42"/>
</g>
<!-- deoxy_1 -->
<g id="node4" class="node">
<title>deoxy_1</title>
<image xlink:href="degasser.png" width="104px" height="104px" preserveAspectRatio="xMinYMin meet" x="313" y="-216.5"/>
<text xml:space="preserve" text-anchor="start" x="345.12" y="-97.95" font-family="Arial" font-size="9.00" fill="#111827">Degasser</text>
<text xml:space="preserve" text-anchor="start" x="342.88" y="-81.45" font-family="Arial" font-size="9.00" fill="#111827">membrane</text>
</g>
<!-- mixer_1&#45;&gt;deoxy_1 -->
<g id="edge3" class="edge">
<title>mixer_1:e&#45;&gt;deoxy_1:w</title>
<path fill="none" stroke="#27408b" stroke-width="2" d="M267,-148C267,-148 289.21,-148 301.71,-148"/>
<polygon fill="#27408b" stroke="#27408b" stroke-width="2" points="301.47,-149.93 306.97,-148 301.47,-146.08 301.47,-149.93"/>
</g>
<!-- reactor_1 -->
<g id="node5" class="node">
<title>reactor_1</title>
<image xlink:href="coil_reactor.png" width="104px" height="104px" preserveAspectRatio="xMinYMin meet" x="475.5" y="-224.25"/>
<text xml:space="preserve" text-anchor="start" x="466" y="-105.7" font-family="Arial" font-size="9.00" fill="#111827">80°C &#160;· &#160;τ=2.0 min &#160;· &#160;V=7.1 mL</text>
</g>
<!-- deoxy_1&#45;&gt;reactor_1 -->
<g id="edge4" class="edge">
<title>deoxy_1:e&#45;&gt;reactor_1:w</title>
<path fill="none" stroke="#27408b" stroke-width="2" d="M420,-164.5C420,-164.5 442.21,-164.24 454.71,-164.1"/>
<polygon fill="#27408b" stroke="#27408b" stroke-width="2" points="454.5,-166.02 459.97,-164.04 454.45,-162.17 454.5,-166.02"/>
</g>
<!-- collector_1 -->
<g id="node6" class="node">
<title>collector_1</title>
<image xlink:href="vial.png" width="104px" height="104px" preserveAspectRatio="xMinYMin meet" x="638" y="-232.25"/>
<text xml:space="preserve" text-anchor="start" x="652.5" y="-113.7" font-family="Arial" font-size="9.00" fill="#111827">Product Collection</text>
</g>
<!-- reactor_1&#45;&gt;collector_1 -->
<g id="edge5" class="edge">
<title>reactor_1:e&#45;&gt;collector_1:w</title>
<path fill="none" stroke="#27408b" stroke-width="2" d="M592,-172.25C592,-172.25 614.21,-172.12 626.71,-172.05"/>
<polygon fill="#27408b" stroke="#27408b" stroke-width="2" points="626.48,-173.97 631.97,-172.02 626.46,-170.12 626.48,-173.97"/>
</g>
</g>
</svg>
