<?xml version="1.0" encoding="UTF-8" standalone="no"?>
<!DOCTYPE svg PUBLIC "-//W3C//DTD SVG 1.1//EN"
 "http://www.w3.org/Graphics/SVG/1.1/DTD/svg11.dtd">
<!-- Generated by graphviz version 14.1.2 (20260126.1125)
 -->
<!-- Pages: 1 -->
<svg width="1552pt" height="971pt"
 viewBox="0.00 0.00 1552.00 971.00" xmlns="http://www.w3.org/2000/svg" xmlns:xlink="http://www.w3.org/1999/xlink">
<g id="graph0" class="graph" transform="scale(2.5 2.5) rotate(0) translate(14.4 374.15)">
<polygon fill="white" stroke="none" points="-14.4,14.4 -14.4,-374.15 606.4,-374.15 606.4,14.4 -14.4,14.4"/>
<text xml:space="preserve" text-anchor="start" x="245.38" y="-344.4" font-family="Arial" font-weight="bold" font-size="13.00" fill="#111827">MFC regression</text>
<!-- pump_a -->
<g id="node1" class="node">
<title>pump_a</title>
<image xlink:href="_pump_trimmed.png" width="106px" height="105.045px" preserveAspectRatio="xMinYMin meet" x="2" y="-333.273"/>
<text xml:space="preserve" text-anchor="start" x="36.25" y="-215.25" font-family="Arial" font-weight="bold" font-size="10.00" fill="#111827">Pump A</text>
<text xml:space="preserve" text-anchor="start" x="25.75" y="-202.15" font-family="Arial" font-size="8.00" fill="#1e40af">PMPSCH2 TMS</text>
<text xml:space="preserve" text-anchor="start" x="43.38" y="-190.4" font-family="Arial" font-size="8.00" fill="#374151">MeCN</text>
<text xml:space="preserve" text-anchor="start" x="29.12" y="-178.7" font-family="Arial" font-weight="bold" font-size="9.00" fill="#2563eb">1.00 mL/min</text>
</g>
<!-- mixer_1 -->
<g id="node3" class="node">
<title>mixer_1</title>
<image xlink:href="mixer2.png" width="110px" height="110px" preserveAspectRatio="xMinYMin meet" x="157" y="-241.75"/>
</g>
<!-- pump_a&#45;&gt;mixer_1 -->
<g id="edge1" class="edge">
<title>pump_a:e&#45;&gt;mixer_1:nw</title>
<path fill="none" stroke="#27408b" stroke-width="2" d="M114,-280.75C114,-280.75 139.21,-257.86 151.02,-247.13"/>
<polygon fill="#27408b" stroke="#27408b" stroke-width="2" points="151.98,-248.86 154.76,-243.73 149.39,-246.01 151.98,-248.86"/>
</g>
<!-- pump_g -->
<g id="node2" class="node">
<title>pump_g</title>
<image xlink:href="mfc.png" width="106px" height="106px" preserveAspectRatio="xMinYMin meet" x="2" y="-146.5"/>
<text xml:space="preserve" text-anchor="start" x="38.88" y="-28" font-family="Arial" font-weight="bold" font-size="10.00" fill="#111827">MFC G</text>
<text xml:space="preserve" text-anchor="start" x="50.12" y="-14.9" font-family="Arial" font-size="8.00" fill="#dc2626">Air</text>
<text xml:space="preserve" text-anchor="start" x="30.62" y="-3.15" font-family="Arial" font-size="8.00" fill="#374151">12.00 mL/min</text>
</g>
<!-- pump_g&#45;&gt;mixer_1 -->
<g id="edge2" class="edge">
<title>pump_g:e&#45;&gt;mixer_1:sw</title>
<path fill="none" stroke="#27408b" stroke-width="2" d="M114,-93.5C114,-93.5 139.82,-115.95 151.93,-126.48"/>
<polygon fill="#27408b" stroke="#27408b" stroke-width="2" points="150.35,-127.66 155.77,-129.82 152.88,-124.75 150.35,-127.66"/>
</g>
<!-- reactor_1 -->
<g id="node4" class="node">
<title>reactor_1</title>
<image xlink:href="coil_reactor.png" width="104px" height="104px" preserveAspectRatio="xMinYMin meet" x="322.5" y="-247"/>
<text xml:space="preserve" text-anchor="start" x="313" y="-128.45" font-family="Arial" font-size="9.00" fill="#111827">80°C &#160;· &#160;τ=2.0 min &#160;· &#160;V=7.1 mL</text>
</g>
<!-- mixer_1&#45;&gt;reactor_1 -->
<g id="edge3" class="edge">
<title>mixer_1:e&#45;&gt;reactor_1:w</title>
<path fill="none" stroke="#27408b" stroke-width="2" d="M267,-186.75C267,-186.75 289.21,-186.75 301.71,-186.75"/>
<polygon fill="#27408b" stroke="#27408b" stroke-width="2" points="301.47,-188.68 306.97,-186.75 301.47,-184.83 301.47,-188.68"/>
</g>
<!-- collector_1 -->
<g id="node5" class="node">
<title>collector_1</title>
<image xlink:href="vial.png" width="104px" height="104px" preserveAspectRatio="xMinYMin meet" x="485" y="-255"/>
<text xml:space="preserve" text-anchor="start" x="499.5" y="-136.45" font-family="Arial" font-size="9.00" fill="#111827">Product Collection</text>
</g>
<!-- reactor_1&#45;&gt;collector_1 -->
<g id="edge4" class="edge">
<title>reactor_1:e&#45;&gt;collector_1:w</title>
<path fill="none" stroke="#27408b" stroke-width="2" d="M439,-195C439,-195 461.21,-194.87 473.71,-194.8"/>
<polygon fill="#27408b" stroke="#27408b" stroke-width="2" points="473.48,-196.72 478.97,-194.77 473.46,-192.87 473.48,-196.72"/>
</g>
</g>
</svg>
