<?xml version="1.0" encoding="UTF-8" standalone="no"?>
<!DOCTYPE svg PUBLIC "-//W3C//DTD SVG 1.1//EN"
 "http://www.w3.org/Graphics/SVG/1.1/DTD/svg11.dtd">
<!-- Generated by graphviz version 14.1.2 (20260126.1125)
 -->
<!-- Pages: 1 -->
<svg width="1951pt" height="942pt"
 viewBox="0.00 0.00 1951.00 942.00" xmlns="http://www.w3.org/2000/svg" xmlns:xlink="http://www.w3.org/1999/xlink">
<g id="graph0" class="graph" transform="scale(2.5 2.5) rotate(0) translate(14.4 362.27)">
<polygon fill="white" stroke="none" points="-14.4,14.4 -14.4,-362.27 766.15,-362.27 766.15,14.4 -14.4,14.4"/>
<text xml:space="preserve" text-anchor="start" x="260.75" y="-332.52" font-family="Arial" font-weight="bold" font-size="13.00" fill="#111827">gas_liquid_photochemistry repeat 7</text>
<!-- pump_a -->
<g id="node1" class="node">
<title>pump_a</title>
<image xlink:href="_pump_trimmed.png" width="106px" height="105.045px" preserveAspectRatio="xMinYMin meet" x="2" y="-321.398"/>
<text xml:space="preserve" text-anchor="start" x="36.62" y="-203.38" font-family="Arial" font-weight="bold" font-size="10.00" fill="#111827">Pump ?</text>
<text xml:space="preserve" text-anchor="start" x="23.12" y="-190.28" font-family="Arial" font-size="8.00" fill="#1e40af">Substrate solution</text>
<text xml:space="preserve" text-anchor="start" x="29.12" y="-178.57" font-family="Arial" font-weight="bold" font-size="9.00" fill="#2563eb">0.05 mL/min</text>
</g>
<!-- mixer_1 -->
<g id="node3" class="node">
<title>mixer_1</title>
<image xlink:href="mixer2.png" width="110px" height="110px" preserveAspectRatio="xMinYMin meet" x="157" y="-235.75"/>
</g>
<!-- pump_a&#45;&gt;mixer_1 -->
<g id="edge1" class="edge">
<title>pump_a:e&#45;&gt;mixer_1:nw</title>
<path fill="none" stroke="#27408b" stroke-width="2" d="M114,-268.88C114,-268.88 138.19,-250.21 150.28,-240.88"/>
<polygon fill="#27408b" stroke="#27408b" stroke-width="2" points="151.42,-242.43 154.6,-237.55 149.07,-239.38 151.42,-242.43"/>
</g>
<!-- mfc_o2 -->
<g id="node2" class="node">
<title>mfc_o2</title>
<image xlink:href="mfc.png" width="106px" height="106px" preserveAspectRatio="xMinYMin meet" x="2" y="-146.5"/>
<text xml:space="preserve" text-anchor="start" x="39.62" y="-28" font-family="Arial" font-weight="bold" font-size="10.00" fill="#111827">MFC ?</text>
<text xml:space="preserve" text-anchor="start" x="49.75" y="-14.9" font-family="Arial" font-size="8.00" fill="#dc2626">O2</text>
<text xml:space="preserve" text-anchor="start" x="37" y="-3.15" font-family="Arial" font-size="8.00" fill="#374151">1.20 sccm</text>
</g>
<!-- mfc_o2&#45;&gt;mixer_1 -->
<g id="edge2" class="edge">
<title>mfc_o2:e&#45;&gt;mixer_1:sw</title>
<path fill="none" stroke="#27408b" stroke-width="2" d="M114,-93.5C114,-93.5 139.3,-112.05 151.55,-121.04"/>
<polygon fill="#27408b" stroke="#27408b" stroke-width="2" points="150.04,-122.31 155.61,-124.01 152.31,-119.21 150.04,-122.31"/>
</g>
<!-- reactor_1 -->
<g id="node4" class="node">
<title>reactor_1</title>
<image xlink:href="photoreactor.png" width="113.77px" height="104px" preserveAspectRatio="xMinYMin meet" x="320.99" y="-241"/>
<text xml:space="preserve" text-anchor="start" x="313" y="-122.45" font-family="Arial" font-size="9.00" fill="#111827">40°C &#160;· &#160;λ=450 nm &#160;· &#160;V=10.0 mL</text>
</g>
<!-- mixer_1&#45;&gt;reactor_1 -->
<g id="edge3" class="edge">
<title>mixer_1:e&#45;&gt;reactor_1:w</title>
<path fill="none" stroke="#27408b" stroke-width="2" d="M267,-180.75C267,-180.75 289.21,-180.75 301.71,-180.75"/>
<polygon fill="#27408b" stroke="#27408b" stroke-width="2" points="301.47,-182.68 306.97,-180.75 301.47,-178.83 301.47,-182.68"/>
</g>
<!-- bpr_1 -->
<g id="node5" class="node">
<title>bpr_1</title>
<image xlink:href="bpr.png" width="104px" height="104px" preserveAspectRatio="xMinYMin meet" x="491.75" y="-257.25"/>
<text xml:space="preserve" text-anchor="start" x="534.38" y="-138.7" font-family="Arial" font-size="9.00" fill="#111827">BPR</text>
<text xml:space="preserve" text-anchor="start" x="531" y="-122.2" font-family="Arial" font-size="9.00" fill="#111827"> &#160;6 bar</text>
</g>
<!-- reactor_1&#45;&gt;bpr_1 -->
<g id="edge4" class="edge">
<title>reactor_1:e&#45;&gt;bpr_1:w</title>
<path fill="none" stroke="#27408b" stroke-width="2" d="M445.75,-189C445.75,-189 467.96,-188.87 480.46,-188.8"/>
<polygon fill="#27408b" stroke="#27408b" stroke-width="2" points="480.23,-190.72 485.72,-188.77 480.21,-186.87 480.23,-190.72"/>
</g>
<!-- collector_1 -->
<g id="node6" class="node">
<title>collector_1</title>
<image xlink:href="vial.png" width="104px" height="104px" preserveAspectRatio="xMinYMin meet" x="644.75" y="-265"/>
<text xml:space="preserve" text-anchor="start" x="660.38" y="-146.45" font-family="Arial" font-size="9.00" fill="#111827">Product collection</text>
</g>
<!-- bpr_1&#45;&gt;collector_1 -->
<g id="edge5" class="edge">
<title>bpr_1:e&#45;&gt;collector_1:w</title>
<path fill="none" stroke="#27408b" stroke-width="2" d="M598.75,-205.25C598.75,-205.25 620.96,-204.99 633.46,-204.85"/>
<polygon fill="#27408b" stroke="#27408b" stroke-width="2" points="633.25,-206.77 638.72,-204.79 633.2,-202.92 633.25,-206.77"/>
</g>
</g>
</svg>
