<?xml version="1.0" encoding="UTF-8" standalone="no"?>
<!DOCTYPE svg PUBLIC "-//W3C//DTD SVG 1.1//EN"
 "http://www.w3.org/Graphics/SVG/1.1/DTD/svg11.dtd">
<!-- Generated by graphviz version 14.1.2 (20260126.1125)
 -->
<!-- Pages: 1 -->
<svg width="2353pt" height="1132pt"
 viewBox="0.00 0.00 2353.00 1132.00" xmlns="http://www.w3.org/2000/svg" xmlns:xlink="http://www.w3.org/1999/xlink">
<g id="graph0" class="graph" transform="scale(2.5 2.5) rotate(0) translate(14.4 438.4)">
<polygon fill="white" stroke="none" points="-14.4,14.4 -14.4,-438.4 926.9,-438.4 926.9,14.4 -14.4,14.4"/>
<text xml:space="preserve" text-anchor="start" x="266.5" y="-408.65" font-family="Arial" font-weight="bold" font-size="13.00" fill="#111827">Synthetic chlorination of activated alkene with chlorine gas</text>
<!-- pump_a -->
<g id="node1" class="node">
<title>pump_a</title>
<image xlink:href="_pump_trimmed.png" width="106px" height="105.045px" preserveAspectRatio="xMinYMin meet" x="2" y="-397.523"/>
<text xml:space="preserve" text-anchor="start" x="36.25" y="-279.5" font-family="Arial" font-weight="bold" font-size="10.00" fill="#111827">Pump A</text>
<text xml:space="preserve" text-anchor="start" x="7" y="-266.4" font-family="Arial" font-size="8.00" fill="#1e40af">activated alkene, &#160;dry DCM</text>
<text xml:space="preserve" text-anchor="start" x="45.62" y="-254.65" font-family="Arial" font-size="8.00" fill="#374151">DCM</text>
<text xml:space="preserve" text-anchor="start" x="29.12" y="-242.95" font-family="Arial" font-weight="bold" font-size="9.00" fill="#2563eb">3.82 mL/min</text>
</g>
<!-- mixer_1 -->
<g id="node3" class="node">
<title>mixer_1</title>
<image xlink:href="mixer2.png" width="110px" height="110px" preserveAspectRatio="xMinYMin meet" x="157" y="-306"/>
</g>
<!-- pump_a&#45;&gt;mixer_1 -->
<g id="edge1" class="edge">
<title>pump_a:e&#45;&gt;mixer_1:nw</title>
<path fill="none" stroke="#27408b" stroke-width="2" d="M114,-345C114,-345 139.21,-322.11 151.02,-311.38"/>
<polygon fill="#27408b" stroke="#27408b" stroke-width="2" points="151.98,-313.11 154.76,-307.98 149.39,-310.26 151.98,-313.11"/>
</g>
<!-- pump_g -->
<g id="node2" class="node">
<title>pump_g</title>
<image xlink:href="mfc.png" width="106px" height="106px" preserveAspectRatio="xMinYMin meet" x="2" y="-210.875"/>
<text xml:space="preserve" text-anchor="start" x="38.88" y="-92.38" font-family="Arial" font-weight="bold" font-size="10.00" fill="#111827">MFC G</text>
<text xml:space="preserve" text-anchor="start" x="41.5" y="-79.28" font-family="Arial" font-size="8.00" fill="#dc2626">Cl2 gas</text>
<text xml:space="preserve" text-anchor="start" x="34.75" y="-67.53" font-family="Arial" font-size="8.00" fill="#374151">51.31 sccm</text>
<text xml:space="preserve" text-anchor="start" x="21.62" y="-56.73" font-family="Arial" font-size="7.00" fill="#6b7280">6.013 mL/min reactor</text>
</g>
<!-- pump_g&#45;&gt;mixer_1 -->
<g id="edge2" class="edge">
<title>pump_g:e&#45;&gt;mixer_1:sw</title>
<path fill="none" stroke="#27408b" stroke-width="2" d="M114,-157.88C114,-157.88 139.82,-180.25 151.93,-190.74"/>
<polygon fill="#27408b" stroke="#27408b" stroke-width="2" points="150.35,-191.92 155.76,-194.07 152.87,-189.01 150.35,-191.92"/>
</g>
<!-- reactor_1 -->
<g id="node4" class="node">
<title>reactor_1</title>
<image xlink:href="coil_reactor.png" width="104px" height="104px" preserveAspectRatio="xMinYMin meet" x="327.75" y="-311.25"/>
<text xml:space="preserve" text-anchor="start" x="313" y="-192.7" font-family="Arial" font-size="9.00" fill="#111827">&#45;20.0°C &#160;· &#160;τ=2.2 min &#160;· &#160;V=8.4 mL</text>
</g>
<!-- mixer_1&#45;&gt;reactor_1 -->
<g id="edge3" class="edge">
<title>mixer_1:e&#45;&gt;reactor_1:w</title>
<path fill="none" stroke="#27408b" stroke-width="2" d="M267,-251C267,-251 289.21,-251 301.71,-251"/>
<polygon fill="#27408b" stroke="#27408b" stroke-width="2" points="301.47,-252.93 306.97,-251 301.47,-249.08 301.47,-252.93"/>
</g>
<!-- bpr_1 -->
<g id="node5" class="node">
<title>bpr_1</title>
<image xlink:href="bpr.png" width="104px" height="104px" preserveAspectRatio="xMinYMin meet" x="497.5" y="-327.5"/>
<text xml:space="preserve" text-anchor="start" x="540.12" y="-208.95" font-family="Arial" font-size="9.00" fill="#111827">BPR</text>
<text xml:space="preserve" text-anchor="start" x="534.12" y="-192.45" font-family="Arial" font-size="9.00" fill="#111827"> &#160;32 bar</text>
</g>
<!-- reactor_1&#45;&gt;bpr_1 -->
<g id="edge4" class="edge">
<title>reactor_1:e&#45;&gt;bpr_1:w</title>
<path fill="none" stroke="#27408b" stroke-width="2" d="M449.5,-259.25C449.5,-259.25 472.33,-259.12 485.17,-259.05"/>
<polygon fill="#27408b" stroke="#27408b" stroke-width="2" points="485.18,-260.97 490.67,-259.02 485.16,-257.12 485.18,-260.97"/>
</g>
<!-- quench_mixer -->
<g id="node7" class="node">
<title>quench_mixer</title>
<image xlink:href="mixer2.png" width="110px" height="110px" preserveAspectRatio="xMinYMin meet" x="649.5" y="-245"/>
</g>
<!-- bpr_1&#45;&gt;quench_mixer -->
<g id="edge5" class="edge">
<title>bpr_1:e&#45;&gt;quench_mixer:nw</title>
<path fill="none" stroke="#27408b" stroke-width="2" d="M605.5,-275.5C605.5,-275.5 630.25,-258.31 642.62,-249.72"/>
<polygon fill="#27408b" stroke="#27408b" stroke-width="2" points="643.59,-251.39 647.01,-246.67 641.4,-248.23 643.59,-251.39"/>
</g>
<!-- pump_q -->
<g id="node6" class="node">
<title>pump_q</title>
<image xlink:href="_pump_trimmed.png" width="106px" height="105.045px" preserveAspectRatio="xMinYMin meet" x="494.5" y="-158.523"/>
<text xml:space="preserve" text-anchor="start" x="528.38" y="-40.5" font-family="Arial" font-weight="bold" font-size="10.00" fill="#111827">Pump Q</text>
<text xml:space="preserve" text-anchor="start" x="516.38" y="-27.4" font-family="Arial" font-size="8.00" fill="#1e40af">Na2S2O3, &#160;water</text>
<text xml:space="preserve" text-anchor="start" x="537.38" y="-15.65" font-family="Arial" font-size="8.00" fill="#374151">water</text>
<text xml:space="preserve" text-anchor="start" x="521.62" y="-3.95" font-family="Arial" font-weight="bold" font-size="9.00" fill="#2563eb">0.20 mL/min</text>
</g>
<!-- pump_q&#45;&gt;quench_mixer -->
<g id="edge6" class="edge">
<title>pump_q:e&#45;&gt;quench_mixer:sw</title>
<path fill="none" stroke="#27408b" stroke-width="2" d="M606.5,-106C606.5,-106 631.28,-122.34 643.67,-130.51"/>
<polygon fill="#27408b" stroke="#27408b" stroke-width="2" points="642.37,-131.96 648.03,-133.39 644.49,-128.75 642.37,-131.96"/>
</g>
<!-- collector_1 -->
<g id="node8" class="node">
<title>collector_1</title>
<image xlink:href="vial.png" width="104px" height="104px" preserveAspectRatio="xMinYMin meet" x="805.5" y="-250.25"/>
<text xml:space="preserve" text-anchor="start" x="820" y="-131.7" font-family="Arial" font-size="9.00" fill="#111827">Product Collection</text>
</g>
<!-- quench_mixer&#45;&gt;collector_1 -->
<g id="edge7" class="edge">
<title>quench_mixer:e&#45;&gt;collector_1:w</title>
<path fill="none" stroke="#27408b" stroke-width="2" d="M759.5,-190C759.5,-190 781.71,-190 794.21,-190"/>
<polygon fill="#27408b" stroke="#27408b" stroke-width="2" points="793.97,-191.93 799.47,-190 793.97,-188.08 793.97,-191.93"/>
</g>
</g>
</svg>
