<?xml version="1.0" encoding="UTF-8" standalone="no"?>
<!DOCTYPE svg PUBLIC "-//W3C//DTD SVG 1.1//EN"
 "http://www.w3.org/Graphics/SVG/1.1/DTD/svg11.dtd">
<!-- Generated by graphviz version 14.1.2 (20260126.1125)
 -->
<!-- Pages: 1 -->
<svg width="2736pt" height="1227pt"
 viewBox="0.00 0.00 2736.00 1227.00" xmlns="http://www.w3.org/2000/svg" xmlns:xlink="http://www.w3.org/1999/xlink">
<g id="graph0" class="graph" transform="scale(2.5 2.5) rotate(0) translate(14.4 476.27)">
<polygon fill="white" stroke="none" points="-14.4,14.4 -14.4,-476.27 1079.9,-476.27 1079.9,14.4 -14.4,14.4"/>
<text xml:space="preserve" text-anchor="start" x="382" y="-446.52" font-family="Arial" font-weight="bold" font-size="13.00" fill="#111827">Synthetic sulfur dioxide insertion sulfonylation</text>
<!-- pump_a -->
<g id="node1" class="node">
<title>pump_a</title>
<image xlink:href="_pump_trimmed.png" width="106px" height="105.045px" preserveAspectRatio="xMinYMin meet" x="2" y="-345.523"/>
<text xml:space="preserve" text-anchor="start" x="36.25" y="-227.5" font-family="Arial" font-weight="bold" font-size="10.00" fill="#111827">Pump A</text>
<text xml:space="preserve" text-anchor="start" x="12.25" y="-214.4" font-family="Arial" font-size="8.00" fill="#1e40af">aryllithium, &#160;THF solvent</text>
<text xml:space="preserve" text-anchor="start" x="46.75" y="-202.65" font-family="Arial" font-size="8.00" fill="#374151">THF</text>
<text xml:space="preserve" text-anchor="start" x="29.12" y="-190.95" font-family="Arial" font-weight="bold" font-size="9.00" fill="#2563eb">0.74 mL/min</text>
</g>
<!-- _pre_mixer_1 -->
<g id="node9" class="node">
<title>_pre_mixer_1</title>
<image xlink:href="mixer2.png" width="110px" height="110px" preserveAspectRatio="xMinYMin meet" x="159" y="-254"/>
</g>
<!-- pump_a&#45;&gt;_pre_mixer_1 -->
<g id="edge1" class="edge">
<title>pump_a:e&#45;&gt;_pre_mixer_1:nw</title>
<path fill="none" stroke="#27408b" stroke-width="2" d="M114,-293C114,-293 139.82,-270.11 151.93,-259.38"/>
<polygon fill="#27408b" stroke="#27408b" stroke-width="2" points="152.95,-261.04 155.79,-255.96 150.39,-258.16 152.95,-261.04"/>
</g>
<!-- pump_b_gas -->
<g id="node2" class="node">
<title>pump_b_gas</title>
<image xlink:href="_pump_trimmed.png" width="106px" height="105.045px" preserveAspectRatio="xMinYMin meet" x="2" y="-158.523"/>
<text xml:space="preserve" text-anchor="start" x="25" y="-40.5" font-family="Arial" font-weight="bold" font-size="10.00" fill="#111827">Pump B_gas</text>
<text xml:space="preserve" text-anchor="start" x="24.25" y="-27.4" font-family="Arial" font-size="8.00" fill="#1e40af">sulfur dioxide gas</text>
<text xml:space="preserve" text-anchor="start" x="46" y="-15.65" font-family="Arial" font-size="8.00" fill="#374151">none</text>
<text xml:space="preserve" text-anchor="start" x="29.12" y="-3.95" font-family="Arial" font-weight="bold" font-size="9.00" fill="#2563eb">0.03 mL/min</text>
</g>
<!-- pump_b_gas&#45;&gt;_pre_mixer_1 -->
<g id="edge2" class="edge">
<title>pump_b_gas:e&#45;&gt;_pre_mixer_1:sw</title>
<path fill="none" stroke="#27408b" stroke-width="2" d="M114,-106C114,-106 140.99,-128.31 153.65,-138.76"/>
<polygon fill="#27408b" stroke="#27408b" stroke-width="2" points="152.25,-140.1 157.72,-142.12 154.7,-137.14 152.25,-140.1"/>
</g>
<!-- pump_g -->
<g id="node3" class="node">
<title>pump_g</title>
<image xlink:href="mfc.png" width="106px" height="106px" preserveAspectRatio="xMinYMin meet" x="159" y="-435.875"/>
<text xml:space="preserve" text-anchor="start" x="195.88" y="-317.38" font-family="Arial" font-weight="bold" font-size="10.00" fill="#111827">MFC G</text>
<text xml:space="preserve" text-anchor="start" x="204.12" y="-304.27" font-family="Arial" font-size="8.00" fill="#dc2626">SO2</text>
<text xml:space="preserve" text-anchor="start" x="194" y="-292.52" font-family="Arial" font-size="8.00" fill="#374151">9.90 sccm</text>
<text xml:space="preserve" text-anchor="start" x="178.62" y="-281.73" font-family="Arial" font-size="7.00" fill="#6b7280">1.160 mL/min reactor</text>
</g>
<!-- mixer_1 -->
<g id="node4" class="node">
<title>mixer_1</title>
<image xlink:href="mixer3.png" width="110px" height="110px" preserveAspectRatio="xMinYMin meet" x="314" y="-318"/>
</g>
<!-- pump_g&#45;&gt;mixer_1 -->
<g id="edge4" class="edge">
<title>pump_g:e&#45;&gt;mixer_1:nw</title>
<path fill="none" stroke="#27408b" stroke-width="2" d="M271,-382.88C271,-382.88 298.31,-341.65 309.4,-324.9"/>
<polygon fill="#27408b" stroke="#27408b" stroke-width="2" points="310.9,-326.12 312.33,-320.47 307.69,-323.99 310.9,-326.12"/>
</g>
<!-- deoxy_1 -->
<g id="node5" class="node">
<title>deoxy_1</title>
<image xlink:href="degasser.png" width="104px" height="104px" preserveAspectRatio="xMinYMin meet" x="470" y="-323.25"/>
<text xml:space="preserve" text-anchor="start" x="502.12" y="-204.7" font-family="Arial" font-size="9.00" fill="#111827">Degasser</text>
</g>
<!-- mixer_1&#45;&gt;deoxy_1 -->
<g id="edge5" class="edge">
<title>mixer_1:e&#45;&gt;deoxy_1:w</title>
<path fill="none" stroke="#27408b" stroke-width="2" d="M424,-263C424,-263 446.21,-263 458.71,-263"/>
<polygon fill="#27408b" stroke="#27408b" stroke-width="2" points="458.47,-264.93 463.97,-263 458.47,-261.08 458.47,-264.93"/>
</g>
<!-- reactor_1 -->
<g id="node6" class="node">
<title>reactor_1</title>
<image xlink:href="coil_reactor.png" width="104px" height="104px" preserveAspectRatio="xMinYMin meet" x="637.75" y="-331.25"/>
<text xml:space="preserve" text-anchor="start" x="623" y="-212.7" font-family="Arial" font-size="9.00" fill="#111827">&#45;20.0°C &#160;· &#160;τ=9.6 min &#160;· &#160;V=7.1 mL</text>
</g>
<!-- deoxy_1&#45;&gt;reactor_1 -->
<g id="edge6" class="edge">
<title>deoxy_1:e&#45;&gt;reactor_1:w</title>
<path fill="none" stroke="#27408b" stroke-width="2" d="M577,-271.25C577,-271.25 599.21,-271.12 611.71,-271.05"/>
<polygon fill="#27408b" stroke="#27408b" stroke-width="2" points="611.48,-272.97 616.97,-271.02 611.46,-269.12 611.48,-272.97"/>
</g>
<!-- bpr_1 -->
<g id="node7" class="node">
<title>bpr_1</title>
<image xlink:href="bpr.png" width="104px" height="104px" preserveAspectRatio="xMinYMin meet" x="805.5" y="-347.5"/>
<text xml:space="preserve" text-anchor="start" x="848.12" y="-228.95" font-family="Arial" font-size="9.00" fill="#111827">BPR</text>
<text xml:space="preserve" text-anchor="start" x="844.75" y="-212.45" font-family="Arial" font-size="9.00" fill="#111827"> &#160;9 bar</text>
</g>
<!-- reactor_1&#45;&gt;bpr_1 -->
<g id="edge7" class="edge">
<title>reactor_1:e&#45;&gt;bpr_1:w</title>
<path fill="none" stroke="#27408b" stroke-width="2" d="M759.5,-279.25C759.5,-279.25 781.71,-279.12 794.21,-279.05"/>
<polygon fill="#27408b" stroke="#27408b" stroke-width="2" points="793.98,-280.97 799.47,-279.02 793.96,-277.12 793.98,-280.97"/>
</g>
<!-- collector_1 -->
<g id="node8" class="node">
<title>collector_1</title>
<image xlink:href="vial.png" width="104px" height="104px" preserveAspectRatio="xMinYMin meet" x="958.5" y="-355.25"/>
<text xml:space="preserve" text-anchor="start" x="973" y="-236.7" font-family="Arial" font-size="9.00" fill="#111827">Product Collection</text>
</g>
<!-- bpr_1&#45;&gt;collector_1 -->
<g id="edge8" class="edge">
<title>bpr_1:e&#45;&gt;collector_1:w</title>
<path fill="none" stroke="#27408b" stroke-width="2" d="M912.5,-295.5C912.5,-295.5 934.71,-295.24 947.21,-295.1"/>
<polygon fill="#27408b" stroke="#27408b" stroke-width="2" points="947,-297.02 952.47,-295.04 946.95,-293.17 947,-297.02"/>
</g>
<!-- _pre_mixer_1&#45;&gt;mixer_1 -->
<g id="edge3" class="edge">
<title>_pre_mixer_1:e&#45;&gt;mixer_1:w</title>
<path fill="none" stroke="#27408b" stroke-width="2" d="M270,-199C270,-199 297.94,-239.64 309.29,-256.15"/>
<polygon fill="#27408b" stroke="#27408b" stroke-width="2" points="307.58,-257.06 312.29,-260.51 310.76,-254.88 307.58,-257.06"/>
</g>
</g>
</svg>
