<?xml version="1.0" encoding="utf-8" standalone="no"?>
<!DOCTYPE svg PUBLIC "-//W3C//DTD SVG 1.1//EN"
  "http://www.w3.org/Graphics/SVG/1.1/DTD/svg11.dtd">
<svg xmlns:xlink="http://www.w3.org/1999/xlink" width="892.8pt" height="468pt" viewBox="0 0 892.8 468" xmlns="http://www.w3.org/2000/svg" version="1.1">
 <metadata>
  <rdf:RDF xmlns:dc="http://purl.org/dc/elements/1.1/" xmlns:cc="http://creativecommons.org/ns#" xmlns:rdf="http://www.w3.org/1999/02/22-rdf-syntax-ns#">
   <cc:Work>
    <dc:type rdf:resource="http://purl.org/dc/dcmitype/StillImage"/>
    <dc:date>2026-05-07T11:43:29.736525</dc:date>
    <dc:format>image/svg+xml</dc:format>
    <dc:creator>
     <cc:Agent>
      <dc:title>Matplotlib v3.10.8, https://matplotlib.org/</dc:title>
     </cc:Agent>
    </dc:creator>
   </cc:Work>
  </rdf:RDF>
 </metadata>
 <defs>
  <style type="text/css">*{stroke-linejoin: round; stroke-linecap: butt}</style>
 </defs>
 <g id="figure_1">
  <g id="patch_1">
   <path d="M 0 468 
L 892.8 468 
L 892.8 0 
L 0 0 
z
" style="fill: #ffffff"/>
  </g>
  <g id="axes_1">
   <g id="patch_2">
    <path d="M 39.58149 448.321635 
L 843.273802 448.321635 
L 843.273802 18.118365 
L 39.58149 18.118365 
z
" style="fill: #ffffff"/>
   </g>
   <g id="matplotlib.axis_1">
    <g id="xtick_1">
     <g id="line2d_1">
      <defs>
       <path id="ma7ab78efc9" d="M 0 0 
L 0 3.5 
" style="stroke: #000000; stroke-width: 0.8"/>
      </defs>
      <g>
       <use xlink:href="#ma7ab78efc9" x="76.112959" y="448.321635" style="stroke: #000000; stroke-width: 0.8"/>
      </g>
     </g>
     <g id="text_1">
      <!-- tau -->
      <g transform="translate(67.91999 462.920073) scale(0.1 -0.1)">
       <defs>
        <path id="DejaVuSans-74" d="M 1172 4494 
L 1172 3500 
L 2356 3500 
L 2356 3053 
L 1172 3053 
L 1172 1153 
Q 1172 725 1289 603 
Q 1406 481 1766 481 
L 2356 481 
L 2356 0 
L 1766 0 
Q 1100 0 847 248 
Q 594 497 594 1153 
L 594 3053 
L 172 3053 
L 172 3500 
L 594 3500 
L 594 4494 
L 1172 4494 
z
" transform="scale(0.015625)"/>
        <path id="DejaVuSans-61" d="M 2194 1759 
Q 1497 1759 1228 1600 
Q 959 1441 959 1056 
Q 959 750 1161 570 
Q 1363 391 1709 391 
Q 2188 391 2477 730 
Q 2766 1069 2766 1631 
L 2766 1759 
L 2194 1759 
z
M 3341 1997 
L 3341 0 
L 2766 0 
L 2766 531 
Q 2569 213 2275 61 
Q 1981 -91 1556 -91 
Q 1019 -91 701 211 
Q 384 513 384 1019 
Q 384 1609 779 1909 
Q 1175 2209 1959 2209 
L 2766 2209 
L 2766 2266 
Q 2766 2663 2505 2880 
Q 2244 3097 1772 3097 
Q 1472 3097 1187 3025 
Q 903 2953 641 2809 
L 641 3341 
Q 956 3463 1253 3523 
Q 1550 3584 1831 3584 
Q 2591 3584 2966 3190 
Q 3341 2797 3341 1997 
z
" transform="scale(0.015625)"/>
        <path id="DejaVuSans-75" d="M 544 1381 
L 544 3500 
L 1119 3500 
L 1119 1403 
Q 1119 906 1312 657 
Q 1506 409 1894 409 
Q 2359 409 2629 706 
Q 2900 1003 2900 1516 
L 2900 3500 
L 3475 3500 
L 3475 0 
L 2900 0 
L 2900 538 
Q 2691 219 2414 64 
Q 2138 -91 1772 -91 
Q 1169 -91 856 284 
Q 544 659 544 1381 
z
M 1991 3584 
L 1991 3584 
z
" transform="scale(0.015625)"/>
       </defs>
       <use xlink:href="#DejaVuSans-74"/>
       <use xlink:href="#DejaVuSans-61" transform="translate(39.208984 0)"/>
       <use xlink:href="#DejaVuSans-75" transform="translate(100.488281 0)"/>
      </g>
     </g>
    </g>
    <g id="xtick_2">
     <g id="line2d_2">
      <g>
       <use xlink:href="#ma7ab78efc9" x="222.238834" y="448.321635" style="stroke: #000000; stroke-width: 0.8"/>
      </g>
     </g>
     <g id="text_2">
      <!-- Q -->
      <g transform="translate(218.302896 462.920073) scale(0.1 -0.1)">
       <defs>
        <path id="DejaVuSans-51" d="M 2522 4238 
Q 1834 4238 1429 3725 
Q 1025 3213 1025 2328 
Q 1025 1447 1429 934 
Q 1834 422 2522 422 
Q 3209 422 3611 934 
Q 4013 1447 4013 2328 
Q 4013 3213 3611 3725 
Q 3209 4238 2522 4238 
z
M 3406 84 
L 4238 -825 
L 3475 -825 
L 2784 -78 
Q 2681 -84 2626 -87 
Q 2572 -91 2522 -91 
Q 1538 -91 948 567 
Q 359 1225 359 2328 
Q 359 3434 948 4092 
Q 1538 4750 2522 4750 
Q 3503 4750 4090 4092 
Q 4678 3434 4678 2328 
Q 4678 1516 4351 937 
Q 4025 359 3406 84 
z
" transform="scale(0.015625)"/>
       </defs>
       <use xlink:href="#DejaVuSans-51"/>
      </g>
     </g>
    </g>
    <g id="xtick_3">
     <g id="line2d_3">
      <g>
       <use xlink:href="#ma7ab78efc9" x="368.364708" y="448.321635" style="stroke: #000000; stroke-width: 0.8"/>
      </g>
     </g>
     <g id="text_3">
      <!-- ID -->
      <g transform="translate(363.039708 462.920073) scale(0.1 -0.1)">
       <defs>
        <path id="DejaVuSans-49" d="M 628 4666 
L 1259 4666 
L 1259 0 
L 628 0 
L 628 4666 
z
" transform="scale(0.015625)"/>
        <path id="DejaVuSans-44" d="M 1259 4147 
L 1259 519 
L 2022 519 
Q 2988 519 3436 956 
Q 3884 1394 3884 2338 
Q 3884 3275 3436 3711 
Q 2988 4147 2022 4147 
L 1259 4147 
z
M 628 4666 
L 1925 4666 
Q 3281 4666 3915 4102 
Q 4550 3538 4550 2338 
Q 4550 1131 3912 565 
Q 3275 0 1925 0 
L 628 0 
L 628 4666 
z
" transform="scale(0.015625)"/>
       </defs>
       <use xlink:href="#DejaVuSans-49"/>
       <use xlink:href="#DejaVuSans-44" transform="translate(29.492188 0)"/>
      </g>
     </g>
    </g>
    <g id="xtick_4">
     <g id="line2d_4">
      <g>
       <use xlink:href="#ma7ab78efc9" x="514.490583" y="448.321635" style="stroke: #000000; stroke-width: 0.8"/>
      </g>
     </g>
     <g id="text_4">
      <!-- V -->
      <g transform="translate(511.070271 462.920073) scale(0.1 -0.1)">
       <defs>
        <path id="DejaVuSans-56" d="M 1831 0 
L 50 4666 
L 709 4666 
L 2188 738 
L 3669 4666 
L 4325 4666 
L 2547 0 
L 1831 0 
z
" transform="scale(0.015625)"/>
       </defs>
       <use xlink:href="#DejaVuSans-56"/>
      </g>
     </g>
    </g>
    <g id="xtick_5">
     <g id="line2d_5">
      <g>
       <use xlink:href="#ma7ab78efc9" x="660.616458" y="448.321635" style="stroke: #000000; stroke-width: 0.8"/>
      </g>
     </g>
     <g id="text_5">
      <!-- L -->
      <g transform="translate(657.830521 462.920073) scale(0.1 -0.1)">
       <defs>
        <path id="DejaVuSans-4c" d="M 628 4666 
L 1259 4666 
L 1259 531 
L 3531 531 
L 3531 0 
L 628 0 
L 628 4666 
z
" transform="scale(0.015625)"/>
       </defs>
       <use xlink:href="#DejaVuSans-4c"/>
      </g>
     </g>
    </g>
    <g id="xtick_6">
     <g id="line2d_6">
      <g>
       <use xlink:href="#ma7ab78efc9" x="806.742333" y="448.321635" style="stroke: #000000; stroke-width: 0.8"/>
      </g>
     </g>
     <g id="text_6">
      <!-- prod -->
      <g transform="translate(795.391552 462.920073) scale(0.1 -0.1)">
       <defs>
        <path id="DejaVuSans-70" d="M 1159 525 
L 1159 -1331 
L 581 -1331 
L 581 3500 
L 1159 3500 
L 1159 2969 
Q 1341 3281 1617 3432 
Q 1894 3584 2278 3584 
Q 2916 3584 3314 3078 
Q 3713 2572 3713 1747 
Q 3713 922 3314 415 
Q 2916 -91 2278 -91 
Q 1894 -91 1617 61 
Q 1341 213 1159 525 
z
M 3116 1747 
Q 3116 2381 2855 2742 
Q 2594 3103 2138 3103 
Q 1681 3103 1420 2742 
Q 1159 2381 1159 1747 
Q 1159 1113 1420 752 
Q 1681 391 2138 391 
Q 2594 391 2855 752 
Q 3116 1113 3116 1747 
z
" transform="scale(0.015625)"/>
        <path id="DejaVuSans-72" d="M 2631 2963 
Q 2534 3019 2420 3045 
Q 2306 3072 2169 3072 
Q 1681 3072 1420 2755 
Q 1159 2438 1159 1844 
L 1159 0 
L 581 0 
L 581 3500 
L 1159 3500 
L 1159 2956 
Q 1341 3275 1631 3429 
Q 1922 3584 2338 3584 
Q 2397 3584 2469 3576 
Q 2541 3569 2628 3553 
L 2631 2963 
z
" transform="scale(0.015625)"/>
        <path id="DejaVuSans-6f" d="M 1959 3097 
Q 1497 3097 1228 2736 
Q 959 2375 959 1747 
Q 959 1119 1226 758 
Q 1494 397 1959 397 
Q 2419 397 2687 759 
Q 2956 1122 2956 1747 
Q 2956 2369 2687 2733 
Q 2419 3097 1959 3097 
z
M 1959 3584 
Q 2709 3584 3137 3096 
Q 3566 2609 3566 1747 
Q 3566 888 3137 398 
Q 2709 -91 1959 -91 
Q 1206 -91 779 398 
Q 353 888 353 1747 
Q 353 2609 779 3096 
Q 1206 3584 1959 3584 
z
" transform="scale(0.015625)"/>
        <path id="DejaVuSans-64" d="M 2906 2969 
L 2906 4863 
L 3481 4863 
L 3481 0 
L 2906 0 
L 2906 525 
Q 2725 213 2448 61 
Q 2172 -91 1784 -91 
Q 1150 -91 751 415 
Q 353 922 353 1747 
Q 353 2572 751 3078 
Q 1150 3584 1784 3584 
Q 2172 3584 2448 3432 
Q 2725 3281 2906 2969 
z
M 947 1747 
Q 947 1113 1208 752 
Q 1469 391 1925 391 
Q 2381 391 2643 752 
Q 2906 1113 2906 1747 
Q 2906 2381 2643 2742 
Q 2381 3103 1925 3103 
Q 1469 3103 1208 2742 
Q 947 2381 947 1747 
z
" transform="scale(0.015625)"/>
       </defs>
       <use xlink:href="#DejaVuSans-70"/>
       <use xlink:href="#DejaVuSans-72" transform="translate(63.476562 0)"/>
       <use xlink:href="#DejaVuSans-6f" transform="translate(102.339844 0)"/>
       <use xlink:href="#DejaVuSans-64" transform="translate(163.521484 0)"/>
      </g>
     </g>
    </g>
   </g>
   <g id="matplotlib.axis_2">
    <g id="ytick_1">
     <g id="line2d_7">
      <path d="M 39.58149 428.766941 
L 843.273802 428.766941 
" clip-path="url(#p20d7e549bd)" style="fill: none; stroke: #b0b0b0; stroke-opacity: 0.25; stroke-width: 0.8; stroke-linecap: square"/>
     </g>
     <g id="line2d_8">
      <defs>
       <path id="m733a7c7f86" d="M 0 0 
L -3.5 0 
" style="stroke: #000000; stroke-width: 0.8"/>
      </defs>
      <g>
       <use xlink:href="#m733a7c7f86" x="39.58149" y="428.766941" style="stroke: #000000; stroke-width: 0.8"/>
      </g>
     </g>
     <g id="text_7">
      <!-- 0.0 -->
      <g transform="translate(16.678365 432.56616) scale(0.1 -0.1)">
       <defs>
        <path id="DejaVuSans-30" d="M 2034 4250 
Q 1547 4250 1301 3770 
Q 1056 3291 1056 2328 
Q 1056 1369 1301 889 
Q 1547 409 2034 409 
Q 2525 409 2770 889 
Q 3016 1369 3016 2328 
Q 3016 3291 2770 3770 
Q 2525 4250 2034 4250 
z
M 2034 4750 
Q 2819 4750 3233 4129 
Q 3647 3509 3647 2328 
Q 3647 1150 3233 529 
Q 2819 -91 2034 -91 
Q 1250 -91 836 529 
Q 422 1150 422 2328 
Q 422 3509 836 4129 
Q 1250 4750 2034 4750 
z
" transform="scale(0.015625)"/>
        <path id="DejaVuSans-2e" d="M 684 794 
L 1344 794 
L 1344 0 
L 684 0 
L 684 794 
z
" transform="scale(0.015625)"/>
       </defs>
       <use xlink:href="#DejaVuSans-30"/>
       <use xlink:href="#DejaVuSans-2e" transform="translate(63.623047 0)"/>
       <use xlink:href="#DejaVuSans-30" transform="translate(95.410156 0)"/>
      </g>
     </g>
    </g>
    <g id="ytick_2">
     <g id="line2d_9">
      <path d="M 39.58149 350.548165 
L 843.273802 350.548165 
" clip-path="url(#p20d7e549bd)" style="fill: none; stroke: #b0b0b0; stroke-opacity: 0.25; stroke-width: 0.8; stroke-linecap: square"/>
     </g>
     <g id="line2d_10">
      <g>
       <use xlink:href="#m733a7c7f86" x="39.58149" y="350.548165" style="stroke: #000000; stroke-width: 0.8"/>
      </g>
     </g>
     <g id="text_8">
      <!-- 0.2 -->
      <g transform="translate(16.678365 354.347383) scale(0.1 -0.1)">
       <defs>
        <path id="DejaVuSans-32" d="M 1228 531 
L 3431 531 
L 3431 0 
L 469 0 
L 469 531 
Q 828 903 1448 1529 
Q 2069 2156 2228 2338 
Q 2531 2678 2651 2914 
Q 2772 3150 2772 3378 
Q 2772 3750 2511 3984 
Q 2250 4219 1831 4219 
Q 1534 4219 1204 4116 
Q 875 4013 500 3803 
L 500 4441 
Q 881 4594 1212 4672 
Q 1544 4750 1819 4750 
Q 2544 4750 2975 4387 
Q 3406 4025 3406 3419 
Q 3406 3131 3298 2873 
Q 3191 2616 2906 2266 
Q 2828 2175 2409 1742 
Q 1991 1309 1228 531 
z
" transform="scale(0.015625)"/>
       </defs>
       <use xlink:href="#DejaVuSans-30"/>
       <use xlink:href="#DejaVuSans-2e" transform="translate(63.623047 0)"/>
       <use xlink:href="#DejaVuSans-32" transform="translate(95.410156 0)"/>
      </g>
     </g>
    </g>
    <g id="ytick_3">
     <g id="line2d_11">
      <path d="M 39.58149 272.329388 
L 843.273802 272.329388 
" clip-path="url(#p20d7e549bd)" style="fill: none; stroke: #b0b0b0; stroke-opacity: 0.25; stroke-width: 0.8; stroke-linecap: square"/>
     </g>
     <g id="line2d_12">
      <g>
       <use xlink:href="#m733a7c7f86" x="39.58149" y="272.329388" style="stroke: #000000; stroke-width: 0.8"/>
      </g>
     </g>
     <g id="text_9">
      <!-- 0.4 -->
      <g transform="translate(16.678365 276.128607) scale(0.1 -0.1)">
       <defs>
        <path id="DejaVuSans-34" d="M 2419 4116 
L 825 1625 
L 2419 1625 
L 2419 4116 
z
M 2253 4666 
L 3047 4666 
L 3047 1625 
L 3713 1625 
L 3713 1100 
L 3047 1100 
L 3047 0 
L 2419 0 
L 2419 1100 
L 313 1100 
L 313 1709 
L 2253 4666 
z
" transform="scale(0.015625)"/>
       </defs>
       <use xlink:href="#DejaVuSans-30"/>
       <use xlink:href="#DejaVuSans-2e" transform="translate(63.623047 0)"/>
       <use xlink:href="#DejaVuSans-34" transform="translate(95.410156 0)"/>
      </g>
     </g>
    </g>
    <g id="ytick_4">
     <g id="line2d_13">
      <path d="M 39.58149 194.110612 
L 843.273802 194.110612 
" clip-path="url(#p20d7e549bd)" style="fill: none; stroke: #b0b0b0; stroke-opacity: 0.25; stroke-width: 0.8; stroke-linecap: square"/>
     </g>
     <g id="line2d_14">
      <g>
       <use xlink:href="#m733a7c7f86" x="39.58149" y="194.110612" style="stroke: #000000; stroke-width: 0.8"/>
      </g>
     </g>
     <g id="text_10">
      <!-- 0.6 -->
      <g transform="translate(16.678365 197.909831) scale(0.1 -0.1)">
       <defs>
        <path id="DejaVuSans-36" d="M 2113 2584 
Q 1688 2584 1439 2293 
Q 1191 2003 1191 1497 
Q 1191 994 1439 701 
Q 1688 409 2113 409 
Q 2538 409 2786 701 
Q 3034 994 3034 1497 
Q 3034 2003 2786 2293 
Q 2538 2584 2113 2584 
z
M 3366 4563 
L 3366 3988 
Q 3128 4100 2886 4159 
Q 2644 4219 2406 4219 
Q 1781 4219 1451 3797 
Q 1122 3375 1075 2522 
Q 1259 2794 1537 2939 
Q 1816 3084 2150 3084 
Q 2853 3084 3261 2657 
Q 3669 2231 3669 1497 
Q 3669 778 3244 343 
Q 2819 -91 2113 -91 
Q 1303 -91 875 529 
Q 447 1150 447 2328 
Q 447 3434 972 4092 
Q 1497 4750 2381 4750 
Q 2619 4750 2861 4703 
Q 3103 4656 3366 4563 
z
" transform="scale(0.015625)"/>
       </defs>
       <use xlink:href="#DejaVuSans-30"/>
       <use xlink:href="#DejaVuSans-2e" transform="translate(63.623047 0)"/>
       <use xlink:href="#DejaVuSans-36" transform="translate(95.410156 0)"/>
      </g>
     </g>
    </g>
    <g id="ytick_5">
     <g id="line2d_15">
      <path d="M 39.58149 115.891835 
L 843.273802 115.891835 
" clip-path="url(#p20d7e549bd)" style="fill: none; stroke: #b0b0b0; stroke-opacity: 0.25; stroke-width: 0.8; stroke-linecap: square"/>
     </g>
     <g id="line2d_16">
      <g>
       <use xlink:href="#m733a7c7f86" x="39.58149" y="115.891835" style="stroke: #000000; stroke-width: 0.8"/>
      </g>
     </g>
     <g id="text_11">
      <!-- 0.8 -->
      <g transform="translate(16.678365 119.691054) scale(0.1 -0.1)">
       <defs>
        <path id="DejaVuSans-38" d="M 2034 2216 
Q 1584 2216 1326 1975 
Q 1069 1734 1069 1313 
Q 1069 891 1326 650 
Q 1584 409 2034 409 
Q 2484 409 2743 651 
Q 3003 894 3003 1313 
Q 3003 1734 2745 1975 
Q 2488 2216 2034 2216 
z
M 1403 2484 
Q 997 2584 770 2862 
Q 544 3141 544 3541 
Q 544 4100 942 4425 
Q 1341 4750 2034 4750 
Q 2731 4750 3128 4425 
Q 3525 4100 3525 3541 
Q 3525 3141 3298 2862 
Q 3072 2584 2669 2484 
Q 3125 2378 3379 2068 
Q 3634 1759 3634 1313 
Q 3634 634 3220 271 
Q 2806 -91 2034 -91 
Q 1263 -91 848 271 
Q 434 634 434 1313 
Q 434 1759 690 2068 
Q 947 2378 1403 2484 
z
M 1172 3481 
Q 1172 3119 1398 2916 
Q 1625 2713 2034 2713 
Q 2441 2713 2670 2916 
Q 2900 3119 2900 3481 
Q 2900 3844 2670 4047 
Q 2441 4250 2034 4250 
Q 1625 4250 1398 4047 
Q 1172 3844 1172 3481 
z
" transform="scale(0.015625)"/>
       </defs>
       <use xlink:href="#DejaVuSans-30"/>
       <use xlink:href="#DejaVuSans-2e" transform="translate(63.623047 0)"/>
       <use xlink:href="#DejaVuSans-38" transform="translate(95.410156 0)"/>
      </g>
     </g>
    </g>
    <g id="ytick_6">
     <g id="line2d_17">
      <path d="M 39.58149 37.673059 
L 843.273802 37.673059 
" clip-path="url(#p20d7e549bd)" style="fill: none; stroke: #b0b0b0; stroke-opacity: 0.25; stroke-width: 0.8; stroke-linecap: square"/>
     </g>
     <g id="line2d_18">
      <g>
       <use xlink:href="#m733a7c7f86" x="39.58149" y="37.673059" style="stroke: #000000; stroke-width: 0.8"/>
      </g>
     </g>
     <g id="text_12">
      <!-- 1.0 -->
      <g transform="translate(16.678365 41.472278) scale(0.1 -0.1)">
       <defs>
        <path id="DejaVuSans-31" d="M 794 531 
L 1825 531 
L 1825 4091 
L 703 3866 
L 703 4441 
L 1819 4666 
L 2450 4666 
L 2450 531 
L 3481 531 
L 3481 0 
L 794 0 
L 794 531 
z
" transform="scale(0.015625)"/>
       </defs>
       <use xlink:href="#DejaVuSans-31"/>
       <use xlink:href="#DejaVuSans-2e" transform="translate(63.623047 0)"/>
       <use xlink:href="#DejaVuSans-30" transform="translate(95.410156 0)"/>
      </g>
     </g>
    </g>
    <g id="text_13">
     <!-- Log-min-max normalized value -->
     <g transform="translate(10.598678 310.70125) rotate(-90) scale(0.1 -0.1)">
      <defs>
       <path id="DejaVuSans-67" d="M 2906 1791 
Q 2906 2416 2648 2759 
Q 2391 3103 1925 3103 
Q 1463 3103 1205 2759 
Q 947 2416 947 1791 
Q 947 1169 1205 825 
Q 1463 481 1925 481 
Q 2391 481 2648 825 
Q 2906 1169 2906 1791 
z
M 3481 434 
Q 3481 -459 3084 -895 
Q 2688 -1331 1869 -1331 
Q 1566 -1331 1297 -1286 
Q 1028 -1241 775 -1147 
L 775 -588 
Q 1028 -725 1275 -790 
Q 1522 -856 1778 -856 
Q 2344 -856 2625 -561 
Q 2906 -266 2906 331 
L 2906 616 
Q 2728 306 2450 153 
Q 2172 0 1784 0 
Q 1141 0 747 490 
Q 353 981 353 1791 
Q 353 2603 747 3093 
Q 1141 3584 1784 3584 
Q 2172 3584 2450 3431 
Q 2728 3278 2906 2969 
L 2906 3500 
L 3481 3500 
L 3481 434 
z
" transform="scale(0.015625)"/>
       <path id="DejaVuSans-2d" d="M 313 2009 
L 1997 2009 
L 1997 1497 
L 313 1497 
L 313 2009 
z
" transform="scale(0.015625)"/>
       <path id="DejaVuSans-6d" d="M 3328 2828 
Q 3544 3216 3844 3400 
Q 4144 3584 4550 3584 
Q 5097 3584 5394 3201 
Q 5691 2819 5691 2113 
L 5691 0 
L 5113 0 
L 5113 2094 
Q 5113 2597 4934 2840 
Q 4756 3084 4391 3084 
Q 3944 3084 3684 2787 
Q 3425 2491 3425 1978 
L 3425 0 
L 2847 0 
L 2847 2094 
Q 2847 2600 2669 2842 
Q 2491 3084 2119 3084 
Q 1678 3084 1418 2786 
Q 1159 2488 1159 1978 
L 1159 0 
L 581 0 
L 581 3500 
L 1159 3500 
L 1159 2956 
Q 1356 3278 1631 3431 
Q 1906 3584 2284 3584 
Q 2666 3584 2933 3390 
Q 3200 3197 3328 2828 
z
" transform="scale(0.015625)"/>
       <path id="DejaVuSans-69" d="M 603 3500 
L 1178 3500 
L 1178 0 
L 603 0 
L 603 3500 
z
M 603 4863 
L 1178 4863 
L 1178 4134 
L 603 4134 
L 603 4863 
z
" transform="scale(0.015625)"/>
       <path id="DejaVuSans-6e" d="M 3513 2113 
L 3513 0 
L 2938 0 
L 2938 2094 
Q 2938 2591 2744 2837 
Q 2550 3084 2163 3084 
Q 1697 3084 1428 2787 
Q 1159 2491 1159 1978 
L 1159 0 
L 581 0 
L 581 3500 
L 1159 3500 
L 1159 2956 
Q 1366 3272 1645 3428 
Q 1925 3584 2291 3584 
Q 2894 3584 3203 3211 
Q 3513 2838 3513 2113 
z
" transform="scale(0.015625)"/>
       <path id="DejaVuSans-78" d="M 3513 3500 
L 2247 1797 
L 3578 0 
L 2900 0 
L 1881 1375 
L 863 0 
L 184 0 
L 1544 1831 
L 300 3500 
L 978 3500 
L 1906 2253 
L 2834 3500 
L 3513 3500 
z
" transform="scale(0.015625)"/>
       <path id="DejaVuSans-20" transform="scale(0.015625)"/>
       <path id="DejaVuSans-6c" d="M 603 4863 
L 1178 4863 
L 1178 0 
L 603 0 
L 603 4863 
z
" transform="scale(0.015625)"/>
       <path id="DejaVuSans-7a" d="M 353 3500 
L 3084 3500 
L 3084 2975 
L 922 459 
L 3084 459 
L 3084 0 
L 275 0 
L 275 525 
L 2438 3041 
L 353 3041 
L 353 3500 
z
" transform="scale(0.015625)"/>
       <path id="DejaVuSans-65" d="M 3597 1894 
L 3597 1613 
L 953 1613 
Q 991 1019 1311 708 
Q 1631 397 2203 397 
Q 2534 397 2845 478 
Q 3156 559 3463 722 
L 3463 178 
Q 3153 47 2828 -22 
Q 2503 -91 2169 -91 
Q 1331 -91 842 396 
Q 353 884 353 1716 
Q 353 2575 817 3079 
Q 1281 3584 2069 3584 
Q 2775 3584 3186 3129 
Q 3597 2675 3597 1894 
z
M 3022 2063 
Q 3016 2534 2758 2815 
Q 2500 3097 2075 3097 
Q 1594 3097 1305 2825 
Q 1016 2553 972 2059 
L 3022 2063 
z
" transform="scale(0.015625)"/>
       <path id="DejaVuSans-76" d="M 191 3500 
L 800 3500 
L 1894 563 
L 2988 3500 
L 3597 3500 
L 2284 0 
L 1503 0 
L 191 3500 
z
" transform="scale(0.015625)"/>
      </defs>
      <use xlink:href="#DejaVuSans-4c"/>
      <use xlink:href="#DejaVuSans-6f" transform="translate(53.962891 0)"/>
      <use xlink:href="#DejaVuSans-67" transform="translate(115.144531 0)"/>
      <use xlink:href="#DejaVuSans-2d" transform="translate(178.621094 0)"/>
      <use xlink:href="#DejaVuSans-6d" transform="translate(214.705078 0)"/>
      <use xlink:href="#DejaVuSans-69" transform="translate(312.117188 0)"/>
      <use xlink:href="#DejaVuSans-6e" transform="translate(339.900391 0)"/>
      <use xlink:href="#DejaVuSans-2d" transform="translate(403.279297 0)"/>
      <use xlink:href="#DejaVuSans-6d" transform="translate(439.363281 0)"/>
      <use xlink:href="#DejaVuSans-61" transform="translate(536.775391 0)"/>
      <use xlink:href="#DejaVuSans-78" transform="translate(598.054688 0)"/>
      <use xlink:href="#DejaVuSans-20" transform="translate(657.234375 0)"/>
      <use xlink:href="#DejaVuSans-6e" transform="translate(689.021484 0)"/>
      <use xlink:href="#DejaVuSans-6f" transform="translate(752.400391 0)"/>
      <use xlink:href="#DejaVuSans-72" transform="translate(813.582031 0)"/>
      <use xlink:href="#DejaVuSans-6d" transform="translate(852.945312 0)"/>
      <use xlink:href="#DejaVuSans-61" transform="translate(950.357422 0)"/>
      <use xlink:href="#DejaVuSans-6c" transform="translate(1011.636719 0)"/>
      <use xlink:href="#DejaVuSans-69" transform="translate(1039.419922 0)"/>
      <use xlink:href="#DejaVuSans-7a" transform="translate(1067.203125 0)"/>
      <use xlink:href="#DejaVuSans-65" transform="translate(1119.693359 0)"/>
      <use xlink:href="#DejaVuSans-64" transform="translate(1181.216797 0)"/>
      <use xlink:href="#DejaVuSans-20" transform="translate(1244.693359 0)"/>
      <use xlink:href="#DejaVuSans-76" transform="translate(1276.480469 0)"/>
      <use xlink:href="#DejaVuSans-61" transform="translate(1335.660156 0)"/>
      <use xlink:href="#DejaVuSans-6c" transform="translate(1396.939453 0)"/>
      <use xlink:href="#DejaVuSans-75" transform="translate(1424.722656 0)"/>
      <use xlink:href="#DejaVuSans-65" transform="translate(1488.101562 0)"/>
     </g>
    </g>
   </g>
   <g id="line2d_19">
    <path d="M 76.112959 411.599113 
L 222.238834 136.797268 
L 368.364708 428.766941 
L 514.490583 281.048851 
L 660.616458 190.381672 
L 806.742333 136.762005 
" clip-path="url(#p20d7e549bd)" style="fill: none; stroke: #355070; stroke-opacity: 0.46; stroke-width: 1.3; stroke-linecap: square"/>
   </g>
   <g id="line2d_20">
    <path d="M 76.112959 428.766941 
L 222.238834 135.814615 
L 368.364708 428.766941 
L 514.490583 296.129205 
L 660.616458 203.755638 
L 806.742333 135.779702 
" clip-path="url(#p20d7e549bd)" style="fill: none; stroke: #355070; stroke-opacity: 0.46; stroke-width: 1.3; stroke-linecap: square"/>
   </g>
   <g id="line2d_21">
    <path d="M 76.112959 411.599113 
L 222.238834 37.673059 
L 368.364708 37.673059 
L 514.490583 188.369995 
L 660.616458 289.285268 
L 806.742333 37.673059 
" clip-path="url(#p20d7e549bd)" style="fill: none; stroke: #355070; stroke-opacity: 0.46; stroke-width: 1.3; stroke-linecap: square"/>
   </g>
   <g id="line2d_22">
    <path d="M 76.112959 428.766941 
L 222.238834 135.814615 
L 368.364708 292.434729 
L 514.490583 296.129205 
L 660.616458 266.884108 
L 806.742333 135.779702 
" clip-path="url(#p20d7e549bd)" style="fill: none; stroke: #355070; stroke-opacity: 0.46; stroke-width: 1.3; stroke-linecap: square"/>
   </g>
   <g id="line2d_23">
    <path d="M 76.112959 428.766941 
L 222.238834 119.680464 
L 368.364708 428.766941 
L 514.490583 281.048851 
L 660.616458 190.381672 
L 806.742333 119.65129 
" clip-path="url(#p20d7e549bd)" style="fill: none; stroke: #b56576; stroke-opacity: 0.46; stroke-width: 1.3; stroke-linecap: square"/>
   </g>
   <g id="line2d_24">
    <path d="M 76.112959 428.766941 
L 222.238834 135.814615 
L 368.364708 428.766941 
L 514.490583 296.129205 
L 660.616458 203.755638 
L 806.742333 135.779702 
" clip-path="url(#p20d7e549bd)" style="fill: none; stroke: #b56576; stroke-opacity: 0.46; stroke-width: 1.3; stroke-linecap: square"/>
   </g>
   <g id="line2d_25">
    <path d="M 76.112959 428.766941 
L 222.238834 119.680464 
L 368.364708 292.434729 
L 514.490583 281.048851 
L 660.616458 253.510141 
L 806.742333 119.65129 
" clip-path="url(#p20d7e549bd)" style="fill: none; stroke: #b56576; stroke-opacity: 0.46; stroke-width: 1.3; stroke-linecap: square"/>
   </g>
   <g id="line2d_26">
    <path d="M 76.112959 419.792309 
L 222.238834 144.762573 
L 368.364708 292.434729 
L 514.490583 296.129205 
L 660.616458 266.884108 
L 806.742333 144.724477 
" clip-path="url(#p20d7e549bd)" style="fill: none; stroke: #b56576; stroke-opacity: 0.46; stroke-width: 1.3; stroke-linecap: square"/>
   </g>
   <g id="line2d_27">
    <path d="M 76.112959 264.058155 
L 222.238834 307.859957 
L 368.364708 292.434729 
L 514.490583 303.45488 
L 660.616458 273.38086 
L 806.742333 307.763841 
" clip-path="url(#p20d7e549bd)" style="fill: none; stroke: #9d4edd; stroke-opacity: 0.46; stroke-width: 1.3; stroke-linecap: square"/>
   </g>
   <g id="line2d_28">
    <path d="M 76.112959 277.218469 
L 222.238834 286.907362 
L 368.364708 428.766941 
L 514.490583 296.129205 
L 660.616458 203.755638 
L 806.742333 286.818699 
" clip-path="url(#p20d7e549bd)" style="fill: none; stroke: #9d4edd; stroke-opacity: 0.46; stroke-width: 1.3; stroke-linecap: square"/>
   </g>
   <g id="line2d_29">
    <path d="M 76.112959 342.486843 
L 222.238834 151.688553 
L 368.364708 428.766941 
L 514.490583 230.541714 
L 660.616458 145.589571 
L 806.742333 151.647993 
" clip-path="url(#p20d7e549bd)" style="fill: none; stroke: #9d4edd; stroke-opacity: 0.46; stroke-width: 1.3; stroke-linecap: square"/>
   </g>
   <g id="line2d_30">
    <path d="M 76.112959 352.407838 
L 222.238834 157.931268 
L 368.364708 195.705485 
L 514.490583 245.631791 
L 660.616458 266.890991 
L 806.742333 157.888487 
" clip-path="url(#p20d7e549bd)" style="fill: none; stroke: #9d4edd; stroke-opacity: 0.46; stroke-width: 1.3; stroke-linecap: square"/>
   </g>
   <g id="line2d_31">
    <path d="M 76.112959 211.480456 
L 222.238834 273.836411 
L 368.364708 428.766941 
L 514.490583 222.627384 
L 660.616458 138.570771 
L 806.742333 273.752398 
" clip-path="url(#p20d7e549bd)" style="fill: none; stroke: #f4a261; stroke-opacity: 0.46; stroke-width: 1.3; stroke-linecap: square"/>
   </g>
   <g id="line2d_32">
    <path d="M 76.112959 263.894536 
L 222.238834 141.797359 
L 368.364708 428.766941 
L 514.490583 148.069442 
L 660.616458 72.449287 
L 806.742333 141.760318 
" clip-path="url(#p20d7e549bd)" style="fill: none; stroke: #f4a261; stroke-opacity: 0.46; stroke-width: 1.3; stroke-linecap: square"/>
   </g>
   <g id="line2d_33">
    <path d="M 76.112959 37.673059 
L 222.238834 249.316166 
L 368.364708 292.434729 
L 514.490583 37.673059 
L 660.616458 37.673059 
L 806.742333 249.240876 
" clip-path="url(#p20d7e549bd)" style="fill: none; stroke: #f4a261; stroke-opacity: 0.46; stroke-width: 1.3; stroke-linecap: square"/>
   </g>
   <g id="line2d_34">
    <path d="M 76.112959 314.928382 
L 222.238834 249.316166 
L 368.364708 292.434729 
L 514.490583 296.129205 
L 660.616458 266.884108 
L 806.742333 249.240876 
" clip-path="url(#p20d7e549bd)" style="fill: none; stroke: #f4a261; stroke-opacity: 0.46; stroke-width: 1.3; stroke-linecap: square"/>
   </g>
   <g id="patch_3">
    <path d="M 39.58149 448.321635 
L 39.58149 18.118365 
" style="fill: none; stroke: #000000; stroke-width: 0.8; stroke-linejoin: miter; stroke-linecap: square"/>
   </g>
   <g id="patch_4">
    <path d="M 843.273802 448.321635 
L 843.273802 18.118365 
" style="fill: none; stroke: #000000; stroke-width: 0.8; stroke-linejoin: miter; stroke-linecap: square"/>
   </g>
   <g id="patch_5">
    <path d="M 39.58149 448.321635 
L 843.273802 448.321635 
" style="fill: none; stroke: #000000; stroke-width: 0.8; stroke-linejoin: miter; stroke-linecap: square"/>
   </g>
   <g id="patch_6">
    <path d="M 39.58149 18.118365 
L 843.273802 18.118365 
" style="fill: none; stroke: #000000; stroke-width: 0.8; stroke-linejoin: miter; stroke-linecap: square"/>
   </g>
   <g id="PathCollection_1">
    <defs>
     <path id="C0_0_cabd9e0e06" d="M 0 2.236068 
C 0.593012 2.236068 1.161816 2.000462 1.581139 1.581139 
C 2.000462 1.161816 2.236068 0.593012 2.236068 -0 
C 2.236068 -0.593012 2.000462 -1.161816 1.581139 -1.581139 
C 1.161816 -2.000462 0.593012 -2.236068 0 -2.236068 
C -0.593012 -2.236068 -1.161816 -2.000462 -1.581139 -1.581139 
C -2.000462 -1.161816 -2.236068 -0.593012 -2.236068 0 
C -2.236068 0.593012 -2.000462 1.161816 -1.581139 1.581139 
C -1.161816 2.000462 -0.593012 2.236068 0 2.236068 
z
"/>
    </defs>
    <g clip-path="url(#p20d7e549bd)">
     <use xlink:href="#C0_0_cabd9e0e06" x="76.112959" y="411.599113" style="fill: #355070"/>
    </g>
    <g clip-path="url(#p20d7e549bd)">
     <use xlink:href="#C0_0_cabd9e0e06" x="222.238834" y="136.797268" style="fill: #355070"/>
    </g>
    <g clip-path="url(#p20d7e549bd)">
     <use xlink:href="#C0_0_cabd9e0e06" x="368.364708" y="428.766941" style="fill: #355070"/>
    </g>
    <g clip-path="url(#p20d7e549bd)">
     <use xlink:href="#C0_0_cabd9e0e06" x="514.490583" y="281.048851" style="fill: #355070"/>
    </g>
    <g clip-path="url(#p20d7e549bd)">
     <use xlink:href="#C0_0_cabd9e0e06" x="660.616458" y="190.381672" style="fill: #355070"/>
    </g>
    <g clip-path="url(#p20d7e549bd)">
     <use xlink:href="#C0_0_cabd9e0e06" x="806.742333" y="136.762005" style="fill: #355070"/>
    </g>
   </g>
   <g id="PathCollection_2">
    <defs>
     <path id="C1_0_477ead33a1" d="M 0 2.236068 
C 0.593012 2.236068 1.161816 2.000462 1.581139 1.581139 
C 2.000462 1.161816 2.236068 0.593012 2.236068 -0 
C 2.236068 -0.593012 2.000462 -1.161816 1.581139 -1.581139 
C 1.161816 -2.000462 0.593012 -2.236068 0 -2.236068 
C -0.593012 -2.236068 -1.161816 -2.000462 -1.581139 -1.581139 
C -2.000462 -1.161816 -2.236068 -0.593012 -2.236068 0 
C -2.236068 0.593012 -2.000462 1.161816 -1.581139 1.581139 
C -1.161816 2.000462 -0.593012 2.236068 0 2.236068 
z
"/>
    </defs>
    <g clip-path="url(#p20d7e549bd)">
     <use xlink:href="#C1_0_477ead33a1" x="76.112959" y="428.766941" style="fill: #355070"/>
    </g>
    <g clip-path="url(#p20d7e549bd)">
     <use xlink:href="#C1_0_477ead33a1" x="222.238834" y="135.814615" style="fill: #355070"/>
    </g>
    <g clip-path="url(#p20d7e549bd)">
     <use xlink:href="#C1_0_477ead33a1" x="368.364708" y="428.766941" style="fill: #355070"/>
    </g>
    <g clip-path="url(#p20d7e549bd)">
     <use xlink:href="#C1_0_477ead33a1" x="514.490583" y="296.129205" style="fill: #355070"/>
    </g>
    <g clip-path="url(#p20d7e549bd)">
     <use xlink:href="#C1_0_477ead33a1" x="660.616458" y="203.755638" style="fill: #355070"/>
    </g>
    <g clip-path="url(#p20d7e549bd)">
     <use xlink:href="#C1_0_477ead33a1" x="806.742333" y="135.779702" style="fill: #355070"/>
    </g>
   </g>
   <g id="PathCollection_3">
    <defs>
     <path id="C2_0_dfc014c6b1" d="M 0 2.236068 
C 0.593012 2.236068 1.161816 2.000462 1.581139 1.581139 
C 2.000462 1.161816 2.236068 0.593012 2.236068 -0 
C 2.236068 -0.593012 2.000462 -1.161816 1.581139 -1.581139 
C 1.161816 -2.000462 0.593012 -2.236068 0 -2.236068 
C -0.593012 -2.236068 -1.161816 -2.000462 -1.581139 -1.581139 
C -2.000462 -1.161816 -2.236068 -0.593012 -2.236068 0 
C -2.236068 0.593012 -2.000462 1.161816 -1.581139 1.581139 
C -1.161816 2.000462 -0.593012 2.236068 0 2.236068 
z
"/>
    </defs>
    <g clip-path="url(#p20d7e549bd)">
     <use xlink:href="#C2_0_dfc014c6b1" x="76.112959" y="411.599113" style="fill: #355070"/>
    </g>
    <g clip-path="url(#p20d7e549bd)">
     <use xlink:href="#C2_0_dfc014c6b1" x="222.238834" y="37.673059" style="fill: #355070"/>
    </g>
    <g clip-path="url(#p20d7e549bd)">
     <use xlink:href="#C2_0_dfc014c6b1" x="368.364708" y="37.673059" style="fill: #355070"/>
    </g>
    <g clip-path="url(#p20d7e549bd)">
     <use xlink:href="#C2_0_dfc014c6b1" x="514.490583" y="188.369995" style="fill: #355070"/>
    </g>
    <g clip-path="url(#p20d7e549bd)">
     <use xlink:href="#C2_0_dfc014c6b1" x="660.616458" y="289.285268" style="fill: #355070"/>
    </g>
    <g clip-path="url(#p20d7e549bd)">
     <use xlink:href="#C2_0_dfc014c6b1" x="806.742333" y="37.673059" style="fill: #355070"/>
    </g>
   </g>
   <g id="PathCollection_4">
    <defs>
     <path id="C3_0_51400000f7" d="M 0 2.236068 
C 0.593012 2.236068 1.161816 2.000462 1.581139 1.581139 
C 2.000462 1.161816 2.236068 0.593012 2.236068 -0 
C 2.236068 -0.593012 2.000462 -1.161816 1.581139 -1.581139 
C 1.161816 -2.000462 0.593012 -2.236068 0 -2.236068 
C -0.593012 -2.236068 -1.161816 -2.000462 -1.581139 -1.581139 
C -2.000462 -1.161816 -2.236068 -0.593012 -2.236068 0 
C -2.236068 0.593012 -2.000462 1.161816 -1.581139 1.581139 
C -1.161816 2.000462 -0.593012 2.236068 0 2.236068 
z
"/>
    </defs>
    <g clip-path="url(#p20d7e549bd)">
     <use xlink:href="#C3_0_51400000f7" x="76.112959" y="428.766941" style="fill: #355070"/>
    </g>
    <g clip-path="url(#p20d7e549bd)">
     <use xlink:href="#C3_0_51400000f7" x="222.238834" y="135.814615" style="fill: #355070"/>
    </g>
    <g clip-path="url(#p20d7e549bd)">
     <use xlink:href="#C3_0_51400000f7" x="368.364708" y="292.434729" style="fill: #355070"/>
    </g>
    <g clip-path="url(#p20d7e549bd)">
     <use xlink:href="#C3_0_51400000f7" x="514.490583" y="296.129205" style="fill: #355070"/>
    </g>
    <g clip-path="url(#p20d7e549bd)">
     <use xlink:href="#C3_0_51400000f7" x="660.616458" y="266.884108" style="fill: #355070"/>
    </g>
    <g clip-path="url(#p20d7e549bd)">
     <use xlink:href="#C3_0_51400000f7" x="806.742333" y="135.779702" style="fill: #355070"/>
    </g>
   </g>
   <g id="PathCollection_5">
    <defs>
     <path id="C4_0_3e5176b7c9" d="M 0 2.236068 
C 0.593012 2.236068 1.161816 2.000462 1.581139 1.581139 
C 2.000462 1.161816 2.236068 0.593012 2.236068 -0 
C 2.236068 -0.593012 2.000462 -1.161816 1.581139 -1.581139 
C 1.161816 -2.000462 0.593012 -2.236068 0 -2.236068 
C -0.593012 -2.236068 -1.161816 -2.000462 -1.581139 -1.581139 
C -2.000462 -1.161816 -2.236068 -0.593012 -2.236068 0 
C -2.236068 0.593012 -2.000462 1.161816 -1.581139 1.581139 
C -1.161816 2.000462 -0.593012 2.236068 0 2.236068 
z
"/>
    </defs>
    <g clip-path="url(#p20d7e549bd)">
     <use xlink:href="#C4_0_3e5176b7c9" x="76.112959" y="428.766941" style="fill: #b56576"/>
    </g>
    <g clip-path="url(#p20d7e549bd)">
     <use xlink:href="#C4_0_3e5176b7c9" x="222.238834" y="119.680464" style="fill: #b56576"/>
    </g>
    <g clip-path="url(#p20d7e549bd)">
     <use xlink:href="#C4_0_3e5176b7c9" x="368.364708" y="428.766941" style="fill: #b56576"/>
    </g>
    <g clip-path="url(#p20d7e549bd)">
     <use xlink:href="#C4_0_3e5176b7c9" x="514.490583" y="281.048851" style="fill: #b56576"/>
    </g>
    <g clip-path="url(#p20d7e549bd)">
     <use xlink:href="#C4_0_3e5176b7c9" x="660.616458" y="190.381672" style="fill: #b56576"/>
    </g>
    <g clip-path="url(#p20d7e549bd)">
     <use xlink:href="#C4_0_3e5176b7c9" x="806.742333" y="119.65129" style="fill: #b56576"/>
    </g>
   </g>
   <g id="PathCollection_6">
    <defs>
     <path id="C5_0_b8110975e2" d="M 0 2.236068 
C 0.593012 2.236068 1.161816 2.000462 1.581139 1.581139 
C 2.000462 1.161816 2.236068 0.593012 2.236068 -0 
C 2.236068 -0.593012 2.000462 -1.161816 1.581139 -1.581139 
C 1.161816 -2.000462 0.593012 -2.236068 0 -2.236068 
C -0.593012 -2.236068 -1.161816 -2.000462 -1.581139 -1.581139 
C -2.000462 -1.161816 -2.236068 -0.593012 -2.236068 0 
C -2.236068 0.593012 -2.000462 1.161816 -1.581139 1.581139 
C -1.161816 2.000462 -0.593012 2.236068 0 2.236068 
z
"/>
    </defs>
    <g clip-path="url(#p20d7e549bd)">
     <use xlink:href="#C5_0_b8110975e2" x="76.112959" y="428.766941" style="fill: #b56576"/>
    </g>
    <g clip-path="url(#p20d7e549bd)">
     <use xlink:href="#C5_0_b8110975e2" x="222.238834" y="135.814615" style="fill: #b56576"/>
    </g>
    <g clip-path="url(#p20d7e549bd)">
     <use xlink:href="#C5_0_b8110975e2" x="368.364708" y="428.766941" style="fill: #b56576"/>
    </g>
    <g clip-path="url(#p20d7e549bd)">
     <use xlink:href="#C5_0_b8110975e2" x="514.490583" y="296.129205" style="fill: #b56576"/>
    </g>
    <g clip-path="url(#p20d7e549bd)">
     <use xlink:href="#C5_0_b8110975e2" x="660.616458" y="203.755638" style="fill: #b56576"/>
    </g>
    <g clip-path="url(#p20d7e549bd)">
     <use xlink:href="#C5_0_b8110975e2" x="806.742333" y="135.779702" style="fill: #b56576"/>
    </g>
   </g>
   <g id="PathCollection_7">
    <defs>
     <path id="C6_0_b12ec97936" d="M 0 2.236068 
C 0.593012 2.236068 1.161816 2.000462 1.581139 1.581139 
C 2.000462 1.161816 2.236068 0.593012 2.236068 -0 
C 2.236068 -0.593012 2.000462 -1.161816 1.581139 -1.581139 
C 1.161816 -2.000462 0.593012 -2.236068 0 -2.236068 
C -0.593012 -2.236068 -1.161816 -2.000462 -1.581139 -1.581139 
C -2.000462 -1.161816 -2.236068 -0.593012 -2.236068 0 
C -2.236068 0.593012 -2.000462 1.161816 -1.581139 1.581139 
C -1.161816 2.000462 -0.593012 2.236068 0 2.236068 
z
"/>
    </defs>
    <g clip-path="url(#p20d7e549bd)">
     <use xlink:href="#C6_0_b12ec97936" x="76.112959" y="428.766941" style="fill: #b56576"/>
    </g>
    <g clip-path="url(#p20d7e549bd)">
     <use xlink:href="#C6_0_b12ec97936" x="222.238834" y="119.680464" style="fill: #b56576"/>
    </g>
    <g clip-path="url(#p20d7e549bd)">
     <use xlink:href="#C6_0_b12ec97936" x="368.364708" y="292.434729" style="fill: #b56576"/>
    </g>
    <g clip-path="url(#p20d7e549bd)">
     <use xlink:href="#C6_0_b12ec97936" x="514.490583" y="281.048851" style="fill: #b56576"/>
    </g>
    <g clip-path="url(#p20d7e549bd)">
     <use xlink:href="#C6_0_b12ec97936" x="660.616458" y="253.510141" style="fill: #b56576"/>
    </g>
    <g clip-path="url(#p20d7e549bd)">
     <use xlink:href="#C6_0_b12ec97936" x="806.742333" y="119.65129" style="fill: #b56576"/>
    </g>
   </g>
   <g id="PathCollection_8">
    <defs>
     <path id="C7_0_469c35304c" d="M 0 2.236068 
C 0.593012 2.236068 1.161816 2.000462 1.581139 1.581139 
C 2.000462 1.161816 2.236068 0.593012 2.236068 -0 
C 2.236068 -0.593012 2.000462 -1.161816 1.581139 -1.581139 
C 1.161816 -2.000462 0.593012 -2.236068 0 -2.236068 
C -0.593012 -2.236068 -1.161816 -2.000462 -1.581139 -1.581139 
C -2.000462 -1.161816 -2.236068 -0.593012 -2.236068 0 
C -2.236068 0.593012 -2.000462 1.161816 -1.581139 1.581139 
C -1.161816 2.000462 -0.593012 2.236068 0 2.236068 
z
"/>
    </defs>
    <g clip-path="url(#p20d7e549bd)">
     <use xlink:href="#C7_0_469c35304c" x="76.112959" y="419.792309" style="fill: #b56576"/>
    </g>
    <g clip-path="url(#p20d7e549bd)">
     <use xlink:href="#C7_0_469c35304c" x="222.238834" y="144.762573" style="fill: #b56576"/>
    </g>
    <g clip-path="url(#p20d7e549bd)">
     <use xlink:href="#C7_0_469c35304c" x="368.364708" y="292.434729" style="fill: #b56576"/>
    </g>
    <g clip-path="url(#p20d7e549bd)">
     <use xlink:href="#C7_0_469c35304c" x="514.490583" y="296.129205" style="fill: #b56576"/>
    </g>
    <g clip-path="url(#p20d7e549bd)">
     <use xlink:href="#C7_0_469c35304c" x="660.616458" y="266.884108" style="fill: #b56576"/>
    </g>
    <g clip-path="url(#p20d7e549bd)">
     <use xlink:href="#C7_0_469c35304c" x="806.742333" y="144.724477" style="fill: #b56576"/>
    </g>
   </g>
   <g id="PathCollection_9">
    <defs>
     <path id="C8_0_ec3b2597e7" d="M 0 2.236068 
C 0.593012 2.236068 1.161816 2.000462 1.581139 1.581139 
C 2.000462 1.161816 2.236068 0.593012 2.236068 -0 
C 2.236068 -0.593012 2.000462 -1.161816 1.581139 -1.581139 
C 1.161816 -2.000462 0.593012 -2.236068 0 -2.236068 
C -0.593012 -2.236068 -1.161816 -2.000462 -1.581139 -1.581139 
C -2.000462 -1.161816 -2.236068 -0.593012 -2.236068 0 
C -2.236068 0.593012 -2.000462 1.161816 -1.581139 1.581139 
C -1.161816 2.000462 -0.593012 2.236068 0 2.236068 
z
"/>
    </defs>
    <g clip-path="url(#p20d7e549bd)">
     <use xlink:href="#C8_0_ec3b2597e7" x="76.112959" y="264.058155" style="fill: #9d4edd"/>
    </g>
    <g clip-path="url(#p20d7e549bd)">
     <use xlink:href="#C8_0_ec3b2597e7" x="222.238834" y="307.859957" style="fill: #9d4edd"/>
    </g>
    <g clip-path="url(#p20d7e549bd)">
     <use xlink:href="#C8_0_ec3b2597e7" x="368.364708" y="292.434729" style="fill: #9d4edd"/>
    </g>
    <g clip-path="url(#p20d7e549bd)">
     <use xlink:href="#C8_0_ec3b2597e7" x="514.490583" y="303.45488" style="fill: #9d4edd"/>
    </g>
    <g clip-path="url(#p20d7e549bd)">
     <use xlink:href="#C8_0_ec3b2597e7" x="660.616458" y="273.38086" style="fill: #9d4edd"/>
    </g>
    <g clip-path="url(#p20d7e549bd)">
     <use xlink:href="#C8_0_ec3b2597e7" x="806.742333" y="307.763841" style="fill: #9d4edd"/>
    </g>
   </g>
   <g id="PathCollection_10">
    <defs>
     <path id="C9_0_e068c67638" d="M 0 2.236068 
C 0.593012 2.236068 1.161816 2.000462 1.581139 1.581139 
C 2.000462 1.161816 2.236068 0.593012 2.236068 -0 
C 2.236068 -0.593012 2.000462 -1.161816 1.581139 -1.581139 
C 1.161816 -2.000462 0.593012 -2.236068 0 -2.236068 
C -0.593012 -2.236068 -1.161816 -2.000462 -1.581139 -1.581139 
C -2.000462 -1.161816 -2.236068 -0.593012 -2.236068 0 
C -2.236068 0.593012 -2.000462 1.161816 -1.581139 1.581139 
C -1.161816 2.000462 -0.593012 2.236068 0 2.236068 
z
"/>
    </defs>
    <g clip-path="url(#p20d7e549bd)">
     <use xlink:href="#C9_0_e068c67638" x="76.112959" y="277.218469" style="fill: #9d4edd"/>
    </g>
    <g clip-path="url(#p20d7e549bd)">
     <use xlink:href="#C9_0_e068c67638" x="222.238834" y="286.907362" style="fill: #9d4edd"/>
    </g>
    <g clip-path="url(#p20d7e549bd)">
     <use xlink:href="#C9_0_e068c67638" x="368.364708" y="428.766941" style="fill: #9d4edd"/>
    </g>
    <g clip-path="url(#p20d7e549bd)">
     <use xlink:href="#C9_0_e068c67638" x="514.490583" y="296.129205" style="fill: #9d4edd"/>
    </g>
    <g clip-path="url(#p20d7e549bd)">
     <use xlink:href="#C9_0_e068c67638" x="660.616458" y="203.755638" style="fill: #9d4edd"/>
    </g>
    <g clip-path="url(#p20d7e549bd)">
     <use xlink:href="#C9_0_e068c67638" x="806.742333" y="286.818699" style="fill: #9d4edd"/>
    </g>
   </g>
   <g id="PathCollection_11">
    <defs>
     <path id="Ca_0_c91cd7bbd2" d="M 0 2.236068 
C 0.593012 2.236068 1.161816 2.000462 1.581139 1.581139 
C 2.000462 1.161816 2.236068 0.593012 2.236068 -0 
C 2.236068 -0.593012 2.000462 -1.161816 1.581139 -1.581139 
C 1.161816 -2.000462 0.593012 -2.236068 0 -2.236068 
C -0.593012 -2.236068 -1.161816 -2.000462 -1.581139 -1.581139 
C -2.000462 -1.161816 -2.236068 -0.593012 -2.236068 0 
C -2.236068 0.593012 -2.000462 1.161816 -1.581139 1.581139 
C -1.161816 2.000462 -0.593012 2.236068 0 2.236068 
z
"/>
    </defs>
    <g clip-path="url(#p20d7e549bd)">
     <use xlink:href="#Ca_0_c91cd7bbd2" x="76.112959" y="342.486843" style="fill: #9d4edd"/>
    </g>
    <g clip-path="url(#p20d7e549bd)">
     <use xlink:href="#Ca_0_c91cd7bbd2" x="222.238834" y="151.688553" style="fill: #9d4edd"/>
    </g>
    <g clip-path="url(#p20d7e549bd)">
     <use xlink:href="#Ca_0_c91cd7bbd2" x="368.364708" y="428.766941" style="fill: #9d4edd"/>
    </g>
    <g clip-path="url(#p20d7e549bd)">
     <use xlink:href="#Ca_0_c91cd7bbd2" x="514.490583" y="230.541714" style="fill: #9d4edd"/>
    </g>
    <g clip-path="url(#p20d7e549bd)">
     <use xlink:href="#Ca_0_c91cd7bbd2" x="660.616458" y="145.589571" style="fill: #9d4edd"/>
    </g>
    <g clip-path="url(#p20d7e549bd)">
     <use xlink:href="#Ca_0_c91cd7bbd2" x="806.742333" y="151.647993" style="fill: #9d4edd"/>
    </g>
   </g>
   <g id="PathCollection_12">
    <defs>
     <path id="Cb_0_6597d0b013" d="M 0 2.236068 
C 0.593012 2.236068 1.161816 2.000462 1.581139 1.581139 
C 2.000462 1.161816 2.236068 0.593012 2.236068 -0 
C 2.236068 -0.593012 2.000462 -1.161816 1.581139 -1.581139 
C 1.161816 -2.000462 0.593012 -2.236068 0 -2.236068 
C -0.593012 -2.236068 -1.161816 -2.000462 -1.581139 -1.581139 
C -2.000462 -1.161816 -2.236068 -0.593012 -2.236068 0 
C -2.236068 0.593012 -2.000462 1.161816 -1.581139 1.581139 
C -1.161816 2.000462 -0.593012 2.236068 0 2.236068 
z
"/>
    </defs>
    <g clip-path="url(#p20d7e549bd)">
     <use xlink:href="#Cb_0_6597d0b013" x="76.112959" y="352.407838" style="fill: #9d4edd"/>
    </g>
    <g clip-path="url(#p20d7e549bd)">
     <use xlink:href="#Cb_0_6597d0b013" x="222.238834" y="157.931268" style="fill: #9d4edd"/>
    </g>
    <g clip-path="url(#p20d7e549bd)">
     <use xlink:href="#Cb_0_6597d0b013" x="368.364708" y="195.705485" style="fill: #9d4edd"/>
    </g>
    <g clip-path="url(#p20d7e549bd)">
     <use xlink:href="#Cb_0_6597d0b013" x="514.490583" y="245.631791" style="fill: #9d4edd"/>
    </g>
    <g clip-path="url(#p20d7e549bd)">
     <use xlink:href="#Cb_0_6597d0b013" x="660.616458" y="266.890991" style="fill: #9d4edd"/>
    </g>
    <g clip-path="url(#p20d7e549bd)">
     <use xlink:href="#Cb_0_6597d0b013" x="806.742333" y="157.888487" style="fill: #9d4edd"/>
    </g>
   </g>
   <g id="PathCollection_13">
    <defs>
     <path id="Cc_0_d231fe2416" d="M 0 2.236068 
C 0.593012 2.236068 1.161816 2.000462 1.581139 1.581139 
C 2.000462 1.161816 2.236068 0.593012 2.236068 -0 
C 2.236068 -0.593012 2.000462 -1.161816 1.581139 -1.581139 
C 1.161816 -2.000462 0.593012 -2.236068 0 -2.236068 
C -0.593012 -2.236068 -1.161816 -2.000462 -1.581139 -1.581139 
C -2.000462 -1.161816 -2.236068 -0.593012 -2.236068 0 
C -2.236068 0.593012 -2.000462 1.161816 -1.581139 1.581139 
C -1.161816 2.000462 -0.593012 2.236068 0 2.236068 
z
"/>
    </defs>
    <g clip-path="url(#p20d7e549bd)">
     <use xlink:href="#Cc_0_d231fe2416" x="76.112959" y="211.480456" style="fill: #f4a261"/>
    </g>
    <g clip-path="url(#p20d7e549bd)">
     <use xlink:href="#Cc_0_d231fe2416" x="222.238834" y="273.836411" style="fill: #f4a261"/>
    </g>
    <g clip-path="url(#p20d7e549bd)">
     <use xlink:href="#Cc_0_d231fe2416" x="368.364708" y="428.766941" style="fill: #f4a261"/>
    </g>
    <g clip-path="url(#p20d7e549bd)">
     <use xlink:href="#Cc_0_d231fe2416" x="514.490583" y="222.627384" style="fill: #f4a261"/>
    </g>
    <g clip-path="url(#p20d7e549bd)">
     <use xlink:href="#Cc_0_d231fe2416" x="660.616458" y="138.570771" style="fill: #f4a261"/>
    </g>
    <g clip-path="url(#p20d7e549bd)">
     <use xlink:href="#Cc_0_d231fe2416" x="806.742333" y="273.752398" style="fill: #f4a261"/>
    </g>
   </g>
   <g id="PathCollection_14">
    <defs>
     <path id="Cd_0_c2f358cb95" d="M 0 2.236068 
C 0.593012 2.236068 1.161816 2.000462 1.581139 1.581139 
C 2.000462 1.161816 2.236068 0.593012 2.236068 -0 
C 2.236068 -0.593012 2.000462 -1.161816 1.581139 -1.581139 
C 1.161816 -2.000462 0.593012 -2.236068 0 -2.236068 
C -0.593012 -2.236068 -1.161816 -2.000462 -1.581139 -1.581139 
C -2.000462 -1.161816 -2.236068 -0.593012 -2.236068 0 
C -2.236068 0.593012 -2.000462 1.161816 -1.581139 1.581139 
C -1.161816 2.000462 -0.593012 2.236068 0 2.236068 
z
"/>
    </defs>
    <g clip-path="url(#p20d7e549bd)">
     <use xlink:href="#Cd_0_c2f358cb95" x="76.112959" y="263.894536" style="fill: #f4a261"/>
    </g>
    <g clip-path="url(#p20d7e549bd)">
     <use xlink:href="#Cd_0_c2f358cb95" x="222.238834" y="141.797359" style="fill: #f4a261"/>
    </g>
    <g clip-path="url(#p20d7e549bd)">
     <use xlink:href="#Cd_0_c2f358cb95" x="368.364708" y="428.766941" style="fill: #f4a261"/>
    </g>
    <g clip-path="url(#p20d7e549bd)">
     <use xlink:href="#Cd_0_c2f358cb95" x="514.490583" y="148.069442" style="fill: #f4a261"/>
    </g>
    <g clip-path="url(#p20d7e549bd)">
     <use xlink:href="#Cd_0_c2f358cb95" x="660.616458" y="72.449287" style="fill: #f4a261"/>
    </g>
    <g clip-path="url(#p20d7e549bd)">
     <use xlink:href="#Cd_0_c2f358cb95" x="806.742333" y="141.760318" style="fill: #f4a261"/>
    </g>
   </g>
   <g id="PathCollection_15">
    <defs>
     <path id="Ce_0_15dda6e22b" d="M 0 2.236068 
C 0.593012 2.236068 1.161816 2.000462 1.581139 1.581139 
C 2.000462 1.161816 2.236068 0.593012 2.236068 -0 
C 2.236068 -0.593012 2.000462 -1.161816 1.581139 -1.581139 
C 1.161816 -2.000462 0.593012 -2.236068 0 -2.236068 
C -0.593012 -2.236068 -1.161816 -2.000462 -1.581139 -1.581139 
C -2.000462 -1.161816 -2.236068 -0.593012 -2.236068 0 
C -2.236068 0.593012 -2.000462 1.161816 -1.581139 1.581139 
C -1.161816 2.000462 -0.593012 2.236068 0 2.236068 
z
"/>
    </defs>
    <g clip-path="url(#p20d7e549bd)">
     <use xlink:href="#Ce_0_15dda6e22b" x="76.112959" y="37.673059" style="fill: #f4a261"/>
    </g>
    <g clip-path="url(#p20d7e549bd)">
     <use xlink:href="#Ce_0_15dda6e22b" x="222.238834" y="249.316166" style="fill: #f4a261"/>
    </g>
    <g clip-path="url(#p20d7e549bd)">
     <use xlink:href="#Ce_0_15dda6e22b" x="368.364708" y="292.434729" style="fill: #f4a261"/>
    </g>
    <g clip-path="url(#p20d7e549bd)">
     <use xlink:href="#Ce_0_15dda6e22b" x="514.490583" y="37.673059" style="fill: #f4a261"/>
    </g>
    <g clip-path="url(#p20d7e549bd)">
     <use xlink:href="#Ce_0_15dda6e22b" x="660.616458" y="37.673059" style="fill: #f4a261"/>
    </g>
    <g clip-path="url(#p20d7e549bd)">
     <use xlink:href="#Ce_0_15dda6e22b" x="806.742333" y="249.240876" style="fill: #f4a261"/>
    </g>
   </g>
   <g id="PathCollection_16">
    <defs>
     <path id="Cf_0_0603d716ca" d="M 0 2.236068 
C 0.593012 2.236068 1.161816 2.000462 1.581139 1.581139 
C 2.000462 1.161816 2.236068 0.593012 2.236068 -0 
C 2.236068 -0.593012 2.000462 -1.161816 1.581139 -1.581139 
C 1.161816 -2.000462 0.593012 -2.236068 0 -2.236068 
C -0.593012 -2.236068 -1.161816 -2.000462 -1.581139 -1.581139 
C -2.000462 -1.161816 -2.236068 -0.593012 -2.236068 0 
C -2.236068 0.593012 -2.000462 1.161816 -1.581139 1.581139 
C -1.161816 2.000462 -0.593012 2.236068 0 2.236068 
z
"/>
    </defs>
    <g clip-path="url(#p20d7e549bd)">
     <use xlink:href="#Cf_0_0603d716ca" x="76.112959" y="314.928382" style="fill: #f4a261"/>
    </g>
    <g clip-path="url(#p20d7e549bd)">
     <use xlink:href="#Cf_0_0603d716ca" x="222.238834" y="249.316166" style="fill: #f4a261"/>
    </g>
    <g clip-path="url(#p20d7e549bd)">
     <use xlink:href="#Cf_0_0603d716ca" x="368.364708" y="292.434729" style="fill: #f4a261"/>
    </g>
    <g clip-path="url(#p20d7e549bd)">
     <use xlink:href="#Cf_0_0603d716ca" x="514.490583" y="296.129205" style="fill: #f4a261"/>
    </g>
    <g clip-path="url(#p20d7e549bd)">
     <use xlink:href="#Cf_0_0603d716ca" x="660.616458" y="266.884108" style="fill: #f4a261"/>
    </g>
    <g clip-path="url(#p20d7e549bd)">
     <use xlink:href="#Cf_0_0603d716ca" x="806.742333" y="249.240876" style="fill: #f4a261"/>
    </g>
   </g>
   <g id="text_14">
    <!-- MS high prod -->
    <g style="fill: #d00000" transform="translate(814.742333 191.934699) scale(0.1 -0.1)">
     <defs>
      <path id="DejaVuSans-Bold-4d" d="M 588 4666 
L 2119 4666 
L 3181 2169 
L 4250 4666 
L 5778 4666 
L 5778 0 
L 4641 0 
L 4641 3413 
L 3566 897 
L 2803 897 
L 1728 3413 
L 1728 0 
L 588 0 
L 588 4666 
z
" transform="scale(0.015625)"/>
      <path id="DejaVuSans-Bold-53" d="M 3834 4519 
L 3834 3531 
Q 3450 3703 3084 3790 
Q 2719 3878 2394 3878 
Q 1963 3878 1756 3759 
Q 1550 3641 1550 3391 
Q 1550 3203 1689 3098 
Q 1828 2994 2194 2919 
L 2706 2816 
Q 3484 2659 3812 2340 
Q 4141 2022 4141 1434 
Q 4141 663 3683 286 
Q 3225 -91 2284 -91 
Q 1841 -91 1394 -6 
Q 947 78 500 244 
L 500 1259 
Q 947 1022 1364 901 
Q 1781 781 2169 781 
Q 2563 781 2772 912 
Q 2981 1044 2981 1288 
Q 2981 1506 2839 1625 
Q 2697 1744 2272 1838 
L 1806 1941 
Q 1106 2091 782 2419 
Q 459 2747 459 3303 
Q 459 4000 909 4375 
Q 1359 4750 2203 4750 
Q 2588 4750 2994 4692 
Q 3400 4634 3834 4519 
z
" transform="scale(0.015625)"/>
      <path id="DejaVuSans-Bold-20" transform="scale(0.015625)"/>
      <path id="DejaVuSans-Bold-68" d="M 4056 2131 
L 4056 0 
L 2931 0 
L 2931 347 
L 2931 1625 
Q 2931 2084 2911 2256 
Q 2891 2428 2841 2509 
Q 2775 2619 2662 2680 
Q 2550 2741 2406 2741 
Q 2056 2741 1856 2470 
Q 1656 2200 1656 1722 
L 1656 0 
L 538 0 
L 538 4863 
L 1656 4863 
L 1656 2988 
Q 1909 3294 2193 3439 
Q 2478 3584 2822 3584 
Q 3428 3584 3742 3212 
Q 4056 2841 4056 2131 
z
" transform="scale(0.015625)"/>
      <path id="DejaVuSans-Bold-69" d="M 538 3500 
L 1656 3500 
L 1656 0 
L 538 0 
L 538 3500 
z
M 538 4863 
L 1656 4863 
L 1656 3950 
L 538 3950 
L 538 4863 
z
" transform="scale(0.015625)"/>
      <path id="DejaVuSans-Bold-67" d="M 2919 594 
Q 2688 288 2409 144 
Q 2131 0 1766 0 
Q 1125 0 706 504 
Q 288 1009 288 1791 
Q 288 2575 706 3076 
Q 1125 3578 1766 3578 
Q 2131 3578 2409 3434 
Q 2688 3291 2919 2981 
L 2919 3500 
L 4044 3500 
L 4044 353 
Q 4044 -491 3511 -936 
Q 2978 -1381 1966 -1381 
Q 1638 -1381 1331 -1331 
Q 1025 -1281 716 -1178 
L 716 -306 
Q 1009 -475 1290 -558 
Q 1572 -641 1856 -641 
Q 2406 -641 2662 -400 
Q 2919 -159 2919 353 
L 2919 594 
z
M 2181 2772 
Q 1834 2772 1640 2515 
Q 1447 2259 1447 1791 
Q 1447 1309 1634 1061 
Q 1822 813 2181 813 
Q 2531 813 2725 1069 
Q 2919 1325 2919 1791 
Q 2919 2259 2725 2515 
Q 2531 2772 2181 2772 
z
" transform="scale(0.015625)"/>
      <path id="DejaVuSans-Bold-70" d="M 1656 506 
L 1656 -1331 
L 538 -1331 
L 538 3500 
L 1656 3500 
L 1656 2988 
Q 1888 3294 2169 3439 
Q 2450 3584 2816 3584 
Q 3463 3584 3878 3070 
Q 4294 2556 4294 1747 
Q 4294 938 3878 423 
Q 3463 -91 2816 -91 
Q 2450 -91 2169 54 
Q 1888 200 1656 506 
z
M 2400 2772 
Q 2041 2772 1848 2508 
Q 1656 2244 1656 1747 
Q 1656 1250 1848 986 
Q 2041 722 2400 722 
Q 2759 722 2948 984 
Q 3138 1247 3138 1747 
Q 3138 2247 2948 2509 
Q 2759 2772 2400 2772 
z
" transform="scale(0.015625)"/>
      <path id="DejaVuSans-Bold-72" d="M 3138 2547 
Q 2991 2616 2845 2648 
Q 2700 2681 2553 2681 
Q 2122 2681 1889 2404 
Q 1656 2128 1656 1613 
L 1656 0 
L 538 0 
L 538 3500 
L 1656 3500 
L 1656 2925 
Q 1872 3269 2151 3426 
Q 2431 3584 2822 3584 
Q 2878 3584 2943 3579 
Q 3009 3575 3134 3559 
L 3138 2547 
z
" transform="scale(0.015625)"/>
      <path id="DejaVuSans-Bold-6f" d="M 2203 2784 
Q 1831 2784 1636 2517 
Q 1441 2250 1441 1747 
Q 1441 1244 1636 976 
Q 1831 709 2203 709 
Q 2569 709 2762 976 
Q 2956 1244 2956 1747 
Q 2956 2250 2762 2517 
Q 2569 2784 2203 2784 
z
M 2203 3584 
Q 3106 3584 3614 3096 
Q 4122 2609 4122 1747 
Q 4122 884 3614 396 
Q 3106 -91 2203 -91 
Q 1297 -91 786 396 
Q 275 884 275 1747 
Q 275 2609 786 3096 
Q 1297 3584 2203 3584 
z
" transform="scale(0.015625)"/>
      <path id="DejaVuSans-Bold-64" d="M 2919 2988 
L 2919 4863 
L 4044 4863 
L 4044 0 
L 2919 0 
L 2919 506 
Q 2688 197 2409 53 
Q 2131 -91 1766 -91 
Q 1119 -91 703 423 
Q 288 938 288 1747 
Q 288 2556 703 3070 
Q 1119 3584 1766 3584 
Q 2128 3584 2408 3439 
Q 2688 3294 2919 2988 
z
M 2181 722 
Q 2541 722 2730 984 
Q 2919 1247 2919 1747 
Q 2919 2247 2730 2509 
Q 2541 2772 2181 2772 
Q 1825 2772 1636 2509 
Q 1447 2247 1447 1747 
Q 1447 1247 1636 984 
Q 1825 722 2181 722 
z
" transform="scale(0.015625)"/>
     </defs>
     <use xlink:href="#DejaVuSans-Bold-4d"/>
     <use xlink:href="#DejaVuSans-Bold-53" transform="translate(99.511719 0)"/>
     <use xlink:href="#DejaVuSans-Bold-20" transform="translate(171.533203 0)"/>
     <use xlink:href="#DejaVuSans-Bold-68" transform="translate(206.347656 0)"/>
     <use xlink:href="#DejaVuSans-Bold-69" transform="translate(277.539062 0)"/>
     <use xlink:href="#DejaVuSans-Bold-67" transform="translate(311.816406 0)"/>
     <use xlink:href="#DejaVuSans-Bold-68" transform="translate(383.398438 0)"/>
     <use xlink:href="#DejaVuSans-Bold-20" transform="translate(454.589844 0)"/>
     <use xlink:href="#DejaVuSans-Bold-70" transform="translate(489.404297 0)"/>
     <use xlink:href="#DejaVuSans-Bold-72" transform="translate(560.986328 0)"/>
     <use xlink:href="#DejaVuSans-Bold-6f" transform="translate(610.302734 0)"/>
     <use xlink:href="#DejaVuSans-Bold-64" transform="translate(679.003906 0)"/>
    </g>
   </g>
   <g id="text_15">
    <!-- MS low prod -->
    <g style="fill: #003566" transform="translate(814.742333 431.526316) scale(0.1 -0.1)">
     <defs>
      <path id="DejaVuSans-Bold-6c" d="M 538 4863 
L 1656 4863 
L 1656 0 
L 538 0 
L 538 4863 
z
" transform="scale(0.015625)"/>
      <path id="DejaVuSans-Bold-77" d="M 225 3500 
L 1313 3500 
L 1900 1088 
L 2491 3500 
L 3425 3500 
L 4013 1113 
L 4603 3500 
L 5691 3500 
L 4769 0 
L 3547 0 
L 2956 2406 
L 2369 0 
L 1147 0 
L 225 3500 
z
" transform="scale(0.015625)"/>
     </defs>
     <use xlink:href="#DejaVuSans-Bold-4d"/>
     <use xlink:href="#DejaVuSans-Bold-53" transform="translate(99.511719 0)"/>
     <use xlink:href="#DejaVuSans-Bold-20" transform="translate(171.533203 0)"/>
     <use xlink:href="#DejaVuSans-Bold-6c" transform="translate(206.347656 0)"/>
     <use xlink:href="#DejaVuSans-Bold-6f" transform="translate(240.625 0)"/>
     <use xlink:href="#DejaVuSans-Bold-77" transform="translate(309.326172 0)"/>
     <use xlink:href="#DejaVuSans-Bold-20" transform="translate(401.708984 0)"/>
     <use xlink:href="#DejaVuSans-Bold-70" transform="translate(436.523438 0)"/>
     <use xlink:href="#DejaVuSans-Bold-72" transform="translate(508.105469 0)"/>
     <use xlink:href="#DejaVuSans-Bold-6f" transform="translate(557.421875 0)"/>
     <use xlink:href="#DejaVuSans-Bold-64" transform="translate(626.123047 0)"/>
    </g>
   </g>
   <g id="text_16">
    <!-- Parallel Coordinates: Model Outputs vs Manuscript References -->
    <g transform="translate(254.910146 12.118365) scale(0.12 -0.12)">
     <defs>
      <path id="DejaVuSans-50" d="M 1259 4147 
L 1259 2394 
L 2053 2394 
Q 2494 2394 2734 2622 
Q 2975 2850 2975 3272 
Q 2975 3691 2734 3919 
Q 2494 4147 2053 4147 
L 1259 4147 
z
M 628 4666 
L 2053 4666 
Q 2838 4666 3239 4311 
Q 3641 3956 3641 3272 
Q 3641 2581 3239 2228 
Q 2838 1875 2053 1875 
L 1259 1875 
L 1259 0 
L 628 0 
L 628 4666 
z
" transform="scale(0.015625)"/>
      <path id="DejaVuSans-43" d="M 4122 4306 
L 4122 3641 
Q 3803 3938 3442 4084 
Q 3081 4231 2675 4231 
Q 1875 4231 1450 3742 
Q 1025 3253 1025 2328 
Q 1025 1406 1450 917 
Q 1875 428 2675 428 
Q 3081 428 3442 575 
Q 3803 722 4122 1019 
L 4122 359 
Q 3791 134 3420 21 
Q 3050 -91 2638 -91 
Q 1578 -91 968 557 
Q 359 1206 359 2328 
Q 359 3453 968 4101 
Q 1578 4750 2638 4750 
Q 3056 4750 3426 4639 
Q 3797 4528 4122 4306 
z
" transform="scale(0.015625)"/>
      <path id="DejaVuSans-73" d="M 2834 3397 
L 2834 2853 
Q 2591 2978 2328 3040 
Q 2066 3103 1784 3103 
Q 1356 3103 1142 2972 
Q 928 2841 928 2578 
Q 928 2378 1081 2264 
Q 1234 2150 1697 2047 
L 1894 2003 
Q 2506 1872 2764 1633 
Q 3022 1394 3022 966 
Q 3022 478 2636 193 
Q 2250 -91 1575 -91 
Q 1294 -91 989 -36 
Q 684 19 347 128 
L 347 722 
Q 666 556 975 473 
Q 1284 391 1588 391 
Q 1994 391 2212 530 
Q 2431 669 2431 922 
Q 2431 1156 2273 1281 
Q 2116 1406 1581 1522 
L 1381 1569 
Q 847 1681 609 1914 
Q 372 2147 372 2553 
Q 372 3047 722 3315 
Q 1072 3584 1716 3584 
Q 2034 3584 2315 3537 
Q 2597 3491 2834 3397 
z
" transform="scale(0.015625)"/>
      <path id="DejaVuSans-3a" d="M 750 794 
L 1409 794 
L 1409 0 
L 750 0 
L 750 794 
z
M 750 3309 
L 1409 3309 
L 1409 2516 
L 750 2516 
L 750 3309 
z
" transform="scale(0.015625)"/>
      <path id="DejaVuSans-4d" d="M 628 4666 
L 1569 4666 
L 2759 1491 
L 3956 4666 
L 4897 4666 
L 4897 0 
L 4281 0 
L 4281 4097 
L 3078 897 
L 2444 897 
L 1241 4097 
L 1241 0 
L 628 0 
L 628 4666 
z
" transform="scale(0.015625)"/>
      <path id="DejaVuSans-4f" d="M 2522 4238 
Q 1834 4238 1429 3725 
Q 1025 3213 1025 2328 
Q 1025 1447 1429 934 
Q 1834 422 2522 422 
Q 3209 422 3611 934 
Q 4013 1447 4013 2328 
Q 4013 3213 3611 3725 
Q 3209 4238 2522 4238 
z
M 2522 4750 
Q 3503 4750 4090 4092 
Q 4678 3434 4678 2328 
Q 4678 1225 4090 567 
Q 3503 -91 2522 -91 
Q 1538 -91 948 565 
Q 359 1222 359 2328 
Q 359 3434 948 4092 
Q 1538 4750 2522 4750 
z
" transform="scale(0.015625)"/>
      <path id="DejaVuSans-63" d="M 3122 3366 
L 3122 2828 
Q 2878 2963 2633 3030 
Q 2388 3097 2138 3097 
Q 1578 3097 1268 2742 
Q 959 2388 959 1747 
Q 959 1106 1268 751 
Q 1578 397 2138 397 
Q 2388 397 2633 464 
Q 2878 531 3122 666 
L 3122 134 
Q 2881 22 2623 -34 
Q 2366 -91 2075 -91 
Q 1284 -91 818 406 
Q 353 903 353 1747 
Q 353 2603 823 3093 
Q 1294 3584 2113 3584 
Q 2378 3584 2631 3529 
Q 2884 3475 3122 3366 
z
" transform="scale(0.015625)"/>
      <path id="DejaVuSans-52" d="M 2841 2188 
Q 3044 2119 3236 1894 
Q 3428 1669 3622 1275 
L 4263 0 
L 3584 0 
L 2988 1197 
Q 2756 1666 2539 1819 
Q 2322 1972 1947 1972 
L 1259 1972 
L 1259 0 
L 628 0 
L 628 4666 
L 2053 4666 
Q 2853 4666 3247 4331 
Q 3641 3997 3641 3322 
Q 3641 2881 3436 2590 
Q 3231 2300 2841 2188 
z
M 1259 4147 
L 1259 2491 
L 2053 2491 
Q 2509 2491 2742 2702 
Q 2975 2913 2975 3322 
Q 2975 3731 2742 3939 
Q 2509 4147 2053 4147 
L 1259 4147 
z
" transform="scale(0.015625)"/>
      <path id="DejaVuSans-66" d="M 2375 4863 
L 2375 4384 
L 1825 4384 
Q 1516 4384 1395 4259 
Q 1275 4134 1275 3809 
L 1275 3500 
L 2222 3500 
L 2222 3053 
L 1275 3053 
L 1275 0 
L 697 0 
L 697 3053 
L 147 3053 
L 147 3500 
L 697 3500 
L 697 3744 
Q 697 4328 969 4595 
Q 1241 4863 1831 4863 
L 2375 4863 
z
" transform="scale(0.015625)"/>
     </defs>
     <use xlink:href="#DejaVuSans-50"/>
     <use xlink:href="#DejaVuSans-61" transform="translate(55.802734 0)"/>
     <use xlink:href="#DejaVuSans-72" transform="translate(117.082031 0)"/>
     <use xlink:href="#DejaVuSans-61" transform="translate(158.195312 0)"/>
     <use xlink:href="#DejaVuSans-6c" transform="translate(219.474609 0)"/>
     <use xlink:href="#DejaVuSans-6c" transform="translate(247.257812 0)"/>
     <use xlink:href="#DejaVuSans-65" transform="translate(275.041016 0)"/>
     <use xlink:href="#DejaVuSans-6c" transform="translate(336.564453 0)"/>
     <use xlink:href="#DejaVuSans-20" transform="translate(364.347656 0)"/>
     <use xlink:href="#DejaVuSans-43" transform="translate(396.134766 0)"/>
     <use xlink:href="#DejaVuSans-6f" transform="translate(465.958984 0)"/>
     <use xlink:href="#DejaVuSans-6f" transform="translate(527.140625 0)"/>
     <use xlink:href="#DejaVuSans-72" transform="translate(588.322266 0)"/>
     <use xlink:href="#DejaVuSans-64" transform="translate(627.685547 0)"/>
     <use xlink:href="#DejaVuSans-69" transform="translate(691.162109 0)"/>
     <use xlink:href="#DejaVuSans-6e" transform="translate(718.945312 0)"/>
     <use xlink:href="#DejaVuSans-61" transform="translate(782.324219 0)"/>
     <use xlink:href="#DejaVuSans-74" transform="translate(843.603516 0)"/>
     <use xlink:href="#DejaVuSans-65" transform="translate(882.8125 0)"/>
     <use xlink:href="#DejaVuSans-73" transform="translate(944.335938 0)"/>
     <use xlink:href="#DejaVuSans-3a" transform="translate(996.435547 0)"/>
     <use xlink:href="#DejaVuSans-20" transform="translate(1030.126953 0)"/>
     <use xlink:href="#DejaVuSans-4d" transform="translate(1061.914062 0)"/>
     <use xlink:href="#DejaVuSans-6f" transform="translate(1148.193359 0)"/>
     <use xlink:href="#DejaVuSans-64" transform="translate(1209.375 0)"/>
     <use xlink:href="#DejaVuSans-65" transform="translate(1272.851562 0)"/>
     <use xlink:href="#DejaVuSans-6c" transform="translate(1334.375 0)"/>
     <use xlink:href="#DejaVuSans-20" transform="translate(1362.158203 0)"/>
     <use xlink:href="#DejaVuSans-4f" transform="translate(1393.945312 0)"/>
     <use xlink:href="#DejaVuSans-75" transform="translate(1472.65625 0)"/>
     <use xlink:href="#DejaVuSans-74" transform="translate(1536.035156 0)"/>
     <use xlink:href="#DejaVuSans-70" transform="translate(1575.244141 0)"/>
     <use xlink:href="#DejaVuSans-75" transform="translate(1638.720703 0)"/>
     <use xlink:href="#DejaVuSans-74" transform="translate(1702.099609 0)"/>
     <use xlink:href="#DejaVuSans-73" transform="translate(1741.308594 0)"/>
     <use xlink:href="#DejaVuSans-20" transform="translate(1793.408203 0)"/>
     <use xlink:href="#DejaVuSans-76" transform="translate(1825.195312 0)"/>
     <use xlink:href="#DejaVuSans-73" transform="translate(1884.375 0)"/>
     <use xlink:href="#DejaVuSans-20" transform="translate(1936.474609 0)"/>
     <use xlink:href="#DejaVuSans-4d" transform="translate(1968.261719 0)"/>
     <use xlink:href="#DejaVuSans-61" transform="translate(2054.541016 0)"/>
     <use xlink:href="#DejaVuSans-6e" transform="translate(2115.820312 0)"/>
     <use xlink:href="#DejaVuSans-75" transform="translate(2179.199219 0)"/>
     <use xlink:href="#DejaVuSans-73" transform="translate(2242.578125 0)"/>
     <use xlink:href="#DejaVuSans-63" transform="translate(2294.677734 0)"/>
     <use xlink:href="#DejaVuSans-72" transform="translate(2349.658203 0)"/>
     <use xlink:href="#DejaVuSans-69" transform="translate(2390.771484 0)"/>
     <use xlink:href="#DejaVuSans-70" transform="translate(2418.554688 0)"/>
     <use xlink:href="#DejaVuSans-74" transform="translate(2482.03125 0)"/>
     <use xlink:href="#DejaVuSans-20" transform="translate(2521.240234 0)"/>
     <use xlink:href="#DejaVuSans-52" transform="translate(2553.027344 0)"/>
     <use xlink:href="#DejaVuSans-65" transform="translate(2618.009766 0)"/>
     <use xlink:href="#DejaVuSans-66" transform="translate(2679.533203 0)"/>
     <use xlink:href="#DejaVuSans-65" transform="translate(2714.738281 0)"/>
     <use xlink:href="#DejaVuSans-72" transform="translate(2776.261719 0)"/>
     <use xlink:href="#DejaVuSans-65" transform="translate(2815.125 0)"/>
     <use xlink:href="#DejaVuSans-6e" transform="translate(2876.648438 0)"/>
     <use xlink:href="#DejaVuSans-63" transform="translate(2940.027344 0)"/>
     <use xlink:href="#DejaVuSans-65" transform="translate(2995.007812 0)"/>
     <use xlink:href="#DejaVuSans-73" transform="translate(3056.53125 0)"/>
    </g>
   </g>
   <g id="line2d_35">
    <path d="M 76.112959 277.218469 
L 222.238834 189.268315 
L 368.364708 37.673059 
L 514.490583 204.837365 
L 660.616458 303.477058 
L 806.742333 189.214387 
" clip-path="url(#p20d7e549bd)" style="fill: none; stroke: #d00000; stroke-opacity: 0.95; stroke-width: 4; stroke-linecap: square"/>
   </g>
   <g id="line2d_36">
    <path d="M 76.112959 277.218469 
L 222.238834 428.766941 
L 368.364708 195.705485 
L 514.490583 428.766941 
L 660.616458 428.766941 
L 806.742333 428.766941 
" clip-path="url(#p20d7e549bd)" style="fill: none; stroke: #003566; stroke-opacity: 0.95; stroke-width: 4; stroke-linecap: square"/>
   </g>
   <g id="PathCollection_17">
    <defs>
     <path id="m639e2ce278" d="M 0 4.031129 
C 1.069068 4.031129 2.094493 3.606384 2.850439 2.850439 
C 3.606384 2.094493 4.031129 1.069068 4.031129 0 
C 4.031129 -1.069068 3.606384 -2.094493 2.850439 -2.850439 
C 2.094493 -3.606384 1.069068 -4.031129 0 -4.031129 
C -1.069068 -4.031129 -2.094493 -3.606384 -2.850439 -2.850439 
C -3.606384 -2.094493 -4.031129 -1.069068 -4.031129 0 
C -4.031129 1.069068 -3.606384 2.094493 -2.850439 2.850439 
C -2.094493 3.606384 -1.069068 4.031129 0 4.031129 
z
" style="stroke: #000000"/>
    </defs>
    <g clip-path="url(#p20d7e549bd)">
     <use xlink:href="#m639e2ce278" x="76.112959" y="277.218469" style="fill: #d00000; stroke: #000000"/>
     <use xlink:href="#m639e2ce278" x="222.238834" y="189.268315" style="fill: #d00000; stroke: #000000"/>
     <use xlink:href="#m639e2ce278" x="368.364708" y="37.673059" style="fill: #d00000; stroke: #000000"/>
     <use xlink:href="#m639e2ce278" x="514.490583" y="204.837365" style="fill: #d00000; stroke: #000000"/>
     <use xlink:href="#m639e2ce278" x="660.616458" y="303.477058" style="fill: #d00000; stroke: #000000"/>
     <use xlink:href="#m639e2ce278" x="806.742333" y="189.214387" style="fill: #d00000; stroke: #000000"/>
    </g>
   </g>
   <g id="PathCollection_18">
    <defs>
     <path id="mfbecdca02c" d="M 0 4.031129 
C 1.069068 4.031129 2.094493 3.606384 2.850439 2.850439 
C 3.606384 2.094493 4.031129 1.069068 4.031129 0 
C 4.031129 -1.069068 3.606384 -2.094493 2.850439 -2.850439 
C 2.094493 -3.606384 1.069068 -4.031129 0 -4.031129 
C -1.069068 -4.031129 -2.094493 -3.606384 -2.850439 -2.850439 
C -3.606384 -2.094493 -4.031129 -1.069068 -4.031129 0 
C -4.031129 1.069068 -3.606384 2.094493 -2.850439 2.850439 
C -2.094493 3.606384 -1.069068 4.031129 0 4.031129 
z
" style="stroke: #000000"/>
    </defs>
    <g clip-path="url(#p20d7e549bd)">
     <use xlink:href="#mfbecdca02c" x="76.112959" y="277.218469" style="fill: #003566; stroke: #000000"/>
     <use xlink:href="#mfbecdca02c" x="222.238834" y="428.766941" style="fill: #003566; stroke: #000000"/>
     <use xlink:href="#mfbecdca02c" x="368.364708" y="195.705485" style="fill: #003566; stroke: #000000"/>
     <use xlink:href="#mfbecdca02c" x="514.490583" y="428.766941" style="fill: #003566; stroke: #000000"/>
     <use xlink:href="#mfbecdca02c" x="660.616458" y="428.766941" style="fill: #003566; stroke: #000000"/>
     <use xlink:href="#mfbecdca02c" x="806.742333" y="428.766941" style="fill: #003566; stroke: #000000"/>
    </g>
   </g>
  </g>
 </g>
 <defs>
  <clipPath id="p20d7e549bd">
   <rect x="39.58149" y="18.118365" width="803.692312" height="430.20327"/>
  </clipPath>
 </defs>
</svg>
