<?xml version="1.0" encoding="utf-8" standalone="no"?>
<!DOCTYPE svg PUBLIC "-//W3C//DTD SVG 1.1//EN"
  "http://www.w3.org/Graphics/SVG/1.1/DTD/svg11.dtd">
<svg xmlns:xlink="http://www.w3.org/1999/xlink" width="900pt" height="453.6pt" viewBox="0 0 900 453.6" xmlns="http://www.w3.org/2000/svg" version="1.1">
 <metadata>
  <rdf:RDF xmlns:dc="http://purl.org/dc/elements/1.1/" xmlns:cc="http://creativecommons.org/ns#" xmlns:rdf="http://www.w3.org/1999/02/22-rdf-syntax-ns#">
   <cc:Work>
    <dc:type rdf:resource="http://purl.org/dc/dcmitype/StillImage"/>
    <dc:date>2026-05-07T11:37:14.455557</dc:date>
    <dc:format>image/svg+xml</dc:format>
    <dc:creator>
     <cc:Agent>
      <dc:title>Matplotlib v3.10.8, https://matplotlib.org/</dc:title>
     </cc:Agent>
    </dc:creator>
   </cc:Work>
  </rdf:RDF>
 </metadata>
 <defs>
  <style type="text/css">*{stroke-linejoin: round; stroke-linecap: butt}</style>
 </defs>
 <g id="figure_1">
  <g id="patch_1">
   <path d="M 0 453.6 
L 900 453.6 
L 900 0 
L 0 0 
z
" style="fill: #ffffff"/>
  </g>
  <g id="axes_1">
   <g id="patch_2">
    <path d="M 64.943427 349.740107 
L 896.99976 349.740107 
L 896.99976 31.55574 
L 64.943427 31.55574 
z
" style="fill: #ffffff"/>
   </g>
   <g id="patch_3">
    <path d="M 102.764169 327.614699 
L 109.96812 327.614699 
L 109.96812 332.882656 
L 102.764169 332.882656 
z
" clip-path="url(#p69b17fbf64)" style="fill: #1f77b4"/>
   </g>
   <g id="patch_4">
    <path d="M 150.790509 327.614699 
L 157.99446 327.614699 
L 157.99446 330.775473 
L 150.790509 330.775473 
z
" clip-path="url(#p69b17fbf64)" style="fill: #1f77b4"/>
   </g>
   <g id="patch_5">
    <path d="M 198.816848 327.614699 
L 206.020799 327.614699 
L 206.020799 326.177984 
L 198.816848 326.177984 
z
" clip-path="url(#p69b17fbf64)" style="fill: #1f77b4"/>
   </g>
   <g id="patch_6">
    <path d="M 246.843188 327.614699 
L 254.047139 327.614699 
L 254.047139 335.085619 
L 246.843188 335.085619 
z
" clip-path="url(#p69b17fbf64)" style="fill: #1f77b4"/>
   </g>
   <g id="patch_7">
    <path d="M 294.869527 327.614699 
L 302.073478 327.614699 
L 302.073478 335.277181 
L 294.869527 335.277181 
z
" clip-path="url(#p69b17fbf64)" style="fill: #1f77b4"/>
   </g>
   <g id="patch_8">
    <path d="M 342.895867 327.614699 
L 350.099818 327.614699 
L 350.099818 335.277181 
L 342.895867 335.277181 
z
" clip-path="url(#p69b17fbf64)" style="fill: #1f77b4"/>
   </g>
   <g id="patch_9">
    <path d="M 390.922207 327.614699 
L 398.126157 327.614699 
L 398.126157 327.614699 
L 390.922207 327.614699 
z
" clip-path="url(#p69b17fbf64)" style="fill: #1f77b4"/>
   </g>
   <g id="patch_10">
    <path d="M 438.948546 327.614699 
L 446.152497 327.614699 
L 446.152497 335.277181 
L 438.948546 335.277181 
z
" clip-path="url(#p69b17fbf64)" style="fill: #1f77b4"/>
   </g>
   <g id="patch_11">
    <path d="M 486.974886 327.614699 
L 494.178837 327.614699 
L 494.178837 335.277181 
L 486.974886 335.277181 
z
" clip-path="url(#p69b17fbf64)" style="fill: #1f77b4"/>
   </g>
   <g id="patch_12">
    <path d="M 535.001225 327.614699 
L 542.205176 327.614699 
L 542.205176 334.894057 
L 535.001225 334.894057 
z
" clip-path="url(#p69b17fbf64)" style="fill: #1f77b4"/>
   </g>
   <g id="patch_13">
    <path d="M 583.027565 327.614699 
L 590.231516 327.614699 
L 590.231516 335.277181 
L 583.027565 335.277181 
z
" clip-path="url(#p69b17fbf64)" style="fill: #1f77b4"/>
   </g>
   <g id="patch_14">
    <path d="M 631.053904 327.614699 
L 638.257855 327.614699 
L 638.257855 332.403751 
L 631.053904 332.403751 
z
" clip-path="url(#p69b17fbf64)" style="fill: #1f77b4"/>
   </g>
   <g id="patch_15">
    <path d="M 679.080244 327.614699 
L 686.284195 327.614699 
L 686.284195 334.894057 
L 679.080244 334.894057 
z
" clip-path="url(#p69b17fbf64)" style="fill: #1f77b4"/>
   </g>
   <g id="patch_16">
    <path d="M 727.106584 327.614699 
L 734.310535 327.614699 
L 734.310535 317.940815 
L 727.106584 317.940815 
z
" clip-path="url(#p69b17fbf64)" style="fill: #1f77b4"/>
   </g>
   <g id="patch_17">
    <path d="M 775.132923 327.614699 
L 782.336874 327.614699 
L 782.336874 326.158828 
L 775.132923 326.158828 
z
" clip-path="url(#p69b17fbf64)" style="fill: #1f77b4"/>
   </g>
   <g id="patch_18">
    <path d="M 823.159263 327.614699 
L 830.363214 327.614699 
L 830.363214 215.263554 
L 823.159263 215.263554 
z
" clip-path="url(#p69b17fbf64)" style="fill: #1f77b4"/>
   </g>
   <g id="patch_19">
    <path d="M 109.96812 327.614699 
L 117.172071 327.614699 
L 117.172071 323.819376 
L 109.96812 323.819376 
z
" clip-path="url(#p69b17fbf64)" style="fill: #ff7f0e"/>
   </g>
   <g id="patch_20">
    <path d="M 157.99446 327.614699 
L 165.19841 327.614699 
L 165.19841 332.140353 
L 157.99446 332.140353 
z
" clip-path="url(#p69b17fbf64)" style="fill: #ff7f0e"/>
   </g>
   <g id="patch_21">
    <path d="M 206.020799 327.614699 
L 213.22475 327.614699 
L 213.22475 334.484593 
L 206.020799 334.484593 
z
" clip-path="url(#p69b17fbf64)" style="fill: #ff7f0e"/>
   </g>
   <g id="patch_22">
    <path d="M 254.047139 327.614699 
L 261.25109 327.614699 
L 261.25109 321.80558 
L 254.047139 321.80558 
z
" clip-path="url(#p69b17fbf64)" style="fill: #ff7f0e"/>
   </g>
   <g id="patch_23">
    <path d="M 302.073478 327.614699 
L 309.277429 327.614699 
L 309.277429 320.266858 
L 302.073478 320.266858 
z
" clip-path="url(#p69b17fbf64)" style="fill: #ff7f0e"/>
   </g>
   <g id="patch_24">
    <path d="M 350.099818 327.614699 
L 357.303769 327.614699 
L 357.303769 317.093153 
L 350.099818 317.093153 
z
" clip-path="url(#p69b17fbf64)" style="fill: #ff7f0e"/>
   </g>
   <g id="patch_25">
    <path d="M 398.126157 327.614699 
L 405.330108 327.614699 
L 405.330108 333.807421 
L 398.126157 333.807421 
z
" clip-path="url(#p69b17fbf64)" style="fill: #ff7f0e"/>
   </g>
   <g id="patch_26">
    <path d="M 446.152497 327.614699 
L 453.356448 327.614699 
L 453.356448 320.266858 
L 446.152497 320.266858 
z
" clip-path="url(#p69b17fbf64)" style="fill: #ff7f0e"/>
   </g>
   <g id="patch_27">
    <path d="M 494.178837 327.614699 
L 501.382788 327.614699 
L 501.382788 320.266858 
L 494.178837 320.266858 
z
" clip-path="url(#p69b17fbf64)" style="fill: #ff7f0e"/>
   </g>
   <g id="patch_28">
    <path d="M 542.205176 327.614699 
L 549.409127 327.614699 
L 549.409127 320.443095 
L 542.205176 320.443095 
z
" clip-path="url(#p69b17fbf64)" style="fill: #ff7f0e"/>
   </g>
   <g id="patch_29">
    <path d="M 590.231516 327.614699 
L 597.435467 327.614699 
L 597.435467 317.093153 
L 590.231516 317.093153 
z
" clip-path="url(#p69b17fbf64)" style="fill: #ff7f0e"/>
   </g>
   <g id="patch_30">
    <path d="M 638.257855 327.614699 
L 645.461806 327.614699 
L 645.461806 322.899878 
L 638.257855 322.899878 
z
" clip-path="url(#p69b17fbf64)" style="fill: #ff7f0e"/>
   </g>
   <g id="patch_31">
    <path d="M 686.284195 327.614699 
L 693.488146 327.614699 
L 693.488146 289.04799 
L 686.284195 289.04799 
z
" clip-path="url(#p69b17fbf64)" style="fill: #ff7f0e"/>
   </g>
   <g id="patch_32">
    <path d="M 734.310535 327.614699 
L 741.514486 327.614699 
L 741.514486 333.301698 
L 734.310535 333.301698 
z
" clip-path="url(#p69b17fbf64)" style="fill: #ff7f0e"/>
   </g>
   <g id="patch_33">
    <path d="M 782.336874 327.614699 
L 789.540825 327.614699 
L 789.540825 321.311829 
L 782.336874 321.311829 
z
" clip-path="url(#p69b17fbf64)" style="fill: #ff7f0e"/>
   </g>
   <g id="patch_34">
    <path d="M 830.363214 327.614699 
L 837.567165 327.614699 
L 837.567165 332.140353 
L 830.363214 332.140353 
z
" clip-path="url(#p69b17fbf64)" style="fill: #ff7f0e"/>
   </g>
   <g id="patch_35">
    <path d="M 117.172071 327.614699 
L 124.376022 327.614699 
L 124.376022 331.17488 
L 117.172071 331.17488 
z
" clip-path="url(#p69b17fbf64)" style="fill: #2ca02c"/>
   </g>
   <g id="patch_36">
    <path d="M 165.19841 327.614699 
L 172.402361 327.614699 
L 172.402361 333.807421 
L 165.19841 333.807421 
z
" clip-path="url(#p69b17fbf64)" style="fill: #2ca02c"/>
   </g>
   <g id="patch_37">
    <path d="M 213.22475 327.614699 
L 220.428701 327.614699 
L 220.428701 334.078482 
L 213.22475 334.078482 
z
" clip-path="url(#p69b17fbf64)" style="fill: #2ca02c"/>
   </g>
   <g id="patch_38">
    <path d="M 261.25109 327.614699 
L 268.455041 327.614699 
L 268.455041 333.807421 
L 261.25109 333.807421 
z
" clip-path="url(#p69b17fbf64)" style="fill: #2ca02c"/>
   </g>
   <g id="patch_39">
    <path d="M 309.277429 327.614699 
L 316.48138 327.614699 
L 316.48138 333.807421 
L 309.277429 333.807421 
z
" clip-path="url(#p69b17fbf64)" style="fill: #2ca02c"/>
   </g>
   <g id="patch_40">
    <path d="M 357.303769 327.614699 
L 364.50772 327.614699 
L 364.50772 333.172872 
L 357.303769 333.172872 
z
" clip-path="url(#p69b17fbf64)" style="fill: #2ca02c"/>
   </g>
   <g id="patch_41">
    <path d="M 405.330108 327.614699 
L 412.534059 327.614699 
L 412.534059 333.807421 
L 405.330108 333.807421 
z
" clip-path="url(#p69b17fbf64)" style="fill: #2ca02c"/>
   </g>
   <g id="patch_42">
    <path d="M 453.356448 327.614699 
L 460.560399 327.614699 
L 460.560399 333.807421 
L 453.356448 333.807421 
z
" clip-path="url(#p69b17fbf64)" style="fill: #2ca02c"/>
   </g>
   <g id="patch_43">
    <path d="M 501.382788 327.614699 
L 508.586739 327.614699 
L 508.586739 333.807421 
L 501.382788 333.807421 
z
" clip-path="url(#p69b17fbf64)" style="fill: #2ca02c"/>
   </g>
   <g id="patch_44">
    <path d="M 549.409127 327.614699 
L 556.613078 327.614699 
L 556.613078 333.172872 
L 549.409127 333.172872 
z
" clip-path="url(#p69b17fbf64)" style="fill: #2ca02c"/>
   </g>
   <g id="patch_45">
    <path d="M 597.435467 327.614699 
L 604.639418 327.614699 
L 604.639418 333.172872 
L 597.435467 333.172872 
z
" clip-path="url(#p69b17fbf64)" style="fill: #2ca02c"/>
   </g>
   <g id="patch_46">
    <path d="M 645.461806 327.614699 
L 652.665757 327.614699 
L 652.665757 330.046101 
L 645.461806 330.046101 
z
" clip-path="url(#p69b17fbf64)" style="fill: #2ca02c"/>
   </g>
   <g id="patch_47">
    <path d="M 693.488146 327.614699 
L 700.692097 327.614699 
L 700.692097 325.638258 
L 693.488146 325.638258 
z
" clip-path="url(#p69b17fbf64)" style="fill: #2ca02c"/>
   </g>
   <g id="patch_48">
    <path d="M 741.514486 327.614699 
L 748.718437 327.614699 
L 748.718437 329.371802 
L 741.514486 329.371802 
z
" clip-path="url(#p69b17fbf64)" style="fill: #2ca02c"/>
   </g>
   <g id="patch_49">
    <path d="M 789.540825 327.614699 
L 796.744776 327.614699 
L 796.744776 318.905809 
L 789.540825 318.905809 
z
" clip-path="url(#p69b17fbf64)" style="fill: #2ca02c"/>
   </g>
   <g id="patch_50">
    <path d="M 837.567165 327.614699 
L 844.771116 327.614699 
L 844.771116 272.874405 
L 837.567165 272.874405 
z
" clip-path="url(#p69b17fbf64)" style="fill: #2ca02c"/>
   </g>
   <g id="patch_51">
    <path d="M 124.376022 327.614699 
L 131.579973 327.614699 
L 131.579973 321.868289 
L 124.376022 321.868289 
z
" clip-path="url(#p69b17fbf64)" style="fill: #d62728"/>
   </g>
   <g id="patch_52">
    <path d="M 172.402361 327.614699 
L 179.606312 327.614699 
L 179.606312 321.866934 
L 172.402361 321.866934 
z
" clip-path="url(#p69b17fbf64)" style="fill: #d62728"/>
   </g>
   <g id="patch_53">
    <path d="M 220.428701 327.614699 
L 227.632652 327.614699 
L 227.632652 323.094045 
L 220.428701 323.094045 
z
" clip-path="url(#p69b17fbf64)" style="fill: #d62728"/>
   </g>
   <g id="patch_54">
    <path d="M 268.455041 327.614699 
L 275.658992 327.614699 
L 275.658992 321.866934 
L 268.455041 321.866934 
z
" clip-path="url(#p69b17fbf64)" style="fill: #d62728"/>
   </g>
   <g id="patch_55">
    <path d="M 316.48138 327.614699 
L 323.685331 327.614699 
L 323.685331 321.866934 
L 316.48138 321.866934 
z
" clip-path="url(#p69b17fbf64)" style="fill: #d62728"/>
   </g>
   <g id="patch_56">
    <path d="M 364.50772 327.614699 
L 371.711671 327.614699 
L 371.711671 318.994283 
L 364.50772 318.994283 
z
" clip-path="url(#p69b17fbf64)" style="fill: #d62728"/>
   </g>
   <g id="patch_57">
    <path d="M 412.534059 327.614699 
L 419.73801 327.614699 
L 419.73801 302.7096 
L 412.534059 302.7096 
z
" clip-path="url(#p69b17fbf64)" style="fill: #d62728"/>
   </g>
   <g id="patch_58">
    <path d="M 460.560399 327.614699 
L 467.76435 327.614699 
L 467.76435 302.7096 
L 460.560399 302.7096 
z
" clip-path="url(#p69b17fbf64)" style="fill: #d62728"/>
   </g>
   <g id="patch_59">
    <path d="M 508.586739 327.614699 
L 515.790689 327.614699 
L 515.790689 302.7096 
L 508.586739 302.7096 
z
" clip-path="url(#p69b17fbf64)" style="fill: #d62728"/>
   </g>
   <g id="patch_60">
    <path d="M 556.613078 327.614699 
L 563.817029 327.614699 
L 563.817029 296.246134 
L 556.613078 296.246134 
z
" clip-path="url(#p69b17fbf64)" style="fill: #d62728"/>
   </g>
   <g id="patch_61">
    <path d="M 604.639418 327.614699 
L 611.843369 327.614699 
L 611.843369 296.246134 
L 604.639418 296.246134 
z
" clip-path="url(#p69b17fbf64)" style="fill: #d62728"/>
   </g>
   <g id="patch_62">
    <path d="M 652.665757 327.614699 
L 659.869708 327.614699 
L 659.869708 264.3971 
L 652.665757 264.3971 
z
" clip-path="url(#p69b17fbf64)" style="fill: #d62728"/>
   </g>
   <g id="patch_63">
    <path d="M 700.692097 327.614699 
L 707.896048 327.614699 
L 707.896048 325.699284 
L 700.692097 325.699284 
z
" clip-path="url(#p69b17fbf64)" style="fill: #d62728"/>
   </g>
   <g id="patch_64">
    <path d="M 748.718437 327.614699 
L 755.922387 327.614699 
L 755.922387 257.528752 
L 748.718437 257.528752 
z
" clip-path="url(#p69b17fbf64)" style="fill: #d62728"/>
   </g>
   <g id="patch_65">
    <path d="M 796.744776 327.614699 
L 803.948727 327.614699 
L 803.948727 150.923025 
L 796.744776 150.923025 
z
" clip-path="url(#p69b17fbf64)" style="fill: #d62728"/>
   </g>
   <g id="patch_66">
    <path d="M 844.771116 327.614699 
L 851.975067 327.614699 
L 851.975067 46.018666 
L 844.771116 46.018666 
z
" clip-path="url(#p69b17fbf64)" style="fill: #d62728"/>
   </g>
   <g id="patch_67">
    <path d="M 131.579973 327.614699 
L 138.783924 327.614699 
L 138.783924 323.819376 
L 131.579973 323.819376 
z
" clip-path="url(#p69b17fbf64)" style="fill: #9467bd"/>
   </g>
   <g id="patch_68">
    <path d="M 179.606312 327.614699 
L 186.810263 327.614699 
L 186.810263 332.140353 
L 179.606312 332.140353 
z
" clip-path="url(#p69b17fbf64)" style="fill: #9467bd"/>
   </g>
   <g id="patch_69">
    <path d="M 227.632652 327.614699 
L 234.836603 327.614699 
L 234.836603 334.484593 
L 227.632652 334.484593 
z
" clip-path="url(#p69b17fbf64)" style="fill: #9467bd"/>
   </g>
   <g id="patch_70">
    <path d="M 275.658992 327.614699 
L 282.862942 327.614699 
L 282.862942 321.80558 
L 275.658992 321.80558 
z
" clip-path="url(#p69b17fbf64)" style="fill: #9467bd"/>
   </g>
   <g id="patch_71">
    <path d="M 323.685331 327.614699 
L 330.889282 327.614699 
L 330.889282 320.266858 
L 323.685331 320.266858 
z
" clip-path="url(#p69b17fbf64)" style="fill: #9467bd"/>
   </g>
   <g id="patch_72">
    <path d="M 371.711671 327.614699 
L 378.915622 327.614699 
L 378.915622 317.093153 
L 371.711671 317.093153 
z
" clip-path="url(#p69b17fbf64)" style="fill: #9467bd"/>
   </g>
   <g id="patch_73">
    <path d="M 419.73801 327.614699 
L 426.941961 327.614699 
L 426.941961 333.807421 
L 419.73801 333.807421 
z
" clip-path="url(#p69b17fbf64)" style="fill: #9467bd"/>
   </g>
   <g id="patch_74">
    <path d="M 467.76435 327.614699 
L 474.968301 327.614699 
L 474.968301 320.266858 
L 467.76435 320.266858 
z
" clip-path="url(#p69b17fbf64)" style="fill: #9467bd"/>
   </g>
   <g id="patch_75">
    <path d="M 515.790689 327.614699 
L 522.99464 327.614699 
L 522.99464 320.266858 
L 515.790689 320.266858 
z
" clip-path="url(#p69b17fbf64)" style="fill: #9467bd"/>
   </g>
   <g id="patch_76">
    <path d="M 563.817029 327.614699 
L 571.02098 327.614699 
L 571.02098 320.443095 
L 563.817029 320.443095 
z
" clip-path="url(#p69b17fbf64)" style="fill: #9467bd"/>
   </g>
   <g id="patch_77">
    <path d="M 611.843369 327.614699 
L 619.04732 327.614699 
L 619.04732 317.093153 
L 611.843369 317.093153 
z
" clip-path="url(#p69b17fbf64)" style="fill: #9467bd"/>
   </g>
   <g id="patch_78">
    <path d="M 659.869708 327.614699 
L 667.073659 327.614699 
L 667.073659 322.899878 
L 659.869708 322.899878 
z
" clip-path="url(#p69b17fbf64)" style="fill: #9467bd"/>
   </g>
   <g id="patch_79">
    <path d="M 707.896048 327.614699 
L 715.099999 327.614699 
L 715.099999 289.04799 
L 707.896048 289.04799 
z
" clip-path="url(#p69b17fbf64)" style="fill: #9467bd"/>
   </g>
   <g id="patch_80">
    <path d="M 755.922387 327.614699 
L 763.126338 327.614699 
L 763.126338 333.301698 
L 755.922387 333.301698 
z
" clip-path="url(#p69b17fbf64)" style="fill: #9467bd"/>
   </g>
   <g id="patch_81">
    <path d="M 803.948727 327.614699 
L 811.152678 327.614699 
L 811.152678 321.311829 
L 803.948727 321.311829 
z
" clip-path="url(#p69b17fbf64)" style="fill: #9467bd"/>
   </g>
   <g id="patch_82">
    <path d="M 851.975067 327.614699 
L 859.179018 327.614699 
L 859.179018 332.140353 
L 851.975067 332.140353 
z
" clip-path="url(#p69b17fbf64)" style="fill: #9467bd"/>
   </g>
   <g id="matplotlib.axis_1">
    <g id="xtick_1">
     <g id="line2d_1">
      <defs>
       <path id="md19394664a" d="M 0 0 
L 0 3.5 
" style="stroke: #000000; stroke-width: 0.8"/>
      </defs>
      <g>
       <use xlink:href="#md19394664a" x="120.774046" y="349.740107" style="stroke: #000000; stroke-width: 0.8"/>
      </g>
     </g>
     <g id="text_1">
      <!-- gpt4omini_rescued/gemma -->
      <g transform="translate(7.362941 441.428743) rotate(-35) scale(0.1 -0.1)">
       <defs>
        <path id="DejaVuSans-67" d="M 2906 1791 
Q 2906 2416 2648 2759 
Q 2391 3103 1925 3103 
Q 1463 3103 1205 2759 
Q 947 2416 947 1791 
Q 947 1169 1205 825 
Q 1463 481 1925 481 
Q 2391 481 2648 825 
Q 2906 1169 2906 1791 
z
M 3481 434 
Q 3481 -459 3084 -895 
Q 2688 -1331 1869 -1331 
Q 1566 -1331 1297 -1286 
Q 1028 -1241 775 -1147 
L 775 -588 
Q 1028 -725 1275 -790 
Q 1522 -856 1778 -856 
Q 2344 -856 2625 -561 
Q 2906 -266 2906 331 
L 2906 616 
Q 2728 306 2450 153 
Q 2172 0 1784 0 
Q 1141 0 747 490 
Q 353 981 353 1791 
Q 353 2603 747 3093 
Q 1141 3584 1784 3584 
Q 2172 3584 2450 3431 
Q 2728 3278 2906 2969 
L 2906 3500 
L 3481 3500 
L 3481 434 
z
" transform="scale(0.015625)"/>
        <path id="DejaVuSans-70" d="M 1159 525 
L 1159 -1331 
L 581 -1331 
L 581 3500 
L 1159 3500 
L 1159 2969 
Q 1341 3281 1617 3432 
Q 1894 3584 2278 3584 
Q 2916 3584 3314 3078 
Q 3713 2572 3713 1747 
Q 3713 922 3314 415 
Q 2916 -91 2278 -91 
Q 1894 -91 1617 61 
Q 1341 213 1159 525 
z
M 3116 1747 
Q 3116 2381 2855 2742 
Q 2594 3103 2138 3103 
Q 1681 3103 1420 2742 
Q 1159 2381 1159 1747 
Q 1159 1113 1420 752 
Q 1681 391 2138 391 
Q 2594 391 2855 752 
Q 3116 1113 3116 1747 
z
" transform="scale(0.015625)"/>
        <path id="DejaVuSans-74" d="M 1172 4494 
L 1172 3500 
L 2356 3500 
L 2356 3053 
L 1172 3053 
L 1172 1153 
Q 1172 725 1289 603 
Q 1406 481 1766 481 
L 2356 481 
L 2356 0 
L 1766 0 
Q 1100 0 847 248 
Q 594 497 594 1153 
L 594 3053 
L 172 3053 
L 172 3500 
L 594 3500 
L 594 4494 
L 1172 4494 
z
" transform="scale(0.015625)"/>
        <path id="DejaVuSans-34" d="M 2419 4116 
L 825 1625 
L 2419 1625 
L 2419 4116 
z
M 2253 4666 
L 3047 4666 
L 3047 1625 
L 3713 1625 
L 3713 1100 
L 3047 1100 
L 3047 0 
L 2419 0 
L 2419 1100 
L 313 1100 
L 313 1709 
L 2253 4666 
z
" transform="scale(0.015625)"/>
        <path id="DejaVuSans-6f" d="M 1959 3097 
Q 1497 3097 1228 2736 
Q 959 2375 959 1747 
Q 959 1119 1226 758 
Q 1494 397 1959 397 
Q 2419 397 2687 759 
Q 2956 1122 2956 1747 
Q 2956 2369 2687 2733 
Q 2419 3097 1959 3097 
z
M 1959 3584 
Q 2709 3584 3137 3096 
Q 3566 2609 3566 1747 
Q 3566 888 3137 398 
Q 2709 -91 1959 -91 
Q 1206 -91 779 398 
Q 353 888 353 1747 
Q 353 2609 779 3096 
Q 1206 3584 1959 3584 
z
" transform="scale(0.015625)"/>
        <path id="DejaVuSans-6d" d="M 3328 2828 
Q 3544 3216 3844 3400 
Q 4144 3584 4550 3584 
Q 5097 3584 5394 3201 
Q 5691 2819 5691 2113 
L 5691 0 
L 5113 0 
L 5113 2094 
Q 5113 2597 4934 2840 
Q 4756 3084 4391 3084 
Q 3944 3084 3684 2787 
Q 3425 2491 3425 1978 
L 3425 0 
L 2847 0 
L 2847 2094 
Q 2847 2600 2669 2842 
Q 2491 3084 2119 3084 
Q 1678 3084 1418 2786 
Q 1159 2488 1159 1978 
L 1159 0 
L 581 0 
L 581 3500 
L 1159 3500 
L 1159 2956 
Q 1356 3278 1631 3431 
Q 1906 3584 2284 3584 
Q 2666 3584 2933 3390 
Q 3200 3197 3328 2828 
z
" transform="scale(0.015625)"/>
        <path id="DejaVuSans-69" d="M 603 3500 
L 1178 3500 
L 1178 0 
L 603 0 
L 603 3500 
z
M 603 4863 
L 1178 4863 
L 1178 4134 
L 603 4134 
L 603 4863 
z
" transform="scale(0.015625)"/>
        <path id="DejaVuSans-6e" d="M 3513 2113 
L 3513 0 
L 2938 0 
L 2938 2094 
Q 2938 2591 2744 2837 
Q 2550 3084 2163 3084 
Q 1697 3084 1428 2787 
Q 1159 2491 1159 1978 
L 1159 0 
L 581 0 
L 581 3500 
L 1159 3500 
L 1159 2956 
Q 1366 3272 1645 3428 
Q 1925 3584 2291 3584 
Q 2894 3584 3203 3211 
Q 3513 2838 3513 2113 
z
" transform="scale(0.015625)"/>
        <path id="DejaVuSans-5f" d="M 3263 -1063 
L 3263 -1509 
L -63 -1509 
L -63 -1063 
L 3263 -1063 
z
" transform="scale(0.015625)"/>
        <path id="DejaVuSans-72" d="M 2631 2963 
Q 2534 3019 2420 3045 
Q 2306 3072 2169 3072 
Q 1681 3072 1420 2755 
Q 1159 2438 1159 1844 
L 1159 0 
L 581 0 
L 581 3500 
L 1159 3500 
L 1159 2956 
Q 1341 3275 1631 3429 
Q 1922 3584 2338 3584 
Q 2397 3584 2469 3576 
Q 2541 3569 2628 3553 
L 2631 2963 
z
" transform="scale(0.015625)"/>
        <path id="DejaVuSans-65" d="M 3597 1894 
L 3597 1613 
L 953 1613 
Q 991 1019 1311 708 
Q 1631 397 2203 397 
Q 2534 397 2845 478 
Q 3156 559 3463 722 
L 3463 178 
Q 3153 47 2828 -22 
Q 2503 -91 2169 -91 
Q 1331 -91 842 396 
Q 353 884 353 1716 
Q 353 2575 817 3079 
Q 1281 3584 2069 3584 
Q 2775 3584 3186 3129 
Q 3597 2675 3597 1894 
z
M 3022 2063 
Q 3016 2534 2758 2815 
Q 2500 3097 2075 3097 
Q 1594 3097 1305 2825 
Q 1016 2553 972 2059 
L 3022 2063 
z
" transform="scale(0.015625)"/>
        <path id="DejaVuSans-73" d="M 2834 3397 
L 2834 2853 
Q 2591 2978 2328 3040 
Q 2066 3103 1784 3103 
Q 1356 3103 1142 2972 
Q 928 2841 928 2578 
Q 928 2378 1081 2264 
Q 1234 2150 1697 2047 
L 1894 2003 
Q 2506 1872 2764 1633 
Q 3022 1394 3022 966 
Q 3022 478 2636 193 
Q 2250 -91 1575 -91 
Q 1294 -91 989 -36 
Q 684 19 347 128 
L 347 722 
Q 666 556 975 473 
Q 1284 391 1588 391 
Q 1994 391 2212 530 
Q 2431 669 2431 922 
Q 2431 1156 2273 1281 
Q 2116 1406 1581 1522 
L 1381 1569 
Q 847 1681 609 1914 
Q 372 2147 372 2553 
Q 372 3047 722 3315 
Q 1072 3584 1716 3584 
Q 2034 3584 2315 3537 
Q 2597 3491 2834 3397 
z
" transform="scale(0.015625)"/>
        <path id="DejaVuSans-63" d="M 3122 3366 
L 3122 2828 
Q 2878 2963 2633 3030 
Q 2388 3097 2138 3097 
Q 1578 3097 1268 2742 
Q 959 2388 959 1747 
Q 959 1106 1268 751 
Q 1578 397 2138 397 
Q 2388 397 2633 464 
Q 2878 531 3122 666 
L 3122 134 
Q 2881 22 2623 -34 
Q 2366 -91 2075 -91 
Q 1284 -91 818 406 
Q 353 903 353 1747 
Q 353 2603 823 3093 
Q 1294 3584 2113 3584 
Q 2378 3584 2631 3529 
Q 2884 3475 3122 3366 
z
" transform="scale(0.015625)"/>
        <path id="DejaVuSans-75" d="M 544 1381 
L 544 3500 
L 1119 3500 
L 1119 1403 
Q 1119 906 1312 657 
Q 1506 409 1894 409 
Q 2359 409 2629 706 
Q 2900 1003 2900 1516 
L 2900 3500 
L 3475 3500 
L 3475 0 
L 2900 0 
L 2900 538 
Q 2691 219 2414 64 
Q 2138 -91 1772 -91 
Q 1169 -91 856 284 
Q 544 659 544 1381 
z
M 1991 3584 
L 1991 3584 
z
" transform="scale(0.015625)"/>
        <path id="DejaVuSans-64" d="M 2906 2969 
L 2906 4863 
L 3481 4863 
L 3481 0 
L 2906 0 
L 2906 525 
Q 2725 213 2448 61 
Q 2172 -91 1784 -91 
Q 1150 -91 751 415 
Q 353 922 353 1747 
Q 353 2572 751 3078 
Q 1150 3584 1784 3584 
Q 2172 3584 2448 3432 
Q 2725 3281 2906 2969 
z
M 947 1747 
Q 947 1113 1208 752 
Q 1469 391 1925 391 
Q 2381 391 2643 752 
Q 2906 1113 2906 1747 
Q 2906 2381 2643 2742 
Q 2381 3103 1925 3103 
Q 1469 3103 1208 2742 
Q 947 2381 947 1747 
z
" transform="scale(0.015625)"/>
        <path id="DejaVuSans-2f" d="M 1625 4666 
L 2156 4666 
L 531 -594 
L 0 -594 
L 1625 4666 
z
" transform="scale(0.015625)"/>
        <path id="DejaVuSans-61" d="M 2194 1759 
Q 1497 1759 1228 1600 
Q 959 1441 959 1056 
Q 959 750 1161 570 
Q 1363 391 1709 391 
Q 2188 391 2477 730 
Q 2766 1069 2766 1631 
L 2766 1759 
L 2194 1759 
z
M 3341 1997 
L 3341 0 
L 2766 0 
L 2766 531 
Q 2569 213 2275 61 
Q 1981 -91 1556 -91 
Q 1019 -91 701 211 
Q 384 513 384 1019 
Q 384 1609 779 1909 
Q 1175 2209 1959 2209 
L 2766 2209 
L 2766 2266 
Q 2766 2663 2505 2880 
Q 2244 3097 1772 3097 
Q 1472 3097 1187 3025 
Q 903 2953 641 2809 
L 641 3341 
Q 956 3463 1253 3523 
Q 1550 3584 1831 3584 
Q 2591 3584 2966 3190 
Q 3341 2797 3341 1997 
z
" transform="scale(0.015625)"/>
       </defs>
       <use xlink:href="#DejaVuSans-67"/>
       <use xlink:href="#DejaVuSans-70" transform="translate(63.476562 0)"/>
       <use xlink:href="#DejaVuSans-74" transform="translate(126.953125 0)"/>
       <use xlink:href="#DejaVuSans-34" transform="translate(166.162109 0)"/>
       <use xlink:href="#DejaVuSans-6f" transform="translate(229.785156 0)"/>
       <use xlink:href="#DejaVuSans-6d" transform="translate(290.966797 0)"/>
       <use xlink:href="#DejaVuSans-69" transform="translate(388.378906 0)"/>
       <use xlink:href="#DejaVuSans-6e" transform="translate(416.162109 0)"/>
       <use xlink:href="#DejaVuSans-69" transform="translate(479.541016 0)"/>
       <use xlink:href="#DejaVuSans-5f" transform="translate(507.324219 0)"/>
       <use xlink:href="#DejaVuSans-72" transform="translate(557.324219 0)"/>
       <use xlink:href="#DejaVuSans-65" transform="translate(596.1875 0)"/>
       <use xlink:href="#DejaVuSans-73" transform="translate(657.710938 0)"/>
       <use xlink:href="#DejaVuSans-63" transform="translate(709.810547 0)"/>
       <use xlink:href="#DejaVuSans-75" transform="translate(764.791016 0)"/>
       <use xlink:href="#DejaVuSans-65" transform="translate(828.169922 0)"/>
       <use xlink:href="#DejaVuSans-64" transform="translate(889.693359 0)"/>
       <use xlink:href="#DejaVuSans-2f" transform="translate(953.169922 0)"/>
       <use xlink:href="#DejaVuSans-67" transform="translate(986.861328 0)"/>
       <use xlink:href="#DejaVuSans-65" transform="translate(1050.337891 0)"/>
       <use xlink:href="#DejaVuSans-6d" transform="translate(1111.861328 0)"/>
       <use xlink:href="#DejaVuSans-6d" transform="translate(1209.273438 0)"/>
       <use xlink:href="#DejaVuSans-61" transform="translate(1306.685547 0)"/>
      </g>
     </g>
    </g>
    <g id="xtick_2">
     <g id="line2d_2">
      <g>
       <use xlink:href="#md19394664a" x="168.800386" y="349.740107" style="stroke: #000000; stroke-width: 0.8"/>
      </g>
     </g>
     <g id="text_2">
      <!-- gemma_rescued/gemma -->
      <g transform="translate(65.728515 434.189133) rotate(-35) scale(0.1 -0.1)">
       <use xlink:href="#DejaVuSans-67"/>
       <use xlink:href="#DejaVuSans-65" transform="translate(63.476562 0)"/>
       <use xlink:href="#DejaVuSans-6d" transform="translate(125 0)"/>
       <use xlink:href="#DejaVuSans-6d" transform="translate(222.412109 0)"/>
       <use xlink:href="#DejaVuSans-61" transform="translate(319.824219 0)"/>
       <use xlink:href="#DejaVuSans-5f" transform="translate(381.103516 0)"/>
       <use xlink:href="#DejaVuSans-72" transform="translate(431.103516 0)"/>
       <use xlink:href="#DejaVuSans-65" transform="translate(469.966797 0)"/>
       <use xlink:href="#DejaVuSans-73" transform="translate(531.490234 0)"/>
       <use xlink:href="#DejaVuSans-63" transform="translate(583.589844 0)"/>
       <use xlink:href="#DejaVuSans-75" transform="translate(638.570312 0)"/>
       <use xlink:href="#DejaVuSans-65" transform="translate(701.949219 0)"/>
       <use xlink:href="#DejaVuSans-64" transform="translate(763.472656 0)"/>
       <use xlink:href="#DejaVuSans-2f" transform="translate(826.949219 0)"/>
       <use xlink:href="#DejaVuSans-67" transform="translate(860.640625 0)"/>
       <use xlink:href="#DejaVuSans-65" transform="translate(924.117188 0)"/>
       <use xlink:href="#DejaVuSans-6d" transform="translate(985.640625 0)"/>
       <use xlink:href="#DejaVuSans-6d" transform="translate(1083.052734 0)"/>
       <use xlink:href="#DejaVuSans-61" transform="translate(1180.464844 0)"/>
      </g>
     </g>
    </g>
    <g id="xtick_3">
     <g id="line2d_3">
      <g>
       <use xlink:href="#md19394664a" x="216.826726" y="349.740107" style="stroke: #000000; stroke-width: 0.8"/>
      </g>
     </g>
     <g id="text_3">
      <!-- gpt4omini_rescued/claude -->
      <g transform="translate(107.402587 438.637039) rotate(-35) scale(0.1 -0.1)">
       <defs>
        <path id="DejaVuSans-6c" d="M 603 4863 
L 1178 4863 
L 1178 0 
L 603 0 
L 603 4863 
z
" transform="scale(0.015625)"/>
       </defs>
       <use xlink:href="#DejaVuSans-67"/>
       <use xlink:href="#DejaVuSans-70" transform="translate(63.476562 0)"/>
       <use xlink:href="#DejaVuSans-74" transform="translate(126.953125 0)"/>
       <use xlink:href="#DejaVuSans-34" transform="translate(166.162109 0)"/>
       <use xlink:href="#DejaVuSans-6f" transform="translate(229.785156 0)"/>
       <use xlink:href="#DejaVuSans-6d" transform="translate(290.966797 0)"/>
       <use xlink:href="#DejaVuSans-69" transform="translate(388.378906 0)"/>
       <use xlink:href="#DejaVuSans-6e" transform="translate(416.162109 0)"/>
       <use xlink:href="#DejaVuSans-69" transform="translate(479.541016 0)"/>
       <use xlink:href="#DejaVuSans-5f" transform="translate(507.324219 0)"/>
       <use xlink:href="#DejaVuSans-72" transform="translate(557.324219 0)"/>
       <use xlink:href="#DejaVuSans-65" transform="translate(596.1875 0)"/>
       <use xlink:href="#DejaVuSans-73" transform="translate(657.710938 0)"/>
       <use xlink:href="#DejaVuSans-63" transform="translate(709.810547 0)"/>
       <use xlink:href="#DejaVuSans-75" transform="translate(764.791016 0)"/>
       <use xlink:href="#DejaVuSans-65" transform="translate(828.169922 0)"/>
       <use xlink:href="#DejaVuSans-64" transform="translate(889.693359 0)"/>
       <use xlink:href="#DejaVuSans-2f" transform="translate(953.169922 0)"/>
       <use xlink:href="#DejaVuSans-63" transform="translate(986.861328 0)"/>
       <use xlink:href="#DejaVuSans-6c" transform="translate(1041.841797 0)"/>
       <use xlink:href="#DejaVuSans-61" transform="translate(1069.625 0)"/>
       <use xlink:href="#DejaVuSans-75" transform="translate(1130.904297 0)"/>
       <use xlink:href="#DejaVuSans-64" transform="translate(1194.283203 0)"/>
       <use xlink:href="#DejaVuSans-65" transform="translate(1257.759766 0)"/>
      </g>
     </g>
    </g>
    <g id="xtick_4">
     <g id="line2d_4">
      <g>
       <use xlink:href="#md19394664a" x="264.853065" y="349.740107" style="stroke: #000000; stroke-width: 0.8"/>
      </g>
     </g>
     <g id="text_4">
      <!-- gpt4o/gemma -->
      <g transform="translate(205.84599 403.446332) rotate(-35) scale(0.1 -0.1)">
       <use xlink:href="#DejaVuSans-67"/>
       <use xlink:href="#DejaVuSans-70" transform="translate(63.476562 0)"/>
       <use xlink:href="#DejaVuSans-74" transform="translate(126.953125 0)"/>
       <use xlink:href="#DejaVuSans-34" transform="translate(166.162109 0)"/>
       <use xlink:href="#DejaVuSans-6f" transform="translate(229.785156 0)"/>
       <use xlink:href="#DejaVuSans-2f" transform="translate(290.966797 0)"/>
       <use xlink:href="#DejaVuSans-67" transform="translate(324.658203 0)"/>
       <use xlink:href="#DejaVuSans-65" transform="translate(388.134766 0)"/>
       <use xlink:href="#DejaVuSans-6d" transform="translate(449.658203 0)"/>
       <use xlink:href="#DejaVuSans-6d" transform="translate(547.070312 0)"/>
       <use xlink:href="#DejaVuSans-61" transform="translate(644.482422 0)"/>
      </g>
     </g>
    </g>
    <g id="xtick_5">
     <g id="line2d_5">
      <g>
       <use xlink:href="#md19394664a" x="312.879405" y="349.740107" style="stroke: #000000; stroke-width: 0.8"/>
      </g>
     </g>
     <g id="text_5">
      <!-- claude/gemma -->
      <g transform="translate(250.476688 405.823986) rotate(-35) scale(0.1 -0.1)">
       <use xlink:href="#DejaVuSans-63"/>
       <use xlink:href="#DejaVuSans-6c" transform="translate(54.980469 0)"/>
       <use xlink:href="#DejaVuSans-61" transform="translate(82.763672 0)"/>
       <use xlink:href="#DejaVuSans-75" transform="translate(144.042969 0)"/>
       <use xlink:href="#DejaVuSans-64" transform="translate(207.421875 0)"/>
       <use xlink:href="#DejaVuSans-65" transform="translate(270.898438 0)"/>
       <use xlink:href="#DejaVuSans-2f" transform="translate(332.421875 0)"/>
       <use xlink:href="#DejaVuSans-67" transform="translate(366.113281 0)"/>
       <use xlink:href="#DejaVuSans-65" transform="translate(429.589844 0)"/>
       <use xlink:href="#DejaVuSans-6d" transform="translate(491.113281 0)"/>
       <use xlink:href="#DejaVuSans-6d" transform="translate(588.525391 0)"/>
       <use xlink:href="#DejaVuSans-61" transform="translate(685.9375 0)"/>
      </g>
     </g>
    </g>
    <g id="xtick_6">
     <g id="line2d_6">
      <g>
       <use xlink:href="#md19394664a" x="360.905744" y="349.740107" style="stroke: #000000; stroke-width: 0.8"/>
      </g>
     </g>
     <g id="text_6">
      <!-- gpt4o/gpt4omini -->
      <g transform="translate(291.559434 410.685942) rotate(-35) scale(0.1 -0.1)">
       <use xlink:href="#DejaVuSans-67"/>
       <use xlink:href="#DejaVuSans-70" transform="translate(63.476562 0)"/>
       <use xlink:href="#DejaVuSans-74" transform="translate(126.953125 0)"/>
       <use xlink:href="#DejaVuSans-34" transform="translate(166.162109 0)"/>
       <use xlink:href="#DejaVuSans-6f" transform="translate(229.785156 0)"/>
       <use xlink:href="#DejaVuSans-2f" transform="translate(290.966797 0)"/>
       <use xlink:href="#DejaVuSans-67" transform="translate(324.658203 0)"/>
       <use xlink:href="#DejaVuSans-70" transform="translate(388.134766 0)"/>
       <use xlink:href="#DejaVuSans-74" transform="translate(451.611328 0)"/>
       <use xlink:href="#DejaVuSans-34" transform="translate(490.820312 0)"/>
       <use xlink:href="#DejaVuSans-6f" transform="translate(554.443359 0)"/>
       <use xlink:href="#DejaVuSans-6d" transform="translate(615.625 0)"/>
       <use xlink:href="#DejaVuSans-69" transform="translate(713.037109 0)"/>
       <use xlink:href="#DejaVuSans-6e" transform="translate(740.820312 0)"/>
       <use xlink:href="#DejaVuSans-69" transform="translate(804.199219 0)"/>
      </g>
     </g>
    </g>
    <g id="xtick_7">
     <g id="line2d_7">
      <g>
       <use xlink:href="#md19394664a" x="408.932084" y="349.740107" style="stroke: #000000; stroke-width: 0.8"/>
      </g>
     </g>
     <g id="text_7">
      <!-- gpt4omini_rescued/gpt4o -->
      <g transform="translate(302.903586 436.259385) rotate(-35) scale(0.1 -0.1)">
       <use xlink:href="#DejaVuSans-67"/>
       <use xlink:href="#DejaVuSans-70" transform="translate(63.476562 0)"/>
       <use xlink:href="#DejaVuSans-74" transform="translate(126.953125 0)"/>
       <use xlink:href="#DejaVuSans-34" transform="translate(166.162109 0)"/>
       <use xlink:href="#DejaVuSans-6f" transform="translate(229.785156 0)"/>
       <use xlink:href="#DejaVuSans-6d" transform="translate(290.966797 0)"/>
       <use xlink:href="#DejaVuSans-69" transform="translate(388.378906 0)"/>
       <use xlink:href="#DejaVuSans-6e" transform="translate(416.162109 0)"/>
       <use xlink:href="#DejaVuSans-69" transform="translate(479.541016 0)"/>
       <use xlink:href="#DejaVuSans-5f" transform="translate(507.324219 0)"/>
       <use xlink:href="#DejaVuSans-72" transform="translate(557.324219 0)"/>
       <use xlink:href="#DejaVuSans-65" transform="translate(596.1875 0)"/>
       <use xlink:href="#DejaVuSans-73" transform="translate(657.710938 0)"/>
       <use xlink:href="#DejaVuSans-63" transform="translate(709.810547 0)"/>
       <use xlink:href="#DejaVuSans-75" transform="translate(764.791016 0)"/>
       <use xlink:href="#DejaVuSans-65" transform="translate(828.169922 0)"/>
       <use xlink:href="#DejaVuSans-64" transform="translate(889.693359 0)"/>
       <use xlink:href="#DejaVuSans-2f" transform="translate(953.169922 0)"/>
       <use xlink:href="#DejaVuSans-67" transform="translate(986.861328 0)"/>
       <use xlink:href="#DejaVuSans-70" transform="translate(1050.337891 0)"/>
       <use xlink:href="#DejaVuSans-74" transform="translate(1113.814453 0)"/>
       <use xlink:href="#DejaVuSans-34" transform="translate(1153.023438 0)"/>
       <use xlink:href="#DejaVuSans-6f" transform="translate(1216.646484 0)"/>
      </g>
     </g>
    </g>
    <g id="xtick_8">
     <g id="line2d_8">
      <g>
       <use xlink:href="#md19394664a" x="456.958423" y="349.740107" style="stroke: #000000; stroke-width: 0.8"/>
      </g>
     </g>
     <g id="text_8">
      <!-- claude/gpt4o -->
      <g transform="translate(401.938315 400.654628) rotate(-35) scale(0.1 -0.1)">
       <use xlink:href="#DejaVuSans-63"/>
       <use xlink:href="#DejaVuSans-6c" transform="translate(54.980469 0)"/>
       <use xlink:href="#DejaVuSans-61" transform="translate(82.763672 0)"/>
       <use xlink:href="#DejaVuSans-75" transform="translate(144.042969 0)"/>
       <use xlink:href="#DejaVuSans-64" transform="translate(207.421875 0)"/>
       <use xlink:href="#DejaVuSans-65" transform="translate(270.898438 0)"/>
       <use xlink:href="#DejaVuSans-2f" transform="translate(332.421875 0)"/>
       <use xlink:href="#DejaVuSans-67" transform="translate(366.113281 0)"/>
       <use xlink:href="#DejaVuSans-70" transform="translate(429.589844 0)"/>
       <use xlink:href="#DejaVuSans-74" transform="translate(493.066406 0)"/>
       <use xlink:href="#DejaVuSans-34" transform="translate(532.275391 0)"/>
       <use xlink:href="#DejaVuSans-6f" transform="translate(595.898438 0)"/>
      </g>
     </g>
    </g>
    <g id="xtick_9">
     <g id="line2d_9">
      <g>
       <use xlink:href="#md19394664a" x="504.984763" y="349.740107" style="stroke: #000000; stroke-width: 0.8"/>
      </g>
     </g>
     <g id="text_9">
      <!-- gpt4o/gpt4o -->
      <g transform="translate(453.360296 398.276974) rotate(-35) scale(0.1 -0.1)">
       <use xlink:href="#DejaVuSans-67"/>
       <use xlink:href="#DejaVuSans-70" transform="translate(63.476562 0)"/>
       <use xlink:href="#DejaVuSans-74" transform="translate(126.953125 0)"/>
       <use xlink:href="#DejaVuSans-34" transform="translate(166.162109 0)"/>
       <use xlink:href="#DejaVuSans-6f" transform="translate(229.785156 0)"/>
       <use xlink:href="#DejaVuSans-2f" transform="translate(290.966797 0)"/>
       <use xlink:href="#DejaVuSans-67" transform="translate(324.658203 0)"/>
       <use xlink:href="#DejaVuSans-70" transform="translate(388.134766 0)"/>
       <use xlink:href="#DejaVuSans-74" transform="translate(451.611328 0)"/>
       <use xlink:href="#DejaVuSans-34" transform="translate(490.820312 0)"/>
       <use xlink:href="#DejaVuSans-6f" transform="translate(554.443359 0)"/>
      </g>
     </g>
    </g>
    <g id="xtick_10">
     <g id="line2d_10">
      <g>
       <use xlink:href="#md19394664a" x="553.011103" y="349.740107" style="stroke: #000000; stroke-width: 0.8"/>
      </g>
     </g>
     <g id="text_10">
      <!-- claude/claude -->
      <g transform="translate(494.595353 403.032282) rotate(-35) scale(0.1 -0.1)">
       <use xlink:href="#DejaVuSans-63"/>
       <use xlink:href="#DejaVuSans-6c" transform="translate(54.980469 0)"/>
       <use xlink:href="#DejaVuSans-61" transform="translate(82.763672 0)"/>
       <use xlink:href="#DejaVuSans-75" transform="translate(144.042969 0)"/>
       <use xlink:href="#DejaVuSans-64" transform="translate(207.421875 0)"/>
       <use xlink:href="#DejaVuSans-65" transform="translate(270.898438 0)"/>
       <use xlink:href="#DejaVuSans-2f" transform="translate(332.421875 0)"/>
       <use xlink:href="#DejaVuSans-63" transform="translate(366.113281 0)"/>
       <use xlink:href="#DejaVuSans-6c" transform="translate(421.09375 0)"/>
       <use xlink:href="#DejaVuSans-61" transform="translate(448.876953 0)"/>
       <use xlink:href="#DejaVuSans-75" transform="translate(510.15625 0)"/>
       <use xlink:href="#DejaVuSans-64" transform="translate(573.535156 0)"/>
       <use xlink:href="#DejaVuSans-65" transform="translate(637.011719 0)"/>
      </g>
     </g>
    </g>
    <g id="xtick_11">
     <g id="line2d_11">
      <g>
       <use xlink:href="#md19394664a" x="601.037442" y="349.740107" style="stroke: #000000; stroke-width: 0.8"/>
      </g>
     </g>
     <g id="text_11">
      <!-- gpt4o/claude -->
      <g transform="translate(546.017334 400.654628) rotate(-35) scale(0.1 -0.1)">
       <use xlink:href="#DejaVuSans-67"/>
       <use xlink:href="#DejaVuSans-70" transform="translate(63.476562 0)"/>
       <use xlink:href="#DejaVuSans-74" transform="translate(126.953125 0)"/>
       <use xlink:href="#DejaVuSans-34" transform="translate(166.162109 0)"/>
       <use xlink:href="#DejaVuSans-6f" transform="translate(229.785156 0)"/>
       <use xlink:href="#DejaVuSans-2f" transform="translate(290.966797 0)"/>
       <use xlink:href="#DejaVuSans-63" transform="translate(324.658203 0)"/>
       <use xlink:href="#DejaVuSans-6c" transform="translate(379.638672 0)"/>
       <use xlink:href="#DejaVuSans-61" transform="translate(407.421875 0)"/>
       <use xlink:href="#DejaVuSans-75" transform="translate(468.701172 0)"/>
       <use xlink:href="#DejaVuSans-64" transform="translate(532.080078 0)"/>
       <use xlink:href="#DejaVuSans-65" transform="translate(595.556641 0)"/>
      </g>
     </g>
    </g>
    <g id="xtick_12">
     <g id="line2d_12">
      <g>
       <use xlink:href="#md19394664a" x="649.063782" y="349.740107" style="stroke: #000000; stroke-width: 0.8"/>
      </g>
     </g>
     <g id="text_12">
      <!-- gpt4omini_rescued/gpt4omini -->
      <g transform="translate(525.313442 448.668353) rotate(-35) scale(0.1 -0.1)">
       <use xlink:href="#DejaVuSans-67"/>
       <use xlink:href="#DejaVuSans-70" transform="translate(63.476562 0)"/>
       <use xlink:href="#DejaVuSans-74" transform="translate(126.953125 0)"/>
       <use xlink:href="#DejaVuSans-34" transform="translate(166.162109 0)"/>
       <use xlink:href="#DejaVuSans-6f" transform="translate(229.785156 0)"/>
       <use xlink:href="#DejaVuSans-6d" transform="translate(290.966797 0)"/>
       <use xlink:href="#DejaVuSans-69" transform="translate(388.378906 0)"/>
       <use xlink:href="#DejaVuSans-6e" transform="translate(416.162109 0)"/>
       <use xlink:href="#DejaVuSans-69" transform="translate(479.541016 0)"/>
       <use xlink:href="#DejaVuSans-5f" transform="translate(507.324219 0)"/>
       <use xlink:href="#DejaVuSans-72" transform="translate(557.324219 0)"/>
       <use xlink:href="#DejaVuSans-65" transform="translate(596.1875 0)"/>
       <use xlink:href="#DejaVuSans-73" transform="translate(657.710938 0)"/>
       <use xlink:href="#DejaVuSans-63" transform="translate(709.810547 0)"/>
       <use xlink:href="#DejaVuSans-75" transform="translate(764.791016 0)"/>
       <use xlink:href="#DejaVuSans-65" transform="translate(828.169922 0)"/>
       <use xlink:href="#DejaVuSans-64" transform="translate(889.693359 0)"/>
       <use xlink:href="#DejaVuSans-2f" transform="translate(953.169922 0)"/>
       <use xlink:href="#DejaVuSans-67" transform="translate(986.861328 0)"/>
       <use xlink:href="#DejaVuSans-70" transform="translate(1050.337891 0)"/>
       <use xlink:href="#DejaVuSans-74" transform="translate(1113.814453 0)"/>
       <use xlink:href="#DejaVuSans-34" transform="translate(1153.023438 0)"/>
       <use xlink:href="#DejaVuSans-6f" transform="translate(1216.646484 0)"/>
       <use xlink:href="#DejaVuSans-6d" transform="translate(1277.828125 0)"/>
       <use xlink:href="#DejaVuSans-69" transform="translate(1375.240234 0)"/>
       <use xlink:href="#DejaVuSans-6e" transform="translate(1403.023438 0)"/>
       <use xlink:href="#DejaVuSans-69" transform="translate(1466.402344 0)"/>
      </g>
     </g>
    </g>
    <g id="xtick_13">
     <g id="line2d_13">
      <g>
       <use xlink:href="#md19394664a" x="697.090121" y="349.740107" style="stroke: #000000; stroke-width: 0.8"/>
      </g>
     </g>
     <g id="text_13">
      <!-- claude/gpt4omini -->
      <g transform="translate(624.34817 413.063596) rotate(-35) scale(0.1 -0.1)">
       <use xlink:href="#DejaVuSans-63"/>
       <use xlink:href="#DejaVuSans-6c" transform="translate(54.980469 0)"/>
       <use xlink:href="#DejaVuSans-61" transform="translate(82.763672 0)"/>
       <use xlink:href="#DejaVuSans-75" transform="translate(144.042969 0)"/>
       <use xlink:href="#DejaVuSans-64" transform="translate(207.421875 0)"/>
       <use xlink:href="#DejaVuSans-65" transform="translate(270.898438 0)"/>
       <use xlink:href="#DejaVuSans-2f" transform="translate(332.421875 0)"/>
       <use xlink:href="#DejaVuSans-67" transform="translate(366.113281 0)"/>
       <use xlink:href="#DejaVuSans-70" transform="translate(429.589844 0)"/>
       <use xlink:href="#DejaVuSans-74" transform="translate(493.066406 0)"/>
       <use xlink:href="#DejaVuSans-34" transform="translate(532.275391 0)"/>
       <use xlink:href="#DejaVuSans-6f" transform="translate(595.898438 0)"/>
       <use xlink:href="#DejaVuSans-6d" transform="translate(657.080078 0)"/>
       <use xlink:href="#DejaVuSans-69" transform="translate(754.492188 0)"/>
       <use xlink:href="#DejaVuSans-6e" transform="translate(782.275391 0)"/>
       <use xlink:href="#DejaVuSans-69" transform="translate(845.654297 0)"/>
      </g>
     </g>
    </g>
    <g id="xtick_14">
     <g id="line2d_14">
      <g>
       <use xlink:href="#md19394664a" x="745.116461" y="349.740107" style="stroke: #000000; stroke-width: 0.8"/>
      </g>
     </g>
     <g id="text_14">
      <!-- gemma_rescued/claude -->
      <g transform="translate(646.031557 431.397429) rotate(-35) scale(0.1 -0.1)">
       <use xlink:href="#DejaVuSans-67"/>
       <use xlink:href="#DejaVuSans-65" transform="translate(63.476562 0)"/>
       <use xlink:href="#DejaVuSans-6d" transform="translate(125 0)"/>
       <use xlink:href="#DejaVuSans-6d" transform="translate(222.412109 0)"/>
       <use xlink:href="#DejaVuSans-61" transform="translate(319.824219 0)"/>
       <use xlink:href="#DejaVuSans-5f" transform="translate(381.103516 0)"/>
       <use xlink:href="#DejaVuSans-72" transform="translate(431.103516 0)"/>
       <use xlink:href="#DejaVuSans-65" transform="translate(469.966797 0)"/>
       <use xlink:href="#DejaVuSans-73" transform="translate(531.490234 0)"/>
       <use xlink:href="#DejaVuSans-63" transform="translate(583.589844 0)"/>
       <use xlink:href="#DejaVuSans-75" transform="translate(638.570312 0)"/>
       <use xlink:href="#DejaVuSans-65" transform="translate(701.949219 0)"/>
       <use xlink:href="#DejaVuSans-64" transform="translate(763.472656 0)"/>
       <use xlink:href="#DejaVuSans-2f" transform="translate(826.949219 0)"/>
       <use xlink:href="#DejaVuSans-63" transform="translate(860.640625 0)"/>
       <use xlink:href="#DejaVuSans-6c" transform="translate(915.621094 0)"/>
       <use xlink:href="#DejaVuSans-61" transform="translate(943.404297 0)"/>
       <use xlink:href="#DejaVuSans-75" transform="translate(1004.683594 0)"/>
       <use xlink:href="#DejaVuSans-64" transform="translate(1068.0625 0)"/>
       <use xlink:href="#DejaVuSans-65" transform="translate(1131.539062 0)"/>
      </g>
     </g>
    </g>
    <g id="xtick_15">
     <g id="line2d_15">
      <g>
       <use xlink:href="#md19394664a" x="793.142801" y="349.740107" style="stroke: #000000; stroke-width: 0.8"/>
      </g>
     </g>
     <g id="text_15">
      <!-- gemma_rescued/gpt4o -->
      <g transform="translate(697.453538 429.019775) rotate(-35) scale(0.1 -0.1)">
       <use xlink:href="#DejaVuSans-67"/>
       <use xlink:href="#DejaVuSans-65" transform="translate(63.476562 0)"/>
       <use xlink:href="#DejaVuSans-6d" transform="translate(125 0)"/>
       <use xlink:href="#DejaVuSans-6d" transform="translate(222.412109 0)"/>
       <use xlink:href="#DejaVuSans-61" transform="translate(319.824219 0)"/>
       <use xlink:href="#DejaVuSans-5f" transform="translate(381.103516 0)"/>
       <use xlink:href="#DejaVuSans-72" transform="translate(431.103516 0)"/>
       <use xlink:href="#DejaVuSans-65" transform="translate(469.966797 0)"/>
       <use xlink:href="#DejaVuSans-73" transform="translate(531.490234 0)"/>
       <use xlink:href="#DejaVuSans-63" transform="translate(583.589844 0)"/>
       <use xlink:href="#DejaVuSans-75" transform="translate(638.570312 0)"/>
       <use xlink:href="#DejaVuSans-65" transform="translate(701.949219 0)"/>
       <use xlink:href="#DejaVuSans-64" transform="translate(763.472656 0)"/>
       <use xlink:href="#DejaVuSans-2f" transform="translate(826.949219 0)"/>
       <use xlink:href="#DejaVuSans-67" transform="translate(860.640625 0)"/>
       <use xlink:href="#DejaVuSans-70" transform="translate(924.117188 0)"/>
       <use xlink:href="#DejaVuSans-74" transform="translate(987.59375 0)"/>
       <use xlink:href="#DejaVuSans-34" transform="translate(1026.802734 0)"/>
       <use xlink:href="#DejaVuSans-6f" transform="translate(1090.425781 0)"/>
      </g>
     </g>
    </g>
    <g id="xtick_16">
     <g id="line2d_16">
      <g>
       <use xlink:href="#md19394664a" x="841.16914" y="349.740107" style="stroke: #000000; stroke-width: 0.8"/>
      </g>
     </g>
     <g id="text_16">
      <!-- gemma_rescued/gpt4omini -->
      <g transform="translate(727.758035 441.428743) rotate(-35) scale(0.1 -0.1)">
       <use xlink:href="#DejaVuSans-67"/>
       <use xlink:href="#DejaVuSans-65" transform="translate(63.476562 0)"/>
       <use xlink:href="#DejaVuSans-6d" transform="translate(125 0)"/>
       <use xlink:href="#DejaVuSans-6d" transform="translate(222.412109 0)"/>
       <use xlink:href="#DejaVuSans-61" transform="translate(319.824219 0)"/>
       <use xlink:href="#DejaVuSans-5f" transform="translate(381.103516 0)"/>
       <use xlink:href="#DejaVuSans-72" transform="translate(431.103516 0)"/>
       <use xlink:href="#DejaVuSans-65" transform="translate(469.966797 0)"/>
       <use xlink:href="#DejaVuSans-73" transform="translate(531.490234 0)"/>
       <use xlink:href="#DejaVuSans-63" transform="translate(583.589844 0)"/>
       <use xlink:href="#DejaVuSans-75" transform="translate(638.570312 0)"/>
       <use xlink:href="#DejaVuSans-65" transform="translate(701.949219 0)"/>
       <use xlink:href="#DejaVuSans-64" transform="translate(763.472656 0)"/>
       <use xlink:href="#DejaVuSans-2f" transform="translate(826.949219 0)"/>
       <use xlink:href="#DejaVuSans-67" transform="translate(860.640625 0)"/>
       <use xlink:href="#DejaVuSans-70" transform="translate(924.117188 0)"/>
       <use xlink:href="#DejaVuSans-74" transform="translate(987.59375 0)"/>
       <use xlink:href="#DejaVuSans-34" transform="translate(1026.802734 0)"/>
       <use xlink:href="#DejaVuSans-6f" transform="translate(1090.425781 0)"/>
       <use xlink:href="#DejaVuSans-6d" transform="translate(1151.607422 0)"/>
       <use xlink:href="#DejaVuSans-69" transform="translate(1249.019531 0)"/>
       <use xlink:href="#DejaVuSans-6e" transform="translate(1276.802734 0)"/>
       <use xlink:href="#DejaVuSans-69" transform="translate(1340.181641 0)"/>
      </g>
     </g>
    </g>
   </g>
   <g id="matplotlib.axis_2">
    <g id="ytick_1">
     <g id="line2d_17">
      <defs>
       <path id="mfe93be6cc5" d="M 0 0 
L -3.5 0 
" style="stroke: #000000; stroke-width: 0.8"/>
      </defs>
      <g>
       <use xlink:href="#mfe93be6cc5" x="64.943427" y="327.614699" style="stroke: #000000; stroke-width: 0.8"/>
      </g>
     </g>
     <g id="text_17">
      <!-- 0 -->
      <g transform="translate(51.580927 331.413918) scale(0.1 -0.1)">
       <defs>
        <path id="DejaVuSans-30" d="M 2034 4250 
Q 1547 4250 1301 3770 
Q 1056 3291 1056 2328 
Q 1056 1369 1301 889 
Q 1547 409 2034 409 
Q 2525 409 2770 889 
Q 3016 1369 3016 2328 
Q 3016 3291 2770 3770 
Q 2525 4250 2034 4250 
z
M 2034 4750 
Q 2819 4750 3233 4129 
Q 3647 3509 3647 2328 
Q 3647 1150 3233 529 
Q 2819 -91 2034 -91 
Q 1250 -91 836 529 
Q 422 1150 422 2328 
Q 422 3509 836 4129 
Q 1250 4750 2034 4750 
z
" transform="scale(0.015625)"/>
       </defs>
       <use xlink:href="#DejaVuSans-30"/>
      </g>
     </g>
    </g>
    <g id="ytick_2">
     <g id="line2d_18">
      <g>
       <use xlink:href="#mfe93be6cc5" x="64.943427" y="279.724186" style="stroke: #000000; stroke-width: 0.8"/>
      </g>
     </g>
     <g id="text_18">
      <!-- 500 -->
      <g transform="translate(38.855927 283.523404) scale(0.1 -0.1)">
       <defs>
        <path id="DejaVuSans-35" d="M 691 4666 
L 3169 4666 
L 3169 4134 
L 1269 4134 
L 1269 2991 
Q 1406 3038 1543 3061 
Q 1681 3084 1819 3084 
Q 2600 3084 3056 2656 
Q 3513 2228 3513 1497 
Q 3513 744 3044 326 
Q 2575 -91 1722 -91 
Q 1428 -91 1123 -41 
Q 819 9 494 109 
L 494 744 
Q 775 591 1075 516 
Q 1375 441 1709 441 
Q 2250 441 2565 725 
Q 2881 1009 2881 1497 
Q 2881 1984 2565 2268 
Q 2250 2553 1709 2553 
Q 1456 2553 1204 2497 
Q 953 2441 691 2322 
L 691 4666 
z
" transform="scale(0.015625)"/>
       </defs>
       <use xlink:href="#DejaVuSans-35"/>
       <use xlink:href="#DejaVuSans-30" transform="translate(63.623047 0)"/>
       <use xlink:href="#DejaVuSans-30" transform="translate(127.246094 0)"/>
      </g>
     </g>
    </g>
    <g id="ytick_3">
     <g id="line2d_19">
      <g>
       <use xlink:href="#mfe93be6cc5" x="64.943427" y="231.833672" style="stroke: #000000; stroke-width: 0.8"/>
      </g>
     </g>
     <g id="text_19">
      <!-- 1000 -->
      <g transform="translate(32.493427 235.632891) scale(0.1 -0.1)">
       <defs>
        <path id="DejaVuSans-31" d="M 794 531 
L 1825 531 
L 1825 4091 
L 703 3866 
L 703 4441 
L 1819 4666 
L 2450 4666 
L 2450 531 
L 3481 531 
L 3481 0 
L 794 0 
L 794 531 
z
" transform="scale(0.015625)"/>
       </defs>
       <use xlink:href="#DejaVuSans-31"/>
       <use xlink:href="#DejaVuSans-30" transform="translate(63.623047 0)"/>
       <use xlink:href="#DejaVuSans-30" transform="translate(127.246094 0)"/>
       <use xlink:href="#DejaVuSans-30" transform="translate(190.869141 0)"/>
      </g>
     </g>
    </g>
    <g id="ytick_4">
     <g id="line2d_20">
      <g>
       <use xlink:href="#mfe93be6cc5" x="64.943427" y="183.943158" style="stroke: #000000; stroke-width: 0.8"/>
      </g>
     </g>
     <g id="text_20">
      <!-- 1500 -->
      <g transform="translate(32.493427 187.742377) scale(0.1 -0.1)">
       <use xlink:href="#DejaVuSans-31"/>
       <use xlink:href="#DejaVuSans-35" transform="translate(63.623047 0)"/>
       <use xlink:href="#DejaVuSans-30" transform="translate(127.246094 0)"/>
       <use xlink:href="#DejaVuSans-30" transform="translate(190.869141 0)"/>
      </g>
     </g>
    </g>
    <g id="ytick_5">
     <g id="line2d_21">
      <g>
       <use xlink:href="#mfe93be6cc5" x="64.943427" y="136.052645" style="stroke: #000000; stroke-width: 0.8"/>
      </g>
     </g>
     <g id="text_21">
      <!-- 2000 -->
      <g transform="translate(32.493427 139.851864) scale(0.1 -0.1)">
       <defs>
        <path id="DejaVuSans-32" d="M 1228 531 
L 3431 531 
L 3431 0 
L 469 0 
L 469 531 
Q 828 903 1448 1529 
Q 2069 2156 2228 2338 
Q 2531 2678 2651 2914 
Q 2772 3150 2772 3378 
Q 2772 3750 2511 3984 
Q 2250 4219 1831 4219 
Q 1534 4219 1204 4116 
Q 875 4013 500 3803 
L 500 4441 
Q 881 4594 1212 4672 
Q 1544 4750 1819 4750 
Q 2544 4750 2975 4387 
Q 3406 4025 3406 3419 
Q 3406 3131 3298 2873 
Q 3191 2616 2906 2266 
Q 2828 2175 2409 1742 
Q 1991 1309 1228 531 
z
" transform="scale(0.015625)"/>
       </defs>
       <use xlink:href="#DejaVuSans-32"/>
       <use xlink:href="#DejaVuSans-30" transform="translate(63.623047 0)"/>
       <use xlink:href="#DejaVuSans-30" transform="translate(127.246094 0)"/>
       <use xlink:href="#DejaVuSans-30" transform="translate(190.869141 0)"/>
      </g>
     </g>
    </g>
    <g id="ytick_6">
     <g id="line2d_22">
      <g>
       <use xlink:href="#mfe93be6cc5" x="64.943427" y="88.162131" style="stroke: #000000; stroke-width: 0.8"/>
      </g>
     </g>
     <g id="text_22">
      <!-- 2500 -->
      <g transform="translate(32.493427 91.96135) scale(0.1 -0.1)">
       <use xlink:href="#DejaVuSans-32"/>
       <use xlink:href="#DejaVuSans-35" transform="translate(63.623047 0)"/>
       <use xlink:href="#DejaVuSans-30" transform="translate(127.246094 0)"/>
       <use xlink:href="#DejaVuSans-30" transform="translate(190.869141 0)"/>
      </g>
     </g>
    </g>
    <g id="ytick_7">
     <g id="line2d_23">
      <g>
       <use xlink:href="#mfe93be6cc5" x="64.943427" y="40.271618" style="stroke: #000000; stroke-width: 0.8"/>
      </g>
     </g>
     <g id="text_23">
      <!-- 3000 -->
      <g transform="translate(32.493427 44.070837) scale(0.1 -0.1)">
       <defs>
        <path id="DejaVuSans-33" d="M 2597 2516 
Q 3050 2419 3304 2112 
Q 3559 1806 3559 1356 
Q 3559 666 3084 287 
Q 2609 -91 1734 -91 
Q 1441 -91 1130 -33 
Q 819 25 488 141 
L 488 750 
Q 750 597 1062 519 
Q 1375 441 1716 441 
Q 2309 441 2620 675 
Q 2931 909 2931 1356 
Q 2931 1769 2642 2001 
Q 2353 2234 1838 2234 
L 1294 2234 
L 1294 2753 
L 1863 2753 
Q 2328 2753 2575 2939 
Q 2822 3125 2822 3475 
Q 2822 3834 2567 4026 
Q 2313 4219 1838 4219 
Q 1578 4219 1281 4162 
Q 984 4106 628 3988 
L 628 4550 
Q 988 4650 1302 4700 
Q 1616 4750 1894 4750 
Q 2613 4750 3031 4423 
Q 3450 4097 3450 3541 
Q 3450 3153 3228 2886 
Q 3006 2619 2597 2516 
z
" transform="scale(0.015625)"/>
       </defs>
       <use xlink:href="#DejaVuSans-33"/>
       <use xlink:href="#DejaVuSans-30" transform="translate(63.623047 0)"/>
       <use xlink:href="#DejaVuSans-30" transform="translate(127.246094 0)"/>
       <use xlink:href="#DejaVuSans-30" transform="translate(190.869141 0)"/>
      </g>
     </g>
    </g>
    <g id="text_24">
     <!-- % error vs closest manuscript reference -->
     <g transform="translate(26.413739 290.529174) rotate(-90) scale(0.1 -0.1)">
      <defs>
       <path id="DejaVuSans-25" d="M 4653 2053 
Q 4381 2053 4226 1822 
Q 4072 1591 4072 1178 
Q 4072 772 4226 539 
Q 4381 306 4653 306 
Q 4919 306 5073 539 
Q 5228 772 5228 1178 
Q 5228 1588 5073 1820 
Q 4919 2053 4653 2053 
z
M 4653 2450 
Q 5147 2450 5437 2106 
Q 5728 1763 5728 1178 
Q 5728 594 5436 251 
Q 5144 -91 4653 -91 
Q 4153 -91 3862 251 
Q 3572 594 3572 1178 
Q 3572 1766 3864 2108 
Q 4156 2450 4653 2450 
z
M 1428 4353 
Q 1159 4353 1004 4120 
Q 850 3888 850 3481 
Q 850 3069 1003 2837 
Q 1156 2606 1428 2606 
Q 1700 2606 1854 2837 
Q 2009 3069 2009 3481 
Q 2009 3884 1853 4118 
Q 1697 4353 1428 4353 
z
M 4250 4750 
L 4750 4750 
L 1831 -91 
L 1331 -91 
L 4250 4750 
z
M 1428 4750 
Q 1922 4750 2215 4408 
Q 2509 4066 2509 3481 
Q 2509 2891 2217 2550 
Q 1925 2209 1428 2209 
Q 931 2209 642 2551 
Q 353 2894 353 3481 
Q 353 4063 643 4406 
Q 934 4750 1428 4750 
z
" transform="scale(0.015625)"/>
       <path id="DejaVuSans-20" transform="scale(0.015625)"/>
       <path id="DejaVuSans-76" d="M 191 3500 
L 800 3500 
L 1894 563 
L 2988 3500 
L 3597 3500 
L 2284 0 
L 1503 0 
L 191 3500 
z
" transform="scale(0.015625)"/>
       <path id="DejaVuSans-66" d="M 2375 4863 
L 2375 4384 
L 1825 4384 
Q 1516 4384 1395 4259 
Q 1275 4134 1275 3809 
L 1275 3500 
L 2222 3500 
L 2222 3053 
L 1275 3053 
L 1275 0 
L 697 0 
L 697 3053 
L 147 3053 
L 147 3500 
L 697 3500 
L 697 3744 
Q 697 4328 969 4595 
Q 1241 4863 1831 4863 
L 2375 4863 
z
" transform="scale(0.015625)"/>
      </defs>
      <use xlink:href="#DejaVuSans-25"/>
      <use xlink:href="#DejaVuSans-20" transform="translate(95.019531 0)"/>
      <use xlink:href="#DejaVuSans-65" transform="translate(126.806641 0)"/>
      <use xlink:href="#DejaVuSans-72" transform="translate(188.330078 0)"/>
      <use xlink:href="#DejaVuSans-72" transform="translate(227.693359 0)"/>
      <use xlink:href="#DejaVuSans-6f" transform="translate(266.556641 0)"/>
      <use xlink:href="#DejaVuSans-72" transform="translate(327.738281 0)"/>
      <use xlink:href="#DejaVuSans-20" transform="translate(368.851562 0)"/>
      <use xlink:href="#DejaVuSans-76" transform="translate(400.638672 0)"/>
      <use xlink:href="#DejaVuSans-73" transform="translate(459.818359 0)"/>
      <use xlink:href="#DejaVuSans-20" transform="translate(511.917969 0)"/>
      <use xlink:href="#DejaVuSans-63" transform="translate(543.705078 0)"/>
      <use xlink:href="#DejaVuSans-6c" transform="translate(598.685547 0)"/>
      <use xlink:href="#DejaVuSans-6f" transform="translate(626.46875 0)"/>
      <use xlink:href="#DejaVuSans-73" transform="translate(687.650391 0)"/>
      <use xlink:href="#DejaVuSans-65" transform="translate(739.75 0)"/>
      <use xlink:href="#DejaVuSans-73" transform="translate(801.273438 0)"/>
      <use xlink:href="#DejaVuSans-74" transform="translate(853.373047 0)"/>
      <use xlink:href="#DejaVuSans-20" transform="translate(892.582031 0)"/>
      <use xlink:href="#DejaVuSans-6d" transform="translate(924.369141 0)"/>
      <use xlink:href="#DejaVuSans-61" transform="translate(1021.78125 0)"/>
      <use xlink:href="#DejaVuSans-6e" transform="translate(1083.060547 0)"/>
      <use xlink:href="#DejaVuSans-75" transform="translate(1146.439453 0)"/>
      <use xlink:href="#DejaVuSans-73" transform="translate(1209.818359 0)"/>
      <use xlink:href="#DejaVuSans-63" transform="translate(1261.917969 0)"/>
      <use xlink:href="#DejaVuSans-72" transform="translate(1316.898438 0)"/>
      <use xlink:href="#DejaVuSans-69" transform="translate(1358.011719 0)"/>
      <use xlink:href="#DejaVuSans-70" transform="translate(1385.794922 0)"/>
      <use xlink:href="#DejaVuSans-74" transform="translate(1449.271484 0)"/>
      <use xlink:href="#DejaVuSans-20" transform="translate(1488.480469 0)"/>
      <use xlink:href="#DejaVuSans-72" transform="translate(1520.267578 0)"/>
      <use xlink:href="#DejaVuSans-65" transform="translate(1559.130859 0)"/>
      <use xlink:href="#DejaVuSans-66" transform="translate(1620.654297 0)"/>
      <use xlink:href="#DejaVuSans-65" transform="translate(1655.859375 0)"/>
      <use xlink:href="#DejaVuSans-72" transform="translate(1717.382812 0)"/>
      <use xlink:href="#DejaVuSans-65" transform="translate(1756.246094 0)"/>
      <use xlink:href="#DejaVuSans-6e" transform="translate(1817.769531 0)"/>
      <use xlink:href="#DejaVuSans-63" transform="translate(1881.148438 0)"/>
      <use xlink:href="#DejaVuSans-65" transform="translate(1936.128906 0)"/>
     </g>
    </g>
   </g>
   <g id="line2d_24">
    <path d="M 64.943427 327.614699 
L 896.99976 327.614699 
" clip-path="url(#p69b17fbf64)" style="fill: none; stroke: #000000; stroke-width: 0.8; stroke-linecap: square"/>
   </g>
   <g id="patch_83">
    <path d="M 64.943427 349.740107 
L 64.943427 31.55574 
" style="fill: none; stroke: #000000; stroke-width: 0.8; stroke-linejoin: miter; stroke-linecap: square"/>
   </g>
   <g id="patch_84">
    <path d="M 896.99976 349.740107 
L 896.99976 31.55574 
" style="fill: none; stroke: #000000; stroke-width: 0.8; stroke-linejoin: miter; stroke-linecap: square"/>
   </g>
   <g id="patch_85">
    <path d="M 64.943427 349.740107 
L 896.99976 349.740107 
" style="fill: none; stroke: #000000; stroke-width: 0.8; stroke-linejoin: miter; stroke-linecap: square"/>
   </g>
   <g id="patch_86">
    <path d="M 64.943427 31.55574 
L 896.99976 31.55574 
" style="fill: none; stroke: #000000; stroke-width: 0.8; stroke-linejoin: miter; stroke-linecap: square"/>
   </g>
   <g id="text_25">
    <!-- Signed Error Relative to Nearest Manuscript Operating Point -->
    <g transform="translate(300.764406 12.118365) scale(0.12 -0.12)">
     <defs>
      <path id="DejaVuSans-53" d="M 3425 4513 
L 3425 3897 
Q 3066 4069 2747 4153 
Q 2428 4238 2131 4238 
Q 1616 4238 1336 4038 
Q 1056 3838 1056 3469 
Q 1056 3159 1242 3001 
Q 1428 2844 1947 2747 
L 2328 2669 
Q 3034 2534 3370 2195 
Q 3706 1856 3706 1288 
Q 3706 609 3251 259 
Q 2797 -91 1919 -91 
Q 1588 -91 1214 -16 
Q 841 59 441 206 
L 441 856 
Q 825 641 1194 531 
Q 1563 422 1919 422 
Q 2459 422 2753 634 
Q 3047 847 3047 1241 
Q 3047 1584 2836 1778 
Q 2625 1972 2144 2069 
L 1759 2144 
Q 1053 2284 737 2584 
Q 422 2884 422 3419 
Q 422 4038 858 4394 
Q 1294 4750 2059 4750 
Q 2388 4750 2728 4690 
Q 3069 4631 3425 4513 
z
" transform="scale(0.015625)"/>
      <path id="DejaVuSans-45" d="M 628 4666 
L 3578 4666 
L 3578 4134 
L 1259 4134 
L 1259 2753 
L 3481 2753 
L 3481 2222 
L 1259 2222 
L 1259 531 
L 3634 531 
L 3634 0 
L 628 0 
L 628 4666 
z
" transform="scale(0.015625)"/>
      <path id="DejaVuSans-52" d="M 2841 2188 
Q 3044 2119 3236 1894 
Q 3428 1669 3622 1275 
L 4263 0 
L 3584 0 
L 2988 1197 
Q 2756 1666 2539 1819 
Q 2322 1972 1947 1972 
L 1259 1972 
L 1259 0 
L 628 0 
L 628 4666 
L 2053 4666 
Q 2853 4666 3247 4331 
Q 3641 3997 3641 3322 
Q 3641 2881 3436 2590 
Q 3231 2300 2841 2188 
z
M 1259 4147 
L 1259 2491 
L 2053 2491 
Q 2509 2491 2742 2702 
Q 2975 2913 2975 3322 
Q 2975 3731 2742 3939 
Q 2509 4147 2053 4147 
L 1259 4147 
z
" transform="scale(0.015625)"/>
      <path id="DejaVuSans-4e" d="M 628 4666 
L 1478 4666 
L 3547 763 
L 3547 4666 
L 4159 4666 
L 4159 0 
L 3309 0 
L 1241 3903 
L 1241 0 
L 628 0 
L 628 4666 
z
" transform="scale(0.015625)"/>
      <path id="DejaVuSans-4d" d="M 628 4666 
L 1569 4666 
L 2759 1491 
L 3956 4666 
L 4897 4666 
L 4897 0 
L 4281 0 
L 4281 4097 
L 3078 897 
L 2444 897 
L 1241 4097 
L 1241 0 
L 628 0 
L 628 4666 
z
" transform="scale(0.015625)"/>
      <path id="DejaVuSans-4f" d="M 2522 4238 
Q 1834 4238 1429 3725 
Q 1025 3213 1025 2328 
Q 1025 1447 1429 934 
Q 1834 422 2522 422 
Q 3209 422 3611 934 
Q 4013 1447 4013 2328 
Q 4013 3213 3611 3725 
Q 3209 4238 2522 4238 
z
M 2522 4750 
Q 3503 4750 4090 4092 
Q 4678 3434 4678 2328 
Q 4678 1225 4090 567 
Q 3503 -91 2522 -91 
Q 1538 -91 948 565 
Q 359 1222 359 2328 
Q 359 3434 948 4092 
Q 1538 4750 2522 4750 
z
" transform="scale(0.015625)"/>
      <path id="DejaVuSans-50" d="M 1259 4147 
L 1259 2394 
L 2053 2394 
Q 2494 2394 2734 2622 
Q 2975 2850 2975 3272 
Q 2975 3691 2734 3919 
Q 2494 4147 2053 4147 
L 1259 4147 
z
M 628 4666 
L 2053 4666 
Q 2838 4666 3239 4311 
Q 3641 3956 3641 3272 
Q 3641 2581 3239 2228 
Q 2838 1875 2053 1875 
L 1259 1875 
L 1259 0 
L 628 0 
L 628 4666 
z
" transform="scale(0.015625)"/>
     </defs>
     <use xlink:href="#DejaVuSans-53"/>
     <use xlink:href="#DejaVuSans-69" transform="translate(63.476562 0)"/>
     <use xlink:href="#DejaVuSans-67" transform="translate(91.259766 0)"/>
     <use xlink:href="#DejaVuSans-6e" transform="translate(154.736328 0)"/>
     <use xlink:href="#DejaVuSans-65" transform="translate(218.115234 0)"/>
     <use xlink:href="#DejaVuSans-64" transform="translate(279.638672 0)"/>
     <use xlink:href="#DejaVuSans-20" transform="translate(343.115234 0)"/>
     <use xlink:href="#DejaVuSans-45" transform="translate(374.902344 0)"/>
     <use xlink:href="#DejaVuSans-72" transform="translate(438.085938 0)"/>
     <use xlink:href="#DejaVuSans-72" transform="translate(477.449219 0)"/>
     <use xlink:href="#DejaVuSans-6f" transform="translate(516.3125 0)"/>
     <use xlink:href="#DejaVuSans-72" transform="translate(577.494141 0)"/>
     <use xlink:href="#DejaVuSans-20" transform="translate(618.607422 0)"/>
     <use xlink:href="#DejaVuSans-52" transform="translate(650.394531 0)"/>
     <use xlink:href="#DejaVuSans-65" transform="translate(715.376953 0)"/>
     <use xlink:href="#DejaVuSans-6c" transform="translate(776.900391 0)"/>
     <use xlink:href="#DejaVuSans-61" transform="translate(804.683594 0)"/>
     <use xlink:href="#DejaVuSans-74" transform="translate(865.962891 0)"/>
     <use xlink:href="#DejaVuSans-69" transform="translate(905.171875 0)"/>
     <use xlink:href="#DejaVuSans-76" transform="translate(932.955078 0)"/>
     <use xlink:href="#DejaVuSans-65" transform="translate(992.134766 0)"/>
     <use xlink:href="#DejaVuSans-20" transform="translate(1053.658203 0)"/>
     <use xlink:href="#DejaVuSans-74" transform="translate(1085.445312 0)"/>
     <use xlink:href="#DejaVuSans-6f" transform="translate(1124.654297 0)"/>
     <use xlink:href="#DejaVuSans-20" transform="translate(1185.835938 0)"/>
     <use xlink:href="#DejaVuSans-4e" transform="translate(1217.623047 0)"/>
     <use xlink:href="#DejaVuSans-65" transform="translate(1292.427734 0)"/>
     <use xlink:href="#DejaVuSans-61" transform="translate(1353.951172 0)"/>
     <use xlink:href="#DejaVuSans-72" transform="translate(1415.230469 0)"/>
     <use xlink:href="#DejaVuSans-65" transform="translate(1454.09375 0)"/>
     <use xlink:href="#DejaVuSans-73" transform="translate(1515.617188 0)"/>
     <use xlink:href="#DejaVuSans-74" transform="translate(1567.716797 0)"/>
     <use xlink:href="#DejaVuSans-20" transform="translate(1606.925781 0)"/>
     <use xlink:href="#DejaVuSans-4d" transform="translate(1638.712891 0)"/>
     <use xlink:href="#DejaVuSans-61" transform="translate(1724.992188 0)"/>
     <use xlink:href="#DejaVuSans-6e" transform="translate(1786.271484 0)"/>
     <use xlink:href="#DejaVuSans-75" transform="translate(1849.650391 0)"/>
     <use xlink:href="#DejaVuSans-73" transform="translate(1913.029297 0)"/>
     <use xlink:href="#DejaVuSans-63" transform="translate(1965.128906 0)"/>
     <use xlink:href="#DejaVuSans-72" transform="translate(2020.109375 0)"/>
     <use xlink:href="#DejaVuSans-69" transform="translate(2061.222656 0)"/>
     <use xlink:href="#DejaVuSans-70" transform="translate(2089.005859 0)"/>
     <use xlink:href="#DejaVuSans-74" transform="translate(2152.482422 0)"/>
     <use xlink:href="#DejaVuSans-20" transform="translate(2191.691406 0)"/>
     <use xlink:href="#DejaVuSans-4f" transform="translate(2223.478516 0)"/>
     <use xlink:href="#DejaVuSans-70" transform="translate(2302.189453 0)"/>
     <use xlink:href="#DejaVuSans-65" transform="translate(2365.666016 0)"/>
     <use xlink:href="#DejaVuSans-72" transform="translate(2427.189453 0)"/>
     <use xlink:href="#DejaVuSans-61" transform="translate(2468.302734 0)"/>
     <use xlink:href="#DejaVuSans-74" transform="translate(2529.582031 0)"/>
     <use xlink:href="#DejaVuSans-69" transform="translate(2568.791016 0)"/>
     <use xlink:href="#DejaVuSans-6e" transform="translate(2596.574219 0)"/>
     <use xlink:href="#DejaVuSans-67" transform="translate(2659.953125 0)"/>
     <use xlink:href="#DejaVuSans-20" transform="translate(2723.429688 0)"/>
     <use xlink:href="#DejaVuSans-50" transform="translate(2755.216797 0)"/>
     <use xlink:href="#DejaVuSans-6f" transform="translate(2811.894531 0)"/>
     <use xlink:href="#DejaVuSans-69" transform="translate(2873.076172 0)"/>
     <use xlink:href="#DejaVuSans-6e" transform="translate(2900.859375 0)"/>
     <use xlink:href="#DejaVuSans-74" transform="translate(2964.238281 0)"/>
    </g>
    <!-- (sorted by mean absolute % error across displayed metrics) -->
    <g transform="translate(301.039093 25.55574) scale(0.12 -0.12)">
     <defs>
      <path id="DejaVuSans-28" d="M 1984 4856 
Q 1566 4138 1362 3434 
Q 1159 2731 1159 2009 
Q 1159 1288 1364 580 
Q 1569 -128 1984 -844 
L 1484 -844 
Q 1016 -109 783 600 
Q 550 1309 550 2009 
Q 550 2706 781 3412 
Q 1013 4119 1484 4856 
L 1984 4856 
z
" transform="scale(0.015625)"/>
      <path id="DejaVuSans-62" d="M 3116 1747 
Q 3116 2381 2855 2742 
Q 2594 3103 2138 3103 
Q 1681 3103 1420 2742 
Q 1159 2381 1159 1747 
Q 1159 1113 1420 752 
Q 1681 391 2138 391 
Q 2594 391 2855 752 
Q 3116 1113 3116 1747 
z
M 1159 2969 
Q 1341 3281 1617 3432 
Q 1894 3584 2278 3584 
Q 2916 3584 3314 3078 
Q 3713 2572 3713 1747 
Q 3713 922 3314 415 
Q 2916 -91 2278 -91 
Q 1894 -91 1617 61 
Q 1341 213 1159 525 
L 1159 0 
L 581 0 
L 581 4863 
L 1159 4863 
L 1159 2969 
z
" transform="scale(0.015625)"/>
      <path id="DejaVuSans-79" d="M 2059 -325 
Q 1816 -950 1584 -1140 
Q 1353 -1331 966 -1331 
L 506 -1331 
L 506 -850 
L 844 -850 
Q 1081 -850 1212 -737 
Q 1344 -625 1503 -206 
L 1606 56 
L 191 3500 
L 800 3500 
L 1894 763 
L 2988 3500 
L 3597 3500 
L 2059 -325 
z
" transform="scale(0.015625)"/>
      <path id="DejaVuSans-29" d="M 513 4856 
L 1013 4856 
Q 1481 4119 1714 3412 
Q 1947 2706 1947 2009 
Q 1947 1309 1714 600 
Q 1481 -109 1013 -844 
L 513 -844 
Q 928 -128 1133 580 
Q 1338 1288 1338 2009 
Q 1338 2731 1133 3434 
Q 928 4138 513 4856 
z
" transform="scale(0.015625)"/>
     </defs>
     <use xlink:href="#DejaVuSans-28"/>
     <use xlink:href="#DejaVuSans-73" transform="translate(39.013672 0)"/>
     <use xlink:href="#DejaVuSans-6f" transform="translate(91.113281 0)"/>
     <use xlink:href="#DejaVuSans-72" transform="translate(152.294922 0)"/>
     <use xlink:href="#DejaVuSans-74" transform="translate(193.408203 0)"/>
     <use xlink:href="#DejaVuSans-65" transform="translate(232.617188 0)"/>
     <use xlink:href="#DejaVuSans-64" transform="translate(294.140625 0)"/>
     <use xlink:href="#DejaVuSans-20" transform="translate(357.617188 0)"/>
     <use xlink:href="#DejaVuSans-62" transform="translate(389.404297 0)"/>
     <use xlink:href="#DejaVuSans-79" transform="translate(452.880859 0)"/>
     <use xlink:href="#DejaVuSans-20" transform="translate(512.060547 0)"/>
     <use xlink:href="#DejaVuSans-6d" transform="translate(543.847656 0)"/>
     <use xlink:href="#DejaVuSans-65" transform="translate(641.259766 0)"/>
     <use xlink:href="#DejaVuSans-61" transform="translate(702.783203 0)"/>
     <use xlink:href="#DejaVuSans-6e" transform="translate(764.0625 0)"/>
     <use xlink:href="#DejaVuSans-20" transform="translate(827.441406 0)"/>
     <use xlink:href="#DejaVuSans-61" transform="translate(859.228516 0)"/>
     <use xlink:href="#DejaVuSans-62" transform="translate(920.507812 0)"/>
     <use xlink:href="#DejaVuSans-73" transform="translate(983.984375 0)"/>
     <use xlink:href="#DejaVuSans-6f" transform="translate(1036.083984 0)"/>
     <use xlink:href="#DejaVuSans-6c" transform="translate(1097.265625 0)"/>
     <use xlink:href="#DejaVuSans-75" transform="translate(1125.048828 0)"/>
     <use xlink:href="#DejaVuSans-74" transform="translate(1188.427734 0)"/>
     <use xlink:href="#DejaVuSans-65" transform="translate(1227.636719 0)"/>
     <use xlink:href="#DejaVuSans-20" transform="translate(1289.160156 0)"/>
     <use xlink:href="#DejaVuSans-25" transform="translate(1320.947266 0)"/>
     <use xlink:href="#DejaVuSans-20" transform="translate(1415.966797 0)"/>
     <use xlink:href="#DejaVuSans-65" transform="translate(1447.753906 0)"/>
     <use xlink:href="#DejaVuSans-72" transform="translate(1509.277344 0)"/>
     <use xlink:href="#DejaVuSans-72" transform="translate(1548.640625 0)"/>
     <use xlink:href="#DejaVuSans-6f" transform="translate(1587.503906 0)"/>
     <use xlink:href="#DejaVuSans-72" transform="translate(1648.685547 0)"/>
     <use xlink:href="#DejaVuSans-20" transform="translate(1689.798828 0)"/>
     <use xlink:href="#DejaVuSans-61" transform="translate(1721.585938 0)"/>
     <use xlink:href="#DejaVuSans-63" transform="translate(1782.865234 0)"/>
     <use xlink:href="#DejaVuSans-72" transform="translate(1837.845703 0)"/>
     <use xlink:href="#DejaVuSans-6f" transform="translate(1876.708984 0)"/>
     <use xlink:href="#DejaVuSans-73" transform="translate(1937.890625 0)"/>
     <use xlink:href="#DejaVuSans-73" transform="translate(1989.990234 0)"/>
     <use xlink:href="#DejaVuSans-20" transform="translate(2042.089844 0)"/>
     <use xlink:href="#DejaVuSans-64" transform="translate(2073.876953 0)"/>
     <use xlink:href="#DejaVuSans-69" transform="translate(2137.353516 0)"/>
     <use xlink:href="#DejaVuSans-73" transform="translate(2165.136719 0)"/>
     <use xlink:href="#DejaVuSans-70" transform="translate(2217.236328 0)"/>
     <use xlink:href="#DejaVuSans-6c" transform="translate(2280.712891 0)"/>
     <use xlink:href="#DejaVuSans-61" transform="translate(2308.496094 0)"/>
     <use xlink:href="#DejaVuSans-79" transform="translate(2369.775391 0)"/>
     <use xlink:href="#DejaVuSans-65" transform="translate(2428.955078 0)"/>
     <use xlink:href="#DejaVuSans-64" transform="translate(2490.478516 0)"/>
     <use xlink:href="#DejaVuSans-20" transform="translate(2553.955078 0)"/>
     <use xlink:href="#DejaVuSans-6d" transform="translate(2585.742188 0)"/>
     <use xlink:href="#DejaVuSans-65" transform="translate(2683.154297 0)"/>
     <use xlink:href="#DejaVuSans-74" transform="translate(2744.677734 0)"/>
     <use xlink:href="#DejaVuSans-72" transform="translate(2783.886719 0)"/>
     <use xlink:href="#DejaVuSans-69" transform="translate(2825 0)"/>
     <use xlink:href="#DejaVuSans-63" transform="translate(2852.783203 0)"/>
     <use xlink:href="#DejaVuSans-73" transform="translate(2907.763672 0)"/>
     <use xlink:href="#DejaVuSans-29" transform="translate(2959.863281 0)"/>
    </g>
   </g>
   <g id="legend_1">
    <g id="patch_87">
     <path d="M 71.943427 54.233865 
L 355.315302 54.233865 
Q 357.315302 54.233865 357.315302 52.233865 
L 357.315302 38.55574 
Q 357.315302 36.55574 355.315302 36.55574 
L 71.943427 36.55574 
Q 69.943427 36.55574 69.943427 38.55574 
L 69.943427 52.233865 
Q 69.943427 54.233865 71.943427 54.233865 
z
" style="fill: #ffffff; opacity: 0.8; stroke: #cccccc; stroke-linejoin: miter"/>
    </g>
    <g id="patch_88">
     <path d="M 73.943427 48.154178 
L 93.943427 48.154178 
L 93.943427 41.154178 
L 73.943427 41.154178 
z
" style="fill: #1f77b4"/>
    </g>
    <g id="text_26">
     <!-- tau -->
     <g transform="translate(101.943427 48.154178) scale(0.1 -0.1)">
      <use xlink:href="#DejaVuSans-74"/>
      <use xlink:href="#DejaVuSans-61" transform="translate(39.208984 0)"/>
      <use xlink:href="#DejaVuSans-75" transform="translate(100.488281 0)"/>
     </g>
    </g>
    <g id="patch_89">
     <path d="M 138.329364 48.154178 
L 158.329364 48.154178 
L 158.329364 41.154178 
L 138.329364 41.154178 
z
" style="fill: #ff7f0e"/>
    </g>
    <g id="text_27">
     <!-- Q -->
     <g transform="translate(166.329364 48.154178) scale(0.1 -0.1)">
      <defs>
       <path id="DejaVuSans-51" d="M 2522 4238 
Q 1834 4238 1429 3725 
Q 1025 3213 1025 2328 
Q 1025 1447 1429 934 
Q 1834 422 2522 422 
Q 3209 422 3611 934 
Q 4013 1447 4013 2328 
Q 4013 3213 3611 3725 
Q 3209 4238 2522 4238 
z
M 3406 84 
L 4238 -825 
L 3475 -825 
L 2784 -78 
Q 2681 -84 2626 -87 
Q 2572 -91 2522 -91 
Q 1538 -91 948 567 
Q 359 1225 359 2328 
Q 359 3434 948 4092 
Q 1538 4750 2522 4750 
Q 3503 4750 4090 4092 
Q 4678 3434 4678 2328 
Q 4678 1516 4351 937 
Q 4025 359 3406 84 
z
" transform="scale(0.015625)"/>
      </defs>
      <use xlink:href="#DejaVuSans-51"/>
     </g>
    </g>
    <g id="patch_90">
     <path d="M 194.201239 48.154178 
L 214.201239 48.154178 
L 214.201239 41.154178 
L 194.201239 41.154178 
z
" style="fill: #2ca02c"/>
    </g>
    <g id="text_28">
     <!-- V -->
     <g transform="translate(222.201239 48.154178) scale(0.1 -0.1)">
      <defs>
       <path id="DejaVuSans-56" d="M 1831 0 
L 50 4666 
L 709 4666 
L 2188 738 
L 3669 4666 
L 4325 4666 
L 2547 0 
L 1831 0 
z
" transform="scale(0.015625)"/>
      </defs>
      <use xlink:href="#DejaVuSans-56"/>
     </g>
    </g>
    <g id="patch_91">
     <path d="M 249.041864 48.154178 
L 269.041864 48.154178 
L 269.041864 41.154178 
L 249.041864 41.154178 
z
" style="fill: #d62728"/>
    </g>
    <g id="text_29">
     <!-- L -->
     <g transform="translate(277.041864 48.154178) scale(0.1 -0.1)">
      <defs>
       <path id="DejaVuSans-4c" d="M 628 4666 
L 1259 4666 
L 1259 531 
L 3531 531 
L 3531 0 
L 628 0 
L 628 4666 
z
" transform="scale(0.015625)"/>
      </defs>
      <use xlink:href="#DejaVuSans-4c"/>
     </g>
    </g>
    <g id="patch_92">
     <path d="M 302.613739 48.154178 
L 322.613739 48.154178 
L 322.613739 41.154178 
L 302.613739 41.154178 
z
" style="fill: #9467bd"/>
    </g>
    <g id="text_30">
     <!-- prod -->
     <g transform="translate(330.613739 48.154178) scale(0.1 -0.1)">
      <use xlink:href="#DejaVuSans-70"/>
      <use xlink:href="#DejaVuSans-72" transform="translate(63.476562 0)"/>
      <use xlink:href="#DejaVuSans-6f" transform="translate(102.339844 0)"/>
      <use xlink:href="#DejaVuSans-64" transform="translate(163.521484 0)"/>
     </g>
    </g>
   </g>
  </g>
 </g>
 <defs>
  <clipPath id="p69b17fbf64">
   <rect x="64.943427" y="31.55574" width="832.056333" height="318.184367"/>
  </clipPath>
 </defs>
</svg>
