<?xml version="1.0" encoding="utf-8" standalone="no"?>
<!DOCTYPE svg PUBLIC "-//W3C//DTD SVG 1.1//EN"
  "http://www.w3.org/Graphics/SVG/1.1/DTD/svg11.dtd">
<svg xmlns:xlink="http://www.w3.org/1999/xlink" width="662.4pt" height="619.2pt" viewBox="0 0 662.4 619.2" xmlns="http://www.w3.org/2000/svg" version="1.1">
 <metadata>
  <rdf:RDF xmlns:dc="http://purl.org/dc/elements/1.1/" xmlns:cc="http://creativecommons.org/ns#" xmlns:rdf="http://www.w3.org/1999/02/22-rdf-syntax-ns#">
   <cc:Work>
    <dc:type rdf:resource="http://purl.org/dc/dcmitype/StillImage"/>
    <dc:date>2026-05-07T11:43:29.519975</dc:date>
    <dc:format>image/svg+xml</dc:format>
    <dc:creator>
     <cc:Agent>
      <dc:title>Matplotlib v3.10.8, https://matplotlib.org/</dc:title>
     </cc:Agent>
    </dc:creator>
   </cc:Work>
  </rdf:RDF>
 </metadata>
 <defs>
  <style type="text/css">*{stroke-linejoin: round; stroke-linecap: butt}</style>
 </defs>
 <g id="figure_1">
  <g id="patch_1">
   <path d="M 0 619.2 
L 662.4 619.2 
L 662.4 0 
L 0 0 
z
" style="fill: #ffffff"/>
  </g>
  <g id="axes_1">
   <g id="patch_2">
    <path d="M 470.980407 309.6 
C 470.980407 280.016511 465.153105 250.720684 453.831994 223.389104 
C 442.510883 196.057524 425.91613 171.221721 404.997444 150.303036 
C 384.078759 129.38435 359.242956 112.789597 331.911376 101.468486 
C 304.579796 90.147375 275.283969 84.320073 245.70048 84.320073 
C 216.116991 84.320073 186.821164 90.147375 159.489584 101.468486 
C 132.158004 112.789597 107.322201 129.38435 86.403516 150.303036 
C 65.48483 171.221721 48.890077 196.057524 37.568966 223.389104 
C 26.247855 250.720684 20.420552 280.016511 20.420552 309.6 
C 20.420552 339.183489 26.247855 368.479316 37.568966 395.810896 
C 48.890077 423.142476 65.48483 447.978279 86.403516 468.896964 
C 107.322201 489.81565 132.158004 506.410403 159.489584 517.731514 
C 186.821164 529.052625 216.116991 534.879927 245.70048 534.879927 
C 275.283969 534.879927 304.579796 529.052625 331.911376 517.731514 
C 359.242956 506.410403 384.078759 489.81565 404.997444 468.896964 
C 425.91613 447.978279 442.510883 423.142476 453.831994 395.810896 
C 465.153105 368.479316 470.980407 339.183489 470.980407 309.6 
M 245.70048 309.6 
C 245.70048 309.6 245.70048 309.6 245.70048 309.6 
C 245.70048 309.6 245.70048 309.6 245.70048 309.6 
C 245.70048 309.6 245.70048 309.6 245.70048 309.6 
C 245.70048 309.6 245.70048 309.6 245.70048 309.6 
C 245.70048 309.6 245.70048 309.6 245.70048 309.6 
C 245.70048 309.6 245.70048 309.6 245.70048 309.6 
C 245.70048 309.6 245.70048 309.6 245.70048 309.6 
C 245.70048 309.6 245.70048 309.6 245.70048 309.6 
C 245.70048 309.6 245.70048 309.6 245.70048 309.6 
C 245.70048 309.6 245.70048 309.6 245.70048 309.6 
C 245.70048 309.6 245.70048 309.6 245.70048 309.6 
C 245.70048 309.6 245.70048 309.6 245.70048 309.6 
C 245.70048 309.6 245.70048 309.6 245.70048 309.6 
C 245.70048 309.6 245.70048 309.6 245.70048 309.6 
C 245.70048 309.6 245.70048 309.6 245.70048 309.6 
C 245.70048 309.6 245.70048 309.6 245.70048 309.6 
z
" style="fill: #ffffff"/>
   </g>
   <g id="patch_3">
    <path d="M 286.782531 309.6 
L 353.751076 122.450878 
L 207.938417 244.194189 
L 58.681715 309.6 
L 137.649884 496.749122 
L 353.751076 496.749122 
z
" clip-path="url(#p3428b62732)" style="fill: #355070; opacity: 0.025; stroke: #355070; stroke-linejoin: miter"/>
   </g>
   <g id="patch_4">
    <path d="M 278.22695 309.6 
L 353.751076 122.450878 
L 207.938417 244.194189 
L 66.743476 309.6 
L 137.649884 496.749122 
L 353.751076 496.749122 
z
" clip-path="url(#p3428b62732)" style="fill: #355070; opacity: 0.025; stroke: #355070; stroke-linejoin: miter"/>
   </g>
   <g id="patch_5">
    <path d="M 286.782531 309.6 
L 353.751076 122.450878 
L 180.647539 196.925002 
L 29.599289 309.6 
L 149.635749 475.988995 
L 353.751076 496.749122 
z
" clip-path="url(#p3428b62732)" style="fill: #355070; opacity: 0.025; stroke: #355070; stroke-linejoin: miter"/>
   </g>
   <g id="patch_6">
    <path d="M 278.22695 309.6 
L 353.751076 122.450878 
L 198.425035 227.716527 
L 66.743476 309.6 
L 142.884094 487.683204 
L 353.751076 496.749122 
z
" clip-path="url(#p3428b62732)" style="fill: #355070; opacity: 0.025; stroke: #355070; stroke-linejoin: miter"/>
   </g>
   <g id="patch_7">
    <path d="M 278.22695 309.6 
L 353.751076 122.450878 
L 207.938417 244.194189 
L 58.681715 309.6 
L 137.649884 496.749122 
L 353.751076 496.749122 
z
" clip-path="url(#p3428b62732)" style="fill: #b56576; opacity: 0.025; stroke: #b56576; stroke-linejoin: miter"/>
   </g>
   <g id="patch_8">
    <path d="M 278.22695 309.6 
L 353.751076 122.450878 
L 207.938417 244.194189 
L 66.743476 309.6 
L 137.649884 496.749122 
L 353.751076 496.749122 
z
" clip-path="url(#p3428b62732)" style="fill: #b56576; opacity: 0.025; stroke: #b56576; stroke-linejoin: miter"/>
   </g>
   <g id="patch_9">
    <path d="M 278.22695 309.6 
L 353.751076 122.450878 
L 198.425035 227.716527 
L 58.681715 309.6 
L 138.853213 494.664894 
L 353.751076 496.749122 
z
" clip-path="url(#p3428b62732)" style="fill: #b56576; opacity: 0.025; stroke: #b56576; stroke-linejoin: miter"/>
   </g>
   <g id="patch_10">
    <path d="M 282.699455 309.6 
L 353.751076 122.450878 
L 198.425035 227.716527 
L 66.743476 309.6 
L 142.884094 487.683204 
L 353.751076 496.749122 
z
" clip-path="url(#p3428b62732)" style="fill: #b56576; opacity: 0.025; stroke: #b56576; stroke-linejoin: miter"/>
   </g>
   <g id="patch_11">
    <path d="M 360.309513 309.6 
L 329.94256 163.688438 
L 198.425035 227.716527 
L 70.659687 309.6 
L 144.842199 484.291667 
L 329.977343 455.571808 
z
" clip-path="url(#p3428b62732)" style="fill: #9d4edd; opacity: 0.025; stroke: #9d4edd; stroke-linejoin: miter"/>
   </g>
   <g id="patch_12">
    <path d="M 353.751076 309.6 
L 335.178982 154.618689 
L 207.938417 244.194189 
L 66.743476 309.6 
L 137.649884 496.749122 
L 335.213765 464.641557 
z
" clip-path="url(#p3428b62732)" style="fill: #9d4edd; opacity: 0.025; stroke: #9d4edd; stroke-linejoin: miter"/>
   </g>
   <g id="patch_13">
    <path d="M 321.224605 309.6 
L 353.751076 122.450878 
L 207.938417 244.194189 
L 31.681257 309.6 
L 137.649884 496.749122 
L 353.751076 496.749122 
z
" clip-path="url(#p3428b62732)" style="fill: #9d4edd; opacity: 0.025; stroke: #9d4edd; stroke-linejoin: miter"/>
   </g>
   <g id="patch_14">
    <path d="M 316.280481 309.6 
L 353.751076 122.450878 
L 191.675182 216.025439 
L 39.748216 309.6 
L 142.886169 487.679611 
L 353.751076 496.749122 
z
" clip-path="url(#p3428b62732)" style="fill: #9d4edd; opacity: 0.025; stroke: #9d4edd; stroke-linejoin: miter"/>
   </g>
   <g id="patch_15">
    <path d="M 386.51159 309.6 
L 338.445642 148.960667 
L 207.938417 244.194189 
L 29.599289 309.6 
L 137.649884 496.749122 
L 338.480425 470.299579 
z
" clip-path="url(#p3428b62732)" style="fill: #f4a261; opacity: 0.025; stroke: #f4a261; stroke-linejoin: miter"/>
   </g>
   <g id="patch_16">
    <path d="M 360.391053 309.6 
L 353.751076 122.450878 
L 207.938417 244.194189 
L 29.599289 309.6 
L 137.649884 496.749122 
L 353.751076 496.749122 
z
" clip-path="url(#p3428b62732)" style="fill: #f4a261; opacity: 0.025; stroke: #f4a261; stroke-linejoin: miter"/>
   </g>
   <g id="patch_17">
    <path d="M 461.801671 309.6 
L 344.573683 138.346589 
L 198.425035 227.716527 
L 29.599289 309.6 
L 137.649884 496.749122 
L 344.608466 480.913657 
z
" clip-path="url(#p3428b62732)" style="fill: #f4a261; opacity: 0.025; stroke: #f4a261; stroke-linejoin: miter"/>
   </g>
   <g id="patch_18">
    <path d="M 334.958354 309.6 
L 344.573683 138.346589 
L 198.425035 227.716527 
L 66.743476 309.6 
L 142.884094 487.683204 
L 344.608466 480.913657 
z
" clip-path="url(#p3428b62732)" style="fill: #f4a261; opacity: 0.025; stroke: #f4a261; stroke-linejoin: miter"/>
   </g>
   <g id="matplotlib.axis_1">
    <g id="xtick_1">
     <g id="line2d_1">
      <path d="M 245.70048 309.6 
L 470.980407 309.6 
" clip-path="url(#p3428b62732)" style="fill: none; stroke: #b0b0b0; stroke-width: 0.8; stroke-linecap: square"/>
     </g>
     <g id="text_1">
      <!-- tau -->
      <g transform="translate(476.787439 312.359375) scale(0.1 -0.1)">
       <defs>
        <path id="DejaVuSans-74" d="M 1172 4494 
L 1172 3500 
L 2356 3500 
L 2356 3053 
L 1172 3053 
L 1172 1153 
Q 1172 725 1289 603 
Q 1406 481 1766 481 
L 2356 481 
L 2356 0 
L 1766 0 
Q 1100 0 847 248 
Q 594 497 594 1153 
L 594 3053 
L 172 3053 
L 172 3500 
L 594 3500 
L 594 4494 
L 1172 4494 
z
" transform="scale(0.015625)"/>
        <path id="DejaVuSans-61" d="M 2194 1759 
Q 1497 1759 1228 1600 
Q 959 1441 959 1056 
Q 959 750 1161 570 
Q 1363 391 1709 391 
Q 2188 391 2477 730 
Q 2766 1069 2766 1631 
L 2766 1759 
L 2194 1759 
z
M 3341 1997 
L 3341 0 
L 2766 0 
L 2766 531 
Q 2569 213 2275 61 
Q 1981 -91 1556 -91 
Q 1019 -91 701 211 
Q 384 513 384 1019 
Q 384 1609 779 1909 
Q 1175 2209 1959 2209 
L 2766 2209 
L 2766 2266 
Q 2766 2663 2505 2880 
Q 2244 3097 1772 3097 
Q 1472 3097 1187 3025 
Q 903 2953 641 2809 
L 641 3341 
Q 956 3463 1253 3523 
Q 1550 3584 1831 3584 
Q 2591 3584 2966 3190 
Q 3341 2797 3341 1997 
z
" transform="scale(0.015625)"/>
        <path id="DejaVuSans-75" d="M 544 1381 
L 544 3500 
L 1119 3500 
L 1119 1403 
Q 1119 906 1312 657 
Q 1506 409 1894 409 
Q 2359 409 2629 706 
Q 2900 1003 2900 1516 
L 2900 3500 
L 3475 3500 
L 3475 0 
L 2900 0 
L 2900 538 
Q 2691 219 2414 64 
Q 2138 -91 1772 -91 
Q 1169 -91 856 284 
Q 544 659 544 1381 
z
M 1991 3584 
L 1991 3584 
z
" transform="scale(0.015625)"/>
       </defs>
       <use xlink:href="#DejaVuSans-74"/>
       <use xlink:href="#DejaVuSans-61" transform="translate(39.208984 0)"/>
       <use xlink:href="#DejaVuSans-75" transform="translate(100.488281 0)"/>
      </g>
     </g>
    </g>
    <g id="xtick_2">
     <g id="line2d_2">
      <path d="M 245.70048 309.6 
L 358.340444 114.50186 
" clip-path="url(#p3428b62732)" style="fill: none; stroke: #b0b0b0; stroke-width: 0.8; stroke-linecap: square"/>
     </g>
     <g id="text_2">
      <!-- Q -->
      <g transform="translate(361.404506 105.136879) scale(0.1 -0.1)">
       <defs>
        <path id="DejaVuSans-51" d="M 2522 4238 
Q 1834 4238 1429 3725 
Q 1025 3213 1025 2328 
Q 1025 1447 1429 934 
Q 1834 422 2522 422 
Q 3209 422 3611 934 
Q 4013 1447 4013 2328 
Q 4013 3213 3611 3725 
Q 3209 4238 2522 4238 
z
M 3406 84 
L 4238 -825 
L 3475 -825 
L 2784 -78 
Q 2681 -84 2626 -87 
Q 2572 -91 2522 -91 
Q 1538 -91 948 567 
Q 359 1225 359 2328 
Q 359 3434 948 4092 
Q 1538 4750 2522 4750 
Q 3503 4750 4090 4092 
Q 4678 3434 4678 2328 
Q 4678 1516 4351 937 
Q 4025 359 3406 84 
z
" transform="scale(0.015625)"/>
       </defs>
       <use xlink:href="#DejaVuSans-51"/>
      </g>
     </g>
    </g>
    <g id="xtick_3">
     <g id="line2d_3">
      <path d="M 245.70048 309.6 
L 133.060516 114.50186 
" clip-path="url(#p3428b62732)" style="fill: none; stroke: #b0b0b0; stroke-width: 0.8; stroke-linecap: square"/>
     </g>
     <g id="text_3">
      <!-- ID -->
      <g transform="translate(120.735516 105.136879) scale(0.1 -0.1)">
       <defs>
        <path id="DejaVuSans-49" d="M 628 4666 
L 1259 4666 
L 1259 0 
L 628 0 
L 628 4666 
z
" transform="scale(0.015625)"/>
        <path id="DejaVuSans-44" d="M 1259 4147 
L 1259 519 
L 2022 519 
Q 2988 519 3436 956 
Q 3884 1394 3884 2338 
Q 3884 3275 3436 3711 
Q 2988 4147 2022 4147 
L 1259 4147 
z
M 628 4666 
L 1925 4666 
Q 3281 4666 3915 4102 
Q 4550 3538 4550 2338 
Q 4550 1131 3912 565 
Q 3275 0 1925 0 
L 628 0 
L 628 4666 
z
" transform="scale(0.015625)"/>
       </defs>
       <use xlink:href="#DejaVuSans-49"/>
       <use xlink:href="#DejaVuSans-44" transform="translate(29.492188 0)"/>
      </g>
     </g>
    </g>
    <g id="xtick_4">
     <g id="line2d_4">
      <path d="M 245.70048 309.6 
L 20.420552 309.6 
" clip-path="url(#p3428b62732)" style="fill: none; stroke: #b0b0b0; stroke-width: 0.8; stroke-linecap: square"/>
     </g>
     <g id="text_4">
      <!-- V -->
      <g transform="translate(3.00024 312.359375) scale(0.1 -0.1)">
       <defs>
        <path id="DejaVuSans-56" d="M 1831 0 
L 50 4666 
L 709 4666 
L 2188 738 
L 3669 4666 
L 4325 4666 
L 2547 0 
L 1831 0 
z
" transform="scale(0.015625)"/>
       </defs>
       <use xlink:href="#DejaVuSans-56"/>
      </g>
     </g>
    </g>
    <g id="xtick_5">
     <g id="line2d_5">
      <path d="M 245.70048 309.6 
L 133.060516 504.69814 
" clip-path="url(#p3428b62732)" style="fill: none; stroke: #b0b0b0; stroke-width: 0.8; stroke-linecap: square"/>
     </g>
     <g id="text_5">
      <!-- L -->
      <g transform="translate(123.274579 519.581871) scale(0.1 -0.1)">
       <defs>
        <path id="DejaVuSans-4c" d="M 628 4666 
L 1259 4666 
L 1259 531 
L 3531 531 
L 3531 0 
L 628 0 
L 628 4666 
z
" transform="scale(0.015625)"/>
       </defs>
       <use xlink:href="#DejaVuSans-4c"/>
      </g>
     </g>
    </g>
    <g id="xtick_6">
     <g id="line2d_6">
      <path d="M 245.70048 309.6 
L 358.340444 504.69814 
" clip-path="url(#p3428b62732)" style="fill: none; stroke: #b0b0b0; stroke-width: 0.8; stroke-linecap: square"/>
     </g>
     <g id="text_6">
      <!-- prod -->
      <g transform="translate(353.989662 519.581871) scale(0.1 -0.1)">
       <defs>
        <path id="DejaVuSans-70" d="M 1159 525 
L 1159 -1331 
L 581 -1331 
L 581 3500 
L 1159 3500 
L 1159 2969 
Q 1341 3281 1617 3432 
Q 1894 3584 2278 3584 
Q 2916 3584 3314 3078 
Q 3713 2572 3713 1747 
Q 3713 922 3314 415 
Q 2916 -91 2278 -91 
Q 1894 -91 1617 61 
Q 1341 213 1159 525 
z
M 3116 1747 
Q 3116 2381 2855 2742 
Q 2594 3103 2138 3103 
Q 1681 3103 1420 2742 
Q 1159 2381 1159 1747 
Q 1159 1113 1420 752 
Q 1681 391 2138 391 
Q 2594 391 2855 752 
Q 3116 1113 3116 1747 
z
" transform="scale(0.015625)"/>
        <path id="DejaVuSans-72" d="M 2631 2963 
Q 2534 3019 2420 3045 
Q 2306 3072 2169 3072 
Q 1681 3072 1420 2755 
Q 1159 2438 1159 1844 
L 1159 0 
L 581 0 
L 581 3500 
L 1159 3500 
L 1159 2956 
Q 1341 3275 1631 3429 
Q 1922 3584 2338 3584 
Q 2397 3584 2469 3576 
Q 2541 3569 2628 3553 
L 2631 2963 
z
" transform="scale(0.015625)"/>
        <path id="DejaVuSans-6f" d="M 1959 3097 
Q 1497 3097 1228 2736 
Q 959 2375 959 1747 
Q 959 1119 1226 758 
Q 1494 397 1959 397 
Q 2419 397 2687 759 
Q 2956 1122 2956 1747 
Q 2956 2369 2687 2733 
Q 2419 3097 1959 3097 
z
M 1959 3584 
Q 2709 3584 3137 3096 
Q 3566 2609 3566 1747 
Q 3566 888 3137 398 
Q 2709 -91 1959 -91 
Q 1206 -91 779 398 
Q 353 888 353 1747 
Q 353 2609 779 3096 
Q 1206 3584 1959 3584 
z
" transform="scale(0.015625)"/>
        <path id="DejaVuSans-64" d="M 2906 2969 
L 2906 4863 
L 3481 4863 
L 3481 0 
L 2906 0 
L 2906 525 
Q 2725 213 2448 61 
Q 2172 -91 1784 -91 
Q 1150 -91 751 415 
Q 353 922 353 1747 
Q 353 2572 751 3078 
Q 1150 3584 1784 3584 
Q 2172 3584 2448 3432 
Q 2725 3281 2906 2969 
z
M 947 1747 
Q 947 1113 1208 752 
Q 1469 391 1925 391 
Q 2381 391 2643 752 
Q 2906 1113 2906 1747 
Q 2906 2381 2643 2742 
Q 2381 3103 1925 3103 
Q 1469 3103 1208 2742 
Q 947 2381 947 1747 
z
" transform="scale(0.015625)"/>
       </defs>
       <use xlink:href="#DejaVuSans-70"/>
       <use xlink:href="#DejaVuSans-72" transform="translate(63.476562 0)"/>
       <use xlink:href="#DejaVuSans-6f" transform="translate(102.339844 0)"/>
       <use xlink:href="#DejaVuSans-64" transform="translate(163.521484 0)"/>
      </g>
     </g>
    </g>
   </g>
   <g id="matplotlib.axis_2">
    <g id="ytick_1">
     <g id="line2d_7">
      <path d="M 245.70048 309.6 
C 245.70048 309.6 245.70048 309.6 245.70048 309.6 
C 245.70048 309.6 245.70048 309.6 245.70048 309.6 
C 245.70048 309.6 245.70048 309.6 245.70048 309.6 
C 245.70048 309.6 245.70048 309.6 245.70048 309.6 
C 245.70048 309.6 245.70048 309.6 245.70048 309.6 
C 245.70048 309.6 245.70048 309.6 245.70048 309.6 
C 245.70048 309.6 245.70048 309.6 245.70048 309.6 
C 245.70048 309.6 245.70048 309.6 245.70048 309.6 
C 245.70048 309.6 245.70048 309.6 245.70048 309.6 
C 245.70048 309.6 245.70048 309.6 245.70048 309.6 
C 245.70048 309.6 245.70048 309.6 245.70048 309.6 
C 245.70048 309.6 245.70048 309.6 245.70048 309.6 
C 245.70048 309.6 245.70048 309.6 245.70048 309.6 
C 245.70048 309.6 245.70048 309.6 245.70048 309.6 
C 245.70048 309.6 245.70048 309.6 245.70048 309.6 
C 245.70048 309.6 245.70048 309.6 245.70048 309.6 
" clip-path="url(#p3428b62732)" style="fill: none; stroke: #b0b0b0; stroke-width: 0.8; stroke-linecap: square"/>
     </g>
     <g id="text_7">
      <!-- 0.1x -->
      <g transform="translate(245.70048 307.93625) scale(0.08 -0.08)">
       <defs>
        <path id="DejaVuSans-30" d="M 2034 4250 
Q 1547 4250 1301 3770 
Q 1056 3291 1056 2328 
Q 1056 1369 1301 889 
Q 1547 409 2034 409 
Q 2525 409 2770 889 
Q 3016 1369 3016 2328 
Q 3016 3291 2770 3770 
Q 2525 4250 2034 4250 
z
M 2034 4750 
Q 2819 4750 3233 4129 
Q 3647 3509 3647 2328 
Q 3647 1150 3233 529 
Q 2819 -91 2034 -91 
Q 1250 -91 836 529 
Q 422 1150 422 2328 
Q 422 3509 836 4129 
Q 1250 4750 2034 4750 
z
" transform="scale(0.015625)"/>
        <path id="DejaVuSans-2e" d="M 684 794 
L 1344 794 
L 1344 0 
L 684 0 
L 684 794 
z
" transform="scale(0.015625)"/>
        <path id="DejaVuSans-31" d="M 794 531 
L 1825 531 
L 1825 4091 
L 703 3866 
L 703 4441 
L 1819 4666 
L 2450 4666 
L 2450 531 
L 3481 531 
L 3481 0 
L 794 0 
L 794 531 
z
" transform="scale(0.015625)"/>
        <path id="DejaVuSans-78" d="M 3513 3500 
L 2247 1797 
L 3578 0 
L 2900 0 
L 1881 1375 
L 863 0 
L 184 0 
L 1544 1831 
L 300 3500 
L 978 3500 
L 1906 2253 
L 2834 3500 
L 3513 3500 
z
" transform="scale(0.015625)"/>
       </defs>
       <use xlink:href="#DejaVuSans-30"/>
       <use xlink:href="#DejaVuSans-2e" transform="translate(63.623047 0)"/>
       <use xlink:href="#DejaVuSans-31" transform="translate(95.410156 0)"/>
       <use xlink:href="#DejaVuSans-78" transform="translate(159.033203 0)"/>
      </g>
     </g>
    </g>
    <g id="ytick_2">
     <g id="line2d_8">
      <path d="M 299.725778 309.6 
C 299.725778 302.505463 298.328309 295.479911 295.613347 288.925414 
C 292.898385 282.370916 288.91873 276.414941 283.902134 271.398346 
C 278.885539 266.38175 272.929564 262.402095 266.375066 259.687133 
C 259.820569 256.972171 252.795017 255.574702 245.70048 255.574702 
C 238.605943 255.574702 231.580391 256.972171 225.025894 259.687133 
C 218.471396 262.402095 212.515421 266.38175 207.498825 271.398346 
C 202.48223 276.414941 198.502575 282.370916 195.787613 288.925414 
C 193.072651 295.479911 191.675182 302.505463 191.675182 309.6 
C 191.675182 316.694537 193.072651 323.720089 195.787613 330.274586 
C 198.502575 336.829084 202.48223 342.785059 207.498825 347.801654 
C 212.515421 352.81825 218.471396 356.797905 225.025894 359.512867 
C 231.580391 362.227829 238.605943 363.625298 245.70048 363.625298 
C 252.795017 363.625298 259.820569 362.227829 266.375066 359.512867 
C 272.929564 356.797905 278.885539 352.81825 283.902134 347.801654 
C 288.91873 342.785059 292.898385 336.829084 295.613347 330.274586 
C 298.328309 323.720089 299.725778 316.694537 299.725778 309.6 
" clip-path="url(#p3428b62732)" style="fill: none; stroke: #b0b0b0; stroke-width: 0.8; stroke-linecap: square"/>
     </g>
     <g id="text_8">
      <!-- 0.32x -->
      <g transform="translate(295.613347 287.261664) scale(0.08 -0.08)">
       <defs>
        <path id="DejaVuSans-33" d="M 2597 2516 
Q 3050 2419 3304 2112 
Q 3559 1806 3559 1356 
Q 3559 666 3084 287 
Q 2609 -91 1734 -91 
Q 1441 -91 1130 -33 
Q 819 25 488 141 
L 488 750 
Q 750 597 1062 519 
Q 1375 441 1716 441 
Q 2309 441 2620 675 
Q 2931 909 2931 1356 
Q 2931 1769 2642 2001 
Q 2353 2234 1838 2234 
L 1294 2234 
L 1294 2753 
L 1863 2753 
Q 2328 2753 2575 2939 
Q 2822 3125 2822 3475 
Q 2822 3834 2567 4026 
Q 2313 4219 1838 4219 
Q 1578 4219 1281 4162 
Q 984 4106 628 3988 
L 628 4550 
Q 988 4650 1302 4700 
Q 1616 4750 1894 4750 
Q 2613 4750 3031 4423 
Q 3450 4097 3450 3541 
Q 3450 3153 3228 2886 
Q 3006 2619 2597 2516 
z
" transform="scale(0.015625)"/>
        <path id="DejaVuSans-32" d="M 1228 531 
L 3431 531 
L 3431 0 
L 469 0 
L 469 531 
Q 828 903 1448 1529 
Q 2069 2156 2228 2338 
Q 2531 2678 2651 2914 
Q 2772 3150 2772 3378 
Q 2772 3750 2511 3984 
Q 2250 4219 1831 4219 
Q 1534 4219 1204 4116 
Q 875 4013 500 3803 
L 500 4441 
Q 881 4594 1212 4672 
Q 1544 4750 1819 4750 
Q 2544 4750 2975 4387 
Q 3406 4025 3406 3419 
Q 3406 3131 3298 2873 
Q 3191 2616 2906 2266 
Q 2828 2175 2409 1742 
Q 1991 1309 1228 531 
z
" transform="scale(0.015625)"/>
       </defs>
       <use xlink:href="#DejaVuSans-30"/>
       <use xlink:href="#DejaVuSans-2e" transform="translate(63.623047 0)"/>
       <use xlink:href="#DejaVuSans-33" transform="translate(95.410156 0)"/>
       <use xlink:href="#DejaVuSans-32" transform="translate(159.033203 0)"/>
       <use xlink:href="#DejaVuSans-78" transform="translate(222.65625 0)"/>
      </g>
     </g>
    </g>
    <g id="ytick_3">
     <g id="line2d_9">
      <path d="M 353.751076 309.6 
C 353.751076 295.410926 350.956137 281.359822 345.526214 268.250827 
C 340.09629 255.141832 332.136979 243.229882 322.103789 233.196691 
C 312.070598 223.1635 300.158648 215.20419 287.049653 209.774266 
C 273.940657 204.344343 259.889554 201.549404 245.70048 201.549404 
C 231.511406 201.549404 217.460302 204.344343 204.351307 209.774266 
C 191.242312 215.20419 179.330362 223.1635 169.297171 233.196691 
C 159.26398 243.229882 151.30467 255.141832 145.874746 268.250827 
C 140.444822 281.359822 137.649884 295.410926 137.649884 309.6 
C 137.649884 323.789074 140.444822 337.840178 145.874746 350.949173 
C 151.30467 364.058168 159.26398 375.970118 169.297171 386.003309 
C 179.330362 396.0365 191.242312 403.99581 204.351307 409.425734 
C 217.460302 414.855657 231.511406 417.650596 245.70048 417.650596 
C 259.889554 417.650596 273.940657 414.855657 287.049653 409.425734 
C 300.158648 403.99581 312.070598 396.0365 322.103789 386.003309 
C 332.136979 375.970118 340.09629 364.058168 345.526214 350.949173 
C 350.956137 337.840178 353.751076 323.789074 353.751076 309.6 
" clip-path="url(#p3428b62732)" style="fill: none; stroke: #b0b0b0; stroke-width: 0.8; stroke-linecap: square"/>
     </g>
     <g id="text_9">
      <!-- 1x -->
      <g transform="translate(345.526214 266.587077) scale(0.08 -0.08)">
       <use xlink:href="#DejaVuSans-31"/>
       <use xlink:href="#DejaVuSans-78" transform="translate(63.623047 0)"/>
      </g>
     </g>
    </g>
    <g id="ytick_4">
     <g id="line2d_10">
      <path d="M 407.776373 309.6 
C 407.776373 288.316389 403.583966 267.239734 395.439081 247.576241 
C 387.294195 227.912748 375.355229 210.044823 360.305443 194.995037 
C 345.255657 179.945251 327.387732 168.006285 307.724239 159.861399 
C 288.060746 151.716514 266.984091 147.524106 245.70048 147.524106 
C 224.416869 147.524106 203.340214 151.716514 183.676721 159.861399 
C 164.013228 168.006285 146.145302 179.945251 131.095517 194.995037 
C 116.045731 210.044823 104.106765 227.912748 95.961879 247.576241 
C 87.816994 267.239734 83.624586 288.316389 83.624586 309.6 
C 83.624586 330.883611 87.816994 351.960266 95.961879 371.623759 
C 104.106765 391.287252 116.045731 409.155177 131.095517 424.204963 
C 146.145302 439.254749 164.013228 451.193715 183.676721 459.338601 
C 203.340214 467.483486 224.416869 471.675894 245.70048 471.675894 
C 266.984091 471.675894 288.060746 467.483486 307.724239 459.338601 
C 327.387732 451.193715 345.255657 439.254749 360.305443 424.204963 
C 375.355229 409.155177 387.294195 391.287252 395.439081 371.623759 
C 403.583966 351.960266 407.776373 330.883611 407.776373 309.6 
" clip-path="url(#p3428b62732)" style="fill: none; stroke: #b0b0b0; stroke-width: 0.8; stroke-linecap: square"/>
     </g>
     <g id="text_10">
      <!-- 3.2x -->
      <g transform="translate(395.439081 245.912491) scale(0.08 -0.08)">
       <use xlink:href="#DejaVuSans-33"/>
       <use xlink:href="#DejaVuSans-2e" transform="translate(63.623047 0)"/>
       <use xlink:href="#DejaVuSans-32" transform="translate(95.410156 0)"/>
       <use xlink:href="#DejaVuSans-78" transform="translate(159.033203 0)"/>
      </g>
     </g>
    </g>
    <g id="ytick_5">
     <g id="line2d_11">
      <path d="M 461.801671 309.6 
C 461.801671 281.221852 456.211795 253.119645 445.351948 226.901654 
C 434.4921 200.683664 418.573479 176.859763 398.507098 156.793382 
C 378.440717 136.727001 354.616816 120.80838 328.398826 109.948532 
C 302.180835 99.088685 274.078628 93.498809 245.70048 93.498809 
C 217.322331 93.498809 189.220125 99.088685 163.002134 109.948532 
C 136.784144 120.80838 112.960243 136.727001 92.893862 156.793382 
C 72.827481 176.859763 56.90886 200.683664 46.049012 226.901654 
C 35.189165 253.119645 29.599289 281.221852 29.599289 309.6 
C 29.599289 337.978148 35.189165 366.080355 46.049012 392.298346 
C 56.90886 418.516336 72.827481 442.340237 92.893862 462.406618 
C 112.960243 482.472999 136.784144 498.39162 163.002134 509.251468 
C 189.220125 520.111315 217.322331 525.701191 245.70048 525.701191 
C 274.078628 525.701191 302.180835 520.111315 328.398826 509.251468 
C 354.616816 498.39162 378.440717 482.472999 398.507098 462.406618 
C 418.573479 442.340237 434.4921 418.516336 445.351948 392.298346 
C 456.211795 366.080355 461.801671 337.978148 461.801671 309.6 
" clip-path="url(#p3428b62732)" style="fill: none; stroke: #b0b0b0; stroke-width: 0.8; stroke-linecap: square"/>
     </g>
     <g id="text_11">
      <!-- 10x -->
      <g transform="translate(445.351948 225.237904) scale(0.08 -0.08)">
       <use xlink:href="#DejaVuSans-31"/>
       <use xlink:href="#DejaVuSans-30" transform="translate(63.623047 0)"/>
       <use xlink:href="#DejaVuSans-78" transform="translate(127.246094 0)"/>
      </g>
     </g>
    </g>
   </g>
   <g id="line2d_12">
    <path d="M 286.782531 309.6 
L 353.751076 122.450878 
L 207.938417 244.194189 
L 58.681715 309.6 
L 137.649884 496.749122 
L 353.751076 496.749122 
L 286.782531 309.6 
" clip-path="url(#p3428b62732)" style="fill: none; stroke: #355070; stroke-opacity: 0.72; stroke-width: 1.2; stroke-linecap: square"/>
   </g>
   <g id="line2d_13">
    <path d="M 278.22695 309.6 
L 353.751076 122.450878 
L 207.938417 244.194189 
L 66.743476 309.6 
L 137.649884 496.749122 
L 353.751076 496.749122 
L 278.22695 309.6 
" clip-path="url(#p3428b62732)" style="fill: none; stroke: #355070; stroke-opacity: 0.72; stroke-width: 1.2; stroke-linecap: square"/>
   </g>
   <g id="line2d_14">
    <path d="M 286.782531 309.6 
L 353.751076 122.450878 
L 180.647539 196.925002 
L 29.599289 309.6 
L 149.635749 475.988995 
L 353.751076 496.749122 
L 286.782531 309.6 
" clip-path="url(#p3428b62732)" style="fill: none; stroke: #355070; stroke-opacity: 0.72; stroke-width: 1.2; stroke-linecap: square"/>
   </g>
   <g id="line2d_15">
    <path d="M 278.22695 309.6 
L 353.751076 122.450878 
L 198.425035 227.716527 
L 66.743476 309.6 
L 142.884094 487.683204 
L 353.751076 496.749122 
L 278.22695 309.6 
" clip-path="url(#p3428b62732)" style="fill: none; stroke: #355070; stroke-opacity: 0.72; stroke-width: 1.2; stroke-linecap: square"/>
   </g>
   <g id="line2d_16">
    <path d="M 278.22695 309.6 
L 353.751076 122.450878 
L 207.938417 244.194189 
L 58.681715 309.6 
L 137.649884 496.749122 
L 353.751076 496.749122 
L 278.22695 309.6 
" clip-path="url(#p3428b62732)" style="fill: none; stroke: #b56576; stroke-opacity: 0.72; stroke-width: 1.2; stroke-linecap: square"/>
   </g>
   <g id="line2d_17">
    <path d="M 278.22695 309.6 
L 353.751076 122.450878 
L 207.938417 244.194189 
L 66.743476 309.6 
L 137.649884 496.749122 
L 353.751076 496.749122 
L 278.22695 309.6 
" clip-path="url(#p3428b62732)" style="fill: none; stroke: #b56576; stroke-opacity: 0.72; stroke-width: 1.2; stroke-linecap: square"/>
   </g>
   <g id="line2d_18">
    <path d="M 278.22695 309.6 
L 353.751076 122.450878 
L 198.425035 227.716527 
L 58.681715 309.6 
L 138.853213 494.664894 
L 353.751076 496.749122 
L 278.22695 309.6 
" clip-path="url(#p3428b62732)" style="fill: none; stroke: #b56576; stroke-opacity: 0.72; stroke-width: 1.2; stroke-linecap: square"/>
   </g>
   <g id="line2d_19">
    <path d="M 282.699455 309.6 
L 353.751076 122.450878 
L 198.425035 227.716527 
L 66.743476 309.6 
L 142.884094 487.683204 
L 353.751076 496.749122 
L 282.699455 309.6 
" clip-path="url(#p3428b62732)" style="fill: none; stroke: #b56576; stroke-opacity: 0.72; stroke-width: 1.2; stroke-linecap: square"/>
   </g>
   <g id="line2d_20">
    <path d="M 360.309513 309.6 
L 329.94256 163.688438 
L 198.425035 227.716527 
L 70.659687 309.6 
L 144.842199 484.291667 
L 329.977343 455.571808 
L 360.309513 309.6 
" clip-path="url(#p3428b62732)" style="fill: none; stroke: #9d4edd; stroke-opacity: 0.72; stroke-width: 1.2; stroke-linecap: square"/>
   </g>
   <g id="line2d_21">
    <path d="M 353.751076 309.6 
L 335.178982 154.618689 
L 207.938417 244.194189 
L 66.743476 309.6 
L 137.649884 496.749122 
L 335.213765 464.641557 
L 353.751076 309.6 
" clip-path="url(#p3428b62732)" style="fill: none; stroke: #9d4edd; stroke-opacity: 0.72; stroke-width: 1.2; stroke-linecap: square"/>
   </g>
   <g id="line2d_22">
    <path d="M 321.224605 309.6 
L 353.751076 122.450878 
L 207.938417 244.194189 
L 31.681257 309.6 
L 137.649884 496.749122 
L 353.751076 496.749122 
L 321.224605 309.6 
" clip-path="url(#p3428b62732)" style="fill: none; stroke: #9d4edd; stroke-opacity: 0.72; stroke-width: 1.2; stroke-linecap: square"/>
   </g>
   <g id="line2d_23">
    <path d="M 316.280481 309.6 
L 353.751076 122.450878 
L 191.675182 216.025439 
L 39.748216 309.6 
L 142.886169 487.679611 
L 353.751076 496.749122 
L 316.280481 309.6 
" clip-path="url(#p3428b62732)" style="fill: none; stroke: #9d4edd; stroke-opacity: 0.72; stroke-width: 1.2; stroke-linecap: square"/>
   </g>
   <g id="line2d_24">
    <path d="M 386.51159 309.6 
L 338.445642 148.960667 
L 207.938417 244.194189 
L 29.599289 309.6 
L 137.649884 496.749122 
L 338.480425 470.299579 
L 386.51159 309.6 
" clip-path="url(#p3428b62732)" style="fill: none; stroke: #f4a261; stroke-opacity: 0.72; stroke-width: 1.2; stroke-linecap: square"/>
   </g>
   <g id="line2d_25">
    <path d="M 360.391053 309.6 
L 353.751076 122.450878 
L 207.938417 244.194189 
L 29.599289 309.6 
L 137.649884 496.749122 
L 353.751076 496.749122 
L 360.391053 309.6 
" clip-path="url(#p3428b62732)" style="fill: none; stroke: #f4a261; stroke-opacity: 0.72; stroke-width: 1.2; stroke-linecap: square"/>
   </g>
   <g id="line2d_26">
    <path d="M 461.801671 309.6 
L 344.573683 138.346589 
L 198.425035 227.716527 
L 29.599289 309.6 
L 137.649884 496.749122 
L 344.608466 480.913657 
L 461.801671 309.6 
" clip-path="url(#p3428b62732)" style="fill: none; stroke: #f4a261; stroke-opacity: 0.72; stroke-width: 1.2; stroke-linecap: square"/>
   </g>
   <g id="line2d_27">
    <path d="M 334.958354 309.6 
L 344.573683 138.346589 
L 198.425035 227.716527 
L 66.743476 309.6 
L 142.884094 487.683204 
L 344.608466 480.913657 
L 334.958354 309.6 
" clip-path="url(#p3428b62732)" style="fill: none; stroke: #f4a261; stroke-opacity: 0.72; stroke-width: 1.2; stroke-linecap: square"/>
   </g>
   <g id="line2d_28">
    <path d="M 353.751076 309.6 
L 299.725778 216.025439 
L 191.675182 216.025439 
L 137.649884 309.6 
L 191.675182 403.174561 
L 299.725778 403.174561 
L 353.751076 309.6 
" clip-path="url(#p3428b62732)" style="fill: none; stroke: #000000; stroke-width: 3; stroke-linecap: square"/>
   </g>
   <g id="patch_19">
    <path d="M 470.980407 309.6 
C 470.980407 280.016511 465.153105 250.720684 453.831994 223.389104 
C 442.510883 196.057524 425.91613 171.221721 404.997444 150.303036 
C 384.078759 129.38435 359.242956 112.789597 331.911376 101.468486 
C 304.579796 90.147375 275.283969 84.320073 245.70048 84.320073 
C 216.116991 84.320073 186.821164 90.147375 159.489584 101.468486 
C 132.158004 112.789597 107.322201 129.38435 86.403516 150.303036 
C 65.48483 171.221721 48.890077 196.057524 37.568966 223.389104 
C 26.247855 250.720684 20.420552 280.016511 20.420552 309.6 
C 20.420552 339.183489 26.247855 368.479316 37.568966 395.810896 
C 48.890077 423.142476 65.48483 447.978279 86.403516 468.896964 
C 107.322201 489.81565 132.158004 506.410403 159.489584 517.731514 
C 186.821164 529.052625 216.116991 534.879927 245.70048 534.879927 
C 275.283969 534.879927 304.579796 529.052625 331.911376 517.731514 
C 359.242956 506.410403 384.078759 489.81565 404.997444 468.896964 
C 425.91613 447.978279 442.510883 423.142476 453.831994 395.810896 
C 465.153105 368.479316 470.980407 339.183489 470.980407 309.6 
" style="fill: none; stroke: #000000; stroke-width: 0.8; stroke-linejoin: miter; stroke-linecap: square"/>
   </g>
   <g id="text_12">
    <!-- Radar Ratios vs MS low prod -->
    <g transform="translate(160.447042 48.882698) scale(0.12 -0.12)">
     <defs>
      <path id="DejaVuSans-52" d="M 2841 2188 
Q 3044 2119 3236 1894 
Q 3428 1669 3622 1275 
L 4263 0 
L 3584 0 
L 2988 1197 
Q 2756 1666 2539 1819 
Q 2322 1972 1947 1972 
L 1259 1972 
L 1259 0 
L 628 0 
L 628 4666 
L 2053 4666 
Q 2853 4666 3247 4331 
Q 3641 3997 3641 3322 
Q 3641 2881 3436 2590 
Q 3231 2300 2841 2188 
z
M 1259 4147 
L 1259 2491 
L 2053 2491 
Q 2509 2491 2742 2702 
Q 2975 2913 2975 3322 
Q 2975 3731 2742 3939 
Q 2509 4147 2053 4147 
L 1259 4147 
z
" transform="scale(0.015625)"/>
      <path id="DejaVuSans-20" transform="scale(0.015625)"/>
      <path id="DejaVuSans-69" d="M 603 3500 
L 1178 3500 
L 1178 0 
L 603 0 
L 603 3500 
z
M 603 4863 
L 1178 4863 
L 1178 4134 
L 603 4134 
L 603 4863 
z
" transform="scale(0.015625)"/>
      <path id="DejaVuSans-73" d="M 2834 3397 
L 2834 2853 
Q 2591 2978 2328 3040 
Q 2066 3103 1784 3103 
Q 1356 3103 1142 2972 
Q 928 2841 928 2578 
Q 928 2378 1081 2264 
Q 1234 2150 1697 2047 
L 1894 2003 
Q 2506 1872 2764 1633 
Q 3022 1394 3022 966 
Q 3022 478 2636 193 
Q 2250 -91 1575 -91 
Q 1294 -91 989 -36 
Q 684 19 347 128 
L 347 722 
Q 666 556 975 473 
Q 1284 391 1588 391 
Q 1994 391 2212 530 
Q 2431 669 2431 922 
Q 2431 1156 2273 1281 
Q 2116 1406 1581 1522 
L 1381 1569 
Q 847 1681 609 1914 
Q 372 2147 372 2553 
Q 372 3047 722 3315 
Q 1072 3584 1716 3584 
Q 2034 3584 2315 3537 
Q 2597 3491 2834 3397 
z
" transform="scale(0.015625)"/>
      <path id="DejaVuSans-76" d="M 191 3500 
L 800 3500 
L 1894 563 
L 2988 3500 
L 3597 3500 
L 2284 0 
L 1503 0 
L 191 3500 
z
" transform="scale(0.015625)"/>
      <path id="DejaVuSans-4d" d="M 628 4666 
L 1569 4666 
L 2759 1491 
L 3956 4666 
L 4897 4666 
L 4897 0 
L 4281 0 
L 4281 4097 
L 3078 897 
L 2444 897 
L 1241 4097 
L 1241 0 
L 628 0 
L 628 4666 
z
" transform="scale(0.015625)"/>
      <path id="DejaVuSans-53" d="M 3425 4513 
L 3425 3897 
Q 3066 4069 2747 4153 
Q 2428 4238 2131 4238 
Q 1616 4238 1336 4038 
Q 1056 3838 1056 3469 
Q 1056 3159 1242 3001 
Q 1428 2844 1947 2747 
L 2328 2669 
Q 3034 2534 3370 2195 
Q 3706 1856 3706 1288 
Q 3706 609 3251 259 
Q 2797 -91 1919 -91 
Q 1588 -91 1214 -16 
Q 841 59 441 206 
L 441 856 
Q 825 641 1194 531 
Q 1563 422 1919 422 
Q 2459 422 2753 634 
Q 3047 847 3047 1241 
Q 3047 1584 2836 1778 
Q 2625 1972 2144 2069 
L 1759 2144 
Q 1053 2284 737 2584 
Q 422 2884 422 3419 
Q 422 4038 858 4394 
Q 1294 4750 2059 4750 
Q 2388 4750 2728 4690 
Q 3069 4631 3425 4513 
z
" transform="scale(0.015625)"/>
      <path id="DejaVuSans-6c" d="M 603 4863 
L 1178 4863 
L 1178 0 
L 603 0 
L 603 4863 
z
" transform="scale(0.015625)"/>
      <path id="DejaVuSans-77" d="M 269 3500 
L 844 3500 
L 1563 769 
L 2278 3500 
L 2956 3500 
L 3675 769 
L 4391 3500 
L 4966 3500 
L 4050 0 
L 3372 0 
L 2619 2869 
L 1863 0 
L 1184 0 
L 269 3500 
z
" transform="scale(0.015625)"/>
     </defs>
     <use xlink:href="#DejaVuSans-52"/>
     <use xlink:href="#DejaVuSans-61" transform="translate(67.232422 0)"/>
     <use xlink:href="#DejaVuSans-64" transform="translate(128.511719 0)"/>
     <use xlink:href="#DejaVuSans-61" transform="translate(191.988281 0)"/>
     <use xlink:href="#DejaVuSans-72" transform="translate(253.267578 0)"/>
     <use xlink:href="#DejaVuSans-20" transform="translate(294.380859 0)"/>
     <use xlink:href="#DejaVuSans-52" transform="translate(326.167969 0)"/>
     <use xlink:href="#DejaVuSans-61" transform="translate(393.400391 0)"/>
     <use xlink:href="#DejaVuSans-74" transform="translate(454.679688 0)"/>
     <use xlink:href="#DejaVuSans-69" transform="translate(493.888672 0)"/>
     <use xlink:href="#DejaVuSans-6f" transform="translate(521.671875 0)"/>
     <use xlink:href="#DejaVuSans-73" transform="translate(582.853516 0)"/>
     <use xlink:href="#DejaVuSans-20" transform="translate(634.953125 0)"/>
     <use xlink:href="#DejaVuSans-76" transform="translate(666.740234 0)"/>
     <use xlink:href="#DejaVuSans-73" transform="translate(725.919922 0)"/>
     <use xlink:href="#DejaVuSans-20" transform="translate(778.019531 0)"/>
     <use xlink:href="#DejaVuSans-4d" transform="translate(809.806641 0)"/>
     <use xlink:href="#DejaVuSans-53" transform="translate(896.085938 0)"/>
     <use xlink:href="#DejaVuSans-20" transform="translate(959.5625 0)"/>
     <use xlink:href="#DejaVuSans-6c" transform="translate(991.349609 0)"/>
     <use xlink:href="#DejaVuSans-6f" transform="translate(1019.132812 0)"/>
     <use xlink:href="#DejaVuSans-77" transform="translate(1080.314453 0)"/>
     <use xlink:href="#DejaVuSans-20" transform="translate(1162.101562 0)"/>
     <use xlink:href="#DejaVuSans-70" transform="translate(1193.888672 0)"/>
     <use xlink:href="#DejaVuSans-72" transform="translate(1257.365234 0)"/>
     <use xlink:href="#DejaVuSans-6f" transform="translate(1296.228516 0)"/>
     <use xlink:href="#DejaVuSans-64" transform="translate(1357.410156 0)"/>
    </g>
    <!-- (center ring = manuscript value; outer = higher than manuscript) -->
    <g transform="translate(47.792355 62.320073) scale(0.12 -0.12)">
     <defs>
      <path id="DejaVuSans-28" d="M 1984 4856 
Q 1566 4138 1362 3434 
Q 1159 2731 1159 2009 
Q 1159 1288 1364 580 
Q 1569 -128 1984 -844 
L 1484 -844 
Q 1016 -109 783 600 
Q 550 1309 550 2009 
Q 550 2706 781 3412 
Q 1013 4119 1484 4856 
L 1984 4856 
z
" transform="scale(0.015625)"/>
      <path id="DejaVuSans-63" d="M 3122 3366 
L 3122 2828 
Q 2878 2963 2633 3030 
Q 2388 3097 2138 3097 
Q 1578 3097 1268 2742 
Q 959 2388 959 1747 
Q 959 1106 1268 751 
Q 1578 397 2138 397 
Q 2388 397 2633 464 
Q 2878 531 3122 666 
L 3122 134 
Q 2881 22 2623 -34 
Q 2366 -91 2075 -91 
Q 1284 -91 818 406 
Q 353 903 353 1747 
Q 353 2603 823 3093 
Q 1294 3584 2113 3584 
Q 2378 3584 2631 3529 
Q 2884 3475 3122 3366 
z
" transform="scale(0.015625)"/>
      <path id="DejaVuSans-65" d="M 3597 1894 
L 3597 1613 
L 953 1613 
Q 991 1019 1311 708 
Q 1631 397 2203 397 
Q 2534 397 2845 478 
Q 3156 559 3463 722 
L 3463 178 
Q 3153 47 2828 -22 
Q 2503 -91 2169 -91 
Q 1331 -91 842 396 
Q 353 884 353 1716 
Q 353 2575 817 3079 
Q 1281 3584 2069 3584 
Q 2775 3584 3186 3129 
Q 3597 2675 3597 1894 
z
M 3022 2063 
Q 3016 2534 2758 2815 
Q 2500 3097 2075 3097 
Q 1594 3097 1305 2825 
Q 1016 2553 972 2059 
L 3022 2063 
z
" transform="scale(0.015625)"/>
      <path id="DejaVuSans-6e" d="M 3513 2113 
L 3513 0 
L 2938 0 
L 2938 2094 
Q 2938 2591 2744 2837 
Q 2550 3084 2163 3084 
Q 1697 3084 1428 2787 
Q 1159 2491 1159 1978 
L 1159 0 
L 581 0 
L 581 3500 
L 1159 3500 
L 1159 2956 
Q 1366 3272 1645 3428 
Q 1925 3584 2291 3584 
Q 2894 3584 3203 3211 
Q 3513 2838 3513 2113 
z
" transform="scale(0.015625)"/>
      <path id="DejaVuSans-67" d="M 2906 1791 
Q 2906 2416 2648 2759 
Q 2391 3103 1925 3103 
Q 1463 3103 1205 2759 
Q 947 2416 947 1791 
Q 947 1169 1205 825 
Q 1463 481 1925 481 
Q 2391 481 2648 825 
Q 2906 1169 2906 1791 
z
M 3481 434 
Q 3481 -459 3084 -895 
Q 2688 -1331 1869 -1331 
Q 1566 -1331 1297 -1286 
Q 1028 -1241 775 -1147 
L 775 -588 
Q 1028 -725 1275 -790 
Q 1522 -856 1778 -856 
Q 2344 -856 2625 -561 
Q 2906 -266 2906 331 
L 2906 616 
Q 2728 306 2450 153 
Q 2172 0 1784 0 
Q 1141 0 747 490 
Q 353 981 353 1791 
Q 353 2603 747 3093 
Q 1141 3584 1784 3584 
Q 2172 3584 2450 3431 
Q 2728 3278 2906 2969 
L 2906 3500 
L 3481 3500 
L 3481 434 
z
" transform="scale(0.015625)"/>
      <path id="DejaVuSans-3d" d="M 678 2906 
L 4684 2906 
L 4684 2381 
L 678 2381 
L 678 2906 
z
M 678 1631 
L 4684 1631 
L 4684 1100 
L 678 1100 
L 678 1631 
z
" transform="scale(0.015625)"/>
      <path id="DejaVuSans-6d" d="M 3328 2828 
Q 3544 3216 3844 3400 
Q 4144 3584 4550 3584 
Q 5097 3584 5394 3201 
Q 5691 2819 5691 2113 
L 5691 0 
L 5113 0 
L 5113 2094 
Q 5113 2597 4934 2840 
Q 4756 3084 4391 3084 
Q 3944 3084 3684 2787 
Q 3425 2491 3425 1978 
L 3425 0 
L 2847 0 
L 2847 2094 
Q 2847 2600 2669 2842 
Q 2491 3084 2119 3084 
Q 1678 3084 1418 2786 
Q 1159 2488 1159 1978 
L 1159 0 
L 581 0 
L 581 3500 
L 1159 3500 
L 1159 2956 
Q 1356 3278 1631 3431 
Q 1906 3584 2284 3584 
Q 2666 3584 2933 3390 
Q 3200 3197 3328 2828 
z
" transform="scale(0.015625)"/>
      <path id="DejaVuSans-3b" d="M 750 3309 
L 1409 3309 
L 1409 2516 
L 750 2516 
L 750 3309 
z
M 750 794 
L 1409 794 
L 1409 256 
L 897 -744 
L 494 -744 
L 750 256 
L 750 794 
z
" transform="scale(0.015625)"/>
      <path id="DejaVuSans-68" d="M 3513 2113 
L 3513 0 
L 2938 0 
L 2938 2094 
Q 2938 2591 2744 2837 
Q 2550 3084 2163 3084 
Q 1697 3084 1428 2787 
Q 1159 2491 1159 1978 
L 1159 0 
L 581 0 
L 581 4863 
L 1159 4863 
L 1159 2956 
Q 1366 3272 1645 3428 
Q 1925 3584 2291 3584 
Q 2894 3584 3203 3211 
Q 3513 2838 3513 2113 
z
" transform="scale(0.015625)"/>
      <path id="DejaVuSans-29" d="M 513 4856 
L 1013 4856 
Q 1481 4119 1714 3412 
Q 1947 2706 1947 2009 
Q 1947 1309 1714 600 
Q 1481 -109 1013 -844 
L 513 -844 
Q 928 -128 1133 580 
Q 1338 1288 1338 2009 
Q 1338 2731 1133 3434 
Q 928 4138 513 4856 
z
" transform="scale(0.015625)"/>
     </defs>
     <use xlink:href="#DejaVuSans-28"/>
     <use xlink:href="#DejaVuSans-63" transform="translate(39.013672 0)"/>
     <use xlink:href="#DejaVuSans-65" transform="translate(93.994141 0)"/>
     <use xlink:href="#DejaVuSans-6e" transform="translate(155.517578 0)"/>
     <use xlink:href="#DejaVuSans-74" transform="translate(218.896484 0)"/>
     <use xlink:href="#DejaVuSans-65" transform="translate(258.105469 0)"/>
     <use xlink:href="#DejaVuSans-72" transform="translate(319.628906 0)"/>
     <use xlink:href="#DejaVuSans-20" transform="translate(360.742188 0)"/>
     <use xlink:href="#DejaVuSans-72" transform="translate(392.529297 0)"/>
     <use xlink:href="#DejaVuSans-69" transform="translate(433.642578 0)"/>
     <use xlink:href="#DejaVuSans-6e" transform="translate(461.425781 0)"/>
     <use xlink:href="#DejaVuSans-67" transform="translate(524.804688 0)"/>
     <use xlink:href="#DejaVuSans-20" transform="translate(588.28125 0)"/>
     <use xlink:href="#DejaVuSans-3d" transform="translate(620.068359 0)"/>
     <use xlink:href="#DejaVuSans-20" transform="translate(703.857422 0)"/>
     <use xlink:href="#DejaVuSans-6d" transform="translate(735.644531 0)"/>
     <use xlink:href="#DejaVuSans-61" transform="translate(833.056641 0)"/>
     <use xlink:href="#DejaVuSans-6e" transform="translate(894.335938 0)"/>
     <use xlink:href="#DejaVuSans-75" transform="translate(957.714844 0)"/>
     <use xlink:href="#DejaVuSans-73" transform="translate(1021.09375 0)"/>
     <use xlink:href="#DejaVuSans-63" transform="translate(1073.193359 0)"/>
     <use xlink:href="#DejaVuSans-72" transform="translate(1128.173828 0)"/>
     <use xlink:href="#DejaVuSans-69" transform="translate(1169.287109 0)"/>
     <use xlink:href="#DejaVuSans-70" transform="translate(1197.070312 0)"/>
     <use xlink:href="#DejaVuSans-74" transform="translate(1260.546875 0)"/>
     <use xlink:href="#DejaVuSans-20" transform="translate(1299.755859 0)"/>
     <use xlink:href="#DejaVuSans-76" transform="translate(1331.542969 0)"/>
     <use xlink:href="#DejaVuSans-61" transform="translate(1390.722656 0)"/>
     <use xlink:href="#DejaVuSans-6c" transform="translate(1452.001953 0)"/>
     <use xlink:href="#DejaVuSans-75" transform="translate(1479.785156 0)"/>
     <use xlink:href="#DejaVuSans-65" transform="translate(1543.164062 0)"/>
     <use xlink:href="#DejaVuSans-3b" transform="translate(1604.6875 0)"/>
     <use xlink:href="#DejaVuSans-20" transform="translate(1638.378906 0)"/>
     <use xlink:href="#DejaVuSans-6f" transform="translate(1670.166016 0)"/>
     <use xlink:href="#DejaVuSans-75" transform="translate(1731.347656 0)"/>
     <use xlink:href="#DejaVuSans-74" transform="translate(1794.726562 0)"/>
     <use xlink:href="#DejaVuSans-65" transform="translate(1833.935547 0)"/>
     <use xlink:href="#DejaVuSans-72" transform="translate(1895.458984 0)"/>
     <use xlink:href="#DejaVuSans-20" transform="translate(1936.572266 0)"/>
     <use xlink:href="#DejaVuSans-3d" transform="translate(1968.359375 0)"/>
     <use xlink:href="#DejaVuSans-20" transform="translate(2052.148438 0)"/>
     <use xlink:href="#DejaVuSans-68" transform="translate(2083.935547 0)"/>
     <use xlink:href="#DejaVuSans-69" transform="translate(2147.314453 0)"/>
     <use xlink:href="#DejaVuSans-67" transform="translate(2175.097656 0)"/>
     <use xlink:href="#DejaVuSans-68" transform="translate(2238.574219 0)"/>
     <use xlink:href="#DejaVuSans-65" transform="translate(2301.953125 0)"/>
     <use xlink:href="#DejaVuSans-72" transform="translate(2363.476562 0)"/>
     <use xlink:href="#DejaVuSans-20" transform="translate(2404.589844 0)"/>
     <use xlink:href="#DejaVuSans-74" transform="translate(2436.376953 0)"/>
     <use xlink:href="#DejaVuSans-68" transform="translate(2475.585938 0)"/>
     <use xlink:href="#DejaVuSans-61" transform="translate(2538.964844 0)"/>
     <use xlink:href="#DejaVuSans-6e" transform="translate(2600.244141 0)"/>
     <use xlink:href="#DejaVuSans-20" transform="translate(2663.623047 0)"/>
     <use xlink:href="#DejaVuSans-6d" transform="translate(2695.410156 0)"/>
     <use xlink:href="#DejaVuSans-61" transform="translate(2792.822266 0)"/>
     <use xlink:href="#DejaVuSans-6e" transform="translate(2854.101562 0)"/>
     <use xlink:href="#DejaVuSans-75" transform="translate(2917.480469 0)"/>
     <use xlink:href="#DejaVuSans-73" transform="translate(2980.859375 0)"/>
     <use xlink:href="#DejaVuSans-63" transform="translate(3032.958984 0)"/>
     <use xlink:href="#DejaVuSans-72" transform="translate(3087.939453 0)"/>
     <use xlink:href="#DejaVuSans-69" transform="translate(3129.052734 0)"/>
     <use xlink:href="#DejaVuSans-70" transform="translate(3156.835938 0)"/>
     <use xlink:href="#DejaVuSans-74" transform="translate(3220.3125 0)"/>
     <use xlink:href="#DejaVuSans-29" transform="translate(3259.521484 0)"/>
    </g>
   </g>
   <g id="legend_1">
    <g id="patch_20">
     <path d="M 539.643828 206.016979 
L 655.315546 206.016979 
Q 656.715546 206.016979 656.715546 204.616979 
L 656.715546 30.647291 
Q 656.715546 29.247291 655.315546 29.247291 
L 539.643828 29.247291 
Q 538.243828 29.247291 538.243828 30.647291 
L 538.243828 204.616979 
Q 538.243828 206.016979 539.643828 206.016979 
z
" style="fill: #ffffff; opacity: 0.8; stroke: #cccccc; stroke-linejoin: miter"/>
    </g>
    <g id="line2d_29">
     <path d="M 541.043828 34.916198 
L 548.043828 34.916198 
L 555.043828 34.916198 
" style="fill: none; stroke: #355070; stroke-opacity: 0.72; stroke-width: 1.2; stroke-linecap: square"/>
    </g>
    <g id="text_13">
     <!-- Claude/Claude -->
     <g transform="translate(560.643828 37.366198) scale(0.07 -0.07)">
      <defs>
       <path id="DejaVuSans-43" d="M 4122 4306 
L 4122 3641 
Q 3803 3938 3442 4084 
Q 3081 4231 2675 4231 
Q 1875 4231 1450 3742 
Q 1025 3253 1025 2328 
Q 1025 1406 1450 917 
Q 1875 428 2675 428 
Q 3081 428 3442 575 
Q 3803 722 4122 1019 
L 4122 359 
Q 3791 134 3420 21 
Q 3050 -91 2638 -91 
Q 1578 -91 968 557 
Q 359 1206 359 2328 
Q 359 3453 968 4101 
Q 1578 4750 2638 4750 
Q 3056 4750 3426 4639 
Q 3797 4528 4122 4306 
z
" transform="scale(0.015625)"/>
       <path id="DejaVuSans-2f" d="M 1625 4666 
L 2156 4666 
L 531 -594 
L 0 -594 
L 1625 4666 
z
" transform="scale(0.015625)"/>
      </defs>
      <use xlink:href="#DejaVuSans-43"/>
      <use xlink:href="#DejaVuSans-6c" transform="translate(69.824219 0)"/>
      <use xlink:href="#DejaVuSans-61" transform="translate(97.607422 0)"/>
      <use xlink:href="#DejaVuSans-75" transform="translate(158.886719 0)"/>
      <use xlink:href="#DejaVuSans-64" transform="translate(222.265625 0)"/>
      <use xlink:href="#DejaVuSans-65" transform="translate(285.742188 0)"/>
      <use xlink:href="#DejaVuSans-2f" transform="translate(347.265625 0)"/>
      <use xlink:href="#DejaVuSans-43" transform="translate(380.957031 0)"/>
      <use xlink:href="#DejaVuSans-6c" transform="translate(450.78125 0)"/>
      <use xlink:href="#DejaVuSans-61" transform="translate(478.564453 0)"/>
      <use xlink:href="#DejaVuSans-75" transform="translate(539.84375 0)"/>
      <use xlink:href="#DejaVuSans-64" transform="translate(603.222656 0)"/>
      <use xlink:href="#DejaVuSans-65" transform="translate(666.699219 0)"/>
     </g>
    </g>
    <g id="line2d_30">
     <path d="M 541.043828 45.190885 
L 548.043828 45.190885 
L 555.043828 45.190885 
" style="fill: none; stroke: #355070; stroke-opacity: 0.72; stroke-width: 1.2; stroke-linecap: square"/>
    </g>
    <g id="text_14">
     <!-- Claude/GPT-4o -->
     <g transform="translate(560.643828 47.640885) scale(0.07 -0.07)">
      <defs>
       <path id="DejaVuSans-47" d="M 3809 666 
L 3809 1919 
L 2778 1919 
L 2778 2438 
L 4434 2438 
L 4434 434 
Q 4069 175 3628 42 
Q 3188 -91 2688 -91 
Q 1594 -91 976 548 
Q 359 1188 359 2328 
Q 359 3472 976 4111 
Q 1594 4750 2688 4750 
Q 3144 4750 3555 4637 
Q 3966 4525 4313 4306 
L 4313 3634 
Q 3963 3931 3569 4081 
Q 3175 4231 2741 4231 
Q 1884 4231 1454 3753 
Q 1025 3275 1025 2328 
Q 1025 1384 1454 906 
Q 1884 428 2741 428 
Q 3075 428 3337 486 
Q 3600 544 3809 666 
z
" transform="scale(0.015625)"/>
       <path id="DejaVuSans-50" d="M 1259 4147 
L 1259 2394 
L 2053 2394 
Q 2494 2394 2734 2622 
Q 2975 2850 2975 3272 
Q 2975 3691 2734 3919 
Q 2494 4147 2053 4147 
L 1259 4147 
z
M 628 4666 
L 2053 4666 
Q 2838 4666 3239 4311 
Q 3641 3956 3641 3272 
Q 3641 2581 3239 2228 
Q 2838 1875 2053 1875 
L 1259 1875 
L 1259 0 
L 628 0 
L 628 4666 
z
" transform="scale(0.015625)"/>
       <path id="DejaVuSans-54" d="M -19 4666 
L 3928 4666 
L 3928 4134 
L 2272 4134 
L 2272 0 
L 1638 0 
L 1638 4134 
L -19 4134 
L -19 4666 
z
" transform="scale(0.015625)"/>
       <path id="DejaVuSans-2d" d="M 313 2009 
L 1997 2009 
L 1997 1497 
L 313 1497 
L 313 2009 
z
" transform="scale(0.015625)"/>
       <path id="DejaVuSans-34" d="M 2419 4116 
L 825 1625 
L 2419 1625 
L 2419 4116 
z
M 2253 4666 
L 3047 4666 
L 3047 1625 
L 3713 1625 
L 3713 1100 
L 3047 1100 
L 3047 0 
L 2419 0 
L 2419 1100 
L 313 1100 
L 313 1709 
L 2253 4666 
z
" transform="scale(0.015625)"/>
      </defs>
      <use xlink:href="#DejaVuSans-43"/>
      <use xlink:href="#DejaVuSans-6c" transform="translate(69.824219 0)"/>
      <use xlink:href="#DejaVuSans-61" transform="translate(97.607422 0)"/>
      <use xlink:href="#DejaVuSans-75" transform="translate(158.886719 0)"/>
      <use xlink:href="#DejaVuSans-64" transform="translate(222.265625 0)"/>
      <use xlink:href="#DejaVuSans-65" transform="translate(285.742188 0)"/>
      <use xlink:href="#DejaVuSans-2f" transform="translate(347.265625 0)"/>
      <use xlink:href="#DejaVuSans-47" transform="translate(380.957031 0)"/>
      <use xlink:href="#DejaVuSans-50" transform="translate(458.447266 0)"/>
      <use xlink:href="#DejaVuSans-54" transform="translate(518.75 0)"/>
      <use xlink:href="#DejaVuSans-2d" transform="translate(570.708984 0)"/>
      <use xlink:href="#DejaVuSans-34" transform="translate(606.792969 0)"/>
      <use xlink:href="#DejaVuSans-6f" transform="translate(670.416016 0)"/>
     </g>
    </g>
    <g id="line2d_31">
     <path d="M 541.043828 55.465573 
L 548.043828 55.465573 
L 555.043828 55.465573 
" style="fill: none; stroke: #355070; stroke-opacity: 0.72; stroke-width: 1.2; stroke-linecap: square"/>
    </g>
    <g id="text_15">
     <!-- Claude/GPT-4o mini -->
     <g transform="translate(560.643828 57.915573) scale(0.07 -0.07)">
      <use xlink:href="#DejaVuSans-43"/>
      <use xlink:href="#DejaVuSans-6c" transform="translate(69.824219 0)"/>
      <use xlink:href="#DejaVuSans-61" transform="translate(97.607422 0)"/>
      <use xlink:href="#DejaVuSans-75" transform="translate(158.886719 0)"/>
      <use xlink:href="#DejaVuSans-64" transform="translate(222.265625 0)"/>
      <use xlink:href="#DejaVuSans-65" transform="translate(285.742188 0)"/>
      <use xlink:href="#DejaVuSans-2f" transform="translate(347.265625 0)"/>
      <use xlink:href="#DejaVuSans-47" transform="translate(380.957031 0)"/>
      <use xlink:href="#DejaVuSans-50" transform="translate(458.447266 0)"/>
      <use xlink:href="#DejaVuSans-54" transform="translate(518.75 0)"/>
      <use xlink:href="#DejaVuSans-2d" transform="translate(570.708984 0)"/>
      <use xlink:href="#DejaVuSans-34" transform="translate(606.792969 0)"/>
      <use xlink:href="#DejaVuSans-6f" transform="translate(670.416016 0)"/>
      <use xlink:href="#DejaVuSans-20" transform="translate(731.597656 0)"/>
      <use xlink:href="#DejaVuSans-6d" transform="translate(763.384766 0)"/>
      <use xlink:href="#DejaVuSans-69" transform="translate(860.796875 0)"/>
      <use xlink:href="#DejaVuSans-6e" transform="translate(888.580078 0)"/>
      <use xlink:href="#DejaVuSans-69" transform="translate(951.958984 0)"/>
     </g>
    </g>
    <g id="line2d_32">
     <path d="M 541.043828 65.74026 
L 548.043828 65.74026 
L 555.043828 65.74026 
" style="fill: none; stroke: #355070; stroke-opacity: 0.72; stroke-width: 1.2; stroke-linecap: square"/>
    </g>
    <g id="text_16">
     <!-- Claude/Gemma -->
     <g transform="translate(560.643828 68.19026) scale(0.07 -0.07)">
      <use xlink:href="#DejaVuSans-43"/>
      <use xlink:href="#DejaVuSans-6c" transform="translate(69.824219 0)"/>
      <use xlink:href="#DejaVuSans-61" transform="translate(97.607422 0)"/>
      <use xlink:href="#DejaVuSans-75" transform="translate(158.886719 0)"/>
      <use xlink:href="#DejaVuSans-64" transform="translate(222.265625 0)"/>
      <use xlink:href="#DejaVuSans-65" transform="translate(285.742188 0)"/>
      <use xlink:href="#DejaVuSans-2f" transform="translate(347.265625 0)"/>
      <use xlink:href="#DejaVuSans-47" transform="translate(380.957031 0)"/>
      <use xlink:href="#DejaVuSans-65" transform="translate(458.447266 0)"/>
      <use xlink:href="#DejaVuSans-6d" transform="translate(519.970703 0)"/>
      <use xlink:href="#DejaVuSans-6d" transform="translate(617.382812 0)"/>
      <use xlink:href="#DejaVuSans-61" transform="translate(714.794922 0)"/>
     </g>
    </g>
    <g id="line2d_33">
     <path d="M 541.043828 76.014948 
L 548.043828 76.014948 
L 555.043828 76.014948 
" style="fill: none; stroke: #b56576; stroke-opacity: 0.72; stroke-width: 1.2; stroke-linecap: square"/>
    </g>
    <g id="text_17">
     <!-- GPT-4o/Claude -->
     <g transform="translate(560.643828 78.464948) scale(0.07 -0.07)">
      <use xlink:href="#DejaVuSans-47"/>
      <use xlink:href="#DejaVuSans-50" transform="translate(77.490234 0)"/>
      <use xlink:href="#DejaVuSans-54" transform="translate(137.792969 0)"/>
      <use xlink:href="#DejaVuSans-2d" transform="translate(189.751953 0)"/>
      <use xlink:href="#DejaVuSans-34" transform="translate(225.835938 0)"/>
      <use xlink:href="#DejaVuSans-6f" transform="translate(289.458984 0)"/>
      <use xlink:href="#DejaVuSans-2f" transform="translate(350.640625 0)"/>
      <use xlink:href="#DejaVuSans-43" transform="translate(384.332031 0)"/>
      <use xlink:href="#DejaVuSans-6c" transform="translate(454.15625 0)"/>
      <use xlink:href="#DejaVuSans-61" transform="translate(481.939453 0)"/>
      <use xlink:href="#DejaVuSans-75" transform="translate(543.21875 0)"/>
      <use xlink:href="#DejaVuSans-64" transform="translate(606.597656 0)"/>
      <use xlink:href="#DejaVuSans-65" transform="translate(670.074219 0)"/>
     </g>
    </g>
    <g id="line2d_34">
     <path d="M 541.043828 86.289635 
L 548.043828 86.289635 
L 555.043828 86.289635 
" style="fill: none; stroke: #b56576; stroke-opacity: 0.72; stroke-width: 1.2; stroke-linecap: square"/>
    </g>
    <g id="text_18">
     <!-- GPT-4o/GPT-4o -->
     <g transform="translate(560.643828 88.739635) scale(0.07 -0.07)">
      <use xlink:href="#DejaVuSans-47"/>
      <use xlink:href="#DejaVuSans-50" transform="translate(77.490234 0)"/>
      <use xlink:href="#DejaVuSans-54" transform="translate(137.792969 0)"/>
      <use xlink:href="#DejaVuSans-2d" transform="translate(189.751953 0)"/>
      <use xlink:href="#DejaVuSans-34" transform="translate(225.835938 0)"/>
      <use xlink:href="#DejaVuSans-6f" transform="translate(289.458984 0)"/>
      <use xlink:href="#DejaVuSans-2f" transform="translate(350.640625 0)"/>
      <use xlink:href="#DejaVuSans-47" transform="translate(384.332031 0)"/>
      <use xlink:href="#DejaVuSans-50" transform="translate(461.822266 0)"/>
      <use xlink:href="#DejaVuSans-54" transform="translate(522.125 0)"/>
      <use xlink:href="#DejaVuSans-2d" transform="translate(574.083984 0)"/>
      <use xlink:href="#DejaVuSans-34" transform="translate(610.167969 0)"/>
      <use xlink:href="#DejaVuSans-6f" transform="translate(673.791016 0)"/>
     </g>
    </g>
    <g id="line2d_35">
     <path d="M 541.043828 96.564323 
L 548.043828 96.564323 
L 555.043828 96.564323 
" style="fill: none; stroke: #b56576; stroke-opacity: 0.72; stroke-width: 1.2; stroke-linecap: square"/>
    </g>
    <g id="text_19">
     <!-- GPT-4o/GPT-4o mini -->
     <g transform="translate(560.643828 99.014323) scale(0.07 -0.07)">
      <use xlink:href="#DejaVuSans-47"/>
      <use xlink:href="#DejaVuSans-50" transform="translate(77.490234 0)"/>
      <use xlink:href="#DejaVuSans-54" transform="translate(137.792969 0)"/>
      <use xlink:href="#DejaVuSans-2d" transform="translate(189.751953 0)"/>
      <use xlink:href="#DejaVuSans-34" transform="translate(225.835938 0)"/>
      <use xlink:href="#DejaVuSans-6f" transform="translate(289.458984 0)"/>
      <use xlink:href="#DejaVuSans-2f" transform="translate(350.640625 0)"/>
      <use xlink:href="#DejaVuSans-47" transform="translate(384.332031 0)"/>
      <use xlink:href="#DejaVuSans-50" transform="translate(461.822266 0)"/>
      <use xlink:href="#DejaVuSans-54" transform="translate(522.125 0)"/>
      <use xlink:href="#DejaVuSans-2d" transform="translate(574.083984 0)"/>
      <use xlink:href="#DejaVuSans-34" transform="translate(610.167969 0)"/>
      <use xlink:href="#DejaVuSans-6f" transform="translate(673.791016 0)"/>
      <use xlink:href="#DejaVuSans-20" transform="translate(734.972656 0)"/>
      <use xlink:href="#DejaVuSans-6d" transform="translate(766.759766 0)"/>
      <use xlink:href="#DejaVuSans-69" transform="translate(864.171875 0)"/>
      <use xlink:href="#DejaVuSans-6e" transform="translate(891.955078 0)"/>
      <use xlink:href="#DejaVuSans-69" transform="translate(955.333984 0)"/>
     </g>
    </g>
    <g id="line2d_36">
     <path d="M 541.043828 106.83901 
L 548.043828 106.83901 
L 555.043828 106.83901 
" style="fill: none; stroke: #b56576; stroke-opacity: 0.72; stroke-width: 1.2; stroke-linecap: square"/>
    </g>
    <g id="text_20">
     <!-- GPT-4o/Gemma -->
     <g transform="translate(560.643828 109.28901) scale(0.07 -0.07)">
      <use xlink:href="#DejaVuSans-47"/>
      <use xlink:href="#DejaVuSans-50" transform="translate(77.490234 0)"/>
      <use xlink:href="#DejaVuSans-54" transform="translate(137.792969 0)"/>
      <use xlink:href="#DejaVuSans-2d" transform="translate(189.751953 0)"/>
      <use xlink:href="#DejaVuSans-34" transform="translate(225.835938 0)"/>
      <use xlink:href="#DejaVuSans-6f" transform="translate(289.458984 0)"/>
      <use xlink:href="#DejaVuSans-2f" transform="translate(350.640625 0)"/>
      <use xlink:href="#DejaVuSans-47" transform="translate(384.332031 0)"/>
      <use xlink:href="#DejaVuSans-65" transform="translate(461.822266 0)"/>
      <use xlink:href="#DejaVuSans-6d" transform="translate(523.345703 0)"/>
      <use xlink:href="#DejaVuSans-6d" transform="translate(620.757812 0)"/>
      <use xlink:href="#DejaVuSans-61" transform="translate(718.169922 0)"/>
     </g>
    </g>
    <g id="line2d_37">
     <path d="M 541.043828 117.113698 
L 548.043828 117.113698 
L 555.043828 117.113698 
" style="fill: none; stroke: #9d4edd; stroke-opacity: 0.72; stroke-width: 1.2; stroke-linecap: square"/>
    </g>
    <g id="text_21">
     <!-- GPT-4o mini R/Claude -->
     <g transform="translate(560.643828 119.563698) scale(0.07 -0.07)">
      <use xlink:href="#DejaVuSans-47"/>
      <use xlink:href="#DejaVuSans-50" transform="translate(77.490234 0)"/>
      <use xlink:href="#DejaVuSans-54" transform="translate(137.792969 0)"/>
      <use xlink:href="#DejaVuSans-2d" transform="translate(189.751953 0)"/>
      <use xlink:href="#DejaVuSans-34" transform="translate(225.835938 0)"/>
      <use xlink:href="#DejaVuSans-6f" transform="translate(289.458984 0)"/>
      <use xlink:href="#DejaVuSans-20" transform="translate(350.640625 0)"/>
      <use xlink:href="#DejaVuSans-6d" transform="translate(382.427734 0)"/>
      <use xlink:href="#DejaVuSans-69" transform="translate(479.839844 0)"/>
      <use xlink:href="#DejaVuSans-6e" transform="translate(507.623047 0)"/>
      <use xlink:href="#DejaVuSans-69" transform="translate(571.001953 0)"/>
      <use xlink:href="#DejaVuSans-20" transform="translate(598.785156 0)"/>
      <use xlink:href="#DejaVuSans-52" transform="translate(630.572266 0)"/>
      <use xlink:href="#DejaVuSans-2f" transform="translate(700.054688 0)"/>
      <use xlink:href="#DejaVuSans-43" transform="translate(733.746094 0)"/>
      <use xlink:href="#DejaVuSans-6c" transform="translate(803.570312 0)"/>
      <use xlink:href="#DejaVuSans-61" transform="translate(831.353516 0)"/>
      <use xlink:href="#DejaVuSans-75" transform="translate(892.632812 0)"/>
      <use xlink:href="#DejaVuSans-64" transform="translate(956.011719 0)"/>
      <use xlink:href="#DejaVuSans-65" transform="translate(1019.488281 0)"/>
     </g>
    </g>
    <g id="line2d_38">
     <path d="M 541.043828 127.388385 
L 548.043828 127.388385 
L 555.043828 127.388385 
" style="fill: none; stroke: #9d4edd; stroke-opacity: 0.72; stroke-width: 1.2; stroke-linecap: square"/>
    </g>
    <g id="text_22">
     <!-- GPT-4o mini R/GPT-4o -->
     <g transform="translate(560.643828 129.838385) scale(0.07 -0.07)">
      <use xlink:href="#DejaVuSans-47"/>
      <use xlink:href="#DejaVuSans-50" transform="translate(77.490234 0)"/>
      <use xlink:href="#DejaVuSans-54" transform="translate(137.792969 0)"/>
      <use xlink:href="#DejaVuSans-2d" transform="translate(189.751953 0)"/>
      <use xlink:href="#DejaVuSans-34" transform="translate(225.835938 0)"/>
      <use xlink:href="#DejaVuSans-6f" transform="translate(289.458984 0)"/>
      <use xlink:href="#DejaVuSans-20" transform="translate(350.640625 0)"/>
      <use xlink:href="#DejaVuSans-6d" transform="translate(382.427734 0)"/>
      <use xlink:href="#DejaVuSans-69" transform="translate(479.839844 0)"/>
      <use xlink:href="#DejaVuSans-6e" transform="translate(507.623047 0)"/>
      <use xlink:href="#DejaVuSans-69" transform="translate(571.001953 0)"/>
      <use xlink:href="#DejaVuSans-20" transform="translate(598.785156 0)"/>
      <use xlink:href="#DejaVuSans-52" transform="translate(630.572266 0)"/>
      <use xlink:href="#DejaVuSans-2f" transform="translate(700.054688 0)"/>
      <use xlink:href="#DejaVuSans-47" transform="translate(733.746094 0)"/>
      <use xlink:href="#DejaVuSans-50" transform="translate(811.236328 0)"/>
      <use xlink:href="#DejaVuSans-54" transform="translate(871.539062 0)"/>
      <use xlink:href="#DejaVuSans-2d" transform="translate(923.498047 0)"/>
      <use xlink:href="#DejaVuSans-34" transform="translate(959.582031 0)"/>
      <use xlink:href="#DejaVuSans-6f" transform="translate(1023.205078 0)"/>
     </g>
    </g>
    <g id="line2d_39">
     <path d="M 541.043828 137.663073 
L 548.043828 137.663073 
L 555.043828 137.663073 
" style="fill: none; stroke: #9d4edd; stroke-opacity: 0.72; stroke-width: 1.2; stroke-linecap: square"/>
    </g>
    <g id="text_23">
     <!-- GPT-4o mini R/GPT-4o mini -->
     <g transform="translate(560.643828 140.113073) scale(0.07 -0.07)">
      <use xlink:href="#DejaVuSans-47"/>
      <use xlink:href="#DejaVuSans-50" transform="translate(77.490234 0)"/>
      <use xlink:href="#DejaVuSans-54" transform="translate(137.792969 0)"/>
      <use xlink:href="#DejaVuSans-2d" transform="translate(189.751953 0)"/>
      <use xlink:href="#DejaVuSans-34" transform="translate(225.835938 0)"/>
      <use xlink:href="#DejaVuSans-6f" transform="translate(289.458984 0)"/>
      <use xlink:href="#DejaVuSans-20" transform="translate(350.640625 0)"/>
      <use xlink:href="#DejaVuSans-6d" transform="translate(382.427734 0)"/>
      <use xlink:href="#DejaVuSans-69" transform="translate(479.839844 0)"/>
      <use xlink:href="#DejaVuSans-6e" transform="translate(507.623047 0)"/>
      <use xlink:href="#DejaVuSans-69" transform="translate(571.001953 0)"/>
      <use xlink:href="#DejaVuSans-20" transform="translate(598.785156 0)"/>
      <use xlink:href="#DejaVuSans-52" transform="translate(630.572266 0)"/>
      <use xlink:href="#DejaVuSans-2f" transform="translate(700.054688 0)"/>
      <use xlink:href="#DejaVuSans-47" transform="translate(733.746094 0)"/>
      <use xlink:href="#DejaVuSans-50" transform="translate(811.236328 0)"/>
      <use xlink:href="#DejaVuSans-54" transform="translate(871.539062 0)"/>
      <use xlink:href="#DejaVuSans-2d" transform="translate(923.498047 0)"/>
      <use xlink:href="#DejaVuSans-34" transform="translate(959.582031 0)"/>
      <use xlink:href="#DejaVuSans-6f" transform="translate(1023.205078 0)"/>
      <use xlink:href="#DejaVuSans-20" transform="translate(1084.386719 0)"/>
      <use xlink:href="#DejaVuSans-6d" transform="translate(1116.173828 0)"/>
      <use xlink:href="#DejaVuSans-69" transform="translate(1213.585938 0)"/>
      <use xlink:href="#DejaVuSans-6e" transform="translate(1241.369141 0)"/>
      <use xlink:href="#DejaVuSans-69" transform="translate(1304.748047 0)"/>
     </g>
    </g>
    <g id="line2d_40">
     <path d="M 541.043828 147.93776 
L 548.043828 147.93776 
L 555.043828 147.93776 
" style="fill: none; stroke: #9d4edd; stroke-opacity: 0.72; stroke-width: 1.2; stroke-linecap: square"/>
    </g>
    <g id="text_24">
     <!-- GPT-4o mini R/Gemma -->
     <g transform="translate(560.643828 150.38776) scale(0.07 -0.07)">
      <use xlink:href="#DejaVuSans-47"/>
      <use xlink:href="#DejaVuSans-50" transform="translate(77.490234 0)"/>
      <use xlink:href="#DejaVuSans-54" transform="translate(137.792969 0)"/>
      <use xlink:href="#DejaVuSans-2d" transform="translate(189.751953 0)"/>
      <use xlink:href="#DejaVuSans-34" transform="translate(225.835938 0)"/>
      <use xlink:href="#DejaVuSans-6f" transform="translate(289.458984 0)"/>
      <use xlink:href="#DejaVuSans-20" transform="translate(350.640625 0)"/>
      <use xlink:href="#DejaVuSans-6d" transform="translate(382.427734 0)"/>
      <use xlink:href="#DejaVuSans-69" transform="translate(479.839844 0)"/>
      <use xlink:href="#DejaVuSans-6e" transform="translate(507.623047 0)"/>
      <use xlink:href="#DejaVuSans-69" transform="translate(571.001953 0)"/>
      <use xlink:href="#DejaVuSans-20" transform="translate(598.785156 0)"/>
      <use xlink:href="#DejaVuSans-52" transform="translate(630.572266 0)"/>
      <use xlink:href="#DejaVuSans-2f" transform="translate(700.054688 0)"/>
      <use xlink:href="#DejaVuSans-47" transform="translate(733.746094 0)"/>
      <use xlink:href="#DejaVuSans-65" transform="translate(811.236328 0)"/>
      <use xlink:href="#DejaVuSans-6d" transform="translate(872.759766 0)"/>
      <use xlink:href="#DejaVuSans-6d" transform="translate(970.171875 0)"/>
      <use xlink:href="#DejaVuSans-61" transform="translate(1067.583984 0)"/>
     </g>
    </g>
    <g id="line2d_41">
     <path d="M 541.043828 158.212448 
L 548.043828 158.212448 
L 555.043828 158.212448 
" style="fill: none; stroke: #f4a261; stroke-opacity: 0.72; stroke-width: 1.2; stroke-linecap: square"/>
    </g>
    <g id="text_25">
     <!-- Gemma R/Claude -->
     <g transform="translate(560.643828 160.662448) scale(0.07 -0.07)">
      <use xlink:href="#DejaVuSans-47"/>
      <use xlink:href="#DejaVuSans-65" transform="translate(77.490234 0)"/>
      <use xlink:href="#DejaVuSans-6d" transform="translate(139.013672 0)"/>
      <use xlink:href="#DejaVuSans-6d" transform="translate(236.425781 0)"/>
      <use xlink:href="#DejaVuSans-61" transform="translate(333.837891 0)"/>
      <use xlink:href="#DejaVuSans-20" transform="translate(395.117188 0)"/>
      <use xlink:href="#DejaVuSans-52" transform="translate(426.904297 0)"/>
      <use xlink:href="#DejaVuSans-2f" transform="translate(496.386719 0)"/>
      <use xlink:href="#DejaVuSans-43" transform="translate(530.078125 0)"/>
      <use xlink:href="#DejaVuSans-6c" transform="translate(599.902344 0)"/>
      <use xlink:href="#DejaVuSans-61" transform="translate(627.685547 0)"/>
      <use xlink:href="#DejaVuSans-75" transform="translate(688.964844 0)"/>
      <use xlink:href="#DejaVuSans-64" transform="translate(752.34375 0)"/>
      <use xlink:href="#DejaVuSans-65" transform="translate(815.820312 0)"/>
     </g>
    </g>
    <g id="line2d_42">
     <path d="M 541.043828 168.487135 
L 548.043828 168.487135 
L 555.043828 168.487135 
" style="fill: none; stroke: #f4a261; stroke-opacity: 0.72; stroke-width: 1.2; stroke-linecap: square"/>
    </g>
    <g id="text_26">
     <!-- Gemma R/GPT-4o -->
     <g transform="translate(560.643828 170.937135) scale(0.07 -0.07)">
      <use xlink:href="#DejaVuSans-47"/>
      <use xlink:href="#DejaVuSans-65" transform="translate(77.490234 0)"/>
      <use xlink:href="#DejaVuSans-6d" transform="translate(139.013672 0)"/>
      <use xlink:href="#DejaVuSans-6d" transform="translate(236.425781 0)"/>
      <use xlink:href="#DejaVuSans-61" transform="translate(333.837891 0)"/>
      <use xlink:href="#DejaVuSans-20" transform="translate(395.117188 0)"/>
      <use xlink:href="#DejaVuSans-52" transform="translate(426.904297 0)"/>
      <use xlink:href="#DejaVuSans-2f" transform="translate(496.386719 0)"/>
      <use xlink:href="#DejaVuSans-47" transform="translate(530.078125 0)"/>
      <use xlink:href="#DejaVuSans-50" transform="translate(607.568359 0)"/>
      <use xlink:href="#DejaVuSans-54" transform="translate(667.871094 0)"/>
      <use xlink:href="#DejaVuSans-2d" transform="translate(719.830078 0)"/>
      <use xlink:href="#DejaVuSans-34" transform="translate(755.914062 0)"/>
      <use xlink:href="#DejaVuSans-6f" transform="translate(819.537109 0)"/>
     </g>
    </g>
    <g id="line2d_43">
     <path d="M 541.043828 178.761823 
L 548.043828 178.761823 
L 555.043828 178.761823 
" style="fill: none; stroke: #f4a261; stroke-opacity: 0.72; stroke-width: 1.2; stroke-linecap: square"/>
    </g>
    <g id="text_27">
     <!-- Gemma R/GPT-4o mini -->
     <g transform="translate(560.643828 181.211823) scale(0.07 -0.07)">
      <use xlink:href="#DejaVuSans-47"/>
      <use xlink:href="#DejaVuSans-65" transform="translate(77.490234 0)"/>
      <use xlink:href="#DejaVuSans-6d" transform="translate(139.013672 0)"/>
      <use xlink:href="#DejaVuSans-6d" transform="translate(236.425781 0)"/>
      <use xlink:href="#DejaVuSans-61" transform="translate(333.837891 0)"/>
      <use xlink:href="#DejaVuSans-20" transform="translate(395.117188 0)"/>
      <use xlink:href="#DejaVuSans-52" transform="translate(426.904297 0)"/>
      <use xlink:href="#DejaVuSans-2f" transform="translate(496.386719 0)"/>
      <use xlink:href="#DejaVuSans-47" transform="translate(530.078125 0)"/>
      <use xlink:href="#DejaVuSans-50" transform="translate(607.568359 0)"/>
      <use xlink:href="#DejaVuSans-54" transform="translate(667.871094 0)"/>
      <use xlink:href="#DejaVuSans-2d" transform="translate(719.830078 0)"/>
      <use xlink:href="#DejaVuSans-34" transform="translate(755.914062 0)"/>
      <use xlink:href="#DejaVuSans-6f" transform="translate(819.537109 0)"/>
      <use xlink:href="#DejaVuSans-20" transform="translate(880.71875 0)"/>
      <use xlink:href="#DejaVuSans-6d" transform="translate(912.505859 0)"/>
      <use xlink:href="#DejaVuSans-69" transform="translate(1009.917969 0)"/>
      <use xlink:href="#DejaVuSans-6e" transform="translate(1037.701172 0)"/>
      <use xlink:href="#DejaVuSans-69" transform="translate(1101.080078 0)"/>
     </g>
    </g>
    <g id="line2d_44">
     <path d="M 541.043828 189.03651 
L 548.043828 189.03651 
L 555.043828 189.03651 
" style="fill: none; stroke: #f4a261; stroke-opacity: 0.72; stroke-width: 1.2; stroke-linecap: square"/>
    </g>
    <g id="text_28">
     <!-- Gemma R/Gemma -->
     <g transform="translate(560.643828 191.48651) scale(0.07 -0.07)">
      <use xlink:href="#DejaVuSans-47"/>
      <use xlink:href="#DejaVuSans-65" transform="translate(77.490234 0)"/>
      <use xlink:href="#DejaVuSans-6d" transform="translate(139.013672 0)"/>
      <use xlink:href="#DejaVuSans-6d" transform="translate(236.425781 0)"/>
      <use xlink:href="#DejaVuSans-61" transform="translate(333.837891 0)"/>
      <use xlink:href="#DejaVuSans-20" transform="translate(395.117188 0)"/>
      <use xlink:href="#DejaVuSans-52" transform="translate(426.904297 0)"/>
      <use xlink:href="#DejaVuSans-2f" transform="translate(496.386719 0)"/>
      <use xlink:href="#DejaVuSans-47" transform="translate(530.078125 0)"/>
      <use xlink:href="#DejaVuSans-65" transform="translate(607.568359 0)"/>
      <use xlink:href="#DejaVuSans-6d" transform="translate(669.091797 0)"/>
      <use xlink:href="#DejaVuSans-6d" transform="translate(766.503906 0)"/>
      <use xlink:href="#DejaVuSans-61" transform="translate(863.916016 0)"/>
     </g>
    </g>
    <g id="line2d_45">
     <path d="M 541.043828 199.311198 
L 548.043828 199.311198 
L 555.043828 199.311198 
" style="fill: none; stroke: #000000; stroke-width: 3; stroke-linecap: square"/>
    </g>
    <g id="text_29">
     <!-- MS low prod reference -->
     <g transform="translate(560.643828 201.761198) scale(0.07 -0.07)">
      <defs>
       <path id="DejaVuSans-66" d="M 2375 4863 
L 2375 4384 
L 1825 4384 
Q 1516 4384 1395 4259 
Q 1275 4134 1275 3809 
L 1275 3500 
L 2222 3500 
L 2222 3053 
L 1275 3053 
L 1275 0 
L 697 0 
L 697 3053 
L 147 3053 
L 147 3500 
L 697 3500 
L 697 3744 
Q 697 4328 969 4595 
Q 1241 4863 1831 4863 
L 2375 4863 
z
" transform="scale(0.015625)"/>
      </defs>
      <use xlink:href="#DejaVuSans-4d"/>
      <use xlink:href="#DejaVuSans-53" transform="translate(86.279297 0)"/>
      <use xlink:href="#DejaVuSans-20" transform="translate(149.755859 0)"/>
      <use xlink:href="#DejaVuSans-6c" transform="translate(181.542969 0)"/>
      <use xlink:href="#DejaVuSans-6f" transform="translate(209.326172 0)"/>
      <use xlink:href="#DejaVuSans-77" transform="translate(270.507812 0)"/>
      <use xlink:href="#DejaVuSans-20" transform="translate(352.294922 0)"/>
      <use xlink:href="#DejaVuSans-70" transform="translate(384.082031 0)"/>
      <use xlink:href="#DejaVuSans-72" transform="translate(447.558594 0)"/>
      <use xlink:href="#DejaVuSans-6f" transform="translate(486.421875 0)"/>
      <use xlink:href="#DejaVuSans-64" transform="translate(547.603516 0)"/>
      <use xlink:href="#DejaVuSans-20" transform="translate(611.080078 0)"/>
      <use xlink:href="#DejaVuSans-72" transform="translate(642.867188 0)"/>
      <use xlink:href="#DejaVuSans-65" transform="translate(681.730469 0)"/>
      <use xlink:href="#DejaVuSans-66" transform="translate(743.253906 0)"/>
      <use xlink:href="#DejaVuSans-65" transform="translate(778.458984 0)"/>
      <use xlink:href="#DejaVuSans-72" transform="translate(839.982422 0)"/>
      <use xlink:href="#DejaVuSans-65" transform="translate(878.845703 0)"/>
      <use xlink:href="#DejaVuSans-6e" transform="translate(940.369141 0)"/>
      <use xlink:href="#DejaVuSans-63" transform="translate(1003.748047 0)"/>
      <use xlink:href="#DejaVuSans-65" transform="translate(1058.728516 0)"/>
     </g>
    </g>
   </g>
  </g>
 </g>
 <defs>
  <clipPath id="p3428b62732">
   <path d="M 470.980407 309.6 
C 470.980407 280.016511 465.153105 250.720684 453.831994 223.389104 
C 442.510883 196.057524 425.91613 171.221721 404.997444 150.303036 
C 384.078759 129.38435 359.242956 112.789597 331.911376 101.468486 
C 304.579796 90.147375 275.283969 84.320073 245.70048 84.320073 
C 216.116991 84.320073 186.821164 90.147375 159.489584 101.468486 
C 132.158004 112.789597 107.322201 129.38435 86.403516 150.303036 
C 65.48483 171.221721 48.890077 196.057524 37.568966 223.389104 
C 26.247855 250.720684 20.420552 280.016511 20.420552 309.6 
C 20.420552 339.183489 26.247855 368.479316 37.568966 395.810896 
C 48.890077 423.142476 65.48483 447.978279 86.403516 468.896964 
C 107.322201 489.81565 132.158004 506.410403 159.489584 517.731514 
C 186.821164 529.052625 216.116991 534.879927 245.70048 534.879927 
C 275.283969 534.879927 304.579796 529.052625 331.911376 517.731514 
C 359.242956 506.410403 384.078759 489.81565 404.997444 468.896964 
C 425.91613 447.978279 442.510883 423.142476 453.831994 395.810896 
C 465.153105 368.479316 470.980407 339.183489 470.980407 309.6 
M 245.70048 309.6 
C 245.70048 309.6 245.70048 309.6 245.70048 309.6 
C 245.70048 309.6 245.70048 309.6 245.70048 309.6 
C 245.70048 309.6 245.70048 309.6 245.70048 309.6 
C 245.70048 309.6 245.70048 309.6 245.70048 309.6 
C 245.70048 309.6 245.70048 309.6 245.70048 309.6 
C 245.70048 309.6 245.70048 309.6 245.70048 309.6 
C 245.70048 309.6 245.70048 309.6 245.70048 309.6 
C 245.70048 309.6 245.70048 309.6 245.70048 309.6 
C 245.70048 309.6 245.70048 309.6 245.70048 309.6 
C 245.70048 309.6 245.70048 309.6 245.70048 309.6 
C 245.70048 309.6 245.70048 309.6 245.70048 309.6 
C 245.70048 309.6 245.70048 309.6 245.70048 309.6 
C 245.70048 309.6 245.70048 309.6 245.70048 309.6 
C 245.70048 309.6 245.70048 309.6 245.70048 309.6 
C 245.70048 309.6 245.70048 309.6 245.70048 309.6 
C 245.70048 309.6 245.70048 309.6 245.70048 309.6 
z
"/>
  </clipPath>
 </defs>
</svg>
