<svg xmlns="http://www.w3.org/2000/svg" width="768" height="348" viewBox="0 0 768 348">
<rect width="768" height="348" fill="#ffffff"/>
<text x="384.0" y="48" text-anchor="middle" font-family="Inter,Arial,sans-serif" font-size="13" font-weight="700" fill="#1e293b">two_stage_no_degasser repeat 5</text>
<circle cx="74.0" cy="152.5" r="24" fill="white" stroke="#1d4ed8" stroke-width="2.5"/><polygon points="65.0,137.5 65.0,167.5 90.0,152.5" fill="#1d4ed8"/><text x="74.0" y="198.5" text-anchor="middle" font-family="Inter,Arial,sans-serif" font-size="10" font-weight="700" fill="#1e293b">Feed A pump</text><text x="74.0" y="213.5" text-anchor="middle" font-family="Inter,Arial,sans-serif" font-size="9" font-weight="normal" fill="#475569">Feed A</text><text x="74.0" y="228.5" text-anchor="middle" font-family="Inter,Arial,sans-serif" font-size="9" font-weight="normal" fill="#475569">0.1 mL/min</text>
<text x="208.0" y="256.5" text-anchor="middle" font-family="Inter,Arial,sans-serif" font-size="10" font-weight="700" fill="#1e293b">Stage 1: 20 mL reactor</text>
<line x1="308.0" y1="210.5" x2="356.0" y2="210.5" stroke="#7c3aed" stroke-width="3" stroke-linecap="round"/><line x1="332.0" y1="188.5" x2="332.0" y2="210.5" stroke="#7c3aed" stroke-width="3" stroke-linecap="round"/><circle cx="332.0" cy="210.5" r="5" fill="#7c3aed"/><polygon points="308.0,205.5 308.0,215.5 319.0,210.5" fill="#7c3aed"/><polygon points="332.0,188.5 327.0,196.5 337.0,196.5" fill="#7c3aed"/><text x="332.0" y="256.5" text-anchor="middle" font-family="Inter,Arial,sans-serif" font-size="10" font-weight="700" fill="#1e293b">Stage 2 mixer</text><text x="332.0" y="271.5" text-anchor="middle" font-family="Inter,Arial,sans-serif" font-size="9" font-weight="normal" fill="#475569">T-mixer</text>
<rect x="423.0" y="185.5" width="66" height="50" rx="8" fill="#fffbeb" stroke="#d97706" stroke-width="2.5"/><path d="M 430.0,206.5 L 430.9,208.4 L 431.7,210.2 L 432.6,211.8 L 433.5,213.2 L 434.3,214.3 L 435.2,215.1 L 436.1,215.5 L 436.9,215.5 L 437.8,215.1 L 438.7,214.3 L 439.5,213.2 L 440.4,211.8 L 441.3,210.2 L 442.1,208.4 L 443.0,206.5 L 443.9,204.6 L 444.7,202.8 L 445.6,201.2 L 446.5,199.8 L 447.3,198.7 L 448.2,197.9 L 449.1,197.5 L 449.9,197.5 L 450.8,197.9 L 451.7,198.7 L 452.5,199.8 L 453.4,201.2 L 454.3,202.8 L 455.1,204.6 L 456.0,206.5 L 456.9,208.4 L 457.7,210.2 L 458.6,211.8 L 459.5,213.2 L 460.3,214.3 L 461.2,215.1 L 462.1,215.5 L 462.9,215.5 L 463.8,215.1 L 464.7,214.3 L 465.5,213.2 L 466.4,211.8 L 467.3,210.2 L 468.1,208.4 L 469.0,206.5 L 469.9,204.6 L 470.7,202.8 L 471.6,201.2 L 472.5,199.8 L 473.3,198.7 L 474.2,197.9 L 475.1,197.5 L 475.9,197.5 L 476.8,197.9 L 477.7,198.7 L 478.5,199.8 L 479.4,201.2 L 480.3,202.8 L 481.1,204.6 L 482.0,206.5" fill="none" stroke="#d97706" stroke-width="2.2" stroke-linecap="round"/><text x="456.0" y="256.5" text-anchor="middle" font-family="Inter,Arial,sans-serif" font-size="10" font-weight="700" fill="#1e293b">Stage 2: 10 mL reactor</text><text x="456.0" y="271.5" text-anchor="middle" font-family="Inter,Arial,sans-serif" font-size="9" font-weight="normal" fill="#475569">V=10.0mL</text><text x="456.0" y="286.5" text-anchor="middle" font-family="Inter,Arial,sans-serif" font-size="9" font-weight="normal" fill="#475569">T=40°C</text>
<polygon points="580.0,186.5 604.0,210.5 580.0,234.5 556.0,210.5" fill="white" stroke="#dc2626" stroke-width="2.5"/><text x="580.0" y="214.5" text-anchor="middle" font-family="Inter,Arial,sans-serif" font-size="8" font-weight="700" fill="#dc2626">P</text><text x="580.0" y="256.5" text-anchor="middle" font-family="Inter,Arial,sans-serif" font-size="10" font-weight="700" fill="#1e293b">5 bar BPR</text><text x="580.0" y="271.5" text-anchor="middle" font-family="Inter,Arial,sans-serif" font-size="9" font-weight="normal" fill="#475569">5.0 bar</text>
<path d="M 697.5 186.5 L 710.5 186.5 L 726.0 199.94 Q 730.0 204.94 730.0 209.94 Q 730.0 234.5 722.0 234.5 L 686.0 234.5 Q 678.0 234.5 678.0 209.94 Q 678.0 204.94 682.0 199.94 L 697.5 186.5 Z" fill="#f0fdf4" stroke="#16a34a" stroke-width="2"/><line x1="693.5" y1="186.5" x2="714.5" y2="186.5" stroke="#16a34a" stroke-width="3" stroke-linecap="round"/><text x="704.0" y="256.5" text-anchor="middle" font-family="Inter,Arial,sans-serif" font-size="10" font-weight="700" fill="#1e293b">Product collection</text><text x="704.0" y="271.5" text-anchor="middle" font-family="Inter,Arial,sans-serif" font-size="9" font-weight="normal" fill="#475569">Product</text>
<circle cx="332.0" cy="62.5" r="24" fill="white" stroke="#1d4ed8" stroke-width="2.5"/><polygon points="323.0,47.5 323.0,77.5 348.0,62.5" fill="#1d4ed8"/><text x="332.0" y="108.5" text-anchor="middle" font-family="Inter,Arial,sans-serif" font-size="10" font-weight="700" fill="#1e293b">Stage 2 reagent pump</text><text x="332.0" y="123.5" text-anchor="middle" font-family="Inter,Arial,sans-serif" font-size="9" font-weight="normal" fill="#475569">Feed B</text><text x="332.0" y="138.5" text-anchor="middle" font-family="Inter,Arial,sans-serif" font-size="9" font-weight="normal" fill="#475569">0.02 mL/min</text>
<line x1="332.0" y1="148.5" x2="332.0" y2="175.5" stroke="#475569" stroke-width="1.5" stroke-dasharray="4,3"/><polygon points="328.0,174.5 332.0,180.5 336.0,174.5" fill="#475569"/>
<line x1="110.0" y1="180.5" x2="122.0" y2="180.5" stroke="#475569" stroke-width="1.5"/>
<line x1="122.0" y1="180.5" x2="122.0" y2="238.5" stroke="#475569" stroke-width="1.5"/>
<line x1="122.0" y1="238.5" x2="166.0" y2="238.5" stroke="#475569" stroke-width="1.8"/><polygon points="165.0,234.5 172.0,238.5 165.0,242.5" fill="#475569"/>
<line x1="244.0" y1="238.5" x2="290.0" y2="238.5" stroke="#475569" stroke-width="1.8"/><polygon points="289.0,234.5 296.0,238.5 289.0,242.5" fill="#475569"/>
<line x1="368.0" y1="238.5" x2="414.0" y2="238.5" stroke="#475569" stroke-width="1.8"/><polygon points="413.0,234.5 420.0,238.5 413.0,242.5" fill="#475569"/>
<line x1="492.0" y1="238.5" x2="538.0" y2="238.5" stroke="#475569" stroke-width="1.8"/><polygon points="537.0,234.5 544.0,238.5 537.0,242.5" fill="#475569"/>
<line x1="616.0" y1="238.5" x2="662.0" y2="238.5" stroke="#475569" stroke-width="1.8"/><polygon points="661.0,234.5 668.0,238.5 661.0,242.5" fill="#475569"/>
<text x="384.0" y="334" text-anchor="middle" font-family="Inter,Arial,sans-serif" font-size="10" font-weight="normal" fill="#94a3b8">τ = 107.5 min · Q = 0.12 mL/min · V = 30.0 mL</text>
</svg>