<?xml version="1.0" encoding="utf-8" standalone="no"?>
<!DOCTYPE svg PUBLIC "-//W3C//DTD SVG 1.1//EN"
  "http://www.w3.org/Graphics/SVG/1.1/DTD/svg11.dtd">
<svg xmlns:xlink="http://www.w3.org/1999/xlink" width="619.2pt" height="590.4pt" viewBox="0 0 619.2 590.4" xmlns="http://www.w3.org/2000/svg" version="1.1">
 <metadata>
  <rdf:RDF xmlns:dc="http://purl.org/dc/elements/1.1/" xmlns:cc="http://creativecommons.org/ns#" xmlns:rdf="http://www.w3.org/1999/02/22-rdf-syntax-ns#">
   <cc:Work>
    <dc:type rdf:resource="http://purl.org/dc/dcmitype/StillImage"/>
    <dc:date>2026-04-28T16:00:24.935610</dc:date>
    <dc:format>image/svg+xml</dc:format>
    <dc:creator>
     <cc:Agent>
      <dc:title>Matplotlib v3.10.8, https://matplotlib.org/</dc:title>
     </cc:Agent>
    </dc:creator>
   </cc:Work>
  </rdf:RDF>
 </metadata>
 <defs>
  <style type="text/css">*{stroke-linejoin: round; stroke-linecap: butt}</style>
 </defs>
 <g id="figure_1">
  <g id="patch_1">
   <path d="M 0 590.4 
L 619.2 590.4 
L 619.2 0 
L 0 0 
z
" style="fill: #ffffff"/>
  </g>
  <g id="axes_1">
   <g id="patch_2">
    <path d="M 468.204421 295.2 
C 468.204421 266.697288 462.590008 238.47173 451.682493 212.138658 
C 440.774977 185.805586 424.786483 161.877113 404.632022 141.722652 
C 384.477561 121.568192 360.549088 105.579697 334.216016 94.672181 
C 307.882944 83.764666 279.657386 78.150253 251.154674 78.150253 
C 222.651963 78.150253 194.426404 83.764666 168.093332 94.672181 
C 141.76026 105.579697 117.831787 121.568192 97.677326 141.722652 
C 77.522866 161.877113 61.534371 185.805586 50.626856 212.138658 
C 39.71934 238.47173 34.104927 266.697288 34.104927 295.2 
C 34.104927 323.702712 39.71934 351.92827 50.626856 378.261342 
C 61.534371 404.594414 77.522866 428.522887 97.677326 448.677348 
C 117.831787 468.831808 141.76026 484.820303 168.093332 495.727819 
C 194.426404 506.635334 222.651963 512.249747 251.154674 512.249747 
C 279.657386 512.249747 307.882944 506.635334 334.216016 495.727819 
C 360.549088 484.820303 384.477561 468.831808 404.632022 448.677348 
C 424.786483 428.522887 440.774977 404.594414 451.682493 378.261342 
C 462.590008 351.92827 468.204421 323.702712 468.204421 295.2 
M 251.154674 295.2 
C 251.154674 295.2 251.154674 295.2 251.154674 295.2 
C 251.154674 295.2 251.154674 295.2 251.154674 295.2 
C 251.154674 295.2 251.154674 295.2 251.154674 295.2 
C 251.154674 295.2 251.154674 295.2 251.154674 295.2 
C 251.154674 295.2 251.154674 295.2 251.154674 295.2 
C 251.154674 295.2 251.154674 295.2 251.154674 295.2 
C 251.154674 295.2 251.154674 295.2 251.154674 295.2 
C 251.154674 295.2 251.154674 295.2 251.154674 295.2 
C 251.154674 295.2 251.154674 295.2 251.154674 295.2 
C 251.154674 295.2 251.154674 295.2 251.154674 295.2 
C 251.154674 295.2 251.154674 295.2 251.154674 295.2 
C 251.154674 295.2 251.154674 295.2 251.154674 295.2 
C 251.154674 295.2 251.154674 295.2 251.154674 295.2 
C 251.154674 295.2 251.154674 295.2 251.154674 295.2 
C 251.154674 295.2 251.154674 295.2 251.154674 295.2 
C 251.154674 295.2 251.154674 295.2 251.154674 295.2 
z
" style="fill: #ffffff"/>
   </g>
   <g id="patch_3">
    <path d="M 457.868719 295.2 
L 354.511696 116.180386 
L 147.797652 116.180386 
L 44.44063 295.2 
L 226.790822 337.399429 
L 287.719762 358.53259 
z
" clip-path="url(#pef7c42db5b)" style="fill: #1f77b4; opacity: 0.08"/>
   </g>
   <g id="patch_4">
    <path d="M 394.116602 295.2 
L 277.415091 249.715623 
L 209.811865 223.592154 
L 251.154674 295.2 
L 155.826029 460.314057 
L 282.683364 349.809293 
z
" clip-path="url(#pef7c42db5b)" style="fill: #ff7f0e; opacity: 0.08"/>
   </g>
   <g id="patch_5">
    <path d="M 251.154674 295.2 
L 251.154674 295.2 
L 248.570749 290.72451 
L 44.44063 295.2 
L 251.154674 295.2 
L 354.511696 474.219614 
z
" clip-path="url(#pef7c42db5b)" style="fill: #2ca02c; opacity: 0.08"/>
   </g>
   <g id="patch_6">
    <path d="M 455.769984 295.2 
L 346.608905 129.868422 
L 150.381578 120.655877 
L 44.44063 295.2 
L 147.797652 474.219614 
L 251.316227 295.479817 
z
" clip-path="url(#pef7c42db5b)" style="fill: #d62728; opacity: 0.08"/>
   </g>
   <g id="patch_7">
    <path d="M 382.094531 295.2 
L 285.750302 235.278615 
L 204.644014 214.641174 
L 44.44063 295.2 
L 147.797652 474.219614 
L 251.154674 295.2 
z
" clip-path="url(#pef7c42db5b)" style="fill: #9467bd; opacity: 0.08"/>
   </g>
   <g id="patch_8">
    <path d="M 266.140787 295.2 
L 252.758465 292.422152 
L 251.154674 295.2 
L 44.44063 295.2 
L 147.797652 474.219614 
L 252.685576 297.8516 
z
" clip-path="url(#pef7c42db5b)" style="fill: #8c564b; opacity: 0.08"/>
   </g>
   <g id="matplotlib.axis_1">
    <g id="xtick_1">
     <g id="line2d_1">
      <path d="M 251.154674 295.2 
L 468.204421 295.2 
" clip-path="url(#pef7c42db5b)" style="fill: none; stroke: #b0b0b0; stroke-width: 0.8; stroke-linecap: square"/>
     </g>
     <g id="text_1">
      <!-- fast -->
      <g transform="translate(472.815358 297.959375) scale(0.1 -0.1)">
       <defs>
        <path id="DejaVuSans-66" d="M 2375 4863 
L 2375 4384 
L 1825 4384 
Q 1516 4384 1395 4259 
Q 1275 4134 1275 3809 
L 1275 3500 
L 2222 3500 
L 2222 3053 
L 1275 3053 
L 1275 0 
L 697 0 
L 697 3053 
L 147 3053 
L 147 3500 
L 697 3500 
L 697 3744 
Q 697 4328 969 4595 
Q 1241 4863 1831 4863 
L 2375 4863 
z
" transform="scale(0.015625)"/>
        <path id="DejaVuSans-61" d="M 2194 1759 
Q 1497 1759 1228 1600 
Q 959 1441 959 1056 
Q 959 750 1161 570 
Q 1363 391 1709 391 
Q 2188 391 2477 730 
Q 2766 1069 2766 1631 
L 2766 1759 
L 2194 1759 
z
M 3341 1997 
L 3341 0 
L 2766 0 
L 2766 531 
Q 2569 213 2275 61 
Q 1981 -91 1556 -91 
Q 1019 -91 701 211 
Q 384 513 384 1019 
Q 384 1609 779 1909 
Q 1175 2209 1959 2209 
L 2766 2209 
L 2766 2266 
Q 2766 2663 2505 2880 
Q 2244 3097 1772 3097 
Q 1472 3097 1187 3025 
Q 903 2953 641 2809 
L 641 3341 
Q 956 3463 1253 3523 
Q 1550 3584 1831 3584 
Q 2591 3584 2966 3190 
Q 3341 2797 3341 1997 
z
" transform="scale(0.015625)"/>
        <path id="DejaVuSans-73" d="M 2834 3397 
L 2834 2853 
Q 2591 2978 2328 3040 
Q 2066 3103 1784 3103 
Q 1356 3103 1142 2972 
Q 928 2841 928 2578 
Q 928 2378 1081 2264 
Q 1234 2150 1697 2047 
L 1894 2003 
Q 2506 1872 2764 1633 
Q 3022 1394 3022 966 
Q 3022 478 2636 193 
Q 2250 -91 1575 -91 
Q 1294 -91 989 -36 
Q 684 19 347 128 
L 347 722 
Q 666 556 975 473 
Q 1284 391 1588 391 
Q 1994 391 2212 530 
Q 2431 669 2431 922 
Q 2431 1156 2273 1281 
Q 2116 1406 1581 1522 
L 1381 1569 
Q 847 1681 609 1914 
Q 372 2147 372 2553 
Q 372 3047 722 3315 
Q 1072 3584 1716 3584 
Q 2034 3584 2315 3537 
Q 2597 3491 2834 3397 
z
" transform="scale(0.015625)"/>
        <path id="DejaVuSans-74" d="M 1172 4494 
L 1172 3500 
L 2356 3500 
L 2356 3053 
L 1172 3053 
L 1172 1153 
Q 1172 725 1289 603 
Q 1406 481 1766 481 
L 2356 481 
L 2356 0 
L 1766 0 
Q 1100 0 847 248 
Q 594 497 594 1153 
L 594 3053 
L 172 3053 
L 172 3500 
L 594 3500 
L 594 4494 
L 1172 4494 
z
" transform="scale(0.015625)"/>
       </defs>
       <use xlink:href="#DejaVuSans-66"/>
       <use xlink:href="#DejaVuSans-61" transform="translate(35.205078 0)"/>
       <use xlink:href="#DejaVuSans-73" transform="translate(96.484375 0)"/>
       <use xlink:href="#DejaVuSans-74" transform="translate(148.583984 0)"/>
      </g>
     </g>
    </g>
    <g id="xtick_2">
     <g id="line2d_2">
      <path d="M 251.154674 295.2 
L 359.679548 107.229405 
" clip-path="url(#pef7c42db5b)" style="fill: none; stroke: #b0b0b0; stroke-width: 0.8; stroke-linecap: square"/>
     </g>
     <g id="text_2">
      <!-- cheap -->
      <g transform="translate(351.446735 97.864425) scale(0.1 -0.1)">
       <defs>
        <path id="DejaVuSans-63" d="M 3122 3366 
L 3122 2828 
Q 2878 2963 2633 3030 
Q 2388 3097 2138 3097 
Q 1578 3097 1268 2742 
Q 959 2388 959 1747 
Q 959 1106 1268 751 
Q 1578 397 2138 397 
Q 2388 397 2633 464 
Q 2878 531 3122 666 
L 3122 134 
Q 2881 22 2623 -34 
Q 2366 -91 2075 -91 
Q 1284 -91 818 406 
Q 353 903 353 1747 
Q 353 2603 823 3093 
Q 1294 3584 2113 3584 
Q 2378 3584 2631 3529 
Q 2884 3475 3122 3366 
z
" transform="scale(0.015625)"/>
        <path id="DejaVuSans-68" d="M 3513 2113 
L 3513 0 
L 2938 0 
L 2938 2094 
Q 2938 2591 2744 2837 
Q 2550 3084 2163 3084 
Q 1697 3084 1428 2787 
Q 1159 2491 1159 1978 
L 1159 0 
L 581 0 
L 581 4863 
L 1159 4863 
L 1159 2956 
Q 1366 3272 1645 3428 
Q 1925 3584 2291 3584 
Q 2894 3584 3203 3211 
Q 3513 2838 3513 2113 
z
" transform="scale(0.015625)"/>
        <path id="DejaVuSans-65" d="M 3597 1894 
L 3597 1613 
L 953 1613 
Q 991 1019 1311 708 
Q 1631 397 2203 397 
Q 2534 397 2845 478 
Q 3156 559 3463 722 
L 3463 178 
Q 3153 47 2828 -22 
Q 2503 -91 2169 -91 
Q 1331 -91 842 396 
Q 353 884 353 1716 
Q 353 2575 817 3079 
Q 1281 3584 2069 3584 
Q 2775 3584 3186 3129 
Q 3597 2675 3597 1894 
z
M 3022 2063 
Q 3016 2534 2758 2815 
Q 2500 3097 2075 3097 
Q 1594 3097 1305 2825 
Q 1016 2553 972 2059 
L 3022 2063 
z
" transform="scale(0.015625)"/>
        <path id="DejaVuSans-70" d="M 1159 525 
L 1159 -1331 
L 581 -1331 
L 581 3500 
L 1159 3500 
L 1159 2969 
Q 1341 3281 1617 3432 
Q 1894 3584 2278 3584 
Q 2916 3584 3314 3078 
Q 3713 2572 3713 1747 
Q 3713 922 3314 415 
Q 2916 -91 2278 -91 
Q 1894 -91 1617 61 
Q 1341 213 1159 525 
z
M 3116 1747 
Q 3116 2381 2855 2742 
Q 2594 3103 2138 3103 
Q 1681 3103 1420 2742 
Q 1159 2381 1159 1747 
Q 1159 1113 1420 752 
Q 1681 391 2138 391 
Q 2594 391 2855 752 
Q 3116 1113 3116 1747 
z
" transform="scale(0.015625)"/>
       </defs>
       <use xlink:href="#DejaVuSans-63"/>
       <use xlink:href="#DejaVuSans-68" transform="translate(54.980469 0)"/>
       <use xlink:href="#DejaVuSans-65" transform="translate(118.359375 0)"/>
       <use xlink:href="#DejaVuSans-61" transform="translate(179.882812 0)"/>
       <use xlink:href="#DejaVuSans-70" transform="translate(241.162109 0)"/>
      </g>
     </g>
    </g>
    <g id="xtick_3">
     <g id="line2d_3">
      <path d="M 251.154674 295.2 
L 142.629801 107.229405 
" clip-path="url(#pef7c42db5b)" style="fill: none; stroke: #b0b0b0; stroke-width: 0.8; stroke-linecap: square"/>
     </g>
     <g id="text_3">
      <!-- few calls -->
      <g transform="translate(113.918863 97.864425) scale(0.1 -0.1)">
       <defs>
        <path id="DejaVuSans-77" d="M 269 3500 
L 844 3500 
L 1563 769 
L 2278 3500 
L 2956 3500 
L 3675 769 
L 4391 3500 
L 4966 3500 
L 4050 0 
L 3372 0 
L 2619 2869 
L 1863 0 
L 1184 0 
L 269 3500 
z
" transform="scale(0.015625)"/>
        <path id="DejaVuSans-20" transform="scale(0.015625)"/>
        <path id="DejaVuSans-6c" d="M 603 4863 
L 1178 4863 
L 1178 0 
L 603 0 
L 603 4863 
z
" transform="scale(0.015625)"/>
       </defs>
       <use xlink:href="#DejaVuSans-66"/>
       <use xlink:href="#DejaVuSans-65" transform="translate(35.205078 0)"/>
       <use xlink:href="#DejaVuSans-77" transform="translate(96.728516 0)"/>
       <use xlink:href="#DejaVuSans-20" transform="translate(178.515625 0)"/>
       <use xlink:href="#DejaVuSans-63" transform="translate(210.302734 0)"/>
       <use xlink:href="#DejaVuSans-61" transform="translate(265.283203 0)"/>
       <use xlink:href="#DejaVuSans-6c" transform="translate(326.5625 0)"/>
       <use xlink:href="#DejaVuSans-6c" transform="translate(354.345703 0)"/>
       <use xlink:href="#DejaVuSans-73" transform="translate(382.128906 0)"/>
      </g>
     </g>
    </g>
    <g id="xtick_4">
     <g id="line2d_4">
      <path d="M 251.154674 295.2 
L 34.104927 295.2 
" clip-path="url(#pef7c42db5b)" style="fill: none; stroke: #b0b0b0; stroke-width: 0.8; stroke-linecap: square"/>
     </g>
     <g id="text_4">
      <!-- quality -->
      <g transform="translate(3.00024 297.959375) scale(0.1 -0.1)">
       <defs>
        <path id="DejaVuSans-71" d="M 947 1747 
Q 947 1113 1208 752 
Q 1469 391 1925 391 
Q 2381 391 2643 752 
Q 2906 1113 2906 1747 
Q 2906 2381 2643 2742 
Q 2381 3103 1925 3103 
Q 1469 3103 1208 2742 
Q 947 2381 947 1747 
z
M 2906 525 
Q 2725 213 2448 61 
Q 2172 -91 1784 -91 
Q 1150 -91 751 415 
Q 353 922 353 1747 
Q 353 2572 751 3078 
Q 1150 3584 1784 3584 
Q 2172 3584 2448 3432 
Q 2725 3281 2906 2969 
L 2906 3500 
L 3481 3500 
L 3481 -1331 
L 2906 -1331 
L 2906 525 
z
" transform="scale(0.015625)"/>
        <path id="DejaVuSans-75" d="M 544 1381 
L 544 3500 
L 1119 3500 
L 1119 1403 
Q 1119 906 1312 657 
Q 1506 409 1894 409 
Q 2359 409 2629 706 
Q 2900 1003 2900 1516 
L 2900 3500 
L 3475 3500 
L 3475 0 
L 2900 0 
L 2900 538 
Q 2691 219 2414 64 
Q 2138 -91 1772 -91 
Q 1169 -91 856 284 
Q 544 659 544 1381 
z
M 1991 3584 
L 1991 3584 
z
" transform="scale(0.015625)"/>
        <path id="DejaVuSans-69" d="M 603 3500 
L 1178 3500 
L 1178 0 
L 603 0 
L 603 3500 
z
M 603 4863 
L 1178 4863 
L 1178 4134 
L 603 4134 
L 603 4863 
z
" transform="scale(0.015625)"/>
        <path id="DejaVuSans-79" d="M 2059 -325 
Q 1816 -950 1584 -1140 
Q 1353 -1331 966 -1331 
L 506 -1331 
L 506 -850 
L 844 -850 
Q 1081 -850 1212 -737 
Q 1344 -625 1503 -206 
L 1606 56 
L 191 3500 
L 800 3500 
L 1894 763 
L 2988 3500 
L 3597 3500 
L 2059 -325 
z
" transform="scale(0.015625)"/>
       </defs>
       <use xlink:href="#DejaVuSans-71"/>
       <use xlink:href="#DejaVuSans-75" transform="translate(63.476562 0)"/>
       <use xlink:href="#DejaVuSans-61" transform="translate(126.855469 0)"/>
       <use xlink:href="#DejaVuSans-6c" transform="translate(188.134766 0)"/>
       <use xlink:href="#DejaVuSans-69" transform="translate(215.917969 0)"/>
       <use xlink:href="#DejaVuSans-74" transform="translate(243.701172 0)"/>
       <use xlink:href="#DejaVuSans-79" transform="translate(282.910156 0)"/>
      </g>
     </g>
    </g>
    <g id="xtick_5">
     <g id="line2d_5">
      <path d="M 251.154674 295.2 
L 142.629801 483.170595 
" clip-path="url(#pef7c42db5b)" style="fill: none; stroke: #b0b0b0; stroke-width: 0.8; stroke-linecap: square"/>
     </g>
     <g id="text_5">
      <!-- compact -->
      <g transform="translate(114.003238 498.054325) scale(0.1 -0.1)">
       <defs>
        <path id="DejaVuSans-6f" d="M 1959 3097 
Q 1497 3097 1228 2736 
Q 959 2375 959 1747 
Q 959 1119 1226 758 
Q 1494 397 1959 397 
Q 2419 397 2687 759 
Q 2956 1122 2956 1747 
Q 2956 2369 2687 2733 
Q 2419 3097 1959 3097 
z
M 1959 3584 
Q 2709 3584 3137 3096 
Q 3566 2609 3566 1747 
Q 3566 888 3137 398 
Q 2709 -91 1959 -91 
Q 1206 -91 779 398 
Q 353 888 353 1747 
Q 353 2609 779 3096 
Q 1206 3584 1959 3584 
z
" transform="scale(0.015625)"/>
        <path id="DejaVuSans-6d" d="M 3328 2828 
Q 3544 3216 3844 3400 
Q 4144 3584 4550 3584 
Q 5097 3584 5394 3201 
Q 5691 2819 5691 2113 
L 5691 0 
L 5113 0 
L 5113 2094 
Q 5113 2597 4934 2840 
Q 4756 3084 4391 3084 
Q 3944 3084 3684 2787 
Q 3425 2491 3425 1978 
L 3425 0 
L 2847 0 
L 2847 2094 
Q 2847 2600 2669 2842 
Q 2491 3084 2119 3084 
Q 1678 3084 1418 2786 
Q 1159 2488 1159 1978 
L 1159 0 
L 581 0 
L 581 3500 
L 1159 3500 
L 1159 2956 
Q 1356 3278 1631 3431 
Q 1906 3584 2284 3584 
Q 2666 3584 2933 3390 
Q 3200 3197 3328 2828 
z
" transform="scale(0.015625)"/>
       </defs>
       <use xlink:href="#DejaVuSans-63"/>
       <use xlink:href="#DejaVuSans-6f" transform="translate(54.980469 0)"/>
       <use xlink:href="#DejaVuSans-6d" transform="translate(116.162109 0)"/>
       <use xlink:href="#DejaVuSans-70" transform="translate(213.574219 0)"/>
       <use xlink:href="#DejaVuSans-61" transform="translate(277.050781 0)"/>
       <use xlink:href="#DejaVuSans-63" transform="translate(338.330078 0)"/>
       <use xlink:href="#DejaVuSans-74" transform="translate(393.310547 0)"/>
      </g>
     </g>
    </g>
    <g id="xtick_6">
     <g id="line2d_6">
      <path d="M 251.154674 295.2 
L 359.679548 483.170595 
" clip-path="url(#pef7c42db5b)" style="fill: none; stroke: #b0b0b0; stroke-width: 0.8; stroke-linecap: square"/>
     </g>
     <g id="text_6">
      <!-- throughput -->
      <g transform="translate(338.733454 498.054325) scale(0.1 -0.1)">
       <defs>
        <path id="DejaVuSans-72" d="M 2631 2963 
Q 2534 3019 2420 3045 
Q 2306 3072 2169 3072 
Q 1681 3072 1420 2755 
Q 1159 2438 1159 1844 
L 1159 0 
L 581 0 
L 581 3500 
L 1159 3500 
L 1159 2956 
Q 1341 3275 1631 3429 
Q 1922 3584 2338 3584 
Q 2397 3584 2469 3576 
Q 2541 3569 2628 3553 
L 2631 2963 
z
" transform="scale(0.015625)"/>
        <path id="DejaVuSans-67" d="M 2906 1791 
Q 2906 2416 2648 2759 
Q 2391 3103 1925 3103 
Q 1463 3103 1205 2759 
Q 947 2416 947 1791 
Q 947 1169 1205 825 
Q 1463 481 1925 481 
Q 2391 481 2648 825 
Q 2906 1169 2906 1791 
z
M 3481 434 
Q 3481 -459 3084 -895 
Q 2688 -1331 1869 -1331 
Q 1566 -1331 1297 -1286 
Q 1028 -1241 775 -1147 
L 775 -588 
Q 1028 -725 1275 -790 
Q 1522 -856 1778 -856 
Q 2344 -856 2625 -561 
Q 2906 -266 2906 331 
L 2906 616 
Q 2728 306 2450 153 
Q 2172 0 1784 0 
Q 1141 0 747 490 
Q 353 981 353 1791 
Q 353 2603 747 3093 
Q 1141 3584 1784 3584 
Q 2172 3584 2450 3431 
Q 2728 3278 2906 2969 
L 2906 3500 
L 3481 3500 
L 3481 434 
z
" transform="scale(0.015625)"/>
       </defs>
       <use xlink:href="#DejaVuSans-74"/>
       <use xlink:href="#DejaVuSans-68" transform="translate(39.208984 0)"/>
       <use xlink:href="#DejaVuSans-72" transform="translate(102.587891 0)"/>
       <use xlink:href="#DejaVuSans-6f" transform="translate(141.451172 0)"/>
       <use xlink:href="#DejaVuSans-75" transform="translate(202.632812 0)"/>
       <use xlink:href="#DejaVuSans-67" transform="translate(266.011719 0)"/>
       <use xlink:href="#DejaVuSans-68" transform="translate(329.488281 0)"/>
       <use xlink:href="#DejaVuSans-70" transform="translate(392.867188 0)"/>
       <use xlink:href="#DejaVuSans-75" transform="translate(456.34375 0)"/>
       <use xlink:href="#DejaVuSans-74" transform="translate(519.722656 0)"/>
      </g>
     </g>
    </g>
   </g>
   <g id="matplotlib.axis_2">
    <g id="ytick_1">
     <g id="line2d_7">
      <path d="M 292.497483 295.2 
C 292.497483 289.770912 291.428071 284.394615 289.350449 279.378792 
C 287.272827 274.362969 284.2274 269.805164 280.388455 265.966219 
C 276.54951 262.127275 271.991705 259.081847 266.975882 257.004225 
C 261.960059 254.926603 256.583762 253.857191 251.154674 253.857191 
C 245.725586 253.857191 240.349289 254.926603 235.333466 257.004225 
C 230.317643 259.081847 225.759839 262.127275 221.920894 265.966219 
C 218.081949 269.805164 215.036521 274.362969 212.958899 279.378792 
C 210.881277 284.394615 209.811865 289.770912 209.811865 295.2 
C 209.811865 300.629088 210.881277 306.005385 212.958899 311.021208 
C 215.036521 316.037031 218.081949 320.594836 221.920894 324.433781 
C 225.759839 328.272725 230.317643 331.318153 235.333466 333.395775 
C 240.349289 335.473397 245.725586 336.542809 251.154674 336.542809 
C 256.583762 336.542809 261.960059 335.473397 266.975882 333.395775 
C 271.991705 331.318153 276.54951 328.272725 280.388455 324.433781 
C 284.2274 320.594836 287.272827 316.037031 289.350449 311.021208 
C 291.428071 306.005385 292.497483 300.629088 292.497483 295.2 
" clip-path="url(#pef7c42db5b)" style="fill: none; stroke: #b0b0b0; stroke-width: 0.8; stroke-linecap: square"/>
     </g>
    </g>
    <g id="ytick_2">
     <g id="line2d_8">
      <path d="M 333.840292 295.2 
C 333.840292 284.341824 331.701468 273.58923 327.546224 263.557584 
C 323.39098 253.525938 317.300125 244.410329 309.622235 236.732439 
C 301.944345 229.054549 292.828737 222.963694 282.79709 218.80845 
C 272.765444 214.653206 262.01285 212.514382 251.154674 212.514382 
C 240.296498 212.514382 229.543905 214.653206 219.512258 218.80845 
C 209.480612 222.963694 200.365003 229.054549 192.687113 236.732439 
C 185.009223 244.410329 178.918368 253.525938 174.763124 263.557584 
C 170.60788 273.58923 168.469056 284.341824 168.469056 295.2 
C 168.469056 306.058176 170.60788 316.81077 174.763124 326.842416 
C 178.918368 336.874062 185.009223 345.989671 192.687113 353.667561 
C 200.365003 361.345451 209.480612 367.436306 219.512258 371.59155 
C 229.543905 375.746794 240.296498 377.885618 251.154674 377.885618 
C 262.01285 377.885618 272.765444 375.746794 282.79709 371.59155 
C 292.828737 367.436306 301.944345 361.345451 309.622235 353.667561 
C 317.300125 345.989671 323.39098 336.874062 327.546224 326.842416 
C 331.701468 316.81077 333.840292 306.058176 333.840292 295.2 
" clip-path="url(#pef7c42db5b)" style="fill: none; stroke: #b0b0b0; stroke-width: 0.8; stroke-linecap: square"/>
     </g>
    </g>
    <g id="ytick_3">
     <g id="line2d_9">
      <path d="M 375.183101 295.2 
C 375.183101 278.912736 371.974865 262.783846 365.741999 247.736376 
C 359.509133 232.688906 350.37285 219.015493 338.856016 207.498658 
C 327.339181 195.981824 313.665768 186.845541 298.618298 180.612675 
C 283.570829 174.379809 267.441938 171.171573 251.154674 171.171573 
C 234.86741 171.171573 218.73852 174.379809 203.69105 180.612675 
C 188.643581 186.845541 174.970167 195.981824 163.453333 207.498658 
C 151.936498 219.015493 142.800215 232.688906 136.567349 247.736376 
C 130.334483 262.783846 127.126248 278.912736 127.126248 295.2 
C 127.126248 311.487264 130.334483 327.616154 136.567349 342.663624 
C 142.800215 357.711094 151.936498 371.384507 163.453333 382.901342 
C 174.970167 394.418176 188.643581 403.554459 203.69105 409.787325 
C 218.73852 416.020191 234.86741 419.228427 251.154674 419.228427 
C 267.441938 419.228427 283.570829 416.020191 298.618298 409.787325 
C 313.665768 403.554459 327.339181 394.418176 338.856016 382.901342 
C 350.37285 371.384507 359.509133 357.711094 365.741999 342.663624 
C 371.974865 327.616154 375.183101 311.487264 375.183101 295.2 
" clip-path="url(#pef7c42db5b)" style="fill: none; stroke: #b0b0b0; stroke-width: 0.8; stroke-linecap: square"/>
     </g>
    </g>
    <g id="ytick_4">
     <g id="line2d_10">
      <path d="M 416.52591 295.2 
C 416.52591 273.483648 412.248262 251.978461 403.937774 231.915168 
C 395.627286 211.851875 383.445576 193.620657 368.089796 178.264878 
C 352.734017 162.909098 334.502799 150.727388 314.439506 142.4169 
C 294.376213 134.106412 272.871026 129.828764 251.154674 129.828764 
C 229.438323 129.828764 207.933135 134.106412 187.869842 142.4169 
C 167.806549 150.727388 149.575332 162.909098 134.219552 178.264878 
C 118.863773 193.620657 106.682062 211.851875 98.371574 231.915168 
C 90.061086 251.978461 85.783439 273.483648 85.783439 295.2 
C 85.783439 316.916352 90.061086 338.421539 98.371574 358.484832 
C 106.682062 378.548125 118.863773 396.779343 134.219552 412.135122 
C 149.575332 427.490902 167.806549 439.672612 187.869842 447.9831 
C 207.933135 456.293588 229.438323 460.571236 251.154674 460.571236 
C 272.871026 460.571236 294.376213 456.293588 314.439506 447.9831 
C 334.502799 439.672612 352.734017 427.490902 368.089796 412.135122 
C 383.445576 396.779343 395.627286 378.548125 403.937774 358.484832 
C 412.248262 338.421539 416.52591 316.916352 416.52591 295.2 
" clip-path="url(#pef7c42db5b)" style="fill: none; stroke: #b0b0b0; stroke-width: 0.8; stroke-linecap: square"/>
     </g>
    </g>
    <g id="ytick_5">
     <g id="line2d_11">
      <path d="M 457.868719 295.2 
C 457.868719 268.05456 452.521659 241.173076 442.133549 216.09396 
C 431.745439 191.014844 416.518301 168.225822 397.323577 149.031097 
C 378.128852 129.836373 355.33983 114.609235 330.260714 104.221125 
C 305.181598 93.833015 278.300114 88.485956 251.154674 88.485956 
C 224.009235 88.485956 197.12775 93.833015 172.048634 104.221125 
C 146.969518 114.609235 124.180496 129.836373 104.985772 149.031097 
C 85.791047 168.225822 70.563909 191.014844 60.175799 216.09396 
C 49.787689 241.173076 44.44063 268.05456 44.44063 295.2 
C 44.44063 322.34544 49.787689 349.226924 60.175799 374.30604 
C 70.563909 399.385156 85.791047 422.174178 104.985772 441.368903 
C 124.180496 460.563627 146.969518 475.790765 172.048634 486.178875 
C 197.12775 496.566985 224.009235 501.914044 251.154674 501.914044 
C 278.300114 501.914044 305.181598 496.566985 330.260714 486.178875 
C 355.33983 475.790765 378.128852 460.563627 397.323577 441.368903 
C 416.518301 422.174178 431.745439 399.385156 442.133549 374.30604 
C 452.521659 349.226924 457.868719 322.34544 457.868719 295.2 
" clip-path="url(#pef7c42db5b)" style="fill: none; stroke: #b0b0b0; stroke-width: 0.8; stroke-linecap: square"/>
     </g>
    </g>
   </g>
   <g id="line2d_12">
    <path d="M 457.868719 295.2 
L 354.511696 116.180386 
L 147.797652 116.180386 
L 44.44063 295.2 
L 226.790822 337.399429 
L 287.719762 358.53259 
L 457.868719 295.2 
" clip-path="url(#pef7c42db5b)" style="fill: none; stroke: #1f77b4; stroke-width: 1.7; stroke-linecap: square"/>
   </g>
   <g id="line2d_13">
    <path d="M 394.116602 295.2 
L 277.415091 249.715623 
L 209.811865 223.592154 
L 251.154674 295.2 
L 155.826029 460.314057 
L 282.683364 349.809293 
L 394.116602 295.2 
" clip-path="url(#pef7c42db5b)" style="fill: none; stroke: #ff7f0e; stroke-width: 1.7; stroke-linecap: square"/>
   </g>
   <g id="line2d_14">
    <path d="M 251.154674 295.2 
L 251.154674 295.2 
L 248.570749 290.72451 
L 44.44063 295.2 
L 251.154674 295.2 
L 354.511696 474.219614 
L 251.154674 295.2 
" clip-path="url(#pef7c42db5b)" style="fill: none; stroke: #2ca02c; stroke-width: 1.7; stroke-linecap: square"/>
   </g>
   <g id="line2d_15">
    <path d="M 455.769984 295.2 
L 346.608905 129.868422 
L 150.381578 120.655877 
L 44.44063 295.2 
L 147.797652 474.219614 
L 251.316227 295.479817 
L 455.769984 295.2 
" clip-path="url(#pef7c42db5b)" style="fill: none; stroke: #d62728; stroke-width: 1.7; stroke-linecap: square"/>
   </g>
   <g id="line2d_16">
    <path d="M 382.094531 295.2 
L 285.750302 235.278615 
L 204.644014 214.641174 
L 44.44063 295.2 
L 147.797652 474.219614 
L 251.154674 295.2 
L 382.094531 295.2 
" clip-path="url(#pef7c42db5b)" style="fill: none; stroke: #9467bd; stroke-width: 1.7; stroke-linecap: square"/>
   </g>
   <g id="line2d_17">
    <path d="M 266.140787 295.2 
L 252.758465 292.422152 
L 251.154674 295.2 
L 44.44063 295.2 
L 147.797652 474.219614 
L 252.685576 297.8516 
L 266.140787 295.2 
" clip-path="url(#pef7c42db5b)" style="fill: none; stroke: #8c564b; stroke-width: 1.7; stroke-linecap: square"/>
   </g>
   <g id="patch_9">
    <path d="M 468.204421 295.2 
C 468.204421 266.697288 462.590008 238.47173 451.682493 212.138658 
C 440.774977 185.805586 424.786483 161.877113 404.632022 141.722652 
C 384.477561 121.568192 360.549088 105.579697 334.216016 94.672181 
C 307.882944 83.764666 279.657386 78.150253 251.154674 78.150253 
C 222.651963 78.150253 194.426404 83.764666 168.093332 94.672181 
C 141.76026 105.579697 117.831787 121.568192 97.677326 141.722652 
C 77.522866 161.877113 61.534371 185.805586 50.626856 212.138658 
C 39.71934 238.47173 34.104927 266.697288 34.104927 295.2 
C 34.104927 323.702712 39.71934 351.92827 50.626856 378.261342 
C 61.534371 404.594414 77.522866 428.522887 97.677326 448.677348 
C 117.831787 468.831808 141.76026 484.820303 168.093332 495.727819 
C 194.426404 506.635334 222.651963 512.249747 251.154674 512.249747 
C 279.657386 512.249747 307.882944 506.635334 334.216016 495.727819 
C 360.549088 484.820303 384.477561 468.831808 404.632022 448.677348 
C 424.786483 428.522887 440.774977 404.594414 451.682493 378.261342 
C 462.590008 351.92827 468.204421 323.702712 468.204421 295.2 
" style="fill: none; stroke: #000000; stroke-width: 0.8; stroke-linejoin: miter; stroke-linecap: square"/>
   </g>
   <g id="text_7">
    <!-- Normalized Model-Pair Profile -->
    <g transform="translate(163.322174 58.150253) scale(0.12 -0.12)">
     <defs>
      <path id="DejaVuSans-4e" d="M 628 4666 
L 1478 4666 
L 3547 763 
L 3547 4666 
L 4159 4666 
L 4159 0 
L 3309 0 
L 1241 3903 
L 1241 0 
L 628 0 
L 628 4666 
z
" transform="scale(0.015625)"/>
      <path id="DejaVuSans-7a" d="M 353 3500 
L 3084 3500 
L 3084 2975 
L 922 459 
L 3084 459 
L 3084 0 
L 275 0 
L 275 525 
L 2438 3041 
L 353 3041 
L 353 3500 
z
" transform="scale(0.015625)"/>
      <path id="DejaVuSans-64" d="M 2906 2969 
L 2906 4863 
L 3481 4863 
L 3481 0 
L 2906 0 
L 2906 525 
Q 2725 213 2448 61 
Q 2172 -91 1784 -91 
Q 1150 -91 751 415 
Q 353 922 353 1747 
Q 353 2572 751 3078 
Q 1150 3584 1784 3584 
Q 2172 3584 2448 3432 
Q 2725 3281 2906 2969 
z
M 947 1747 
Q 947 1113 1208 752 
Q 1469 391 1925 391 
Q 2381 391 2643 752 
Q 2906 1113 2906 1747 
Q 2906 2381 2643 2742 
Q 2381 3103 1925 3103 
Q 1469 3103 1208 2742 
Q 947 2381 947 1747 
z
" transform="scale(0.015625)"/>
      <path id="DejaVuSans-4d" d="M 628 4666 
L 1569 4666 
L 2759 1491 
L 3956 4666 
L 4897 4666 
L 4897 0 
L 4281 0 
L 4281 4097 
L 3078 897 
L 2444 897 
L 1241 4097 
L 1241 0 
L 628 0 
L 628 4666 
z
" transform="scale(0.015625)"/>
      <path id="DejaVuSans-2d" d="M 313 2009 
L 1997 2009 
L 1997 1497 
L 313 1497 
L 313 2009 
z
" transform="scale(0.015625)"/>
      <path id="DejaVuSans-50" d="M 1259 4147 
L 1259 2394 
L 2053 2394 
Q 2494 2394 2734 2622 
Q 2975 2850 2975 3272 
Q 2975 3691 2734 3919 
Q 2494 4147 2053 4147 
L 1259 4147 
z
M 628 4666 
L 2053 4666 
Q 2838 4666 3239 4311 
Q 3641 3956 3641 3272 
Q 3641 2581 3239 2228 
Q 2838 1875 2053 1875 
L 1259 1875 
L 1259 0 
L 628 0 
L 628 4666 
z
" transform="scale(0.015625)"/>
     </defs>
     <use xlink:href="#DejaVuSans-4e"/>
     <use xlink:href="#DejaVuSans-6f" transform="translate(74.804688 0)"/>
     <use xlink:href="#DejaVuSans-72" transform="translate(135.986328 0)"/>
     <use xlink:href="#DejaVuSans-6d" transform="translate(175.349609 0)"/>
     <use xlink:href="#DejaVuSans-61" transform="translate(272.761719 0)"/>
     <use xlink:href="#DejaVuSans-6c" transform="translate(334.041016 0)"/>
     <use xlink:href="#DejaVuSans-69" transform="translate(361.824219 0)"/>
     <use xlink:href="#DejaVuSans-7a" transform="translate(389.607422 0)"/>
     <use xlink:href="#DejaVuSans-65" transform="translate(442.097656 0)"/>
     <use xlink:href="#DejaVuSans-64" transform="translate(503.621094 0)"/>
     <use xlink:href="#DejaVuSans-20" transform="translate(567.097656 0)"/>
     <use xlink:href="#DejaVuSans-4d" transform="translate(598.884766 0)"/>
     <use xlink:href="#DejaVuSans-6f" transform="translate(685.164062 0)"/>
     <use xlink:href="#DejaVuSans-64" transform="translate(746.345703 0)"/>
     <use xlink:href="#DejaVuSans-65" transform="translate(809.822266 0)"/>
     <use xlink:href="#DejaVuSans-6c" transform="translate(871.345703 0)"/>
     <use xlink:href="#DejaVuSans-2d" transform="translate(899.128906 0)"/>
     <use xlink:href="#DejaVuSans-50" transform="translate(935.212891 0)"/>
     <use xlink:href="#DejaVuSans-61" transform="translate(991.015625 0)"/>
     <use xlink:href="#DejaVuSans-69" transform="translate(1052.294922 0)"/>
     <use xlink:href="#DejaVuSans-72" transform="translate(1080.078125 0)"/>
     <use xlink:href="#DejaVuSans-20" transform="translate(1121.191406 0)"/>
     <use xlink:href="#DejaVuSans-50" transform="translate(1152.978516 0)"/>
     <use xlink:href="#DejaVuSans-72" transform="translate(1211.53125 0)"/>
     <use xlink:href="#DejaVuSans-6f" transform="translate(1250.394531 0)"/>
     <use xlink:href="#DejaVuSans-66" transform="translate(1311.576172 0)"/>
     <use xlink:href="#DejaVuSans-69" transform="translate(1346.78125 0)"/>
     <use xlink:href="#DejaVuSans-6c" transform="translate(1374.564453 0)"/>
     <use xlink:href="#DejaVuSans-65" transform="translate(1402.347656 0)"/>
    </g>
   </g>
   <g id="legend_1">
    <g id="patch_10">
     <path d="M 482.832994 130.809054 
L 613.139244 130.809054 
Q 615.139244 130.809054 615.139244 128.809054 
L 615.139244 41.740304 
Q 615.139244 39.740304 613.139244 39.740304 
L 482.832994 39.740304 
Q 480.832994 39.740304 480.832994 41.740304 
L 480.832994 128.809054 
Q 480.832994 130.809054 482.832994 130.809054 
z
" style="fill: #ffffff; opacity: 0.8; stroke: #cccccc; stroke-linejoin: miter"/>
    </g>
    <g id="line2d_18">
     <path d="M 484.832994 47.838741 
L 494.832994 47.838741 
L 504.832994 47.838741 
" style="fill: none; stroke: #1f77b4; stroke-width: 1.7; stroke-linecap: square"/>
    </g>
    <g id="text_8">
     <!-- Claude/Claude -->
     <g transform="translate(512.832994 51.338741) scale(0.1 -0.1)">
      <defs>
       <path id="DejaVuSans-43" d="M 4122 4306 
L 4122 3641 
Q 3803 3938 3442 4084 
Q 3081 4231 2675 4231 
Q 1875 4231 1450 3742 
Q 1025 3253 1025 2328 
Q 1025 1406 1450 917 
Q 1875 428 2675 428 
Q 3081 428 3442 575 
Q 3803 722 4122 1019 
L 4122 359 
Q 3791 134 3420 21 
Q 3050 -91 2638 -91 
Q 1578 -91 968 557 
Q 359 1206 359 2328 
Q 359 3453 968 4101 
Q 1578 4750 2638 4750 
Q 3056 4750 3426 4639 
Q 3797 4528 4122 4306 
z
" transform="scale(0.015625)"/>
       <path id="DejaVuSans-2f" d="M 1625 4666 
L 2156 4666 
L 531 -594 
L 0 -594 
L 1625 4666 
z
" transform="scale(0.015625)"/>
      </defs>
      <use xlink:href="#DejaVuSans-43"/>
      <use xlink:href="#DejaVuSans-6c" transform="translate(69.824219 0)"/>
      <use xlink:href="#DejaVuSans-61" transform="translate(97.607422 0)"/>
      <use xlink:href="#DejaVuSans-75" transform="translate(158.886719 0)"/>
      <use xlink:href="#DejaVuSans-64" transform="translate(222.265625 0)"/>
      <use xlink:href="#DejaVuSans-65" transform="translate(285.742188 0)"/>
      <use xlink:href="#DejaVuSans-2f" transform="translate(347.265625 0)"/>
      <use xlink:href="#DejaVuSans-43" transform="translate(380.957031 0)"/>
      <use xlink:href="#DejaVuSans-6c" transform="translate(450.78125 0)"/>
      <use xlink:href="#DejaVuSans-61" transform="translate(478.564453 0)"/>
      <use xlink:href="#DejaVuSans-75" transform="translate(539.84375 0)"/>
      <use xlink:href="#DejaVuSans-64" transform="translate(603.222656 0)"/>
      <use xlink:href="#DejaVuSans-65" transform="translate(666.699219 0)"/>
     </g>
    </g>
    <g id="line2d_19">
     <path d="M 484.832994 62.516866 
L 494.832994 62.516866 
L 504.832994 62.516866 
" style="fill: none; stroke: #ff7f0e; stroke-width: 1.7; stroke-linecap: square"/>
    </g>
    <g id="text_9">
     <!-- Claude/GPT-4o -->
     <g transform="translate(512.832994 66.016866) scale(0.1 -0.1)">
      <defs>
       <path id="DejaVuSans-47" d="M 3809 666 
L 3809 1919 
L 2778 1919 
L 2778 2438 
L 4434 2438 
L 4434 434 
Q 4069 175 3628 42 
Q 3188 -91 2688 -91 
Q 1594 -91 976 548 
Q 359 1188 359 2328 
Q 359 3472 976 4111 
Q 1594 4750 2688 4750 
Q 3144 4750 3555 4637 
Q 3966 4525 4313 4306 
L 4313 3634 
Q 3963 3931 3569 4081 
Q 3175 4231 2741 4231 
Q 1884 4231 1454 3753 
Q 1025 3275 1025 2328 
Q 1025 1384 1454 906 
Q 1884 428 2741 428 
Q 3075 428 3337 486 
Q 3600 544 3809 666 
z
" transform="scale(0.015625)"/>
       <path id="DejaVuSans-54" d="M -19 4666 
L 3928 4666 
L 3928 4134 
L 2272 4134 
L 2272 0 
L 1638 0 
L 1638 4134 
L -19 4134 
L -19 4666 
z
" transform="scale(0.015625)"/>
       <path id="DejaVuSans-34" d="M 2419 4116 
L 825 1625 
L 2419 1625 
L 2419 4116 
z
M 2253 4666 
L 3047 4666 
L 3047 1625 
L 3713 1625 
L 3713 1100 
L 3047 1100 
L 3047 0 
L 2419 0 
L 2419 1100 
L 313 1100 
L 313 1709 
L 2253 4666 
z
" transform="scale(0.015625)"/>
      </defs>
      <use xlink:href="#DejaVuSans-43"/>
      <use xlink:href="#DejaVuSans-6c" transform="translate(69.824219 0)"/>
      <use xlink:href="#DejaVuSans-61" transform="translate(97.607422 0)"/>
      <use xlink:href="#DejaVuSans-75" transform="translate(158.886719 0)"/>
      <use xlink:href="#DejaVuSans-64" transform="translate(222.265625 0)"/>
      <use xlink:href="#DejaVuSans-65" transform="translate(285.742188 0)"/>
      <use xlink:href="#DejaVuSans-2f" transform="translate(347.265625 0)"/>
      <use xlink:href="#DejaVuSans-47" transform="translate(380.957031 0)"/>
      <use xlink:href="#DejaVuSans-50" transform="translate(458.447266 0)"/>
      <use xlink:href="#DejaVuSans-54" transform="translate(518.75 0)"/>
      <use xlink:href="#DejaVuSans-2d" transform="translate(570.708984 0)"/>
      <use xlink:href="#DejaVuSans-34" transform="translate(606.792969 0)"/>
      <use xlink:href="#DejaVuSans-6f" transform="translate(670.416016 0)"/>
     </g>
    </g>
    <g id="line2d_20">
     <path d="M 484.832994 77.194991 
L 494.832994 77.194991 
L 504.832994 77.194991 
" style="fill: none; stroke: #2ca02c; stroke-width: 1.7; stroke-linecap: square"/>
    </g>
    <g id="text_10">
     <!-- Claude/GPT-4o mini -->
     <g transform="translate(512.832994 80.694991) scale(0.1 -0.1)">
      <defs>
       <path id="DejaVuSans-6e" d="M 3513 2113 
L 3513 0 
L 2938 0 
L 2938 2094 
Q 2938 2591 2744 2837 
Q 2550 3084 2163 3084 
Q 1697 3084 1428 2787 
Q 1159 2491 1159 1978 
L 1159 0 
L 581 0 
L 581 3500 
L 1159 3500 
L 1159 2956 
Q 1366 3272 1645 3428 
Q 1925 3584 2291 3584 
Q 2894 3584 3203 3211 
Q 3513 2838 3513 2113 
z
" transform="scale(0.015625)"/>
      </defs>
      <use xlink:href="#DejaVuSans-43"/>
      <use xlink:href="#DejaVuSans-6c" transform="translate(69.824219 0)"/>
      <use xlink:href="#DejaVuSans-61" transform="translate(97.607422 0)"/>
      <use xlink:href="#DejaVuSans-75" transform="translate(158.886719 0)"/>
      <use xlink:href="#DejaVuSans-64" transform="translate(222.265625 0)"/>
      <use xlink:href="#DejaVuSans-65" transform="translate(285.742188 0)"/>
      <use xlink:href="#DejaVuSans-2f" transform="translate(347.265625 0)"/>
      <use xlink:href="#DejaVuSans-47" transform="translate(380.957031 0)"/>
      <use xlink:href="#DejaVuSans-50" transform="translate(458.447266 0)"/>
      <use xlink:href="#DejaVuSans-54" transform="translate(518.75 0)"/>
      <use xlink:href="#DejaVuSans-2d" transform="translate(570.708984 0)"/>
      <use xlink:href="#DejaVuSans-34" transform="translate(606.792969 0)"/>
      <use xlink:href="#DejaVuSans-6f" transform="translate(670.416016 0)"/>
      <use xlink:href="#DejaVuSans-20" transform="translate(731.597656 0)"/>
      <use xlink:href="#DejaVuSans-6d" transform="translate(763.384766 0)"/>
      <use xlink:href="#DejaVuSans-69" transform="translate(860.796875 0)"/>
      <use xlink:href="#DejaVuSans-6e" transform="translate(888.580078 0)"/>
      <use xlink:href="#DejaVuSans-69" transform="translate(951.958984 0)"/>
     </g>
    </g>
    <g id="line2d_21">
     <path d="M 484.832994 91.873116 
L 494.832994 91.873116 
L 504.832994 91.873116 
" style="fill: none; stroke: #d62728; stroke-width: 1.7; stroke-linecap: square"/>
    </g>
    <g id="text_11">
     <!-- GPT-4o/Claude -->
     <g transform="translate(512.832994 95.373116) scale(0.1 -0.1)">
      <use xlink:href="#DejaVuSans-47"/>
      <use xlink:href="#DejaVuSans-50" transform="translate(77.490234 0)"/>
      <use xlink:href="#DejaVuSans-54" transform="translate(137.792969 0)"/>
      <use xlink:href="#DejaVuSans-2d" transform="translate(189.751953 0)"/>
      <use xlink:href="#DejaVuSans-34" transform="translate(225.835938 0)"/>
      <use xlink:href="#DejaVuSans-6f" transform="translate(289.458984 0)"/>
      <use xlink:href="#DejaVuSans-2f" transform="translate(350.640625 0)"/>
      <use xlink:href="#DejaVuSans-43" transform="translate(384.332031 0)"/>
      <use xlink:href="#DejaVuSans-6c" transform="translate(454.15625 0)"/>
      <use xlink:href="#DejaVuSans-61" transform="translate(481.939453 0)"/>
      <use xlink:href="#DejaVuSans-75" transform="translate(543.21875 0)"/>
      <use xlink:href="#DejaVuSans-64" transform="translate(606.597656 0)"/>
      <use xlink:href="#DejaVuSans-65" transform="translate(670.074219 0)"/>
     </g>
    </g>
    <g id="line2d_22">
     <path d="M 484.832994 106.551241 
L 494.832994 106.551241 
L 504.832994 106.551241 
" style="fill: none; stroke: #9467bd; stroke-width: 1.7; stroke-linecap: square"/>
    </g>
    <g id="text_12">
     <!-- GPT-4o/GPT-4o -->
     <g transform="translate(512.832994 110.051241) scale(0.1 -0.1)">
      <use xlink:href="#DejaVuSans-47"/>
      <use xlink:href="#DejaVuSans-50" transform="translate(77.490234 0)"/>
      <use xlink:href="#DejaVuSans-54" transform="translate(137.792969 0)"/>
      <use xlink:href="#DejaVuSans-2d" transform="translate(189.751953 0)"/>
      <use xlink:href="#DejaVuSans-34" transform="translate(225.835938 0)"/>
      <use xlink:href="#DejaVuSans-6f" transform="translate(289.458984 0)"/>
      <use xlink:href="#DejaVuSans-2f" transform="translate(350.640625 0)"/>
      <use xlink:href="#DejaVuSans-47" transform="translate(384.332031 0)"/>
      <use xlink:href="#DejaVuSans-50" transform="translate(461.822266 0)"/>
      <use xlink:href="#DejaVuSans-54" transform="translate(522.125 0)"/>
      <use xlink:href="#DejaVuSans-2d" transform="translate(574.083984 0)"/>
      <use xlink:href="#DejaVuSans-34" transform="translate(610.167969 0)"/>
      <use xlink:href="#DejaVuSans-6f" transform="translate(673.791016 0)"/>
     </g>
    </g>
    <g id="line2d_23">
     <path d="M 484.832994 121.229366 
L 494.832994 121.229366 
L 504.832994 121.229366 
" style="fill: none; stroke: #8c564b; stroke-width: 1.7; stroke-linecap: square"/>
    </g>
    <g id="text_13">
     <!-- GPT-4o/GPT-4o mini -->
     <g transform="translate(512.832994 124.729366) scale(0.1 -0.1)">
      <use xlink:href="#DejaVuSans-47"/>
      <use xlink:href="#DejaVuSans-50" transform="translate(77.490234 0)"/>
      <use xlink:href="#DejaVuSans-54" transform="translate(137.792969 0)"/>
      <use xlink:href="#DejaVuSans-2d" transform="translate(189.751953 0)"/>
      <use xlink:href="#DejaVuSans-34" transform="translate(225.835938 0)"/>
      <use xlink:href="#DejaVuSans-6f" transform="translate(289.458984 0)"/>
      <use xlink:href="#DejaVuSans-2f" transform="translate(350.640625 0)"/>
      <use xlink:href="#DejaVuSans-47" transform="translate(384.332031 0)"/>
      <use xlink:href="#DejaVuSans-50" transform="translate(461.822266 0)"/>
      <use xlink:href="#DejaVuSans-54" transform="translate(522.125 0)"/>
      <use xlink:href="#DejaVuSans-2d" transform="translate(574.083984 0)"/>
      <use xlink:href="#DejaVuSans-34" transform="translate(610.167969 0)"/>
      <use xlink:href="#DejaVuSans-6f" transform="translate(673.791016 0)"/>
      <use xlink:href="#DejaVuSans-20" transform="translate(734.972656 0)"/>
      <use xlink:href="#DejaVuSans-6d" transform="translate(766.759766 0)"/>
      <use xlink:href="#DejaVuSans-69" transform="translate(864.171875 0)"/>
      <use xlink:href="#DejaVuSans-6e" transform="translate(891.955078 0)"/>
      <use xlink:href="#DejaVuSans-69" transform="translate(955.333984 0)"/>
     </g>
    </g>
   </g>
  </g>
 </g>
 <defs>
  <clipPath id="pef7c42db5b">
   <path d="M 468.204421 295.2 
C 468.204421 266.697288 462.590008 238.47173 451.682493 212.138658 
C 440.774977 185.805586 424.786483 161.877113 404.632022 141.722652 
C 384.477561 121.568192 360.549088 105.579697 334.216016 94.672181 
C 307.882944 83.764666 279.657386 78.150253 251.154674 78.150253 
C 222.651963 78.150253 194.426404 83.764666 168.093332 94.672181 
C 141.76026 105.579697 117.831787 121.568192 97.677326 141.722652 
C 77.522866 161.877113 61.534371 185.805586 50.626856 212.138658 
C 39.71934 238.47173 34.104927 266.697288 34.104927 295.2 
C 34.104927 323.702712 39.71934 351.92827 50.626856 378.261342 
C 61.534371 404.594414 77.522866 428.522887 97.677326 448.677348 
C 117.831787 468.831808 141.76026 484.820303 168.093332 495.727819 
C 194.426404 506.635334 222.651963 512.249747 251.154674 512.249747 
C 279.657386 512.249747 307.882944 506.635334 334.216016 495.727819 
C 360.549088 484.820303 384.477561 468.831808 404.632022 448.677348 
C 424.786483 428.522887 440.774977 404.594414 451.682493 378.261342 
C 462.590008 351.92827 468.204421 323.702712 468.204421 295.2 
M 251.154674 295.2 
C 251.154674 295.2 251.154674 295.2 251.154674 295.2 
C 251.154674 295.2 251.154674 295.2 251.154674 295.2 
C 251.154674 295.2 251.154674 295.2 251.154674 295.2 
C 251.154674 295.2 251.154674 295.2 251.154674 295.2 
C 251.154674 295.2 251.154674 295.2 251.154674 295.2 
C 251.154674 295.2 251.154674 295.2 251.154674 295.2 
C 251.154674 295.2 251.154674 295.2 251.154674 295.2 
C 251.154674 295.2 251.154674 295.2 251.154674 295.2 
C 251.154674 295.2 251.154674 295.2 251.154674 295.2 
C 251.154674 295.2 251.154674 295.2 251.154674 295.2 
C 251.154674 295.2 251.154674 295.2 251.154674 295.2 
C 251.154674 295.2 251.154674 295.2 251.154674 295.2 
C 251.154674 295.2 251.154674 295.2 251.154674 295.2 
C 251.154674 295.2 251.154674 295.2 251.154674 295.2 
C 251.154674 295.2 251.154674 295.2 251.154674 295.2 
C 251.154674 295.2 251.154674 295.2 251.154674 295.2 
z
"/>
  </clipPath>
 </defs>
</svg>
