<svg xmlns="http://www.w3.org/2000/svg" width="840" height="370" viewBox="0 0 840 370">
<rect width="840" height="370" fill="#F8FAFC"/>
<text x="420.0" y="22" text-anchor="middle" font-family="Arial,Helvetica,sans-serif" font-size="12" font-weight="bold" fill="#1E293B">Design a flow process for a Rose Bengal-catalyzed singlet ox</text>
<rect x="18" y="38" width="160" height="52" rx="8" fill="#00000018" stroke="none" stroke-width="1.5" fill-opacity="1.0"/><rect x="15" y="35" width="160" height="52" rx="8" fill="white" stroke="#3B82F6" stroke-width="1.5" fill-opacity="1.0"/><rect x="15" y="35" width="160" height="28" rx="8" fill="#3B82F6" stroke="none" stroke-width="1.5" fill-opacity="0.15"/><rect x="15" y="43" width="160" height="20" rx="0" fill="#3B82F6" stroke="none" stroke-width="1.5" fill-opacity="0.15"/><text x="95.0" y="53" text-anchor="middle" font-family="Arial,Helvetica,sans-serif" font-size="10" font-weight="bold" fill="#3B82F6">Pump A — Reagent Stream 1</text><text x="95.0" y="75" text-anchor="middle" font-family="Arial,Helvetica,sans-serif" font-size="8" font-weight="normal" fill="#475569">0.075 mL/min</text>
<rect x="18" y="178" width="160" height="52" rx="8" fill="#00000018" stroke="none" stroke-width="1.5" fill-opacity="1.0"/><rect x="15" y="175" width="160" height="52" rx="8" fill="white" stroke="#3B82F6" stroke-width="1.5" fill-opacity="1.0"/><rect x="15" y="175" width="160" height="28" rx="8" fill="#3B82F6" stroke="none" stroke-width="1.5" fill-opacity="0.15"/><rect x="15" y="183" width="160" height="20" rx="0" fill="#3B82F6" stroke="none" stroke-width="1.5" fill-opacity="0.15"/><text x="95.0" y="193" text-anchor="middle" font-family="Arial,Helvetica,sans-serif" font-size="10" font-weight="bold" fill="#3B82F6">Pump B — Reagent Stream 2</text><text x="95.0" y="215" text-anchor="middle" font-family="Arial,Helvetica,sans-serif" font-size="8" font-weight="normal" fill="#475569">0.075 mL/min</text>
<rect x="218" y="108" width="160" height="52" rx="8" fill="#00000018" stroke="none" stroke-width="1.5" fill-opacity="1.0"/><rect x="215" y="105" width="160" height="52" rx="8" fill="white" stroke="#8B5CF6" stroke-width="1.5" fill-opacity="1.0"/><rect x="215" y="105" width="160" height="28" rx="8" fill="#8B5CF6" stroke="none" stroke-width="1.5" fill-opacity="0.15"/><rect x="215" y="113" width="160" height="20" rx="0" fill="#8B5CF6" stroke="none" stroke-width="1.5" fill-opacity="0.15"/><text x="295.0" y="123" text-anchor="middle" font-family="Arial,Helvetica,sans-serif" font-size="10" font-weight="bold" fill="#8B5CF6">T-Mixer</text><text x="295.0" y="145" text-anchor="middle" font-family="Arial,Helvetica,sans-serif" font-size="8" font-weight="normal" fill="#475569">T-mixer | PEEK</text>
<rect x="418" y="108" width="160" height="94" rx="8" fill="#00000018" stroke="none" stroke-width="1.5" fill-opacity="1.0"/><rect x="415" y="105" width="160" height="94" rx="8" fill="white" stroke="#F59E0B" stroke-width="1.5" fill-opacity="1.0"/><rect x="415" y="105" width="160" height="28" rx="8" fill="#F59E0B" stroke="none" stroke-width="1.5" fill-opacity="0.15"/><rect x="415" y="113" width="160" height="20" rx="0" fill="#F59E0B" stroke="none" stroke-width="1.5" fill-opacity="0.15"/><text x="495.0" y="123" text-anchor="middle" font-family="Arial,Helvetica,sans-serif" font-size="10" font-weight="bold" fill="#F59E0B">FEP Photoreactor Coil</text><text x="495.0" y="132" text-anchor="middle" font-family="Arial,Helvetica,sans-serif" font-size="8" font-weight="normal" fill="#475569">FEP</text><text x="495.0" y="145" text-anchor="middle" font-family="Arial,Helvetica,sans-serif" font-size="8" font-weight="normal" fill="#475569">1.0 mm ID  |  1.5 mL</text><text x="495.0" y="159" text-anchor="middle" font-family="Arial,Helvetica,sans-serif" font-size="8" font-weight="normal" fill="#475569">Length: 1.91 m</text><text x="495.0" y="173" text-anchor="middle" font-family="Arial,Helvetica,sans-serif" font-size="8" font-weight="normal" fill="#475569">T = 12.5 °C</text><text x="495.0" y="187" text-anchor="middle" font-family="Arial,Helvetica,sans-serif" font-size="8" font-weight="normal" fill="#475569">λ = 530.0 nm</text>
<line x1="375" y1="152" x2="409" y2="152" stroke="#64748B" stroke-width="1.5"/><polygon points="409,148 415,152 409,156" fill="#64748B"/>
<rect x="618" y="108" width="160" height="52" rx="8" fill="#00000018" stroke="none" stroke-width="1.5" fill-opacity="1.0"/><rect x="615" y="105" width="160" height="52" rx="8" fill="white" stroke="#22C55E" stroke-width="1.5" fill-opacity="1.0"/><rect x="615" y="105" width="160" height="28" rx="8" fill="#22C55E" stroke="none" stroke-width="1.5" fill-opacity="0.15"/><rect x="615" y="113" width="160" height="20" rx="0" fill="#22C55E" stroke="none" stroke-width="1.5" fill-opacity="0.15"/><text x="695.0" y="123" text-anchor="middle" font-family="Arial,Helvetica,sans-serif" font-size="10" font-weight="bold" fill="#22C55E">Product Collection</text><text x="695.0" y="145" text-anchor="middle" font-family="Arial,Helvetica,sans-serif" font-size="8" font-weight="normal" fill="#475569">Product out</text>
<line x1="575" y1="131" x2="609" y2="131" stroke="#64748B" stroke-width="1.5"/><polygon points="609,127 615,131 609,135" fill="#64748B"/>
<line x1="175" y1="61" x2="215" y2="160" stroke="#64748B" stroke-width="1.5" stroke-dasharray="4,2"/><polygon points="210,157 215,160 210,163" fill="#64748B"/>
<line x1="175" y1="201" x2="215" y2="160" stroke="#64748B" stroke-width="1.5" stroke-dasharray="4,2"/><polygon points="210,157 215,160 210,163" fill="#64748B"/>
<rect x="453" y="38" width="90" height="66" rx="8" fill="#00000018" stroke="none" stroke-width="1.5" fill-opacity="1.0"/><rect x="450" y="35" width="90" height="66" rx="8" fill="white" stroke="#FCD34D" stroke-width="1.5" fill-opacity="1.0"/><rect x="450" y="35" width="90" height="28" rx="8" fill="#FCD34D" stroke="none" stroke-width="1.5" fill-opacity="0.15"/><rect x="450" y="43" width="90" height="20" rx="0" fill="#FCD34D" stroke="none" stroke-width="1.5" fill-opacity="0.15"/><text x="495.0" y="53" text-anchor="middle" font-family="Arial,Helvetica,sans-serif" font-size="10" font-weight="bold" fill="#FCD34D">LED</text><text x="495.0" y="75" text-anchor="middle" font-family="Arial,Helvetica,sans-serif" font-size="8" font-weight="normal" fill="#475569">λ = 530.0 nm</text><text x="495.0" y="89" text-anchor="middle" font-family="Arial,Helvetica,sans-serif" font-size="8" font-weight="normal" fill="#475569">10 W</text>
<line x1="495" y1="101" x2="495" y2="105" stroke="#FCD34D" stroke-width="1.5" stroke-dasharray="4,3"/>
<text x="495" y="111" text-anchor="middle" font-family="Arial,Helvetica,sans-serif" font-size="11" font-weight="bold" fill="#FCD34D">hν</text>
<text x="420.0" y="352" text-anchor="middle" font-family="Arial,Helvetica,sans-serif" font-size="9" font-weight="normal" fill="#475569">τ = 10.0 min  |  Q = 0.15 mL/min  |  V = 1.5 mL</text>
</svg>