<svg xmlns="http://www.w3.org/2000/svg" width="1440" height="370" viewBox="0 0 1440 370">
<rect width="1440" height="370" fill="#F8FAFC"/>
<text x="720.0" y="22" text-anchor="middle" font-family="Arial,Helvetica,sans-serif" font-size="12" font-weight="bold" fill="#1E293B">Ir-photocatalyzed S-alkylation</text>
<rect x="18" y="38" width="160" height="94" rx="8" fill="#00000018" stroke="none" stroke-width="1.5" fill-opacity="1.0"/><rect x="15" y="35" width="160" height="94" rx="8" fill="white" stroke="#3B82F6" stroke-width="1.5" fill-opacity="1.0"/><rect x="15" y="35" width="160" height="28" rx="8" fill="#3B82F6" stroke="none" stroke-width="1.5" fill-opacity="0.15"/><rect x="15" y="43" width="160" height="20" rx="0" fill="#3B82F6" stroke="none" stroke-width="1.5" fill-opacity="0.15"/><text x="95.0" y="53" text-anchor="middle" font-family="Arial,Helvetica,sans-serif" font-size="10" font-weight="bold" fill="#3B82F6">Pump A — substrate + photocatalyst</text><text x="23" y="75" text-anchor="start" font-family="Arial,Helvetica,sans-serif" font-size="9" font-weight="normal" fill="#1E293B">• sulfenamide (0.1M)</text><text x="23" y="89" text-anchor="start" font-family="Arial,Helvetica,sans-serif" font-size="9" font-weight="normal" fill="#1E293B">• Ir(ppy)3 (1 mol%)</text><text x="95.0" y="103" text-anchor="middle" font-family="Arial,Helvetica,sans-serif" font-size="8" font-weight="normal" fill="#475569">in MeCN</text><text x="95.0" y="117" text-anchor="middle" font-family="Arial,Helvetica,sans-serif" font-size="8" font-weight="normal" fill="#475569">0.25 mL/min</text>
<rect x="18" y="178" width="160" height="108" rx="8" fill="#00000018" stroke="none" stroke-width="1.5" fill-opacity="1.0"/><rect x="15" y="175" width="160" height="108" rx="8" fill="white" stroke="#3B82F6" stroke-width="1.5" fill-opacity="1.0"/><rect x="15" y="175" width="160" height="28" rx="8" fill="#3B82F6" stroke="none" stroke-width="1.5" fill-opacity="0.15"/><rect x="15" y="183" width="160" height="20" rx="0" fill="#3B82F6" stroke="none" stroke-width="1.5" fill-opacity="0.15"/><text x="95.0" y="193" text-anchor="middle" font-family="Arial,Helvetica,sans-serif" font-size="10" font-weight="bold" fill="#3B82F6">Pump B — alkylating agent</text><text x="23" y="215" text-anchor="start" font-family="Arial,Helvetica,sans-serif" font-size="9" font-weight="normal" fill="#1E293B">• benzyl bromide (1.2 equiv)</text><text x="23" y="229" text-anchor="start" font-family="Arial,Helvetica,sans-serif" font-size="9" font-weight="normal" fill="#1E293B">• K2CO3 (1.5 equiv)</text><text x="95.0" y="243" text-anchor="middle" font-family="Arial,Helvetica,sans-serif" font-size="8" font-weight="normal" fill="#475569">in MeCN</text><text x="95.0" y="257" text-anchor="middle" font-family="Arial,Helvetica,sans-serif" font-size="8" font-weight="normal" fill="#475569">0.25 mL/min</text><text x="95.0" y="271" text-anchor="middle" font-family="Arial,Helvetica,sans-serif" font-size="8" font-weight="normal" fill="#475569">0.12 M</text>
<rect x="218" y="108" width="160" height="52" rx="8" fill="#00000018" stroke="none" stroke-width="1.5" fill-opacity="1.0"/><rect x="215" y="105" width="160" height="52" rx="8" fill="white" stroke="#8B5CF6" stroke-width="1.5" fill-opacity="1.0"/><rect x="215" y="105" width="160" height="28" rx="8" fill="#8B5CF6" stroke="none" stroke-width="1.5" fill-opacity="0.15"/><rect x="215" y="113" width="160" height="20" rx="0" fill="#8B5CF6" stroke="none" stroke-width="1.5" fill-opacity="0.15"/><text x="295.0" y="123" text-anchor="middle" font-family="Arial,Helvetica,sans-serif" font-size="10" font-weight="bold" fill="#8B5CF6">T-mixer</text><text x="295.0" y="145" text-anchor="middle" font-family="Arial,Helvetica,sans-serif" font-size="8" font-weight="normal" fill="#475569">T-mixer | PEEK</text>
<rect x="418" y="108" width="160" height="66" rx="8" fill="#00000018" stroke="none" stroke-width="1.5" fill-opacity="1.0"/><rect x="415" y="105" width="160" height="66" rx="8" fill="white" stroke="#10B981" stroke-width="1.5" fill-opacity="1.0"/><rect x="415" y="105" width="160" height="28" rx="8" fill="#10B981" stroke="none" stroke-width="1.5" fill-opacity="0.15"/><rect x="415" y="113" width="160" height="20" rx="0" fill="#10B981" stroke="none" stroke-width="1.5" fill-opacity="0.15"/><text x="495.0" y="123" text-anchor="middle" font-family="Arial,Helvetica,sans-serif" font-size="10" font-weight="bold" fill="#10B981">Inline Deoxygenation</text><text x="495.0" y="145" text-anchor="middle" font-family="Arial,Helvetica,sans-serif" font-size="8" font-weight="normal" fill="#475569">N2 sparging</text><text x="495.0" y="159" text-anchor="middle" font-family="Arial,Helvetica,sans-serif" font-size="8" font-weight="normal" fill="#475569">O2 scavenging</text>
<line x1="375" y1="138" x2="409" y2="138" stroke="#64748B" stroke-width="1.5"/><polygon points="409,134 415,138 409,142" fill="#64748B"/>
<rect x="618" y="108" width="160" height="94" rx="8" fill="#00000018" stroke="none" stroke-width="1.5" fill-opacity="1.0"/><rect x="615" y="105" width="160" height="94" rx="8" fill="white" stroke="#F59E0B" stroke-width="1.5" fill-opacity="1.0"/><rect x="615" y="105" width="160" height="28" rx="8" fill="#F59E0B" stroke="none" stroke-width="1.5" fill-opacity="0.15"/><rect x="615" y="113" width="160" height="20" rx="0" fill="#F59E0B" stroke="none" stroke-width="1.5" fill-opacity="0.15"/><text x="695.0" y="123" text-anchor="middle" font-family="Arial,Helvetica,sans-serif" font-size="10" font-weight="bold" fill="#F59E0B">FEP Photoreactor Coil</text><text x="695.0" y="132" text-anchor="middle" font-family="Arial,Helvetica,sans-serif" font-size="8" font-weight="normal" fill="#475569">FEP</text><text x="695.0" y="145" text-anchor="middle" font-family="Arial,Helvetica,sans-serif" font-size="8" font-weight="normal" fill="#475569">1.0 mm ID  |  5.0 mL</text><text x="695.0" y="159" text-anchor="middle" font-family="Arial,Helvetica,sans-serif" font-size="8" font-weight="normal" fill="#475569">Length: 6.37 m</text><text x="695.0" y="173" text-anchor="middle" font-family="Arial,Helvetica,sans-serif" font-size="8" font-weight="normal" fill="#475569">T = 25.0 °C</text><text x="695.0" y="187" text-anchor="middle" font-family="Arial,Helvetica,sans-serif" font-size="8" font-weight="normal" fill="#475569">λ = 450.0 nm</text>
<line x1="575" y1="152" x2="609" y2="152" stroke="#64748B" stroke-width="1.5"/><polygon points="609,148 615,152 609,156" fill="#64748B"/>
<rect x="818" y="108" width="160" height="52" rx="8" fill="#00000018" stroke="none" stroke-width="1.5" fill-opacity="1.0"/><rect x="815" y="105" width="160" height="52" rx="8" fill="white" stroke="#EF4444" stroke-width="1.5" fill-opacity="1.0"/><rect x="815" y="105" width="160" height="28" rx="8" fill="#EF4444" stroke="none" stroke-width="1.5" fill-opacity="0.15"/><rect x="815" y="113" width="160" height="20" rx="0" fill="#EF4444" stroke="none" stroke-width="1.5" fill-opacity="0.15"/><text x="895.0" y="123" text-anchor="middle" font-family="Arial,Helvetica,sans-serif" font-size="10" font-weight="bold" fill="#EF4444">Back-Pressure Regulator</text><text x="895.0" y="145" text-anchor="middle" font-family="Arial,Helvetica,sans-serif" font-size="8" font-weight="normal" fill="#475569">5.0 bar</text>
<line x1="775" y1="131" x2="809" y2="131" stroke="#64748B" stroke-width="1.5"/><polygon points="809,127 815,131 809,135" fill="#64748B"/>
<rect x="1018" y="108" width="160" height="52" rx="8" fill="#00000018" stroke="none" stroke-width="1.5" fill-opacity="1.0"/><rect x="1015" y="105" width="160" height="52" rx="8" fill="white" stroke="#8B5CF6" stroke-width="1.5" fill-opacity="1.0"/><rect x="1015" y="105" width="160" height="28" rx="8" fill="#8B5CF6" stroke="none" stroke-width="1.5" fill-opacity="0.15"/><rect x="1015" y="113" width="160" height="20" rx="0" fill="#8B5CF6" stroke="none" stroke-width="1.5" fill-opacity="0.15"/><text x="1095.0" y="123" text-anchor="middle" font-family="Arial,Helvetica,sans-serif" font-size="10" font-weight="bold" fill="#8B5CF6">Inline Quench</text><text x="1095.0" y="145" text-anchor="middle" font-family="Arial,Helvetica,sans-serif" font-size="8" font-weight="normal" fill="#475569">T-mixer | PEEK</text>
<line x1="975" y1="131" x2="1009" y2="131" stroke="#64748B" stroke-width="1.5"/><polygon points="1009,127 1015,131 1009,135" fill="#64748B"/>
<rect x="1218" y="108" width="160" height="52" rx="8" fill="#00000018" stroke="none" stroke-width="1.5" fill-opacity="1.0"/><rect x="1215" y="105" width="160" height="52" rx="8" fill="white" stroke="#22C55E" stroke-width="1.5" fill-opacity="1.0"/><rect x="1215" y="105" width="160" height="28" rx="8" fill="#22C55E" stroke="none" stroke-width="1.5" fill-opacity="0.15"/><rect x="1215" y="113" width="160" height="20" rx="0" fill="#22C55E" stroke="none" stroke-width="1.5" fill-opacity="0.15"/><text x="1295.0" y="123" text-anchor="middle" font-family="Arial,Helvetica,sans-serif" font-size="10" font-weight="bold" fill="#22C55E">Product Collection</text><text x="1295.0" y="145" text-anchor="middle" font-family="Arial,Helvetica,sans-serif" font-size="8" font-weight="normal" fill="#475569">Product out</text>
<line x1="1175" y1="131" x2="1209" y2="131" stroke="#64748B" stroke-width="1.5"/><polygon points="1209,127 1215,131 1209,135" fill="#64748B"/>
<line x1="175" y1="82" x2="215" y2="160" stroke="#64748B" stroke-width="1.5" stroke-dasharray="4,2"/><polygon points="210,157 215,160 210,163" fill="#64748B"/>
<line x1="175" y1="229" x2="215" y2="160" stroke="#64748B" stroke-width="1.5" stroke-dasharray="4,2"/><polygon points="210,157 215,160 210,163" fill="#64748B"/>
<rect x="653" y="38" width="90" height="52" rx="8" fill="#00000018" stroke="none" stroke-width="1.5" fill-opacity="1.0"/><rect x="650" y="35" width="90" height="52" rx="8" fill="white" stroke="#FCD34D" stroke-width="1.5" fill-opacity="1.0"/><rect x="650" y="35" width="90" height="28" rx="8" fill="#FCD34D" stroke="none" stroke-width="1.5" fill-opacity="0.15"/><rect x="650" y="43" width="90" height="20" rx="0" fill="#FCD34D" stroke="none" stroke-width="1.5" fill-opacity="0.15"/><text x="695.0" y="53" text-anchor="middle" font-family="Arial,Helvetica,sans-serif" font-size="10" font-weight="bold" fill="#FCD34D">LED</text><text x="695.0" y="75" text-anchor="middle" font-family="Arial,Helvetica,sans-serif" font-size="8" font-weight="normal" fill="#475569">λ = 450.0 nm</text>
<line x1="695" y1="87" x2="695" y2="105" stroke="#FCD34D" stroke-width="1.5" stroke-dasharray="4,3"/>
<text x="695" y="97" text-anchor="middle" font-family="Arial,Helvetica,sans-serif" font-size="11" font-weight="bold" fill="#FCD34D">hν</text>
<text x="720.0" y="352" text-anchor="middle" font-family="Arial,Helvetica,sans-serif" font-size="9" font-weight="normal" fill="#475569">τ = 10.0 min  |  Q = 0.5 mL/min  |  V = 5.0 mL</text>
</svg>