<?xml version="1.0" encoding="UTF-8" standalone="no"?>
<!DOCTYPE svg PUBLIC "-//W3C//DTD SVG 1.1//EN"
 "http://www.w3.org/Graphics/SVG/1.1/DTD/svg11.dtd">
<!-- Generated by graphviz version 14.1.2 (20260126.1125)
 -->
<!-- Pages: 1 -->
<svg width="3901pt" height="1019pt"
 viewBox="0.00 0.00 3901.00 1019.00" xmlns="http://www.w3.org/2000/svg" xmlns:xlink="http://www.w3.org/1999/xlink">
<g id="graph0" class="graph" transform="scale(2.5 2.5) rotate(0) translate(14.4 393.4)">
<polygon fill="white" stroke="none" points="-14.4,14.4 -14.4,-393.4 1546.15,-393.4 1546.15,14.4 -14.4,14.4"/>
<text xml:space="preserve" text-anchor="start" x="537.5" y="-363.65" font-family="Arial" font-weight="bold" font-size="13.00" fill="#111827">One&#45;pot photoredox Giese addition + aerobic oxidation to form sulfoxid</text>
<!-- pump_a -->
<g id="node1" class="node">
<title>pump_a</title>
<image xlink:href="_pump_trimmed.png" width="108.982px" height="108px" preserveAspectRatio="xMinYMin meet" x="12.1341" y="-354"/>
<text xml:space="preserve" text-anchor="start" x="47.88" y="-234.5" font-family="Arial" font-weight="bold" font-size="10.00" fill="#111827">Pump A</text>
<text xml:space="preserve" text-anchor="start" x="33.25" y="-221.4" font-family="Arial" font-size="8.00" fill="#1e40af">PMPSCH₂TMS, &#160;Ir</text>
<text xml:space="preserve" text-anchor="start" x="1" y="-209.65" font-family="Arial" font-size="8.00" fill="#374151">EtOH / pH 9 aqueous buffer (5:1 v/v)</text>
<text xml:space="preserve" text-anchor="start" x="40.75" y="-197.95" font-family="Arial" font-weight="bold" font-size="9.00" fill="#2563eb">0.25 mL/min</text>
</g>
<!-- st1_mixer -->
<g id="node3" class="node">
<title>st1_mixer</title>
<image xlink:href="mixer2.png" width="110px" height="110px" preserveAspectRatio="xMinYMin meet" x="180.25" y="-261"/>
</g>
<!-- pump_a&#45;&gt;st1_mixer -->
<g id="edge1" class="edge">
<title>pump_a:e&#45;&gt;st1_mixer:nw</title>
<path fill="none" stroke="#27408b" stroke-width="2" d="M137.25,-300C137.25,-300 162.46,-277.11 174.27,-266.38"/>
<polygon fill="#27408b" stroke="#27408b" stroke-width="2" points="175.23,-268.11 178.01,-262.98 172.64,-265.26 175.23,-268.11"/>
</g>
<!-- pump_b -->
<g id="node2" class="node">
<title>pump_b</title>
<image xlink:href="_pump_trimmed.png" width="108.982px" height="108px" preserveAspectRatio="xMinYMin meet" x="12.1341" y="-167"/>
<text xml:space="preserve" text-anchor="start" x="47.5" y="-47.5" font-family="Arial" font-weight="bold" font-size="10.00" fill="#111827">Pump B</text>
<text xml:space="preserve" text-anchor="start" x="46.38" y="-34.4" font-family="Arial" font-size="8.00" fill="#1e40af">Acrylonitrile</text>
<text xml:space="preserve" text-anchor="start" x="1" y="-22.65" font-family="Arial" font-size="8.00" fill="#374151">EtOH / pH 9 aqueous buffer (5:1 v/v)</text>
<text xml:space="preserve" text-anchor="start" x="40.75" y="-10.95" font-family="Arial" font-weight="bold" font-size="9.00" fill="#2563eb">0.25 mL/min</text>
</g>
<!-- pump_b&#45;&gt;st1_mixer -->
<g id="edge2" class="edge">
<title>pump_b:e&#45;&gt;st1_mixer:sw</title>
<path fill="none" stroke="#27408b" stroke-width="2" d="M137.25,-113C137.25,-113 163.07,-135.31 175.18,-145.76"/>
<polygon fill="#27408b" stroke="#27408b" stroke-width="2" points="173.59,-146.93 179.01,-149.07 176.11,-144.02 173.59,-146.93"/>
</g>
<!-- st1_deoxy -->
<g id="node4" class="node">
<title>st1_deoxy</title>
<polygon fill="#f8fafc" stroke="none" points="334.25,-191.75 334.25,-220.25 458.25,-220.25 458.25,-191.75 334.25,-191.75"/>
<text xml:space="preserve" text-anchor="start" x="343.25" y="-202.7" font-family="Arial" font-size="9.00" fill="#1e293b">Degasser</text>
<text xml:space="preserve" text-anchor="start" x="399" y="-202.7" font-family="Arial" font-size="9.00" fill="#1e293b">N2 sparging</text>
<polygon fill="none" stroke="#94a3b8" points="334.25,-191.75 334.25,-220.25 458.25,-220.25 458.25,-191.75 334.25,-191.75"/>
</g>
<!-- st1_mixer&#45;&gt;st1_deoxy -->
<g id="edge3" class="edge">
<title>st1_mixer:e&#45;&gt;st1_deoxy:w</title>
<path fill="none" stroke="#27408b" stroke-width="2" d="M290.25,-206C290.25,-206 312.46,-206 324.96,-206"/>
<polygon fill="#27408b" stroke="#27408b" stroke-width="2" points="324.72,-207.93 330.22,-206 324.72,-204.08 324.72,-207.93"/>
</g>
<!-- st1_reactor -->
<g id="node5" class="node">
<title>st1_reactor</title>
<image xlink:href="photoreactor.png" width="113.77px" height="104px" preserveAspectRatio="xMinYMin meet" x="510.615" y="-266.25"/>
<text xml:space="preserve" text-anchor="start" x="505.25" y="-147.7" font-family="Arial" font-size="9.00" fill="#111827">25.0°C &#160;· &#160;λ=452 nm &#160;· &#160;τ=8 min</text>
</g>
<!-- st1_deoxy&#45;&gt;st1_reactor -->
<g id="edge4" class="edge">
<title>st1_deoxy:e&#45;&gt;st1_reactor:w</title>
<path fill="none" stroke="#27408b" stroke-width="2" d="M459.25,-206C459.25,-206 481.46,-206 493.96,-206"/>
<polygon fill="#27408b" stroke="#27408b" stroke-width="2" points="493.72,-207.93 499.22,-206 493.72,-204.08 493.72,-207.93"/>
</g>
<!-- st1_post -->
<g id="node6" class="node">
<title>st1_post</title>
<polygon fill="#f8fafc" stroke="none" points="750.75,-199.75 750.75,-228.25 824.25,-228.25 824.25,-199.75 750.75,-199.75"/>
<text xml:space="preserve" text-anchor="start" x="759.75" y="-210.7" font-family="Arial" font-size="9.00" fill="#1e293b">L&#45;L Separator</text>
<polygon fill="none" stroke="#94a3b8" points="750.75,-199.75 750.75,-228.25 824.25,-228.25 824.25,-199.75 750.75,-199.75"/>
</g>
<!-- st1_reactor&#45;&gt;st1_post -->
<g id="edge5" class="edge">
<title>st1_reactor:e&#45;&gt;st1_post:w</title>
<path fill="none" stroke="#27408b" stroke-width="2" d="M632.75,-214.25C632.75,-214.25 713.83,-214.08 740.44,-214.02"/>
<polygon fill="#27408b" stroke="#27408b" stroke-width="2" points="740.26,-215.94 745.76,-214.01 740.25,-212.09 740.26,-215.94"/>
</g>
<!-- st2_mixer -->
<g id="node8" class="node">
<title>st2_mixer</title>
<image xlink:href="mixer2.png" width="110px" height="110px" preserveAspectRatio="xMinYMin meet" x="942.25" y="-215"/>
</g>
<!-- st1_post&#45;&gt;st2_mixer -->
<g id="edge6" class="edge">
<title>st1_post:e&#45;&gt;st2_mixer:nw</title>
<path fill="none" stroke="#27408b" stroke-width="2" d="M826.25,-214C826.25,-214 907.31,-214.66 933.91,-214.88"/>
<polygon fill="#27408b" stroke="#27408b" stroke-width="2" points="933.71,-216.8 939.22,-214.92 933.74,-212.95 933.71,-216.8"/>
</g>
<!-- pump_c -->
<g id="node7" class="node">
<title>pump_c</title>
<image xlink:href="_pump_trimmed.png" width="108.982px" height="108px" preserveAspectRatio="xMinYMin meet" x="731.009" y="-160"/>
<text xml:space="preserve" text-anchor="start" x="766.38" y="-40.5" font-family="Arial" font-weight="bold" font-size="10.00" fill="#111827">Pump C</text>
<text xml:space="preserve" text-anchor="start" x="780.62" y="-27.4" font-family="Arial" font-size="8.00" fill="#1e40af">Air</text>
<text xml:space="preserve" text-anchor="start" x="676.75" y="-15.65" font-family="Arial" font-size="8.00" fill="#374151">EtOH / pH 9 aqueous buffer (5:1 v/v) — carried from Stage 1</text>
<text xml:space="preserve" text-anchor="start" x="759.62" y="-3.95" font-family="Arial" font-weight="bold" font-size="9.00" fill="#2563eb">0.50 mL/min</text>
</g>
<!-- pump_c&#45;&gt;st2_mixer -->
<g id="edge7" class="edge">
<title>pump_c:e&#45;&gt;st2_mixer:sw</title>
<path fill="none" stroke="#27408b" stroke-width="2" d="M899.25,-106C899.25,-106 942.25,-105 942.25,-105 942.25,-105 942.25,-105 942.27,-105"/>
<polygon fill="#27408b" stroke="#27408b" stroke-width="2" points="934.69,-106.55 940.28,-104.9 934.88,-102.7 934.69,-106.55"/>
</g>
<!-- st2_reactor -->
<g id="node9" class="node">
<title>st2_reactor</title>
<image xlink:href="photoreactor.png" width="113.77px" height="104px" preserveAspectRatio="xMinYMin meet" x="1103.62" y="-220.25"/>
<text xml:space="preserve" text-anchor="start" x="1098.25" y="-101.7" font-family="Arial" font-size="9.00" fill="#111827">25.0°C &#160;· &#160;λ=452 nm &#160;· &#160;τ=8 min</text>
</g>
<!-- st2_mixer&#45;&gt;st2_reactor -->
<g id="edge8" class="edge">
<title>st2_mixer:e&#45;&gt;st2_reactor:w</title>
<path fill="none" stroke="#27408b" stroke-width="2" d="M1052.25,-160C1052.25,-160 1074.46,-160 1086.96,-160"/>
<polygon fill="#27408b" stroke="#27408b" stroke-width="2" points="1086.72,-161.93 1092.22,-160 1086.72,-158.08 1086.72,-161.93"/>
</g>
<!-- st2_post -->
<g id="node10" class="node">
<title>st2_post</title>
<image xlink:href="bpr.png" width="104px" height="104px" preserveAspectRatio="xMinYMin meet" x="1271.75" y="-236.5"/>
<text xml:space="preserve" text-anchor="start" x="1314.38" y="-117.95" font-family="Arial" font-size="9.00" fill="#111827">BPR</text>
<text xml:space="preserve" text-anchor="start" x="1311" y="-101.45" font-family="Arial" font-size="9.00" fill="#111827"> &#160;5 bar</text>
</g>
<!-- st2_reactor&#45;&gt;st2_post -->
<g id="edge9" class="edge">
<title>st2_reactor:e&#45;&gt;st2_post:w</title>
<path fill="none" stroke="#27408b" stroke-width="2" d="M1225.75,-168.25C1225.75,-168.25 1247.96,-168.12 1260.46,-168.05"/>
<polygon fill="#27408b" stroke="#27408b" stroke-width="2" points="1260.23,-169.97 1265.72,-168.02 1260.21,-166.12 1260.23,-169.97"/>
</g>
<!-- collector_1 -->
<g id="node11" class="node">
<title>collector_1</title>
<image xlink:href="vial.png" width="104px" height="104px" preserveAspectRatio="xMinYMin meet" x="1424.75" y="-244.25"/>
<text xml:space="preserve" text-anchor="start" x="1439.25" y="-125.7" font-family="Arial" font-size="9.00" fill="#111827">Product Collection</text>
</g>
<!-- st2_post&#45;&gt;collector_1 -->
<g id="edge10" class="edge">
<title>st2_post:e&#45;&gt;collector_1:w</title>
<path fill="none" stroke="#27408b" stroke-width="2" d="M1378.75,-184.5C1378.75,-184.5 1400.96,-184.24 1413.46,-184.1"/>
<polygon fill="#27408b" stroke="#27408b" stroke-width="2" points="1413.25,-186.02 1418.72,-184.04 1413.2,-182.17 1413.25,-186.02"/>
</g>
</g>
</svg>
