<?xml version="1.0" encoding="UTF-8" standalone="no"?>
<!DOCTYPE svg PUBLIC "-//W3C//DTD SVG 1.1//EN"
 "http://www.w3.org/Graphics/SVG/1.1/DTD/svg11.dtd">
<!-- Generated by graphviz version 14.1.2 (20260126.1125)
 -->
<!-- Pages: 1 -->
<svg width="3501pt" height="1059pt"
 viewBox="0.00 0.00 3501.00 1059.00" xmlns="http://www.w3.org/2000/svg" xmlns:xlink="http://www.w3.org/1999/xlink">
<g id="graph0" class="graph" transform="scale(2.5 2.5) rotate(0) translate(14.4 409.15)">
<polygon fill="white" stroke="none" points="-14.4,14.4 -14.4,-409.15 1385.9,-409.15 1385.9,14.4 -14.4,14.4"/>
<text xml:space="preserve" text-anchor="start" x="457.38" y="-379.4" font-family="Arial" font-weight="bold" font-size="13.00" fill="#111827">One&#45;pot photoredox Giese addition + aerobic oxidation to form sulfoxid</text>
<!-- pump_a -->
<g id="node1" class="node">
<title>pump_a</title>
<image xlink:href="_pump_trimmed.png" width="108.982px" height="108px" preserveAspectRatio="xMinYMin meet" x="12.1341" y="-369.75"/>
<text xml:space="preserve" text-anchor="start" x="47.88" y="-250.25" font-family="Arial" font-weight="bold" font-size="10.00" fill="#111827">Pump A</text>
<text xml:space="preserve" text-anchor="start" x="33.25" y="-237.15" font-family="Arial" font-size="8.00" fill="#1e40af">PMPSCH₂TMS, &#160;Ir</text>
<text xml:space="preserve" text-anchor="start" x="1" y="-225.4" font-family="Arial" font-size="8.00" fill="#374151">EtOH / pH 9 aqueous buffer (5:1 v/v)</text>
<text xml:space="preserve" text-anchor="start" x="40.75" y="-213.7" font-family="Arial" font-weight="bold" font-size="9.00" fill="#2563eb">0.20 mL/min</text>
</g>
<!-- st1_mixer -->
<g id="node3" class="node">
<title>st1_mixer</title>
<image xlink:href="mixer2.png" width="110px" height="110px" preserveAspectRatio="xMinYMin meet" x="180.25" y="-276.75"/>
</g>
<!-- pump_a&#45;&gt;st1_mixer -->
<g id="edge1" class="edge">
<title>pump_a:e&#45;&gt;st1_mixer:nw</title>
<path fill="none" stroke="#27408b" stroke-width="2" d="M137.25,-315.75C137.25,-315.75 162.46,-292.86 174.27,-282.13"/>
<polygon fill="#27408b" stroke="#27408b" stroke-width="2" points="175.23,-283.86 178.01,-278.73 172.64,-281.01 175.23,-283.86"/>
</g>
<!-- pump_b -->
<g id="node2" class="node">
<title>pump_b</title>
<image xlink:href="_pump_trimmed.png" width="108.982px" height="108px" preserveAspectRatio="xMinYMin meet" x="12.1341" y="-182.75"/>
<text xml:space="preserve" text-anchor="start" x="47.5" y="-63.25" font-family="Arial" font-weight="bold" font-size="10.00" fill="#111827">Pump B</text>
<text xml:space="preserve" text-anchor="start" x="46.38" y="-50.15" font-family="Arial" font-size="8.00" fill="#1e40af">Acrylonitrile</text>
<text xml:space="preserve" text-anchor="start" x="1" y="-38.4" font-family="Arial" font-size="8.00" fill="#374151">EtOH / pH 9 aqueous buffer (5:1 v/v)</text>
<text xml:space="preserve" text-anchor="start" x="40.75" y="-26.7" font-family="Arial" font-weight="bold" font-size="9.00" fill="#2563eb">0.20 mL/min</text>
</g>
<!-- pump_b&#45;&gt;st1_mixer -->
<g id="edge2" class="edge">
<title>pump_b:e&#45;&gt;st1_mixer:sw</title>
<path fill="none" stroke="#27408b" stroke-width="2" d="M137.25,-128.75C137.25,-128.75 163.07,-151.06 175.18,-161.51"/>
<polygon fill="#27408b" stroke="#27408b" stroke-width="2" points="173.59,-162.68 179.01,-164.82 176.11,-159.77 173.59,-162.68"/>
</g>
<!-- st1_deoxy -->
<g id="node4" class="node">
<title>st1_deoxy</title>
<image xlink:href="degasser.png" width="104px" height="104px" preserveAspectRatio="xMinYMin meet" x="336.25" y="-290.25"/>
<text xml:space="preserve" text-anchor="start" x="368.38" y="-171.7" font-family="Arial" font-size="9.00" fill="#111827">Degasser</text>
<text xml:space="preserve" text-anchor="start" x="363.12" y="-155.2" font-family="Arial" font-size="9.00" fill="#111827">N2 sparging</text>
</g>
<!-- st1_mixer&#45;&gt;st1_deoxy -->
<g id="edge3" class="edge">
<title>st1_mixer:e&#45;&gt;st1_deoxy:w</title>
<path fill="none" stroke="#27408b" stroke-width="2" d="M290.25,-221.75C290.25,-221.75 312.46,-221.75 324.96,-221.75"/>
<polygon fill="#27408b" stroke="#27408b" stroke-width="2" points="324.72,-223.68 330.22,-221.75 324.72,-219.83 324.72,-223.68"/>
</g>
<!-- st1_reactor -->
<g id="node5" class="node">
<title>st1_reactor</title>
<image xlink:href="photoreactor.png" width="113.77px" height="104px" preserveAspectRatio="xMinYMin meet" x="523.865" y="-298"/>
<text xml:space="preserve" text-anchor="start" x="489.25" y="-179.45" font-family="Arial" font-size="9.00" fill="#111827">25.0°C &#160;· &#160;λ=452 nm &#160;· &#160;τ=8.3 min &#160;· &#160;V=3.4 mL</text>
</g>
<!-- st1_deoxy&#45;&gt;st1_reactor -->
<g id="edge4" class="edge">
<title>st1_deoxy:e&#45;&gt;st1_reactor:w</title>
<path fill="none" stroke="#27408b" stroke-width="2" d="M443.25,-238.25C443.25,-238.25 465.46,-237.99 477.96,-237.85"/>
<polygon fill="#27408b" stroke="#27408b" stroke-width="2" points="477.75,-239.77 483.22,-237.79 477.7,-235.92 477.75,-239.77"/>
</g>
<!-- st2_mixer -->
<g id="node7" class="node">
<title>st2_mixer</title>
<image xlink:href="mixer2.png" width="110px" height="110px" preserveAspectRatio="xMinYMin meet" x="718.25" y="-224.75"/>
</g>
<!-- st1_reactor&#45;&gt;st2_mixer -->
<g id="edge5" class="edge">
<title>st1_reactor:e&#45;&gt;st2_mixer:nw</title>
<path fill="none" stroke="#27408b" stroke-width="2" d="M675.25,-246C675.25,-246 698.44,-234.51 710.76,-228.41"/>
<polygon fill="#27408b" stroke="#27408b" stroke-width="2" points="711.46,-230.21 715.54,-226.04 709.75,-226.76 711.46,-230.21"/>
</g>
<!-- pump_c -->
<g id="node6" class="node">
<title>pump_c</title>
<image xlink:href="mfc.png" width="106px" height="106px" preserveAspectRatio="xMinYMin meet" x="525.75" y="-146.5"/>
<text xml:space="preserve" text-anchor="start" x="562.62" y="-28" font-family="Arial" font-weight="bold" font-size="10.00" fill="#111827">MFC C</text>
<text xml:space="preserve" text-anchor="start" x="573.88" y="-14.9" font-family="Arial" font-size="8.00" fill="#dc2626">Air</text>
<text xml:space="preserve" text-anchor="start" x="556.62" y="-3.15" font-family="Arial" font-size="8.00" fill="#374151">0.00 mL/min</text>
</g>
<!-- pump_c&#45;&gt;st2_mixer -->
<g id="edge6" class="edge">
<title>pump_c:e&#45;&gt;st2_mixer:sw</title>
<path fill="none" stroke="#27408b" stroke-width="2" d="M638.75,-93.5C638.75,-93.5 690.91,-107.29 711.28,-112.68"/>
<polygon fill="#27408b" stroke="#27408b" stroke-width="2" points="710.57,-114.48 716.38,-114.03 711.55,-110.76 710.57,-114.48"/>
</g>
<!-- st2_reactor -->
<g id="node8" class="node">
<title>st2_reactor</title>
<image xlink:href="photoreactor.png" width="113.77px" height="104px" preserveAspectRatio="xMinYMin meet" x="911.49" y="-230"/>
<text xml:space="preserve" text-anchor="start" x="874.25" y="-111.45" font-family="Arial" font-size="9.00" fill="#111827">25.0°C &#160;· &#160;λ=452 nm &#160;· &#160;τ=12.4 min &#160;· &#160;V=5.0 mL</text>
</g>
<!-- st2_mixer&#45;&gt;st2_reactor -->
<g id="edge7" class="edge">
<title>st2_mixer:e&#45;&gt;st2_reactor:w</title>
<path fill="none" stroke="#27408b" stroke-width="2" d="M828.25,-169.75C828.25,-169.75 850.46,-169.75 862.96,-169.75"/>
<polygon fill="#27408b" stroke="#27408b" stroke-width="2" points="862.72,-171.68 868.22,-169.75 862.72,-167.83 862.72,-171.68"/>
</g>
<!-- bpr_final -->
<g id="node9" class="node">
<title>bpr_final</title>
<image xlink:href="bpr.png" width="104px" height="104px" preserveAspectRatio="xMinYMin meet" x="1111.5" y="-246.25"/>
<text xml:space="preserve" text-anchor="start" x="1154.12" y="-127.7" font-family="Arial" font-size="9.00" fill="#111827">BPR</text>
<text xml:space="preserve" text-anchor="start" x="1150.75" y="-111.2" font-family="Arial" font-size="9.00" fill="#111827"> &#160;8 bar</text>
</g>
<!-- st2_reactor&#45;&gt;bpr_final -->
<g id="edge8" class="edge">
<title>st2_reactor:e&#45;&gt;bpr_final:w</title>
<path fill="none" stroke="#27408b" stroke-width="2" d="M1065.5,-178C1065.5,-178 1087.71,-177.87 1100.21,-177.8"/>
<polygon fill="#27408b" stroke="#27408b" stroke-width="2" points="1099.98,-179.72 1105.47,-177.77 1099.96,-175.87 1099.98,-179.72"/>
</g>
<!-- collector_1 -->
<g id="node10" class="node">
<title>collector_1</title>
<image xlink:href="vial.png" width="104px" height="104px" preserveAspectRatio="xMinYMin meet" x="1264.5" y="-254"/>
<text xml:space="preserve" text-anchor="start" x="1279" y="-135.45" font-family="Arial" font-size="9.00" fill="#111827">Product Collection</text>
</g>
<!-- bpr_final&#45;&gt;collector_1 -->
<g id="edge9" class="edge">
<title>bpr_final:e&#45;&gt;collector_1:w</title>
<path fill="none" stroke="#27408b" stroke-width="2" d="M1218.5,-194.25C1218.5,-194.25 1240.71,-193.99 1253.21,-193.85"/>
<polygon fill="#27408b" stroke="#27408b" stroke-width="2" points="1253,-195.77 1258.47,-193.79 1252.95,-191.92 1253,-195.77"/>
</g>
</g>
</svg>
