<?xml version="1.0" encoding="UTF-8" standalone="no"?>
<!DOCTYPE svg PUBLIC "-//W3C//DTD SVG 1.1//EN"
 "http://www.w3.org/Graphics/SVG/1.1/DTD/svg11.dtd">
<!-- Generated by graphviz version 14.1.2 (20260126.1125)
 -->
<!-- Pages: 1 -->
<svg width="1649pt" height="613pt"
 viewBox="0.00 0.00 1649.00 613.00" xmlns="http://www.w3.org/2000/svg" xmlns:xlink="http://www.w3.org/1999/xlink">
<g id="graph0" class="graph" transform="scale(2.5 2.5) rotate(0) translate(14.4 230.65)">
<polygon fill="white" stroke="none" points="-14.4,14.4 -14.4,-230.65 645.15,-230.65 645.15,14.4 -14.4,14.4"/>
<text xml:space="preserve" text-anchor="start" x="99.38" y="-200.9" font-family="Arial" font-weight="bold" font-size="13.00" fill="#111827">1,3&#45;dipolar cycloaddition of in&#45;situ&#45;generated nitrile oxide intermedi</text>
<!-- pump_a -->
<g id="node1" class="node">
<title>pump_a</title>
<image xlink:href="_pump_trimmed.png" width="108.982px" height="108px" preserveAspectRatio="xMinYMin meet" x="29.3841" y="-160"/>
<text xml:space="preserve" text-anchor="start" x="65.12" y="-40.5" font-family="Arial" font-weight="bold" font-size="10.00" fill="#111827">Pump A</text>
<text xml:space="preserve" text-anchor="start" x="1" y="-27.4" font-family="Arial" font-size="8.00" fill="#1e40af">phenylacetylene, &#160;ethyl nitroacetate, &#160;TBAB/EG</text>
<text xml:space="preserve" text-anchor="start" x="47.5" y="-15.65" font-family="Arial" font-size="8.00" fill="#374151">TBAB/EG (1:5) DES</text>
<text xml:space="preserve" text-anchor="start" x="58" y="-3.95" font-family="Arial" font-weight="bold" font-size="9.00" fill="#2563eb">0.50 mL/min</text>
</g>
<!-- reactor_1 -->
<g id="node2" class="node">
<title>reactor_1</title>
<image xlink:href="coil_reactor.png" width="104px" height="104px" preserveAspectRatio="xMinYMin meet" x="217.75" y="-166.25"/>
<text xml:space="preserve" text-anchor="start" x="227.38" y="-47.7" font-family="Arial" font-size="9.00" fill="#111827">120.0°C &#160;· &#160;τ=5.0 min</text>
</g>
<!-- pump_a&#45;&gt;reactor_1 -->
<g id="edge1" class="edge">
<title>pump_a:e&#45;&gt;reactor_1:w</title>
<path fill="none" stroke="#27408b" stroke-width="2" d="M171.75,-106C171.75,-106 193.96,-106 206.46,-106"/>
<polygon fill="#27408b" stroke="#27408b" stroke-width="2" points="206.22,-107.93 211.72,-106 206.22,-104.08 206.22,-107.93"/>
</g>
<!-- bpr_1 -->
<g id="node3" class="node">
<title>bpr_1</title>
<image xlink:href="bpr.png" width="104px" height="104px" preserveAspectRatio="xMinYMin meet" x="370.75" y="-182.5"/>
<text xml:space="preserve" text-anchor="start" x="413.38" y="-63.95" font-family="Arial" font-size="9.00" fill="#111827">BPR</text>
<text xml:space="preserve" text-anchor="start" x="410" y="-47.45" font-family="Arial" font-size="9.00" fill="#111827"> &#160;5 bar</text>
</g>
<!-- reactor_1&#45;&gt;bpr_1 -->
<g id="edge2" class="edge">
<title>reactor_1:e&#45;&gt;bpr_1:w</title>
<path fill="none" stroke="#27408b" stroke-width="2" d="M324.75,-114.25C324.75,-114.25 346.96,-114.12 359.46,-114.05"/>
<polygon fill="#27408b" stroke="#27408b" stroke-width="2" points="359.23,-115.97 364.72,-114.02 359.21,-112.12 359.23,-115.97"/>
</g>
<!-- collector_1 -->
<g id="node4" class="node">
<title>collector_1</title>
<image xlink:href="vial.png" width="104px" height="104px" preserveAspectRatio="xMinYMin meet" x="523.75" y="-190.25"/>
<text xml:space="preserve" text-anchor="start" x="538.25" y="-71.7" font-family="Arial" font-size="9.00" fill="#111827">Product Collection</text>
</g>
<!-- bpr_1&#45;&gt;collector_1 -->
<g id="edge3" class="edge">
<title>bpr_1:e&#45;&gt;collector_1:w</title>
<path fill="none" stroke="#27408b" stroke-width="2" d="M477.75,-130.5C477.75,-130.5 499.96,-130.24 512.46,-130.1"/>
<polygon fill="#27408b" stroke="#27408b" stroke-width="2" points="512.25,-132.02 517.72,-130.04 512.2,-128.17 512.25,-132.02"/>
</g>
</g>
</svg>
