<svg xmlns="http://www.w3.org/2000/svg" width="1388" height="563" viewBox="0 0 1388 563">
<rect width="1388" height="563" fill="#ffffff"/>
<text x="694.0" y="48" text-anchor="middle" font-family="Inter,Arial,sans-serif" font-size="13" font-weight="700" fill="#1e293b">Two-step telescoped synthesis of a β-amino alcohol via photoredox-cata</text>
<circle cx="74.0" cy="157.5" r="24" fill="white" stroke="#1d4ed8" stroke-width="2.5"/><polygon points="65.0,142.5 65.0,172.5 90.0,157.5" fill="#1d4ed8"/><text x="74.0" y="203.5" text-anchor="middle" font-family="Inter,Arial,sans-serif" font-size="10" font-weight="700" fill="#1e293b">Pump A — radical prec…</text><text x="74.0" y="218.5" text-anchor="middle" font-family="Inter,Arial,sans-serif" font-size="9" font-weight="normal" fill="#475569">N-Boc-glycine (1.0 equiv)</text><text x="74.0" y="233.5" text-anchor="middle" font-family="Inter,Arial,sans-serif" font-size="9" font-weight="normal" fill="#475569">K2HPO4 (2.0 equiv)</text><text x="74.0" y="248.5" text-anchor="middle" font-family="Inter,Arial,sans-serif" font-size="9" font-weight="normal" fill="#475569">in MeCN</text>
<circle cx="74.0" cy="302.5" r="24" fill="white" stroke="#1d4ed8" stroke-width="2.5"/><polygon points="65.0,287.5 65.0,317.5 90.0,302.5" fill="#1d4ed8"/><text x="74.0" y="348.5" text-anchor="middle" font-family="Inter,Arial,sans-serif" font-size="10" font-weight="700" fill="#1e293b">Pump B — Michael acce…</text><text x="74.0" y="363.5" text-anchor="middle" font-family="Inter,Arial,sans-serif" font-size="9" font-weight="normal" fill="#475569">tert-butyl acrylate (2.0 …</text><text x="74.0" y="378.5" text-anchor="middle" font-family="Inter,Arial,sans-serif" font-size="9" font-weight="normal" fill="#475569">in MeCN</text>
<line x1="184.0" y1="288.0" x2="232.0" y2="288.0" stroke="#7c3aed" stroke-width="3" stroke-linecap="round"/><line x1="208.0" y1="266.0" x2="208.0" y2="288.0" stroke="#7c3aed" stroke-width="3" stroke-linecap="round"/><circle cx="208.0" cy="288.0" r="5" fill="#7c3aed"/><polygon points="184.0,283.0 184.0,293.0 195.0,288.0" fill="#7c3aed"/><polygon points="208.0,266.0 203.0,274.0 213.0,274.0" fill="#7c3aed"/><text x="208.0" y="334.0" text-anchor="middle" font-family="Inter,Arial,sans-serif" font-size="10" font-weight="700" fill="#1e293b">Mixer — Stage 1</text><text x="208.0" y="349.0" text-anchor="middle" font-family="Inter,Arial,sans-serif" font-size="9" font-weight="normal" fill="#475569">T-mixer</text>
<rect x="311.0" y="270.0" width="42" height="36" rx="6" fill="#ecfdf5" stroke="#059669" stroke-width="2"/><ellipse cx="332.0" cy="270.0" rx="21.0" ry="5" fill="#ecfdf5" stroke="#059669" stroke-width="2"/><line x1="320.0" y1="296.0" x2="320.0" y2="282.0" stroke="#059669" stroke-width="1.5"/><polygon points="316.0,284.0 324.0,284.0 320.0,278.0" fill="#059669"/><line x1="332.0" y1="296.0" x2="332.0" y2="282.0" stroke="#059669" stroke-width="1.5"/><polygon points="328.0,284.0 336.0,284.0 332.0,278.0" fill="#059669"/><line x1="344.0" y1="296.0" x2="344.0" y2="282.0" stroke="#059669" stroke-width="1.5"/><polygon points="340.0,284.0 348.0,284.0 344.0,278.0" fill="#059669"/><text x="332.0" y="334.0" text-anchor="middle" font-family="Inter,Arial,sans-serif" font-size="10" font-weight="700" fill="#1e293b">Degas — Stage 1</text><text x="332.0" y="349.0" text-anchor="middle" font-family="Inter,Arial,sans-serif" font-size="9" font-weight="normal" fill="#475569">N2 sparging</text>
<rect x="423.0" y="263.0" width="66" height="50" rx="8" fill="#fffbeb" stroke="#d97706" stroke-width="2.5"/><path d="M 430.0,284.0 L 430.9,285.9 L 431.7,287.7 L 432.6,289.3 L 433.5,290.7 L 434.3,291.8 L 435.2,292.6 L 436.1,293.0 L 436.9,293.0 L 437.8,292.6 L 438.7,291.8 L 439.5,290.7 L 440.4,289.3 L 441.3,287.7 L 442.1,285.9 L 443.0,284.0 L 443.9,282.1 L 444.7,280.3 L 445.6,278.7 L 446.5,277.3 L 447.3,276.2 L 448.2,275.4 L 449.1,275.0 L 449.9,275.0 L 450.8,275.4 L 451.7,276.2 L 452.5,277.3 L 453.4,278.7 L 454.3,280.3 L 455.1,282.1 L 456.0,284.0 L 456.9,285.9 L 457.7,287.7 L 458.6,289.3 L 459.5,290.7 L 460.3,291.8 L 461.2,292.6 L 462.1,293.0 L 462.9,293.0 L 463.8,292.6 L 464.7,291.8 L 465.5,290.7 L 466.4,289.3 L 467.3,287.7 L 468.1,285.9 L 469.0,284.0 L 469.9,282.1 L 470.7,280.3 L 471.6,278.7 L 472.5,277.3 L 473.3,276.2 L 474.2,275.4 L 475.1,275.0 L 475.9,275.0 L 476.8,275.4 L 477.7,276.2 L 478.5,277.3 L 479.4,278.7 L 480.3,280.3 L 481.1,282.1 L 482.0,284.0" fill="none" stroke="#d97706" stroke-width="2.2" stroke-linecap="round"/><text x="456.0" y="334.0" text-anchor="middle" font-family="Inter,Arial,sans-serif" font-size="10" font-weight="700" fill="#1e293b">PhotoCoil — Photoredo…</text><text x="456.0" y="349.0" text-anchor="middle" font-family="Inter,Arial,sans-serif" font-size="9" font-weight="normal" fill="#475569">T=25.0°C</text><text x="456.0" y="364.0" text-anchor="middle" font-family="Inter,Arial,sans-serif" font-size="9" font-weight="normal" fill="#475569">λ=450.0nm</text><text x="456.0" y="379.0" text-anchor="middle" font-family="Inter,Arial,sans-serif" font-size="9" font-weight="normal" fill="#475569">(coil)</text>
<line x1="471.0" y1="223.0" x2="477.0" y2="223.0" stroke="#ca8a04" stroke-width="2" stroke-linecap="round"/><line x1="466.6" y1="233.6" x2="470.8" y2="237.8" stroke="#ca8a04" stroke-width="2" stroke-linecap="round"/><line x1="456.0" y1="238.0" x2="456.0" y2="244.0" stroke="#ca8a04" stroke-width="2" stroke-linecap="round"/><line x1="445.4" y1="233.6" x2="441.2" y2="237.8" stroke="#ca8a04" stroke-width="2" stroke-linecap="round"/><line x1="441.0" y1="223.0" x2="435.0" y2="223.0" stroke="#ca8a04" stroke-width="2" stroke-linecap="round"/><line x1="445.4" y1="212.4" x2="441.2" y2="208.2" stroke="#ca8a04" stroke-width="2" stroke-linecap="round"/><line x1="456.0" y1="208.0" x2="456.0" y2="202.0" stroke="#ca8a04" stroke-width="2" stroke-linecap="round"/><line x1="466.6" y1="212.4" x2="470.8" y2="208.2" stroke="#ca8a04" stroke-width="2" stroke-linecap="round"/><circle cx="456.0" cy="223.0" r="13" fill="#fef9c3" stroke="#ca8a04" stroke-width="2"/><text x="456.0" y="228.0" text-anchor="middle" font-family="Inter,Arial,sans-serif" font-size="8" font-weight="700" fill="#ca8a04">hν</text>
<text x="456.0" y="251.0" text-anchor="middle" font-family="Inter,Arial,sans-serif" font-size="8" font-weight="normal" fill="#475569">450.0nm</text>
<line x1="456.0" y1="243.0" x2="456.0" y2="258.0" stroke="#ca8a04" stroke-width="1.5" stroke-dasharray="4,3"/>
<line x1="556.0" y1="288.0" x2="604.0" y2="288.0" stroke="#7c3aed" stroke-width="3" stroke-linecap="round"/><line x1="580.0" y1="266.0" x2="580.0" y2="288.0" stroke="#7c3aed" stroke-width="3" stroke-linecap="round"/><circle cx="580.0" cy="288.0" r="5" fill="#7c3aed"/><polygon points="556.0,283.0 556.0,293.0 567.0,288.0" fill="#7c3aed"/><polygon points="580.0,266.0 575.0,274.0 585.0,274.0" fill="#7c3aed"/><text x="580.0" y="334.0" text-anchor="middle" font-family="Inter,Arial,sans-serif" font-size="10" font-weight="700" fill="#1e293b">Solvent switch — afte…</text><text x="580.0" y="349.0" text-anchor="middle" font-family="Inter,Arial,sans-serif" font-size="9" font-weight="normal" fill="#475569">solvent_switch</text><text x="580.0" y="364.0" text-anchor="middle" font-family="Inter,Arial,sans-serif" font-size="9" font-weight="normal" fill="#475569">solvent switch fro</text>
<line x1="680.0" y1="288.0" x2="728.0" y2="288.0" stroke="#7c3aed" stroke-width="3" stroke-linecap="round"/><line x1="704.0" y1="266.0" x2="704.0" y2="288.0" stroke="#7c3aed" stroke-width="3" stroke-linecap="round"/><circle cx="704.0" cy="288.0" r="5" fill="#7c3aed"/><polygon points="680.0,283.0 680.0,293.0 691.0,288.0" fill="#7c3aed"/><polygon points="704.0,266.0 699.0,274.0 709.0,274.0" fill="#7c3aed"/><text x="704.0" y="334.0" text-anchor="middle" font-family="Inter,Arial,sans-serif" font-size="10" font-weight="700" fill="#1e293b">Mixer — Stage 2</text><text x="704.0" y="349.0" text-anchor="middle" font-family="Inter,Arial,sans-serif" font-size="9" font-weight="normal" fill="#475569">T-mixer</text>
<rect x="807.0" y="270.0" width="42" height="36" rx="6" fill="#ecfdf5" stroke="#059669" stroke-width="2"/><ellipse cx="828.0" cy="270.0" rx="21.0" ry="5" fill="#ecfdf5" stroke="#059669" stroke-width="2"/><line x1="816.0" y1="296.0" x2="816.0" y2="282.0" stroke="#059669" stroke-width="1.5"/><polygon points="812.0,284.0 820.0,284.0 816.0,278.0" fill="#059669"/><line x1="828.0" y1="296.0" x2="828.0" y2="282.0" stroke="#059669" stroke-width="1.5"/><polygon points="824.0,284.0 832.0,284.0 828.0,278.0" fill="#059669"/><line x1="840.0" y1="296.0" x2="840.0" y2="282.0" stroke="#059669" stroke-width="1.5"/><polygon points="836.0,284.0 844.0,284.0 840.0,278.0" fill="#059669"/><text x="828.0" y="334.0" text-anchor="middle" font-family="Inter,Arial,sans-serif" font-size="10" font-weight="700" fill="#1e293b">Degas — Stage 2</text><text x="828.0" y="349.0" text-anchor="middle" font-family="Inter,Arial,sans-serif" font-size="9" font-weight="normal" fill="#475569">N2 sparging</text>
<rect x="919.0" y="263.0" width="66" height="50" rx="8" fill="#fffbeb" stroke="#d97706" stroke-width="2.5"/><path d="M 926.0,284.0 L 926.9,285.9 L 927.7,287.7 L 928.6,289.3 L 929.5,290.7 L 930.3,291.8 L 931.2,292.6 L 932.1,293.0 L 932.9,293.0 L 933.8,292.6 L 934.7,291.8 L 935.5,290.7 L 936.4,289.3 L 937.3,287.7 L 938.1,285.9 L 939.0,284.0 L 939.9,282.1 L 940.7,280.3 L 941.6,278.7 L 942.5,277.3 L 943.3,276.2 L 944.2,275.4 L 945.1,275.0 L 945.9,275.0 L 946.8,275.4 L 947.7,276.2 L 948.5,277.3 L 949.4,278.7 L 950.3,280.3 L 951.1,282.1 L 952.0,284.0 L 952.9,285.9 L 953.7,287.7 L 954.6,289.3 L 955.5,290.7 L 956.3,291.8 L 957.2,292.6 L 958.1,293.0 L 958.9,293.0 L 959.8,292.6 L 960.7,291.8 L 961.5,290.7 L 962.4,289.3 L 963.3,287.7 L 964.1,285.9 L 965.0,284.0 L 965.9,282.1 L 966.7,280.3 L 967.6,278.7 L 968.5,277.3 L 969.3,276.2 L 970.2,275.4 L 971.1,275.0 L 971.9,275.0 L 972.8,275.4 L 973.7,276.2 L 974.5,277.3 L 975.4,278.7 L 976.3,280.3 L 977.1,282.1 L 978.0,284.0" fill="none" stroke="#d97706" stroke-width="2.2" stroke-linecap="round"/><text x="952.0" y="334.0" text-anchor="middle" font-family="Inter,Arial,sans-serif" font-size="10" font-weight="700" fill="#1e293b">Coil — LiBH4 reductio…</text><text x="952.0" y="349.0" text-anchor="middle" font-family="Inter,Arial,sans-serif" font-size="9" font-weight="normal" fill="#475569">T=0.0°C</text><text x="952.0" y="364.0" text-anchor="middle" font-family="Inter,Arial,sans-serif" font-size="9" font-weight="normal" fill="#475569">(coil)</text>
<line x1="1054.0" y1="288.0" x2="1098.0" y2="288.0" stroke="#9333ea" stroke-width="3" stroke-linecap="round"/><line x1="1076.0" y1="268.0" x2="1076.0" y2="293.0" stroke="#9333ea" stroke-width="3" stroke-linecap="round"/><circle cx="1076.0" cy="288.0" r="7" fill="#9333ea"/><text x="1076.0" y="292.0" text-anchor="middle" font-family="Inter,Arial,sans-serif" font-size="10" font-weight="700" fill="white">+</text><text x="1076.0" y="334.0" text-anchor="middle" font-family="Inter,Arial,sans-serif" font-size="10" font-weight="700" fill="#1e293b">Quench — after Stage 2</text><text x="1076.0" y="349.0" text-anchor="middle" font-family="Inter,Arial,sans-serif" font-size="9" font-weight="normal" fill="#475569">+aqueous quench w</text>
<polygon points="1200.0,264.0 1224.0,288.0 1200.0,312.0 1176.0,288.0" fill="white" stroke="#dc2626" stroke-width="2.5"/><text x="1200.0" y="292.0" text-anchor="middle" font-family="Inter,Arial,sans-serif" font-size="8" font-weight="700" fill="#dc2626">P</text><text x="1200.0" y="334.0" text-anchor="middle" font-family="Inter,Arial,sans-serif" font-size="10" font-weight="700" fill="#1e293b">BPR</text><text x="1200.0" y="349.0" text-anchor="middle" font-family="Inter,Arial,sans-serif" font-size="9" font-weight="normal" fill="#475569">2.0 bar</text>
<path d="M 1317.5 264.0 L 1330.5 264.0 L 1346.0 277.44 Q 1350.0 282.44 1350.0 287.44 Q 1350.0 312.0 1342.0 312.0 L 1306.0 312.0 Q 1298.0 312.0 1298.0 287.44 Q 1298.0 282.44 1302.0 277.44 L 1317.5 264.0 Z" fill="#f0fdf4" stroke="#16a34a" stroke-width="2"/><line x1="1313.5" y1="264.0" x2="1334.5" y2="264.0" stroke="#16a34a" stroke-width="3" stroke-linecap="round"/><text x="1324.0" y="334.0" text-anchor="middle" font-family="Inter,Arial,sans-serif" font-size="10" font-weight="700" fill="#1e293b">Product Collection</text><text x="1324.0" y="349.0" text-anchor="middle" font-family="Inter,Arial,sans-serif" font-size="9" font-weight="normal" fill="#475569">Product</text>
<circle cx="704.0" cy="140.0" r="24" fill="white" stroke="#1d4ed8" stroke-width="2.5"/><polygon points="695.0,125.0 695.0,155.0 720.0,140.0" fill="#1d4ed8"/><text x="704.0" y="186.0" text-anchor="middle" font-family="Inter,Arial,sans-serif" font-size="10" font-weight="700" fill="#1e293b">Pump C — reducing age…</text><text x="704.0" y="201.0" text-anchor="middle" font-family="Inter,Arial,sans-serif" font-size="9" font-weight="normal" fill="#475569">LiBH4 (3.0 equiv)</text><text x="704.0" y="216.0" text-anchor="middle" font-family="Inter,Arial,sans-serif" font-size="9" font-weight="normal" fill="#475569">in THF</text>
<line x1="704.0" y1="226.0" x2="704.0" y2="253.0" stroke="#475569" stroke-width="1.5" stroke-dasharray="4,3"/><polygon points="700.0,252.0 704.0,258.0 708.0,252.0" fill="#475569"/>
<line x1="122.0" y1="193.0" x2="122.0" y2="330.5" stroke="#475569" stroke-width="1.8"/>
<line x1="110.0" y1="193.0" x2="122.0" y2="193.0" stroke="#475569" stroke-width="1.5"/>
<line x1="110.0" y1="330.5" x2="122.0" y2="330.5" stroke="#475569" stroke-width="1.5"/>
<line x1="122.0" y1="261.75" x2="122.0" y2="323.5" stroke="#475569" stroke-width="1.5"/>
<line x1="122.0" y1="323.5" x2="166.0" y2="323.5" stroke="#475569" stroke-width="1.8"/><polygon points="165.0,319.5 172.0,323.5 165.0,327.5" fill="#475569"/>
<line x1="244.0" y1="323.5" x2="290.0" y2="323.5" stroke="#475569" stroke-width="1.8"/><polygon points="289.0,319.5 296.0,323.5 289.0,327.5" fill="#475569"/>
<line x1="368.0" y1="323.5" x2="414.0" y2="323.5" stroke="#475569" stroke-width="1.8"/><polygon points="413.0,319.5 420.0,323.5 413.0,327.5" fill="#475569"/>
<line x1="492.0" y1="323.5" x2="538.0" y2="323.5" stroke="#475569" stroke-width="1.8"/><polygon points="537.0,319.5 544.0,323.5 537.0,327.5" fill="#475569"/>
<line x1="616.0" y1="323.5" x2="662.0" y2="323.5" stroke="#475569" stroke-width="1.8"/><polygon points="661.0,319.5 668.0,323.5 661.0,327.5" fill="#475569"/>
<line x1="740.0" y1="323.5" x2="786.0" y2="323.5" stroke="#475569" stroke-width="1.8"/><polygon points="785.0,319.5 792.0,323.5 785.0,327.5" fill="#475569"/>
<line x1="864.0" y1="323.5" x2="910.0" y2="323.5" stroke="#475569" stroke-width="1.8"/><polygon points="909.0,319.5 916.0,323.5 909.0,327.5" fill="#475569"/>
<line x1="988.0" y1="323.5" x2="1034.0" y2="323.5" stroke="#475569" stroke-width="1.8"/><polygon points="1033.0,319.5 1040.0,323.5 1033.0,327.5" fill="#475569"/>
<line x1="1112.0" y1="323.5" x2="1158.0" y2="323.5" stroke="#475569" stroke-width="1.8"/><polygon points="1157.0,319.5 1164.0,323.5 1157.0,327.5" fill="#475569"/>
<line x1="1236.0" y1="323.5" x2="1282.0" y2="323.5" stroke="#475569" stroke-width="1.8"/><polygon points="1281.0,319.5 1288.0,323.5 1281.0,327.5" fill="#475569"/>
<text x="694.0" y="549" text-anchor="middle" font-family="Inter,Arial,sans-serif" font-size="10" font-weight="normal" fill="#94a3b8">τ = 25.0 min · Q = 0.12 mL/min · V = 3.0 mL</text>
</svg>