<?xml version="1.0" encoding="UTF-8" standalone="no"?>
<!DOCTYPE svg PUBLIC "-//W3C//DTD SVG 1.1//EN"
 "http://www.w3.org/Graphics/SVG/1.1/DTD/svg11.dtd">
<!-- Generated by graphviz version 14.1.2 (20260126.1125)
 -->
<!-- Pages: 1 -->
<svg width="3787pt" height="824pt"
 viewBox="0.00 0.00 3787.00 824.00" xmlns="http://www.w3.org/2000/svg" xmlns:xlink="http://www.w3.org/1999/xlink">
<g id="graph0" class="graph" transform="scale(2.5 2.5) rotate(0) translate(14.4 315.4)">
<polygon fill="white" stroke="none" points="-14.4,14.4 -14.4,-315.4 1500.4,-315.4 1500.4,14.4 -14.4,14.4"/>
<text xml:space="preserve" text-anchor="start" x="514.62" y="-285.65" font-family="Arial" font-weight="bold" font-size="13.00" fill="#111827">One&#45;pot photoredox Giese addition + aerobic oxidation to form sulfoxid</text>
<!-- pump_a -->
<g id="node1" class="node">
<title>pump_a</title>
<path fill="#fff5f5" stroke="none" d="M13,-169C13,-169 61.75,-169 61.75,-169 67.75,-169 73.75,-175 73.75,-181 73.75,-181 73.75,-265 73.75,-265 73.75,-271 67.75,-277 61.75,-277 61.75,-277 13,-277 13,-277 7,-277 1,-271 1,-265 1,-265 1,-181 1,-181 1,-175 7,-169 13,-169"/>
<text xml:space="preserve" text-anchor="start" x="27.62" y="-260.45" font-family="Arial" font-weight="bold" font-size="9.00" fill="#7f1d1d">MFC</text>
<text xml:space="preserve" text-anchor="start" x="21.62" y="-233" font-family="Arial" font-weight="bold" font-size="10.00" fill="#111827">MFC A</text>
<text xml:space="preserve" text-anchor="start" x="10" y="-205.9" font-family="Arial" font-size="8.00" fill="#dc2626">PMPSCH₂TMS</text>
<text xml:space="preserve" text-anchor="start" x="15.25" y="-180.15" font-family="Arial" font-size="8.00" fill="#374151">0.16 mL/min</text>
<path fill="none" stroke="#dc2626" stroke-width="2" d="M13,-169C13,-169 61.75,-169 61.75,-169 67.75,-169 73.75,-175 73.75,-181 73.75,-181 73.75,-265 73.75,-265 73.75,-271 67.75,-277 61.75,-277 61.75,-277 13,-277 13,-277 7,-277 1,-271 1,-265 1,-265 1,-181 1,-181 1,-175 7,-169 13,-169"/>
</g>
<!-- st1_mixer -->
<g id="node3" class="node">
<title>st1_mixer</title>
<image xlink:href="mixer2.png" width="110px" height="110px" preserveAspectRatio="xMinYMin meet" x="118.75" y="-210"/>
</g>
<!-- pump_a&#45;&gt;st1_mixer -->
<g id="edge1" class="edge">
<title>pump_a:e&#45;&gt;st1_mixer:nw</title>
<path fill="none" stroke="#27408b" stroke-width="2" d="M75.75,-223C75.75,-223 98.45,-216.11 110.86,-212.34"/>
<polygon fill="#27408b" stroke="#27408b" stroke-width="2" points="111.15,-214.27 115.85,-210.83 110.03,-210.58 111.15,-214.27"/>
</g>
<!-- pump_b -->
<g id="node2" class="node">
<title>pump_b</title>
<path fill="#fff5f5" stroke="none" d="M18.25,-34C18.25,-34 56.5,-34 56.5,-34 62.5,-34 68.5,-40 68.5,-46 68.5,-46 68.5,-130 68.5,-130 68.5,-136 62.5,-142 56.5,-142 56.5,-142 18.25,-142 18.25,-142 12.25,-142 6.25,-136 6.25,-130 6.25,-130 6.25,-46 6.25,-46 6.25,-40 12.25,-34 18.25,-34"/>
<text xml:space="preserve" text-anchor="start" x="27.62" y="-125.45" font-family="Arial" font-weight="bold" font-size="9.00" fill="#7f1d1d">MFC</text>
<text xml:space="preserve" text-anchor="start" x="21.25" y="-98" font-family="Arial" font-weight="bold" font-size="10.00" fill="#111827">MFC B</text>
<text xml:space="preserve" text-anchor="start" x="17.12" y="-70.9" font-family="Arial" font-size="8.00" fill="#dc2626">Acrylonitrile</text>
<text xml:space="preserve" text-anchor="start" x="15.25" y="-45.15" font-family="Arial" font-size="8.00" fill="#374151">0.16 mL/min</text>
<path fill="none" stroke="#dc2626" stroke-width="2" d="M18.25,-34C18.25,-34 56.5,-34 56.5,-34 62.5,-34 68.5,-40 68.5,-46 68.5,-46 68.5,-130 68.5,-130 68.5,-136 62.5,-142 56.5,-142 56.5,-142 18.25,-142 18.25,-142 12.25,-142 6.25,-136 6.25,-130 6.25,-130 6.25,-46 6.25,-46 6.25,-40 12.25,-34 18.25,-34"/>
</g>
<!-- pump_b&#45;&gt;st1_mixer -->
<g id="edge2" class="edge">
<title>pump_b:e&#45;&gt;st1_mixer:sw</title>
<path fill="none" stroke="#27408b" stroke-width="2" d="M71.5,-88C71.5,-88 98.11,-94.64 111.83,-98.06"/>
<polygon fill="#27408b" stroke="#27408b" stroke-width="2" points="111.06,-99.86 116.87,-99.32 111.99,-96.12 111.06,-99.86"/>
</g>
<!-- st1_deoxy -->
<g id="node4" class="node">
<title>st1_deoxy</title>
<polygon fill="#f8fafc" stroke="none" points="272.75,-140.75 272.75,-169.25 396.75,-169.25 396.75,-140.75 272.75,-140.75"/>
<text xml:space="preserve" text-anchor="start" x="281.75" y="-151.7" font-family="Arial" font-size="9.00" fill="#1e293b">Degasser</text>
<text xml:space="preserve" text-anchor="start" x="337.5" y="-151.7" font-family="Arial" font-size="9.00" fill="#1e293b">N2 sparging</text>
<polygon fill="none" stroke="#94a3b8" points="272.75,-140.75 272.75,-169.25 396.75,-169.25 396.75,-140.75 272.75,-140.75"/>
</g>
<!-- st1_mixer&#45;&gt;st1_deoxy -->
<g id="edge3" class="edge">
<title>st1_mixer:e&#45;&gt;st1_deoxy:w</title>
<path fill="none" stroke="#27408b" stroke-width="2" d="M228.75,-155C228.75,-155 250.96,-155 263.46,-155"/>
<polygon fill="#27408b" stroke="#27408b" stroke-width="2" points="263.22,-156.93 268.72,-155 263.22,-153.08 263.22,-156.93"/>
</g>
<!-- st1_reactor -->
<g id="node5" class="node">
<title>st1_reactor</title>
<image xlink:href="photoreactor.png" width="113.77px" height="104px" preserveAspectRatio="xMinYMin meet" x="451.74" y="-215.25"/>
<text xml:space="preserve" text-anchor="start" x="443.75" y="-96.7" font-family="Arial" font-size="9.00" fill="#111827">25.0°C &#160;· &#160;λ=452 nm &#160;· &#160;τ=25 min</text>
</g>
<!-- st1_deoxy&#45;&gt;st1_reactor -->
<g id="edge4" class="edge">
<title>st1_deoxy:e&#45;&gt;st1_reactor:w</title>
<path fill="none" stroke="#27408b" stroke-width="2" d="M397.75,-155C397.75,-155 419.96,-155 432.46,-155"/>
<polygon fill="#27408b" stroke="#27408b" stroke-width="2" points="432.22,-156.93 437.72,-155 432.22,-153.08 432.22,-156.93"/>
</g>
<!-- st1_post -->
<g id="node6" class="node">
<title>st1_post</title>
<polygon fill="#f8fafc" stroke="none" points="637.88,-148.75 637.88,-177.25 711.38,-177.25 711.38,-148.75 637.88,-148.75"/>
<text xml:space="preserve" text-anchor="start" x="646.88" y="-159.7" font-family="Arial" font-size="9.00" fill="#1e293b">L&#45;L Separator</text>
<polygon fill="none" stroke="#94a3b8" points="637.88,-148.75 637.88,-177.25 711.38,-177.25 711.38,-148.75 637.88,-148.75"/>
</g>
<!-- st1_reactor&#45;&gt;st1_post -->
<g id="edge5" class="edge">
<title>st1_reactor:e&#45;&gt;st1_post:w</title>
<path fill="none" stroke="#27408b" stroke-width="2" d="M576.5,-163.25C576.5,-163.25 610.97,-163.1 627.4,-163.04"/>
<polygon fill="#27408b" stroke="#27408b" stroke-width="2" points="627.39,-164.96 632.88,-163.01 627.38,-161.11 627.39,-164.96"/>
</g>
<!-- st2_mixer -->
<g id="node8" class="node">
<title>st2_mixer</title>
<image xlink:href="mixer2.png" width="110px" height="110px" preserveAspectRatio="xMinYMin meet" x="772.75" y="-164"/>
</g>
<!-- st1_post&#45;&gt;st2_mixer -->
<g id="edge6" class="edge">
<title>st1_post:e&#45;&gt;st2_mixer:nw</title>
<path fill="none" stroke="#27408b" stroke-width="2" d="M713.38,-163C713.38,-163 747.83,-163.55 764.24,-163.81"/>
<polygon fill="#27408b" stroke="#27408b" stroke-width="2" points="764.19,-165.74 769.72,-163.9 764.25,-161.89 764.19,-165.74"/>
</g>
<!-- pump_c -->
<g id="node7" class="node">
<title>pump_c</title>
<path fill="#fff5f5" stroke="none" d="M632.5,-1C632.5,-1 715.75,-1 715.75,-1 721.75,-1 727.75,-7 727.75,-13 727.75,-13 727.75,-97 727.75,-97 727.75,-103 721.75,-109 715.75,-109 715.75,-109 632.5,-109 632.5,-109 626.5,-109 620.5,-103 620.5,-97 620.5,-97 620.5,-13 620.5,-13 620.5,-7 626.5,-1 632.5,-1"/>
<text xml:space="preserve" text-anchor="start" x="664.38" y="-92.45" font-family="Arial" font-weight="bold" font-size="9.00" fill="#7f1d1d">MFC</text>
<text xml:space="preserve" text-anchor="start" x="658" y="-65" font-family="Arial" font-weight="bold" font-size="10.00" fill="#111827">MFC C</text>
<text xml:space="preserve" text-anchor="start" x="629.5" y="-37.9" font-family="Arial" font-size="8.00" fill="#dc2626">Compressed air or O₂/N₂</text>
<text xml:space="preserve" text-anchor="start" x="652" y="-12.15" font-family="Arial" font-size="8.00" fill="#374151">0.31 mL/min</text>
<path fill="none" stroke="#dc2626" stroke-width="2" d="M632.5,-1C632.5,-1 715.75,-1 715.75,-1 721.75,-1 727.75,-7 727.75,-13 727.75,-13 727.75,-97 727.75,-97 727.75,-103 721.75,-109 715.75,-109 715.75,-109 632.5,-109 632.5,-109 626.5,-109 620.5,-103 620.5,-97 620.5,-97 620.5,-13 620.5,-13 620.5,-7 626.5,-1 632.5,-1"/>
</g>
<!-- pump_c&#45;&gt;st2_mixer -->
<g id="edge7" class="edge">
<title>pump_c:e&#45;&gt;st2_mixer:sw</title>
<path fill="none" stroke="#27408b" stroke-width="2" d="M729.75,-55C729.75,-55 772.75,-54 772.75,-54 772.75,-54 772.75,-54 772.77,-54"/>
<polygon fill="#27408b" stroke="#27408b" stroke-width="2" points="765.19,-55.55 770.78,-53.9 765.38,-51.7 765.19,-55.55"/>
</g>
<!-- st2_reactor -->
<g id="node9" class="node">
<title>st2_reactor</title>
<image xlink:href="photoreactor.png" width="113.77px" height="104px" preserveAspectRatio="xMinYMin meet" x="936.74" y="-169.25"/>
<text xml:space="preserve" text-anchor="start" x="928.75" y="-50.7" font-family="Arial" font-size="9.00" fill="#111827">25.0°C &#160;· &#160;λ=452 nm &#160;· &#160;τ=25 min</text>
</g>
<!-- st2_mixer&#45;&gt;st2_reactor -->
<g id="edge8" class="edge">
<title>st2_mixer:e&#45;&gt;st2_reactor:w</title>
<path fill="none" stroke="#27408b" stroke-width="2" d="M882.75,-109C882.75,-109 904.96,-109 917.46,-109"/>
<polygon fill="#27408b" stroke="#27408b" stroke-width="2" points="917.22,-110.93 922.72,-109 917.22,-107.08 917.22,-110.93"/>
</g>
<!-- st2_post -->
<g id="node10" class="node">
<title>st2_post</title>
<polygon fill="#f8fafc" stroke="none" points="1105.5,-102.75 1105.5,-131.25 1179,-131.25 1179,-102.75 1105.5,-102.75"/>
<text xml:space="preserve" text-anchor="start" x="1114.5" y="-113.7" font-family="Arial" font-size="9.00" fill="#1e293b">L&#45;L Separator</text>
<polygon fill="none" stroke="#94a3b8" points="1105.5,-102.75 1105.5,-131.25 1179,-131.25 1179,-102.75 1105.5,-102.75"/>
</g>
<!-- st2_reactor&#45;&gt;st2_post -->
<g id="edge9" class="edge">
<title>st2_reactor:e&#45;&gt;st2_post:w</title>
<path fill="none" stroke="#27408b" stroke-width="2" d="M1061.5,-117.25C1061.5,-117.25 1083.71,-117.12 1096.21,-117.05"/>
<polygon fill="#27408b" stroke="#27408b" stroke-width="2" points="1095.98,-118.97 1101.47,-117.02 1095.96,-115.12 1095.98,-118.97"/>
</g>
<!-- bpr_final -->
<g id="node11" class="node">
<title>bpr_final</title>
<image xlink:href="bpr.png" width="104px" height="104px" preserveAspectRatio="xMinYMin meet" x="1226" y="-185.5"/>
<text xml:space="preserve" text-anchor="start" x="1268.62" y="-66.95" font-family="Arial" font-size="9.00" fill="#111827">BPR</text>
<text xml:space="preserve" text-anchor="start" x="1265.25" y="-50.45" font-family="Arial" font-size="9.00" fill="#111827"> &#160;6 bar</text>
</g>
<!-- st2_post&#45;&gt;bpr_final -->
<g id="edge10" class="edge">
<title>st2_post:e&#45;&gt;bpr_final:w</title>
<path fill="none" stroke="#27408b" stroke-width="2" d="M1180,-117C1180,-117 1202.21,-117 1214.71,-117"/>
<polygon fill="#27408b" stroke="#27408b" stroke-width="2" points="1214.47,-118.93 1219.97,-117 1214.47,-115.08 1214.47,-118.93"/>
</g>
<!-- collector_1 -->
<g id="node12" class="node">
<title>collector_1</title>
<image xlink:href="vial.png" width="104px" height="104px" preserveAspectRatio="xMinYMin meet" x="1379" y="-193.25"/>
<text xml:space="preserve" text-anchor="start" x="1393.5" y="-74.7" font-family="Arial" font-size="9.00" fill="#111827">Product Collection</text>
</g>
<!-- bpr_final&#45;&gt;collector_1 -->
<g id="edge11" class="edge">
<title>bpr_final:e&#45;&gt;collector_1:w</title>
<path fill="none" stroke="#27408b" stroke-width="2" d="M1333,-133.5C1333,-133.5 1355.21,-133.24 1367.71,-133.1"/>
<polygon fill="#27408b" stroke="#27408b" stroke-width="2" points="1367.5,-135.02 1372.97,-133.04 1367.45,-131.17 1367.5,-135.02"/>
</g>
</g>
</svg>
