<?xml version="1.0" encoding="UTF-8" standalone="no"?>
<!DOCTYPE svg PUBLIC "-//W3C//DTD SVG 1.1//EN"
 "http://www.w3.org/Graphics/SVG/1.1/DTD/svg11.dtd">
<!-- Generated by graphviz version 14.1.2 (20260126.1125)
 -->
<!-- Pages: 1 -->
<svg width="2122pt" height="997pt"
 viewBox="0.00 0.00 2122.00 997.00" xmlns="http://www.w3.org/2000/svg" xmlns:xlink="http://www.w3.org/1999/xlink">
<g id="graph0" class="graph" transform="scale(2.5 2.5) rotate(0) translate(14.4 384.27)">
<polygon fill="white" stroke="none" points="-14.4,14.4 -14.4,-384.27 834.4,-384.27 834.4,14.4 -14.4,14.4"/>
<text xml:space="preserve" text-anchor="start" x="183.5" y="-354.52" font-family="Arial" font-weight="bold" font-size="13.00" fill="#111827">Oxidative dehydrogenation of 6&#45;methyl&#45;1,2,3,4&#45;tetrahydroquinoline to 6</text>
<!-- pump_a -->
<g id="node1" class="node">
<title>pump_a</title>
<image xlink:href="_pump_trimmed.png" width="108.982px" height="108px" preserveAspectRatio="xMinYMin meet" x="2.75909" y="-344.875"/>
<text xml:space="preserve" text-anchor="start" x="38.5" y="-225.38" font-family="Arial" font-weight="bold" font-size="10.00" fill="#111827">Pump A</text>
<text xml:space="preserve" text-anchor="start" x="1" y="-212.28" font-family="Arial" font-size="8.00" fill="#1e40af">6&#45;methyl&#45;1,2,3,4&#45;tetr…, &#160;DMSO</text>
<text xml:space="preserve" text-anchor="start" x="45.25" y="-200.53" font-family="Arial" font-size="8.00" fill="#374151">DMSO</text>
<text xml:space="preserve" text-anchor="start" x="31.38" y="-188.82" font-family="Arial" font-weight="bold" font-size="9.00" fill="#2563eb">0.13 mL/min</text>
</g>
<!-- mixer_1 -->
<g id="node3" class="node">
<title>mixer_1</title>
<image xlink:href="mixer2.png" width="110px" height="110px" preserveAspectRatio="xMinYMin meet" x="161.5" y="-251.875"/>
</g>
<!-- pump_a&#45;&gt;mixer_1 -->
<g id="edge1" class="edge">
<title>pump_a:e&#45;&gt;mixer_1:nw</title>
<path fill="none" stroke="#27408b" stroke-width="2" d="M118.5,-290.88C118.5,-290.88 143.71,-267.98 155.52,-257.25"/>
<polygon fill="#27408b" stroke="#27408b" stroke-width="2" points="156.48,-258.98 159.26,-253.86 153.89,-256.13 156.48,-258.98"/>
</g>
<!-- pump_b -->
<g id="node2" class="node">
<title>pump_b</title>
<image xlink:href="mfc.png" width="106px" height="106px" preserveAspectRatio="xMinYMin meet" x="4.25" y="-156.75"/>
<text xml:space="preserve" text-anchor="start" x="41.12" y="-38.25" font-family="Arial" font-weight="bold" font-size="10.00" fill="#111827">MFC B</text>
<text xml:space="preserve" text-anchor="start" x="45.25" y="-25.15" font-family="Arial" font-size="8.00" fill="#dc2626">O₂ gas</text>
<text xml:space="preserve" text-anchor="start" x="39.25" y="-13.4" font-family="Arial" font-size="8.00" fill="#374151">4.50 sccm</text>
<text xml:space="preserve" text-anchor="start" x="23.88" y="-2.6" font-family="Arial" font-size="7.00" fill="#6b7280">0.079 mL/min reactor</text>
</g>
<!-- pump_b&#45;&gt;mixer_1 -->
<g id="edge2" class="edge">
<title>pump_b:e&#45;&gt;mixer_1:sw</title>
<path fill="none" stroke="#27408b" stroke-width="2" d="M117.25,-103.75C117.25,-103.75 143.81,-126.13 156.25,-136.62"/>
<polygon fill="#27408b" stroke="#27408b" stroke-width="2" points="154.79,-137.9 160.24,-139.98 157.27,-134.96 154.79,-137.9"/>
</g>
<!-- reactor_1 -->
<g id="node4" class="node">
<title>reactor_1</title>
<image xlink:href="photoreactor.png" width="113.77px" height="104px" preserveAspectRatio="xMinYMin meet" x="357.365" y="-257.125"/>
<text xml:space="preserve" text-anchor="start" x="317.5" y="-138.57" font-family="Arial" font-size="9.00" fill="#111827">40.0°C &#160;· &#160;λ=450 nm &#160;· &#160;τ=93.8 min &#160;· &#160;V=20.0 mL</text>
</g>
<!-- mixer_1&#45;&gt;reactor_1 -->
<g id="edge3" class="edge">
<title>mixer_1:e&#45;&gt;reactor_1:w</title>
<path fill="none" stroke="#27408b" stroke-width="2" d="M271.5,-196.88C271.5,-196.88 293.71,-196.88 306.21,-196.88"/>
<polygon fill="#27408b" stroke="#27408b" stroke-width="2" points="305.97,-198.8 311.47,-196.88 305.97,-194.95 305.97,-198.8"/>
</g>
<!-- bpr_1 -->
<g id="node5" class="node">
<title>bpr_1</title>
<image xlink:href="bpr.png" width="104px" height="104px" preserveAspectRatio="xMinYMin meet" x="560" y="-273.375"/>
<text xml:space="preserve" text-anchor="start" x="602.62" y="-154.82" font-family="Arial" font-size="9.00" fill="#111827">BPR</text>
<text xml:space="preserve" text-anchor="start" x="599.25" y="-138.32" font-family="Arial" font-size="9.00" fill="#111827"> &#160;5 bar</text>
</g>
<!-- reactor_1&#45;&gt;bpr_1 -->
<g id="edge4" class="edge">
<title>reactor_1:e&#45;&gt;bpr_1:w</title>
<path fill="none" stroke="#27408b" stroke-width="2" d="M514,-205.12C514,-205.12 536.21,-205 548.71,-204.92"/>
<polygon fill="#27408b" stroke="#27408b" stroke-width="2" points="548.48,-206.85 553.97,-204.89 548.46,-203 548.48,-206.85"/>
</g>
<!-- collector_1 -->
<g id="node6" class="node">
<title>collector_1</title>
<image xlink:href="vial.png" width="104px" height="104px" preserveAspectRatio="xMinYMin meet" x="713" y="-281.125"/>
<text xml:space="preserve" text-anchor="start" x="727.5" y="-162.57" font-family="Arial" font-size="9.00" fill="#111827">Product Collection</text>
</g>
<!-- bpr_1&#45;&gt;collector_1 -->
<g id="edge5" class="edge">
<title>bpr_1:e&#45;&gt;collector_1:w</title>
<path fill="none" stroke="#27408b" stroke-width="2" d="M667,-221.38C667,-221.38 689.21,-221.12 701.71,-220.97"/>
<polygon fill="#27408b" stroke="#27408b" stroke-width="2" points="701.5,-222.9 706.97,-220.91 701.45,-219.05 701.5,-222.9"/>
</g>
</g>
</svg>
