<?xml version="1.0" encoding="utf-8" standalone="no"?>
<!DOCTYPE svg PUBLIC "-//W3C//DTD SVG 1.1//EN"
  "http://www.w3.org/Graphics/SVG/1.1/DTD/svg11.dtd">
<svg xmlns:xlink="http://www.w3.org/1999/xlink" width="806.4pt" height="388.8pt" viewBox="0 0 806.4 388.8" xmlns="http://www.w3.org/2000/svg" version="1.1">
 <metadata>
  <rdf:RDF xmlns:dc="http://purl.org/dc/elements/1.1/" xmlns:cc="http://creativecommons.org/ns#" xmlns:rdf="http://www.w3.org/1999/02/22-rdf-syntax-ns#">
   <cc:Work>
    <dc:type rdf:resource="http://purl.org/dc/dcmitype/StillImage"/>
    <dc:date>2026-05-07T09:25:39.967991</dc:date>
    <dc:format>image/svg+xml</dc:format>
    <dc:creator>
     <cc:Agent>
      <dc:title>Matplotlib v3.10.8, https://matplotlib.org/</dc:title>
     </cc:Agent>
    </dc:creator>
   </cc:Work>
  </rdf:RDF>
 </metadata>
 <defs>
  <style type="text/css">*{stroke-linejoin: round; stroke-linecap: butt}</style>
 </defs>
 <g id="figure_1">
  <g id="patch_1">
   <path d="M 0 388.8 
L 806.4 388.8 
L 806.4 0 
L 0 0 
z
" style="fill: #ffffff"/>
  </g>
  <g id="axes_1">
   <g id="patch_2">
    <path d="M 49.128365 318.183593 
L 803.39976 318.183593 
L 803.39976 18.118365 
L 49.128365 18.118365 
z
" style="fill: #ffffff"/>
   </g>
   <g id="patch_3">
    <path d="M 83.413428 318.183593 
L 94.297576 318.183593 
L 94.297576 237.078212 
L 83.413428 237.078212 
z
" clip-path="url(#p5bebe26787)" style="fill: #355070"/>
   </g>
   <g id="patch_4">
    <path d="M 126.950017 318.183593 
L 137.834164 318.183593 
L 137.834164 210.585257 
L 126.950017 210.585257 
z
" clip-path="url(#p5bebe26787)" style="fill: #355070"/>
   </g>
   <g id="patch_5">
    <path d="M 170.486605 318.183593 
L 181.370752 318.183593 
L 181.370752 101.098397 
L 170.486605 101.098397 
z
" clip-path="url(#p5bebe26787)" style="fill: #355070"/>
   </g>
   <g id="patch_6">
    <path d="M 214.023194 318.183593 
L 224.907341 318.183593 
L 224.907341 83.513205 
L 214.023194 83.513205 
z
" clip-path="url(#p5bebe26787)" style="fill: #355070"/>
   </g>
   <g id="patch_7">
    <path d="M 257.559782 318.183593 
L 268.443929 318.183593 
L 268.443929 243.872872 
L 257.559782 243.872872 
z
" clip-path="url(#p5bebe26787)" style="fill: #355070"/>
   </g>
   <g id="patch_8">
    <path d="M 301.096371 318.183593 
L 311.980518 318.183593 
L 311.980518 219.178525 
L 301.096371 219.178525 
z
" clip-path="url(#p5bebe26787)" style="fill: #355070"/>
   </g>
   <g id="patch_9">
    <path d="M 344.632959 318.183593 
L 355.517106 318.183593 
L 355.517106 52.031727 
L 344.632959 52.031727 
z
" clip-path="url(#p5bebe26787)" style="fill: #355070"/>
   </g>
   <g id="patch_10">
    <path d="M 388.169548 318.183593 
L 399.053695 318.183593 
L 399.053695 101.548214 
L 388.169548 101.548214 
z
" clip-path="url(#p5bebe26787)" style="fill: #355070"/>
   </g>
   <g id="patch_11">
    <path d="M 431.706136 318.183593 
L 442.590283 318.183593 
L 442.590283 240.152741 
L 431.706136 240.152741 
z
" clip-path="url(#p5bebe26787)" style="fill: #355070"/>
   </g>
   <g id="patch_12">
    <path d="M 475.242725 318.183593 
L 486.126872 318.183593 
L 486.126872 218.720291 
L 475.242725 218.720291 
z
" clip-path="url(#p5bebe26787)" style="fill: #355070"/>
   </g>
   <g id="patch_13">
    <path d="M 518.779313 318.183593 
L 529.66346 318.183593 
L 529.66346 113.965928 
L 518.779313 113.965928 
z
" clip-path="url(#p5bebe26787)" style="fill: #355070"/>
   </g>
   <g id="patch_14">
    <path d="M 562.315901 318.183593 
L 573.200049 318.183593 
L 573.200049 74.276108 
L 562.315901 74.276108 
z
" clip-path="url(#p5bebe26787)" style="fill: #355070"/>
   </g>
   <g id="patch_15">
    <path d="M 605.85249 318.183593 
L 616.736637 318.183593 
L 616.736637 237.138674 
L 605.85249 237.138674 
z
" clip-path="url(#p5bebe26787)" style="fill: #355070"/>
   </g>
   <g id="patch_16">
    <path d="M 649.389078 318.183593 
L 660.273225 318.183593 
L 660.273225 213.365445 
L 649.389078 213.365445 
z
" clip-path="url(#p5bebe26787)" style="fill: #355070"/>
   </g>
   <g id="patch_17">
    <path d="M 692.925667 318.183593 
L 703.809814 318.183593 
L 703.809814 32.407185 
L 692.925667 32.407185 
z
" clip-path="url(#p5bebe26787)" style="fill: #355070"/>
   </g>
   <g id="patch_18">
    <path d="M 736.462255 318.183593 
L 747.346402 318.183593 
L 747.346402 79.734383 
L 736.462255 79.734383 
z
" clip-path="url(#p5bebe26787)" style="fill: #355070"/>
   </g>
   <g id="patch_19">
    <path d="M 94.297576 318.183593 
L 105.181723 318.183593 
L 105.181723 307.331271 
L 94.297576 307.331271 
z
" clip-path="url(#p5bebe26787)" style="fill: #b56576"/>
   </g>
   <g id="patch_20">
    <path d="M 137.834164 318.183593 
L 148.718311 318.183593 
L 148.718311 300.908468 
L 137.834164 300.908468 
z
" clip-path="url(#p5bebe26787)" style="fill: #b56576"/>
   </g>
   <g id="patch_21">
    <path d="M 181.370752 318.183593 
L 192.2549 318.183593 
L 192.2549 300.022564 
L 181.370752 300.022564 
z
" clip-path="url(#p5bebe26787)" style="fill: #b56576"/>
   </g>
   <g id="patch_22">
    <path d="M 224.907341 318.183593 
L 235.791488 318.183593 
L 235.791488 279.868252 
L 224.907341 279.868252 
z
" clip-path="url(#p5bebe26787)" style="fill: #b56576"/>
   </g>
   <g id="patch_23">
    <path d="M 268.443929 318.183593 
L 279.328076 318.183593 
L 279.328076 307.331271 
L 268.443929 307.331271 
z
" clip-path="url(#p5bebe26787)" style="fill: #b56576"/>
   </g>
   <g id="patch_24">
    <path d="M 311.980518 318.183593 
L 322.864665 318.183593 
L 322.864665 301.129944 
L 311.980518 301.129944 
z
" clip-path="url(#p5bebe26787)" style="fill: #b56576"/>
   </g>
   <g id="patch_25">
    <path d="M 355.517106 318.183593 
L 366.401253 318.183593 
L 366.401253 298.472233 
L 355.517106 298.472233 
z
" clip-path="url(#p5bebe26787)" style="fill: #b56576"/>
   </g>
   <g id="patch_26">
    <path d="M 399.053695 318.183593 
L 409.937842 318.183593 
L 409.937842 281.418584 
L 399.053695 281.418584 
z
" clip-path="url(#p5bebe26787)" style="fill: #b56576"/>
   </g>
   <g id="patch_27">
    <path d="M 442.590283 318.183593 
L 453.47443 318.183593 
L 453.47443 307.331271 
L 442.590283 307.331271 
z
" clip-path="url(#p5bebe26787)" style="fill: #b56576"/>
   </g>
   <g id="patch_28">
    <path d="M 486.126872 318.183593 
L 497.011019 318.183593 
L 497.011019 301.129944 
L 486.126872 301.129944 
z
" clip-path="url(#p5bebe26787)" style="fill: #b56576"/>
   </g>
   <g id="patch_29">
    <path d="M 529.66346 318.183593 
L 540.547607 318.183593 
L 540.547607 298.915185 
L 529.66346 298.915185 
z
" clip-path="url(#p5bebe26787)" style="fill: #b56576"/>
   </g>
   <g id="patch_30">
    <path d="M 573.200049 318.183593 
L 584.084196 318.183593 
L 584.084196 276.546113 
L 573.200049 276.546113 
z
" clip-path="url(#p5bebe26787)" style="fill: #b56576"/>
   </g>
   <g id="patch_31">
    <path d="M 616.736637 318.183593 
L 627.620784 318.183593 
L 627.620784 307.331271 
L 616.736637 307.331271 
z
" clip-path="url(#p5bebe26787)" style="fill: #b56576"/>
   </g>
   <g id="patch_32">
    <path d="M 660.273225 318.183593 
L 671.157373 318.183593 
L 671.157373 300.465516 
L 660.273225 300.465516 
z
" clip-path="url(#p5bebe26787)" style="fill: #b56576"/>
   </g>
   <g id="patch_33">
    <path d="M 703.809814 318.183593 
L 714.693961 318.183593 
L 714.693961 299.136661 
L 703.809814 299.136661 
z
" clip-path="url(#p5bebe26787)" style="fill: #b56576"/>
   </g>
   <g id="patch_34">
    <path d="M 747.346402 318.183593 
L 758.230549 318.183593 
L 758.230549 277.210541 
L 747.346402 277.210541 
z
" clip-path="url(#p5bebe26787)" style="fill: #b56576"/>
   </g>
   <g id="patch_35">
    <path d="M 105.181723 318.183593 
L 116.06587 318.183593 
L 116.06587 284.599422 
L 105.181723 284.599422 
z
" clip-path="url(#p5bebe26787)" style="fill: #2a9d8f"/>
   </g>
   <g id="patch_36">
    <path d="M 148.718311 318.183593 
L 159.602458 318.183593 
L 159.602458 230.538026 
L 148.718311 230.538026 
z
" clip-path="url(#p5bebe26787)" style="fill: #2a9d8f"/>
   </g>
   <g id="patch_37">
    <path d="M 192.2549 318.183593 
L 203.139047 318.183593 
L 203.139047 236.152221 
L 192.2549 236.152221 
z
" clip-path="url(#p5bebe26787)" style="fill: #2a9d8f"/>
   </g>
   <g id="patch_38">
    <path d="M 235.791488 318.183593 
L 246.675635 318.183593 
L 246.675635 256.044748 
L 235.791488 256.044748 
z
" clip-path="url(#p5bebe26787)" style="fill: #2a9d8f"/>
   </g>
   <g id="patch_39">
    <path d="M 279.328076 318.183593 
L 290.212224 318.183593 
L 290.212224 287.689676 
L 279.328076 287.689676 
z
" clip-path="url(#p5bebe26787)" style="fill: #2a9d8f"/>
   </g>
   <g id="patch_40">
    <path d="M 322.864665 318.183593 
L 333.748812 318.183593 
L 333.748812 238.052041 
L 322.864665 238.052041 
z
" clip-path="url(#p5bebe26787)" style="fill: #2a9d8f"/>
   </g>
   <g id="patch_41">
    <path d="M 366.401253 318.183593 
L 377.2854 318.183593 
L 377.2854 225.461355 
L 366.401253 225.461355 
z
" clip-path="url(#p5bebe26787)" style="fill: #2a9d8f"/>
   </g>
   <g id="patch_42">
    <path d="M 409.937842 318.183593 
L 420.821989 318.183593 
L 420.821989 267.098392 
L 409.937842 267.098392 
z
" clip-path="url(#p5bebe26787)" style="fill: #2a9d8f"/>
   </g>
   <g id="patch_43">
    <path d="M 453.47443 318.183593 
L 464.358577 318.183593 
L 464.358577 287.087926 
L 453.47443 287.087926 
z
" clip-path="url(#p5bebe26787)" style="fill: #2a9d8f"/>
   </g>
   <g id="patch_44">
    <path d="M 497.011019 318.183593 
L 507.895166 318.183593 
L 507.895166 235.863859 
L 497.011019 235.863859 
z
" clip-path="url(#p5bebe26787)" style="fill: #2a9d8f"/>
   </g>
   <g id="patch_45">
    <path d="M 540.547607 318.183593 
L 551.431754 318.183593 
L 551.431754 225.845615 
L 540.547607 225.845615 
z
" clip-path="url(#p5bebe26787)" style="fill: #2a9d8f"/>
   </g>
   <g id="patch_46">
    <path d="M 584.084196 318.183593 
L 594.968343 318.183593 
L 594.968343 260.557099 
L 584.084196 260.557099 
z
" clip-path="url(#p5bebe26787)" style="fill: #2a9d8f"/>
   </g>
   <g id="patch_47">
    <path d="M 627.620784 318.183593 
L 638.504931 318.183593 
L 638.504931 285.369051 
L 627.620784 285.369051 
z
" clip-path="url(#p5bebe26787)" style="fill: #2a9d8f"/>
   </g>
   <g id="patch_48">
    <path d="M 671.157373 318.183593 
L 682.04152 318.183593 
L 682.04152 244.618582 
L 671.157373 244.618582 
z
" clip-path="url(#p5bebe26787)" style="fill: #2a9d8f"/>
   </g>
   <g id="patch_49">
    <path d="M 714.693961 318.183593 
L 725.578108 318.183593 
L 725.578108 238.408839 
L 714.693961 238.408839 
z
" clip-path="url(#p5bebe26787)" style="fill: #2a9d8f"/>
   </g>
   <g id="patch_50">
    <path d="M 758.230549 318.183593 
L 769.114697 318.183593 
L 769.114697 268.551938 
L 758.230549 268.551938 
z
" clip-path="url(#p5bebe26787)" style="fill: #2a9d8f"/>
   </g>
   <g id="matplotlib.axis_1">
    <g id="xtick_1">
     <g id="line2d_1">
      <defs>
       <path id="m892dfa6e40" d="M 0 0 
L 0 3.5 
" style="stroke: #000000; stroke-width: 0.8"/>
      </defs>
      <g>
       <use xlink:href="#m892dfa6e40" x="99.739649" y="318.183593" style="stroke: #000000; stroke-width: 0.8"/>
      </g>
     </g>
     <g id="text_1">
      <!-- Claude -->
      <g transform="translate(63.676373 351.327103) rotate(-35) scale(0.1 -0.1)">
       <defs>
        <path id="DejaVuSans-43" d="M 4122 4306 
L 4122 3641 
Q 3803 3938 3442 4084 
Q 3081 4231 2675 4231 
Q 1875 4231 1450 3742 
Q 1025 3253 1025 2328 
Q 1025 1406 1450 917 
Q 1875 428 2675 428 
Q 3081 428 3442 575 
Q 3803 722 4122 1019 
L 4122 359 
Q 3791 134 3420 21 
Q 3050 -91 2638 -91 
Q 1578 -91 968 557 
Q 359 1206 359 2328 
Q 359 3453 968 4101 
Q 1578 4750 2638 4750 
Q 3056 4750 3426 4639 
Q 3797 4528 4122 4306 
z
" transform="scale(0.015625)"/>
        <path id="DejaVuSans-6c" d="M 603 4863 
L 1178 4863 
L 1178 0 
L 603 0 
L 603 4863 
z
" transform="scale(0.015625)"/>
        <path id="DejaVuSans-61" d="M 2194 1759 
Q 1497 1759 1228 1600 
Q 959 1441 959 1056 
Q 959 750 1161 570 
Q 1363 391 1709 391 
Q 2188 391 2477 730 
Q 2766 1069 2766 1631 
L 2766 1759 
L 2194 1759 
z
M 3341 1997 
L 3341 0 
L 2766 0 
L 2766 531 
Q 2569 213 2275 61 
Q 1981 -91 1556 -91 
Q 1019 -91 701 211 
Q 384 513 384 1019 
Q 384 1609 779 1909 
Q 1175 2209 1959 2209 
L 2766 2209 
L 2766 2266 
Q 2766 2663 2505 2880 
Q 2244 3097 1772 3097 
Q 1472 3097 1187 3025 
Q 903 2953 641 2809 
L 641 3341 
Q 956 3463 1253 3523 
Q 1550 3584 1831 3584 
Q 2591 3584 2966 3190 
Q 3341 2797 3341 1997 
z
" transform="scale(0.015625)"/>
        <path id="DejaVuSans-75" d="M 544 1381 
L 544 3500 
L 1119 3500 
L 1119 1403 
Q 1119 906 1312 657 
Q 1506 409 1894 409 
Q 2359 409 2629 706 
Q 2900 1003 2900 1516 
L 2900 3500 
L 3475 3500 
L 3475 0 
L 2900 0 
L 2900 538 
Q 2691 219 2414 64 
Q 2138 -91 1772 -91 
Q 1169 -91 856 284 
Q 544 659 544 1381 
z
M 1991 3584 
L 1991 3584 
z
" transform="scale(0.015625)"/>
        <path id="DejaVuSans-64" d="M 2906 2969 
L 2906 4863 
L 3481 4863 
L 3481 0 
L 2906 0 
L 2906 525 
Q 2725 213 2448 61 
Q 2172 -91 1784 -91 
Q 1150 -91 751 415 
Q 353 922 353 1747 
Q 353 2572 751 3078 
Q 1150 3584 1784 3584 
Q 2172 3584 2448 3432 
Q 2725 3281 2906 2969 
z
M 947 1747 
Q 947 1113 1208 752 
Q 1469 391 1925 391 
Q 2381 391 2643 752 
Q 2906 1113 2906 1747 
Q 2906 2381 2643 2742 
Q 2381 3103 1925 3103 
Q 1469 3103 1208 2742 
Q 947 2381 947 1747 
z
" transform="scale(0.015625)"/>
        <path id="DejaVuSans-65" d="M 3597 1894 
L 3597 1613 
L 953 1613 
Q 991 1019 1311 708 
Q 1631 397 2203 397 
Q 2534 397 2845 478 
Q 3156 559 3463 722 
L 3463 178 
Q 3153 47 2828 -22 
Q 2503 -91 2169 -91 
Q 1331 -91 842 396 
Q 353 884 353 1716 
Q 353 2575 817 3079 
Q 1281 3584 2069 3584 
Q 2775 3584 3186 3129 
Q 3597 2675 3597 1894 
z
M 3022 2063 
Q 3016 2534 2758 2815 
Q 2500 3097 2075 3097 
Q 1594 3097 1305 2825 
Q 1016 2553 972 2059 
L 3022 2063 
z
" transform="scale(0.015625)"/>
       </defs>
       <use xlink:href="#DejaVuSans-43"/>
       <use xlink:href="#DejaVuSans-6c" transform="translate(69.824219 0)"/>
       <use xlink:href="#DejaVuSans-61" transform="translate(97.607422 0)"/>
       <use xlink:href="#DejaVuSans-75" transform="translate(158.886719 0)"/>
       <use xlink:href="#DejaVuSans-64" transform="translate(222.265625 0)"/>
       <use xlink:href="#DejaVuSans-65" transform="translate(285.742188 0)"/>
      </g>
      <!-- Claude -->
      <g transform="translate(70.099175 360.499814) rotate(-35) scale(0.1 -0.1)">
       <use xlink:href="#DejaVuSans-43"/>
       <use xlink:href="#DejaVuSans-6c" transform="translate(69.824219 0)"/>
       <use xlink:href="#DejaVuSans-61" transform="translate(97.607422 0)"/>
       <use xlink:href="#DejaVuSans-75" transform="translate(158.886719 0)"/>
       <use xlink:href="#DejaVuSans-64" transform="translate(222.265625 0)"/>
       <use xlink:href="#DejaVuSans-65" transform="translate(285.742188 0)"/>
      </g>
     </g>
    </g>
    <g id="xtick_2">
     <g id="line2d_2">
      <g>
       <use xlink:href="#m892dfa6e40" x="143.276238" y="318.183593" style="stroke: #000000; stroke-width: 0.8"/>
      </g>
     </g>
     <g id="text_2">
      <!-- Claude -->
      <g transform="translate(107.212962 351.327103) rotate(-35) scale(0.1 -0.1)">
       <use xlink:href="#DejaVuSans-43"/>
       <use xlink:href="#DejaVuSans-6c" transform="translate(69.824219 0)"/>
       <use xlink:href="#DejaVuSans-61" transform="translate(97.607422 0)"/>
       <use xlink:href="#DejaVuSans-75" transform="translate(158.886719 0)"/>
       <use xlink:href="#DejaVuSans-64" transform="translate(222.265625 0)"/>
       <use xlink:href="#DejaVuSans-65" transform="translate(285.742188 0)"/>
      </g>
      <!-- GPT-4o -->
      <g transform="translate(113.361859 360.691603) rotate(-35) scale(0.1 -0.1)">
       <defs>
        <path id="DejaVuSans-47" d="M 3809 666 
L 3809 1919 
L 2778 1919 
L 2778 2438 
L 4434 2438 
L 4434 434 
Q 4069 175 3628 42 
Q 3188 -91 2688 -91 
Q 1594 -91 976 548 
Q 359 1188 359 2328 
Q 359 3472 976 4111 
Q 1594 4750 2688 4750 
Q 3144 4750 3555 4637 
Q 3966 4525 4313 4306 
L 4313 3634 
Q 3963 3931 3569 4081 
Q 3175 4231 2741 4231 
Q 1884 4231 1454 3753 
Q 1025 3275 1025 2328 
Q 1025 1384 1454 906 
Q 1884 428 2741 428 
Q 3075 428 3337 486 
Q 3600 544 3809 666 
z
" transform="scale(0.015625)"/>
        <path id="DejaVuSans-50" d="M 1259 4147 
L 1259 2394 
L 2053 2394 
Q 2494 2394 2734 2622 
Q 2975 2850 2975 3272 
Q 2975 3691 2734 3919 
Q 2494 4147 2053 4147 
L 1259 4147 
z
M 628 4666 
L 2053 4666 
Q 2838 4666 3239 4311 
Q 3641 3956 3641 3272 
Q 3641 2581 3239 2228 
Q 2838 1875 2053 1875 
L 1259 1875 
L 1259 0 
L 628 0 
L 628 4666 
z
" transform="scale(0.015625)"/>
        <path id="DejaVuSans-54" d="M -19 4666 
L 3928 4666 
L 3928 4134 
L 2272 4134 
L 2272 0 
L 1638 0 
L 1638 4134 
L -19 4134 
L -19 4666 
z
" transform="scale(0.015625)"/>
        <path id="DejaVuSans-2d" d="M 313 2009 
L 1997 2009 
L 1997 1497 
L 313 1497 
L 313 2009 
z
" transform="scale(0.015625)"/>
        <path id="DejaVuSans-34" d="M 2419 4116 
L 825 1625 
L 2419 1625 
L 2419 4116 
z
M 2253 4666 
L 3047 4666 
L 3047 1625 
L 3713 1625 
L 3713 1100 
L 3047 1100 
L 3047 0 
L 2419 0 
L 2419 1100 
L 313 1100 
L 313 1709 
L 2253 4666 
z
" transform="scale(0.015625)"/>
        <path id="DejaVuSans-6f" d="M 1959 3097 
Q 1497 3097 1228 2736 
Q 959 2375 959 1747 
Q 959 1119 1226 758 
Q 1494 397 1959 397 
Q 2419 397 2687 759 
Q 2956 1122 2956 1747 
Q 2956 2369 2687 2733 
Q 2419 3097 1959 3097 
z
M 1959 3584 
Q 2709 3584 3137 3096 
Q 3566 2609 3566 1747 
Q 3566 888 3137 398 
Q 2709 -91 1959 -91 
Q 1206 -91 779 398 
Q 353 888 353 1747 
Q 353 2609 779 3096 
Q 1206 3584 1959 3584 
z
" transform="scale(0.015625)"/>
       </defs>
       <use xlink:href="#DejaVuSans-47"/>
       <use xlink:href="#DejaVuSans-50" transform="translate(77.490234 0)"/>
       <use xlink:href="#DejaVuSans-54" transform="translate(137.792969 0)"/>
       <use xlink:href="#DejaVuSans-2d" transform="translate(189.751953 0)"/>
       <use xlink:href="#DejaVuSans-34" transform="translate(225.835938 0)"/>
       <use xlink:href="#DejaVuSans-6f" transform="translate(289.458984 0)"/>
      </g>
     </g>
    </g>
    <g id="xtick_3">
     <g id="line2d_3">
      <g>
       <use xlink:href="#m892dfa6e40" x="186.812826" y="318.183593" style="stroke: #000000; stroke-width: 0.8"/>
      </g>
     </g>
     <g id="text_3">
      <!-- Claude -->
      <g transform="translate(150.74955 351.327103) rotate(-35) scale(0.1 -0.1)">
       <use xlink:href="#DejaVuSans-43"/>
       <use xlink:href="#DejaVuSans-6c" transform="translate(69.824219 0)"/>
       <use xlink:href="#DejaVuSans-61" transform="translate(97.607422 0)"/>
       <use xlink:href="#DejaVuSans-75" transform="translate(158.886719 0)"/>
       <use xlink:href="#DejaVuSans-64" transform="translate(222.265625 0)"/>
       <use xlink:href="#DejaVuSans-65" transform="translate(285.742188 0)"/>
      </g>
      <!-- GPT-4o mini -->
      <g transform="translate(136.573238 374.923469) rotate(-35) scale(0.1 -0.1)">
       <defs>
        <path id="DejaVuSans-20" transform="scale(0.015625)"/>
        <path id="DejaVuSans-6d" d="M 3328 2828 
Q 3544 3216 3844 3400 
Q 4144 3584 4550 3584 
Q 5097 3584 5394 3201 
Q 5691 2819 5691 2113 
L 5691 0 
L 5113 0 
L 5113 2094 
Q 5113 2597 4934 2840 
Q 4756 3084 4391 3084 
Q 3944 3084 3684 2787 
Q 3425 2491 3425 1978 
L 3425 0 
L 2847 0 
L 2847 2094 
Q 2847 2600 2669 2842 
Q 2491 3084 2119 3084 
Q 1678 3084 1418 2786 
Q 1159 2488 1159 1978 
L 1159 0 
L 581 0 
L 581 3500 
L 1159 3500 
L 1159 2956 
Q 1356 3278 1631 3431 
Q 1906 3584 2284 3584 
Q 2666 3584 2933 3390 
Q 3200 3197 3328 2828 
z
" transform="scale(0.015625)"/>
        <path id="DejaVuSans-69" d="M 603 3500 
L 1178 3500 
L 1178 0 
L 603 0 
L 603 3500 
z
M 603 4863 
L 1178 4863 
L 1178 4134 
L 603 4134 
L 603 4863 
z
" transform="scale(0.015625)"/>
        <path id="DejaVuSans-6e" d="M 3513 2113 
L 3513 0 
L 2938 0 
L 2938 2094 
Q 2938 2591 2744 2837 
Q 2550 3084 2163 3084 
Q 1697 3084 1428 2787 
Q 1159 2491 1159 1978 
L 1159 0 
L 581 0 
L 581 3500 
L 1159 3500 
L 1159 2956 
Q 1366 3272 1645 3428 
Q 1925 3584 2291 3584 
Q 2894 3584 3203 3211 
Q 3513 2838 3513 2113 
z
" transform="scale(0.015625)"/>
       </defs>
       <use xlink:href="#DejaVuSans-47"/>
       <use xlink:href="#DejaVuSans-50" transform="translate(77.490234 0)"/>
       <use xlink:href="#DejaVuSans-54" transform="translate(137.792969 0)"/>
       <use xlink:href="#DejaVuSans-2d" transform="translate(189.751953 0)"/>
       <use xlink:href="#DejaVuSans-34" transform="translate(225.835938 0)"/>
       <use xlink:href="#DejaVuSans-6f" transform="translate(289.458984 0)"/>
       <use xlink:href="#DejaVuSans-20" transform="translate(350.640625 0)"/>
       <use xlink:href="#DejaVuSans-6d" transform="translate(382.427734 0)"/>
       <use xlink:href="#DejaVuSans-69" transform="translate(479.839844 0)"/>
       <use xlink:href="#DejaVuSans-6e" transform="translate(507.623047 0)"/>
       <use xlink:href="#DejaVuSans-69" transform="translate(571.001953 0)"/>
      </g>
     </g>
    </g>
    <g id="xtick_4">
     <g id="line2d_4">
      <g>
       <use xlink:href="#m892dfa6e40" x="230.349414" y="318.183593" style="stroke: #000000; stroke-width: 0.8"/>
      </g>
     </g>
     <g id="text_4">
      <!-- Claude -->
      <g transform="translate(194.286139 351.327103) rotate(-35) scale(0.1 -0.1)">
       <use xlink:href="#DejaVuSans-43"/>
       <use xlink:href="#DejaVuSans-6c" transform="translate(69.824219 0)"/>
       <use xlink:href="#DejaVuSans-61" transform="translate(97.607422 0)"/>
       <use xlink:href="#DejaVuSans-75" transform="translate(158.886719 0)"/>
       <use xlink:href="#DejaVuSans-64" transform="translate(222.265625 0)"/>
       <use xlink:href="#DejaVuSans-65" transform="translate(285.742188 0)"/>
      </g>
      <!-- Gemma -->
      <g transform="translate(196.791089 363.243122) rotate(-35) scale(0.1 -0.1)">
       <use xlink:href="#DejaVuSans-47"/>
       <use xlink:href="#DejaVuSans-65" transform="translate(77.490234 0)"/>
       <use xlink:href="#DejaVuSans-6d" transform="translate(139.013672 0)"/>
       <use xlink:href="#DejaVuSans-6d" transform="translate(236.425781 0)"/>
       <use xlink:href="#DejaVuSans-61" transform="translate(333.837891 0)"/>
      </g>
     </g>
    </g>
    <g id="xtick_5">
     <g id="line2d_5">
      <g>
       <use xlink:href="#m892dfa6e40" x="273.886003" y="318.183593" style="stroke: #000000; stroke-width: 0.8"/>
      </g>
     </g>
     <g id="text_5">
      <!-- GPT-4o -->
      <g transform="translate(237.548823 351.518892) rotate(-35) scale(0.1 -0.1)">
       <use xlink:href="#DejaVuSans-47"/>
       <use xlink:href="#DejaVuSans-50" transform="translate(77.490234 0)"/>
       <use xlink:href="#DejaVuSans-54" transform="translate(137.792969 0)"/>
       <use xlink:href="#DejaVuSans-2d" transform="translate(189.751953 0)"/>
       <use xlink:href="#DejaVuSans-34" transform="translate(225.835938 0)"/>
       <use xlink:href="#DejaVuSans-6f" transform="translate(289.458984 0)"/>
      </g>
      <!-- Claude -->
      <g transform="translate(244.245529 360.499814) rotate(-35) scale(0.1 -0.1)">
       <use xlink:href="#DejaVuSans-43"/>
       <use xlink:href="#DejaVuSans-6c" transform="translate(69.824219 0)"/>
       <use xlink:href="#DejaVuSans-61" transform="translate(97.607422 0)"/>
       <use xlink:href="#DejaVuSans-75" transform="translate(158.886719 0)"/>
       <use xlink:href="#DejaVuSans-64" transform="translate(222.265625 0)"/>
       <use xlink:href="#DejaVuSans-65" transform="translate(285.742188 0)"/>
      </g>
     </g>
    </g>
    <g id="xtick_6">
     <g id="line2d_6">
      <g>
       <use xlink:href="#m892dfa6e40" x="317.422591" y="318.183593" style="stroke: #000000; stroke-width: 0.8"/>
      </g>
     </g>
     <g id="text_6">
      <!-- GPT-4o -->
      <g transform="translate(281.085412 351.518892) rotate(-35) scale(0.1 -0.1)">
       <use xlink:href="#DejaVuSans-47"/>
       <use xlink:href="#DejaVuSans-50" transform="translate(77.490234 0)"/>
       <use xlink:href="#DejaVuSans-54" transform="translate(137.792969 0)"/>
       <use xlink:href="#DejaVuSans-2d" transform="translate(189.751953 0)"/>
       <use xlink:href="#DejaVuSans-34" transform="translate(225.835938 0)"/>
       <use xlink:href="#DejaVuSans-6f" transform="translate(289.458984 0)"/>
      </g>
      <!-- GPT-4o -->
      <g transform="translate(287.508213 360.691603) rotate(-35) scale(0.1 -0.1)">
       <use xlink:href="#DejaVuSans-47"/>
       <use xlink:href="#DejaVuSans-50" transform="translate(77.490234 0)"/>
       <use xlink:href="#DejaVuSans-54" transform="translate(137.792969 0)"/>
       <use xlink:href="#DejaVuSans-2d" transform="translate(189.751953 0)"/>
       <use xlink:href="#DejaVuSans-34" transform="translate(225.835938 0)"/>
       <use xlink:href="#DejaVuSans-6f" transform="translate(289.458984 0)"/>
      </g>
     </g>
    </g>
    <g id="xtick_7">
     <g id="line2d_7">
      <g>
       <use xlink:href="#m892dfa6e40" x="360.95918" y="318.183593" style="stroke: #000000; stroke-width: 0.8"/>
      </g>
     </g>
     <g id="text_7">
      <!-- GPT-4o -->
      <g transform="translate(324.622 351.518892) rotate(-35) scale(0.1 -0.1)">
       <use xlink:href="#DejaVuSans-47"/>
       <use xlink:href="#DejaVuSans-50" transform="translate(77.490234 0)"/>
       <use xlink:href="#DejaVuSans-54" transform="translate(137.792969 0)"/>
       <use xlink:href="#DejaVuSans-2d" transform="translate(189.751953 0)"/>
       <use xlink:href="#DejaVuSans-34" transform="translate(225.835938 0)"/>
       <use xlink:href="#DejaVuSans-6f" transform="translate(289.458984 0)"/>
      </g>
      <!-- GPT-4o mini -->
      <g transform="translate(310.719591 374.923469) rotate(-35) scale(0.1 -0.1)">
       <use xlink:href="#DejaVuSans-47"/>
       <use xlink:href="#DejaVuSans-50" transform="translate(77.490234 0)"/>
       <use xlink:href="#DejaVuSans-54" transform="translate(137.792969 0)"/>
       <use xlink:href="#DejaVuSans-2d" transform="translate(189.751953 0)"/>
       <use xlink:href="#DejaVuSans-34" transform="translate(225.835938 0)"/>
       <use xlink:href="#DejaVuSans-6f" transform="translate(289.458984 0)"/>
       <use xlink:href="#DejaVuSans-20" transform="translate(350.640625 0)"/>
       <use xlink:href="#DejaVuSans-6d" transform="translate(382.427734 0)"/>
       <use xlink:href="#DejaVuSans-69" transform="translate(479.839844 0)"/>
       <use xlink:href="#DejaVuSans-6e" transform="translate(507.623047 0)"/>
       <use xlink:href="#DejaVuSans-69" transform="translate(571.001953 0)"/>
      </g>
     </g>
    </g>
    <g id="xtick_8">
     <g id="line2d_8">
      <g>
       <use xlink:href="#m892dfa6e40" x="404.495768" y="318.183593" style="stroke: #000000; stroke-width: 0.8"/>
      </g>
     </g>
     <g id="text_8">
      <!-- GPT-4o -->
      <g transform="translate(368.158589 351.518892) rotate(-35) scale(0.1 -0.1)">
       <use xlink:href="#DejaVuSans-47"/>
       <use xlink:href="#DejaVuSans-50" transform="translate(77.490234 0)"/>
       <use xlink:href="#DejaVuSans-54" transform="translate(137.792969 0)"/>
       <use xlink:href="#DejaVuSans-2d" transform="translate(189.751953 0)"/>
       <use xlink:href="#DejaVuSans-34" transform="translate(225.835938 0)"/>
       <use xlink:href="#DejaVuSans-6f" transform="translate(289.458984 0)"/>
      </g>
      <!-- Gemma -->
      <g transform="translate(370.937443 363.243122) rotate(-35) scale(0.1 -0.1)">
       <use xlink:href="#DejaVuSans-47"/>
       <use xlink:href="#DejaVuSans-65" transform="translate(77.490234 0)"/>
       <use xlink:href="#DejaVuSans-6d" transform="translate(139.013672 0)"/>
       <use xlink:href="#DejaVuSans-6d" transform="translate(236.425781 0)"/>
       <use xlink:href="#DejaVuSans-61" transform="translate(333.837891 0)"/>
      </g>
     </g>
    </g>
    <g id="xtick_9">
     <g id="line2d_9">
      <g>
       <use xlink:href="#m892dfa6e40" x="448.032357" y="318.183593" style="stroke: #000000; stroke-width: 0.8"/>
      </g>
     </g>
     <g id="text_9">
      <!-- GPT-4o mini -->
      <g transform="translate(384.947166 365.750758) rotate(-35) scale(0.1 -0.1)">
       <use xlink:href="#DejaVuSans-47"/>
       <use xlink:href="#DejaVuSans-50" transform="translate(77.490234 0)"/>
       <use xlink:href="#DejaVuSans-54" transform="translate(137.792969 0)"/>
       <use xlink:href="#DejaVuSans-2d" transform="translate(189.751953 0)"/>
       <use xlink:href="#DejaVuSans-34" transform="translate(225.835938 0)"/>
       <use xlink:href="#DejaVuSans-6f" transform="translate(289.458984 0)"/>
       <use xlink:href="#DejaVuSans-20" transform="translate(350.640625 0)"/>
       <use xlink:href="#DejaVuSans-6d" transform="translate(382.427734 0)"/>
       <use xlink:href="#DejaVuSans-69" transform="translate(479.839844 0)"/>
       <use xlink:href="#DejaVuSans-6e" transform="translate(507.623047 0)"/>
       <use xlink:href="#DejaVuSans-69" transform="translate(571.001953 0)"/>
      </g>
      <!-- rescued -->
      <g transform="translate(407.989794 363.286141) rotate(-35) scale(0.1 -0.1)">
       <defs>
        <path id="DejaVuSans-72" d="M 2631 2963 
Q 2534 3019 2420 3045 
Q 2306 3072 2169 3072 
Q 1681 3072 1420 2755 
Q 1159 2438 1159 1844 
L 1159 0 
L 581 0 
L 581 3500 
L 1159 3500 
L 1159 2956 
Q 1341 3275 1631 3429 
Q 1922 3584 2338 3584 
Q 2397 3584 2469 3576 
Q 2541 3569 2628 3553 
L 2631 2963 
z
" transform="scale(0.015625)"/>
        <path id="DejaVuSans-73" d="M 2834 3397 
L 2834 2853 
Q 2591 2978 2328 3040 
Q 2066 3103 1784 3103 
Q 1356 3103 1142 2972 
Q 928 2841 928 2578 
Q 928 2378 1081 2264 
Q 1234 2150 1697 2047 
L 1894 2003 
Q 2506 1872 2764 1633 
Q 3022 1394 3022 966 
Q 3022 478 2636 193 
Q 2250 -91 1575 -91 
Q 1294 -91 989 -36 
Q 684 19 347 128 
L 347 722 
Q 666 556 975 473 
Q 1284 391 1588 391 
Q 1994 391 2212 530 
Q 2431 669 2431 922 
Q 2431 1156 2273 1281 
Q 2116 1406 1581 1522 
L 1381 1569 
Q 847 1681 609 1914 
Q 372 2147 372 2553 
Q 372 3047 722 3315 
Q 1072 3584 1716 3584 
Q 2034 3584 2315 3537 
Q 2597 3491 2834 3397 
z
" transform="scale(0.015625)"/>
        <path id="DejaVuSans-63" d="M 3122 3366 
L 3122 2828 
Q 2878 2963 2633 3030 
Q 2388 3097 2138 3097 
Q 1578 3097 1268 2742 
Q 959 2388 959 1747 
Q 959 1106 1268 751 
Q 1578 397 2138 397 
Q 2388 397 2633 464 
Q 2878 531 3122 666 
L 3122 134 
Q 2881 22 2623 -34 
Q 2366 -91 2075 -91 
Q 1284 -91 818 406 
Q 353 903 353 1747 
Q 353 2603 823 3093 
Q 1294 3584 2113 3584 
Q 2378 3584 2631 3529 
Q 2884 3475 3122 3366 
z
" transform="scale(0.015625)"/>
       </defs>
       <use xlink:href="#DejaVuSans-72"/>
       <use xlink:href="#DejaVuSans-65" transform="translate(38.863281 0)"/>
       <use xlink:href="#DejaVuSans-73" transform="translate(100.386719 0)"/>
       <use xlink:href="#DejaVuSans-63" transform="translate(152.486328 0)"/>
       <use xlink:href="#DejaVuSans-75" transform="translate(207.466797 0)"/>
       <use xlink:href="#DejaVuSans-65" transform="translate(270.845703 0)"/>
       <use xlink:href="#DejaVuSans-64" transform="translate(332.369141 0)"/>
      </g>
      <!-- Claude -->
      <g transform="translate(418.391882 369.672525) rotate(-35) scale(0.1 -0.1)">
       <use xlink:href="#DejaVuSans-43"/>
       <use xlink:href="#DejaVuSans-6c" transform="translate(69.824219 0)"/>
       <use xlink:href="#DejaVuSans-61" transform="translate(97.607422 0)"/>
       <use xlink:href="#DejaVuSans-75" transform="translate(158.886719 0)"/>
       <use xlink:href="#DejaVuSans-64" transform="translate(222.265625 0)"/>
       <use xlink:href="#DejaVuSans-65" transform="translate(285.742188 0)"/>
      </g>
     </g>
    </g>
    <g id="xtick_10">
     <g id="line2d_10">
      <g>
       <use xlink:href="#m892dfa6e40" x="491.568945" y="318.183593" style="stroke: #000000; stroke-width: 0.8"/>
      </g>
     </g>
     <g id="text_10">
      <!-- GPT-4o mini -->
      <g transform="translate(428.483754 365.750758) rotate(-35) scale(0.1 -0.1)">
       <use xlink:href="#DejaVuSans-47"/>
       <use xlink:href="#DejaVuSans-50" transform="translate(77.490234 0)"/>
       <use xlink:href="#DejaVuSans-54" transform="translate(137.792969 0)"/>
       <use xlink:href="#DejaVuSans-2d" transform="translate(189.751953 0)"/>
       <use xlink:href="#DejaVuSans-34" transform="translate(225.835938 0)"/>
       <use xlink:href="#DejaVuSans-6f" transform="translate(289.458984 0)"/>
       <use xlink:href="#DejaVuSans-20" transform="translate(350.640625 0)"/>
       <use xlink:href="#DejaVuSans-6d" transform="translate(382.427734 0)"/>
       <use xlink:href="#DejaVuSans-69" transform="translate(479.839844 0)"/>
       <use xlink:href="#DejaVuSans-6e" transform="translate(507.623047 0)"/>
       <use xlink:href="#DejaVuSans-69" transform="translate(571.001953 0)"/>
      </g>
      <!-- rescued -->
      <g transform="translate(451.526382 363.286141) rotate(-35) scale(0.1 -0.1)">
       <use xlink:href="#DejaVuSans-72"/>
       <use xlink:href="#DejaVuSans-65" transform="translate(38.863281 0)"/>
       <use xlink:href="#DejaVuSans-73" transform="translate(100.386719 0)"/>
       <use xlink:href="#DejaVuSans-63" transform="translate(152.486328 0)"/>
       <use xlink:href="#DejaVuSans-75" transform="translate(207.466797 0)"/>
       <use xlink:href="#DejaVuSans-65" transform="translate(270.845703 0)"/>
       <use xlink:href="#DejaVuSans-64" transform="translate(332.369141 0)"/>
      </g>
      <!-- GPT-4o -->
      <g transform="translate(461.654567 369.864314) rotate(-35) scale(0.1 -0.1)">
       <use xlink:href="#DejaVuSans-47"/>
       <use xlink:href="#DejaVuSans-50" transform="translate(77.490234 0)"/>
       <use xlink:href="#DejaVuSans-54" transform="translate(137.792969 0)"/>
       <use xlink:href="#DejaVuSans-2d" transform="translate(189.751953 0)"/>
       <use xlink:href="#DejaVuSans-34" transform="translate(225.835938 0)"/>
       <use xlink:href="#DejaVuSans-6f" transform="translate(289.458984 0)"/>
      </g>
     </g>
    </g>
    <g id="xtick_11">
     <g id="line2d_11">
      <g>
       <use xlink:href="#m892dfa6e40" x="535.105534" y="318.183593" style="stroke: #000000; stroke-width: 0.8"/>
      </g>
     </g>
     <g id="text_11">
      <!-- GPT-4o mini -->
      <g transform="translate(472.020342 365.750758) rotate(-35) scale(0.1 -0.1)">
       <use xlink:href="#DejaVuSans-47"/>
       <use xlink:href="#DejaVuSans-50" transform="translate(77.490234 0)"/>
       <use xlink:href="#DejaVuSans-54" transform="translate(137.792969 0)"/>
       <use xlink:href="#DejaVuSans-2d" transform="translate(189.751953 0)"/>
       <use xlink:href="#DejaVuSans-34" transform="translate(225.835938 0)"/>
       <use xlink:href="#DejaVuSans-6f" transform="translate(289.458984 0)"/>
       <use xlink:href="#DejaVuSans-20" transform="translate(350.640625 0)"/>
       <use xlink:href="#DejaVuSans-6d" transform="translate(382.427734 0)"/>
       <use xlink:href="#DejaVuSans-69" transform="translate(479.839844 0)"/>
       <use xlink:href="#DejaVuSans-6e" transform="translate(507.623047 0)"/>
       <use xlink:href="#DejaVuSans-69" transform="translate(571.001953 0)"/>
      </g>
      <!-- rescued -->
      <g transform="translate(495.062971 363.286141) rotate(-35) scale(0.1 -0.1)">
       <use xlink:href="#DejaVuSans-72"/>
       <use xlink:href="#DejaVuSans-65" transform="translate(38.863281 0)"/>
       <use xlink:href="#DejaVuSans-73" transform="translate(100.386719 0)"/>
       <use xlink:href="#DejaVuSans-63" transform="translate(152.486328 0)"/>
       <use xlink:href="#DejaVuSans-75" transform="translate(207.466797 0)"/>
       <use xlink:href="#DejaVuSans-65" transform="translate(270.845703 0)"/>
       <use xlink:href="#DejaVuSans-64" transform="translate(332.369141 0)"/>
      </g>
      <!-- GPT-4o mini -->
      <g transform="translate(484.865945 384.09618) rotate(-35) scale(0.1 -0.1)">
       <use xlink:href="#DejaVuSans-47"/>
       <use xlink:href="#DejaVuSans-50" transform="translate(77.490234 0)"/>
       <use xlink:href="#DejaVuSans-54" transform="translate(137.792969 0)"/>
       <use xlink:href="#DejaVuSans-2d" transform="translate(189.751953 0)"/>
       <use xlink:href="#DejaVuSans-34" transform="translate(225.835938 0)"/>
       <use xlink:href="#DejaVuSans-6f" transform="translate(289.458984 0)"/>
       <use xlink:href="#DejaVuSans-20" transform="translate(350.640625 0)"/>
       <use xlink:href="#DejaVuSans-6d" transform="translate(382.427734 0)"/>
       <use xlink:href="#DejaVuSans-69" transform="translate(479.839844 0)"/>
       <use xlink:href="#DejaVuSans-6e" transform="translate(507.623047 0)"/>
       <use xlink:href="#DejaVuSans-69" transform="translate(571.001953 0)"/>
      </g>
     </g>
    </g>
    <g id="xtick_12">
     <g id="line2d_12">
      <g>
       <use xlink:href="#m892dfa6e40" x="578.642122" y="318.183593" style="stroke: #000000; stroke-width: 0.8"/>
      </g>
     </g>
     <g id="text_12">
      <!-- GPT-4o mini -->
      <g transform="translate(515.556931 365.750758) rotate(-35) scale(0.1 -0.1)">
       <use xlink:href="#DejaVuSans-47"/>
       <use xlink:href="#DejaVuSans-50" transform="translate(77.490234 0)"/>
       <use xlink:href="#DejaVuSans-54" transform="translate(137.792969 0)"/>
       <use xlink:href="#DejaVuSans-2d" transform="translate(189.751953 0)"/>
       <use xlink:href="#DejaVuSans-34" transform="translate(225.835938 0)"/>
       <use xlink:href="#DejaVuSans-6f" transform="translate(289.458984 0)"/>
       <use xlink:href="#DejaVuSans-20" transform="translate(350.640625 0)"/>
       <use xlink:href="#DejaVuSans-6d" transform="translate(382.427734 0)"/>
       <use xlink:href="#DejaVuSans-69" transform="translate(479.839844 0)"/>
       <use xlink:href="#DejaVuSans-6e" transform="translate(507.623047 0)"/>
       <use xlink:href="#DejaVuSans-69" transform="translate(571.001953 0)"/>
      </g>
      <!-- rescued -->
      <g transform="translate(538.599559 363.286141) rotate(-35) scale(0.1 -0.1)">
       <use xlink:href="#DejaVuSans-72"/>
       <use xlink:href="#DejaVuSans-65" transform="translate(38.863281 0)"/>
       <use xlink:href="#DejaVuSans-73" transform="translate(100.386719 0)"/>
       <use xlink:href="#DejaVuSans-63" transform="translate(152.486328 0)"/>
       <use xlink:href="#DejaVuSans-75" transform="translate(207.466797 0)"/>
       <use xlink:href="#DejaVuSans-65" transform="translate(270.845703 0)"/>
       <use xlink:href="#DejaVuSans-64" transform="translate(332.369141 0)"/>
      </g>
      <!-- Gemma -->
      <g transform="translate(545.083797 372.415833) rotate(-35) scale(0.1 -0.1)">
       <use xlink:href="#DejaVuSans-47"/>
       <use xlink:href="#DejaVuSans-65" transform="translate(77.490234 0)"/>
       <use xlink:href="#DejaVuSans-6d" transform="translate(139.013672 0)"/>
       <use xlink:href="#DejaVuSans-6d" transform="translate(236.425781 0)"/>
       <use xlink:href="#DejaVuSans-61" transform="translate(333.837891 0)"/>
      </g>
     </g>
    </g>
    <g id="xtick_13">
     <g id="line2d_13">
      <g>
       <use xlink:href="#m892dfa6e40" x="622.178711" y="318.183593" style="stroke: #000000; stroke-width: 0.8"/>
      </g>
     </g>
     <g id="text_13">
      <!-- Gemma -->
      <g transform="translate(575.774783 354.070411) rotate(-35) scale(0.1 -0.1)">
       <use xlink:href="#DejaVuSans-47"/>
       <use xlink:href="#DejaVuSans-65" transform="translate(77.490234 0)"/>
       <use xlink:href="#DejaVuSans-6d" transform="translate(139.013672 0)"/>
       <use xlink:href="#DejaVuSans-6d" transform="translate(236.425781 0)"/>
       <use xlink:href="#DejaVuSans-61" transform="translate(333.837891 0)"/>
      </g>
      <!-- rescued -->
      <g transform="translate(582.136148 363.286141) rotate(-35) scale(0.1 -0.1)">
       <use xlink:href="#DejaVuSans-72"/>
       <use xlink:href="#DejaVuSans-65" transform="translate(38.863281 0)"/>
       <use xlink:href="#DejaVuSans-73" transform="translate(100.386719 0)"/>
       <use xlink:href="#DejaVuSans-63" transform="translate(152.486328 0)"/>
       <use xlink:href="#DejaVuSans-75" transform="translate(207.466797 0)"/>
       <use xlink:href="#DejaVuSans-65" transform="translate(270.845703 0)"/>
       <use xlink:href="#DejaVuSans-64" transform="translate(332.369141 0)"/>
      </g>
      <!-- Claude -->
      <g transform="translate(592.538236 369.672525) rotate(-35) scale(0.1 -0.1)">
       <use xlink:href="#DejaVuSans-43"/>
       <use xlink:href="#DejaVuSans-6c" transform="translate(69.824219 0)"/>
       <use xlink:href="#DejaVuSans-61" transform="translate(97.607422 0)"/>
       <use xlink:href="#DejaVuSans-75" transform="translate(158.886719 0)"/>
       <use xlink:href="#DejaVuSans-64" transform="translate(222.265625 0)"/>
       <use xlink:href="#DejaVuSans-65" transform="translate(285.742188 0)"/>
      </g>
     </g>
    </g>
    <g id="xtick_14">
     <g id="line2d_14">
      <g>
       <use xlink:href="#m892dfa6e40" x="665.715299" y="318.183593" style="stroke: #000000; stroke-width: 0.8"/>
      </g>
     </g>
     <g id="text_14">
      <!-- Gemma -->
      <g transform="translate(619.311371 354.070411) rotate(-35) scale(0.1 -0.1)">
       <use xlink:href="#DejaVuSans-47"/>
       <use xlink:href="#DejaVuSans-65" transform="translate(77.490234 0)"/>
       <use xlink:href="#DejaVuSans-6d" transform="translate(139.013672 0)"/>
       <use xlink:href="#DejaVuSans-6d" transform="translate(236.425781 0)"/>
       <use xlink:href="#DejaVuSans-61" transform="translate(333.837891 0)"/>
      </g>
      <!-- rescued -->
      <g transform="translate(625.672736 363.286141) rotate(-35) scale(0.1 -0.1)">
       <use xlink:href="#DejaVuSans-72"/>
       <use xlink:href="#DejaVuSans-65" transform="translate(38.863281 0)"/>
       <use xlink:href="#DejaVuSans-73" transform="translate(100.386719 0)"/>
       <use xlink:href="#DejaVuSans-63" transform="translate(152.486328 0)"/>
       <use xlink:href="#DejaVuSans-75" transform="translate(207.466797 0)"/>
       <use xlink:href="#DejaVuSans-65" transform="translate(270.845703 0)"/>
       <use xlink:href="#DejaVuSans-64" transform="translate(332.369141 0)"/>
      </g>
      <!-- GPT-4o -->
      <g transform="translate(635.800921 369.864314) rotate(-35) scale(0.1 -0.1)">
       <use xlink:href="#DejaVuSans-47"/>
       <use xlink:href="#DejaVuSans-50" transform="translate(77.490234 0)"/>
       <use xlink:href="#DejaVuSans-54" transform="translate(137.792969 0)"/>
       <use xlink:href="#DejaVuSans-2d" transform="translate(189.751953 0)"/>
       <use xlink:href="#DejaVuSans-34" transform="translate(225.835938 0)"/>
       <use xlink:href="#DejaVuSans-6f" transform="translate(289.458984 0)"/>
      </g>
     </g>
    </g>
    <g id="xtick_15">
     <g id="line2d_15">
      <g>
       <use xlink:href="#m892dfa6e40" x="709.251887" y="318.183593" style="stroke: #000000; stroke-width: 0.8"/>
      </g>
     </g>
     <g id="text_15">
      <!-- Gemma -->
      <g transform="translate(662.84796 354.070411) rotate(-35) scale(0.1 -0.1)">
       <use xlink:href="#DejaVuSans-47"/>
       <use xlink:href="#DejaVuSans-65" transform="translate(77.490234 0)"/>
       <use xlink:href="#DejaVuSans-6d" transform="translate(139.013672 0)"/>
       <use xlink:href="#DejaVuSans-6d" transform="translate(236.425781 0)"/>
       <use xlink:href="#DejaVuSans-61" transform="translate(333.837891 0)"/>
      </g>
      <!-- rescued -->
      <g transform="translate(669.209325 363.286141) rotate(-35) scale(0.1 -0.1)">
       <use xlink:href="#DejaVuSans-72"/>
       <use xlink:href="#DejaVuSans-65" transform="translate(38.863281 0)"/>
       <use xlink:href="#DejaVuSans-73" transform="translate(100.386719 0)"/>
       <use xlink:href="#DejaVuSans-63" transform="translate(152.486328 0)"/>
       <use xlink:href="#DejaVuSans-75" transform="translate(207.466797 0)"/>
       <use xlink:href="#DejaVuSans-65" transform="translate(270.845703 0)"/>
       <use xlink:href="#DejaVuSans-64" transform="translate(332.369141 0)"/>
      </g>
      <!-- GPT-4o mini -->
      <g transform="translate(659.012299 384.09618) rotate(-35) scale(0.1 -0.1)">
       <use xlink:href="#DejaVuSans-47"/>
       <use xlink:href="#DejaVuSans-50" transform="translate(77.490234 0)"/>
       <use xlink:href="#DejaVuSans-54" transform="translate(137.792969 0)"/>
       <use xlink:href="#DejaVuSans-2d" transform="translate(189.751953 0)"/>
       <use xlink:href="#DejaVuSans-34" transform="translate(225.835938 0)"/>
       <use xlink:href="#DejaVuSans-6f" transform="translate(289.458984 0)"/>
       <use xlink:href="#DejaVuSans-20" transform="translate(350.640625 0)"/>
       <use xlink:href="#DejaVuSans-6d" transform="translate(382.427734 0)"/>
       <use xlink:href="#DejaVuSans-69" transform="translate(479.839844 0)"/>
       <use xlink:href="#DejaVuSans-6e" transform="translate(507.623047 0)"/>
       <use xlink:href="#DejaVuSans-69" transform="translate(571.001953 0)"/>
      </g>
     </g>
    </g>
    <g id="xtick_16">
     <g id="line2d_16">
      <g>
       <use xlink:href="#m892dfa6e40" x="752.788476" y="318.183593" style="stroke: #000000; stroke-width: 0.8"/>
      </g>
     </g>
     <g id="text_16">
      <!-- Gemma -->
      <g transform="translate(706.384548 354.070411) rotate(-35) scale(0.1 -0.1)">
       <use xlink:href="#DejaVuSans-47"/>
       <use xlink:href="#DejaVuSans-65" transform="translate(77.490234 0)"/>
       <use xlink:href="#DejaVuSans-6d" transform="translate(139.013672 0)"/>
       <use xlink:href="#DejaVuSans-6d" transform="translate(236.425781 0)"/>
       <use xlink:href="#DejaVuSans-61" transform="translate(333.837891 0)"/>
      </g>
      <!-- rescued -->
      <g transform="translate(712.745913 363.286141) rotate(-35) scale(0.1 -0.1)">
       <use xlink:href="#DejaVuSans-72"/>
       <use xlink:href="#DejaVuSans-65" transform="translate(38.863281 0)"/>
       <use xlink:href="#DejaVuSans-73" transform="translate(100.386719 0)"/>
       <use xlink:href="#DejaVuSans-63" transform="translate(152.486328 0)"/>
       <use xlink:href="#DejaVuSans-75" transform="translate(207.466797 0)"/>
       <use xlink:href="#DejaVuSans-65" transform="translate(270.845703 0)"/>
       <use xlink:href="#DejaVuSans-64" transform="translate(332.369141 0)"/>
      </g>
      <!-- Gemma -->
      <g transform="translate(719.230151 372.415833) rotate(-35) scale(0.1 -0.1)">
       <use xlink:href="#DejaVuSans-47"/>
       <use xlink:href="#DejaVuSans-65" transform="translate(77.490234 0)"/>
       <use xlink:href="#DejaVuSans-6d" transform="translate(139.013672 0)"/>
       <use xlink:href="#DejaVuSans-6d" transform="translate(236.425781 0)"/>
       <use xlink:href="#DejaVuSans-61" transform="translate(333.837891 0)"/>
      </g>
     </g>
    </g>
   </g>
   <g id="matplotlib.axis_2">
    <g id="ytick_1">
     <g id="line2d_17">
      <defs>
       <path id="m5bd6d883e2" d="M 0 0 
L -3.5 0 
" style="stroke: #000000; stroke-width: 0.8"/>
      </defs>
      <g>
       <use xlink:href="#m5bd6d883e2" x="49.128365" y="318.183593" style="stroke: #000000; stroke-width: 0.8"/>
      </g>
     </g>
     <g id="text_17">
      <!-- 0 -->
      <g transform="translate(35.765865 321.982812) scale(0.1 -0.1)">
       <defs>
        <path id="DejaVuSans-30" d="M 2034 4250 
Q 1547 4250 1301 3770 
Q 1056 3291 1056 2328 
Q 1056 1369 1301 889 
Q 1547 409 2034 409 
Q 2525 409 2770 889 
Q 3016 1369 3016 2328 
Q 3016 3291 2770 3770 
Q 2525 4250 2034 4250 
z
M 2034 4750 
Q 2819 4750 3233 4129 
Q 3647 3509 3647 2328 
Q 3647 1150 3233 529 
Q 2819 -91 2034 -91 
Q 1250 -91 836 529 
Q 422 1150 422 2328 
Q 422 3509 836 4129 
Q 1250 4750 2034 4750 
z
" transform="scale(0.015625)"/>
       </defs>
       <use xlink:href="#DejaVuSans-30"/>
      </g>
     </g>
    </g>
    <g id="ytick_2">
     <g id="line2d_18">
      <g>
       <use xlink:href="#m5bd6d883e2" x="49.128365" y="273.888402" style="stroke: #000000; stroke-width: 0.8"/>
      </g>
     </g>
     <g id="text_18">
      <!-- 200 -->
      <g transform="translate(23.040865 277.68762) scale(0.1 -0.1)">
       <defs>
        <path id="DejaVuSans-32" d="M 1228 531 
L 3431 531 
L 3431 0 
L 469 0 
L 469 531 
Q 828 903 1448 1529 
Q 2069 2156 2228 2338 
Q 2531 2678 2651 2914 
Q 2772 3150 2772 3378 
Q 2772 3750 2511 3984 
Q 2250 4219 1831 4219 
Q 1534 4219 1204 4116 
Q 875 4013 500 3803 
L 500 4441 
Q 881 4594 1212 4672 
Q 1544 4750 1819 4750 
Q 2544 4750 2975 4387 
Q 3406 4025 3406 3419 
Q 3406 3131 3298 2873 
Q 3191 2616 2906 2266 
Q 2828 2175 2409 1742 
Q 1991 1309 1228 531 
z
" transform="scale(0.015625)"/>
       </defs>
       <use xlink:href="#DejaVuSans-32"/>
       <use xlink:href="#DejaVuSans-30" transform="translate(63.623047 0)"/>
       <use xlink:href="#DejaVuSans-30" transform="translate(127.246094 0)"/>
      </g>
     </g>
    </g>
    <g id="ytick_3">
     <g id="line2d_19">
      <g>
       <use xlink:href="#m5bd6d883e2" x="49.128365" y="229.59321" style="stroke: #000000; stroke-width: 0.8"/>
      </g>
     </g>
     <g id="text_19">
      <!-- 400 -->
      <g transform="translate(23.040865 233.392429) scale(0.1 -0.1)">
       <use xlink:href="#DejaVuSans-34"/>
       <use xlink:href="#DejaVuSans-30" transform="translate(63.623047 0)"/>
       <use xlink:href="#DejaVuSans-30" transform="translate(127.246094 0)"/>
      </g>
     </g>
    </g>
    <g id="ytick_4">
     <g id="line2d_20">
      <g>
       <use xlink:href="#m5bd6d883e2" x="49.128365" y="185.298019" style="stroke: #000000; stroke-width: 0.8"/>
      </g>
     </g>
     <g id="text_20">
      <!-- 600 -->
      <g transform="translate(23.040865 189.097237) scale(0.1 -0.1)">
       <defs>
        <path id="DejaVuSans-36" d="M 2113 2584 
Q 1688 2584 1439 2293 
Q 1191 2003 1191 1497 
Q 1191 994 1439 701 
Q 1688 409 2113 409 
Q 2538 409 2786 701 
Q 3034 994 3034 1497 
Q 3034 2003 2786 2293 
Q 2538 2584 2113 2584 
z
M 3366 4563 
L 3366 3988 
Q 3128 4100 2886 4159 
Q 2644 4219 2406 4219 
Q 1781 4219 1451 3797 
Q 1122 3375 1075 2522 
Q 1259 2794 1537 2939 
Q 1816 3084 2150 3084 
Q 2853 3084 3261 2657 
Q 3669 2231 3669 1497 
Q 3669 778 3244 343 
Q 2819 -91 2113 -91 
Q 1303 -91 875 529 
Q 447 1150 447 2328 
Q 447 3434 972 4092 
Q 1497 4750 2381 4750 
Q 2619 4750 2861 4703 
Q 3103 4656 3366 4563 
z
" transform="scale(0.015625)"/>
       </defs>
       <use xlink:href="#DejaVuSans-36"/>
       <use xlink:href="#DejaVuSans-30" transform="translate(63.623047 0)"/>
       <use xlink:href="#DejaVuSans-30" transform="translate(127.246094 0)"/>
      </g>
     </g>
    </g>
    <g id="ytick_5">
     <g id="line2d_21">
      <g>
       <use xlink:href="#m5bd6d883e2" x="49.128365" y="141.002827" style="stroke: #000000; stroke-width: 0.8"/>
      </g>
     </g>
     <g id="text_21">
      <!-- 800 -->
      <g transform="translate(23.040865 144.802046) scale(0.1 -0.1)">
       <defs>
        <path id="DejaVuSans-38" d="M 2034 2216 
Q 1584 2216 1326 1975 
Q 1069 1734 1069 1313 
Q 1069 891 1326 650 
Q 1584 409 2034 409 
Q 2484 409 2743 651 
Q 3003 894 3003 1313 
Q 3003 1734 2745 1975 
Q 2488 2216 2034 2216 
z
M 1403 2484 
Q 997 2584 770 2862 
Q 544 3141 544 3541 
Q 544 4100 942 4425 
Q 1341 4750 2034 4750 
Q 2731 4750 3128 4425 
Q 3525 4100 3525 3541 
Q 3525 3141 3298 2862 
Q 3072 2584 2669 2484 
Q 3125 2378 3379 2068 
Q 3634 1759 3634 1313 
Q 3634 634 3220 271 
Q 2806 -91 2034 -91 
Q 1263 -91 848 271 
Q 434 634 434 1313 
Q 434 1759 690 2068 
Q 947 2378 1403 2484 
z
M 1172 3481 
Q 1172 3119 1398 2916 
Q 1625 2713 2034 2713 
Q 2441 2713 2670 2916 
Q 2900 3119 2900 3481 
Q 2900 3844 2670 4047 
Q 2441 4250 2034 4250 
Q 1625 4250 1398 4047 
Q 1172 3844 1172 3481 
z
" transform="scale(0.015625)"/>
       </defs>
       <use xlink:href="#DejaVuSans-38"/>
       <use xlink:href="#DejaVuSans-30" transform="translate(63.623047 0)"/>
       <use xlink:href="#DejaVuSans-30" transform="translate(127.246094 0)"/>
      </g>
     </g>
    </g>
    <g id="ytick_6">
     <g id="line2d_22">
      <g>
       <use xlink:href="#m5bd6d883e2" x="49.128365" y="96.707636" style="stroke: #000000; stroke-width: 0.8"/>
      </g>
     </g>
     <g id="text_22">
      <!-- 1000 -->
      <g transform="translate(16.678365 100.506854) scale(0.1 -0.1)">
       <defs>
        <path id="DejaVuSans-31" d="M 794 531 
L 1825 531 
L 1825 4091 
L 703 3866 
L 703 4441 
L 1819 4666 
L 2450 4666 
L 2450 531 
L 3481 531 
L 3481 0 
L 794 0 
L 794 531 
z
" transform="scale(0.015625)"/>
       </defs>
       <use xlink:href="#DejaVuSans-31"/>
       <use xlink:href="#DejaVuSans-30" transform="translate(63.623047 0)"/>
       <use xlink:href="#DejaVuSans-30" transform="translate(127.246094 0)"/>
       <use xlink:href="#DejaVuSans-30" transform="translate(190.869141 0)"/>
      </g>
     </g>
    </g>
    <g id="ytick_7">
     <g id="line2d_23">
      <g>
       <use xlink:href="#m5bd6d883e2" x="49.128365" y="52.412444" style="stroke: #000000; stroke-width: 0.8"/>
      </g>
     </g>
     <g id="text_23">
      <!-- 1200 -->
      <g transform="translate(16.678365 56.211663) scale(0.1 -0.1)">
       <use xlink:href="#DejaVuSans-31"/>
       <use xlink:href="#DejaVuSans-32" transform="translate(63.623047 0)"/>
       <use xlink:href="#DejaVuSans-30" transform="translate(127.246094 0)"/>
       <use xlink:href="#DejaVuSans-30" transform="translate(190.869141 0)"/>
      </g>
     </g>
    </g>
    <g id="text_24">
     <!-- Mixed units -->
     <g transform="translate(10.598677 196.788479) rotate(-90) scale(0.1 -0.1)">
      <defs>
       <path id="DejaVuSans-4d" d="M 628 4666 
L 1569 4666 
L 2759 1491 
L 3956 4666 
L 4897 4666 
L 4897 0 
L 4281 0 
L 4281 4097 
L 3078 897 
L 2444 897 
L 1241 4097 
L 1241 0 
L 628 0 
L 628 4666 
z
" transform="scale(0.015625)"/>
       <path id="DejaVuSans-78" d="M 3513 3500 
L 2247 1797 
L 3578 0 
L 2900 0 
L 1881 1375 
L 863 0 
L 184 0 
L 1544 1831 
L 300 3500 
L 978 3500 
L 1906 2253 
L 2834 3500 
L 3513 3500 
z
" transform="scale(0.015625)"/>
       <path id="DejaVuSans-74" d="M 1172 4494 
L 1172 3500 
L 2356 3500 
L 2356 3053 
L 1172 3053 
L 1172 1153 
Q 1172 725 1289 603 
Q 1406 481 1766 481 
L 2356 481 
L 2356 0 
L 1766 0 
Q 1100 0 847 248 
Q 594 497 594 1153 
L 594 3053 
L 172 3053 
L 172 3500 
L 594 3500 
L 594 4494 
L 1172 4494 
z
" transform="scale(0.015625)"/>
      </defs>
      <use xlink:href="#DejaVuSans-4d"/>
      <use xlink:href="#DejaVuSans-69" transform="translate(86.279297 0)"/>
      <use xlink:href="#DejaVuSans-78" transform="translate(114.0625 0)"/>
      <use xlink:href="#DejaVuSans-65" transform="translate(170.117188 0)"/>
      <use xlink:href="#DejaVuSans-64" transform="translate(231.640625 0)"/>
      <use xlink:href="#DejaVuSans-20" transform="translate(295.117188 0)"/>
      <use xlink:href="#DejaVuSans-75" transform="translate(326.904297 0)"/>
      <use xlink:href="#DejaVuSans-6e" transform="translate(390.283203 0)"/>
      <use xlink:href="#DejaVuSans-69" transform="translate(453.662109 0)"/>
      <use xlink:href="#DejaVuSans-74" transform="translate(481.445312 0)"/>
      <use xlink:href="#DejaVuSans-73" transform="translate(520.654297 0)"/>
     </g>
    </g>
   </g>
   <g id="patch_51">
    <path d="M 49.128365 318.183593 
L 49.128365 18.118365 
" style="fill: none; stroke: #000000; stroke-width: 0.8; stroke-linejoin: miter; stroke-linecap: square"/>
   </g>
   <g id="patch_52">
    <path d="M 803.39976 318.183593 
L 803.39976 18.118365 
" style="fill: none; stroke: #000000; stroke-width: 0.8; stroke-linejoin: miter; stroke-linecap: square"/>
   </g>
   <g id="patch_53">
    <path d="M 49.128365 318.183593 
L 803.39976 318.183593 
" style="fill: none; stroke: #000000; stroke-width: 0.8; stroke-linejoin: miter; stroke-linecap: square"/>
   </g>
   <g id="patch_54">
    <path d="M 49.128365 18.118365 
L 803.39976 18.118365 
" style="fill: none; stroke: #000000; stroke-width: 0.8; stroke-linejoin: miter; stroke-linecap: square"/>
   </g>
   <g id="text_25">
    <!-- Cost Comparison -->
    <g transform="translate(375.094375 12.118365) scale(0.12 -0.12)">
     <defs>
      <path id="DejaVuSans-70" d="M 1159 525 
L 1159 -1331 
L 581 -1331 
L 581 3500 
L 1159 3500 
L 1159 2969 
Q 1341 3281 1617 3432 
Q 1894 3584 2278 3584 
Q 2916 3584 3314 3078 
Q 3713 2572 3713 1747 
Q 3713 922 3314 415 
Q 2916 -91 2278 -91 
Q 1894 -91 1617 61 
Q 1341 213 1159 525 
z
M 3116 1747 
Q 3116 2381 2855 2742 
Q 2594 3103 2138 3103 
Q 1681 3103 1420 2742 
Q 1159 2381 1159 1747 
Q 1159 1113 1420 752 
Q 1681 391 2138 391 
Q 2594 391 2855 752 
Q 3116 1113 3116 1747 
z
" transform="scale(0.015625)"/>
     </defs>
     <use xlink:href="#DejaVuSans-43"/>
     <use xlink:href="#DejaVuSans-6f" transform="translate(69.824219 0)"/>
     <use xlink:href="#DejaVuSans-73" transform="translate(131.005859 0)"/>
     <use xlink:href="#DejaVuSans-74" transform="translate(183.105469 0)"/>
     <use xlink:href="#DejaVuSans-20" transform="translate(222.314453 0)"/>
     <use xlink:href="#DejaVuSans-43" transform="translate(254.101562 0)"/>
     <use xlink:href="#DejaVuSans-6f" transform="translate(323.925781 0)"/>
     <use xlink:href="#DejaVuSans-6d" transform="translate(385.107422 0)"/>
     <use xlink:href="#DejaVuSans-70" transform="translate(482.519531 0)"/>
     <use xlink:href="#DejaVuSans-61" transform="translate(545.996094 0)"/>
     <use xlink:href="#DejaVuSans-72" transform="translate(607.275391 0)"/>
     <use xlink:href="#DejaVuSans-69" transform="translate(648.388672 0)"/>
     <use xlink:href="#DejaVuSans-73" transform="translate(676.171875 0)"/>
     <use xlink:href="#DejaVuSans-6f" transform="translate(728.271484 0)"/>
     <use xlink:href="#DejaVuSans-6e" transform="translate(789.453125 0)"/>
    </g>
   </g>
   <g id="legend_1">
    <g id="patch_55">
     <path d="M 708.83101 70.15274 
L 796.39976 70.15274 
Q 798.39976 70.15274 798.39976 68.15274 
L 798.39976 25.118365 
Q 798.39976 23.118365 796.39976 23.118365 
L 708.83101 23.118365 
Q 706.83101 23.118365 706.83101 25.118365 
L 706.83101 68.15274 
Q 706.83101 70.15274 708.83101 70.15274 
z
" style="fill: #ffffff; opacity: 0.8; stroke: #cccccc; stroke-linejoin: miter"/>
    </g>
    <g id="patch_56">
     <path d="M 710.83101 34.716803 
L 730.83101 34.716803 
L 730.83101 27.716803 
L 710.83101 27.716803 
z
" style="fill: #355070"/>
    </g>
    <g id="text_26">
     <!-- runtime (s) -->
     <g transform="translate(738.83101 34.716803) scale(0.1 -0.1)">
      <defs>
       <path id="DejaVuSans-28" d="M 1984 4856 
Q 1566 4138 1362 3434 
Q 1159 2731 1159 2009 
Q 1159 1288 1364 580 
Q 1569 -128 1984 -844 
L 1484 -844 
Q 1016 -109 783 600 
Q 550 1309 550 2009 
Q 550 2706 781 3412 
Q 1013 4119 1484 4856 
L 1984 4856 
z
" transform="scale(0.015625)"/>
       <path id="DejaVuSans-29" d="M 513 4856 
L 1013 4856 
Q 1481 4119 1714 3412 
Q 1947 2706 1947 2009 
Q 1947 1309 1714 600 
Q 1481 -109 1013 -844 
L 513 -844 
Q 928 -128 1133 580 
Q 1338 1288 1338 2009 
Q 1338 2731 1133 3434 
Q 928 4138 513 4856 
z
" transform="scale(0.015625)"/>
      </defs>
      <use xlink:href="#DejaVuSans-72"/>
      <use xlink:href="#DejaVuSans-75" transform="translate(41.113281 0)"/>
      <use xlink:href="#DejaVuSans-6e" transform="translate(104.492188 0)"/>
      <use xlink:href="#DejaVuSans-74" transform="translate(167.871094 0)"/>
      <use xlink:href="#DejaVuSans-69" transform="translate(207.080078 0)"/>
      <use xlink:href="#DejaVuSans-6d" transform="translate(234.863281 0)"/>
      <use xlink:href="#DejaVuSans-65" transform="translate(332.275391 0)"/>
      <use xlink:href="#DejaVuSans-20" transform="translate(393.798828 0)"/>
      <use xlink:href="#DejaVuSans-28" transform="translate(425.585938 0)"/>
      <use xlink:href="#DejaVuSans-73" transform="translate(464.599609 0)"/>
      <use xlink:href="#DejaVuSans-29" transform="translate(516.699219 0)"/>
     </g>
    </g>
    <g id="patch_57">
     <path d="M 710.83101 49.394928 
L 730.83101 49.394928 
L 730.83101 42.394928 
L 710.83101 42.394928 
z
" style="fill: #b56576"/>
    </g>
    <g id="text_27">
     <!-- LLM calls -->
     <g transform="translate(738.83101 49.394928) scale(0.1 -0.1)">
      <defs>
       <path id="DejaVuSans-4c" d="M 628 4666 
L 1259 4666 
L 1259 531 
L 3531 531 
L 3531 0 
L 628 0 
L 628 4666 
z
" transform="scale(0.015625)"/>
      </defs>
      <use xlink:href="#DejaVuSans-4c"/>
      <use xlink:href="#DejaVuSans-4c" transform="translate(55.712891 0)"/>
      <use xlink:href="#DejaVuSans-4d" transform="translate(111.425781 0)"/>
      <use xlink:href="#DejaVuSans-20" transform="translate(197.705078 0)"/>
      <use xlink:href="#DejaVuSans-63" transform="translate(229.492188 0)"/>
      <use xlink:href="#DejaVuSans-61" transform="translate(284.472656 0)"/>
      <use xlink:href="#DejaVuSans-6c" transform="translate(345.751953 0)"/>
      <use xlink:href="#DejaVuSans-6c" transform="translate(373.535156 0)"/>
      <use xlink:href="#DejaVuSans-73" transform="translate(401.318359 0)"/>
     </g>
    </g>
    <g id="patch_58">
     <path d="M 710.83101 64.073053 
L 730.83101 64.073053 
L 730.83101 57.073053 
L 710.83101 57.073053 
z
" style="fill: #2a9d8f"/>
    </g>
    <g id="text_28">
     <!-- tokens (k) -->
     <g transform="translate(738.83101 64.073053) scale(0.1 -0.1)">
      <defs>
       <path id="DejaVuSans-6b" d="M 581 4863 
L 1159 4863 
L 1159 1991 
L 2875 3500 
L 3609 3500 
L 1753 1863 
L 3688 0 
L 2938 0 
L 1159 1709 
L 1159 0 
L 581 0 
L 581 4863 
z
" transform="scale(0.015625)"/>
      </defs>
      <use xlink:href="#DejaVuSans-74"/>
      <use xlink:href="#DejaVuSans-6f" transform="translate(39.208984 0)"/>
      <use xlink:href="#DejaVuSans-6b" transform="translate(100.390625 0)"/>
      <use xlink:href="#DejaVuSans-65" transform="translate(154.675781 0)"/>
      <use xlink:href="#DejaVuSans-6e" transform="translate(216.199219 0)"/>
      <use xlink:href="#DejaVuSans-73" transform="translate(279.578125 0)"/>
      <use xlink:href="#DejaVuSans-20" transform="translate(331.677734 0)"/>
      <use xlink:href="#DejaVuSans-28" transform="translate(363.464844 0)"/>
      <use xlink:href="#DejaVuSans-6b" transform="translate(402.478516 0)"/>
      <use xlink:href="#DejaVuSans-29" transform="translate(460.388672 0)"/>
     </g>
    </g>
   </g>
  </g>
 </g>
 <defs>
  <clipPath id="p5bebe26787">
   <rect x="49.128365" y="18.118365" width="754.271395" height="300.065228"/>
  </clipPath>
 </defs>
</svg>
